<svg width="383" height="590" viewBox="0 0 383 590" fill="none" xmlns="http://www.w3.org/2000/svg">
<g filter="url(#filter0_d_8_9327)">
<path fill-rule="evenodd" clip-rule="evenodd" d="M98.3486 264.543C98.1509 264.965 97.3611 265.772 96.5937 266.337C94.714 267.719 89.8026 275.109 90.2483 275.884C90.3762 276.106 90.0779 276.59 89.5856 276.957C89.0939 277.325 88.669 278.013 88.6419 278.486C88.6148 278.959 88.3856 279.424 88.1324 279.52C87.2256 279.861 86.0841 281.838 86.2373 282.803C86.3232 283.344 85.9637 284.68 85.4389 285.772C84.9146 286.865 84.0556 288.653 83.5312 289.745C83.0069 290.837 81.8853 293.979 81.0397 296.725C80.1937 299.472 79.3091 302.092 79.0735 302.548C78.8383 303.004 78.7956 303.68 78.9787 304.05C79.1618 304.421 78.9493 305.633 78.5066 306.743C78.0638 307.853 77.8122 308.989 77.9474 309.268C78.0826 309.547 77.6781 312.038 77.049 314.805C76.4198 317.571 75.9695 320.736 76.049 321.837C76.128 322.938 75.948 324.19 75.649 324.619C75.3499 325.047 75.2122 325.613 75.3426 325.877C75.473 326.141 75.3439 327.522 75.0557 328.945C74.7674 330.368 74.6734 331.82 74.8464 332.17C75.0197 332.521 74.9869 333.313 74.7734 333.931C74.5601 334.549 74.6586 335.359 74.992 335.732C75.3257 336.104 75.4078 337.517 75.1746 338.872C74.9414 340.226 74.9109 342.017 75.1071 342.851C75.3038 343.684 75.625 345.047 75.8221 345.88C76.0196 346.713 76.0643 348.172 75.9219 349.123C75.7798 350.073 75.7799 351.09 75.9223 351.382C76.0643 351.675 76.184 352.783 76.1879 353.845C76.2033 357.953 76.8459 362.518 77.6855 364.483C78.1675 365.612 78.5612 367.904 78.5602 369.577C78.5593 371.25 78.7118 372.653 78.8994 372.696C79.0871 372.738 79.2392 373.26 79.2373 373.855C79.2353 374.45 79.5441 375.106 79.9233 375.311C80.347 375.542 80.5003 376.118 80.3206 376.809C80.16 377.426 80.3041 378.509 80.6411 379.214C80.9779 379.92 81.2331 381.238 81.2083 382.144C81.1582 383.972 82.7578 387.764 83.1955 386.856C83.5843 386.05 84.316 388.272 84.3028 390.219C84.292 391.821 86.5619 396.596 87.6025 397.162C87.8873 397.317 88.3572 398.084 88.6474 398.868C88.9369 399.651 89.5923 400.437 90.1035 400.613C90.8755 400.88 90.9401 401.11 90.4854 401.97C89.9745 402.938 90.025 403.049 91.2499 403.666C91.9712 404.03 92.5072 404.535 92.441 404.789C92.3749 405.043 92.1977 405.001 92.0474 404.697C91.8969 404.392 91.4756 404.36 91.1112 404.626C90.6991 404.926 90.67 405.557 91.0348 406.296C91.3572 406.948 91.8446 407.32 92.118 407.12C92.4409 406.885 92.7776 407.359 93.0794 408.471C93.3344 409.413 93.5987 409.971 93.6665 409.711C93.9424 408.652 96.231 409.813 96.6221 411.21C96.8794 412.13 97.4613 412.76 98.27 412.994C99.6913 413.405 99.7398 414.424 98.3311 414.264C97.5841 414.18 97.4049 414.409 97.4019 415.453C97.3971 417.02 98.378 419.135 99.0938 419.1C99.6681 419.073 100.136 417.229 99.7112 416.665C99.0192 415.746 99.1996 415.379 100.144 415.785C101.248 416.259 101.912 418.061 101.18 418.594C100.939 418.769 101.013 419.148 101.344 419.435C101.691 419.737 101.695 420.075 101.353 420.236C101.02 420.391 101.01 420.898 101.329 421.39C101.642 421.872 102.322 422.975 102.84 423.84C103.358 424.706 103.992 425.424 104.249 425.437C104.734 425.462 107.829 428.66 109.63 430.998C110.199 431.737 110.838 432.216 111.049 432.062C111.26 431.908 111.749 432.424 112.137 433.208C112.89 434.733 117.349 437.48 117.587 436.565C117.665 436.264 118.102 436.772 118.557 437.694C119.013 438.616 120.008 439.61 120.769 439.902C121.53 440.195 123.183 441.136 124.444 441.992C125.704 442.849 128.233 444.348 130.063 445.322C131.893 446.297 134.723 447.837 136.352 448.744C137.982 449.652 140.049 450.615 140.946 450.884C146.745 452.629 149.127 453.395 151.459 454.264C152.91 454.805 155.313 455.523 156.799 455.861C158.286 456.198 159.84 456.809 160.253 457.218C161.007 457.963 165.201 458.262 165.717 457.607C165.869 457.415 166.312 457.576 166.703 457.965C167.094 458.353 168.088 458.469 168.913 458.223C169.738 457.977 170.764 458.124 171.194 458.552C171.624 458.979 172.163 459.191 172.393 459.024C172.623 458.856 174.439 458.876 176.429 459.068C178.419 459.259 181.147 459.523 182.491 459.654C183.836 459.785 185.225 459.826 185.578 459.746C185.932 459.666 189.402 459.607 193.29 459.614C204.548 459.636 205.224 459.608 205.469 459.101C205.597 458.836 205.923 458.74 206.195 458.888C206.467 459.035 206.921 458.823 207.205 458.416C207.489 458.009 207.836 457.909 207.977 458.193C208.298 458.844 213.499 458.123 214.677 457.265C215.159 456.914 215.845 456.781 216.203 456.969C217.073 457.428 222.252 456.635 222.878 455.947C223.15 455.647 224.44 455.361 225.743 455.312C227.046 455.263 228.473 454.959 228.915 454.637C229.357 454.315 230.063 454.129 230.482 454.224C231.611 454.479 235.728 453.569 235.504 453.114C235.287 452.675 239.772 451.827 240.5 452.169C240.756 452.289 241.392 451.896 241.915 451.294C242.541 450.572 243.181 450.31 243.798 450.523C244.311 450.7 244.863 450.573 245.023 450.241C245.369 449.524 248.017 449.077 248.968 449.575C249.356 449.778 249.94 449.534 250.361 448.992C250.771 448.464 251.713 448.047 252.525 448.032C253.316 448.018 254.474 447.634 255.099 447.179C255.723 446.724 256.839 446.34 257.578 446.327C258.32 446.314 259.499 445.768 260.211 445.107C260.92 444.45 262.011 443.943 262.633 443.981C263.256 444.019 264.252 443.706 264.846 443.284C265.959 442.494 268.706 441.474 270.813 441.069C271.473 440.942 272.365 440.424 272.797 439.917C273.229 439.411 273.814 439.122 274.097 439.276C274.394 439.437 275.274 438.903 276.18 438.012C277.329 436.882 277.796 436.652 277.931 437.151C278.046 437.578 278.609 437.473 279.441 436.868C280.17 436.338 281.082 435.897 281.468 435.886C281.853 435.877 282.186 435.548 282.209 435.156C282.231 434.764 282.635 434.313 283.106 434.154C283.578 433.994 284.824 433.415 285.876 432.869C286.927 432.322 288.064 431.887 288.402 431.902C288.739 431.917 290.582 430.721 292.495 429.244C294.866 427.415 296.508 426.476 297.647 426.297C299.634 425.984 301.931 424.809 302.382 423.873C302.9 422.801 304.321 421.753 305.466 421.601C306.061 421.522 306.555 421.191 306.594 420.845C306.633 420.506 308.23 419.021 310.144 417.544C326.645 404.806 331.489 400.792 331.953 399.476C332.139 398.945 332.442 398.759 332.803 398.955C333.2 399.171 333.547 398.874 334.001 397.928C334.376 397.147 336.252 395.344 338.545 393.56C340.953 391.689 342.589 390.101 342.81 389.424C343.029 388.752 343.58 388.214 344.229 388.04C344.812 387.884 345.417 387.406 345.573 386.979C345.729 386.552 346.602 385.582 347.512 384.823C348.422 384.064 349.334 383.093 349.537 382.666C349.741 382.238 350.695 381.297 351.659 380.575C352.622 379.854 353.311 379.063 353.189 378.817C353.068 378.571 353.189 378.36 353.458 378.347C354.213 378.31 359.423 373.078 360.68 371.094C361.297 370.121 362.113 369.243 362.495 369.143C362.877 369.042 363.594 368.242 364.088 367.365C364.583 366.487 365.273 365.694 365.622 365.602C365.971 365.51 366.363 365.025 366.494 364.525C366.624 364.024 367.293 363.188 367.98 362.668C368.667 362.147 369.386 361.289 369.578 360.761C369.943 359.758 372.332 357.058 374.129 355.617C374.704 355.155 375.128 354.463 375.07 354.079C375.013 353.694 375.322 353.12 375.758 352.802C376.785 352.054 378.983 348.726 379.034 347.843C379.055 347.467 379.436 346.894 379.88 346.571C380.323 346.248 381.098 345.249 381.602 344.352C382.105 343.455 382.81 342.495 383.17 342.219C383.529 341.943 384.414 340.725 385.137 339.512C385.859 338.3 386.679 337.132 386.958 336.916C387.237 336.701 387.428 336.266 387.382 335.95C387.336 335.635 387.897 334.84 388.628 334.184C389.359 333.527 390.107 332.579 390.289 332.075C390.473 331.572 391.288 330.318 392.102 329.29C392.915 328.261 394.016 326.659 394.548 325.73C396.514 322.297 400.113 316.213 401.097 314.664C403.167 311.401 403.821 310.294 405.499 307.212C406.444 305.475 407.384 303.934 407.587 303.786C407.79 303.638 408.174 302.77 408.441 301.857C408.708 300.944 409.556 299.409 410.326 298.447C411.097 297.485 411.864 296.061 412.032 295.283C412.2 294.505 412.704 293.601 413.152 293.275C413.6 292.948 413.868 292.481 413.748 292.238C413.565 291.868 414.581 290.118 415.384 289.42C415.509 289.311 416.079 288.003 416.65 286.512C417.222 285.02 418.198 282.914 418.82 281.831C421.118 277.83 421.669 276.654 421.453 276.215C421.331 275.969 421.629 275.477 422.115 275.123C422.6 274.769 422.892 274.266 422.764 274.005C422.635 273.743 422.82 273.318 423.176 273.058C423.532 272.799 424.186 271.451 424.629 270.063C425.072 268.675 425.679 267.361 425.976 267.145C426.273 266.928 426.641 265.951 426.792 264.974C426.944 263.997 427.437 262.727 427.888 262.152C428.338 261.577 429.058 260.019 429.487 258.689C429.915 257.359 430.527 256.082 430.845 255.849C431.164 255.617 431.673 254.663 431.976 253.73C432.28 252.797 433.072 250.694 433.738 249.057C434.403 247.421 435.179 245.302 435.461 244.348C435.743 243.396 436.227 242.253 436.537 241.81C436.846 241.366 436.991 240.783 436.858 240.513C436.725 240.244 436.798 239.891 437.021 239.728C437.503 239.377 438.808 235.331 441.052 227.227C441.953 223.972 443.042 220.789 443.471 220.153L444.252 218.998L417.046 163.916C402.082 133.621 389.769 108.886 389.683 108.949C389.597 109.012 389.254 109.988 388.921 111.118C388.588 112.248 388.465 113.064 388.648 112.931C388.831 112.798 388.868 113.119 388.731 113.645C388.594 114.171 388.66 114.961 388.878 115.401C389.095 115.841 388.958 116.891 388.574 117.735C388.19 118.579 387.985 119.851 388.12 120.562C388.578 122.99 388.657 127.127 388.251 127.423C388.028 127.586 387.665 129.822 387.444 132.392C387.223 134.962 386.829 137.764 386.568 138.618C386.308 139.472 386.272 140.531 386.49 140.973C386.708 141.414 386.68 142.452 386.428 143.278C386.175 144.104 386.114 145.075 386.291 145.434C386.469 145.794 386.377 146.428 386.086 146.844C385.796 147.26 385.668 147.82 385.801 148.089C385.933 148.359 385.737 150.013 385.365 151.767C384.119 157.628 383.207 162.883 383.062 165.045C382.983 166.223 382.554 168.637 382.107 170.408C381.661 172.18 380.717 176.125 380.011 179.175C379.304 182.225 378.434 184.934 378.077 185.193C377.72 185.453 377.458 185.908 377.494 186.205C377.647 187.453 376.01 194.447 375.473 194.838C375.152 195.072 374.827 196.023 374.753 196.951C374.679 197.88 374.311 199.035 373.935 199.517C373.56 200.001 373.324 200.837 373.411 201.377C373.499 201.916 373.01 203.783 372.325 205.525C371.64 207.267 370.721 210.043 370.284 211.693C369.846 213.343 369.382 214.771 369.253 214.865C369.019 215.035 368.023 217.842 367.431 219.998C367.261 220.616 366.715 222.051 366.217 223.186C365.719 224.32 365.091 225.882 364.821 226.656C363.288 231.055 361.215 235.813 359.902 237.946C359.077 239.285 358.035 241.336 357.586 242.505C357.136 243.674 355.414 247.03 353.758 249.962C352.102 252.895 350.108 256.483 349.327 257.937C348.546 259.391 347.619 261.073 347.268 261.673C346.916 262.274 346.143 263.605 345.549 264.631C344.955 265.656 344.285 266.63 344.059 266.794C343.673 267.075 336.476 278.712 335.327 280.914C335.032 281.479 334.402 282.223 333.927 282.569C333.453 282.915 333.047 283.502 333.025 283.872C333.004 284.243 332.555 284.871 332.027 285.267C331.499 285.664 330.476 286.981 329.753 288.193C329.031 289.406 328.007 290.723 327.479 291.12C326.952 291.516 326.501 292.165 326.478 292.56C326.456 292.956 326.132 293.36 325.759 293.458C325.387 293.556 324.689 294.334 324.209 295.187C323.728 296.039 323.099 296.748 322.81 296.762C322.521 296.776 322.384 296.99 322.507 297.238C322.629 297.485 322.055 298.376 321.232 299.219C320.409 300.06 318.987 301.696 318.071 302.852C317.156 304.009 315.72 305.754 314.88 306.729C314.04 307.704 312.415 309.614 311.27 310.973C307.794 315.095 304.605 318.66 303.915 319.192C303.557 319.47 301.998 321.049 300.451 322.703C298.904 324.356 297.165 325.896 296.585 326.123C296.005 326.351 295.211 327.242 294.819 328.102C294.388 329.048 293.106 330.422 291.577 331.575C290.186 332.623 287.813 334.796 286.305 336.402C284.797 338.009 283.003 339.576 282.318 339.885C281.634 340.194 280.184 341.107 279.096 341.914C274.966 344.977 268.967 349.194 264.827 351.945C262.464 353.515 259.858 355.296 259.036 355.902C258.214 356.509 256.418 357.523 255.045 358.158C253.671 358.792 251.408 360.015 250.016 360.876C248.624 361.736 246.786 362.625 245.932 362.851C245.078 363.077 244.181 363.546 243.939 363.893C243.696 364.241 242.743 364.817 241.821 365.173C240.899 365.53 239.106 366.418 237.837 367.147C236.567 367.876 234.816 368.708 233.945 368.997C233.073 369.286 230.184 370.23 227.522 371.095C224.861 371.96 222.318 372.934 221.87 373.261C221.422 373.587 220.827 373.73 220.548 373.578C220.269 373.427 219.779 373.493 219.458 373.727C219.139 373.96 217.427 374.43 215.656 374.774C213.884 375.116 212.226 375.521 211.971 375.673C211.716 375.826 210.425 376.084 209.101 376.248C207.777 376.411 206.77 376.714 206.861 376.921C206.953 377.127 206.618 377.134 206.118 376.935C205.272 376.6 203.578 376.625 198.512 377.046C197.412 377.137 194.458 376.722 191.947 376.124C189.436 375.526 187.243 375.326 187.072 375.68C186.89 376.057 186.535 375.865 186.214 375.214C185.515 373.799 183.331 372.778 182.903 373.666C182.694 374.1 182.538 373.992 182.47 373.367C182.412 372.83 182.125 372.403 181.832 372.417C181.203 372.447 181.099 374.852 181.721 374.993C181.956 375.046 181.926 375.251 181.655 375.449C181.384 375.646 180.362 375.664 179.385 375.489L177.607 375.17L178.823 374.284C179.741 373.616 179.885 373.264 179.412 372.853C179.053 372.54 179.033 372.296 179.365 372.28C180.626 372.218 179.158 370.864 177.168 370.252L175.059 369.603L175.273 371.545C175.429 372.963 175.21 373.689 174.465 374.232C173.233 375.129 172.096 374.298 172.201 372.576C172.243 371.887 171.971 370.701 171.595 369.94C170.956 368.646 170.817 368.64 169.442 369.838C168.633 370.542 167.874 370.921 167.755 370.68C167.636 370.438 167.751 370.086 168.011 369.896C168.272 369.706 168.625 369.013 168.796 368.356C169.168 366.923 170.257 366.016 170.65 366.811C170.86 367.237 170.995 367.128 171.186 366.377C171.391 365.572 171.227 365.363 170.365 365.322C169.773 365.295 169.169 365.029 169.022 364.731C168.875 364.433 168.542 364.344 168.283 364.533C167.996 364.743 168.139 365.203 168.652 365.712C169.403 366.46 169.379 366.535 168.43 366.427C167.222 366.291 167.151 366.42 167.296 368.504C167.4 370.011 167.398 370.011 166.995 368.538C166.766 367.701 166.394 367.201 166.14 367.386C165.892 367.566 165.584 367.501 165.455 367.239C165.326 366.978 165.507 366.556 165.857 366.301C166.794 365.618 166.689 364.847 165.489 363.608C164.846 362.943 164.578 362.863 164.815 363.406C165.263 364.433 164.423 367.287 163.449 368.044C162.891 368.478 162.919 368.545 163.646 368.519C164.345 368.493 164.457 368.691 164.286 369.649C164.017 371.159 163.078 371.183 162.57 369.693C162.349 369.049 161.726 368.369 161.184 368.182C160.451 367.929 160.244 367.586 160.376 366.846C160.474 366.298 160.353 365.805 160.109 365.75C159.864 365.694 159.879 365.492 160.142 365.3C160.405 365.109 160.853 365.146 161.137 365.383C161.48 365.669 161.542 365.558 161.324 365.053C161.143 364.634 160.63 364.209 160.184 364.108C158.915 363.821 159.519 362.042 160.834 362.191C161.673 362.286 161.732 362.135 161.245 361.149C160.931 360.513 160.748 359.412 160.836 358.701C160.975 357.586 160.787 357.35 159.472 356.99C158.632 356.759 157.706 356.746 157.413 356.96C157.064 357.213 156.993 356.913 157.205 356.097C157.384 355.408 157.423 354.581 157.291 354.259C157.159 353.936 156.844 353.106 156.59 352.413C156.335 351.72 155.727 351.063 155.239 350.953C154.505 350.787 154.422 350.479 154.758 349.187C155.274 347.203 154.46 345.53 152.752 345.068C151.651 344.77 151.466 344.523 151.677 343.631C152.034 342.119 151.582 339.904 151.001 340.327C150.279 340.853 149.953 339.749 150.392 338.264C150.635 337.443 150.436 336.197 149.874 335.015C148.563 332.258 148.2 330.101 148.954 329.552C149.314 329.29 149.457 328.769 149.272 328.394C149.087 328.02 148.868 326.944 148.786 326.004C148.704 325.065 148.393 323.933 148.096 323.49C147.774 323.01 147.809 322.671 148.182 322.653C148.559 322.634 148.576 322.419 148.225 322.114C147.893 321.825 147.901 320.989 148.244 320.181C148.608 319.324 148.599 318.13 148.222 317.188C147.878 316.326 147.703 315.21 147.833 314.709C147.963 314.208 147.88 313.414 147.648 312.944C147.416 312.474 147.393 311.968 147.597 311.819C147.801 311.67 147.808 310.503 147.613 309.225C147.418 307.947 147.44 306.769 147.661 306.607C147.883 306.445 147.806 305.994 147.489 305.603C147.171 305.212 146.955 303.845 147.008 302.564C147.061 301.282 147.055 299.399 146.994 298.377C146.933 297.357 146.896 296.077 146.91 295.533C147.019 291.496 146.837 290.386 146.018 290.104C145.441 289.904 145.273 289.608 145.485 289.167C145.657 288.812 145.915 288.76 146.059 289.052C146.203 289.344 146.464 289.287 146.638 288.927C146.812 288.566 146.798 288.235 146.607 288.192C146.416 288.149 146.158 287.041 146.032 285.731C145.855 283.876 145.569 283.172 144.741 282.548C144.157 282.108 143.475 281.896 143.227 282.077C142.979 282.258 142.611 282.071 142.409 281.662C142.148 281.133 142.341 280.818 143.073 280.575C144.604 280.068 143.752 278.842 141.755 278.678C140.61 278.583 140.318 278.387 140.801 278.035C141.66 277.409 141.726 276.564 141.077 274.497C140.758 273.482 140.463 273.128 140.27 273.529C140.103 273.876 139.201 273.837 138.267 273.443C137.332 273.049 136.367 272.873 136.121 273.052C135.852 273.248 135.978 273.447 136.441 273.551C137.013 273.681 137.174 274.154 137.073 275.414C136.966 276.76 137.133 277.208 137.902 277.62C139.252 278.344 139.334 278.736 138.077 278.451C137.492 278.32 136.797 278.37 136.531 278.564C136.265 278.758 136.235 278.959 136.466 279.011C136.696 279.063 136.757 279.594 136.602 280.191C136.446 280.789 136.351 281.623 136.389 282.045C136.477 282.99 135.016 282.468 134.468 281.358C134.177 280.769 134.239 280.711 134.825 281.019C135.714 281.487 136.371 280.255 135.594 279.579C135.279 279.305 135.049 278.683 135.085 278.196C135.146 277.348 133.751 271.551 133.526 271.715C133.465 271.759 133.257 272.406 133.063 273.152C132.731 274.43 132.697 274.431 132.491 273.169C132.328 272.168 132.15 272 131.79 272.501C131.524 272.869 131.475 273.375 131.681 273.624C131.887 273.874 131.856 274.223 131.613 274.4C131.37 274.577 130.996 274.366 130.781 273.93C130.566 273.495 130.335 273.348 130.269 273.604C130.203 273.86 129.565 273.937 128.852 273.776C127.529 273.477 126.307 274.079 125.294 275.53C124.786 276.259 124.839 276.346 125.818 276.387C126.418 276.411 126.845 276.676 126.767 276.975C126.689 277.274 125.961 277.398 125.15 277.25C123.925 277.026 123.661 276.735 123.597 275.537C123.54 274.462 123.221 273.908 122.348 273.368C121.704 272.969 121.308 272.928 121.468 273.276C121.628 273.624 121.496 273.922 121.173 273.937C120.85 273.953 120.704 274.205 120.848 274.497C120.993 274.789 120.827 275.041 120.481 275.058C120.089 275.077 120.075 274.56 120.445 273.688C120.772 272.917 120.831 272.106 120.577 271.884C120.296 271.64 120.672 271.011 121.531 270.289C122.639 269.357 122.969 269.292 123.045 269.993C123.098 270.485 123.341 270.743 123.584 270.566C123.827 270.389 123.982 269.841 123.929 269.347C123.875 268.854 123.638 268.59 123.403 268.761C122.774 269.22 122.002 267.363 122.51 266.612C122.857 266.098 122.83 266.043 122.374 266.335C122.06 266.536 121.645 266.379 121.451 265.988C120.966 265.005 120.415 265.531 120.022 267.351C119.63 269.172 119.079 269.698 118.593 268.715C118.398 268.32 118.634 267.717 119.125 267.36C119.961 266.751 119.82 265.637 118.699 263.969C118.488 263.655 118.678 263.344 119.158 263.218C120.3 262.919 119.724 262.001 118.569 262.281C117.733 262.484 117.717 262.385 118.415 261.381C119.264 260.16 118.708 259.257 116.71 258.613C114.731 257.974 115.79 256.667 118.286 256.668C120.41 256.669 121.364 256.081 120.868 255.077C120.746 254.831 120.297 254.885 119.87 255.196C119.442 255.508 118.633 255.516 118.072 255.215C117.51 254.914 116.695 254.927 116.26 255.244C115.824 255.562 115.113 255.741 114.679 255.642C113.689 255.419 110.23 256.433 109.021 257.301C108.521 257.66 107.734 257.868 107.272 257.764C106.604 257.613 106.422 257.763 106.38 258.502C106.342 259.164 105.912 259.583 104.877 259.97C102.928 260.696 98.7962 263.591 98.3486 264.543ZM115.303 265.808C114.828 267.051 115.464 268.736 116.203 268.197C116.474 268 116.604 267.034 116.492 266.05C116.275 264.134 115.965 264.071 115.303 265.808ZM115.04 271.251C115.572 272.327 116.613 273.064 117.099 272.709C117.355 272.523 117.154 272.246 116.633 272.066C115.856 271.798 115.868 271.708 116.716 271.47C117.69 271.197 117.681 271.18 116.363 270.773C114.776 270.283 114.595 270.349 115.04 271.251ZM114.485 273C114.819 273.29 115.17 273.47 115.265 273.4C115.36 273.331 115.28 272.953 115.087 272.562C114.893 272.17 114.543 271.99 114.307 272.162C114.072 272.333 114.152 272.71 114.485 273ZM120.679 268.578C120.772 269.433 120.846 269.403 121.25 268.345C121.505 267.676 121.768 267.008 121.833 266.861C121.897 266.713 121.64 266.818 121.261 267.094C120.882 267.37 120.62 268.038 120.679 268.578ZM118.455 272.059C119.212 272.321 119.231 272.412 118.565 272.587C118.116 272.705 117.804 273.188 117.857 273.681C117.911 274.176 118.321 274.466 118.793 274.342C119.768 274.086 119.826 273.964 119.479 272.912C119.02 271.521 118.541 271.013 118.035 271.382C117.696 271.629 117.828 271.843 118.455 272.059ZM128.937 266.989C128.991 267.482 129.227 267.746 129.462 267.575C129.698 267.403 129.732 266.942 129.538 266.551C129.345 266.159 129.109 265.895 129.013 265.965C128.918 266.034 128.883 266.495 128.937 266.989ZM131.028 265.853C131.561 266.195 132.038 266.857 132.088 267.325C132.139 267.793 132.374 268.035 132.609 267.864C132.844 267.693 132.888 267.252 132.707 266.885C132.493 266.451 132.729 266.078 133.383 265.821C134.064 265.554 134.274 265.192 134.032 264.703C133.791 264.214 133.429 264.268 132.914 264.872C132.496 265.363 132.047 265.548 131.917 265.285C131.787 265.021 131.316 264.901 130.87 265.018C130.201 265.194 130.229 265.339 131.028 265.853ZM125.022 272.488C125.082 273.043 125.284 273.531 125.47 273.573C125.656 273.615 125.759 273.196 125.699 272.641C125.638 272.086 125.437 271.598 125.251 271.556C125.065 271.514 124.962 271.934 125.022 272.488ZM117.797 278.657C117.776 279.027 117.957 279.186 118.2 279.009C118.443 278.832 118.659 278.384 118.681 278.013C118.702 277.643 118.52 277.484 118.277 277.661C118.034 277.838 117.818 278.286 117.797 278.657ZM132.152 269.409C132.265 269.638 132.833 269.878 133.415 269.942C134.372 270.047 134.373 269.994 133.414 269.375C132.321 268.67 131.794 268.684 132.152 269.409ZM121.692 277.98C121.395 278.714 121.435 279.201 121.791 279.184C122.119 279.168 122.535 278.473 122.714 277.641C123.086 275.917 122.439 276.132 121.692 277.98ZM117.851 281.807C118.244 282.603 119.126 282.229 119.025 281.309C118.966 280.766 118.674 280.601 118.28 280.888C117.923 281.148 117.73 281.561 117.851 281.807ZM137.964 267.19C137.943 267.561 138.124 267.719 138.367 267.542C138.61 267.365 138.826 266.917 138.847 266.546C138.869 266.176 138.687 266.017 138.444 266.194C138.201 266.371 137.985 266.819 137.964 267.19ZM116.528 283.992C116.635 284.209 116.364 285.04 115.926 285.838C115.423 286.753 115.365 287.343 115.77 287.435C116.175 287.526 116.591 286.787 116.897 285.435C117.434 283.06 117.42 282.805 116.774 283.276C116.532 283.453 116.42 283.775 116.528 283.992ZM128.065 276.345C128.044 276.719 128.37 277.367 128.791 277.785C129.222 278.214 129.463 279.065 129.345 279.74C129.158 280.806 129.208 280.803 129.808 279.715C130.578 278.318 130.313 276.204 129.394 276.421C128.971 276.522 128.945 276.43 129.313 276.127C130.061 275.511 129.519 274.635 128.741 275.202C128.391 275.457 128.087 275.971 128.065 276.345ZM113.958 287.303C114.094 287.579 114.34 287.529 114.503 287.19C114.666 286.852 114.753 286.481 114.697 286.366C114.64 286.25 114.394 286.301 114.151 286.478C113.908 286.655 113.821 287.027 113.958 287.303ZM124.982 279.259C124.645 279.973 124.774 280.012 125.576 279.435C126.144 279.026 126.582 278.999 126.561 279.373C126.539 279.743 126.733 279.893 126.99 279.706C127.632 279.238 127.219 278.551 126.229 278.439C125.712 278.38 125.255 278.68 124.982 279.259ZM111.965 290.491C111.628 291.439 111.621 292.311 111.951 292.49C112.361 292.713 112.672 292.34 112.994 291.237C113.645 289.008 112.731 288.345 111.965 290.491ZM126.975 283.294C126.809 284.225 126.931 284.468 127.63 284.592C128.305 284.713 128.358 284.667 127.881 284.378C127.53 284.165 127.505 283.677 127.823 283.221C128.125 282.788 128.278 282.243 128.163 282.009C127.836 281.346 127.199 282.035 126.975 283.294ZM124.983 286.517C125.149 286.853 125.66 286.854 126.118 286.52C126.616 286.157 126.742 285.731 126.432 285.462C126.146 285.213 125.636 285.212 125.297 285.458C124.959 285.705 124.818 286.181 124.983 286.517ZM142.171 275.1C142.3 275.361 142.616 275.421 142.873 275.233C143.13 275.046 143.113 274.768 142.834 274.617C142.554 274.465 142.239 274.405 142.131 274.483C142.024 274.561 142.042 274.838 142.171 275.1ZM124.758 289.089C125.042 289.243 125.398 289.112 125.55 288.797C125.962 287.944 125.707 287.742 124.931 288.307C124.553 288.583 124.475 288.935 124.758 289.089ZM124.755 292.04C125.05 292.578 125.21 292.614 125.164 292.133C125.122 291.697 124.904 291.299 124.679 291.248C124.455 291.197 124.489 291.553 124.755 292.04ZM127.155 291.863C127.864 293.198 127.921 293.199 128.324 291.879C128.781 290.384 128.745 289.721 128.262 290.722C128.099 291.061 127.8 291.004 127.599 290.597C127.399 290.191 127.048 289.993 126.822 290.158C126.595 290.323 126.745 291.09 127.155 291.863ZM125.666 295.196C125.859 295.588 126.256 295.735 126.548 295.522C126.96 295.222 127.022 295.349 126.829 296.092C126.517 297.291 127.03 298.399 127.679 297.926C127.948 297.73 127.895 297.332 127.562 297.043C127.193 296.721 127.21 296.331 127.605 296.043C128.388 295.472 127.953 294.406 126.832 294.153C125.728 293.903 125.242 294.338 125.666 295.196ZM125.279 298.061C125.472 298.452 125.709 298.716 125.804 298.646C125.899 298.577 125.934 298.116 125.88 297.622C125.827 297.129 125.59 296.866 125.355 297.037C125.12 297.208 125.085 297.669 125.279 298.061ZM125.931 300.129C125.982 300.603 126.425 301.224 126.914 301.51C127.67 301.953 127.692 301.798 127.055 300.478C126.266 298.841 125.774 298.688 125.931 300.129ZM82.6086 384.067C82.4801 384.642 82.5081 385.384 82.6711 385.714C82.8343 386.044 83.0449 385.594 83.1391 384.713C83.3322 382.91 82.9666 382.465 82.6086 384.067ZM152.888 346.661C153.153 347.198 153.57 347.494 153.813 347.317C154.055 347.14 154.102 346.687 153.916 346.311C153.73 345.934 153.315 345.639 152.992 345.655C152.669 345.671 152.623 346.124 152.888 346.661ZM155.529 356.165C155.691 357.65 156.234 357.473 156.239 355.934C156.241 355.191 156.059 354.718 155.833 354.883C155.608 355.047 155.471 355.624 155.529 356.165ZM157.135 361.871C157.532 362.218 157.909 362.301 157.973 362.056C158.037 361.811 157.712 361.527 157.251 361.424C156.585 361.277 156.561 361.368 157.135 361.871ZM94.173 411.447C94.1702 412.427 94.3861 412.915 94.8703 413.025C95.3545 413.134 95.4688 412.721 95.2391 411.688C95.056 410.866 94.7425 410.156 94.5419 410.111C94.3415 410.065 94.1756 410.667 94.173 411.447ZM163.097 361.856C163.075 362.227 163.269 362.377 163.526 362.189C163.783 362.002 163.888 361.635 163.759 361.374C163.63 361.113 163.437 360.963 163.33 361.041C163.223 361.119 163.118 361.486 163.097 361.856ZM165.969 373.146C166.177 373.565 170.188 374.116 170.642 373.788C170.824 373.656 170.887 373.393 170.781 373.204C170.532 372.758 165.75 372.701 165.969 373.146ZM173.204 368.334C173.39 368.71 173.806 369.005 174.129 368.989C174.451 368.974 174.498 368.521 174.232 367.983C173.967 367.446 173.551 367.151 173.308 367.328C173.065 367.505 173.018 367.957 173.204 368.334ZM104.038 421.676C104.167 421.937 104.459 422.015 104.688 421.848C104.917 421.681 105.121 421.242 105.142 420.871C105.164 420.501 104.871 420.424 104.492 420.7C104.114 420.975 103.909 421.415 104.038 421.676ZM176.487 373.15C176.03 374.294 176.079 374.485 176.823 374.449C177.864 374.399 178.253 373.296 177.536 372.429C177.082 371.88 176.961 371.964 176.487 373.15ZM109.84 426.126C110.041 426.533 110.267 427.032 110.343 427.234C110.418 427.437 110.731 427.523 111.038 427.426C111.744 427.205 110.853 425.319 110.061 425.357C109.739 425.373 109.639 425.719 109.84 426.126ZM116.388 432.458C116.222 433.094 116.988 433.545 117.545 433.139C117.773 432.972 117.802 432.516 117.609 432.124C117.246 431.39 116.621 431.561 116.388 432.458Z" fill="#0074EF"/>
<path fill-rule="evenodd" clip-rule="evenodd" d="M103.238 254.297C103.04 254.719 102.25 255.525 101.483 256.09C99.6031 257.473 94.6918 264.863 95.1375 265.637C95.2654 265.86 94.9671 266.343 94.4747 266.711C93.9831 267.079 93.5581 267.767 93.531 268.24C93.5039 268.713 93.2748 269.178 93.0216 269.273C92.1148 269.615 90.9732 271.592 91.1265 272.556C91.2123 273.097 90.8529 274.434 90.3281 275.526C89.8037 276.618 88.9448 278.406 88.4204 279.499C87.896 280.591 86.7745 283.732 85.9289 286.479C85.0829 289.226 84.1983 291.846 83.9626 292.302C83.7274 292.757 83.6847 293.433 83.8679 293.804C84.051 294.175 83.8385 295.386 83.3957 296.497C82.9529 297.607 82.7014 298.743 82.8366 299.022C82.9718 299.3 82.5673 301.792 81.9381 304.558C81.309 307.325 80.8587 310.49 80.9381 311.591C81.0172 312.692 80.8371 313.944 80.5381 314.372C80.2391 314.801 80.1014 315.367 80.2317 315.631C80.3621 315.895 80.2331 317.276 79.9448 318.699C79.6566 320.122 79.5625 321.573 79.7356 321.924C79.9089 322.275 79.8761 323.067 79.6625 323.685C79.4492 324.303 79.5477 325.113 79.8812 325.485C80.2149 325.858 80.297 327.271 80.0638 328.625C79.8306 329.98 79.8001 331.77 79.9963 332.604C80.1929 333.438 80.5142 334.801 80.7113 335.634C80.9088 336.467 80.9535 337.926 80.811 338.877C80.669 339.827 80.669 340.844 80.8115 341.136C80.9534 341.428 81.0732 342.537 81.0771 343.599C81.0924 347.707 81.7351 352.272 82.5746 354.237C83.0566 355.366 83.4503 357.658 83.4494 359.331C83.4485 361.003 83.601 362.407 83.7885 362.45C83.9763 362.492 84.1283 363.014 84.1265 363.608C84.1245 364.204 84.4332 364.859 84.8125 365.065C85.2362 365.295 85.3894 365.872 85.2098 366.563C85.0491 367.18 85.1932 368.262 85.5302 368.968C85.867 369.674 86.1223 370.992 86.0975 371.898C86.0474 373.725 87.647 377.517 88.0847 376.61C88.4734 375.803 89.2052 378.026 89.1919 379.973C89.1812 381.574 91.4511 386.35 92.4917 386.916C92.7765 387.071 93.2463 387.838 93.5365 388.621C93.8261 389.405 94.4815 390.19 94.9926 390.367C95.7646 390.633 95.8292 390.864 95.3746 391.724C94.8637 392.691 94.9141 392.803 96.1391 393.42C96.8604 393.783 97.3963 394.288 97.3302 394.542C97.2641 394.796 97.0869 394.755 96.9366 394.451C96.7861 394.146 96.3648 394.114 96.0004 394.38C95.5882 394.68 95.5591 395.311 95.924 396.049C96.2464 396.702 96.7337 397.073 97.0071 396.874C97.33 396.639 97.6668 397.112 97.9685 398.224C98.2236 399.166 98.4879 399.725 98.5557 399.464C98.8315 398.405 101.12 399.567 101.511 400.964C101.769 401.884 102.35 402.513 103.159 402.747C104.58 403.158 104.629 404.177 103.22 404.018C102.473 403.933 102.294 404.163 102.291 405.206C102.286 406.774 103.267 408.889 103.983 408.854C104.557 408.826 105.025 406.983 104.6 406.419C103.908 405.5 104.089 405.133 105.033 405.538C106.137 406.012 106.801 407.814 106.069 408.348C105.829 408.523 105.902 408.902 106.233 409.189C106.58 409.491 106.584 409.829 106.242 409.989C105.91 410.145 105.899 410.652 106.219 411.144C106.531 411.626 107.211 412.729 107.729 413.594C108.247 414.459 108.881 415.178 109.138 415.191C109.623 415.216 112.718 418.414 114.519 420.751C115.088 421.49 115.727 421.969 115.938 421.816C116.149 421.662 116.639 422.177 117.026 422.962C117.779 424.487 122.238 427.234 122.476 426.319C122.554 426.018 122.991 426.525 123.447 427.447C123.902 428.37 124.897 429.363 125.658 429.656C126.419 429.949 128.072 430.889 129.333 431.746C130.593 432.603 133.122 434.101 134.952 435.076C136.782 436.051 139.612 437.59 141.242 438.498C142.871 439.405 144.938 440.369 145.835 440.638C151.634 442.382 154.016 443.148 156.349 444.018C157.799 444.558 160.202 445.277 161.688 445.614C163.175 445.952 164.729 446.562 165.142 446.971C165.896 447.716 170.09 448.015 170.606 447.36C170.758 447.169 171.201 447.33 171.592 447.718C171.983 448.107 172.977 448.223 173.803 447.977C174.627 447.73 175.653 447.878 176.083 448.305C176.513 448.733 177.052 448.945 177.283 448.777C177.512 448.61 179.328 448.629 181.318 448.821C183.308 449.012 186.036 449.277 187.38 449.408C188.725 449.538 190.114 449.58 190.467 449.5C190.821 449.419 194.291 449.36 198.179 449.368C209.437 449.39 210.113 449.361 210.359 448.854C210.486 448.59 210.812 448.494 211.084 448.641C211.356 448.789 211.81 448.576 212.094 448.169C212.378 447.763 212.726 447.663 212.866 447.947C213.187 448.597 218.388 447.877 219.566 447.019C220.048 446.667 220.734 446.535 221.092 446.723C221.962 447.182 227.141 446.389 227.767 445.701C228.039 445.4 229.329 445.115 230.632 445.066C231.935 445.017 233.362 444.713 233.804 444.391C234.247 444.069 234.952 443.883 235.371 443.977C236.5 444.233 240.617 443.323 240.393 442.868C240.176 442.429 244.661 441.581 245.389 441.922C245.645 442.043 246.282 441.649 246.804 441.048C247.431 440.326 248.071 440.063 248.687 440.277C249.201 440.454 249.752 440.327 249.912 439.995C250.258 439.278 252.906 438.831 253.857 439.329C254.245 439.532 254.829 439.288 255.251 438.745C255.66 438.218 256.602 437.801 257.414 437.786C258.205 437.772 259.363 437.388 259.988 436.932C260.613 436.477 261.728 436.094 262.467 436.081C263.209 436.067 264.388 435.521 265.1 434.861C265.81 434.204 266.9 433.697 267.523 433.735C268.145 433.773 269.141 433.459 269.735 433.037C270.849 432.247 273.595 431.228 275.702 430.822C276.362 430.695 277.255 430.177 277.686 429.671C278.118 429.164 278.703 428.876 278.987 429.03C279.283 429.191 280.163 428.657 281.069 427.766C282.218 426.635 282.685 426.405 282.82 426.905C282.936 427.332 283.498 427.226 284.33 426.622C285.06 426.092 285.971 425.65 286.357 425.64C286.742 425.63 287.076 425.301 287.098 424.91C287.12 424.518 287.524 424.067 287.996 423.907C288.467 423.747 289.713 423.169 290.765 422.623C291.816 422.076 292.953 421.641 293.291 421.656C293.628 421.671 295.471 420.475 297.385 418.998C299.756 417.169 301.397 416.23 302.537 416.051C304.524 415.738 306.82 414.562 307.271 413.627C307.789 412.554 309.21 411.507 310.355 411.355C310.95 411.276 311.444 410.945 311.484 410.599C311.522 410.26 313.12 408.775 315.033 407.298C331.534 394.56 336.378 390.546 336.842 389.229C337.028 388.699 337.331 388.513 337.692 388.709C338.089 388.925 338.436 388.627 338.89 387.682C339.265 386.901 341.141 385.097 343.435 383.314C345.842 381.442 347.479 379.855 347.699 379.177C347.918 378.505 348.469 377.968 349.118 377.794C349.702 377.637 350.307 377.16 350.462 376.733C350.618 376.306 351.491 375.336 352.401 374.577C353.311 373.818 354.223 372.847 354.426 372.419C354.63 371.991 355.585 371.051 356.548 370.329C357.511 369.608 358.2 368.817 358.079 368.571C357.957 368.325 358.078 368.113 358.347 368.101C359.103 368.063 364.312 362.832 365.569 360.848C366.186 359.875 367.002 358.997 367.384 358.896C367.766 358.796 368.483 357.996 368.978 357.118C369.472 356.24 370.162 355.447 370.511 355.356C370.86 355.264 371.253 354.779 371.383 354.278C371.513 353.777 372.182 352.942 372.869 352.421C373.556 351.901 374.275 351.043 374.468 350.515C374.833 349.512 377.221 346.812 379.018 345.371C379.593 344.909 380.017 344.217 379.96 343.832C379.902 343.447 380.212 342.873 380.648 342.556C381.675 341.807 383.872 338.48 383.923 337.596C383.944 337.22 384.325 336.648 384.769 336.325C385.212 336.002 385.987 335.003 386.491 334.105C386.994 333.209 387.699 332.249 388.059 331.973C388.418 331.697 389.303 330.479 390.026 329.266C390.748 328.053 391.568 326.885 391.847 326.67C392.126 326.454 392.317 326.02 392.271 325.704C392.226 325.389 392.786 324.594 393.517 323.938C394.248 323.281 394.996 322.332 395.179 321.829C395.362 321.325 396.177 320.072 396.991 319.044C397.804 318.015 398.905 316.413 399.437 315.483C401.403 312.051 405.002 305.967 405.986 304.417C408.056 301.155 408.71 300.047 410.388 296.965C411.333 295.229 412.273 293.687 412.476 293.539C412.679 293.391 413.063 292.523 413.33 291.61C413.597 290.697 414.445 289.163 415.215 288.201C415.986 287.238 416.753 285.815 416.921 285.037C417.089 284.259 417.593 283.355 418.041 283.028C418.489 282.702 418.758 282.235 418.637 281.992C418.454 281.621 419.47 279.871 420.273 279.174C420.398 279.065 420.968 277.756 421.54 276.265C422.111 274.773 423.087 272.667 423.709 271.585C426.007 267.584 426.558 266.408 426.342 265.969C426.22 265.722 426.518 265.231 427.004 264.877C427.49 264.523 427.782 264.019 427.653 263.758C427.524 263.497 427.709 263.071 428.065 262.812C428.421 262.553 429.075 261.204 429.518 259.816C429.962 258.428 430.568 257.115 430.865 256.898C431.162 256.682 431.53 255.705 431.681 254.728C431.833 253.751 432.326 252.48 432.777 251.905C433.228 251.33 433.947 249.772 434.376 248.443C434.804 247.113 435.416 245.835 435.735 245.603C436.053 245.371 436.562 244.417 436.866 243.484C437.169 242.551 437.961 240.448 438.627 238.811C439.292 237.174 440.068 235.055 440.35 234.102C440.632 233.149 441.116 232.006 441.426 231.563C441.735 231.12 441.88 230.536 441.747 230.267C441.614 229.998 441.687 229.644 441.91 229.482C442.392 229.131 443.697 225.084 445.941 216.98C446.842 213.726 447.931 210.543 448.36 209.907L449.141 208.751L421.935 153.67C406.971 123.375 394.658 98.6396 394.572 98.7024C394.486 98.7652 394.143 99.7412 393.811 100.871C393.478 102.002 393.354 102.818 393.537 102.685C393.72 102.552 393.757 102.873 393.62 103.399C393.483 103.924 393.549 104.714 393.767 105.155C393.984 105.595 393.848 106.645 393.463 107.489C393.08 108.333 392.875 109.605 393.009 110.315C393.467 112.744 393.546 116.881 393.14 117.177C392.917 117.339 392.554 119.575 392.333 122.145C392.112 124.716 391.718 127.518 391.457 128.371C391.197 129.225 391.161 130.285 391.379 130.726C391.598 131.168 391.569 132.205 391.317 133.032C391.064 133.858 391.003 134.829 391.18 135.188C391.358 135.547 391.266 136.182 390.975 136.597C390.685 137.013 390.557 137.574 390.69 137.843C390.823 138.112 390.627 139.767 390.254 141.521C389.008 147.382 388.096 152.637 387.951 154.799C387.873 155.977 387.443 158.39 386.996 160.162C386.55 161.934 385.607 165.879 384.9 168.929C384.193 171.979 383.323 174.687 382.966 174.947C382.61 175.207 382.348 175.662 382.384 175.959C382.536 177.207 380.899 184.201 380.362 184.592C380.041 184.826 379.716 185.777 379.643 186.705C379.568 187.633 379.2 188.788 378.824 189.271C378.449 189.754 378.213 190.591 378.3 191.13C378.389 191.67 377.899 193.536 377.214 195.278C376.529 197.02 375.611 199.796 375.173 201.447C374.735 203.097 374.271 204.524 374.142 204.619C373.908 204.789 372.912 207.596 372.32 209.751C372.15 210.37 371.604 211.805 371.106 212.939C370.608 214.074 369.98 215.636 369.71 216.41C368.178 220.809 366.104 225.567 364.791 227.7C363.966 229.038 362.924 231.09 362.475 232.259C362.026 233.428 360.303 236.783 358.647 239.716C356.991 242.649 354.997 246.237 354.216 247.691C353.435 249.145 352.508 250.826 352.157 251.427C351.806 252.028 351.032 253.359 350.438 254.385C349.844 255.41 349.174 256.383 348.949 256.547C348.562 256.829 341.365 268.466 340.216 270.667C339.921 271.232 339.291 271.977 338.817 272.323C338.342 272.669 337.936 273.256 337.914 273.626C337.893 273.997 337.444 274.624 336.916 275.021C336.388 275.418 335.365 276.734 334.642 277.947C333.92 279.16 332.896 280.476 332.369 280.873C331.841 281.27 331.39 281.918 331.368 282.314C331.345 282.71 331.021 283.114 330.649 283.212C330.276 283.31 329.578 284.087 329.098 284.94C328.618 285.792 327.988 286.502 327.699 286.516C327.41 286.53 327.273 286.744 327.396 286.991C327.518 287.239 326.945 288.13 326.121 288.972C325.298 289.814 323.876 291.449 322.96 292.606C322.045 293.763 320.609 295.507 319.769 296.483C318.929 297.458 317.305 299.368 316.159 300.727C312.684 304.849 309.494 308.414 308.805 308.946C308.446 309.223 306.887 310.803 305.34 312.456C303.794 314.11 302.054 315.649 301.474 315.877C300.895 316.105 300.1 316.995 299.708 317.856C299.277 318.802 297.995 320.176 296.466 321.328C295.075 322.377 292.702 324.549 291.194 326.156C289.686 327.763 287.892 329.329 287.207 329.639C286.523 329.947 285.073 330.86 283.985 331.667C279.855 334.731 273.857 338.947 269.717 341.699C267.353 343.269 264.748 345.049 263.926 345.656C263.104 346.262 261.307 347.277 259.934 347.912C258.56 348.546 256.297 349.769 254.905 350.629C253.513 351.49 251.675 352.379 250.822 352.605C249.967 352.831 249.07 353.3 248.828 353.647C248.586 353.995 247.632 354.57 246.71 354.927C245.788 355.284 243.995 356.171 242.726 356.9C241.456 357.629 239.705 358.462 238.834 358.75C237.962 359.039 235.073 359.984 232.412 360.848C229.75 361.713 227.207 362.688 226.759 363.014C226.311 363.341 225.716 363.484 225.437 363.332C225.158 363.18 224.668 363.247 224.348 363.48C224.028 363.713 222.316 364.184 220.545 364.527C218.773 364.87 217.115 365.275 216.86 365.427C216.605 365.579 215.314 365.838 213.99 366.001C212.666 366.165 211.659 366.468 211.75 366.675C211.842 366.881 211.507 366.888 211.007 366.689C210.161 366.353 208.467 366.378 203.401 366.799C202.301 366.891 199.347 366.476 196.836 365.878C194.325 365.279 192.132 365.079 191.961 365.433C191.779 365.811 191.425 365.619 191.103 364.968C190.404 363.553 188.221 362.531 187.792 363.419C187.583 363.853 187.427 363.745 187.359 363.121C187.301 362.584 187.014 362.156 186.721 362.171C186.092 362.201 185.988 364.606 186.61 364.747C186.845 364.8 186.815 365.005 186.544 365.202C186.273 365.4 185.252 365.418 184.274 365.243L182.496 364.924L183.712 364.038C184.63 363.369 184.774 363.018 184.301 362.607C183.942 362.294 183.922 362.05 184.254 362.034C185.515 361.972 184.048 360.617 182.057 360.005L179.948 359.356L180.162 361.299C180.318 362.716 180.1 363.442 179.354 363.986C178.122 364.883 176.985 364.051 177.09 362.33C177.133 361.641 176.86 360.455 176.484 359.694C175.845 358.4 175.706 358.393 174.331 359.591C173.522 360.296 172.763 360.675 172.644 360.434C172.525 360.192 172.64 359.839 172.9 359.65C173.161 359.46 173.514 358.767 173.685 358.11C174.057 356.677 175.146 355.77 175.539 356.565C175.749 356.991 175.885 356.881 176.076 356.131C176.28 355.326 176.116 355.116 175.254 355.076C174.662 355.048 174.058 354.782 173.911 354.485C173.764 354.187 173.432 354.098 173.172 354.287C172.885 354.496 173.028 354.956 173.541 355.466C174.292 356.213 174.269 356.289 173.319 356.181C172.111 356.044 172.04 356.174 172.185 358.258C172.289 359.765 172.288 359.765 171.884 358.292C171.655 357.454 171.283 356.954 171.029 357.14C170.782 357.32 170.473 357.254 170.344 356.993C170.215 356.732 170.396 356.31 170.746 356.055C171.684 355.372 171.578 354.6 170.379 353.362C169.735 352.697 169.467 352.617 169.704 353.16C170.152 354.187 169.312 357.041 168.339 357.797C167.78 358.232 167.808 358.299 168.535 358.272C169.234 358.247 169.346 358.444 169.175 359.403C168.906 360.913 167.968 360.937 167.459 359.447C167.239 358.803 166.615 358.122 166.073 357.936C165.34 357.683 165.133 357.34 165.265 356.599C165.363 356.052 165.243 355.559 164.998 355.503C164.753 355.448 164.768 355.246 165.031 355.054C165.295 354.862 165.742 354.9 166.026 355.136C166.369 355.423 166.432 355.312 166.213 354.806C166.032 354.387 165.519 353.962 165.073 353.862C163.805 353.575 164.408 351.796 165.723 351.945C166.562 352.04 166.621 351.888 166.134 350.902C165.821 350.267 165.637 349.166 165.726 348.454C165.864 347.34 165.677 347.104 164.361 346.743C163.521 346.513 162.595 346.5 162.302 346.713C161.954 346.967 161.882 346.667 162.095 345.85C162.273 345.161 162.312 344.335 162.18 344.012C162.048 343.689 161.733 342.859 161.479 342.166C161.224 341.474 160.617 340.817 160.128 340.706C159.394 340.54 159.311 340.233 159.647 338.941C160.163 336.956 159.349 335.284 157.641 334.822C156.54 334.524 156.355 334.277 156.566 333.385C156.924 331.872 156.471 329.658 155.89 330.081C155.168 330.607 154.842 329.503 155.281 328.017C155.524 327.197 155.325 325.95 154.763 324.768C153.452 322.011 153.089 319.855 153.843 319.306C154.203 319.043 154.346 318.522 154.161 318.148C153.976 317.773 153.757 316.698 153.675 315.758C153.593 314.818 153.283 313.686 152.985 313.243C152.663 312.764 152.698 312.424 153.072 312.407C153.448 312.388 153.465 312.172 153.114 311.868C152.782 311.579 152.79 310.743 153.134 309.934C153.497 309.078 153.488 307.884 153.111 306.941C152.767 306.079 152.592 304.964 152.722 304.462C152.852 303.961 152.769 303.167 152.537 302.697C152.305 302.227 152.282 301.721 152.486 301.573C152.69 301.424 152.697 300.256 152.502 298.978C152.307 297.7 152.329 296.522 152.55 296.361C152.773 296.199 152.695 295.747 152.378 295.357C152.06 294.966 151.845 293.599 151.897 292.317C151.95 291.036 151.944 289.152 151.883 288.131C151.822 287.11 151.785 285.83 151.799 285.287C151.908 281.25 151.726 280.14 150.908 279.857C150.33 279.658 150.162 279.361 150.375 278.92C150.546 278.566 150.804 278.514 150.948 278.806C151.092 279.098 151.353 279.041 151.527 278.68C151.701 278.319 151.687 277.989 151.497 277.946C151.306 277.902 151.047 276.795 150.921 275.485C150.744 273.63 150.459 272.925 149.631 272.302C149.046 271.862 148.365 271.65 148.116 271.831C147.869 272.011 147.5 271.825 147.298 271.416C147.037 270.887 147.23 270.572 147.963 270.329C149.493 269.821 148.641 268.596 146.644 268.432C145.499 268.337 145.207 268.14 145.69 267.788C146.549 267.163 146.615 266.318 145.966 264.251C145.647 263.236 145.352 262.882 145.159 263.282C144.992 263.63 144.09 263.591 143.156 263.197C142.222 262.803 141.256 262.626 141.01 262.806C140.741 263.002 140.867 263.2 141.331 263.305C141.903 263.434 142.063 263.908 141.962 265.168C141.855 266.514 142.022 266.961 142.791 267.373C144.141 268.098 144.224 268.49 142.966 268.205C142.382 268.073 141.686 268.124 141.42 268.318C141.154 268.511 141.124 268.713 141.355 268.765C141.585 268.817 141.646 269.348 141.491 269.945C141.335 270.543 141.24 271.376 141.279 271.798C141.366 272.744 139.905 272.222 139.357 271.112C139.066 270.523 139.128 270.464 139.714 270.773C140.603 271.241 141.26 270.009 140.483 269.333C140.168 269.059 139.938 268.436 139.974 267.949C140.035 267.102 138.641 261.304 138.415 261.469C138.354 261.513 138.146 262.16 137.952 262.906C137.62 264.184 137.587 264.185 137.38 262.923C137.217 261.922 137.039 261.753 136.679 262.254C136.413 262.623 136.364 263.128 136.57 263.378C136.776 263.627 136.745 263.976 136.502 264.154C136.26 264.331 135.885 264.119 135.67 263.684C135.455 263.249 135.224 263.102 135.158 263.358C135.092 263.613 134.454 263.69 133.741 263.529C132.418 263.23 131.196 263.833 130.184 265.283C129.675 266.013 129.728 266.1 130.707 266.141C131.307 266.165 131.734 266.43 131.656 266.729C131.578 267.028 130.85 267.151 130.039 267.003C128.814 266.78 128.55 266.489 128.487 265.291C128.429 264.216 128.11 263.662 127.238 263.122C126.593 262.723 126.197 262.682 126.357 263.03C126.518 263.378 126.385 263.676 126.062 263.691C125.739 263.707 125.593 263.958 125.738 264.25C125.882 264.542 125.716 264.795 125.37 264.812C124.978 264.831 124.964 264.313 125.334 263.441C125.661 262.671 125.72 261.859 125.466 261.637C125.186 261.394 125.562 260.765 126.42 260.043C127.529 259.11 127.858 259.046 127.934 259.747C127.988 260.239 128.23 260.497 128.473 260.32C128.716 260.143 128.871 259.594 128.818 259.101C128.764 258.607 128.527 258.344 128.292 258.515C127.663 258.974 126.891 257.116 127.399 256.365C127.747 255.852 127.719 255.796 127.263 256.088C126.949 256.289 126.534 256.133 126.34 255.741C125.855 254.759 125.304 255.284 124.911 257.105C124.519 258.926 123.968 259.451 123.483 258.469C123.287 258.074 123.524 257.471 124.014 257.113C124.85 256.505 124.709 255.391 123.588 253.722C123.377 253.408 123.567 253.098 124.047 252.972C125.189 252.672 124.613 251.755 123.459 252.035C122.623 252.238 122.606 252.139 123.304 251.135C124.154 249.914 123.597 249.011 121.6 248.366C119.62 247.728 120.679 246.42 123.175 246.422C125.299 246.423 126.253 245.835 125.757 244.83C125.635 244.584 125.186 244.638 124.759 244.95C124.332 245.261 123.522 245.27 122.961 244.969C122.4 244.668 121.584 244.681 121.149 244.998C120.714 245.315 120.002 245.494 119.568 245.396C118.578 245.172 115.119 246.186 113.91 247.054C113.41 247.414 112.623 247.622 112.161 247.517C111.493 247.366 111.311 247.517 111.269 248.255C111.231 248.918 110.801 249.337 109.766 249.723C107.817 250.449 103.685 253.345 103.238 254.297ZM120.192 255.561C119.718 256.804 120.353 258.49 121.092 257.951C121.363 257.754 121.493 256.787 121.382 255.804C121.164 253.888 120.854 253.825 120.192 255.561ZM119.93 261.005C120.461 262.081 121.502 262.818 121.989 262.463C122.244 262.277 122.044 262 121.522 261.82C120.745 261.552 120.757 261.461 121.605 261.224C122.579 260.95 122.57 260.934 121.252 260.527C119.665 260.037 119.484 260.103 119.93 261.005ZM119.374 262.754C119.708 263.043 120.059 263.224 120.154 263.154C120.25 263.084 120.17 262.707 119.976 262.315C119.783 261.924 119.432 261.744 119.196 261.915C118.961 262.086 119.041 262.464 119.374 262.754ZM125.568 258.332C125.661 259.187 125.735 259.157 126.139 258.098C126.395 257.43 126.657 256.762 126.722 256.614C126.786 256.467 126.529 256.572 126.15 256.848C125.771 257.124 125.51 257.792 125.568 258.332ZM123.344 261.813C124.101 262.075 124.12 262.166 123.455 262.34C123.005 262.459 122.693 262.941 122.747 263.434C122.8 263.93 123.211 264.219 123.682 264.096C124.657 263.84 124.715 263.718 124.368 262.666C123.909 261.274 123.431 260.767 122.924 261.136C122.585 261.383 122.717 261.597 123.344 261.813ZM133.826 256.743C133.88 257.236 134.116 257.499 134.351 257.328C134.587 257.157 134.621 256.696 134.428 256.304C134.234 255.913 133.998 255.649 133.902 255.719C133.807 255.788 133.773 256.249 133.826 256.743ZM135.918 255.607C136.45 255.948 136.927 256.611 136.978 257.079C137.028 257.547 137.263 257.789 137.498 257.618C137.733 257.446 137.778 257.005 137.596 256.638C137.382 256.204 137.618 255.832 138.272 255.575C138.953 255.308 139.163 254.946 138.921 254.456C138.68 253.967 138.318 254.022 137.803 254.625C137.385 255.116 136.936 255.302 136.806 255.039C136.676 254.775 136.205 254.655 135.759 254.772C135.091 254.948 135.118 255.093 135.918 255.607ZM129.912 262.242C129.972 262.797 130.173 263.285 130.359 263.327C130.545 263.369 130.648 262.949 130.588 262.395C130.528 261.84 130.326 261.352 130.14 261.31C129.954 261.268 129.851 261.687 129.912 262.242ZM122.686 268.411C122.665 268.781 122.847 268.939 123.089 268.762C123.332 268.585 123.548 268.137 123.57 267.767C123.591 267.396 123.409 267.238 123.167 267.415C122.924 267.592 122.707 268.04 122.686 268.411ZM137.041 259.163C137.154 259.392 137.723 259.632 138.304 259.696C139.262 259.801 139.262 259.748 138.303 259.129C137.21 258.424 136.683 258.438 137.041 259.163ZM126.581 267.734C126.285 268.468 126.324 268.955 126.68 268.938C127.008 268.922 127.424 268.227 127.603 267.394C127.976 265.671 127.328 265.885 126.581 267.734ZM122.741 271.561C123.134 272.357 124.015 271.983 123.914 271.063C123.855 270.52 123.563 270.354 123.169 270.641C122.812 270.901 122.619 271.315 122.741 271.561ZM142.853 256.944C142.832 257.314 143.013 257.472 143.256 257.295C143.499 257.118 143.715 256.67 143.737 256.3C143.758 255.929 143.576 255.771 143.333 255.948C143.09 256.125 142.874 256.573 142.853 256.944ZM121.417 273.746C121.524 273.963 121.253 274.793 120.815 275.592C120.312 276.507 120.255 277.097 120.659 277.188C121.064 277.28 121.48 276.541 121.786 275.188C122.323 272.814 122.309 272.559 121.664 273.029C121.421 273.206 121.31 273.529 121.417 273.746ZM132.954 266.099C132.934 266.473 133.259 267.12 133.68 267.538C134.111 267.967 134.353 268.819 134.234 269.494C134.047 270.56 134.097 270.557 134.697 269.468C135.467 268.072 135.202 265.958 134.284 266.175C133.86 266.275 133.834 266.184 134.202 265.881C134.95 265.264 134.408 264.388 133.63 264.955C133.28 265.211 132.976 265.725 132.954 266.099ZM118.847 277.056C118.984 277.333 119.229 277.282 119.392 276.944C119.555 276.606 119.643 276.235 119.586 276.119C119.529 276.004 119.283 276.055 119.041 276.232C118.798 276.409 118.711 276.78 118.847 277.056ZM129.871 269.013C129.534 269.727 129.663 269.765 130.465 269.189C131.033 268.78 131.471 268.753 131.45 269.126C131.429 269.497 131.622 269.647 131.879 269.459C132.521 268.992 132.109 268.305 131.118 268.193C130.601 268.134 130.144 268.434 129.871 269.013ZM116.854 280.245C116.517 281.193 116.51 282.064 116.84 282.243C117.251 282.467 117.561 282.094 117.883 280.991C118.535 278.761 117.62 278.099 116.854 280.245ZM131.864 273.048C131.698 273.979 131.821 274.221 132.519 274.346C133.194 274.466 133.248 274.42 132.77 274.131C132.419 273.919 132.394 273.431 132.712 272.975C133.014 272.542 133.168 271.996 133.052 271.763C132.725 271.1 132.088 271.788 131.864 273.048ZM129.873 276.271C130.038 276.606 130.549 276.608 131.007 276.274C131.505 275.911 131.631 275.484 131.321 275.215C131.036 274.967 130.525 274.965 130.186 275.212C129.848 275.458 129.707 275.935 129.873 276.271ZM147.06 264.853C147.189 265.114 147.505 265.174 147.762 264.987C148.02 264.8 148.002 264.522 147.723 264.37C147.444 264.219 147.128 264.158 147.021 264.237C146.913 264.315 146.931 264.592 147.06 264.853ZM129.647 278.843C129.931 278.997 130.287 278.866 130.439 278.551C130.851 277.697 130.596 277.495 129.82 278.061C129.442 278.337 129.364 278.689 129.647 278.843ZM129.644 281.794C129.939 282.331 130.099 282.367 130.053 281.886C130.011 281.451 129.793 281.052 129.569 281.002C129.344 280.951 129.378 281.307 129.644 281.794ZM132.044 281.616C132.753 282.952 132.81 282.953 133.214 281.633C133.67 280.137 133.634 279.474 133.151 280.476C132.988 280.814 132.69 280.758 132.489 280.351C132.288 279.944 131.938 279.746 131.711 279.911C131.484 280.076 131.634 280.844 132.044 281.616ZM130.555 284.95C130.749 285.342 131.145 285.488 131.437 285.276C131.849 284.975 131.912 285.102 131.718 285.845C131.406 287.045 131.919 288.152 132.568 287.679C132.837 287.483 132.785 287.086 132.451 286.796C132.082 286.475 132.099 286.085 132.494 285.797C133.277 285.226 132.842 284.159 131.722 283.906C130.617 283.657 130.131 284.092 130.555 284.95ZM130.168 287.814C130.361 288.206 130.598 288.47 130.693 288.4C130.789 288.331 130.823 287.87 130.77 287.376C130.716 286.883 130.479 286.619 130.244 286.79C130.009 286.962 129.974 287.423 130.168 287.814ZM130.82 289.882C130.871 290.356 131.314 290.978 131.803 291.264C132.559 291.707 132.581 291.552 131.945 290.232C131.155 288.594 130.663 288.441 130.82 289.882ZM87.4978 373.821C87.3693 374.396 87.3973 375.138 87.5602 375.467C87.7234 375.798 87.9341 375.347 88.0283 374.467C88.2213 372.663 87.8558 372.219 87.4978 373.821ZM157.777 336.415C158.043 336.952 158.459 337.247 158.702 337.07C158.945 336.893 158.991 336.441 158.806 336.064C158.62 335.688 158.204 335.393 157.881 335.409C157.558 335.424 157.512 335.877 157.777 336.415ZM160.419 345.918C160.58 347.404 161.124 347.227 161.128 345.687C161.13 344.945 160.948 344.472 160.722 344.637C160.497 344.801 160.36 345.377 160.419 345.918ZM162.024 351.624C162.421 351.971 162.798 352.055 162.862 351.809C162.926 351.565 162.601 351.28 162.14 351.178C161.474 351.031 161.45 351.122 162.024 351.624ZM99.0622 401.201C99.0594 402.181 99.2753 402.669 99.7595 402.778C100.244 402.888 100.358 402.475 100.128 401.442C99.9451 400.62 99.6316 399.909 99.431 399.865C99.2306 399.819 99.0647 400.421 99.0622 401.201ZM167.986 351.61C167.965 351.981 168.158 352.13 168.415 351.943C168.672 351.756 168.777 351.388 168.648 351.127C168.519 350.866 168.326 350.716 168.219 350.795C168.112 350.873 168.007 351.24 167.986 351.61ZM170.859 362.899C171.066 363.319 175.077 363.87 175.531 363.542C175.713 363.41 175.776 363.146 175.67 362.958C175.421 362.512 170.639 362.455 170.859 362.899ZM178.093 358.087C178.279 358.464 178.695 358.759 179.018 358.743C179.34 358.727 179.387 358.274 179.122 357.737C178.856 357.2 178.44 356.904 178.197 357.081C177.954 357.258 177.907 357.711 178.093 358.087ZM108.927 411.43C109.056 411.691 109.349 411.768 109.577 411.602C109.806 411.435 110.01 410.996 110.032 410.625C110.053 410.254 109.76 410.177 109.381 410.453C109.003 410.729 108.798 411.169 108.927 411.43ZM181.376 362.904C180.919 364.047 180.969 364.238 181.713 364.203C182.753 364.152 183.142 363.05 182.425 362.182C181.971 361.634 181.85 361.717 181.376 362.904ZM114.729 415.879C114.93 416.286 115.156 416.785 115.232 416.988C115.307 417.19 115.62 417.277 115.927 417.18C116.633 416.958 115.742 415.072 114.95 415.111C114.628 415.126 114.528 415.473 114.729 415.879ZM121.277 422.211C121.112 422.848 121.877 423.299 122.434 422.893C122.663 422.726 122.691 422.269 122.498 421.878C122.135 421.144 121.511 421.314 121.277 422.211Z" fill="#B9D8FF"/>
</g>
<defs>
<filter id="filter0_d_8_9327" x="59.9606" y="95.0021" width="403.88" height="390.485" filterUnits="userSpaceOnUse" color-interpolation-filters="sRGB">
<feFlood flood-opacity="0" result="BackgroundImageFix"/>
<feColorMatrix in="SourceAlpha" type="matrix" values="0 0 0 0 0 0 0 0 0 0 0 0 0 0 0 0 0 0 127 0" result="hardAlpha"/>
<feOffset dy="11"/>
<feGaussianBlur stdDeviation="7.35"/>
<feComposite in2="hardAlpha" operator="out"/>
<feColorMatrix type="matrix" values="0 0 0 0 0 0 0 0 0 0 0 0 0 0 0 0 0 0 0.25 0"/>
<feBlend mode="normal" in2="BackgroundImageFix" result="effect1_dropShadow_8_9327"/>
<feBlend mode="normal" in="SourceGraphic" in2="effect1_dropShadow_8_9327" result="shape"/>
</filter>
</defs>
</svg>
