<svg width="119" height="37" viewBox="0 0 119 37" fill="none" xmlns="http://www.w3.org/2000/svg">
<path opacity="0.7" fill-rule="evenodd" clip-rule="evenodd" d="M4.21771 12.5073C4.22187 12.5017 4.34441 12.4533 4.49002 12.3997C4.81697 12.2793 4.79753 12.2879 4.87381 12.2305C4.9266 12.1907 4.93436 12.1899 4.92042 12.2255C4.9069 12.2599 4.91025 12.26 4.93758 12.2261C4.95625 12.2029 4.99497 12.1808 5.02363 12.1768C5.05229 12.1729 5.07392 12.1564 5.07169 12.1403C5.06947 12.1241 5.07772 12.1117 5.09001 12.1126C5.1023 12.1136 5.14922 12.0927 5.19424 12.0662C5.23926 12.0396 5.31118 12.0056 5.35406 11.9905C5.39695 11.9755 5.43745 11.9507 5.44408 11.9354C5.45071 11.9202 5.48196 11.9041 5.51354 11.8998C5.5451 11.8954 5.59226 11.8653 5.61829 11.8329C5.64432 11.8005 5.73621 11.7249 5.82252 11.6649C5.90881 11.6049 5.98754 11.5366 5.99745 11.513C6.00738 11.4894 6.02848 11.476 6.04436 11.4831C6.08806 11.5028 6.18232 11.4226 6.1753 11.3717C6.17191 11.3471 6.18209 11.3328 6.19794 11.3399C6.25337 11.3649 6.36865 11.2762 6.36022 11.2151C6.3517 11.1533 6.39436 11.1263 6.41939 11.1776C6.4276 11.1943 6.45578 11.1809 6.48549 11.146C6.51397 11.1125 6.56054 11.0664 6.58894 11.0434C6.61734 11.0205 6.63484 10.9867 6.62787 10.9685C6.61974 10.9472 6.63719 10.9391 6.67641 10.946C6.71868 10.9535 6.73582 10.9436 6.73176 10.9142C6.72853 10.8908 6.74749 10.8599 6.77394 10.8457C6.8809 10.788 6.98142 10.6922 6.97602 10.653C6.97286 10.6301 7.00732 10.5929 7.05259 10.5703C7.14345 10.5249 7.20038 10.4615 7.1937 10.4131C7.19132 10.3958 7.1995 10.3803 7.21186 10.3786C7.27066 10.3705 7.8605 9.71986 8.09866 9.40041C8.15471 9.32525 8.21397 9.25647 8.23038 9.24756C8.2468 9.23865 8.31133 9.15313 8.37382 9.05757C8.43631 8.96198 8.48931 8.89406 8.49164 8.90664C8.49396 8.91919 8.52391 8.88522 8.55822 8.8311C8.5925 8.77699 8.61332 8.7523 8.6045 8.77624C8.59366 8.80547 8.60096 8.81348 8.62673 8.80058C8.64783 8.79007 8.66255 8.76311 8.65946 8.7407C8.65637 8.71829 8.68188 8.68056 8.71613 8.65686C8.75039 8.63316 8.77422 8.60252 8.76909 8.5888C8.76398 8.57508 8.7858 8.54699 8.81762 8.52635C8.84947 8.50571 8.87418 8.47934 8.87258 8.46774C8.86883 8.44051 8.9736 8.30455 9.03817 8.25291C9.0657 8.23088 9.08946 8.1901 9.09096 8.16227C9.09532 8.08221 9.1949 7.95711 9.27184 7.93503C9.31049 7.92396 9.33939 7.90181 9.33603 7.88581C9.32829 7.8491 9.38277 7.77461 9.42122 7.7693C9.4372 7.7671 9.45533 7.73428 9.46147 7.69641C9.46761 7.65854 9.53003 7.55114 9.60017 7.45775C9.67035 7.36439 9.75988 7.23235 9.79919 7.16438C9.83849 7.09638 9.90138 6.99896 9.93897 6.94789C9.97657 6.89683 10.0055 6.84225 10.0034 6.8266C10.0012 6.81094 10.0505 6.72163 10.1128 6.62816C10.1844 6.52077 10.2254 6.4238 10.224 6.36485C10.2229 6.31353 10.2446 6.24334 10.2722 6.20885C10.2999 6.17439 10.3197 6.12547 10.3162 6.10016C10.3127 6.07484 10.3389 6.02365 10.3743 5.98638C10.4097 5.94914 10.4359 5.89815 10.4324 5.87313C10.4274 5.83682 10.4187 5.83587 10.3893 5.86845C10.3578 5.90342 10.3559 5.89823 10.3761 5.8325C10.3891 5.79028 10.4155 5.75948 10.4348 5.76409C10.485 5.77608 10.501 5.67512 10.4555 5.63293C10.4112 5.59178 10.4243 5.49319 10.4713 5.51433C10.4887 5.52216 10.5012 5.51569 10.499 5.49991C10.4968 5.48417 10.4845 5.46708 10.4716 5.46194C10.4588 5.45683 10.4674 5.45495 10.4908 5.45782C10.5142 5.46066 10.5417 5.44458 10.5518 5.42205C10.5794 5.36054 10.5698 5.33622 10.5272 5.35996C10.4712 5.39115 10.4658 5.20046 10.5215 5.15785C10.5775 5.11499 10.5667 5.03989 10.4931 4.95944C10.4598 4.92301 10.4522 4.90372 10.4754 4.91414C10.4993 4.92491 10.5238 4.91438 10.5355 4.88838C10.5605 4.83262 10.5562 4.79122 10.5279 4.81491C10.5159 4.8249 10.5065 4.79331 10.5068 4.74476C10.5072 4.68954 10.4946 4.65824 10.4732 4.66119C10.4519 4.66412 10.443 4.64222 10.4495 4.60315C10.4553 4.56865 10.4422 4.52388 10.4205 4.50371C10.3988 4.48352 10.3875 4.45206 10.3954 4.43379C10.4034 4.41551 10.389 4.40343 10.3635 4.40695C10.3379 4.41047 10.3169 4.39652 10.3167 4.37598C10.3157 4.27912 10.2973 4.26023 10.2303 4.28748C10.1929 4.30273 10.1532 4.30413 10.1422 4.29063C10.1138 4.25579 10.1388 4.16557 10.1727 4.1808C10.2233 4.20357 10.1949 4.14069 10.1226 4.07008C10.042 3.99122 9.98879 3.98435 10.0235 4.05726C10.042 4.09619 10.0396 4.09864 10.0122 4.06903C9.99306 4.04847 9.98109 4.01558 9.98559 3.99598C9.99005 3.97636 9.96386 3.93963 9.92733 3.91435C9.89083 3.88906 9.85841 3.84993 9.8553 3.82737C9.85219 3.80481 9.80144 3.77335 9.74251 3.75741C9.68359 3.7415 9.63725 3.71826 9.63951 3.7058C9.64178 3.69334 9.63698 3.68298 9.62884 3.68276C9.57667 3.68142 9.47425 3.62434 9.48395 3.60206C9.49738 3.57114 9.42455 3.54874 9.34592 3.55958C9.31645 3.56365 9.28032 3.54148 9.26564 3.51035C9.25099 3.4792 9.22933 3.46181 9.21756 3.47169C9.20576 3.48155 9.15954 3.4679 9.11484 3.44132C9.07016 3.41474 9.01509 3.40327 8.99252 3.41587C8.96668 3.43027 8.94155 3.41769 8.9247 3.38191C8.90822 3.34689 8.88259 3.33367 8.8579 3.34743C8.83588 3.35968 8.79997 3.35904 8.77808 3.34598C8.73024 3.31744 8.45877 3.3175 8.18551 3.34608C8.05286 3.35997 7.97557 3.35444 7.95402 3.32952C7.92737 3.29863 7.91559 3.30309 7.8867 3.35499C7.86743 3.38962 7.84951 3.40217 7.84686 3.38293C7.84421 3.3637 7.82823 3.34986 7.81138 3.35218C7.79453 3.35451 7.79211 3.3704 7.80604 3.38749C7.82222 3.40729 7.81751 3.4123 7.79307 3.40131C7.77155 3.39161 7.73335 3.40999 7.70581 3.44327C7.67751 3.47749 7.65485 3.48816 7.65215 3.46857C7.64958 3.44992 7.6605 3.43285 7.67643 3.43065C7.69235 3.42846 7.70355 3.41344 7.70133 3.39729C7.6991 3.38113 7.67044 3.37162 7.63767 3.37614C7.60489 3.38066 7.58792 3.39646 7.6 3.41126C7.63753 3.4573 7.59847 3.50844 7.54938 3.47747C7.51723 3.45718 7.49057 3.46128 7.44733 3.49307C7.41517 3.51675 7.39502 3.52189 7.40262 3.50448C7.42929 3.44309 7.3304 3.4532 7.28813 3.51613C7.23847 3.59011 7.19384 3.60555 7.20791 3.54392C7.2159 3.50897 7.19114 3.5102 7.06782 3.55091C6.98543 3.57814 6.90644 3.6127 6.89229 3.62774C6.87814 3.6428 6.80446 3.67139 6.72853 3.69132C6.65263 3.71128 6.57716 3.74168 6.56084 3.75892C6.52891 3.79269 6.32917 3.89916 6.28184 3.90769C6.26601 3.91053 6.24113 3.92267 6.22656 3.93465C6.21198 3.94662 6.15813 3.9718 6.10688 3.9906C6.05566 4.00936 6.0092 4.04453 6.00369 4.06873C5.99815 4.09293 5.97849 4.11231 5.95998 4.11184C5.90396 4.11035 5.70333 4.18746 5.6693 4.22355C5.65177 4.24213 5.64604 4.26794 5.65662 4.2809C5.66716 4.29385 5.65487 4.29946 5.62927 4.29333C5.60365 4.28722 5.56472 4.30636 5.5427 4.33582C5.52071 4.36531 5.48997 4.38368 5.47443 4.37669C5.43709 4.35987 5.33203 4.43808 5.29509 4.51016C5.27896 4.54166 5.24288 4.56884 5.21491 4.5706C5.18698 4.57236 5.12985 4.60412 5.08796 4.6412C5.04608 4.67828 4.98553 4.71647 4.95343 4.72608C4.92132 4.73568 4.88919 4.75703 4.88202 4.77352C4.86549 4.81153 4.61729 4.99427 4.61406 4.9708C4.61274 4.96123 4.59451 4.97236 4.57355 4.99561C4.55259 5.01885 4.54308 5.04722 4.55242 5.05865C4.56175 5.07008 4.55237 5.09831 4.53157 5.12138C4.51076 5.14446 4.50251 5.17406 4.5132 5.18716C4.52389 5.20029 4.52027 5.21273 4.50512 5.21482C4.49001 5.2169 4.47416 5.25126 4.46993 5.29121C4.4657 5.33112 4.443 5.3745 4.4195 5.38759C4.39492 5.40127 4.38255 5.39804 4.39041 5.37996C4.39794 5.36264 4.37387 5.35156 4.33693 5.35537C4.29999 5.35918 4.28528 5.35327 4.30421 5.34231C4.32317 5.33132 4.34891 5.29421 4.3614 5.25984C4.38368 5.19846 4.38274 5.1985 4.30964 5.26144C4.06833 5.46933 4.02132 5.53857 4.08716 5.5892C4.14049 5.63022 4.11447 5.65482 4.03699 5.63656C3.99217 5.62604 3.93914 5.62653 3.91913 5.63767C3.86924 5.66544 3.88491 5.7493 3.93858 5.74189C3.96247 5.7386 3.98358 5.7473 3.9855 5.76119C3.99013 5.7948 3.83212 5.78608 3.80222 5.75112C3.77563 5.72001 3.64037 5.82576 3.64683 5.8726C3.65202 5.91023 3.73026 5.8989 3.74807 5.85795C3.76431 5.82064 3.81501 5.80853 3.81948 5.84092C3.82117 5.8532 3.79446 5.90402 3.76011 5.95387C3.69728 6.04502 3.61682 6.08287 3.60885 6.02504C3.60649 6.00794 3.61774 5.99987 3.63384 6.0071C3.67829 6.0271 3.68909 5.97518 3.64651 5.94622C3.59692 5.91244 3.54682 5.92228 3.50878 5.97326C3.48387 6.00662 3.48787 6.01356 3.52881 6.00791C3.56861 6.00242 3.57751 6.01619 3.56878 6.06974C3.56259 6.10762 3.54577 6.14885 3.53138 6.16134C3.51699 6.17382 3.51725 6.19881 3.53195 6.21684C3.5512 6.24046 3.5407 6.24646 3.49444 6.23832C3.4551 6.23138 3.43193 6.2397 3.4347 6.25979C3.43771 6.28161 3.42203 6.28575 3.38797 6.27216C3.29731 6.23602 3.23842 6.28542 3.24088 6.39546C3.24259 6.47095 3.25263 6.49285 3.27888 6.47824C3.29852 6.4673 3.31634 6.47116 3.3185 6.48679C3.32066 6.50244 3.34118 6.51266 3.36414 6.5095C3.3871 6.50633 3.41751 6.51896 3.43174 6.53759C3.44599 6.55618 3.44561 6.56309 3.43093 6.55293C3.41625 6.54274 3.38879 6.55156 3.36991 6.57248C3.34348 6.6018 3.33398 6.59904 3.32865 6.56045C3.32484 6.53278 3.30639 6.5186 3.28742 6.52882C3.26852 6.53896 3.258 6.56092 3.26405 6.57759C3.27947 6.62033 3.1665 6.60912 3.10495 6.56182C3.03449 6.50764 3.00731 6.51635 3.07283 6.57211C3.10194 6.59689 3.128 6.63035 3.13072 6.64644C3.13347 6.66252 3.16363 6.67623 3.19777 6.67691C3.24779 6.67791 3.25432 6.68719 3.2314 6.72465C3.19983 6.77635 3.112 6.80055 3.13323 6.75171C3.15346 6.7052 2.99503 6.6964 2.96089 6.74214C2.9387 6.77187 2.94184 6.78562 2.97411 6.80015C3.00705 6.815 3.01102 6.83399 2.99206 6.88623C2.97867 6.9231 2.95513 6.95499 2.93979 6.9571C2.89931 6.96268 2.89841 6.91061 2.93856 6.88721C2.96426 6.87226 2.96089 6.86111 2.92497 6.84215C2.86035 6.80808 2.85256 6.81068 2.79161 6.88658C2.75676 6.92999 2.74705 6.97318 2.76328 7.01275C2.78243 7.05943 2.79282 7.0633 2.8097 7.02996C2.82699 6.99579 2.83023 6.99636 2.82559 7.03271C2.82162 7.06402 2.78518 7.08198 2.70993 7.08972C2.64064 7.09688 2.61573 7.1081 2.64246 7.12013C2.67596 7.1352 2.67296 7.15405 2.62824 7.20975C2.59707 7.24856 2.55763 7.27402 2.54054 7.26632C2.49267 7.24479 2.50643 7.27055 2.57556 7.33198C2.61009 7.36265 2.6531 7.38572 2.67113 7.38324C2.68917 7.38075 2.70582 7.3924 2.70813 7.40911C2.71102 7.43008 2.69362 7.43248 2.65214 7.41683C2.56102 7.3825 2.55045 7.39204 2.57708 7.48441C2.5915 7.53441 2.58907 7.56366 2.5712 7.55562C2.55342 7.54759 2.55101 7.57223 2.56539 7.61511C2.58284 7.66721 2.5785 7.68555 2.55025 7.67882C2.50312 7.66757 2.38141 7.82105 2.38971 7.88126C2.3929 7.90443 2.37896 7.9238 2.35877 7.92431C2.33854 7.9248 2.31874 7.93914 2.31472 7.95616C2.31072 7.97317 2.2715 8.00863 2.22763 8.03494C2.18374 8.06129 2.15787 8.09514 2.17016 8.11021C2.21024 8.15936 2.16969 8.20333 2.1063 8.17944C2.07142 8.1663 2.04272 8.16918 2.03513 8.18662C2.02817 8.20267 2.03907 8.21901 2.0594 8.22291C2.08246 8.2273 2.07111 8.25927 2.02928 8.30787C1.98679 8.35722 1.97109 8.40212 1.98649 8.43038C2.00794 8.46977 2.00474 8.47069 1.9591 8.43819C1.92341 8.4128 1.9165 8.39373 1.93679 8.37653C1.95583 8.36038 1.94701 8.34708 1.91156 8.33862C1.8806 8.33125 1.84437 8.3439 1.82792 8.3679C1.80524 8.40093 1.80671 8.40411 1.83472 8.38235C1.8603 8.36248 1.86961 8.37068 1.8671 8.41093C1.865 8.44447 1.843 8.46659 1.81279 8.46552C1.75789 8.46361 1.75001 8.51261 1.80151 8.5358C1.83862 8.5525 1.81708 8.62284 1.74207 8.72974C1.71385 8.77 1.69294 8.81888 1.69564 8.83841C1.69833 8.85794 1.69133 8.86684 1.6801 8.85818C1.6599 8.84265 1.58874 8.919 1.59321 8.95143C1.59448 8.96065 1.61507 8.9655 1.63895 8.96221C1.66284 8.95891 1.6844 8.97085 1.68686 8.98873C1.68933 9.00662 1.67118 9.01643 1.64657 9.01057C1.61222 9.00238 1.60585 9.02298 1.61921 9.0989C1.62879 9.15334 1.6196 9.23436 1.59881 9.27892C1.57805 9.32348 1.5639 9.38065 1.56738 9.40594C1.57087 9.43126 1.55831 9.46059 1.53949 9.47111C1.48959 9.499 1.50666 9.66884 1.55866 9.66167C1.58353 9.65824 1.5958 9.67444 1.58943 9.70232C1.5836 9.72781 1.56114 9.75111 1.53951 9.7541C1.49076 9.76082 1.44891 9.86937 1.46956 9.93551C1.47802 9.9626 1.46891 9.98894 1.44935 9.99409C1.42976 9.99921 1.40095 10.0068 1.38531 10.0111C1.36967 10.0153 1.35973 10.0395 1.36323 10.0649C1.37139 10.124 1.46098 10.1959 1.46933 10.1499C1.47294 10.1303 1.50781 10.1369 1.5551 10.1662C1.61791 10.2051 1.62837 10.2243 1.60456 10.2568C1.58057 10.2895 1.56913 10.2885 1.54917 10.2518C1.53077 10.218 1.50404 10.2133 1.4499 10.2343C1.3307 10.2804 1.29859 10.345 1.31949 10.4965C1.33624 10.6179 1.33136 10.6348 1.27954 10.6347C1.22151 10.6345 1.22154 10.6351 1.28244 10.6713C1.31651 10.6916 1.3375 10.7174 1.32911 10.7287C1.32072 10.7399 1.33249 10.7822 1.35529 10.8226C1.3781 10.8631 1.40245 10.9547 1.4094 11.0263C1.41644 11.0985 1.43824 11.1638 1.4584 11.1729C1.47938 11.1823 1.45824 11.1999 1.4083 11.2145C1.36075 11.2285 1.3263 11.2296 1.33174 11.2171C1.33719 11.2046 1.32112 11.1895 1.29604 11.1835C1.26319 11.1756 1.25326 11.1929 1.26046 11.2451C1.26596 11.285 1.28566 11.3155 1.30425 11.313C1.32281 11.3104 1.33074 11.3181 1.32182 11.33C1.31291 11.3419 1.34217 11.3777 1.38685 11.4094C1.43153 11.4411 1.47054 11.4849 1.47355 11.5067C1.47655 11.5285 1.49682 11.56 1.51861 11.5767C1.5494 11.6004 1.55048 11.6082 1.52347 11.612C1.50436 11.6146 1.49127 11.6352 1.49437 11.6577C1.5007 11.7036 1.58417 11.7325 1.62109 11.7016C1.63434 11.6905 1.64709 11.6954 1.64945 11.7125C1.65181 11.7296 1.71057 11.7873 1.78 11.8407C1.92858 11.955 1.9904 12.0446 1.90663 12.0241C1.81682 12.0023 1.80116 12.0059 1.7917 12.0511C1.78538 12.0812 1.79634 12.0869 1.82743 12.0696C1.88546 12.0373 2.08096 12.1662 2.09858 12.2484C2.10943 12.299 2.09937 12.3078 2.03854 12.301C1.96083 12.2922 1.94864 12.338 2.00927 12.4107C2.04671 12.4556 2.16616 12.4644 2.16029 12.4219C2.15808 12.4058 2.13673 12.3954 2.11284 12.3986C2.08896 12.4019 2.06759 12.3914 2.06536 12.3753C2.06314 12.3591 2.1004 12.3405 2.14817 12.3339C2.21447 12.3248 2.23686 12.3353 2.24278 12.3782C2.24752 12.4125 2.28658 12.4451 2.34278 12.4615C2.39351 12.4764 2.4365 12.4993 2.43831 12.5125C2.44013 12.5256 2.45352 12.5265 2.46806 12.5143C2.48261 12.5021 2.49613 12.5039 2.49811 12.5182C2.50291 12.553 2.80565 12.6477 2.82583 12.6207C2.83449 12.6091 2.86426 12.6081 2.89196 12.6185C2.99907 12.6588 3.16988 12.6518 3.68062 12.5858C3.97185 12.5483 4.21353 12.5129 4.21771 12.5073ZM1.55202 10.4706C1.56824 10.4333 1.48915 10.4079 1.43729 10.4338C1.4144 10.4452 1.42596 10.4605 1.46999 10.4771C1.51483 10.494 1.54279 10.4917 1.55202 10.4706ZM1.3906 9.55354C1.39751 9.5234 1.38435 9.51741 1.34628 9.53334C1.27097 9.56486 1.25583 9.61364 1.3243 9.60419C1.3554 9.59991 1.38521 9.57712 1.3906 9.55354ZM1.356 9.40211C1.37414 9.37443 1.40701 9.3561 1.42906 9.36135C1.45112 9.36663 1.47385 9.35042 1.47956 9.32536C1.48554 9.29918 1.46826 9.2746 1.43894 9.2676C1.41069 9.26087 1.38494 9.2716 1.38131 9.29165C1.37765 9.31158 1.35111 9.33113 1.32231 9.3351C1.27888 9.34109 1.24206 9.40019 1.24926 9.45238C1.25336 9.48211 1.326 9.44791 1.356 9.40211ZM1.48582 9.20232C1.46377 9.19671 1.43893 9.20121 1.43066 9.21229C1.4224 9.22337 1.44044 9.22794 1.47078 9.22247C1.50431 9.21641 1.51021 9.20851 1.48582 9.20232ZM1.97654 8.31134C1.973 8.28399 1.95597 8.25525 1.93867 8.24746C1.89885 8.22954 1.90421 8.26843 1.94879 8.32088C1.97821 8.35553 1.98203 8.35419 1.97654 8.31134ZM2.17052 7.90999C2.18044 7.86597 2.17667 7.86305 2.15203 7.89578C2.13498 7.91845 2.12936 7.94338 2.13952 7.95117C2.14969 7.95898 2.16362 7.94045 2.17052 7.90999ZM2.5105 7.79448C2.51812 7.77696 2.51132 7.76443 2.49539 7.76663C2.47947 7.76883 2.46021 7.78495 2.4526 7.80246C2.44498 7.81997 2.45178 7.8325 2.46771 7.83031C2.48363 7.82811 2.50289 7.81199 2.5105 7.79448ZM2.22271 7.75685C2.2166 7.72283 2.20878 7.71681 2.20277 7.7415C2.19733 7.76386 2.20187 7.78906 2.21282 7.79749C2.22378 7.80591 2.22823 7.78764 2.22271 7.75685ZM2.43467 7.56549C2.43244 7.54934 2.41108 7.53882 2.38719 7.54211C2.36331 7.54541 2.34559 7.56132 2.34782 7.57747C2.35004 7.59363 2.37141 7.60415 2.39529 7.60085C2.41918 7.59756 2.4369 7.58165 2.43467 7.56549ZM2.51369 7.43491C2.52414 7.34466 2.47645 7.34065 2.45038 7.42957C2.43238 7.49093 2.43584 7.50547 2.46725 7.50114C2.48893 7.49815 2.50984 7.46833 2.51369 7.43491ZM3.1629 6.95426C3.17104 6.9356 3.1706 6.91486 3.16195 6.90821C3.15331 6.90156 3.14132 6.91758 3.13533 6.94381C3.12289 6.99827 3.14082 7.00507 3.1629 6.95426ZM3.18712 6.50604C3.19423 6.48974 3.18563 6.46994 3.16804 6.46201C3.15046 6.45411 3.13892 6.46824 3.1424 6.49341C3.14951 6.54502 3.16793 6.5502 3.18712 6.50604ZM4.22629 5.5288C4.27069 5.51316 4.27049 5.50765 4.22448 5.47225C4.1687 5.42936 4.13769 5.44686 4.16182 5.50759C4.17023 5.52878 4.19925 5.53831 4.22629 5.5288ZM4.8485 5.03895C4.85685 5.01795 4.85442 5.01194 4.84314 5.02556C4.83187 5.03921 4.80231 5.02982 4.77748 5.00469C4.73679 4.96355 4.73287 4.96382 4.73806 5.0074C4.74515 5.06736 4.82785 5.09097 4.8485 5.03895ZM5.38259 4.64023C5.39323 4.61578 5.38687 4.6133 5.36357 4.63283C5.33757 4.65458 5.33182 4.64774 5.34128 4.60636C5.35206 4.55917 5.34798 4.55725 5.31505 4.59375C5.2936 4.61751 5.27768 4.64856 5.27963 4.66272C5.28483 4.70046 5.36393 4.68318 5.38259 4.64023ZM13.9285 4.10159C13.9814 4.07346 14.0571 4.045 14.0968 4.03836C14.1701 4.02609 14.3658 3.93311 14.4502 3.87051C14.4757 3.85151 14.5639 3.79434 14.6462 3.74349C14.8936 3.5904 15.0907 3.40052 15.2185 3.192C15.285 3.08346 15.3376 2.98136 15.3354 2.96509C15.3331 2.94881 15.3448 2.94158 15.3613 2.949C15.3778 2.95643 15.3981 2.9073 15.4064 2.8398C15.4147 2.77233 15.4323 2.7156 15.4457 2.71376C15.459 2.71192 15.4723 2.66957 15.4751 2.61967C15.478 2.56977 15.4971 2.53008 15.5176 2.53151C15.5381 2.53293 15.5552 2.50226 15.5556 2.46332C15.5561 2.41812 15.546 2.40122 15.5277 2.41655C15.512 2.42977 15.4964 2.42103 15.4931 2.39718C15.482 2.3167 15.5083 2.25986 15.5518 2.27023C15.5806 2.27712 15.5922 2.25999 15.5865 2.21867C15.5818 2.18463 15.5649 2.15858 15.549 2.16078C15.5331 2.16297 15.5164 2.13875 15.5121 2.10694C15.5064 2.06576 15.5183 2.05251 15.5534 2.06089C15.5938 2.07055 15.596 2.06333 15.5656 2.02087C15.5452 1.99238 15.5275 1.92544 15.5263 1.87209C15.5247 1.80125 15.5126 1.77671 15.4813 1.78103C15.4573 1.78434 15.4348 1.76027 15.4301 1.72625C15.4255 1.69289 15.4039 1.64084 15.3822 1.61059C15.3605 1.58033 15.3325 1.50763 15.3199 1.44906C15.3073 1.39045 15.2623 1.2964 15.2197 1.24005C15.1772 1.18366 15.1398 1.11878 15.1366 1.09584C15.1334 1.0729 15.113 1.04586 15.0911 1.0357C15.0693 1.02554 15.0185 0.969789 14.9782 0.911805C14.9379 0.853818 14.8877 0.802075 14.8667 0.796771C14.8457 0.791499 14.8268 0.77471 14.8247 0.759467C14.815 0.689034 14.3714 0.402813 14.2381 0.381024C14.1985 0.374543 14.1338 0.346624 14.0943 0.318992C14.0287 0.273028 14.0192 0.273265 13.983 0.321842C13.9552 0.358976 13.9147 0.373401 13.8479 0.36983C13.73 0.363486 13.712 0.352596 13.757 0.314936C13.786 0.290575 13.7847 0.282079 13.7493 0.265533C13.6922 0.238872 13.4584 0.264794 13.4629 0.297309C13.4663 0.322127 13.5313 0.326214 13.6042 0.306188C13.6238 0.300802 13.6417 0.310214 13.644 0.327074C13.6486 0.360293 13.5252 0.380634 13.4276 0.362716C13.3943 0.356622 13.3644 0.331783 13.361 0.307551C13.3547 0.261409 13.2041 0.274893 13.1159 0.329505C13.0921 0.344185 13.0438 0.357343 13.0085 0.358709C12.9732 0.36011 12.9146 0.387497 12.8782 0.419595C12.8419 0.451723 12.788 0.475888 12.7584 0.473321C12.7289 0.47072 12.6567 0.505811 12.5981 0.55125C12.5394 0.596718 12.4849 0.634556 12.4769 0.63533C12.4331 0.639694 12.3122 0.724285 12.3155 0.748281C12.3176 0.76373 12.2913 0.789686 12.257 0.805903C12.1381 0.862194 12.0508 0.968516 12.0613 1.04429C12.0668 1.08453 12.0578 1.11136 12.0413 1.10392C12.0247 1.09647 12.0159 1.06995 12.0216 1.04501C12.0433 0.949673 11.9978 1.00962 11.9636 1.1213C11.9439 1.18574 11.9013 1.26667 11.869 1.30114C11.8024 1.37223 11.8003 1.4506 11.8653 1.44164C11.921 1.43396 11.9263 1.47678 11.8815 1.57287C11.8474 1.64599 11.855 1.77295 11.9109 2.06194C11.9268 2.14415 11.9234 2.19746 11.9017 2.20829C11.875 2.22162 11.8771 2.23429 11.9115 2.26684C11.9489 2.30232 11.9475 2.30659 11.902 2.29613C11.8726 2.28938 11.8504 2.29666 11.8526 2.31228C11.8547 2.32794 11.8695 2.33895 11.8855 2.33675C11.9014 2.33456 11.919 2.3658 11.9245 2.40619C11.9301 2.44657 11.922 2.48136 11.9066 2.48348C11.8912 2.48561 11.8883 2.5096 11.9001 2.53676C11.912 2.56391 11.9022 2.55854 11.8783 2.5248C11.8287 2.45469 11.783 2.44912 11.7919 2.51426C11.7953 2.53849 11.7785 2.56102 11.7546 2.56431C11.6995 2.5719 11.7021 2.58613 11.7734 2.66907C11.817 2.71974 11.8243 2.74583 11.8027 2.77469C11.7691 2.81973 11.7705 2.87237 11.8045 2.84385C11.8174 2.83306 11.8388 2.85059 11.852 2.8828C11.8702 2.92713 11.8646 2.93864 11.8291 2.93019C11.7954 2.92214 11.789 2.9315 11.8063 2.96332C11.8196 2.98774 11.8323 3.02059 11.8344 3.0364C11.8366 3.05217 11.8503 3.05513 11.8648 3.04295C11.8794 3.03077 11.8932 3.03434 11.8954 3.05088C11.8977 3.06742 11.8759 3.09841 11.8468 3.11978C11.8007 3.15373 11.7998 3.16811 11.8395 3.23407C11.8866 3.31222 12.0492 3.51499 12.0822 3.53674C12.0926 3.54355 12.1639 3.61497 12.2408 3.69548C12.3789 3.84023 12.5967 4.00453 12.6421 3.99828C12.655 3.99649 12.7079 4.02284 12.7597 4.05684C12.8116 4.09082 12.8802 4.11604 12.9122 4.11292C13.0009 4.10421 13.1666 4.14664 13.1724 4.17954C13.1752 4.19562 13.2133 4.20539 13.257 4.20125C13.3007 4.19715 13.3432 4.19528 13.3516 4.19712C13.4246 4.21321 13.8515 4.14253 13.9285 4.10159ZM11.9271 3.20895C11.9362 3.19673 11.9418 3.17307 11.9395 3.15635C11.9369 3.13797 11.9237 3.14156 11.9058 3.16548C11.8896 3.1872 11.884 3.21087 11.8934 3.21808C11.9028 3.22531 11.9179 3.22119 11.9271 3.20895ZM11.9735 1.70856C11.9674 1.67454 11.9596 1.66852 11.9536 1.69321C11.9481 1.71557 11.9527 1.74077 11.9636 1.7492C11.9746 1.75762 11.979 1.73935 11.9735 1.70856ZM11.7587 1.6484C11.7526 1.61437 11.7448 1.60836 11.7388 1.63304C11.7333 1.6554 11.7379 1.6806 11.7488 1.68903C11.7598 1.69745 11.7642 1.67918 11.7587 1.6484Z" fill="white"/>
<path opacity="0.7" fill-rule="evenodd" clip-rule="evenodd" d="M114.633 24.2672C114.628 24.2726 114.504 24.3159 114.356 24.3633C114.024 24.47 114.044 24.4622 113.965 24.5164C113.911 24.5539 113.903 24.5544 113.919 24.5194C113.934 24.4856 113.93 24.4854 113.902 24.5181C113.882 24.5405 113.842 24.561 113.814 24.5637C113.785 24.5665 113.762 24.582 113.764 24.5983C113.766 24.6145 113.757 24.6266 113.745 24.6251C113.732 24.6236 113.685 24.6426 113.638 24.6672C113.592 24.6918 113.519 24.7228 113.476 24.7361C113.432 24.7494 113.391 24.7724 113.383 24.7874C113.376 24.8024 113.344 24.8171 113.312 24.8201C113.281 24.8231 113.232 24.8512 113.205 24.8826C113.178 24.9139 113.083 24.9855 112.994 25.0419C112.905 25.0982 112.824 25.1632 112.813 25.1863C112.802 25.2095 112.78 25.222 112.765 25.2142C112.722 25.1927 112.624 25.269 112.629 25.3201C112.632 25.3448 112.621 25.3587 112.605 25.3509C112.551 25.3237 112.432 25.4074 112.438 25.4688C112.444 25.5309 112.4 25.5561 112.377 25.5039C112.37 25.4868 112.341 25.499 112.31 25.5326C112.28 25.5649 112.232 25.6091 112.202 25.6308C112.173 25.6526 112.154 25.6855 112.16 25.7041C112.167 25.7257 112.15 25.733 112.111 25.7245C112.069 25.7152 112.051 25.7244 112.054 25.7539C112.056 25.7775 112.036 25.8075 112.009 25.8206C111.9 25.8738 111.795 25.9653 111.799 26.0047C111.801 26.0277 111.765 26.0634 111.719 26.0841C111.627 26.1257 111.567 26.1866 111.572 26.2353C111.573 26.2527 111.565 26.2679 111.552 26.2691C111.493 26.2747 110.877 26.9001 110.625 27.2093C110.566 27.2821 110.504 27.3483 110.487 27.3565C110.47 27.3648 110.402 27.4475 110.336 27.5404C110.27 27.6333 110.214 27.6989 110.212 27.6863C110.21 27.6736 110.179 27.7063 110.142 27.759C110.106 27.8116 110.084 27.8354 110.094 27.8118C110.106 27.7831 110.099 27.7748 110.073 27.7866C110.051 27.7962 110.035 27.8225 110.037 27.845C110.04 27.8676 110.012 27.9042 109.977 27.9264C109.942 27.9487 109.917 27.9783 109.922 27.9922C109.926 28.0062 109.903 28.0333 109.87 28.0526C109.838 28.0719 109.812 28.0972 109.813 28.1089C109.816 28.1362 109.705 28.2677 109.639 28.3166C109.61 28.3375 109.585 28.3772 109.582 28.405C109.574 28.4848 109.47 28.6056 109.392 28.6244C109.353 28.6339 109.323 28.6548 109.326 28.6709C109.332 28.7079 109.274 28.7801 109.236 28.7838C109.22 28.7853 109.2 28.8174 109.192 28.8549C109.185 28.8925 109.118 28.9972 109.044 29.0876C108.97 29.1779 108.875 29.3061 108.833 29.3724C108.791 29.4387 108.724 29.5334 108.684 29.5829C108.644 29.6323 108.613 29.6856 108.615 29.7014C108.616 29.7171 108.563 29.8043 108.497 29.8951C108.421 29.9994 108.376 30.0945 108.375 30.1535C108.374 30.2048 108.349 30.274 108.32 30.3073C108.291 30.3406 108.269 30.3887 108.272 30.4141C108.274 30.4395 108.246 30.4896 108.209 30.5254C108.172 30.5611 108.144 30.6109 108.146 30.6361C108.15 30.6726 108.158 30.6739 108.189 30.6426C108.222 30.6089 108.224 30.6142 108.201 30.679C108.186 30.7207 108.158 30.7503 108.139 30.7449C108.09 30.7308 108.069 30.8311 108.113 30.8751C108.156 30.9181 108.139 31.016 108.092 30.9929C108.075 30.9844 108.063 30.9903 108.064 31.0062C108.066 31.022 108.077 31.0396 108.09 31.0453C108.103 31.0509 108.094 31.0524 108.071 31.0486C108.047 31.0448 108.019 31.0597 108.008 31.0818C107.978 31.1421 107.987 31.1668 108.03 31.1448C108.087 31.116 108.085 31.3068 108.027 31.347C107.97 31.3875 107.977 31.463 108.047 31.5464C108.079 31.5842 108.086 31.6038 108.063 31.5924C108.04 31.5807 108.015 31.5902 108.002 31.6157C107.975 31.6703 107.977 31.7119 108.007 31.6894C108.019 31.6799 108.027 31.7119 108.025 31.7604C108.022 31.8155 108.033 31.8473 108.055 31.8453C108.076 31.8432 108.084 31.8655 108.076 31.9042C108.069 31.9385 108.08 31.9837 108.101 32.0048C108.122 32.0259 108.132 32.0578 108.123 32.0757C108.114 32.0936 108.128 32.1063 108.154 32.1039C108.18 32.1014 108.2 32.1162 108.199 32.1368C108.196 32.2336 108.214 32.2532 108.282 32.2288C108.32 32.2151 108.36 32.2154 108.37 32.2293C108.397 32.2653 108.368 32.3544 108.335 32.3378C108.285 32.3129 108.311 32.3769 108.38 32.4505C108.458 32.5326 108.511 32.5417 108.479 32.4674C108.462 32.4278 108.465 32.4254 108.491 32.4562C108.509 32.4775 108.52 32.5109 108.514 32.5302C108.509 32.5497 108.534 32.5875 108.569 32.6142C108.604 32.641 108.635 32.6815 108.637 32.7042C108.64 32.7268 108.689 32.7604 108.747 32.7788C108.805 32.7971 108.851 32.8223 108.848 32.8346C108.845 32.847 108.85 32.8575 108.858 32.8581C108.91 32.8616 109.01 32.9229 108.999 32.9448C108.984 32.9751 109.056 33.0005 109.135 32.993C109.165 32.9901 109.2 33.0138 109.213 33.0455C109.227 33.0773 109.248 33.0955 109.26 33.0862C109.272 33.0768 109.318 33.0924 109.361 33.1208C109.405 33.1492 109.459 33.163 109.482 33.1513C109.509 33.138 109.533 33.1516 109.549 33.1881C109.564 33.2238 109.589 33.238 109.614 33.2253C109.636 33.214 109.672 33.2161 109.694 33.2301C109.74 33.2606 110.011 33.2719 110.286 33.2548C110.419 33.2464 110.496 33.2552 110.516 33.281C110.542 33.3129 110.554 33.309 110.585 33.2583C110.605 33.2245 110.624 33.2127 110.626 33.2321C110.627 33.2514 110.643 33.2659 110.66 33.2643C110.677 33.2627 110.68 33.2469 110.667 33.2292C110.651 33.2088 110.656 33.204 110.68 33.216C110.701 33.2265 110.74 33.2098 110.769 33.1777C110.799 33.1447 110.822 33.135 110.824 33.1546C110.825 33.1734 110.814 33.19 110.798 33.1915C110.782 33.193 110.77 33.2076 110.772 33.2238C110.773 33.24 110.801 33.2507 110.834 33.2476C110.867 33.2445 110.885 33.2294 110.873 33.2141C110.838 33.1665 110.879 33.117 110.927 33.15C110.958 33.1717 110.985 33.1687 111.029 33.1387C111.062 33.1164 111.083 33.1121 111.074 33.1292C111.045 33.1894 111.144 33.1834 111.189 33.1223C111.242 33.0505 111.287 33.0369 111.271 33.0979C111.261 33.1325 111.286 33.1323 111.411 33.0968C111.494 33.073 111.575 33.0418 111.59 33.0273C111.604 33.0129 111.679 32.9874 111.756 32.9707C111.832 32.9539 111.909 32.9267 111.926 32.9101C111.959 32.8777 112.163 32.7797 112.211 32.7731C112.227 32.771 112.252 32.7599 112.267 32.7485C112.283 32.7371 112.337 32.7142 112.389 32.6976C112.441 32.681 112.489 32.6478 112.496 32.6238C112.502 32.5999 112.523 32.5814 112.541 32.5826C112.597 32.5864 112.801 32.5178 112.836 32.4831C112.855 32.4653 112.861 32.4397 112.851 32.4263C112.841 32.413 112.854 32.4079 112.879 32.4151C112.905 32.4222 112.944 32.4048 112.967 32.3762C112.991 32.3477 113.022 32.3306 113.037 32.3382C113.074 32.3566 113.182 32.2829 113.222 32.2124C113.24 32.1816 113.277 32.1559 113.305 32.1553C113.333 32.1548 113.391 32.1254 113.435 32.0901C113.478 32.0548 113.54 32.0192 113.573 32.0109C113.605 32.0027 113.638 31.9827 113.646 31.9665C113.664 31.9292 113.92 31.757 113.922 31.7806C113.923 31.7902 113.941 31.7798 113.963 31.7575C113.985 31.7351 113.996 31.7072 113.987 31.6954C113.978 31.6836 113.989 31.6558 114.011 31.6336C114.032 31.6114 114.042 31.5822 114.032 31.5686C114.022 31.5551 114.026 31.5428 114.041 31.5413C114.056 31.5399 114.073 31.5062 114.079 31.4665C114.085 31.4268 114.11 31.3844 114.134 31.3723C114.159 31.3596 114.171 31.3634 114.162 31.3811C114.154 31.3981 114.178 31.4102 114.215 31.4079C114.252 31.4057 114.266 31.4122 114.247 31.4223C114.228 31.4325 114.2 31.4685 114.186 31.5024C114.162 31.5627 114.162 31.5627 114.238 31.5029C114.488 31.3053 114.538 31.2381 114.474 31.1847C114.423 31.1415 114.45 31.118 114.526 31.1395C114.571 31.1519 114.624 31.1536 114.644 31.1433C114.695 31.1177 114.683 31.0332 114.629 31.0384C114.605 31.0407 114.584 31.0311 114.583 31.0171C114.58 30.9834 114.737 30.9987 114.766 31.0349C114.791 31.067 114.93 30.967 114.926 30.92C114.922 30.8822 114.844 30.8902 114.824 30.9304C114.806 30.967 114.755 30.977 114.752 30.9444C114.751 30.9321 114.78 30.8824 114.816 30.834C114.883 30.7456 114.965 30.7111 114.97 30.7692C114.972 30.7864 114.96 30.794 114.944 30.7861C114.901 30.7643 114.888 30.8157 114.929 30.8464C114.977 30.8822 115.028 30.8745 115.068 30.8252C115.094 30.7929 115.091 30.7858 115.049 30.7897C115.009 30.7935 115.001 30.7794 115.012 30.7263C115.02 30.6887 115.038 30.6482 115.053 30.6363C115.068 30.6244 115.069 30.5995 115.055 30.5808C115.037 30.5564 115.048 30.5509 115.093 30.5609C115.132 30.5695 115.156 30.5622 115.154 30.542C115.152 30.52 115.168 30.5166 115.201 30.5316C115.29 30.5715 115.351 30.5246 115.353 30.4145C115.355 30.339 115.346 30.3167 115.319 30.3302C115.299 30.3403 115.281 30.3357 115.28 30.32C115.278 30.3043 115.258 30.2932 115.235 30.2954C115.212 30.2976 115.182 30.2837 115.169 30.2645C115.155 30.2454 115.156 30.2385 115.17 30.2492C115.184 30.26 115.212 30.2524 115.232 30.2323C115.259 30.2041 115.269 30.2072 115.272 30.246C115.275 30.2738 115.293 30.2887 115.312 30.2793C115.332 30.27 115.343 30.2485 115.338 30.2316C115.324 30.1882 115.437 30.2041 115.496 30.254C115.564 30.3111 115.592 30.3035 115.529 30.245C115.501 30.2191 115.476 30.1845 115.474 30.1684C115.472 30.1522 115.442 30.1372 115.408 30.1351C115.358 30.132 115.352 30.1225 115.377 30.086C115.41 30.0357 115.499 30.0152 115.476 30.0631C115.454 30.1087 115.612 30.1241 115.648 30.0798C115.671 30.0511 115.668 30.0372 115.637 30.0213C115.604 30.0051 115.601 29.986 115.622 29.9346C115.637 29.8983 115.662 29.8674 115.678 29.8659C115.718 29.862 115.717 29.9141 115.676 29.9358C115.65 29.9497 115.652 29.961 115.688 29.9814C115.751 30.0181 115.759 30.0159 115.823 29.9426C115.859 29.9007 115.871 29.8579 115.856 29.8177C115.839 29.7703 115.829 29.766 115.811 29.7986C115.792 29.832 115.789 29.8313 115.795 29.7952C115.8 29.764 115.837 29.7476 115.913 29.743C115.982 29.7388 116.008 29.7286 115.981 29.7155C115.949 29.699 115.952 29.6803 115.999 29.6265C116.032 29.589 116.073 29.5652 116.089 29.5737C116.136 29.5972 116.124 29.5709 116.057 29.5066C116.024 29.4745 115.982 29.4497 115.964 29.4514C115.946 29.4531 115.93 29.4408 115.928 29.424C115.926 29.4029 115.943 29.4012 115.984 29.4186C116.074 29.4567 116.085 29.4476 116.062 29.3542C116.05 29.3037 116.053 29.2746 116.071 29.2833C116.088 29.2921 116.092 29.2676 116.079 29.2241C116.064 29.1714 116.069 29.1532 116.097 29.1611C116.144 29.1743 116.272 29.0261 116.266 28.9656C116.264 28.9423 116.278 28.9235 116.298 28.9238C116.319 28.9242 116.339 28.9107 116.344 28.8939C116.349 28.877 116.389 28.8432 116.434 28.8188C116.479 28.7943 116.506 28.7615 116.495 28.746C116.457 28.6952 116.499 28.653 116.561 28.6795C116.596 28.6941 116.624 28.6924 116.633 28.6753C116.64 28.6595 116.63 28.6427 116.61 28.638C116.587 28.6326 116.6 28.6012 116.644 28.5544C116.688 28.5068 116.706 28.4626 116.692 28.4338C116.672 28.3935 116.675 28.3927 116.719 28.4271C116.754 28.454 116.76 28.4733 116.739 28.4896C116.719 28.505 116.728 28.5186 116.763 28.5286C116.793 28.5372 116.83 28.5261 116.847 28.5028C116.871 28.4707 116.87 28.4675 116.841 28.4881C116.815 28.5069 116.806 28.4983 116.81 28.4582C116.814 28.4247 116.836 28.4036 116.867 28.4059C116.921 28.4101 116.931 28.3615 116.881 28.3361C116.844 28.3179 116.869 28.2485 116.948 28.1449C116.978 28.1058 117.001 28.0578 116.999 28.0382C116.997 28.0186 117.005 28.01 117.016 28.0191C117.035 28.0355 117.109 27.9622 117.106 27.9296C117.105 27.9203 117.085 27.9146 117.061 27.9169C117.037 27.9192 117.016 27.9064 117.014 27.8884C117.013 27.8704 117.031 27.8614 117.055 27.8683C117.089 27.8779 117.097 27.8576 117.086 27.7812C117.079 27.7264 117.092 27.6458 117.114 27.6021C117.137 27.5585 117.153 27.502 117.151 27.4765C117.149 27.4511 117.162 27.4223 117.182 27.4126C117.233 27.3868 117.223 27.2164 117.17 27.2214C117.145 27.2238 117.134 27.2071 117.141 27.1795C117.148 27.1543 117.172 27.1319 117.193 27.1299C117.242 27.1252 117.289 27.0185 117.271 26.9515C117.264 26.9241 117.274 26.8982 117.294 26.8938C117.313 26.8895 117.342 26.8831 117.358 26.8796C117.374 26.876 117.385 26.8522 117.383 26.8267C117.377 26.7672 117.29 26.6918 117.28 26.7373C117.276 26.7568 117.241 26.7487 117.195 26.7175C117.134 26.6759 117.124 26.6563 117.149 26.6249C117.175 26.5932 117.186 26.5947 117.205 26.6322C117.222 26.6667 117.248 26.6725 117.303 26.6538C117.424 26.6127 117.459 26.5496 117.444 26.3973C117.433 26.2752 117.438 26.2586 117.49 26.2609C117.548 26.2635 117.548 26.2629 117.489 26.2241C117.455 26.2024 117.435 26.1758 117.444 26.1649C117.453 26.154 117.443 26.1113 117.422 26.0699C117.401 26.0286 117.381 25.936 117.377 25.8642C117.373 25.7917 117.353 25.7256 117.334 25.7157C117.313 25.7054 117.335 25.6887 117.386 25.6762C117.434 25.6642 117.468 25.6645 117.462 25.6768C117.456 25.6891 117.472 25.7048 117.496 25.7119C117.529 25.7211 117.54 25.7043 117.535 25.6518C117.531 25.6117 117.512 25.5804 117.494 25.5822C117.475 25.584 117.467 25.576 117.477 25.5644C117.486 25.5529 117.458 25.5159 117.415 25.4824C117.372 25.4488 117.335 25.4034 117.333 25.3816C117.33 25.3597 117.311 25.3273 117.29 25.3097C117.261 25.2848 117.26 25.2769 117.287 25.2743C117.306 25.2724 117.32 25.2524 117.318 25.2298C117.314 25.1837 117.231 25.1513 117.193 25.1807C117.18 25.1912 117.167 25.1857 117.165 25.1685C117.164 25.1514 117.107 25.0912 117.04 25.035C116.897 24.9146 116.839 24.8226 116.921 24.8465C117.01 24.8721 117.026 24.869 117.037 24.8243C117.045 24.7945 117.034 24.7884 117.002 24.8044C116.943 24.8342 116.753 24.6973 116.739 24.6144C116.73 24.5633 116.741 24.555 116.801 24.5643C116.878 24.5763 116.893 24.5312 116.835 24.4559C116.799 24.4095 116.681 24.3957 116.685 24.4385C116.686 24.4546 116.707 24.466 116.731 24.4637C116.755 24.4614 116.776 24.4728 116.778 24.489C116.779 24.5052 116.741 24.5223 116.693 24.5269C116.626 24.5332 116.604 24.5218 116.6 24.4787C116.597 24.4442 116.559 24.41 116.504 24.3913C116.454 24.3743 116.412 24.3496 116.411 24.3363C116.409 24.3231 116.396 24.3217 116.381 24.3333C116.366 24.3449 116.352 24.3425 116.351 24.3281C116.348 24.2931 116.049 24.1859 116.028 24.212C116.019 24.2233 115.989 24.223 115.962 24.2115C115.856 24.1667 115.685 24.1666 115.172 24.2112C114.88 24.2366 114.637 24.2618 114.633 24.2672ZM117.211 26.4135C117.193 26.4501 117.271 26.4787 117.324 26.455C117.347 26.4446 117.336 26.4288 117.293 26.4104C117.249 26.3916 117.221 26.3927 117.211 26.4135ZM117.334 27.3365C117.326 27.3663 117.339 27.3728 117.377 27.3585C117.454 27.3301 117.471 27.282 117.402 27.2886C117.371 27.2916 117.34 27.3131 117.334 27.3365ZM117.362 27.4892C117.343 27.5161 117.309 27.533 117.287 27.5269C117.266 27.5207 117.242 27.5359 117.235 27.5607C117.228 27.5866 117.245 27.6119 117.274 27.6201C117.302 27.628 117.328 27.6184 117.332 27.5985C117.337 27.5787 117.364 27.5603 117.393 27.5576C117.437 27.5534 117.476 27.4959 117.471 27.4434C117.468 27.4136 117.394 27.4447 117.362 27.4892ZM117.224 27.6834C117.246 27.6899 117.271 27.6865 117.28 27.6757C117.288 27.665 117.27 27.6597 117.24 27.6639C117.206 27.6685 117.2 27.6762 117.224 27.6834ZM116.697 28.5531C116.699 28.5806 116.715 28.61 116.732 28.6185C116.771 28.6381 116.767 28.599 116.725 28.5447C116.697 28.5089 116.693 28.5101 116.697 28.5531ZM116.486 28.946C116.474 28.9896 116.478 28.9926 116.504 28.961C116.522 28.939 116.528 28.9144 116.519 28.9062C116.509 28.8979 116.494 28.9159 116.486 28.946ZM116.141 29.0472C116.133 29.0644 116.139 29.0772 116.155 29.0757C116.171 29.0741 116.191 29.0588 116.2 29.0417C116.208 29.0245 116.202 29.0117 116.186 29.0132C116.17 29.0147 116.15 29.03 116.141 29.0472ZM116.427 29.0968C116.432 29.1311 116.44 29.1374 116.447 29.113C116.453 29.0909 116.45 29.0655 116.439 29.0566C116.428 29.0478 116.423 29.0658 116.427 29.0968ZM116.208 29.2792C116.209 29.2954 116.23 29.3068 116.254 29.3045C116.278 29.3022 116.296 29.2871 116.295 29.2708C116.293 29.2546 116.272 29.2432 116.248 29.2455C116.224 29.2478 116.206 29.2629 116.208 29.2792ZM116.123 29.4063C116.109 29.4961 116.157 29.5021 116.186 29.4143C116.207 29.3538 116.204 29.3391 116.172 29.3421C116.151 29.3442 116.129 29.3731 116.123 29.4063ZM115.455 29.8595C115.446 29.8778 115.445 29.8985 115.454 29.9055C115.462 29.9125 115.475 29.897 115.482 29.871C115.496 29.8172 115.479 29.8096 115.455 29.8595ZM115.412 30.3063C115.404 30.3223 115.412 30.3424 115.429 30.3511C115.446 30.3597 115.458 30.3461 115.456 30.3208C115.451 30.2689 115.433 30.263 115.412 30.3063ZM114.333 31.2393C114.288 31.253 114.288 31.2585 114.332 31.2958C114.386 31.341 114.418 31.3248 114.396 31.2632C114.389 31.2416 114.36 31.2309 114.333 31.2393ZM113.69 31.7027C113.681 31.7233 113.683 31.7294 113.695 31.7163C113.707 31.7031 113.736 31.7138 113.76 31.7399C113.799 31.7827 113.803 31.7826 113.799 31.7388C113.795 31.6786 113.713 31.6516 113.69 31.7027ZM113.14 32.0788C113.129 32.1028 113.135 32.1055 113.159 32.087C113.186 32.0663 113.191 32.0734 113.18 32.1143C113.167 32.161 113.171 32.1631 113.206 32.128C113.228 32.1052 113.245 32.0748 113.244 32.0606C113.24 32.0227 113.161 32.0366 113.14 32.0788ZM104.579 32.2601C104.525 32.286 104.448 32.3113 104.408 32.3162C104.335 32.3254 104.135 32.4102 104.048 32.4692C104.022 32.4871 103.932 32.5405 103.847 32.5879C103.594 32.7305 103.389 32.912 103.252 33.115C103.181 33.2207 103.125 33.3205 103.126 33.3368C103.128 33.3532 103.116 33.3599 103.1 33.3518C103.083 33.3437 103.061 33.392 103.05 33.4591C103.039 33.5261 103.019 33.5821 103.005 33.5834C102.992 33.5846 102.977 33.6264 102.972 33.6761C102.967 33.7259 102.946 33.7647 102.926 33.7624C102.906 33.7602 102.887 33.7901 102.885 33.829C102.883 33.8741 102.892 33.8914 102.911 33.8769C102.927 33.8643 102.943 33.8737 102.945 33.8977C102.953 33.9785 102.924 34.0342 102.881 34.0221C102.852 34.014 102.84 34.0306 102.844 34.0721C102.847 34.1063 102.863 34.1331 102.879 34.1315C102.895 34.13 102.911 34.1549 102.914 34.1869C102.918 34.2283 102.905 34.241 102.871 34.2311C102.831 34.2198 102.828 34.2269 102.857 34.2706C102.876 34.2999 102.891 34.3676 102.89 34.4209C102.888 34.4918 102.899 34.5168 102.931 34.5138C102.955 34.5115 102.977 34.5365 102.98 34.5706C102.983 34.6042 103.002 34.6571 103.023 34.6882C103.043 34.7193 103.068 34.7931 103.078 34.8522C103.088 34.9113 103.129 35.0071 103.17 35.0652C103.21 35.1233 103.244 35.1897 103.247 35.2128C103.249 35.2358 103.268 35.2637 103.29 35.2748C103.311 35.2858 103.359 35.3436 103.397 35.4033C103.435 35.4629 103.483 35.5167 103.504 35.5228C103.525 35.529 103.543 35.5466 103.544 35.5619C103.551 35.6326 103.982 35.9371 104.115 35.9645C104.154 35.9726 104.217 36.0032 104.256 36.0325C104.319 36.0811 104.329 36.0813 104.367 36.0343C104.396 35.9983 104.437 35.9856 104.504 35.992C104.621 36.0032 104.639 36.0149 104.592 36.0506C104.562 36.0737 104.563 36.0823 104.598 36.1003C104.654 36.1293 104.889 36.1132 104.886 36.0805C104.883 36.0556 104.818 36.0488 104.745 36.0657C104.725 36.0703 104.707 36.0601 104.706 36.0432C104.703 36.0098 104.827 35.9946 104.924 36.0166C104.957 36.0241 104.985 36.0502 104.988 36.0745C104.992 36.1209 105.143 36.1137 105.234 36.0628C105.258 36.0491 105.307 36.038 105.342 36.0381C105.377 36.0382 105.437 36.0133 105.475 35.9827C105.512 35.9521 105.567 35.9303 105.597 35.934C105.626 35.9379 105.7 35.9058 105.76 35.8629C105.821 35.8199 105.877 35.7844 105.885 35.7839C105.929 35.7814 106.053 35.7019 106.051 35.6778C106.049 35.6623 106.077 35.6375 106.112 35.6227C106.233 35.5714 106.324 35.4688 106.317 35.3927C106.313 35.3523 106.323 35.3258 106.34 35.334C106.356 35.3421 106.364 35.3689 106.357 35.3936C106.331 35.488 106.379 35.43 106.418 35.3198C106.44 35.2563 106.486 35.1772 106.52 35.1441C106.59 35.0758 106.595 34.9976 106.53 35.0039C106.474 35.0092 106.47 34.9662 106.519 34.8721C106.556 34.8004 106.554 34.6733 106.51 34.3822C106.497 34.2994 106.503 34.2463 106.525 34.2364C106.552 34.2242 106.551 34.2114 106.518 34.1775C106.482 34.1404 106.484 34.1362 106.529 34.1486C106.558 34.1566 106.58 34.1502 106.579 34.1345C106.577 34.1188 106.563 34.1072 106.547 34.1087C106.531 34.1102 106.515 34.0783 106.511 34.0377C106.507 33.9971 106.516 33.9627 106.532 33.9612C106.547 33.9597 106.551 33.9359 106.54 33.9083C106.53 33.8806 106.539 33.8864 106.562 33.9211C106.608 33.9932 106.654 34.0007 106.648 33.9352C106.645 33.9109 106.663 33.8891 106.687 33.8868C106.742 33.8815 106.74 33.8672 106.673 33.7813C106.631 33.7289 106.625 33.7025 106.648 33.6746C106.683 33.631 106.684 33.5783 106.649 33.6054C106.635 33.6157 106.615 33.5973 106.603 33.5645C106.587 33.5195 106.593 33.5082 106.628 33.5181C106.661 33.5276 106.668 33.5185 106.652 33.486C106.64 33.461 106.628 33.4277 106.627 33.4118C106.625 33.3959 106.612 33.3924 106.597 33.404C106.582 33.4155 106.568 33.4114 106.567 33.3948C106.565 33.3782 106.588 33.3481 106.618 33.328C106.666 33.296 106.667 33.2816 106.63 33.2141C106.586 33.134 106.432 32.9247 106.4 32.9015C106.39 32.8943 106.322 32.82 106.249 32.7363C106.117 32.5859 105.906 32.4127 105.86 32.417C105.847 32.4183 105.795 32.3897 105.745 32.3536C105.695 32.3175 105.627 32.2894 105.595 32.2912C105.506 32.2962 105.342 32.2469 105.338 32.2138C105.336 32.1976 105.298 32.1862 105.254 32.1885C105.211 32.1908 105.168 32.1909 105.16 32.1887C105.087 32.1696 104.658 32.2224 104.579 32.2601ZM106.542 33.2355C106.532 33.2473 106.525 33.2708 106.527 33.2876C106.529 33.306 106.542 33.303 106.561 33.2798C106.578 33.2588 106.585 33.2354 106.576 33.2278C106.567 33.2202 106.551 33.2237 106.542 33.2355ZM106.433 34.7327C106.437 34.7669 106.445 34.7732 106.452 34.7488C106.458 34.7267 106.455 34.7014 106.444 34.6925C106.434 34.6836 106.428 34.7017 106.433 34.7327ZM106.645 34.8017C106.649 34.836 106.657 34.8423 106.664 34.8179C106.67 34.7958 106.667 34.7704 106.656 34.7616C106.646 34.7527 106.64 34.7708 106.645 34.8017Z" fill="white"/>
</svg>
