<svg width="50" height="50" viewBox="0 0 50 50" fill="none" xmlns="http://www.w3.org/2000/svg">
<g filter="url(#filter0_ii_8_15000)">
<g clip-path="url(#clip0_8_15000)">
<rect width="50" height="50" rx="25" fill="#FF8CB7"/>
<path d="M24.9987 45.4173C36.2745 45.4173 45.4154 36.2765 45.4154 25.0006C45.4154 13.7248 36.2745 4.58398 24.9987 4.58398C13.7229 4.58398 4.58203 13.7248 4.58203 25.0006C4.58203 36.2765 13.7229 45.4173 24.9987 45.4173Z" stroke="#FFF9E9" stroke-width="3.0625"/>
<path d="M28.0625 33.1673C28.0625 33.1673 21.9375 27.1526 21.9375 25.0007C21.9375 22.8485 28.0625 16.834 28.0625 16.834" stroke="#FFF9E9" stroke-width="3.0625" stroke-linecap="round" stroke-linejoin="round"/>
<path opacity="0.7" fill-rule="evenodd" clip-rule="evenodd" d="M13.2177 18.5073C13.2219 18.5017 13.3444 18.4533 13.49 18.3997C13.817 18.2793 13.7975 18.2879 13.8738 18.2305C13.9266 18.1907 13.9344 18.1899 13.9204 18.2255C13.9069 18.2599 13.9102 18.26 13.9376 18.2261C13.9562 18.2029 13.995 18.1808 14.0236 18.1768C14.0523 18.1729 14.0739 18.1564 14.0717 18.1403C14.0695 18.1241 14.0777 18.1117 14.09 18.1126C14.1023 18.1136 14.1492 18.0927 14.1942 18.0662C14.2393 18.0396 14.3112 18.0056 14.3541 17.9905C14.3969 17.9755 14.4375 17.9507 14.4441 17.9354C14.4507 17.9202 14.482 17.9041 14.5135 17.8998C14.5451 17.8954 14.5923 17.8653 14.6183 17.8329C14.6443 17.8005 14.7362 17.7249 14.8225 17.6649C14.9088 17.6049 14.9875 17.5366 14.9974 17.513C15.0074 17.4894 15.0285 17.476 15.0444 17.4831C15.0881 17.5028 15.1823 17.4226 15.1753 17.3717C15.1719 17.3471 15.1821 17.3328 15.1979 17.3399C15.2534 17.3649 15.3686 17.2762 15.3602 17.2151C15.3517 17.1533 15.3944 17.1263 15.4194 17.1776C15.4276 17.1943 15.4558 17.1809 15.4855 17.146C15.514 17.1125 15.5605 17.0664 15.5889 17.0434C15.6173 17.0205 15.6348 16.9867 15.6279 16.9685C15.6197 16.9472 15.6372 16.9391 15.6764 16.946C15.7187 16.9535 15.7358 16.9436 15.7318 16.9142C15.7285 16.8908 15.7475 16.8599 15.7739 16.8457C15.8809 16.788 15.9814 16.6922 15.976 16.653C15.9729 16.6301 16.0073 16.5929 16.0526 16.5703C16.1435 16.5249 16.2004 16.4615 16.1937 16.4131C16.1913 16.3958 16.1995 16.3803 16.2119 16.3786C16.2707 16.3705 16.8605 15.7199 17.0987 15.4004C17.1547 15.3252 17.214 15.2565 17.2304 15.2476C17.2468 15.2387 17.3113 15.1531 17.3738 15.0576C17.4363 14.962 17.4893 14.8941 17.4916 14.9066C17.494 14.9192 17.5239 14.8852 17.5582 14.8311C17.5925 14.777 17.6133 14.7523 17.6045 14.7762C17.5937 14.8055 17.601 14.8135 17.6267 14.8006C17.6478 14.7901 17.6625 14.7631 17.6595 14.7407C17.6564 14.7183 17.6819 14.6806 17.7161 14.6569C17.7504 14.6332 17.7742 14.6025 17.7691 14.5888C17.764 14.5751 17.7858 14.547 17.8176 14.5264C17.8495 14.5057 17.8742 14.4793 17.8726 14.4677C17.8688 14.4405 17.9736 14.3046 18.0382 14.2529C18.0657 14.2309 18.0895 14.1901 18.091 14.1623C18.0953 14.0822 18.1949 13.9571 18.2718 13.935C18.3105 13.924 18.3394 13.9018 18.336 13.8858C18.3283 13.8491 18.3828 13.7746 18.4212 13.7693C18.4372 13.7671 18.4553 13.7343 18.4615 13.6964C18.4676 13.6585 18.53 13.5511 18.6002 13.4577C18.6703 13.3644 18.7599 13.2324 18.7992 13.1644C18.8385 13.0964 18.9014 12.999 18.939 12.9479C18.9766 12.8968 19.0055 12.8423 19.0034 12.8266C19.0012 12.8109 19.0505 12.7216 19.1128 12.6282C19.1844 12.5208 19.2254 12.4238 19.224 12.3648C19.2229 12.3135 19.2446 12.2433 19.2722 12.2089C19.2999 12.1744 19.3197 12.1255 19.3162 12.1002C19.3127 12.0748 19.3389 12.0236 19.3743 11.9864C19.4097 11.9491 19.4359 11.8982 19.4324 11.8731C19.4274 11.8368 19.4187 11.8359 19.3893 11.8684C19.3578 11.9034 19.3559 11.8982 19.3761 11.8325C19.3891 11.7903 19.4155 11.7595 19.4348 11.7641C19.485 11.7761 19.501 11.6751 19.4555 11.6329C19.4112 11.5918 19.4243 11.4932 19.4713 11.5143C19.4887 11.5222 19.5012 11.5157 19.499 11.4999C19.4968 11.4842 19.4845 11.4671 19.4716 11.4619C19.4588 11.4568 19.4674 11.4549 19.4908 11.4578C19.5142 11.4607 19.5417 11.4446 19.5518 11.4221C19.5794 11.3605 19.5698 11.3362 19.5272 11.36C19.4712 11.3911 19.4658 11.2005 19.5215 11.1578C19.5775 11.115 19.5667 11.0399 19.4931 10.9594C19.4598 10.923 19.4522 10.9037 19.4754 10.9141C19.4993 10.9249 19.5238 10.9144 19.5355 10.8884C19.5605 10.8326 19.5562 10.7912 19.5279 10.8149C19.5159 10.8249 19.5065 10.7933 19.5068 10.7448C19.5072 10.6895 19.4946 10.6582 19.4732 10.6612C19.4519 10.6641 19.443 10.6422 19.4495 10.6032C19.4553 10.5687 19.4422 10.5239 19.4205 10.5037C19.3988 10.4835 19.3875 10.4521 19.3954 10.4338C19.4034 10.4155 19.389 10.4034 19.3635 10.4069C19.3379 10.4105 19.3169 10.3965 19.3167 10.376C19.3157 10.2791 19.2973 10.2602 19.2303 10.2875C19.1929 10.3027 19.1532 10.3041 19.1422 10.2906C19.1138 10.2558 19.1388 10.1656 19.1727 10.1808C19.2233 10.2036 19.1949 10.1407 19.1226 10.0701C19.042 9.99122 18.9888 9.98435 19.0235 10.0573C19.042 10.0962 19.0396 10.0986 19.0122 10.069C18.9931 10.0485 18.9811 10.0156 18.9856 9.99598C18.9901 9.97636 18.9639 9.93963 18.9273 9.91435C18.8908 9.88906 18.8584 9.84993 18.8553 9.82737C18.8522 9.80481 18.8014 9.77335 18.7425 9.75741C18.6836 9.7415 18.6372 9.71826 18.6395 9.7058C18.6418 9.69334 18.637 9.68298 18.6288 9.68276C18.5767 9.68142 18.4742 9.62434 18.4839 9.60206C18.4974 9.57114 18.4246 9.54874 18.3459 9.55958C18.3164 9.56365 18.2803 9.54148 18.2656 9.51035C18.251 9.4792 18.2293 9.46181 18.2176 9.47169C18.2058 9.48155 18.1595 9.4679 18.1148 9.44132C18.0702 9.41474 18.0151 9.40327 17.9925 9.41587C17.9667 9.43027 17.9416 9.41769 17.9247 9.38191C17.9082 9.34689 17.8826 9.33367 17.8579 9.34743C17.8359 9.35968 17.8 9.35904 17.7781 9.34598C17.7302 9.31744 17.4588 9.3175 17.1855 9.34608C17.0529 9.35997 16.9756 9.35444 16.954 9.32952C16.9274 9.29863 16.9156 9.30309 16.8867 9.35499C16.8674 9.38962 16.8495 9.40217 16.8469 9.38293C16.8442 9.3637 16.8282 9.34986 16.8114 9.35218C16.7945 9.35451 16.7921 9.3704 16.806 9.38749C16.8222 9.40729 16.8175 9.4123 16.7931 9.40131C16.7716 9.39161 16.7333 9.40999 16.7058 9.44327C16.6775 9.47749 16.6549 9.48816 16.6522 9.46857C16.6496 9.44992 16.6605 9.43285 16.6764 9.43065C16.6923 9.42846 16.7036 9.41344 16.7013 9.39729C16.6991 9.38113 16.6704 9.37162 16.6377 9.37614C16.6049 9.38066 16.5879 9.39646 16.6 9.41126C16.6375 9.4573 16.5985 9.50844 16.5494 9.47747C16.5172 9.45718 16.4906 9.46128 16.4473 9.49307C16.4152 9.51675 16.395 9.52189 16.4026 9.50448C16.4293 9.44309 16.3304 9.4532 16.2881 9.51613C16.2385 9.59011 16.1938 9.60555 16.2079 9.54392C16.2159 9.50897 16.1911 9.5102 16.0678 9.55091C15.9854 9.57814 15.9064 9.6127 15.8923 9.62774C15.8781 9.6428 15.8045 9.67139 15.7285 9.69132C15.6526 9.71128 15.5772 9.74168 15.5608 9.75892C15.5289 9.79269 15.3292 9.89916 15.2818 9.90769C15.266 9.91053 15.2411 9.92267 15.2266 9.93465C15.212 9.94662 15.1581 9.9718 15.1069 9.9906C15.0557 10.0094 15.0092 10.0445 15.0037 10.0687C14.9981 10.0929 14.9785 10.1123 14.96 10.1118C14.904 10.1103 14.7033 10.1875 14.6693 10.2235C14.6518 10.2421 14.646 10.2679 14.6566 10.2809C14.6672 10.2938 14.6549 10.2995 14.6293 10.2933C14.6036 10.2872 14.5647 10.3064 14.5427 10.3358C14.5207 10.3653 14.49 10.3837 14.4744 10.3767C14.4371 10.3599 14.332 10.4381 14.2951 10.5102C14.279 10.5417 14.2429 10.5688 14.2149 10.5706C14.187 10.5724 14.1298 10.6041 14.088 10.6412C14.0461 10.6783 13.9855 10.7165 13.9534 10.7261C13.9213 10.7357 13.8892 10.757 13.882 10.7735C13.8655 10.8115 13.6173 10.9943 13.6141 10.9708C13.6127 10.9612 13.5945 10.9724 13.5735 10.9956C13.5526 11.0188 13.5431 11.0472 13.5524 11.0586C13.5618 11.0701 13.5524 11.0983 13.5316 11.1214C13.5108 11.1445 13.5025 11.1741 13.5132 11.1872C13.5239 11.2003 13.5203 11.2127 13.5051 11.2148C13.49 11.2169 13.4742 11.2513 13.4699 11.2912C13.4657 11.3311 13.443 11.3745 13.4195 11.3876C13.3949 11.4013 13.3826 11.398 13.3904 11.38C13.3979 11.3626 13.3739 11.3516 13.3369 11.3554C13.3 11.3592 13.2853 11.3533 13.3042 11.3423C13.3232 11.3313 13.3489 11.2942 13.3614 11.2598C13.3837 11.1985 13.3827 11.1985 13.3096 11.2614C13.0683 11.4693 13.0213 11.5386 13.0872 11.5892C13.1405 11.6302 13.1145 11.6548 13.037 11.6366C12.9922 11.626 12.9391 11.6265 12.9191 11.6377C12.8692 11.6654 12.8849 11.7493 12.9386 11.7419C12.9625 11.7386 12.9836 11.7473 12.9855 11.7612C12.9901 11.7948 12.8321 11.7861 12.8022 11.7511C12.7756 11.72 12.6404 11.8258 12.6468 11.8726C12.652 11.9102 12.7303 11.8989 12.7481 11.858C12.7643 11.8206 12.815 11.8085 12.8195 11.8409C12.8212 11.8532 12.7945 11.904 12.7601 11.9539C12.6973 12.045 12.6168 12.0829 12.6088 12.025C12.6065 12.0079 12.6177 11.9999 12.6338 12.0071C12.6783 12.0271 12.6891 11.9752 12.6465 11.9462C12.5969 11.9124 12.5468 11.9223 12.5088 11.9733C12.4839 12.0066 12.4879 12.0136 12.5288 12.0079C12.5686 12.0024 12.5775 12.0162 12.5688 12.0697C12.5626 12.1076 12.5458 12.1488 12.5314 12.1613C12.517 12.1738 12.5172 12.1988 12.5319 12.2168C12.5512 12.2405 12.5407 12.2465 12.4944 12.2383C12.4551 12.2314 12.4319 12.2397 12.4347 12.2598C12.4377 12.2816 12.422 12.2857 12.388 12.2722C12.2973 12.236 12.2384 12.2854 12.2409 12.3955C12.2426 12.4709 12.2526 12.4928 12.2789 12.4782C12.2985 12.4673 12.3163 12.4712 12.3185 12.4868C12.3207 12.5024 12.3412 12.5127 12.3641 12.5095C12.3871 12.5063 12.4175 12.519 12.4317 12.5376C12.446 12.5562 12.4456 12.5631 12.4309 12.5529C12.4163 12.5427 12.3888 12.5516 12.3699 12.5725C12.3435 12.6018 12.334 12.599 12.3287 12.5605C12.3248 12.5328 12.3064 12.5186 12.2874 12.5288C12.2685 12.539 12.258 12.5609 12.264 12.5776C12.2795 12.6203 12.1665 12.6091 12.105 12.5618C12.0345 12.5076 12.0073 12.5164 12.0728 12.5721C12.1019 12.5969 12.128 12.6304 12.1307 12.6464C12.1335 12.6625 12.1636 12.6762 12.1978 12.6769C12.2478 12.6779 12.2543 12.6872 12.2314 12.7246C12.1998 12.7764 12.112 12.8006 12.1332 12.7517C12.1535 12.7052 11.995 12.6964 11.9609 12.7421C11.9387 12.7719 11.9418 12.7856 11.9741 12.8001C12.007 12.815 12.011 12.834 11.9921 12.8862C11.9787 12.9231 11.9551 12.955 11.9398 12.9571C11.8993 12.9627 11.8984 12.9106 11.9386 12.8872C11.9643 12.8723 11.9609 12.8611 11.925 12.8421C11.8604 12.8081 11.8526 12.8107 11.7916 12.8866C11.7568 12.93 11.7471 12.9732 11.7633 13.0127C11.7824 13.0594 11.7928 13.0633 11.8097 13.03C11.827 12.9958 11.8302 12.9964 11.8256 13.0327C11.8216 13.064 11.7852 13.082 11.7099 13.0897C11.6406 13.0969 11.6157 13.1081 11.6425 13.1201C11.676 13.1352 11.673 13.1541 11.6282 13.2098C11.5971 13.2486 11.5576 13.274 11.5405 13.2663C11.4927 13.2448 11.5064 13.2705 11.5756 13.332C11.6101 13.3627 11.6531 13.3857 11.6711 13.3832C11.6892 13.3807 11.7058 13.3924 11.7081 13.4091C11.711 13.4301 11.6936 13.4325 11.6521 13.4168C11.561 13.3825 11.5504 13.392 11.5771 13.4844C11.5915 13.5344 11.5891 13.5637 11.5712 13.5556C11.5534 13.5476 11.551 13.5722 11.5654 13.6151C11.5828 13.6672 11.5785 13.6856 11.5503 13.6788C11.5031 13.6676 11.3814 13.821 11.3897 13.8813C11.3929 13.9044 11.379 13.9238 11.3588 13.9243C11.3385 13.9248 11.3187 13.9391 11.3147 13.9562C11.3107 13.9732 11.2715 14.0086 11.2276 14.0349C11.1837 14.0613 11.1579 14.0951 11.1702 14.1102C11.2102 14.1594 11.1697 14.2033 11.1063 14.1794C11.0714 14.1663 11.0427 14.1692 11.0351 14.1866C11.0282 14.2027 11.0391 14.219 11.0594 14.2229C11.0825 14.2273 11.0711 14.2593 11.0293 14.3079C10.9868 14.3572 10.9711 14.4021 10.9865 14.4304C11.0079 14.4698 11.0047 14.4707 10.9591 14.4382C10.9234 14.4128 10.9165 14.3937 10.9368 14.3765C10.9558 14.3604 10.947 14.3471 10.9116 14.3386C10.8806 14.3312 10.8444 14.3439 10.8279 14.3679C10.8052 14.4009 10.8067 14.4041 10.8347 14.3823C10.8603 14.3625 10.8696 14.3707 10.8671 14.4109C10.865 14.4445 10.843 14.4666 10.8128 14.4655C10.7579 14.4636 10.75 14.5126 10.8015 14.5358C10.8386 14.5525 10.8171 14.6228 10.7421 14.7297C10.7138 14.77 10.6929 14.8189 10.6956 14.8384C10.6983 14.8579 10.6913 14.8668 10.6801 14.8582C10.6599 14.8427 10.5887 14.919 10.5932 14.9514C10.5945 14.9606 10.6151 14.9655 10.639 14.9622C10.6628 14.9589 10.6844 14.9708 10.6869 14.9887C10.6893 15.0066 10.6712 15.0164 10.6466 15.0106C10.6122 15.0024 10.6059 15.023 10.6192 15.0989C10.6288 15.1533 10.6196 15.2344 10.5988 15.2789C10.5781 15.3235 10.5639 15.3807 10.5674 15.4059C10.5709 15.4313 10.5583 15.4606 10.5395 15.4711C10.4896 15.499 10.5067 15.6688 10.5587 15.6617C10.5835 15.6582 10.5958 15.6744 10.5894 15.7023C10.5836 15.7278 10.5611 15.7511 10.5395 15.7541C10.4908 15.7608 10.4489 15.8694 10.4696 15.9355C10.478 15.9626 10.4689 15.9889 10.4493 15.9941C10.4298 15.9992 10.401 16.0068 10.3853 16.0111C10.3697 16.0153 10.3597 16.0395 10.3632 16.0649C10.3714 16.124 10.461 16.1959 10.4693 16.1499C10.4729 16.1303 10.5078 16.1369 10.5551 16.1662C10.6179 16.2051 10.6284 16.2243 10.6046 16.2568C10.5806 16.2895 10.5691 16.2885 10.5492 16.2518C10.5308 16.218 10.504 16.2133 10.4499 16.2343C10.3307 16.2804 10.2986 16.345 10.3195 16.4965C10.3362 16.6179 10.3314 16.6348 10.2795 16.6347C10.2215 16.6345 10.2215 16.6351 10.2824 16.6713C10.3165 16.6916 10.3375 16.7174 10.3291 16.7287C10.3207 16.7399 10.3325 16.7822 10.3553 16.8226C10.3781 16.8631 10.4024 16.9547 10.4094 17.0263C10.4164 17.0985 10.4382 17.1638 10.4584 17.1729C10.4794 17.1823 10.4582 17.1999 10.4083 17.2145C10.3607 17.2285 10.3263 17.2296 10.3317 17.2171C10.3372 17.2046 10.3211 17.1895 10.296 17.1835C10.2632 17.1756 10.2533 17.1929 10.2605 17.2451C10.266 17.285 10.2857 17.3155 10.3042 17.313C10.3228 17.3104 10.3307 17.3181 10.3218 17.33C10.3129 17.3419 10.3422 17.3777 10.3868 17.4094C10.4315 17.4411 10.4705 17.4849 10.4735 17.5067C10.4766 17.5285 10.4968 17.56 10.5186 17.5767C10.5494 17.6004 10.5505 17.6082 10.5235 17.612C10.5044 17.6146 10.4913 17.6352 10.4944 17.6577C10.5007 17.7036 10.5842 17.7325 10.6211 17.7016C10.6343 17.6905 10.6471 17.6954 10.6494 17.7125C10.6518 17.7296 10.7106 17.7873 10.78 17.8407C10.9286 17.955 10.9904 18.0446 10.9066 18.0241C10.8168 18.0023 10.8012 18.0059 10.7917 18.0511C10.7854 18.0812 10.7963 18.0869 10.8274 18.0696C10.8855 18.0373 11.081 18.1662 11.0986 18.2484C11.1094 18.299 11.0994 18.3078 11.0385 18.301C10.9608 18.2922 10.9486 18.338 11.0093 18.4107C11.0467 18.4556 11.1662 18.4644 11.1603 18.4219C11.1581 18.4058 11.1367 18.3954 11.1128 18.3986C11.089 18.4019 11.0676 18.3914 11.0654 18.3753C11.0631 18.3591 11.1004 18.3405 11.1482 18.3339C11.2145 18.3248 11.2369 18.3353 11.2428 18.3782C11.2475 18.4125 11.2866 18.4451 11.3428 18.4615C11.3935 18.4764 11.4365 18.4993 11.4383 18.5125C11.4401 18.5256 11.4535 18.5265 11.4681 18.5143C11.4826 18.5021 11.4961 18.5039 11.4981 18.5182C11.5029 18.553 11.8057 18.6477 11.8258 18.6207C11.8345 18.6091 11.8643 18.6081 11.892 18.6185C11.9991 18.6588 12.1699 18.6518 12.6806 18.5858C12.9718 18.5483 13.2135 18.5129 13.2177 18.5073ZM10.552 16.4706C10.5682 16.4333 10.4892 16.4079 10.4373 16.4338C10.4144 16.4452 10.426 16.4605 10.47 16.4771C10.5148 16.494 10.5428 16.4917 10.552 16.4706ZM10.3906 15.5535C10.3975 15.5234 10.3844 15.5174 10.3463 15.5333C10.271 15.5649 10.2558 15.6136 10.3243 15.6042C10.3554 15.5999 10.3852 15.5771 10.3906 15.5535ZM10.356 15.4021C10.3741 15.3744 10.407 15.3561 10.4291 15.3614C10.4511 15.3666 10.4738 15.3504 10.4796 15.3254C10.4855 15.2992 10.4683 15.2746 10.4389 15.2676C10.4107 15.2609 10.3849 15.2716 10.3813 15.2916C10.3777 15.3116 10.3511 15.3311 10.3223 15.3351C10.2789 15.3411 10.2421 15.4002 10.2493 15.4524C10.2534 15.4821 10.326 15.4479 10.356 15.4021ZM10.4858 15.2023C10.4638 15.1967 10.4389 15.2012 10.4307 15.2123C10.4224 15.2234 10.4404 15.2279 10.4708 15.2225C10.5043 15.2164 10.5102 15.2085 10.4858 15.2023ZM10.9765 14.3113C10.973 14.284 10.956 14.2552 10.9387 14.2475C10.8988 14.2295 10.9042 14.2684 10.9488 14.3209C10.9782 14.3555 10.982 14.3542 10.9765 14.3113ZM11.1705 13.91C11.1804 13.866 11.1767 13.863 11.152 13.8958C11.135 13.9185 11.1294 13.9434 11.1395 13.9512C11.1497 13.959 11.1636 13.9405 11.1705 13.91ZM11.5105 13.7945C11.5181 13.777 11.5113 13.7644 11.4954 13.7666C11.4795 13.7688 11.4602 13.7849 11.4526 13.8025C11.445 13.82 11.4518 13.8325 11.4677 13.8303C11.4836 13.8281 11.5029 13.812 11.5105 13.7945ZM11.2227 13.7569C11.2166 13.7228 11.2088 13.7168 11.2028 13.7415C11.1973 13.7639 11.2019 13.7891 11.2128 13.7975C11.2238 13.8059 11.2282 13.7876 11.2227 13.7569ZM11.4347 13.5655C11.4324 13.5493 11.4111 13.5388 11.3872 13.5421C11.3633 13.5454 11.3456 13.5613 11.3478 13.5775C11.35 13.5936 11.3714 13.6041 11.3953 13.6009C11.4192 13.5976 11.4369 13.5816 11.4347 13.5655ZM11.5137 13.4349C11.5241 13.3447 11.4764 13.3406 11.4504 13.4296C11.4324 13.4909 11.4358 13.5055 11.4672 13.5011C11.4889 13.4982 11.5098 13.4683 11.5137 13.4349ZM12.1629 12.9543C12.171 12.9356 12.1706 12.9149 12.162 12.9082C12.1533 12.9016 12.1413 12.9176 12.1353 12.9438C12.1229 12.9983 12.1408 13.0051 12.1629 12.9543ZM12.1871 12.506C12.1942 12.4897 12.1856 12.4699 12.168 12.462C12.1505 12.4541 12.1389 12.4682 12.1424 12.4934C12.1495 12.545 12.1679 12.5502 12.1871 12.506ZM13.2263 11.5288C13.2707 11.5132 13.2705 11.5077 13.2245 11.4722C13.1687 11.4294 13.1377 11.4469 13.1618 11.5076C13.1702 11.5288 13.1992 11.5383 13.2263 11.5288ZM13.8485 11.0389C13.8568 11.018 13.8544 11.0119 13.8431 11.0256C13.8319 11.0392 13.8023 11.0298 13.7775 11.0047C13.7368 10.9635 13.7329 10.9638 13.7381 11.0074C13.7451 11.0674 13.8279 11.091 13.8485 11.0389ZM14.3826 10.6402C14.3932 10.6158 14.3869 10.6133 14.3636 10.6328C14.3376 10.6546 14.3318 10.6477 14.3413 10.6064C14.3521 10.5592 14.348 10.5572 14.315 10.5938C14.2936 10.6175 14.2777 10.6486 14.2796 10.6627C14.2848 10.7005 14.3639 10.6832 14.3826 10.6402ZM22.9285 10.1016C22.9814 10.0735 23.0571 10.045 23.0968 10.0384C23.1701 10.0261 23.3658 9.93311 23.4502 9.87051C23.4757 9.85151 23.5639 9.79434 23.6462 9.74349C23.8936 9.5904 24.0907 9.40052 24.2185 9.192C24.285 9.08346 24.3376 8.98136 24.3354 8.96509C24.3331 8.94881 24.3448 8.94158 24.3613 8.949C24.3778 8.95643 24.3981 8.9073 24.4064 8.8398C24.4147 8.77233 24.4323 8.7156 24.4457 8.71376C24.459 8.71192 24.4723 8.66957 24.4751 8.61967C24.478 8.56977 24.4971 8.53008 24.5176 8.53151C24.5381 8.53293 24.5552 8.50226 24.5556 8.46332C24.5561 8.41812 24.546 8.40122 24.5277 8.41655C24.512 8.42977 24.4964 8.42103 24.4931 8.39718C24.482 8.3167 24.5083 8.25986 24.5518 8.27023C24.5806 8.27712 24.5922 8.25999 24.5865 8.21867C24.5818 8.18463 24.5649 8.15858 24.549 8.16078C24.5331 8.16297 24.5164 8.13875 24.5121 8.10694C24.5064 8.06576 24.5183 8.05251 24.5534 8.06089C24.5938 8.07055 24.596 8.06333 24.5656 8.02087C24.5452 7.99238 24.5275 7.92544 24.5263 7.87209C24.5247 7.80125 24.5126 7.77671 24.4813 7.78103C24.4573 7.78434 24.4348 7.76027 24.4301 7.72625C24.4255 7.69289 24.4039 7.64084 24.3822 7.61059C24.3605 7.58033 24.3325 7.50763 24.3199 7.44906C24.3073 7.39045 24.2623 7.2964 24.2197 7.24005C24.1772 7.18366 24.1398 7.11878 24.1366 7.09584C24.1334 7.0729 24.113 7.04586 24.0911 7.0357C24.0693 7.02554 24.0185 6.96979 23.9782 6.91181C23.9379 6.85382 23.8877 6.80208 23.8667 6.79677C23.8457 6.7915 23.8268 6.77471 23.8247 6.75947C23.815 6.68903 23.3714 6.40281 23.2381 6.38102C23.1985 6.37454 23.1338 6.34662 23.0943 6.31899C23.0287 6.27303 23.0192 6.27326 22.983 6.32184C22.9552 6.35898 22.9147 6.3734 22.8479 6.36983C22.73 6.36349 22.712 6.3526 22.757 6.31494C22.786 6.29058 22.7847 6.28208 22.7493 6.26553C22.6922 6.23887 22.4584 6.26479 22.4629 6.29731C22.4663 6.32213 22.5313 6.32621 22.6042 6.30619C22.6238 6.3008 22.6417 6.31021 22.644 6.32707C22.6486 6.36029 22.5252 6.38063 22.4276 6.36272C22.3943 6.35662 22.3644 6.33178 22.361 6.30755C22.3547 6.26141 22.2041 6.27489 22.1159 6.32951C22.0921 6.34419 22.0438 6.35734 22.0085 6.35871C21.9732 6.36011 21.9146 6.3875 21.8782 6.4196C21.8419 6.45172 21.788 6.47589 21.7584 6.47332C21.7289 6.47072 21.6567 6.50581 21.5981 6.55125C21.5394 6.59672 21.4849 6.63456 21.4769 6.63533C21.4331 6.63969 21.3122 6.72428 21.3155 6.74828C21.3176 6.76373 21.2913 6.78969 21.257 6.8059C21.1381 6.86219 21.0508 6.96852 21.0613 7.04429C21.0668 7.08453 21.0578 7.11136 21.0413 7.10392C21.0247 7.09647 21.0159 7.06995 21.0216 7.04501C21.0433 6.94967 20.9978 7.00962 20.9636 7.1213C20.9439 7.18574 20.9013 7.26667 20.869 7.30114C20.8024 7.37223 20.8003 7.4506 20.8653 7.44164C20.921 7.43396 20.9263 7.47678 20.8815 7.57287C20.8474 7.64599 20.855 7.77295 20.9109 8.06194C20.9268 8.14415 20.9234 8.19746 20.9017 8.20829C20.875 8.22162 20.8771 8.23429 20.9115 8.26684C20.9489 8.30232 20.9475 8.30659 20.902 8.29613C20.8726 8.28938 20.8504 8.29666 20.8526 8.31228C20.8547 8.32794 20.8695 8.33895 20.8855 8.33675C20.9014 8.33456 20.919 8.3658 20.9245 8.40619C20.9301 8.44657 20.922 8.48136 20.9066 8.48348C20.8912 8.48561 20.8883 8.5096 20.9001 8.53676C20.912 8.56391 20.9022 8.55854 20.8783 8.5248C20.8287 8.45469 20.783 8.44912 20.7919 8.51426C20.7953 8.53849 20.7785 8.56102 20.7546 8.56431C20.6995 8.5719 20.7021 8.58613 20.7734 8.66907C20.817 8.71974 20.8243 8.74583 20.8027 8.77469C20.7691 8.81973 20.7705 8.87237 20.8045 8.84385C20.8174 8.83306 20.8388 8.85059 20.852 8.8828C20.8702 8.92713 20.8646 8.93864 20.8291 8.93019C20.7954 8.92214 20.789 8.9315 20.8063 8.96332C20.8196 8.98774 20.8323 9.02059 20.8344 9.0364C20.8366 9.05217 20.8503 9.05513 20.8648 9.04295C20.8794 9.03077 20.8932 9.03434 20.8954 9.05088C20.8977 9.06742 20.8759 9.09841 20.8468 9.11978C20.8007 9.15373 20.7998 9.16811 20.8395 9.23407C20.8866 9.31222 21.0492 9.51499 21.0822 9.53674C21.0926 9.54355 21.1639 9.61497 21.2408 9.69548C21.3789 9.84023 21.5967 10.0045 21.6421 9.99828C21.655 9.99649 21.7079 10.0228 21.7597 10.0568C21.8116 10.0908 21.8802 10.116 21.9122 10.1129C22.0009 10.1042 22.1666 10.1466 22.1724 10.1795C22.1752 10.1956 22.2133 10.2054 22.257 10.2013C22.3007 10.1971 22.3432 10.1953 22.3516 10.1971C22.4246 10.2132 22.8515 10.1425 22.9285 10.1016ZM20.9271 9.20895C20.9362 9.19673 20.9418 9.17307 20.9395 9.15635C20.9369 9.13797 20.9237 9.14156 20.9058 9.16548C20.8896 9.1872 20.884 9.21087 20.8934 9.21808C20.9028 9.22531 20.9179 9.22119 20.9271 9.20895ZM20.9735 7.70856C20.9674 7.67454 20.9596 7.66852 20.9536 7.69321C20.9481 7.71557 20.9527 7.74077 20.9636 7.7492C20.9746 7.75762 20.979 7.73935 20.9735 7.70856ZM20.7587 7.6484C20.7526 7.61437 20.7448 7.60836 20.7388 7.63304C20.7333 7.6554 20.7379 7.6806 20.7488 7.68903C20.7598 7.69745 20.7642 7.67918 20.7587 7.6484Z" fill="white"/>
<path opacity="0.7" fill-rule="evenodd" clip-rule="evenodd" d="M37.6325 30.2672C37.6282 30.2726 37.5037 30.3159 37.356 30.3633C37.0243 30.47 37.0441 30.4622 36.9655 30.5164C36.9111 30.5539 36.9033 30.5544 36.9187 30.5194C36.9336 30.4856 36.9303 30.4854 36.9016 30.5181C36.8819 30.5405 36.8423 30.561 36.8135 30.5637C36.7847 30.5665 36.7624 30.582 36.764 30.5983C36.7655 30.6145 36.7568 30.6266 36.7445 30.6251C36.7323 30.6236 36.6845 30.6426 36.6384 30.6672C36.5924 30.6918 36.5191 30.7228 36.4756 30.7361C36.4321 30.7494 36.3906 30.7724 36.3834 30.7874C36.3761 30.8024 36.3442 30.8171 36.3125 30.8201C36.2808 30.8231 36.2324 30.8512 36.205 30.8826C36.1777 30.9139 36.0827 30.9855 35.994 31.0419C35.9052 31.0982 35.8237 31.1632 35.8128 31.1863C35.8019 31.2095 35.7803 31.222 35.7647 31.2142C35.7219 31.1927 35.6244 31.269 35.6292 31.3201C35.6316 31.3448 35.6208 31.3587 35.6053 31.3509C35.551 31.3237 35.4321 31.4074 35.4379 31.4688C35.4439 31.5309 35.4001 31.5561 35.3773 31.5039C35.3698 31.4868 35.341 31.499 35.3099 31.5326C35.28 31.5649 35.2316 31.6091 35.2023 31.6308C35.1729 31.6526 35.154 31.6855 35.1602 31.7041C35.1675 31.7257 35.1497 31.733 35.1108 31.7245C35.0689 31.7152 35.0513 31.7244 35.0542 31.7539C35.0564 31.7775 35.0362 31.8075 35.0092 31.8206C34.8999 31.8738 34.7955 31.9653 34.7992 32.0047C34.8014 32.0277 34.7654 32.0634 34.7193 32.0841C34.6266 32.1257 34.5671 32.1866 34.5717 32.2353C34.5734 32.2527 34.5645 32.2679 34.5521 32.2691C34.493 32.2747 33.8765 32.9001 33.6252 33.2093C33.5661 33.2821 33.504 33.3483 33.4873 33.3565C33.4705 33.3648 33.4024 33.4475 33.336 33.5404C33.2696 33.6333 33.2138 33.6989 33.212 33.6863C33.2102 33.6736 33.1789 33.7063 33.1423 33.759C33.1058 33.8116 33.084 33.8354 33.0938 33.8118C33.1058 33.7831 33.0989 33.7748 33.0726 33.7866C33.0511 33.7962 33.0352 33.8225 33.0374 33.845C33.0395 33.8676 33.0125 33.9042 32.9773 33.9264C32.942 33.9487 32.9169 33.9783 32.9215 33.9922C32.926 34.0062 32.9031 34.0333 32.8704 34.0526C32.8377 34.0719 32.8119 34.0972 32.813 34.1089C32.8157 34.1362 32.7053 34.2677 32.6386 34.3166C32.6102 34.3375 32.5848 34.3772 32.5821 34.405C32.5744 34.4848 32.4697 34.6056 32.3919 34.6244C32.3528 34.6339 32.323 34.6548 32.3257 34.6709C32.3319 34.7079 32.2744 34.7801 32.2357 34.7838C32.2197 34.7853 32.2002 34.8174 32.1925 34.8549C32.1848 34.8925 32.1179 34.9972 32.0439 35.0876C31.9699 35.1779 31.8749 35.3061 31.8328 35.3724C31.7907 35.4387 31.7238 35.5334 31.6841 35.5829C31.6444 35.6323 31.6132 35.6856 31.6147 35.7014C31.6162 35.7171 31.5633 35.8043 31.4971 35.8951C31.4211 35.9994 31.3761 36.0945 31.375 36.1535C31.374 36.2048 31.3494 36.274 31.3203 36.3073C31.2912 36.3406 31.2694 36.3887 31.2718 36.4141C31.2742 36.4395 31.246 36.4896 31.209 36.5254C31.1721 36.5611 31.1438 36.6109 31.1462 36.6361C31.1497 36.6726 31.1584 36.6739 31.1891 36.6426C31.2221 36.6089 31.2238 36.6142 31.2008 36.679C31.1861 36.7207 31.1584 36.7503 31.1393 36.7449C31.0896 36.7308 31.0695 36.8311 31.1131 36.8751C31.1557 36.9181 31.1385 37.016 31.0924 36.9929C31.0754 36.9844 31.0626 36.9903 31.0641 37.0062C31.0657 37.022 31.0773 37.0396 31.0899 37.0453C31.1025 37.0509 31.0938 37.0524 31.0705 37.0486C31.0472 37.0448 31.0191 37.0597 31.0081 37.0818C30.978 37.1421 30.9866 37.1668 31.0301 37.1448C31.0873 37.116 31.0848 37.3068 31.0273 37.347C30.9696 37.3875 30.9772 37.463 31.0474 37.5464C31.0792 37.5842 31.086 37.6038 31.0632 37.5924C31.0398 37.5807 31.0148 37.5902 31.0021 37.6157C30.9748 37.6703 30.9774 37.7119 31.0067 37.6894C31.019 37.6799 31.0271 37.7119 31.0248 37.7604C31.0221 37.8155 31.0334 37.8473 31.0549 37.8453C31.0763 37.8432 31.0843 37.8655 31.0761 37.9042C31.0689 37.9385 31.0801 37.9837 31.1009 38.0048C31.1218 38.0259 31.1318 38.0578 31.1231 38.0757C31.1144 38.0936 31.1282 38.1063 31.1539 38.1039C31.1795 38.1014 31.2 38.1162 31.1993 38.1368C31.1963 38.2336 31.2139 38.2532 31.2819 38.2288C31.32 38.2151 31.3597 38.2154 31.3701 38.2293C31.3971 38.2653 31.3683 38.3544 31.3351 38.3378C31.2855 38.3129 31.3112 38.3769 31.3804 38.4505C31.4577 38.5326 31.5106 38.5417 31.479 38.4674C31.4621 38.4278 31.4646 38.4254 31.4908 38.4562C31.509 38.4775 31.5196 38.5109 31.5143 38.5302C31.509 38.5497 31.5336 38.5875 31.5691 38.6142C31.6045 38.641 31.6352 38.6815 31.6374 38.7042C31.6396 38.7268 31.689 38.7604 31.7472 38.7788C31.8054 38.7971 31.8507 38.8223 31.8479 38.8346C31.8452 38.847 31.8495 38.8575 31.8576 38.8581C31.9097 38.8616 32.0097 38.9229 31.999 38.9448C31.9843 38.9751 32.0561 39.0005 32.1352 38.993C32.1648 38.9901 32.2 39.0138 32.2133 39.0455C32.2267 39.0773 32.2476 39.0955 32.2597 39.0862C32.2719 39.0768 32.3176 39.0924 32.3611 39.1208C32.4046 39.1492 32.4592 39.163 32.4823 39.1513C32.5087 39.138 32.5333 39.1516 32.5486 39.1881C32.5636 39.2238 32.5887 39.238 32.6139 39.2253C32.6364 39.214 32.6723 39.2161 32.6936 39.2301C32.7402 39.2606 33.0114 39.2719 33.2857 39.2548C33.4188 39.2464 33.4958 39.2552 33.5162 39.281C33.5416 39.3129 33.5535 39.309 33.5846 39.2583C33.6053 39.2245 33.6237 39.2127 33.6255 39.2321C33.6274 39.2514 33.6428 39.2659 33.6597 39.2643C33.6766 39.2627 33.6797 39.2469 33.6665 39.2292C33.6512 39.2088 33.6561 39.204 33.6801 39.216C33.7011 39.2265 33.7401 39.2098 33.769 39.1777C33.7987 39.1447 33.8218 39.135 33.8237 39.1546C33.8254 39.1734 33.8138 39.19 33.7978 39.1915C33.7818 39.193 33.77 39.2076 33.7715 39.2238C33.7731 39.24 33.8013 39.2507 33.8343 39.2476C33.8672 39.2445 33.8848 39.2294 33.8734 39.2141C33.8378 39.1665 33.879 39.117 33.9267 39.15C33.958 39.1717 33.9848 39.1687 34.0293 39.1387C34.0624 39.1164 34.0828 39.1121 34.0745 39.1292C34.0453 39.1894 34.1445 39.1834 34.1893 39.1223C34.2421 39.0505 34.2873 39.0369 34.2707 39.0979C34.2612 39.1325 34.286 39.1323 34.4109 39.0968C34.4944 39.073 34.5747 39.0418 34.5895 39.0273C34.6043 39.0129 34.6791 38.9874 34.7558 38.9707C34.8324 38.9539 34.9091 38.9267 34.9261 38.9101C34.9595 38.8777 35.1635 38.7797 35.2111 38.7731C35.227 38.771 35.2524 38.7599 35.2675 38.7485C35.2825 38.7371 35.3374 38.7142 35.3894 38.6976C35.4413 38.681 35.4892 38.6478 35.4957 38.6238C35.5023 38.5999 35.5227 38.5814 35.5412 38.5826C35.5971 38.5864 35.8008 38.5178 35.8363 38.4831C35.8546 38.4653 35.8614 38.4397 35.8514 38.4263C35.8414 38.413 35.8539 38.4079 35.8792 38.4151C35.9046 38.4222 35.9443 38.4048 35.9675 38.3762C35.9907 38.3477 36.0222 38.3306 36.0374 38.3382C36.074 38.3566 36.1822 38.2829 36.2222 38.2124C36.2396 38.1816 36.2768 38.1559 36.3048 38.1553C36.3328 38.1548 36.3912 38.1254 36.4346 38.0901C36.478 38.0548 36.5401 38.0192 36.5725 38.0109C36.605 38.0027 36.638 37.9827 36.6459 37.9665C36.664 37.9292 36.9196 37.757 36.9218 37.7806C36.9228 37.7902 36.9414 37.7798 36.9633 37.7575C36.9853 37.7351 36.9959 37.7072 36.9871 37.6954C36.9782 37.6836 36.9888 37.6558 37.0105 37.6336C37.0323 37.6114 37.0418 37.5822 37.0316 37.5686C37.0215 37.5551 37.0256 37.5428 37.0409 37.5413C37.056 37.5399 37.0733 37.5062 37.0792 37.4665C37.0851 37.4268 37.1096 37.3844 37.1336 37.3723C37.1588 37.3596 37.171 37.3634 37.1624 37.3811C37.1541 37.3981 37.1777 37.4102 37.2148 37.4079C37.2518 37.4057 37.2663 37.4122 37.2469 37.4223C37.2275 37.4325 37.2003 37.4685 37.1863 37.5024C37.1615 37.5627 37.1625 37.5627 37.2381 37.5029C37.4879 37.3053 37.5378 37.2381 37.4741 37.1847C37.4225 37.1415 37.4495 37.118 37.5262 37.1395C37.5705 37.1519 37.6235 37.1536 37.644 37.1433C37.695 37.1177 37.6829 37.0332 37.6289 37.0384C37.6049 37.0407 37.5842 37.0311 37.5829 37.0171C37.5796 36.9834 37.7371 36.9987 37.7655 37.0349C37.7908 37.067 37.9304 36.967 37.9259 36.92C37.9223 36.8822 37.8436 36.8902 37.8241 36.9304C37.8063 36.967 37.7552 36.977 37.7521 36.9444C37.7509 36.9321 37.7797 36.8824 37.8161 36.834C37.8827 36.7456 37.9646 36.7111 37.9702 36.7692C37.9718 36.7864 37.9603 36.794 37.9445 36.7861C37.9009 36.7643 37.8879 36.8157 37.9293 36.8464C37.9774 36.8822 38.0279 36.8745 38.068 36.8252C38.0943 36.7929 38.0906 36.7858 38.0494 36.7897C38.0094 36.7935 38.0011 36.7794 38.0121 36.7263C38.0199 36.6887 38.0384 36.6482 38.0533 36.6363C38.0682 36.6244 38.069 36.5995 38.055 36.5808C38.0368 36.5564 38.0475 36.5509 38.0934 36.5609C38.1324 36.5695 38.1559 36.5622 38.154 36.542C38.1519 36.52 38.1677 36.5166 38.2012 36.5316C38.2903 36.5715 38.3512 36.5246 38.3533 36.4145C38.3547 36.339 38.3456 36.3167 38.3188 36.3302C38.2987 36.3403 38.2811 36.3357 38.2796 36.32C38.2781 36.3043 38.258 36.2932 38.2349 36.2954C38.2118 36.2976 38.182 36.2837 38.1685 36.2645C38.1551 36.2454 38.1558 36.2385 38.17 36.2492C38.1842 36.26 38.212 36.2524 38.2318 36.2323C38.2594 36.2041 38.2688 36.2072 38.2725 36.246C38.2752 36.2738 38.293 36.2887 38.3124 36.2793C38.3317 36.27 38.3431 36.2485 38.3378 36.2316C38.3241 36.1882 38.4365 36.2041 38.4961 36.254C38.5642 36.3111 38.5917 36.3035 38.5286 36.245C38.5005 36.2191 38.4759 36.1845 38.4738 36.1684C38.4718 36.1522 38.4422 36.1372 38.4081 36.1351C38.3582 36.132 38.3521 36.1225 38.3765 36.086C38.4102 36.0357 38.499 36.0152 38.4757 36.0631C38.4536 36.1087 38.6115 36.1241 38.6475 36.0798C38.6709 36.0511 38.6684 36.0372 38.6367 36.0213C38.6045 36.0051 38.6013 35.986 38.6224 35.9346C38.6373 35.8983 38.6622 35.8674 38.6776 35.8659C38.7183 35.862 38.717 35.9141 38.6759 35.9358C38.6496 35.9497 38.6525 35.961 38.6876 35.9814C38.7507 36.0181 38.7586 36.0159 38.8227 35.9426C38.8593 35.9007 38.8708 35.8579 38.8563 35.8177C38.8391 35.7703 38.8289 35.766 38.8106 35.7986C38.7919 35.832 38.7887 35.8313 38.7948 35.7952C38.8001 35.764 38.8373 35.7476 38.9128 35.743C38.9823 35.7388 39.0077 35.7286 38.9815 35.7155C38.9486 35.699 38.9524 35.6803 38.9994 35.6265C39.0322 35.589 39.0726 35.5652 39.0894 35.5737C39.1363 35.5972 39.1237 35.5709 39.0572 35.5066C39.0239 35.4745 38.9819 35.4497 38.9638 35.4514C38.9457 35.4531 38.9295 35.4408 38.9279 35.424C38.9259 35.4029 38.9434 35.4012 38.9842 35.4186C39.0738 35.4567 39.0847 35.4476 39.062 35.3542C39.0497 35.3037 39.0533 35.2746 39.0708 35.2833C39.0883 35.2921 39.0917 35.2676 39.0791 35.2241C39.0639 35.1714 39.069 35.1532 39.0969 35.1611C39.1435 35.1743 39.2716 35.0261 39.2658 34.9656C39.2636 34.9423 39.2783 34.9235 39.2985 34.9238C39.3187 34.9242 39.3391 34.9107 39.3438 34.8939C39.3485 34.877 39.3892 34.8432 39.4341 34.8188C39.4791 34.7943 39.5063 34.7615 39.4947 34.746C39.4567 34.6952 39.499 34.653 39.5614 34.6795C39.5957 34.6941 39.6245 34.6924 39.6328 34.6753C39.6404 34.6595 39.6302 34.6427 39.6101 34.638C39.5872 34.6326 39.5999 34.6012 39.6437 34.5544C39.6882 34.5068 39.7058 34.4626 39.6916 34.4338C39.6718 34.3935 39.675 34.3927 39.7193 34.4271C39.7539 34.454 39.76 34.4733 39.739 34.4896C39.7193 34.505 39.7275 34.5186 39.7626 34.5286C39.7932 34.5372 39.83 34.5261 39.8474 34.5028C39.8714 34.4707 39.8701 34.4675 39.8412 34.4881C39.8148 34.5069 39.8059 34.4983 39.81 34.4582C39.8135 34.4247 39.8364 34.4036 39.8666 34.4059C39.9214 34.4101 39.9313 34.3615 39.8808 34.3361C39.8444 34.3179 39.8689 34.2485 39.9483 34.1449C39.9782 34.1058 40.0011 34.0578 39.9992 34.0382C39.9973 34.0186 40.0047 34.01 40.0156 34.0191C40.0351 34.0355 40.1094 33.9622 40.1063 33.9296C40.1054 33.9203 40.085 33.9146 40.061 33.9169C40.037 33.9192 40.016 33.9064 40.0143 33.8884C40.0125 33.8704 40.0311 33.8614 40.0554 33.8683C40.0894 33.8779 40.0966 33.8576 40.0864 33.7812C40.0792 33.7264 40.0917 33.6458 40.1143 33.6021C40.1369 33.5585 40.1535 33.502 40.1511 33.4765C40.1486 33.4511 40.1624 33.4223 40.1816 33.4126C40.2327 33.3868 40.2227 33.2164 40.1704 33.2214C40.1455 33.2238 40.1339 33.2071 40.1414 33.1795C40.1483 33.1543 40.1717 33.1319 40.1934 33.1299C40.2424 33.1252 40.2888 33.0185 40.2709 32.9515C40.2636 32.9241 40.2738 32.8982 40.2935 32.8938C40.3133 32.8895 40.3424 32.8831 40.3582 32.8796C40.374 32.876 40.385 32.8522 40.3825 32.8267C40.3769 32.7672 40.2904 32.6918 40.2801 32.7373C40.2757 32.7568 40.2411 32.7487 40.1951 32.7175C40.1339 32.6759 40.1243 32.6563 40.1494 32.6249C40.1748 32.5932 40.1862 32.5947 40.2046 32.6322C40.2215 32.6667 40.2481 32.6725 40.303 32.6538C40.424 32.6127 40.4588 32.5496 40.4443 32.3973C40.4326 32.2752 40.4382 32.2586 40.49 32.2609C40.5479 32.2635 40.5479 32.2629 40.4886 32.2241C40.4554 32.2024 40.4355 32.1758 40.4443 32.1649C40.4532 32.154 40.4432 32.1113 40.4221 32.0699C40.401 32.0286 40.3805 31.936 40.3766 31.8642C40.3725 31.7917 40.3535 31.7256 40.3337 31.7157C40.3132 31.7054 40.335 31.6887 40.3855 31.6762C40.4336 31.6642 40.4681 31.6645 40.4621 31.6768C40.4562 31.6891 40.4716 31.7048 40.4964 31.7119C40.5289 31.7211 40.5395 31.7043 40.5345 31.6518C40.5307 31.6117 40.5123 31.5804 40.4936 31.5822C40.4749 31.584 40.4673 31.576 40.4767 31.5644C40.4862 31.5529 40.4584 31.5159 40.4151 31.4824C40.3718 31.4488 40.3346 31.4034 40.3325 31.3816C40.3304 31.3597 40.3115 31.3273 40.2904 31.3097C40.2607 31.2848 40.2599 31.2769 40.2871 31.2743C40.3063 31.2724 40.3202 31.2524 40.318 31.2298C40.3136 31.1837 40.2314 31.1513 40.1933 31.1807C40.1796 31.1912 40.167 31.1857 40.1654 31.1685C40.1637 31.1514 40.1074 31.0912 40.0403 31.035C39.8966 30.9146 39.8386 30.8226 39.9214 30.8465C40.0103 30.8721 40.0261 30.869 40.0374 30.8243C40.045 30.7945 40.0343 30.7884 40.0025 30.8044C39.9431 30.8342 39.7532 30.6973 39.739 30.6144C39.7303 30.5633 39.7407 30.555 39.8012 30.5643C39.8785 30.5763 39.8926 30.5312 39.835 30.4559C39.7995 30.4095 39.6805 30.3957 39.6846 30.4385C39.6861 30.4546 39.707 30.466 39.731 30.4637C39.755 30.4614 39.7759 30.4728 39.7775 30.489C39.7791 30.5052 39.741 30.5223 39.693 30.5269C39.6264 30.5332 39.6045 30.5218 39.6004 30.4787C39.5971 30.4442 39.5594 30.41 39.5039 30.3913C39.4539 30.3743 39.4119 30.3496 39.4106 30.3363C39.4093 30.3231 39.396 30.3217 39.381 30.3333C39.3659 30.3449 39.3525 30.3425 39.3511 30.3281C39.3478 30.2931 39.0492 30.1859 39.028 30.212C39.0188 30.2233 38.989 30.223 38.9618 30.2115C38.8565 30.1667 38.6855 30.1666 38.1724 30.2112C37.8799 30.2366 37.637 30.2618 37.6325 30.2672ZM40.2109 32.4135C40.1931 32.4501 40.2711 32.4787 40.324 32.455C40.3473 32.4446 40.3364 32.4288 40.2931 32.4104C40.249 32.3916 40.221 32.3927 40.2109 32.4135ZM40.3338 33.3365C40.3257 33.3663 40.3386 33.3728 40.3773 33.3585C40.4538 33.3301 40.471 33.282 40.4022 33.2886C40.371 33.2916 40.3402 33.3131 40.3338 33.3365ZM40.3621 33.4892C40.3428 33.5161 40.3092 33.533 40.2874 33.5269C40.2656 33.5207 40.2422 33.5359 40.2354 33.5607C40.2284 33.5866 40.2446 33.6119 40.2736 33.6201C40.3015 33.628 40.3277 33.6184 40.3322 33.5985C40.3367 33.5787 40.364 33.5603 40.393 33.5576C40.4366 33.5534 40.4758 33.4959 40.4708 33.4434C40.468 33.4136 40.394 33.4447 40.3621 33.4892ZM40.224 33.6834C40.2458 33.6899 40.2708 33.6865 40.2796 33.6757C40.2883 33.665 40.2705 33.6597 40.2399 33.6639C40.2062 33.6685 40.1999 33.6762 40.224 33.6834ZM39.6965 34.5531C39.6989 34.5806 39.7148 34.61 39.7317 34.6185C39.7708 34.6381 39.767 34.599 39.7247 34.5447C39.6967 34.5089 39.6928 34.5101 39.6965 34.5531ZM39.486 34.946C39.4742 34.9896 39.4779 34.9926 39.5039 34.961C39.5218 34.939 39.5285 34.9144 39.5187 34.9062C39.5088 34.8979 39.4941 34.9159 39.486 34.946ZM39.1415 35.0472C39.1331 35.0644 39.1394 35.0772 39.1554 35.0757C39.1714 35.0741 39.1913 35.0588 39.1997 35.0417C39.208 35.0245 39.2017 35.0117 39.1857 35.0132C39.1697 35.0147 39.1498 35.03 39.1415 35.0472ZM39.4274 35.0968C39.4321 35.1311 39.4397 35.1374 39.4467 35.113C39.4531 35.0909 39.4496 35.0655 39.439 35.0566C39.4284 35.0478 39.4232 35.0658 39.4274 35.0968ZM39.2077 35.2792C39.2092 35.2954 39.2301 35.3068 39.2541 35.3045C39.2781 35.3022 39.2965 35.2871 39.2949 35.2708C39.2934 35.2546 39.2725 35.2432 39.2485 35.2455C39.2245 35.2478 39.2061 35.2629 39.2077 35.2792ZM39.1233 35.4063C39.1091 35.4961 39.1565 35.5021 39.1863 35.4143C39.2068 35.3538 39.204 35.3391 39.1724 35.3421C39.1506 35.3442 39.1285 35.3731 39.1233 35.4063ZM38.4545 35.8595C38.4456 35.8778 38.4452 35.8985 38.4536 35.9055C38.4619 35.9125 38.4746 35.897 38.4817 35.871C38.4964 35.8172 38.4787 35.8096 38.4545 35.8595ZM38.4116 36.3063C38.4039 36.3223 38.4116 36.3424 38.4289 36.3511C38.4461 36.3597 38.4582 36.3461 38.4558 36.3208C38.4508 36.2689 38.4327 36.263 38.4116 36.3063ZM37.3326 37.2393C37.2876 37.253 37.2875 37.2585 37.332 37.2958C37.3859 37.341 37.4177 37.3248 37.3961 37.2632C37.3886 37.2416 37.36 37.2309 37.3326 37.2393ZM36.6904 37.7027C36.6812 37.7233 36.6834 37.7294 36.6952 37.7163C36.7071 37.7031 36.7362 37.7138 36.76 37.7399C36.7989 37.7827 36.8028 37.7826 36.7995 37.7388C36.7949 37.6786 36.7132 37.6516 36.6904 37.7027ZM36.1402 38.0788C36.1285 38.1028 36.1348 38.1055 36.1589 38.087C36.1857 38.0663 36.1912 38.0734 36.18 38.1143C36.1673 38.161 36.1713 38.1631 36.2057 38.128C36.2281 38.1052 36.2453 38.0748 36.244 38.0606C36.2404 38.0227 36.1606 38.0366 36.1402 38.0788ZM27.5792 38.2601C27.5252 38.286 27.4483 38.3113 27.4085 38.3162C27.3346 38.3254 27.1352 38.4102 27.0484 38.4692C27.022 38.4871 26.9315 38.5405 26.8472 38.5879C26.5936 38.7305 26.3888 38.912 26.2524 39.115C26.1814 39.2207 26.1245 39.3205 26.1261 39.3368C26.1277 39.3532 26.1157 39.3599 26.0996 39.3518C26.0834 39.3437 26.0611 39.392 26.0499 39.4591C26.0388 39.5261 26.0188 39.5821 26.0054 39.5834C25.992 39.5846 25.977 39.6264 25.972 39.6761C25.9671 39.7259 25.9464 39.7647 25.9259 39.7624C25.9056 39.7602 25.8872 39.7901 25.8851 39.829C25.8827 39.8741 25.8921 39.8914 25.911 39.8769C25.9273 39.8643 25.9425 39.8737 25.9448 39.8977C25.9526 39.9785 25.9239 40.0342 25.8809 40.0221C25.8523 40.014 25.8401 40.0306 25.8441 40.0721C25.8473 40.1063 25.8631 40.1331 25.8791 40.1315C25.8951 40.13 25.9107 40.1549 25.9137 40.1869C25.9177 40.2283 25.9053 40.241 25.8705 40.2311C25.8305 40.2198 25.828 40.2269 25.8567 40.2706C25.8759 40.2999 25.8907 40.3676 25.8897 40.4209C25.8883 40.4918 25.8994 40.5168 25.9309 40.5138C25.955 40.5115 25.9765 40.5365 25.9798 40.5706C25.983 40.6042 26.0023 40.6571 26.0227 40.6882C26.0432 40.7193 26.0682 40.7931 26.0783 40.8522C26.0884 40.9113 26.1295 41.0071 26.1696 41.0652C26.2098 41.1233 26.2444 41.1897 26.2466 41.2128C26.2488 41.2358 26.2682 41.2637 26.2896 41.2748C26.311 41.2858 26.3594 41.3436 26.3973 41.4033C26.4351 41.4629 26.483 41.5167 26.5038 41.5228C26.5246 41.529 26.5428 41.5466 26.5442 41.5619C26.551 41.6326 26.9823 41.9371 27.1145 41.9645C27.1538 41.9726 27.2173 42.0032 27.2556 42.0325C27.3192 42.0811 27.3287 42.0813 27.367 42.0343C27.3962 41.9983 27.4374 41.9856 27.5039 41.992C27.6214 42.0032 27.639 42.0149 27.5925 42.0506C27.5624 42.0737 27.5634 42.0823 27.5981 42.1003C27.6541 42.1293 27.8887 42.1132 27.8856 42.0805C27.8832 42.0556 27.8184 42.0488 27.7447 42.0657C27.725 42.0703 27.7075 42.0601 27.7059 42.0432C27.7027 42.0098 27.8268 41.9946 27.9235 42.0166C27.9565 42.0241 27.9854 42.0502 27.9878 42.0745C27.9922 42.1209 28.1431 42.1137 28.2336 42.0628C28.258 42.0491 28.3068 42.038 28.3421 42.0381C28.3775 42.0382 28.4372 42.0133 28.4748 41.9827C28.5125 41.9521 28.5674 41.9303 28.5968 41.934C28.6262 41.9379 28.6997 41.9058 28.7602 41.8629C28.8207 41.8199 28.8768 41.7844 28.8848 41.7839C28.9287 41.7814 29.0531 41.7019 29.0508 41.6778C29.0493 41.6623 29.0767 41.6375 29.1116 41.6227C29.2327 41.5714 29.3244 41.4688 29.3172 41.3927C29.3133 41.3523 29.3234 41.3258 29.3396 41.334C29.3558 41.3421 29.3636 41.3689 29.3569 41.3936C29.3311 41.488 29.3791 41.43 29.4179 41.3198C29.4404 41.2563 29.4863 41.1772 29.52 41.1441C29.5895 41.0758 29.5949 40.9976 29.5296 41.0039C29.4736 41.0092 29.4701 40.9662 29.5189 40.8721C29.556 40.8004 29.5537 40.6733 29.5099 40.3822C29.4975 40.2994 29.503 40.2463 29.5252 40.2364C29.5524 40.2242 29.5508 40.2114 29.5179 40.1775C29.482 40.1404 29.4835 40.1362 29.5286 40.1486C29.5576 40.1566 29.5801 40.1502 29.5786 40.1345C29.5771 40.1188 29.5628 40.1072 29.5468 40.1087C29.5308 40.1102 29.5145 40.0783 29.5106 40.0377C29.5068 39.9971 29.5163 39.9627 29.5318 39.9612C29.5472 39.9597 29.5512 39.9359 29.5405 39.9083C29.5298 39.8806 29.5394 39.8864 29.5618 39.9211C29.6084 39.9932 29.6539 40.0007 29.6476 39.9352C29.6453 39.9109 29.663 39.8891 29.687 39.8868C29.7424 39.8815 29.7404 39.8672 29.6726 39.7813C29.6311 39.7289 29.625 39.7025 29.6477 39.6746C29.6832 39.631 29.684 39.5783 29.6488 39.6054C29.6355 39.6157 29.6149 39.5973 29.603 39.5645C29.5867 39.5195 29.5927 39.5082 29.6279 39.5181C29.6612 39.5276 29.668 39.5185 29.652 39.486C29.6398 39.461 29.6285 39.4277 29.627 39.4118C29.6255 39.3959 29.6119 39.3924 29.5969 39.404C29.5818 39.4155 29.5682 39.4114 29.5666 39.3948C29.565 39.3782 29.5882 39.3481 29.6181 39.328C29.6656 39.296 29.6671 39.2816 29.6302 39.2141C29.5864 39.134 29.4324 38.9247 29.4003 38.9015C29.3902 38.8943 29.322 38.82 29.2485 38.7363C29.1165 38.5859 28.9058 38.4127 28.8602 38.417C28.8472 38.4183 28.7955 38.3897 28.7451 38.3536C28.6947 38.3175 28.6272 38.2894 28.5951 38.2912C28.5061 38.2962 28.3423 38.2469 28.3379 38.2138C28.3358 38.1976 28.2981 38.1862 28.2543 38.1885C28.2105 38.1908 28.1679 38.1909 28.1596 38.1887C28.0873 38.1696 27.6579 38.2224 27.5792 38.2601ZM29.5416 39.2355C29.532 39.2473 29.5254 39.2708 29.527 39.2876C29.5288 39.306 29.5422 39.303 29.561 39.2798C29.5781 39.2588 29.5847 39.2354 29.5756 39.2278C29.5666 39.2202 29.5512 39.2237 29.5416 39.2355ZM29.4326 40.7327C29.4372 40.7669 29.4448 40.7732 29.4518 40.7488C29.4582 40.7267 29.4547 40.7014 29.4441 40.6925C29.4335 40.6836 29.4283 40.7017 29.4326 40.7327ZM29.6447 40.8017C29.6494 40.836 29.6569 40.8423 29.664 40.8179C29.6703 40.7958 29.6668 40.7704 29.6562 40.7616C29.6457 40.7527 29.6405 40.7708 29.6447 40.8017Z" fill="white"/>
</g>
<rect x="2.5" y="2.5" width="45" height="45" rx="22.5" stroke="#BD002F" stroke-width="5"/>
</g>
<defs>
<filter id="filter0_ii_8_15000" x="-4" y="-4" width="60" height="60" filterUnits="userSpaceOnUse" color-interpolation-filters="sRGB">
<feFlood flood-opacity="0" result="BackgroundImageFix"/>
<feBlend mode="normal" in="SourceGraphic" in2="BackgroundImageFix" result="shape"/>
<feColorMatrix in="SourceAlpha" type="matrix" values="0 0 0 0 0 0 0 0 0 0 0 0 0 0 0 0 0 0 127 0" result="hardAlpha"/>
<feOffset dx="-8" dy="-10"/>
<feGaussianBlur stdDeviation="2"/>
<feComposite in2="hardAlpha" operator="arithmetic" k2="-1" k3="1"/>
<feColorMatrix type="matrix" values="0 0 0 0 0 0 0 0 0 0 0 0 0 0 0 0 0 0 0.15 0"/>
<feBlend mode="normal" in2="shape" result="effect1_innerShadow_8_15000"/>
<feColorMatrix in="SourceAlpha" type="matrix" values="0 0 0 0 0 0 0 0 0 0 0 0 0 0 0 0 0 0 127 0" result="hardAlpha"/>
<feOffset dx="6" dy="6"/>
<feGaussianBlur stdDeviation="5"/>
<feComposite in2="hardAlpha" operator="arithmetic" k2="-1" k3="1"/>
<feColorMatrix type="matrix" values="0 0 0 0 1 0 0 0 0 1 0 0 0 0 1 0 0 0 0.46 0"/>
<feBlend mode="normal" in2="effect1_innerShadow_8_15000" result="effect2_innerShadow_8_15000"/>
</filter>
<clipPath id="clip0_8_15000">
<rect width="50" height="50" rx="25" fill="white"/>
</clipPath>
</defs>
</svg>
