<svg width="71" height="81" viewBox="0 0 71 81" fill="none" xmlns="http://www.w3.org/2000/svg">
<path fill-rule="evenodd" clip-rule="evenodd" d="M34.6783 14.4065C33.8219 14.501 32.7565 14.9247 31.581 15.6382C31.0325 15.9712 30.5514 16.2436 30.5119 16.2436C30.4725 16.2436 30.3314 16.359 30.1983 16.5C30.0653 16.6409 29.9065 16.7585 29.8457 16.7613C29.7847 16.7641 29.48 16.9489 29.1684 17.1722C28.8569 17.3954 28.3587 17.7385 28.0613 17.9349C27.7639 18.1311 27.5206 18.3385 27.5206 18.3956C27.5206 18.4526 27.471 18.4993 27.4103 18.4993C27.3498 18.4993 27.0802 18.6839 26.8115 18.9094C26.5428 19.135 26.2681 19.3196 26.2009 19.3196C26.1338 19.3196 26.0788 19.3565 26.0788 19.4017C26.0788 19.4867 24.9729 20.4219 24.0935 21.0807C23.8167 21.2879 23.3727 21.657 23.1065 21.9009C22.8405 22.1447 22.3714 22.5239 22.0642 22.7435C21.757 22.9631 21.0343 23.5399 20.4583 24.0252C19.8823 24.5104 19.2111 25.069 18.9669 25.2664C18.7226 25.4638 18.4516 25.706 18.3643 25.8047C18.2772 25.9034 18.1678 25.9841 18.1213 25.9841C18.0747 25.9841 17.7677 26.2033 17.4391 26.4712C17.1104 26.739 16.7371 27.0274 16.6096 27.112C16.4821 27.1966 16.1118 27.4734 15.7866 27.7272C15.4615 27.9809 14.768 28.4885 14.2456 28.855C13.7232 29.2216 13.03 29.7291 12.7053 29.9829C12.3805 30.2366 12.0405 30.4904 11.9497 30.5468C11.8589 30.6032 11.4207 30.916 10.9758 31.2419C10.531 31.5677 9.88901 32.0372 9.54914 32.285C5.05514 35.5624 5.05421 35.5631 3.79611 36.8154C2.85047 37.7565 2.18743 38.6758 1.69865 39.7234C1.52357 40.0987 1.0905 41.3835 0.990191 41.8253C0.751154 42.8783 0.3908 45.7956 0.423139 46.4163C0.434261 46.6294 0.408 46.8601 0.364642 46.929C0.321387 46.998 0.279265 47.3543 0.271026 47.7208C0.262684 48.0874 0.223652 49.1255 0.184104 50.0278C0.121796 51.45 0.00171101 56.2107 0.00953812 56.9487C0.0110829 57.0897 0.00860715 57.8279 0.00407567 58.5892C-0.000352835 59.3505 -0.00137844 60.0426 0.00202017 60.1272C0.0363153 60.9971 0.141361 65.7955 0.174832 68.0221C0.2185 70.9259 0.294609 72.8061 0.38668 73.2525C0.41562 73.3928 0.466083 73.7152 0.498833 73.9689C0.574221 74.5536 0.95425 75.7394 1.09792 75.8386C1.16888 75.8875 1.15951 75.9145 1.07104 75.9155C0.969184 75.9166 0.975876 75.9579 1.09771 76.0792C1.18721 76.1683 1.23252 76.2863 1.19833 76.3413C1.16403 76.3965 1.25632 76.6225 1.40328 76.8435C1.55025 77.0647 1.67053 77.2875 1.67053 77.3386C1.67053 77.3898 2.08012 77.8197 2.58064 78.2939C3.90795 79.5515 5.0192 80.0137 7.07742 80.1645C7.53057 80.1977 8.10988 80.2464 8.36478 80.2728C8.61967 80.299 9.38436 80.3443 10.0641 80.3733C10.7438 80.4023 12.3427 80.4713 13.6172 80.5266C14.8917 80.5819 17.8346 80.6555 20.1569 80.6901C22.4793 80.7248 24.5648 80.767 24.7914 80.784C25.8732 80.8653 33.8322 80.9499 42.2994 80.97C59.7146 81.0115 64.6758 80.7936 66.4577 79.9086C67.5977 79.3424 69.1544 77.7337 68.9857 77.296C68.9542 77.2143 68.9733 77.1474 69.0281 77.1474C69.083 77.1474 69.1312 77.2051 69.1351 77.2756C69.1391 77.3461 69.1791 77.3115 69.224 77.1987C69.2823 77.0524 69.2581 76.9736 69.1396 76.9239C68.9934 76.8626 68.9952 76.8534 69.1537 76.847C69.3527 76.8391 69.3947 76.6843 69.2259 76.5804C69.1512 76.5345 69.1527 76.4721 69.2309 76.3784C69.3091 76.2847 69.3106 76.2224 69.2359 76.1765C69.1765 76.1399 69.1279 76.0639 69.1279 76.0075C69.1279 75.9511 69.1743 75.9334 69.2309 75.9683C69.2875 76.0032 69.3339 75.931 69.3339 75.8081C69.3339 75.6264 69.3614 75.6071 69.4802 75.7053C69.6004 75.8046 69.6167 75.7884 69.5713 75.6153C69.5408 75.4993 69.56 75.4044 69.6139 75.4044C69.725 75.4044 69.7643 74.9727 69.7837 73.5332C69.7913 72.9834 69.8321 72.5335 69.8746 72.5335C70.0315 72.5335 69.9472 71.8859 69.7716 71.7426C69.6724 71.6617 69.6565 71.6292 69.7364 71.6704C69.846 71.7271 69.8672 71.6915 69.8232 71.5241C69.7912 71.4024 69.8057 71.3278 69.8554 71.3585C69.9052 71.389 69.9777 71.2877 70.0166 71.1333C70.0616 70.9547 70.0439 70.8381 69.9681 70.8129C69.9025 70.7912 69.8525 70.6734 69.857 70.5513C69.8614 70.429 69.8885 70.3868 69.917 70.4572C69.9456 70.5278 70.0164 70.5854 70.0744 70.5854C70.1324 70.5854 70.1502 70.5083 70.1138 70.4142C70.0775 70.3199 70.1073 70.2047 70.18 70.1578C70.2647 70.1034 70.2752 70.0451 70.2093 69.9958C70.0718 69.8932 70.0504 69.5601 70.1813 69.5601C70.2382 69.5601 70.2577 69.4568 70.2245 69.3306C70.1914 69.2044 70.2179 68.9227 70.2835 68.7047C70.3868 68.3613 70.3795 68.2953 70.2289 68.2114C70.0348 68.1033 69.9913 67.817 70.1688 67.817C70.2315 67.817 70.2552 67.8886 70.2215 67.9762C70.1878 68.0637 70.1992 68.1112 70.247 68.0819C70.328 68.0321 70.4244 67.4036 70.5275 66.2534C70.5619 65.8687 70.5385 65.7664 70.416 65.7664C70.3306 65.7664 70.2608 65.7175 70.2608 65.6578C70.2608 65.5982 70.3038 65.5757 70.3564 65.6081C70.4089 65.6404 70.4791 65.5814 70.5124 65.4771C70.6074 65.179 70.5481 61.7302 70.4457 61.5974C70.3914 61.527 70.393 61.4541 70.4498 61.4193C70.58 61.3391 70.4508 51.9107 70.3151 51.5914C70.2707 51.487 70.2834 51.412 70.3455 51.412C70.4153 51.412 70.4217 51.3051 70.3638 51.1044C70.307 50.9073 70.3126 50.7968 70.3792 50.7968C70.4827 50.7968 70.4136 49.3195 70.3017 49.1392C70.2725 49.0922 70.2978 49.0538 70.3577 49.0538C70.5107 49.0538 70.4943 48.201 70.338 48.0361C70.235 47.9274 70.235 47.8908 70.338 47.8533C70.498 47.7949 70.5094 47.4132 70.3512 47.4132C70.271 47.4132 70.268 47.3739 70.3411 47.2851C70.46 47.1408 70.4537 46.6081 70.3308 46.4147C70.2753 46.3275 70.3001 46.3068 70.4099 46.3488C70.5365 46.3972 70.5697 46.3315 70.5697 46.034C70.5697 45.8095 70.5282 45.6836 70.4668 45.7215C70.4101 45.7563 70.3638 45.7359 70.3638 45.6763C70.3638 45.6166 70.4055 45.5677 70.4564 45.5677C70.5721 45.5677 70.6536 44.6452 70.5438 44.5776C70.4996 44.5505 70.4965 44.4749 70.537 44.4097C70.6758 44.186 70.6487 43.4053 70.4968 43.2539C70.3685 43.1263 70.3696 43.1069 70.5055 43.1069C70.7066 43.1069 70.7757 42.1658 70.6071 41.7227C70.5428 41.5536 70.503 41.1844 70.5189 40.9025C70.5346 40.6205 70.5125 40.3668 70.4695 40.3386C70.3376 40.2518 70.2225 39.7902 70.3527 39.8704C70.6608 40.0599 70.3706 39.5841 69.3249 38.1854C68.7451 37.4097 68.3648 37.0366 67.394 36.291C66.8597 35.8806 65.5455 34.5016 65.1441 33.9303C65.0105 33.7402 64.9409 33.5063 64.9617 33.3178C64.9802 33.1501 64.9555 32.9652 64.907 32.907C64.8584 32.8486 64.8158 32.5015 64.8122 32.1353C64.8086 31.7692 64.786 31.285 64.762 31.0594C64.7379 30.8339 64.714 30.5197 64.7088 30.3613C64.7022 30.1596 64.6608 30.0964 64.5707 30.1503C64.4893 30.199 64.496 30.161 64.5889 30.047C64.7037 29.9063 64.712 29.7954 64.6266 29.5403C64.5665 29.3608 64.5244 28.7371 64.5331 28.1543C64.5418 27.5716 64.5121 27.0722 64.467 27.0444C64.4219 27.0167 64.3891 26.8476 64.3942 26.6685C64.3992 26.4895 64.3696 25.6048 64.3284 24.7025C64.2872 23.8002 64.2492 22.4852 64.2439 21.7803C64.2385 21.0754 64.1917 20.4322 64.1397 20.3509C64.0778 20.2542 64.0866 20.1894 64.1654 20.1632C64.2536 20.134 64.2563 20.0683 64.1753 19.9177C64.1145 19.8046 64.0901 19.6869 64.121 19.6562C64.1519 19.6254 64.1324 19.5168 64.0776 19.4148C64.0228 19.3129 64.0168 19.2056 64.0643 19.1764C64.1716 19.1103 63.9821 17.8841 63.8645 17.8841C63.8175 17.8841 63.8063 17.8132 63.8398 17.7265C64.1588 16.8986 59.9427 15.5755 56.8723 15.54C55.3471 15.5224 54.4189 15.6926 53.4903 16.16C52.9026 16.4558 52.1348 17.1581 52.1348 17.3998C52.1348 17.4513 52.0327 17.6364 51.9079 17.8109C51.745 18.0386 51.6767 18.2921 51.666 18.7086C51.6578 19.0278 51.6198 19.3394 51.5816 19.4009C51.5434 19.4624 51.4862 20.4729 51.4545 21.6462C51.4228 22.8196 51.3773 23.8417 51.3534 23.9176C51.3246 24.009 51.0981 23.8705 50.6822 23.5075C50.0175 22.9272 49.4093 22.4651 48.8754 22.1348C48.697 22.0245 48.1873 21.6573 47.7426 21.3189C47.2979 20.9806 46.8182 20.6286 46.6765 20.5366C46.5348 20.4448 46.3263 20.2813 46.213 20.1736C46.0997 20.0657 45.7753 19.8206 45.4921 19.6289C45.2089 19.4372 44.9617 19.243 44.9428 19.1974C44.9239 19.1518 44.8632 19.1145 44.8079 19.1145C44.6975 19.1145 43.9425 18.5671 43.3904 18.0868C43.1975 17.919 42.979 17.7816 42.9048 17.7816C42.8308 17.7816 42.7247 17.6971 42.6692 17.5938C42.6137 17.4904 42.3571 17.2945 42.0991 17.1582C41.8412 17.0219 41.63 16.8757 41.63 16.8334C41.63 16.7909 41.5777 16.7563 41.5137 16.7563C41.4498 16.7563 40.9855 16.4565 40.4822 16.09C38.5666 14.6955 36.7726 14.1752 34.6783 14.4065ZM53.8856 17.474C53.8856 17.5304 53.9524 17.5765 54.034 17.5765C54.1157 17.5765 54.2111 17.5304 54.2461 17.474C54.2811 17.4176 54.2143 17.3715 54.0977 17.3715C53.9811 17.3715 53.8856 17.4176 53.8856 17.474ZM33.1077 17.6134C32.9803 17.6763 32.876 17.8116 32.876 17.9142C32.876 18.0168 32.728 18.2353 32.5472 18.3999C32.3662 18.5643 32.2504 18.7308 32.2897 18.77C32.3289 18.8091 32.3611 18.7834 32.3611 18.7129C32.3611 18.6425 32.4145 18.6025 32.4798 18.6242C32.6459 18.6793 33.1065 18.1981 33.0437 18.0352C32.9902 17.8965 33.2428 17.738 33.3159 17.8642C33.3386 17.9034 33.3452 17.8833 33.3306 17.8197C33.316 17.7561 33.356 17.6523 33.4196 17.589C33.5607 17.4486 33.4197 17.4596 33.1077 17.6134ZM58.4858 18.055C58.448 18.0926 58.4171 18.171 58.4171 18.2293C58.4171 18.2935 58.4651 18.2875 58.539 18.214C58.606 18.1472 58.6369 18.0688 58.6077 18.0397C58.5784 18.0105 58.5235 18.0174 58.4858 18.055ZM58.9294 18.2463C58.8044 18.3962 58.8099 18.4369 58.9717 18.5547C59.1626 18.6936 59.4879 18.6481 59.3932 18.4956C59.3643 18.4491 59.3849 18.3838 59.439 18.3504C59.493 18.3171 59.5834 18.3717 59.6397 18.4715C59.7375 18.6449 59.7454 18.6448 59.8132 18.4693C59.9026 18.2384 59.8872 18.2248 59.4404 18.1418C59.162 18.09 59.0386 18.1152 58.9294 18.2463ZM61.8157 19.012C61.8157 19.0684 61.8621 19.1145 61.9187 19.1145C61.9754 19.1145 62.0217 19.0684 62.0217 19.012C62.0217 18.9556 61.9754 18.9094 61.9187 18.9094C61.8621 18.9094 61.8157 18.9556 61.8157 19.012ZM31.7059 19.2683C31.6733 19.3529 31.6915 19.4221 31.7463 19.4221C31.8012 19.4221 31.8461 19.3529 31.8461 19.2683C31.8461 19.1837 31.8279 19.1145 31.8057 19.1145C31.7834 19.1145 31.7385 19.1837 31.7059 19.2683ZM36.3809 19.6836C36.3772 19.9228 36.5588 20.1398 36.7627 20.1398C36.8634 20.1398 36.8708 20.1052 36.7901 20.0117C36.7293 19.9412 36.6131 19.7912 36.5319 19.6784C36.3846 19.474 36.3842 19.474 36.3809 19.6836ZM36.7896 20.55C36.7896 20.6063 36.8387 20.6525 36.8986 20.6525C36.9586 20.6525 36.9791 20.6063 36.944 20.55C36.909 20.4936 36.86 20.4474 36.835 20.4474C36.81 20.4474 36.7896 20.4936 36.7896 20.55ZM37.0985 21.5753C37.0985 21.6317 37.1449 21.6778 37.2015 21.6778C37.2582 21.6778 37.3045 21.6317 37.3045 21.5753C37.3045 21.5189 37.2582 21.4727 37.2015 21.4727C37.1449 21.4727 37.0985 21.5189 37.0985 21.5753ZM37.253 21.8829C37.218 21.9393 37.2617 21.9854 37.3499 21.9854C37.4382 21.9854 37.5105 21.9393 37.5105 21.8829C37.5105 21.8265 37.4669 21.7803 37.4136 21.7803C37.3602 21.7803 37.288 21.8265 37.253 21.8829ZM63.8755 22.7031C63.8755 22.7595 63.9246 22.8056 63.9846 22.8056C64.0445 22.8056 64.065 22.7595 64.03 22.7031C63.995 22.6467 63.946 22.6006 63.9209 22.6006C63.8959 22.6006 63.8755 22.6467 63.8755 22.7031ZM37.9224 29.253C37.9224 29.3094 37.9688 29.3841 38.0254 29.4189C38.0821 29.4538 38.1284 29.4362 38.1284 29.3798C38.1284 29.3234 38.0821 29.2487 38.0254 29.2139C37.9688 29.179 37.9224 29.1966 37.9224 29.253ZM46.7044 29.3728C46.6962 29.4806 46.7309 29.5942 46.7815 29.6252C46.8321 29.6564 46.8479 29.7611 46.8167 29.858C46.7747 29.9886 46.7851 29.9993 46.8572 29.8993C46.9576 29.76 46.9106 29.2946 46.7885 29.2195C46.7504 29.196 46.7125 29.265 46.7044 29.3728ZM32.4898 29.7375C32.4898 29.9261 32.5159 29.9638 32.5784 29.8657C32.6936 29.6846 32.6944 29.4702 32.5799 29.4702C32.5304 29.4702 32.4898 29.5905 32.4898 29.7375ZM38.2314 29.9829C38.2314 30.0393 38.2778 30.0854 38.3344 30.0854C38.391 30.0854 38.4374 30.0393 38.4374 29.9829C38.4374 29.9265 38.391 29.8803 38.3344 29.8803C38.2778 29.8803 38.2314 29.9265 38.2314 29.9829ZM32.4641 30.4895C32.4641 30.5426 32.5104 30.6145 32.567 30.6493C32.6237 30.6842 32.67 30.6407 32.67 30.5528C32.67 30.465 32.6237 30.393 32.567 30.393C32.5104 30.393 32.4641 30.4364 32.4641 30.4895ZM38.4374 31.0082C38.4374 31.0646 38.4837 31.1107 38.5404 31.1107C38.597 31.1107 38.6434 31.0646 38.6434 31.0082C38.6434 30.9518 38.597 30.9056 38.5404 30.9056C38.4837 30.9056 38.4374 30.9518 38.4374 31.0082ZM38.5404 31.3549C38.5404 31.4395 38.5867 31.5372 38.6434 31.5721C38.7 31.607 38.7463 31.5663 38.7463 31.4817C38.7463 31.3971 38.7 31.2994 38.6434 31.2645C38.5867 31.2297 38.5404 31.2703 38.5404 31.3549ZM32.309 31.8454C32.3182 31.9705 32.3839 32.0923 32.4551 32.1159C32.5394 32.1439 32.5724 32.0775 32.5499 31.9248C32.5051 31.6199 32.2869 31.5479 32.309 31.8454ZM14.5441 31.9713C14.5441 31.9934 14.616 32.039 14.7039 32.0727C14.7956 32.1076 14.8369 32.0904 14.8008 32.0324C14.7404 31.9349 14.5441 31.8882 14.5441 31.9713ZM38.7463 32.1905C38.7463 32.3564 38.9073 32.3941 38.9971 32.2493C39.0285 32.1988 38.9849 32.1311 38.9002 32.0987C38.8068 32.063 38.7463 32.099 38.7463 32.1905ZM32.3197 32.5191C32.2858 32.5527 32.2618 32.7457 32.2662 32.9478C32.2706 33.1499 32.2977 33.2575 32.3263 33.187C32.3549 33.1165 32.4381 33.0588 32.5112 33.0588C32.6837 33.0588 32.6851 32.5738 32.5128 32.508C32.4404 32.4803 32.3536 32.4854 32.3197 32.5191ZM14.6041 32.6349C14.5738 32.6838 14.4204 32.7032 14.2633 32.6782C14.0404 32.6426 14.0115 32.6566 14.1321 32.7416C14.2605 32.8321 14.248 32.8509 14.0585 32.8522C13.8316 32.8538 13.5654 33.1781 13.6895 33.3017C13.811 33.4226 13.9262 33.367 13.927 33.187C13.9274 33.0882 14.0432 32.9542 14.1844 32.889C14.4678 32.7582 14.5284 32.859 14.2866 33.0588C14.1151 33.2005 14.0818 33.3664 14.2247 33.3664C14.2757 33.3664 14.4139 33.1819 14.532 32.9563C14.6502 32.7307 14.7271 32.5462 14.703 32.5462C14.6789 32.5462 14.6344 32.5861 14.6041 32.6349ZM39.0553 33.0588C39.0553 33.1716 39.1017 33.2639 39.1583 33.2639C39.2149 33.2639 39.2613 33.1716 39.2613 33.0588C39.2613 32.946 39.2149 32.8538 39.1583 32.8538C39.1017 32.8538 39.0553 32.946 39.0553 33.0588ZM32.4803 33.5715C32.4803 33.7125 32.5037 33.7702 32.5322 33.6996C32.5609 33.6292 32.5609 33.5138 32.5322 33.4433C32.5037 33.3729 32.4803 33.4305 32.4803 33.5715ZM14.0574 33.5541C13.9877 33.597 13.9721 33.6847 14.0203 33.7622C14.0849 33.8662 14.1187 33.8566 14.1717 33.7192C14.254 33.5058 14.2186 33.4549 14.0574 33.5541ZM39.3643 33.8261C39.3643 33.8414 39.4276 33.9063 39.5051 33.9703C39.6109 34.0578 39.6726 34.0545 39.7538 33.9572C39.8351 33.8595 39.8007 33.8242 39.6129 33.813C39.4761 33.8048 39.3643 33.8108 39.3643 33.8261ZM13.7218 34.1836C13.6569 34.3043 13.6245 34.4582 13.6497 34.5255C13.675 34.5929 13.7488 34.5148 13.8138 34.3518C13.9555 33.9965 13.8885 33.8736 13.7218 34.1836ZM32.3096 34.0841C32.3446 34.1405 32.4427 34.1867 32.5277 34.1867C32.6127 34.1867 32.6536 34.1405 32.6185 34.0841C32.5835 34.0277 32.4854 33.9816 32.4004 33.9816C32.3154 33.9816 32.2746 34.0277 32.3096 34.0841ZM47.5591 34.175C47.5281 34.225 47.5948 34.2899 47.7075 34.3192C47.8402 34.3538 47.9123 34.3218 47.9123 34.2283C47.9123 34.0699 47.649 34.0302 47.5591 34.175ZM39.654 34.5643C39.7282 34.5939 39.8171 34.5902 39.8513 34.5562C39.8855 34.5221 39.8247 34.4979 39.7162 34.5024C39.5962 34.5073 39.5718 34.5316 39.654 34.5643ZM47.6688 34.6474C47.7014 34.7317 47.7694 34.7752 47.8201 34.7439C47.9656 34.6545 47.9277 34.4943 47.761 34.4943C47.6692 34.4943 47.633 34.5544 47.6688 34.6474ZM32.314 35.3073C32.2845 35.3548 32.3525 35.4178 32.4652 35.4471C32.5779 35.4764 32.67 35.4635 32.67 35.4184C32.67 35.2979 32.3767 35.2064 32.314 35.3073ZM54.4263 35.4894C54.1925 35.5342 54.0973 35.7246 54.3086 35.7246C54.3713 35.7246 54.4011 35.7824 54.3747 35.8528C54.3484 35.9233 54.4635 36.1194 54.6306 36.2886C54.9295 36.5912 54.9331 36.5921 54.8596 36.3398C54.8184 36.1988 54.7399 36.0548 54.685 36.0196C54.6219 35.9792 54.6269 35.8782 54.6989 35.7444C54.8321 35.4967 54.842 35.4117 54.7353 35.431C54.6929 35.4387 54.5537 35.4649 54.4263 35.4894ZM53.9137 35.9274C53.9224 36.0415 53.966 36.1348 54.0106 36.1348C54.1245 36.1348 54.1119 35.8518 53.9949 35.7797C53.9417 35.747 53.9052 35.8134 53.9137 35.9274ZM32.3808 36.186C32.3899 36.4255 32.4443 36.5449 32.5443 36.5449C32.6493 36.5449 32.6755 36.476 32.6319 36.3142C32.5978 36.1874 32.5692 36.0259 32.5685 35.9553C32.5677 35.8849 32.5221 35.8272 32.4671 35.8272C32.4123 35.8272 32.3734 35.9887 32.3808 36.186ZM23.2638 36.1006C23.226 36.1381 23.1951 36.2166 23.1951 36.2749C23.1951 36.3391 23.2431 36.3331 23.3169 36.2595C23.384 36.1928 23.4149 36.1144 23.3856 36.0852C23.3564 36.0561 23.3015 36.063 23.2638 36.1006ZM66.6047 36.3398C66.6397 36.3962 66.7147 36.4424 66.7713 36.4424C66.828 36.4424 66.8457 36.3962 66.8107 36.3398C66.7757 36.2834 66.7007 36.2373 66.644 36.2373C66.5874 36.2373 66.5697 36.2834 66.6047 36.3398ZM53.8341 36.4424C53.8692 36.4988 53.9182 36.5449 53.9432 36.5449C53.9682 36.5449 53.9886 36.4988 53.9886 36.4424C53.9886 36.386 53.9395 36.3398 53.8796 36.3398C53.8196 36.3398 53.7991 36.386 53.8341 36.4424ZM23.0603 36.5132C23.0287 36.5642 23.0402 36.6664 23.086 36.7402C23.1319 36.8139 23.1953 36.8326 23.2269 36.7816C23.2585 36.7307 23.247 36.6285 23.2012 36.5546C23.1554 36.4809 23.0919 36.4623 23.0603 36.5132ZM32.3611 36.8525C32.3611 36.9089 32.4334 36.955 32.5216 36.955C32.6099 36.955 32.6536 36.9089 32.6185 36.8525C32.5835 36.7961 32.5113 36.75 32.458 36.75C32.4046 36.75 32.3611 36.7961 32.3611 36.8525ZM54.8207 37.0148C54.8256 37.1342 54.85 37.1585 54.8829 37.0768C54.9126 37.0028 54.9089 36.9143 54.8747 36.8803C54.8405 36.8462 54.8162 36.9067 54.8207 37.0148ZM22.7831 37.0551C22.7831 37.0913 22.8512 37.2104 22.9343 37.3199C23.08 37.5116 23.0857 37.5091 23.0888 37.2541C23.0909 37.0855 23.0359 36.9892 22.9376 36.9892C22.8527 36.9892 22.7831 37.0188 22.7831 37.0551ZM5.74517 37.2326C5.68935 37.3787 5.70109 37.3905 5.80284 37.29C5.87329 37.2204 5.9049 37.1376 5.87318 37.1061C5.84146 37.0746 5.78389 37.1315 5.74517 37.2326ZM32.5366 37.4337C32.4628 37.5526 32.6347 37.8446 32.7253 37.7544C32.762 37.718 32.7477 37.6095 32.6937 37.5135C32.6398 37.4174 32.569 37.3815 32.5366 37.4337ZM68.2047 37.5287C68.2027 37.5904 68.2911 37.7222 68.4012 37.8213C68.5113 37.9206 68.6209 38.1007 68.6447 38.2217C68.6844 38.4239 68.689 38.4251 68.7014 38.2367C68.7089 38.1239 68.6009 37.8932 68.4617 37.724C68.3224 37.5548 68.2068 37.467 68.2047 37.5287ZM41.7803 37.7821C41.7429 37.8422 41.7371 37.916 41.7673 37.9462C41.8411 38.0196 42.042 37.8902 42.042 37.7692C42.042 37.6382 41.8642 37.6469 41.7803 37.7821ZM22.5096 38.7501C22.3705 39.0488 22.5193 39.0998 22.6766 38.8074C22.8031 38.5719 22.8105 38.4927 22.7059 38.4938C22.6634 38.4942 22.5751 38.6096 22.5096 38.7501ZM68.716 38.5796C68.716 38.706 69.119 39.0488 69.1874 38.9806C69.2195 38.9487 69.1625 38.8259 69.0609 38.7078C68.8699 38.4857 68.716 38.4285 68.716 38.5796ZM32.6782 39.4756C32.6831 39.595 32.7075 39.6193 32.7404 39.5376C32.7701 39.4636 32.7664 39.3751 32.7322 39.341C32.698 39.307 32.6737 39.3675 32.6782 39.4756ZM46.1302 39.401C45.9573 39.4686 45.9611 39.4929 46.185 39.7523C46.3173 39.9056 46.482 40.031 46.551 40.031C46.6908 40.031 46.717 39.9004 46.6005 39.7845C46.5587 39.743 46.524 39.6354 46.5233 39.5456C46.5218 39.3515 46.3853 39.3013 46.1302 39.401ZM20.7641 39.7C20.5145 39.9039 20.384 40.2067 20.4794 40.3603C20.5156 40.4185 20.62 40.3049 20.7114 40.1079C20.803 39.9109 20.9231 39.7472 20.9783 39.7442C21.1006 39.7375 21.1877 39.5174 21.0666 39.5206C21.0195 39.5218 20.8833 39.6026 20.7641 39.7ZM22.0787 39.7406C22.0696 39.8911 22.0323 40.0987 21.9956 40.202C21.9445 40.346 21.9582 40.363 22.0546 40.2747C22.1252 40.2101 22.1616 40.0077 22.1377 39.8133C22.1031 39.5318 22.0921 39.5182 22.0787 39.7406ZM55.1296 39.7831C55.1346 39.9026 55.159 39.9269 55.1918 39.8452C55.2216 39.7712 55.2179 39.6827 55.1837 39.6486C55.1495 39.6146 55.1252 39.6751 55.1296 39.7831ZM49.34 42.498C49.2968 42.9497 49.4042 43.6079 49.5437 43.7468C49.6095 43.8122 49.6631 43.9295 49.6631 44.0074C49.6631 44.0855 49.7211 44.1281 49.7919 44.1023C49.8627 44.0765 49.907 43.9975 49.8905 43.927C49.8739 43.8563 49.8445 43.5775 49.8251 43.3074C49.802 42.9855 49.7148 42.736 49.5721 42.5834C49.4151 42.4157 49.3502 42.3918 49.34 42.498ZM46.3228 42.9141C46.2065 43.2534 46.2245 43.4116 46.3938 43.5369C46.5442 43.6482 46.5576 43.7301 46.4733 44.0217C46.3606 44.4108 46.4843 44.6725 46.7355 44.5766C46.8163 44.5456 46.8824 44.5742 46.8824 44.64C46.8824 44.7057 46.8455 44.7368 46.8002 44.709C46.6238 44.6004 46.4466 44.8189 46.5509 45.0164C46.6068 45.1222 46.6843 45.3997 46.7231 45.6331C46.7835 45.9959 46.8241 46.0495 47.0043 46.0026C47.1859 45.9553 47.2047 45.9815 47.1409 46.1935C47.0689 46.4332 47.071 46.4342 47.229 46.2341C47.4647 45.9355 47.441 45.6702 47.1788 45.6702C46.9961 45.6702 46.9813 45.6449 47.0884 45.5164C47.1927 45.3912 47.1876 45.3626 47.0605 45.3626C46.9747 45.3626 46.8778 45.2934 46.8451 45.2088C46.8053 45.1052 46.8501 45.055 46.9825 45.055C47.254 45.055 47.3429 44.8713 47.1717 44.6641C47.0807 44.5538 47.035 44.2742 47.0459 43.8934C47.0593 43.4248 47.0268 43.2824 46.8954 43.2342C46.8033 43.2002 46.6477 43.0824 46.5497 42.9724C46.4115 42.8174 46.3605 42.8042 46.3228 42.9141ZM36.0723 43.2226C36.0703 43.3707 36.1382 43.5493 36.2231 43.6196C36.4287 43.7894 36.4287 43.5674 36.2231 43.2094L36.076 42.9531L36.0723 43.2226ZM45.7496 43.7609C45.7496 43.7821 45.8114 43.8506 45.8868 43.913C45.9909 43.9988 46.0242 43.9895 46.0242 43.8743C46.0242 43.7906 45.9624 43.7221 45.8868 43.7221C45.8114 43.7221 45.7496 43.7395 45.7496 43.7609ZM36.219 44.0425C36.1808 44.1624 36.1955 44.2892 36.2517 44.3245C36.3079 44.3598 36.3769 44.4808 36.4052 44.5936C36.453 44.7839 36.4575 44.7825 36.4687 44.574C36.4753 44.4505 36.4324 44.3198 36.3734 44.2835C36.3145 44.2472 36.2944 44.1292 36.3289 44.0211C36.3633 43.913 36.3683 43.8246 36.34 43.8246C36.3117 43.8246 36.2572 43.9227 36.219 44.0425ZM28.6616 44.192C28.6666 44.3115 28.691 44.3358 28.7238 44.254C28.7536 44.18 28.7499 44.0915 28.7157 44.0575C28.6815 44.0234 28.6572 44.0839 28.6616 44.192ZM45.9114 44.3373C45.9977 44.6543 46.0165 44.676 46.1642 44.6269C46.2394 44.6019 46.2021 44.4949 46.0622 44.3342L45.8416 44.081L45.9114 44.3373ZM49.3112 44.3236C49.2668 44.395 49.2584 44.4812 49.2924 44.515C49.3845 44.6068 49.485 44.4718 49.4352 44.3232C49.4004 44.219 49.3761 44.219 49.3112 44.3236ZM49.6778 44.4286C49.5906 44.4836 49.5773 44.5408 49.6424 44.5809C49.7555 44.6505 49.6931 45.0301 49.5356 45.2309C49.4818 45.2994 49.4686 45.5365 49.5061 45.7578C49.5625 46.0903 49.6088 46.151 49.7732 46.1082C49.9227 46.0693 49.9721 46.1095 49.9721 46.2702C49.9721 46.4182 49.9245 46.4659 49.8176 46.4251C49.6362 46.3557 49.6127 46.5018 49.7787 46.667C49.9702 46.8577 50.1734 46.7038 50.1256 46.4043C50.1016 46.2543 50.0531 45.7279 50.0178 45.2344C49.9528 44.3268 49.9289 44.2702 49.6778 44.4286ZM49.3541 44.9525C49.3541 45.0089 49.4005 45.055 49.4571 45.055C49.5138 45.055 49.5601 45.0089 49.5601 44.9525C49.5601 44.8961 49.5138 44.85 49.4571 44.85C49.4005 44.85 49.3541 44.8961 49.3541 44.9525ZM36.4806 45.2088C36.4806 45.2934 36.5269 45.3626 36.5836 45.3626C36.6402 45.3626 36.6866 45.2934 36.6866 45.2088C36.6866 45.1242 36.6402 45.055 36.5836 45.055C36.5269 45.055 36.4806 45.1242 36.4806 45.2088ZM49.6332 45.4651C49.6037 45.5779 49.6214 45.6702 49.6728 45.6702C49.7241 45.6702 49.7661 45.5779 49.7661 45.4651C49.7661 45.3524 49.7483 45.2601 49.7267 45.2601C49.7049 45.2601 49.6629 45.3524 49.6332 45.4651ZM36.5552 45.6384C36.5286 45.6841 36.5937 45.8103 36.6998 45.9189C36.922 46.1463 36.9547 46.0168 36.7447 45.7409C36.6669 45.6389 36.5816 45.5928 36.5552 45.6384ZM30.7133 46.3879C30.7133 46.5018 30.7819 46.593 30.8677 46.593C30.9535 46.593 31.0222 46.5018 31.0222 46.3879C31.0222 46.274 30.9535 46.1829 30.8677 46.1829C30.7819 46.1829 30.7133 46.274 30.7133 46.3879ZM32.0602 46.4477C32.0652 46.5672 32.0896 46.5915 32.1224 46.5097C32.1522 46.4357 32.1485 46.3472 32.1143 46.3132C32.0801 46.2791 32.0558 46.3396 32.0602 46.4477ZM30.4043 46.4965C30.4043 46.5562 30.4506 46.5766 30.5073 46.5417C30.5639 46.5069 30.6103 46.4581 30.6103 46.4331C30.6103 46.4082 30.5639 46.3879 30.5073 46.3879C30.4506 46.3879 30.4043 46.4368 30.4043 46.4965ZM47.1595 46.5352C47.057 46.6126 47.016 46.7023 47.0685 46.7345C47.1209 46.7668 47.2468 46.702 47.348 46.5905C47.558 46.3595 47.4386 46.3245 47.1595 46.5352ZM47.3179 47.1466C47.2087 47.3851 47.2513 47.8234 47.3837 47.8234C47.4195 47.8234 47.4569 47.6157 47.4668 47.362C47.4766 47.1082 47.4724 46.9006 47.4575 46.9006C47.4426 46.9006 47.3798 47.0113 47.3179 47.1466ZM24.8429 47.3107C24.8429 47.5021 24.8704 47.5294 24.9665 47.4337C25.0626 47.3381 25.0626 47.2833 24.9665 47.1877C24.8704 47.092 24.8429 47.1193 24.8429 47.3107ZM28.6535 47.3107C28.6535 47.4235 28.6998 47.5158 28.7565 47.5158C28.8131 47.5158 28.8595 47.4235 28.8595 47.3107C28.8595 47.1979 28.8131 47.1057 28.7565 47.1057C28.6998 47.1057 28.6535 47.1979 28.6535 47.3107ZM49.9861 47.3756C49.9756 47.6174 50.0231 47.7102 50.178 47.7505C50.2911 47.78 50.4065 47.7676 50.4343 47.7229C50.462 47.6782 50.3965 47.6186 50.2886 47.5905C50.1807 47.5625 50.0718 47.4304 50.0463 47.297C50.0088 47.1001 49.9975 47.115 49.9861 47.3756ZM32.0757 47.33C32.0981 47.3969 32.1716 47.4699 32.2388 47.4923C32.3141 47.5173 32.3371 47.4704 32.2987 47.3706C32.2268 47.1842 32.0139 47.1454 32.0757 47.33ZM33.082 47.4011C33.082 47.4575 33.1283 47.5322 33.185 47.567C33.2416 47.6019 33.288 47.5843 33.288 47.5279C33.288 47.4715 33.2416 47.3968 33.185 47.362C33.1283 47.3271 33.082 47.3447 33.082 47.4011ZM33.5021 47.7806C33.507 47.9001 33.5314 47.9244 33.5643 47.8426C33.594 47.7686 33.5903 47.6801 33.5561 47.6461C33.522 47.6121 33.4976 47.6726 33.5021 47.7806ZM24.8511 47.8831C24.856 48.0026 24.8804 48.0269 24.9133 47.9452C24.943 47.8712 24.9393 47.7827 24.9051 47.7486C24.8709 47.7146 24.8466 47.7751 24.8511 47.8831ZM47.0756 48.2689C47.2321 48.5896 47.245 48.5961 47.2756 48.3697C47.2937 48.2365 47.3515 48.154 47.4044 48.1865C47.4572 48.219 47.5004 48.1918 47.5004 48.126C47.5004 48.0603 47.4323 48.0325 47.3492 48.0642C47.2661 48.096 47.1706 48.0779 47.1371 48.0239C46.9781 47.7678 46.9283 47.9664 47.0756 48.2689ZM24.8511 48.3958C24.856 48.5153 24.8804 48.5396 24.9133 48.4578C24.943 48.3838 24.9393 48.2953 24.9051 48.2613C24.8709 48.2272 24.8466 48.2877 24.8511 48.3958ZM26.6138 48.9C26.6159 49.0691 26.6389 49.1259 26.6651 49.0262C26.6912 48.9264 26.6895 48.788 26.6613 48.7186C26.6331 48.6492 26.6117 48.7308 26.6138 48.9ZM47.2603 49.0794C47.3274 49.4307 47.372 49.5257 47.4366 49.4554C47.5094 49.3762 47.3749 48.7462 47.2853 48.7462C47.2365 48.7462 47.2252 48.8962 47.2603 49.0794ZM47.6131 50.6686C47.6889 50.7674 47.7641 50.8673 47.7802 50.8908C47.7962 50.9143 47.8093 50.8335 47.8093 50.7114C47.8093 50.5748 47.745 50.4892 47.6423 50.4892C47.4992 50.4892 47.495 50.515 47.6131 50.6686ZM6.10676 51.7452C6.14301 52.0234 6.0943 52.1391 5.9703 52.0694C5.86813 52.012 5.86772 52.0252 5.96854 52.1335C6.03847 52.2084 6.11674 52.2488 6.14259 52.2231C6.24507 52.1211 6.28503 51.617 6.19069 51.617C6.13529 51.617 6.09749 51.6748 6.10676 51.7452ZM19.8046 51.8819C19.8096 52.0013 19.834 52.0256 19.8668 51.9439C19.8966 51.8699 19.8929 51.7814 19.8587 51.7474C19.8245 51.7133 19.8002 51.7738 19.8046 51.8819ZM10.4155 52.0528C10.4105 52.067 10.3857 52.2976 10.3605 52.5655C10.3231 52.9618 10.345 53.0525 10.4786 53.0525C10.5769 53.0525 10.613 53.0048 10.5688 52.9335C10.5283 52.8682 10.502 52.6375 10.5105 52.4209C10.5191 52.2043 10.5032 52.0272 10.4753 52.0272C10.4474 52.0272 10.4204 52.0387 10.4155 52.0528ZM40.2397 52.2322C40.2747 52.2886 40.3237 52.3348 40.3487 52.3348C40.3738 52.3348 40.3942 52.2886 40.3942 52.2322C40.3942 52.1758 40.345 52.1297 40.2851 52.1297C40.2252 52.1297 40.2047 52.1758 40.2397 52.2322ZM47.0884 52.26C47.0884 52.3454 47.1579 52.4419 47.2429 52.4744C47.3279 52.5068 47.3974 52.4943 47.3974 52.4466C47.3974 52.3989 47.3279 52.3025 47.2429 52.2322C47.1171 52.1284 47.0884 52.1335 47.0884 52.26ZM40.3427 53.4626C40.3777 53.519 40.4267 53.5651 40.4517 53.5651C40.4768 53.5651 40.4972 53.519 40.4972 53.4626C40.4972 53.4062 40.448 53.3601 40.3881 53.3601C40.3282 53.3601 40.3077 53.4062 40.3427 53.4626ZM10.3044 53.7107C10.1323 53.9406 10.0807 54.1103 10.1034 54.3723C10.1134 54.4875 10.1444 54.4893 10.2748 54.3815C10.3623 54.3092 10.4079 54.1824 10.3759 54.0996C10.3441 54.0169 10.3696 53.8875 10.4325 53.8119C10.4955 53.7364 10.531 53.6312 10.5116 53.5781C10.492 53.5251 10.3988 53.5847 10.3044 53.7107ZM43.4838 53.7813C43.4838 53.8814 43.533 53.9934 43.5932 54.0304C43.6533 54.0674 43.7532 54.2201 43.8153 54.3697C43.9131 54.6052 43.9344 54.6155 43.974 54.4466C44.0002 54.3356 43.9486 54.2118 43.8543 54.1592C43.7447 54.0982 43.7085 53.9878 43.7476 53.8332C43.7901 53.6643 43.7617 53.5993 43.6452 53.5993C43.5564 53.5993 43.4838 53.6812 43.4838 53.7813ZM47.4343 53.8553C47.4696 54.043 47.5643 54.3429 47.6446 54.5218C47.7251 54.7005 47.8146 54.916 47.8434 55.0006C47.8788 55.1039 47.8987 55.0844 47.9042 54.9408C47.9086 54.8233 47.8811 54.6961 47.8429 54.658C47.8047 54.6201 47.7626 54.4855 47.7492 54.3591C47.7057 53.9499 47.6452 53.7706 47.5063 53.641C47.3945 53.5366 47.3816 53.575 47.4343 53.8553ZM48.1183 53.8606C48.1183 53.917 48.1646 53.9917 48.2213 54.0265C48.2779 54.0614 48.3243 54.0438 48.3243 53.9874C48.3243 53.931 48.2779 53.8563 48.2213 53.8215C48.1646 53.7866 48.1183 53.8042 48.1183 53.8606ZM7.79834 53.9753C7.76333 54.0317 7.78382 54.0778 7.84376 54.0778C7.9037 54.0778 7.95282 54.0317 7.95282 53.9753C7.95282 53.9189 7.93243 53.8727 7.90741 53.8727C7.88238 53.8727 7.83336 53.9189 7.79834 53.9753ZM9.60064 54.5844C9.60064 54.6375 9.64698 54.7094 9.70363 54.7443C9.76027 54.7791 9.80661 54.7356 9.80661 54.6478C9.80661 54.5599 9.76027 54.4879 9.70363 54.4879C9.64698 54.4879 9.60064 54.5313 9.60064 54.5844ZM43.6495 54.6749C43.6132 54.7335 43.6337 54.8122 43.6949 54.85C43.848 54.9441 43.9022 54.8692 43.8001 54.7047C43.7453 54.6166 43.6923 54.606 43.6495 54.6749ZM7.71698 54.8981C7.74664 55.0108 7.78866 55.1031 7.81039 55.1031C7.83202 55.1031 7.84984 55.0108 7.84984 54.8981C7.84984 54.7853 7.80782 54.693 7.75653 54.693C7.70514 54.693 7.68743 54.7853 7.71698 54.8981ZM44.1099 55.1629C44.1148 55.2823 44.1392 55.3066 44.1721 55.2249C44.2018 55.1509 44.1981 55.0624 44.1639 55.0284C44.1298 54.9943 44.1054 55.0548 44.1099 55.1629ZM47.8768 55.355C47.8433 55.4418 47.9016 55.6628 48.0062 55.8463C48.1109 56.0296 48.2021 56.386 48.209 56.638C48.2242 57.1905 48.4882 57.9492 48.7632 58.2303L48.9637 58.4354L48.9069 58.2303C48.8757 58.1176 48.7758 57.7254 48.6848 57.3588C48.594 56.9923 48.4525 56.547 48.3705 56.3693C48.2884 56.1916 48.2213 55.9777 48.2213 55.894C48.2213 55.8103 48.1574 55.6193 48.0795 55.4696C47.9694 55.2585 47.924 55.2327 47.8768 55.355ZM36.4806 55.5072C36.4806 55.7548 36.5379 55.7797 36.6195 55.5678C36.6515 55.4851 36.6332 55.39 36.5791 55.3567C36.5249 55.3234 36.4806 55.3911 36.4806 55.5072ZM46.8824 55.4168C46.8824 55.4764 46.9288 55.4968 46.9854 55.462C47.0421 55.4271 47.0884 55.3783 47.0884 55.3534C47.0884 55.3285 47.0421 55.3082 46.9854 55.3082C46.9288 55.3082 46.8824 55.3571 46.8824 55.4168ZM9.9096 55.667C9.9096 55.808 9.92742 55.9234 9.94905 55.9234C9.97078 55.9234 10.0107 55.808 10.0378 55.667C10.0649 55.5261 10.0471 55.4107 9.99828 55.4107C9.94956 55.4107 9.9096 55.5261 9.9096 55.667ZM18.8181 55.6158C18.7831 55.6722 18.8036 55.7183 18.8635 55.7183C18.9235 55.7183 18.9726 55.6722 18.9726 55.6158C18.9726 55.5594 18.9522 55.5132 18.9272 55.5132C18.9021 55.5132 18.8531 55.5594 18.8181 55.6158ZM40.5368 56.0233C40.5342 56.4633 40.579 56.5039 40.6517 56.1277C40.6767 55.9993 40.6614 55.831 40.6181 55.7539C40.571 55.6702 40.5382 55.7789 40.5368 56.0233ZM43.9179 55.9571C43.931 56.1148 44.0009 56.2928 44.0732 56.3525C44.1455 56.4123 44.2047 56.6363 44.2047 56.8504C44.2047 57.2759 44.2864 57.5639 44.4069 57.5639C44.4494 57.5639 44.4792 57.4256 44.4731 57.2565C44.4671 57.0875 44.4334 56.9491 44.3981 56.9489C44.3629 56.9488 44.3035 56.7583 44.2661 56.5255C44.2287 56.2929 44.1298 56.0052 44.0461 55.8864C43.8972 55.6748 43.8945 55.6763 43.9179 55.9571ZM7.59236 55.9234C7.55735 55.9798 7.57784 56.0259 7.63778 56.0259C7.69772 56.0259 7.74685 55.9798 7.74685 55.9234C7.74685 55.867 7.72646 55.8208 7.70143 55.8208C7.67641 55.8208 7.62738 55.867 7.59236 55.9234ZM47.1539 55.974C47.1864 56.0583 47.2552 56.1013 47.3068 56.0695C47.4149 56.003 47.3282 55.8208 47.1885 55.8208C47.137 55.8208 47.1215 55.8897 47.1539 55.974ZM48.814 56.0773C48.8391 56.208 48.9443 56.337 49.0477 56.3639C49.1769 56.3975 49.2186 56.3685 49.1811 56.2713C49.1512 56.1933 49.0857 56.1548 49.0356 56.1856C48.9856 56.2164 48.9699 56.176 49.0008 56.0957C49.0317 56.0155 48.992 55.925 48.9127 55.8947C48.8078 55.8546 48.7808 55.9045 48.814 56.0773ZM9.45059 56.1214C9.38025 56.2347 9.54266 56.3571 9.63782 56.2623C9.73566 56.1648 9.71743 56.0259 9.60672 56.0259C9.55337 56.0259 9.48313 56.0689 9.45059 56.1214ZM56.9725 56.3284C57.0303 56.4358 57.0503 56.5945 57.0169 56.6811C56.9835 56.7677 57.0312 57.1365 57.123 57.5006C57.2147 57.8647 57.2812 58.201 57.2707 58.2478C57.2602 58.2946 57.2808 58.4021 57.3167 58.4867C57.4865 58.8879 57.5652 59.5045 57.4525 59.5505C57.3734 59.5829 57.3773 59.601 57.4645 59.6064C57.5353 59.6108 57.5932 59.716 57.5932 59.8401C57.5932 59.9944 57.6266 60.0324 57.699 59.9604C57.7691 59.8905 57.7723 59.6856 57.7081 59.3503C57.6551 59.0727 57.5569 58.4995 57.4897 58.0765C57.2523 56.58 57.1695 56.2484 57.0189 56.1909C56.8983 56.1448 56.8889 56.1727 56.9725 56.3284ZM7.48938 56.5386C7.45436 56.595 7.47485 56.6411 7.53479 56.6411C7.59473 56.6411 7.64386 56.595 7.64386 56.5386C7.64386 56.4822 7.62347 56.436 7.59844 56.436C7.57342 56.436 7.52439 56.4822 7.48938 56.5386ZM45.9791 56.7629C46.0016 56.8299 46.075 56.9029 46.1423 56.9252C46.2175 56.9502 46.2405 56.9033 46.2021 56.8035C46.1302 56.6171 45.9173 56.5783 45.9791 56.7629ZM9.40661 56.9743C9.41567 57.1499 9.42988 57.1619 9.46593 57.0244C9.49199 56.925 9.55604 56.87 9.60846 56.9022C9.66078 56.9344 9.70363 56.9119 9.70363 56.8522C9.70363 56.7925 9.63411 56.7436 9.54914 56.7436C9.45409 56.7436 9.3993 56.8323 9.40661 56.9743ZM47.2562 56.8951C47.2893 56.981 47.3925 57.0549 47.4856 57.0593C47.5925 57.0644 47.6074 57.0865 47.5261 57.1191C47.4554 57.1476 47.3974 57.2117 47.3974 57.2616C47.3974 57.3116 47.4674 57.3256 47.553 57.2929C47.6695 57.2484 47.6916 57.2815 47.6408 57.4243C47.5882 57.5724 47.6016 57.5889 47.7007 57.498C47.8592 57.3527 47.698 57.0063 47.3974 56.8462C47.2337 56.759 47.2073 56.7681 47.2562 56.8951ZM40.6001 57.393C40.6001 57.5998 40.6453 57.7689 40.7006 57.7689C40.7582 57.7689 40.7739 57.6271 40.7372 57.4357C40.6479 56.9685 40.6001 56.9536 40.6001 57.393ZM18.3547 57.3649C18.3547 57.4245 18.401 57.4449 18.4576 57.4101C18.5143 57.3752 18.5606 57.3264 18.5606 57.3015C18.5606 57.2766 18.5143 57.2563 18.4576 57.2563C18.401 57.2563 18.3547 57.3052 18.3547 57.3649ZM49.2705 57.5703C49.2952 57.6443 49.3764 57.7251 49.4508 57.7498C49.528 57.7754 49.5666 57.737 49.5409 57.6601C49.516 57.586 49.4349 57.5052 49.3606 57.4806C49.2834 57.455 49.2448 57.4934 49.2705 57.5703ZM18.3117 57.8577C18.2673 57.9292 18.2589 58.0153 18.2929 58.0492C18.385 58.1409 18.4855 58.006 18.4357 57.8573C18.4009 57.7532 18.3766 57.7532 18.3117 57.8577ZM47.444 57.8793C47.3563 58.0206 47.4448 58.1036 47.6366 58.0599C47.764 58.031 47.7663 58.0045 47.6501 57.8981C47.5555 57.8115 47.4899 57.8055 47.444 57.8793ZM44.4196 58.1736C44.3097 58.2412 44.3247 58.2835 44.4904 58.3717C44.6591 58.4617 44.6967 58.4542 44.679 58.3345C44.6473 58.1189 44.5782 58.076 44.4196 58.1736ZM40.8061 58.3781C40.8061 58.4312 40.8519 58.5028 40.908 58.5372C40.9663 58.5731 40.9836 58.532 40.9484 58.4407C40.88 58.2631 40.8061 58.2306 40.8061 58.3781ZM16.6937 58.7686C16.5656 58.9312 16.5692 58.9348 16.7326 58.8074C16.9042 58.6734 16.9586 58.5892 16.8739 58.5892C16.8526 58.5892 16.7714 58.6699 16.6937 58.7686ZM40.8262 58.9481C40.8283 59.1172 40.8513 59.174 40.8775 59.0743C40.9036 58.9745 40.9019 58.8361 40.8737 58.7667C40.8455 58.6973 40.8241 58.7789 40.8262 58.9481ZM6.48411 58.9879C6.4561 59.0945 6.47319 59.2445 6.52201 59.3212C6.58236 59.416 6.6113 59.3541 6.61243 59.1275C6.61418 58.7545 6.56073 58.6963 6.48411 58.9879ZM48.9619 58.8968C48.9907 58.9814 49.0971 59.3159 49.1983 59.6401C49.2996 59.9644 49.4179 60.2297 49.4613 60.2297C49.5492 60.2297 49.1145 58.9271 48.9889 58.8145C48.9452 58.7752 48.933 58.8122 48.9619 58.8968ZM17.8478 59.0591C17.8528 59.1786 17.8772 59.2029 17.91 59.1211C17.9398 59.0471 17.9361 58.9586 17.9019 58.9246C17.8677 58.8905 17.8434 58.951 17.8478 59.0591ZM16.6709 59.4191C16.48 59.6412 16.5144 59.9689 16.7214 59.9002C16.8182 59.8681 16.9726 59.2044 16.8834 59.2044C16.8681 59.2044 16.7725 59.301 16.6709 59.4191ZM49.8691 59.4155C49.8691 59.4752 49.9154 59.4956 49.9721 59.4607C50.0287 59.4259 50.0751 59.3771 50.0751 59.3521C50.0751 59.3272 50.0287 59.3069 49.9721 59.3069C49.9154 59.3069 49.8691 59.3558 49.8691 59.4155ZM59.8671 59.4692C59.872 59.5887 59.8964 59.613 59.9293 59.5313C59.9591 59.4572 59.9554 59.3687 59.9212 59.3347C59.887 59.3007 59.8627 59.3612 59.8671 59.4692ZM40.9172 59.8794C40.9222 59.9988 40.9466 60.0231 40.9794 59.9414C41.0092 59.8674 41.0055 59.7789 40.9713 59.7448C40.9371 59.7108 40.9128 59.7713 40.9172 59.8794ZM45.3376 59.8135C45.3376 59.8666 45.3839 59.9385 45.4406 59.9734C45.4972 60.0082 45.5436 59.9648 45.5436 59.8769C45.5436 59.789 45.4972 59.717 45.4406 59.717C45.3839 59.717 45.3376 59.7604 45.3376 59.8135ZM17.5589 60.5389C17.4467 61.104 17.5472 61.3167 17.7151 60.8692C17.9203 60.3221 17.929 60.2434 17.7959 60.1335C17.6899 60.046 17.6398 60.1316 17.5589 60.5389ZM16.5846 60.2997C16.6588 60.3294 16.7477 60.3257 16.7819 60.2916C16.8161 60.2576 16.7553 60.2334 16.6468 60.2378C16.5268 60.2427 16.5024 60.267 16.5846 60.2997ZM57.6757 60.4004C57.616 60.6297 57.6799 60.8449 57.8077 60.8449C57.9258 60.8449 57.9283 60.5321 57.8119 60.3492C57.7441 60.2427 57.7139 60.2541 57.6757 60.4004ZM45.5451 60.5056C45.5476 60.792 45.7114 60.9839 45.8936 60.9143C46.1292 60.8243 46.0975 60.6398 45.8465 60.6398C45.7299 60.6398 45.6611 60.5969 45.6936 60.5444C45.7263 60.4919 45.7058 60.42 45.6482 60.3845C45.5906 60.3492 45.5443 60.4036 45.5451 60.5056ZM45.1018 60.6398C45.1314 60.7526 45.1734 60.8449 45.1952 60.8449C45.2168 60.8449 45.2346 60.7526 45.2346 60.6398C45.2346 60.527 45.1926 60.4348 45.1413 60.4348C45.0899 60.4348 45.0722 60.527 45.1018 60.6398ZM40.9748 60.7936C41.0075 60.8782 41.0524 60.9474 41.0746 60.9474C41.0969 60.9474 41.1151 60.8782 41.1151 60.7936C41.1151 60.709 41.0702 60.6398 41.0153 60.6398C40.9605 60.6398 40.9423 60.709 40.9748 60.7936ZM49.6712 60.9047C49.6762 61.0241 49.7006 61.0484 49.7335 60.9667C49.7632 60.8927 49.7595 60.8042 49.7253 60.7701C49.6911 60.7361 49.6668 60.7966 49.6712 60.9047ZM59.859 60.8449C59.859 60.9013 59.9081 60.9474 59.968 60.9474C60.028 60.9474 60.0485 60.9013 60.0134 60.8449C59.9784 60.7885 59.9294 60.7424 59.9044 60.7424C59.8794 60.7424 59.859 60.7885 59.859 60.8449ZM16.3979 61.05C16.3979 61.1063 16.4442 61.1525 16.5009 61.1525C16.5575 61.1525 16.6038 61.1063 16.6038 61.05C16.6038 60.9936 16.5575 60.9474 16.5009 60.9474C16.4442 60.9474 16.3979 60.9936 16.3979 61.05ZM60.9918 61.056C60.9918 61.1157 61.0382 61.1361 61.0948 61.1012C61.1515 61.0664 61.1978 61.0176 61.1978 60.9926C61.1978 60.9677 61.1515 60.9474 61.0948 60.9474C61.0382 60.9474 60.9918 60.9963 60.9918 61.056ZM6.30501 61.1585C6.30501 61.2182 6.35136 61.2386 6.408 61.2038C6.46464 61.1689 6.51099 61.1201 6.51099 61.0952C6.51099 61.0703 6.46464 61.05 6.408 61.05C6.35136 61.05 6.30501 61.0989 6.30501 61.1585ZM19.1786 61.1525C19.1786 61.2089 19.2249 61.255 19.2815 61.255C19.3382 61.255 19.3845 61.2089 19.3845 61.1525C19.3845 61.0961 19.3382 61.05 19.2815 61.05C19.2249 61.05 19.1786 61.0961 19.1786 61.1525ZM7.43788 61.3576C7.43788 61.4703 7.4799 61.5626 7.53119 61.5626C7.58258 61.5626 7.60029 61.4703 7.57073 61.3576C7.54107 61.2448 7.49906 61.1525 7.47733 61.1525C7.4557 61.1525 7.43788 61.2448 7.43788 61.3576ZM49.799 61.4441C49.8347 61.6221 49.9578 61.9727 50.0725 62.2234C50.1872 62.4741 50.281 62.7713 50.281 62.8838C50.281 62.9964 50.3213 63.1133 50.3705 63.1435C50.4197 63.1738 50.489 63.3792 50.5244 63.5998C50.5598 63.8205 50.6586 64.0277 50.7439 64.0602C50.8292 64.0928 50.899 64.1058 50.899 64.0891C50.899 64.0725 50.6904 63.4942 50.4355 62.8042C50.1806 62.1141 49.9721 61.486 49.9721 61.4084C49.9721 61.3307 49.9185 61.2342 49.853 61.1939C49.7679 61.1415 49.7525 61.2129 49.799 61.4441ZM57.8634 61.43C57.9325 61.8094 58.0052 61.8629 58.0052 61.5345C58.0052 61.3874 57.9617 61.2404 57.9087 61.2077C57.8533 61.1736 57.834 61.2686 57.8634 61.43ZM48.8907 61.3576C48.9257 61.4139 48.9747 61.4601 48.9998 61.4601C49.0248 61.4601 49.0452 61.4139 49.0452 61.3576C49.0452 61.3012 48.9961 61.255 48.9361 61.255C48.8762 61.255 48.8557 61.3012 48.8907 61.3576ZM61.1978 61.3576C61.3298 61.4424 61.3261 61.4572 61.1721 61.4585C61.0729 61.4594 60.9918 61.5062 60.9918 61.5626C60.9918 61.6928 61.0585 61.6917 61.3105 61.5575C61.5382 61.4361 61.482 61.2542 61.2175 61.2566C61.0674 61.258 61.0646 61.2719 61.1978 61.3576ZM16.3979 61.6029C16.3979 61.6251 16.4674 61.6698 16.5524 61.7023C16.6373 61.7347 16.7068 61.7165 16.7068 61.662C16.7068 61.6073 16.6373 61.5626 16.5524 61.5626C16.4674 61.5626 16.3979 61.5808 16.3979 61.6029ZM17.3978 61.8706C17.3618 62.0077 17.2892 62.0553 17.1799 62.0134C17.0748 61.9734 17.0158 62.006 17.0158 62.1042C17.0158 62.1886 17.0738 62.2511 17.1445 62.2433C17.2154 62.2355 17.2818 62.2752 17.2922 62.3316C17.3027 62.388 17.2485 62.4214 17.1716 62.4058C16.9933 62.3697 16.9219 62.6885 17.0574 62.9154C17.1339 63.0436 17.1151 63.1398 16.9855 63.2824C16.8889 63.3886 16.8098 63.5773 16.8098 63.7014C16.8098 63.8257 16.7434 63.9526 16.6622 63.9837C16.5408 64.03 16.5207 64.3241 16.5489 65.6466C16.5677 66.5302 16.5904 67.3377 16.5992 67.4412C16.6081 67.5446 16.5085 67.7244 16.3779 67.8405L16.1404 68.0518L16.37 67.9959C16.5778 67.9452 16.6058 67.9873 16.6665 68.4424C16.757 69.1223 16.8701 69.077 16.8836 68.3553C16.9005 67.4582 17.0227 65.7254 17.0727 65.6756C17.0971 65.6514 17.0625 65.5661 16.9958 65.4861C16.9096 65.3827 16.9069 65.3207 16.9866 65.2716C17.0481 65.2336 17.1315 64.9839 17.1717 64.7167C17.2315 64.3199 17.2144 64.2192 17.0788 64.1674C16.9736 64.1271 16.9141 63.9859 16.9164 63.7817L16.9201 63.4594L17.0735 63.7158C17.2187 63.9585 17.2253 63.9367 17.1991 63.3057C17.1747 62.7201 17.1933 62.6429 17.351 62.6693C17.5022 62.6947 17.5307 62.6174 17.5307 62.1823C17.5307 61.6351 17.4868 61.532 17.3978 61.8706ZM41.1166 61.7873C41.1158 61.8826 41.1614 61.9891 41.2181 62.024C41.3484 62.1042 41.3484 61.9684 41.2181 61.7677C41.1321 61.6351 41.1181 61.6379 41.1166 61.7873ZM6.45527 61.9796C6.41788 62.0397 6.40944 62.111 6.43642 62.1378C6.46341 62.1647 6.51294 62.1155 6.54651 62.0284C6.61614 61.8478 6.55682 61.816 6.45527 61.9796ZM19.1786 61.9727C19.1786 62.0291 19.2249 62.0753 19.2815 62.0753C19.3382 62.0753 19.3845 62.0291 19.3845 61.9727C19.3845 61.9164 19.3382 61.8702 19.2815 61.8702C19.2249 61.8702 19.1786 61.9164 19.1786 61.9727ZM48.8392 62.057C48.8392 62.1316 49.3342 62.6905 49.4002 62.6905C49.4209 62.6905 49.391 62.5384 49.3338 62.3526C49.267 62.1364 49.1593 62.0094 49.0344 62.0001C48.9271 61.9921 48.8392 62.0177 48.8392 62.057ZM61.1978 62.1575C61.1978 62.3151 61.2434 62.359 61.3609 62.3141C61.4506 62.2798 61.4854 62.2231 61.4382 62.188C61.3909 62.1529 61.3175 62.0824 61.2751 62.0314C61.2326 61.9803 61.1978 62.0371 61.1978 62.1575ZM35.9657 62.511C35.9657 62.5909 36.0365 62.6563 36.123 62.6563C36.3011 62.6563 36.2747 62.4684 36.088 62.4063C36.0207 62.384 35.9657 62.4312 35.9657 62.511ZM11.7634 62.6221C11.7634 62.7171 11.8434 62.7923 11.9436 62.7915C12.0465 62.7905 12.0797 62.757 12.0209 62.7133C11.9642 62.6713 11.8832 62.595 11.8406 62.5441C11.7981 62.493 11.7634 62.5282 11.7634 62.6221ZM19.0802 62.61C19.0828 62.6825 19.1448 62.8801 19.218 63.0493L19.3512 63.3569L19.4022 63.0183C19.4412 62.7605 19.4083 62.6555 19.2646 62.5788C19.1266 62.5053 19.0768 62.5137 19.0802 62.61ZM45.4987 62.9256C45.5374 63.0267 45.595 63.0836 45.6267 63.052C45.6584 63.0205 45.6268 62.9378 45.5564 62.8682C45.4546 62.7677 45.4429 62.7795 45.4987 62.9256ZM19.1338 63.5C19.1023 63.5505 19.146 63.6182 19.2307 63.6506C19.3241 63.6863 19.3845 63.6503 19.3845 63.5588C19.3845 63.3929 19.2236 63.3552 19.1338 63.5ZM44.4944 63.5807C44.5687 63.6104 44.6576 63.6067 44.6918 63.5726C44.726 63.5386 44.6652 63.5144 44.5566 63.5188C44.4367 63.5237 44.4123 63.548 44.4944 63.5807ZM7.70957 63.767C7.67702 63.8516 7.69525 63.9208 7.75004 63.9208C7.80493 63.9208 7.84984 63.8516 7.84984 63.767C7.84984 63.6825 7.83161 63.6132 7.80936 63.6132C7.78712 63.6132 7.74221 63.6825 7.70957 63.767ZM11.8905 63.858C11.8134 64.0261 11.8065 64.1259 11.8718 64.1259C11.9971 64.1259 12.1072 63.871 12.0525 63.7076C12.0308 63.6429 11.9579 63.7105 11.8905 63.858ZM49.7258 63.8003C49.6895 63.8588 49.71 63.9376 49.7713 63.9753C49.9243 64.0694 49.9785 63.9946 49.8764 63.83C49.8216 63.7419 49.7686 63.7314 49.7258 63.8003ZM52.8108 63.8484C52.8496 63.9494 52.9071 64.0064 52.9389 63.9748C52.9706 63.9433 52.939 63.8606 52.8685 63.7909C52.7668 63.6905 52.755 63.7022 52.8108 63.8484ZM19.0729 64.1297C18.9702 64.1943 18.9628 64.2258 19.0498 64.2269C19.1207 64.2277 19.167 64.2803 19.1528 64.3438C19.1386 64.4073 19.185 64.4803 19.2558 64.5061C19.3977 64.558 19.4259 64.3495 19.303 64.157C19.2513 64.076 19.1729 64.0667 19.0729 64.1297ZM52.7528 64.2284C52.7528 64.2848 52.8482 64.331 52.9648 64.331C53.0814 64.331 53.1482 64.2848 53.1132 64.2284C53.0782 64.172 52.9828 64.1259 52.9012 64.1259C52.8195 64.1259 52.7528 64.172 52.7528 64.2284ZM39.2613 64.4335C39.2613 64.562 39.3706 64.562 39.5703 64.4335C39.6952 64.3531 39.6803 64.3338 39.493 64.3325C39.3656 64.3317 39.2613 64.3771 39.2613 64.4335ZM35.0935 64.6686C35.0494 64.7697 35.0423 64.8813 35.0775 64.9164C35.1821 65.0205 35.2665 64.8743 35.2183 64.6722C35.1756 64.4931 35.1701 64.493 35.0935 64.6686ZM11.9694 64.7471C11.9694 64.8068 12.0157 64.8272 12.0724 64.7924C12.129 64.7575 12.1753 64.7087 12.1753 64.6838C12.1753 64.6589 12.129 64.6386 12.0724 64.6386C12.0157 64.6386 11.9694 64.6875 11.9694 64.7471ZM53.2698 64.8974C53.3414 64.9833 53.4213 65.0325 53.4472 65.0068C53.5186 64.9356 53.3735 64.7411 53.2491 64.7411C53.1807 64.7411 53.1885 64.8 53.2698 64.8974ZM9.93175 65.3307C10.0181 65.4294 10.1142 65.5793 10.1456 65.6639C10.1786 65.7536 10.2057 65.7047 10.2104 65.5467C10.2152 65.3884 10.1508 65.2498 10.0556 65.2135C9.79313 65.1132 9.7648 65.1399 9.93175 65.3307ZM35.0903 65.2538C35.1253 65.3101 35.2002 65.3563 35.2569 65.3563C35.3135 65.3563 35.3313 65.3101 35.2962 65.2538C35.2612 65.1974 35.1862 65.1512 35.1296 65.1512C35.073 65.1512 35.0552 65.1974 35.0903 65.2538ZM70.2951 65.3005C70.2951 65.3826 70.3345 65.4256 70.3826 65.396C70.4307 65.3663 70.4435 65.2992 70.4108 65.2467C70.3276 65.1126 70.2951 65.1276 70.2951 65.3005ZM53.4769 65.305C53.4769 65.3614 53.5218 65.4768 53.5767 65.5614C53.6316 65.6459 53.6765 65.669 53.6765 65.6126C53.6765 65.5562 53.6316 65.4409 53.5767 65.3563C53.5218 65.2717 53.4769 65.2486 53.4769 65.305ZM11.8471 65.5288C11.9214 65.5585 12.0103 65.5548 12.0444 65.5207C12.0786 65.4867 12.0179 65.4625 11.9093 65.4669C11.7893 65.4718 11.7649 65.4961 11.8471 65.5288ZM50.281 65.4991C50.281 65.5964 50.5893 65.6454 50.6443 65.5568C50.6778 65.5029 50.6097 65.4588 50.4931 65.4588C50.3765 65.4588 50.281 65.477 50.281 65.4991ZM35.1857 66.0177C35.1898 66.2067 35.228 66.34 35.2705 66.3141C35.3748 66.2505 35.3689 65.7916 35.263 65.7263C35.2163 65.6977 35.1816 65.8288 35.1857 66.0177ZM61.5583 65.7664C61.5933 65.8228 61.6423 65.8689 61.6673 65.8689C61.6924 65.8689 61.7127 65.8228 61.7127 65.7664C61.7127 65.71 61.6636 65.6639 61.6037 65.6639C61.5438 65.6639 61.5233 65.71 61.5583 65.7664ZM51.4139 65.8689C51.4139 65.9253 51.4603 65.9715 51.5169 65.9715C51.5735 65.9715 51.6199 65.9253 51.6199 65.8689C51.6199 65.8126 51.5735 65.7664 51.5169 65.7664C51.4603 65.7664 51.4139 65.8126 51.4139 65.8689ZM50.6497 65.9581C50.6181 66.0091 50.6613 66.1077 50.7456 66.1775C50.8703 66.2805 50.899 66.2743 50.899 66.1438C50.899 65.9525 50.731 65.8273 50.6497 65.9581ZM7.74685 66.1765C7.74685 66.2893 7.7005 66.3816 7.64386 66.3816C7.58722 66.3816 7.54087 66.4201 7.54087 66.467C7.54087 66.6975 7.83696 66.5154 7.87434 66.262C7.89783 66.1022 7.87888 65.9715 7.83202 65.9715C7.78516 65.9715 7.74685 66.0638 7.74685 66.1765ZM9.80661 66.0801C9.80661 66.1397 9.85296 66.1601 9.9096 66.1253C9.96625 66.0904 10.0126 66.0416 10.0126 66.0167C10.0126 65.9918 9.96625 65.9715 9.9096 65.9715C9.85296 65.9715 9.80661 66.0204 9.80661 66.0801ZM51.1138 66.0227C51.1245 66.2169 51.2961 66.544 51.3021 66.3816C51.3053 66.297 51.2628 66.1586 51.2079 66.074C51.153 65.9894 51.1106 65.9664 51.1138 66.0227ZM53.7054 66.1419C53.5581 66.201 53.5304 66.3816 53.6686 66.3816C53.7192 66.3816 53.7873 66.3124 53.8199 66.2278C53.8525 66.1432 53.8691 66.0777 53.8567 66.0821C53.8442 66.0865 53.7763 66.1135 53.7054 66.1419ZM48.4273 66.3816C48.4273 66.438 48.4736 66.4841 48.5302 66.4841C48.5869 66.4841 48.6332 66.438 48.6332 66.3816C48.6332 66.3252 48.5869 66.2791 48.5302 66.2791C48.4736 66.2791 48.4273 66.3252 48.4273 66.3816ZM35.1952 67.125C35.2774 67.7323 35.2909 67.7616 35.4441 67.6672C35.5215 67.6198 35.5221 67.5397 35.4462 67.3986C35.3869 67.2881 35.3665 67.152 35.4011 67.0962C35.4863 66.9592 35.3598 66.5867 35.2282 66.5867C35.16 66.5867 35.1483 66.7781 35.1952 67.125ZM45.1347 66.6892C45.1348 66.866 45.3068 67.1684 45.3662 67.0963C45.3882 67.0698 45.345 66.9327 45.2704 66.7917C45.1956 66.6504 45.1347 66.6044 45.1347 66.6892ZM11.916 66.8686C11.772 67.2111 11.6877 67.8218 11.7768 67.8766C11.8261 67.9069 11.8664 67.8828 11.8664 67.8231C11.8664 67.7634 11.9359 67.7145 12.0209 67.7145C12.1058 67.7145 12.1753 67.6656 12.1753 67.6059C12.1753 67.5463 12.129 67.5259 12.0724 67.5607C12.0157 67.5956 11.9694 67.5549 11.9694 67.4703C11.9694 67.3857 12.015 67.2884 12.0708 67.254C12.1818 67.1858 12.1732 66.6892 12.0609 66.6892C12.0227 66.6892 11.9574 66.7699 11.916 66.8686ZM39.4286 66.8735C39.4007 66.9186 39.4169 67.0181 39.4645 67.0949C39.5122 67.1717 39.5256 67.3009 39.4942 67.3821C39.447 67.505 39.4717 67.5084 39.6418 67.4027C39.8128 67.2964 39.8278 67.2361 39.734 67.0344C39.6179 66.7852 39.5166 66.7317 39.4286 66.8735ZM26.6009 67.125C26.597 67.2801 26.6401 67.4069 26.6967 67.4069C26.8176 67.4069 26.8176 67.3281 26.6967 67.0481C26.6182 66.8664 26.6074 66.8751 26.6009 67.125ZM17.7367 67.0993C17.7367 67.1557 17.7831 67.2019 17.8397 67.2019C17.8964 67.2019 17.9427 67.1557 17.9427 67.0993C17.9427 67.0429 17.8964 66.9968 17.8397 66.9968C17.7831 66.9968 17.7367 67.0429 17.7367 67.0993ZM53.8501 67.125C53.8764 67.1672 53.9645 67.2019 54.0462 67.2019C54.1371 67.2019 54.1946 67.3045 54.1946 67.4667C54.1946 67.6124 54.2444 67.715 54.3053 67.6948C54.4362 67.6515 54.4374 67.6401 54.3492 67.2901C54.2983 67.0883 54.2201 67.0231 54.0417 67.0338C53.91 67.0416 53.8238 67.0827 53.8501 67.125ZM5.65824 67.2359C5.54351 67.5264 5.56226 67.6747 5.69676 67.5408C5.75866 67.4792 5.79213 67.343 5.77092 67.2383C5.73384 67.0548 5.72982 67.0547 5.65824 67.2359ZM51.0418 67.337C51.075 67.46 51.1028 67.5954 51.1035 67.6376C51.1043 67.6799 51.2236 67.7145 51.3685 67.7145C51.5208 67.7145 51.6048 67.6705 51.5674 67.6103C51.5317 67.553 51.4522 67.5371 51.3905 67.5751C51.318 67.6197 51.2982 67.5691 51.3342 67.4318C51.3744 67.2789 51.333 67.2047 51.1858 67.1664C51.0171 67.1225 50.9921 67.1521 51.0418 67.337ZM26.6727 67.7107C26.6266 67.8746 26.6545 68.0216 26.7523 68.1291C26.8352 68.2204 26.8721 68.3259 26.8343 68.3636C26.7964 68.4014 26.8136 68.4322 26.8726 68.4322C26.9316 68.4322 26.9799 68.3169 26.9799 68.1759C26.9799 68.0349 26.9426 67.9196 26.897 67.9196C26.8514 67.9196 26.7983 67.8157 26.779 67.6889C26.7445 67.4613 26.7431 67.4616 26.6727 67.7107ZM7.79834 67.7145C7.76333 67.7709 7.78382 67.817 7.84376 67.817C7.9037 67.817 7.95282 67.7709 7.95282 67.7145C7.95282 67.6581 7.93243 67.612 7.90741 67.612C7.88238 67.612 7.83336 67.6581 7.79834 67.7145ZM21.2383 67.7718C21.2383 67.8597 21.2847 67.9032 21.3413 67.8683C21.398 67.8334 21.4443 67.7616 21.4443 67.7085C21.4443 67.6554 21.398 67.612 21.3413 67.612C21.2847 67.612 21.2383 67.684 21.2383 67.7718ZM39.5348 67.8382C39.5022 67.9626 39.4967 68.0857 39.5229 68.1116C39.5489 68.1376 39.5703 68.1023 39.5703 68.0332C39.5703 67.9641 39.6123 67.9333 39.6637 67.9649C39.715 67.9966 39.7328 67.93 39.7031 67.8171C39.6345 67.556 39.6082 67.5593 39.5348 67.8382ZM48.7283 67.6376C48.6631 67.8498 48.6707 68.0221 48.7453 68.0221C48.797 68.0221 48.8392 67.9298 48.8392 67.817C48.8392 67.6522 48.7622 67.5275 48.7283 67.6376ZM41.9471 68.0819C41.9521 68.2013 41.9765 68.2256 42.0093 68.1439C42.0391 68.0699 42.0354 67.9814 42.0012 67.9474C41.967 67.9133 41.9427 67.9738 41.9471 68.0819ZM45.5084 68.0681C45.4701 68.1673 45.5005 68.1978 45.5997 68.1599C45.6815 68.1287 45.7228 68.0619 45.6914 68.0113C45.6125 67.8842 45.5748 67.8959 45.5084 68.0681ZM51.573 68.2435C51.6288 68.6811 51.7705 68.8097 51.9741 68.6069C52.1206 68.461 52.1165 68.4402 51.9292 68.3811C51.8157 68.3452 51.7229 68.2525 51.7229 68.1751C51.7229 68.0976 51.6798 68.0077 51.6272 67.9753C51.5729 67.9419 51.5496 68.0581 51.573 68.2435ZM51.9289 68.0282C51.9289 68.0878 51.9752 68.1082 52.0318 68.0734C52.0885 68.0385 52.1348 67.9897 52.1348 67.9648C52.1348 67.9399 52.0885 67.9196 52.0318 67.9196C51.9752 67.9196 51.9289 67.9685 51.9289 68.0282ZM54.28 68.295C54.3215 68.6489 54.331 68.6575 54.4449 68.4456C54.5114 68.3219 54.6055 68.2568 54.654 68.3009C54.7026 68.3449 54.7118 68.2965 54.6744 68.1931C54.6371 68.0899 54.6066 67.986 54.6066 67.9624C54.6066 67.9388 54.5231 67.9196 54.4213 67.9196C54.2686 67.9196 54.2437 67.9856 54.28 68.295ZM7.81554 68.193C7.77774 68.2306 7.74685 68.309 7.74685 68.3673C7.74685 68.4315 7.79484 68.4255 7.86868 68.352C7.93573 68.2852 7.96662 68.2068 7.93737 68.1776C7.90812 68.1485 7.85323 68.1554 7.81554 68.193ZM16.406 68.2869C16.4109 68.4064 16.4354 68.4307 16.4682 68.349C16.498 68.2749 16.4943 68.1865 16.4601 68.1524C16.4259 68.1184 16.4016 68.1789 16.406 68.2869ZM39.5366 68.301C39.4571 68.4291 39.5706 68.8424 39.6853 68.8424C39.801 68.8424 39.8006 68.5268 39.6846 68.3444C39.6358 68.2678 39.5693 68.2483 39.5366 68.301ZM11.7445 68.6165C11.6801 69.0534 11.8003 70.0439 11.8992 69.8917C11.9457 69.8202 12.0267 69.7883 12.0795 69.8208C12.2228 69.909 12.1891 69.7406 12.0184 69.516C11.8862 69.3419 11.8871 69.2972 12.0261 69.1441C12.169 68.987 12.1664 68.9633 11.9995 68.899C11.8231 68.8309 11.8234 68.8214 12.0054 68.688C12.2054 68.5415 12.1569 68.3297 11.9234 68.3297C11.8483 68.3297 11.7677 68.4587 11.7445 68.6165ZM45.7085 68.6031C45.8032 68.996 45.8525 69.0331 45.8525 68.7117C45.8525 68.5646 45.8043 68.4147 45.7454 68.3784C45.6752 68.3352 45.6624 68.4125 45.7085 68.6031ZM7.64386 68.6761C7.64386 68.7537 7.70699 68.8694 7.78423 68.9332C7.89783 69.0271 7.91523 69.0002 7.87517 68.792C7.82347 68.5224 7.64386 68.4323 7.64386 68.6761ZM26.8512 68.7398C26.8862 68.7962 26.9352 68.8424 26.9603 68.8424C26.9853 68.8424 27.0057 68.7962 27.0057 68.7398C27.0057 68.6834 26.9565 68.6373 26.8966 68.6373C26.8367 68.6373 26.8162 68.6834 26.8512 68.7398ZM40.6516 68.7398C40.6866 68.7962 40.7357 68.8424 40.7607 68.8424C40.7857 68.8424 40.8061 68.7962 40.8061 68.7398C40.8061 68.6834 40.757 68.6373 40.6971 68.6373C40.6371 68.6373 40.6166 68.6834 40.6516 68.7398ZM45.0286 68.7398C45.0286 68.7962 45.0778 68.8424 45.1377 68.8424C45.1976 68.8424 45.2181 68.7962 45.1831 68.7398C45.1481 68.6834 45.0991 68.6373 45.0741 68.6373C45.049 68.6373 45.0286 68.6834 45.0286 68.7398ZM5.4811 68.9009C5.4811 68.9647 5.75227 69.2525 5.81231 69.2525C5.8326 69.2525 5.85618 69.1602 5.86473 69.0474C5.87534 68.9076 5.81674 68.8424 5.68069 68.8424C5.57091 68.8424 5.4811 68.8687 5.4811 68.9009ZM31.6402 68.9449C31.6402 69.0013 31.6893 69.0474 31.7492 69.0474C31.8092 69.0474 31.8296 69.0013 31.7946 68.9449C31.7596 68.8885 31.7106 68.8424 31.6856 68.8424C31.6605 68.8424 31.6402 68.8885 31.6402 68.9449ZM49.001 69.0034C48.792 69.2116 48.7927 69.3948 49.0021 69.3147C49.0917 69.2805 49.2076 69.2525 49.2596 69.2525C49.3116 69.2525 49.3541 69.1602 49.3541 69.0474C49.3541 68.801 49.221 68.7844 49.001 69.0034ZM17.9608 69.2113C18.0015 69.5544 18.2047 69.6475 18.2807 69.3579C18.3183 69.215 18.2704 69.1123 18.1318 69.0384C17.9487 68.9409 17.931 68.9587 17.9608 69.2113ZM26.9292 69.6882C26.9479 70.2464 26.9902 70.4316 27.0989 70.4316C27.1784 70.4316 27.2554 70.3506 27.27 70.2517C27.2847 70.1527 27.2563 70.0965 27.2071 70.1268C27.1579 70.157 27.1222 70.0765 27.1277 69.9479C27.1524 69.374 27.1005 68.9449 27.0064 68.9449C26.9457 68.9449 26.9143 69.2477 26.9292 69.6882ZM40.7546 69.0474C40.7896 69.1038 40.8387 69.15 40.8637 69.15C40.8887 69.15 40.9091 69.1038 40.9091 69.0474C40.9091 68.991 40.86 68.9449 40.8 68.9449C40.7401 68.9449 40.7196 68.991 40.7546 69.0474ZM52.0061 69.0155C51.9069 69.0414 51.8259 69.1053 51.8259 69.1574C51.8259 69.3023 51.9913 69.2708 52.1348 69.0987C52.2054 69.0141 52.2458 68.9502 52.2246 68.9568C52.2036 68.9633 52.1053 68.9898 52.0061 69.0155ZM16.2949 69.3038C16.2949 69.3921 16.3878 69.4576 16.5134 69.4576C16.6961 69.4576 16.711 69.4322 16.6038 69.3038C16.5333 69.2192 16.4349 69.15 16.3853 69.15C16.3356 69.15 16.2949 69.2192 16.2949 69.3038ZM39.4673 69.2525C39.4673 69.3089 39.5136 69.355 39.5703 69.355C39.6269 69.355 39.6732 69.3089 39.6732 69.2525C39.6732 69.1961 39.6269 69.15 39.5703 69.15C39.5136 69.15 39.4673 69.1961 39.4673 69.2525ZM31.5589 69.3955C31.6959 69.5431 31.8461 69.5188 31.8461 69.349C31.8461 69.2959 31.7516 69.2525 31.6361 69.2525C31.4616 69.2525 31.4485 69.2767 31.5589 69.3955ZM52.0481 69.5601C52.0481 69.7011 52.0715 69.7588 52.1 69.6882C52.1287 69.6178 52.1287 69.5025 52.1 69.4319C52.0715 69.3615 52.0481 69.4191 52.0481 69.5601ZM21.1955 69.6803C21.0093 69.788 21.0083 69.8017 21.1779 69.9251C21.323 70.0307 21.3354 70.097 21.2429 70.2694C21.1498 70.4426 21.1579 70.4829 21.2862 70.4829C21.405 70.4829 21.4443 70.3679 21.4443 70.0215C21.4443 69.7677 21.4328 69.5615 21.4186 69.5632C21.4043 69.5649 21.304 69.6176 21.1955 69.6803ZM39.4673 69.6626C39.4673 69.719 39.5252 69.7537 39.596 69.7395C39.6853 69.7218 39.7187 69.8482 39.705 70.152C39.6936 70.4045 39.7264 70.5648 39.7822 70.5304C39.9506 70.4269 39.8972 69.6914 39.7163 69.6223C39.4965 69.5383 39.4673 69.5431 39.4673 69.6626ZM46.832 69.661C46.7964 69.7183 46.8185 69.7651 46.881 69.7651C46.954 69.7651 46.9742 69.903 46.9375 70.1496C46.8949 70.4357 46.905 70.4816 46.9771 70.3291C47.0303 70.2163 47.0772 70.0229 47.0812 69.8994C47.0892 69.6494 46.9323 69.4993 46.832 69.661ZM16.2949 69.8104C16.2949 70.0273 16.4692 70.0977 16.5415 69.9099C16.6296 69.6815 16.6226 69.6626 16.4494 69.6626C16.3644 69.6626 16.2949 69.7291 16.2949 69.8104ZM45.3523 69.7556C45.2487 69.8197 45.2439 69.8612 45.3335 69.9164C45.4748 70.0033 45.5809 69.9263 45.5285 69.7749C45.5071 69.7127 45.4344 69.7049 45.3523 69.7556ZM7.54087 69.925C7.54087 70.0129 7.58722 70.0563 7.64386 70.0215C7.7005 69.9866 7.74685 69.9147 7.74685 69.8616C7.74685 69.8085 7.7005 69.7651 7.64386 69.7651C7.58722 69.7651 7.54087 69.8371 7.54087 69.925ZM17.9999 70.1464C17.9189 70.3561 18.0854 70.3716 18.3271 70.1768L18.5562 69.9921L18.3021 70.0068C18.1625 70.0149 18.0264 70.0777 17.9999 70.1464ZM48.1487 70.2603C48.1411 70.3545 48.0207 70.8329 47.881 71.3235C47.7414 71.814 47.6458 72.234 47.6685 72.2567C47.6914 72.2793 47.6416 72.4292 47.5579 72.5898C47.4117 72.8703 47.4855 73.1487 47.706 73.1487C47.8048 73.1487 47.9436 72.5694 47.9339 72.1985C47.9298 72.0426 47.9644 71.9383 48.0109 71.9668C48.1006 72.0221 48.1987 71.6466 48.2913 70.893C48.3224 70.6392 48.3952 70.402 48.453 70.3657C48.5142 70.3273 48.4755 70.2559 48.3602 70.1944C48.2027 70.1106 48.1596 70.124 48.1487 70.2603ZM11.7261 70.4316C11.7588 70.5162 11.8037 70.5854 11.8259 70.5854C11.8482 70.5854 11.8664 70.5162 11.8664 70.4316C11.8664 70.347 11.8215 70.2778 11.7666 70.2778C11.7118 70.2778 11.6936 70.347 11.7261 70.4316ZM45.0769 70.4727C45.111 70.5798 45.0735 70.7311 44.9932 70.8111C44.8761 70.9277 44.8726 70.9897 44.9753 71.1295C45.1311 71.3416 45.278 71.3584 45.1996 71.1552C45.1683 71.0739 45.1823 70.8695 45.2308 70.7013C45.2982 70.4672 45.2832 70.3815 45.1671 70.3372C45.0555 70.2945 45.0315 70.3305 45.0769 70.4727ZM7.75406 70.8613C7.75014 70.9849 7.7005 71.1145 7.64386 71.1493C7.58722 71.1842 7.54087 71.2979 7.54087 71.4021C7.54087 71.541 7.59576 71.5772 7.74685 71.5379C7.96549 71.481 8.00638 71.2045 7.84984 70.8417C7.76446 70.644 7.76106 70.6448 7.75406 70.8613ZM18.1114 70.8417C18.144 70.9263 18.1833 70.9955 18.1986 70.9955C18.2139 70.9955 18.2841 70.9263 18.3547 70.8417C18.4617 70.7134 18.4472 70.6879 18.2675 70.6879C18.1184 70.6879 18.0704 70.7352 18.1114 70.8417ZM21.0323 70.9539C21.0323 71.0332 21.125 71.0981 21.2383 71.0981C21.3516 71.0981 21.4443 71.0572 21.4443 71.0075C21.4443 70.9577 21.3516 70.8928 21.2383 70.8633C21.1044 70.8284 21.0323 70.8602 21.0323 70.9539ZM44.5137 70.893C44.5137 70.9494 44.56 70.9955 44.6167 70.9955C44.6733 70.9955 44.7197 70.9494 44.7197 70.893C44.7197 70.8366 44.6733 70.7905 44.6167 70.7905C44.56 70.7905 44.5137 70.8366 44.5137 70.893ZM39.6217 71.0981C39.6568 71.1544 39.7058 71.2006 39.7308 71.2006C39.7558 71.2006 39.7762 71.1544 39.7762 71.0981C39.7762 71.0417 39.7271 70.9955 39.6672 70.9955C39.6072 70.9955 39.5867 71.0417 39.6217 71.0981ZM11.7634 71.255C11.7634 71.3379 11.8329 71.4057 11.9179 71.4057C12.0028 71.4057 12.0724 71.3644 12.0724 71.3141C12.0724 71.2638 12.0028 71.196 11.9179 71.1635C11.8237 71.1276 11.7634 71.1634 11.7634 71.255ZM18.1487 71.8158C18.1487 72.2293 18.1827 72.5338 18.2242 72.4925C18.3026 72.4145 18.277 71.1917 18.1952 71.1102C18.1696 71.0847 18.1487 71.4023 18.1487 71.8158ZM55.5688 71.1717C55.6964 71.2037 55.7417 71.2834 55.7072 71.4149C55.6789 71.5224 55.7009 71.6383 55.7561 71.6722C55.8113 71.7062 55.8316 71.7985 55.8012 71.8774C55.7687 71.9617 55.8107 72.0208 55.9032 72.0208C55.9898 72.0208 56.0319 71.9747 55.9969 71.9183C55.9619 71.8619 55.9769 71.8158 56.0303 71.8158C56.0837 71.8158 56.1516 71.9081 56.1812 72.0208C56.2177 72.1599 56.1843 72.2259 56.0776 72.2259C55.9713 72.2259 55.95 72.2674 56.0122 72.3541C56.0629 72.4246 56.0987 72.6091 56.0918 72.7642C56.0847 72.9193 56.1235 73.0462 56.1777 73.0462C56.232 73.0462 56.2497 73.1154 56.2171 73.2C56.1797 73.2971 56.2184 73.3538 56.3222 73.3538C56.4568 73.3538 56.4746 73.2781 56.4196 72.936C56.3702 72.629 56.3845 72.5381 56.4736 72.593C56.6477 72.7 56.4977 71.8383 56.3098 71.6512C56.2301 71.5719 56.1391 71.4265 56.1076 71.3281C56.0699 71.2103 55.9358 71.145 55.7147 71.1367C55.5301 71.1297 55.4643 71.1455 55.5688 71.1717ZM5.59223 71.3629C5.59717 71.4823 5.62158 71.5066 5.65443 71.4249C5.68419 71.3509 5.68049 71.2624 5.6463 71.2284C5.6121 71.1943 5.5878 71.2548 5.59223 71.3629ZM44.5137 71.3544C44.5137 71.439 44.56 71.5082 44.6167 71.5082C44.6733 71.5082 44.7197 71.439 44.7197 71.3544C44.7197 71.2698 44.6733 71.2006 44.6167 71.2006C44.56 71.2006 44.5137 71.2698 44.5137 71.3544ZM15.162 71.7132C15.162 71.7696 15.2084 71.8158 15.265 71.8158C15.3216 71.8158 15.368 71.7696 15.368 71.7132C15.368 71.6569 15.3216 71.6107 15.265 71.6107C15.2084 71.6107 15.162 71.6569 15.162 71.7132ZM7.69535 71.9183C7.73037 71.9747 7.77939 72.0208 7.80442 72.0208C7.82945 72.0208 7.84984 71.9747 7.84984 71.9183C7.84984 71.8619 7.80071 71.8158 7.74077 71.8158C7.68083 71.8158 7.66034 71.8619 7.69535 71.9183ZM11.3514 71.9696C11.3514 72.0542 11.3978 72.1234 11.4544 72.1234C11.5111 72.1234 11.5574 72.0542 11.5574 71.9696C11.5574 71.885 11.5111 71.8158 11.4544 71.8158C11.3978 71.8158 11.3514 71.885 11.3514 71.9696ZM11.6604 72.0428C11.6604 72.1556 11.737 72.2259 11.86 72.2259C11.9881 72.2259 12.0546 72.1604 12.0457 72.0428C12.038 71.9398 11.9506 71.8598 11.8461 71.8598C11.7365 71.8598 11.6604 71.9347 11.6604 72.0428ZM21.0405 72.0433C21.0342 72.2571 21.0703 72.3075 21.1955 72.2596C21.2852 72.2254 21.3153 72.1692 21.2624 72.1348C21.2095 72.1003 21.1398 72.0029 21.1074 71.9183C21.0728 71.8279 21.0452 71.8794 21.0405 72.0433ZM16.1919 72.0208C16.1102 72.0711 16.0666 72.1353 16.0949 72.1635C16.1232 72.1917 16.2132 72.1736 16.2949 72.1234C16.3766 72.0731 16.4202 72.0089 16.3919 71.9808C16.3636 71.9526 16.2736 71.9706 16.1919 72.0208ZM18.4777 72.3797C18.4798 72.5489 18.5028 72.6057 18.529 72.5059C18.5552 72.4062 18.5534 72.2677 18.5252 72.1983C18.497 72.1289 18.4757 72.2105 18.4777 72.3797ZM11.662 72.8191C11.6606 73.0162 11.6909 73.0371 11.8529 72.9508C11.9587 72.8944 12.0745 72.8775 12.1104 72.9131C12.1461 72.9487 12.1753 72.9289 12.1753 72.8692C12.1753 72.8094 12.1058 72.7339 12.0209 72.7014C11.9359 72.669 11.8657 72.6987 11.8648 72.7674C11.8638 72.8464 11.8265 72.8359 11.7634 72.7386C11.683 72.6146 11.6633 72.6302 11.662 72.8191ZM56.6826 73.1487C56.6826 73.2897 56.706 73.3474 56.7345 73.2769C56.7631 73.2064 56.7631 73.0911 56.7345 73.0205C56.706 72.9501 56.6826 73.0077 56.6826 73.1487ZM5.85629 73.4038C5.80706 73.5315 5.83559 73.6273 5.94033 73.6857C6.02766 73.7343 6.09903 73.8641 6.09903 73.9741C6.09903 74.2717 6.27298 74.2158 6.33385 73.8985C6.401 73.5492 6.31747 73.3271 6.14393 73.3933C6.06989 73.4216 5.99172 73.392 5.97009 73.3275C5.94857 73.2631 5.89728 73.2974 5.85629 73.4038ZM21.5473 73.9382C21.5473 74.012 21.6621 74.0715 21.8048 74.0715C21.9474 74.0715 22.0622 74.012 22.0622 73.9382C22.0622 73.8644 21.9474 73.8049 21.8048 73.8049C21.6621 73.8049 21.5473 73.8644 21.5473 73.9382ZM33.2953 74.6098L33.3025 75.2506L33.4862 74.84C33.8409 74.0475 33.8469 73.9689 33.5523 73.9689C33.2959 73.9689 33.2882 73.9882 33.2953 74.6098ZM20.0025 74.3218C20.0025 74.4031 20.0488 74.498 20.1055 74.5329C20.1621 74.5677 20.2084 74.5012 20.2084 74.3851C20.2084 74.269 20.1621 74.174 20.1055 74.174C20.0488 74.174 20.0025 74.2405 20.0025 74.3218ZM6.09903 74.6354C6.09903 74.7764 6.11685 74.8917 6.13848 74.8917C6.16021 74.8917 6.20017 74.7764 6.22725 74.6354C6.25434 74.4944 6.23653 74.3791 6.18771 74.3791C6.139 74.3791 6.09903 74.4944 6.09903 74.6354ZM12.3408 74.7612C12.3065 74.7954 12.2783 75.0491 12.2783 75.325C12.2783 75.699 12.3111 75.807 12.4071 75.7496C12.4906 75.6997 12.4848 75.7351 12.3908 75.8504C12.2888 75.9755 12.2782 76.0605 12.3549 76.1368C12.4706 76.252 12.5114 76.1654 12.6393 75.5326C12.6854 75.3042 12.6677 75.1993 12.5829 75.1993C12.4964 75.1993 12.4908 75.1608 12.5643 75.0712C12.6758 74.9355 12.4626 74.6399 12.3408 74.7612ZM56.1514 74.7808C56.1514 74.8326 56.1204 74.9555 56.0824 75.0539C56.0379 75.1695 56.053 75.2085 56.1251 75.1643C56.1865 75.1264 56.2588 75.1535 56.2857 75.2243C56.3125 75.2952 56.3326 75.2031 56.3303 75.0199C56.3279 74.8367 56.2867 74.6867 56.2387 74.6867C56.1907 74.6867 56.1514 74.729 56.1514 74.7808ZM20.0682 75.2506C20.1008 75.3352 20.1457 75.4044 20.168 75.4044C20.1902 75.4044 20.2084 75.3352 20.2084 75.2506C20.2084 75.166 20.1635 75.0968 20.1086 75.0968C20.0539 75.0968 20.0356 75.166 20.0682 75.2506ZM9.80661 75.6155C9.80661 75.6752 9.85296 75.6956 9.9096 75.6607C9.96625 75.6259 10.0126 75.5771 10.0126 75.5521C10.0126 75.5272 9.96625 75.5069 9.9096 75.5069C9.85296 75.5069 9.80661 75.5558 9.80661 75.6155ZM22.1246 75.6693C22.0862 75.7691 22.1092 75.816 22.1845 75.791C22.3384 75.74 22.4232 75.5069 22.2878 75.5069C22.2325 75.5069 22.1591 75.58 22.1246 75.6693ZM9.78087 75.9762C9.73833 76.0189 9.70785 76.2422 9.7129 76.4725L9.72216 76.8911L9.82144 76.5477C9.92886 76.1764 9.90569 75.8508 9.78087 75.9762ZM10.8108 75.9762C10.7682 76.0189 10.7365 76.196 10.74 76.3699C10.7464 76.6791 10.7488 76.6805 10.8469 76.4361C10.9572 76.1612 10.933 75.8535 10.8108 75.9762ZM22.1496 76.0452C22.1045 76.4133 22.1039 76.4882 22.1456 76.5688C22.2137 76.7007 22.3678 76.411 22.3696 76.1477C22.3713 75.9088 22.1773 75.8185 22.1496 76.0452ZM32.8077 76.2692C32.8389 76.3502 32.8091 76.4362 32.7415 76.4603C32.6738 76.4845 32.6503 76.5382 32.6889 76.5797C32.7276 76.6213 32.8088 76.6249 32.8691 76.5877C33.0142 76.4984 33.0109 76.1221 32.865 76.1221C32.8023 76.1221 32.7765 76.1883 32.8077 76.2692ZM28.808 76.4297C28.843 76.4861 28.892 76.5322 28.917 76.5322C28.9421 76.5322 28.9625 76.4861 28.9625 76.4297C28.9625 76.3733 28.9133 76.3272 28.8534 76.3272C28.7934 76.3272 28.773 76.3733 28.808 76.4297ZM55.3356 76.592C55.3405 76.7115 55.365 76.7358 55.3978 76.654C55.4276 76.58 55.4239 76.4915 55.3897 76.4575C55.3555 76.4234 55.3312 76.4839 55.3356 76.592ZM11.0468 77.0127C11.1153 77.315 11.0977 77.4172 10.9587 77.5234C10.8063 77.6399 10.804 77.6688 10.9395 77.7591C11.2207 77.9464 11.2614 77.913 11.2783 77.4807C11.2897 77.191 11.1363 76.6348 11.0452 76.6348C10.9989 76.6348 10.9997 76.8049 11.0468 77.0127ZM21.9592 76.8971C21.9592 76.985 22.0063 77.028 22.0639 76.9926C22.1214 76.9571 22.1419 76.8853 22.1093 76.8328C22.021 76.6905 21.9592 76.717 21.9592 76.8971ZM32.5289 77.0705C32.4167 77.4875 32.4503 77.6149 32.6152 77.3977C32.7831 77.1769 32.8234 76.8398 32.6821 76.8398C32.632 76.8398 32.5631 76.9437 32.5289 77.0705ZM63.6695 77.1474C63.6695 77.2602 63.7115 77.3525 63.7628 77.3525C63.8142 77.3525 63.8319 77.2602 63.8024 77.1474C63.7727 77.0346 63.7307 76.9424 63.709 76.9424C63.6874 76.9424 63.6695 77.0346 63.6695 77.1474ZM23.2263 77.5832C23.2279 77.9204 23.2709 78.0702 23.3663 78.0702C23.526 78.0702 23.5458 77.9489 23.409 77.8087C23.3567 77.7552 23.2938 77.5729 23.2691 77.4038C23.2414 77.2148 23.225 77.284 23.2263 77.5832ZM22.9548 77.3183C22.917 77.3559 22.8876 77.4597 22.8892 77.549C22.8918 77.6823 22.912 77.6779 23.0017 77.5242C23.1126 77.3343 23.0805 77.1933 22.9548 77.3183ZM46.0139 77.712C45.9069 77.9096 45.8438 78.0956 45.8736 78.1253C45.9318 78.1833 46.1866 77.8243 46.2947 77.5319C46.4121 77.2143 46.2147 77.3409 46.0139 77.712ZM67.9436 77.455C67.9085 77.5114 67.9174 77.5608 67.9632 77.5647C68.009 77.5687 67.9572 77.6068 67.8481 77.6493C67.6801 77.7148 67.6744 77.7363 67.8114 77.7886C67.909 77.8259 68.0662 77.7517 68.208 77.6014C68.4421 77.3533 68.4422 77.3525 68.225 77.3525C68.1052 77.3525 67.9786 77.3986 67.9436 77.455ZM44.4622 77.5575C44.4972 77.6139 44.5462 77.6601 44.5713 77.6601C44.5963 77.6601 44.6167 77.6139 44.6167 77.5575C44.6167 77.5012 44.5676 77.455 44.5076 77.455C44.4477 77.455 44.4272 77.5012 44.4622 77.5575ZM12.6388 77.7626C12.6038 77.819 12.6501 77.8651 12.7418 77.8651C12.8334 77.8651 12.8798 77.819 12.8448 77.7626C12.8098 77.7062 12.7634 77.6601 12.7418 77.6601C12.7202 77.6601 12.6738 77.7062 12.6388 77.7626ZM35.7783 77.8717C35.6236 78.1204 35.6513 78.2002 35.85 78.078C35.9248 78.032 35.9698 77.9176 35.95 77.8238C35.9196 77.679 35.8937 77.6862 35.7783 77.8717ZM22.5399 77.9164C22.5073 78.001 22.5256 78.0702 22.5804 78.0702C22.6353 78.0702 22.6802 78.001 22.6802 77.9164C22.6802 77.8318 22.6619 77.7626 22.6397 77.7626C22.6174 77.7626 22.5725 77.8318 22.5399 77.9164ZM46.9854 77.9104C46.9854 77.9917 47.0269 78.0836 47.0776 78.1148C47.1837 78.18 47.3115 77.9163 47.2186 77.8239C47.1081 77.7139 46.9854 77.7593 46.9854 77.9104ZM67.1976 78.3737C67.0856 78.5522 67.0938 78.5668 67.2695 78.5021C67.4762 78.426 67.5581 78.2498 67.4098 78.2006C67.3626 78.185 67.2671 78.2629 67.1976 78.3737ZM66.5562 78.8865C66.4729 78.939 66.4315 79.0086 66.4642 79.0412C66.4971 79.0738 66.5825 79.0301 66.6541 78.9442C66.8027 78.766 66.7742 78.7492 66.5562 78.8865ZM60.7859 79.2618C60.7859 79.4042 60.8118 79.4085 60.9661 79.2908C61.0653 79.2154 61.1657 79.1405 61.1893 79.1245C61.2128 79.1085 61.1317 79.0955 61.009 79.0955C60.8718 79.0955 60.7859 79.1596 60.7859 79.2618Z" fill="#E8642F"/>
<path fill-rule="evenodd" clip-rule="evenodd" d="M56.4889 18.2817C56.0405 18.3588 55.6899 18.6278 55.3952 19.1206C55.2163 19.4198 55.2076 19.455 55.2033 19.8917C55.1967 20.5726 55.3486 21.0522 55.8117 21.8127C56.3742 22.7364 57.6033 23.7703 58.0297 23.6785C58.4032 23.5981 58.9409 23.2321 59.6315 22.588C59.7489 22.4785 59.9353 22.3106 60.0458 22.2149C60.1563 22.1191 60.2478 22.0002 60.249 21.9507C60.2503 21.9012 60.2713 21.8731 60.2957 21.8881C60.3582 21.9267 60.5138 21.6745 60.4807 21.5884C60.4593 21.5328 60.4832 21.5246 60.589 21.5509C60.7123 21.5816 60.7183 21.5769 60.6549 21.5C60.5938 21.426 60.5987 21.4027 60.6943 21.3139C60.7543 21.258 60.8166 21.1468 60.8326 21.0668C60.8487 20.9869 60.8789 20.9214 60.8998 20.9214C60.9208 20.9214 60.9535 20.8382 60.9726 20.7365C60.9917 20.6348 61.0512 20.521 61.1047 20.4835C61.1689 20.4387 61.1918 20.3829 61.1719 20.3203C61.1553 20.2679 61.1397 20.1579 61.1374 20.0757C61.135 19.9936 61.1077 19.9264 61.0767 19.9264C61.0457 19.9264 60.9806 19.8592 60.932 19.7772C60.8523 19.6425 60.8516 19.6279 60.9245 19.6279C60.969 19.6279 61.0444 19.6488 61.092 19.6742C61.1399 19.6998 61.2088 19.7018 61.2463 19.6787C61.3551 19.6116 61.1744 19.4621 61.0201 19.4915C60.8814 19.518 60.7984 19.4154 60.8011 19.2208C60.8025 19.118 60.8092 19.1145 60.8634 19.1883C60.8967 19.2338 60.9477 19.3102 60.9765 19.358C61.0154 19.4224 61.051 19.4325 61.1144 19.3971C61.1921 19.3537 61.1874 19.3329 61.0619 19.1668C60.5432 18.4799 59.3642 18.4256 58.5433 19.0506L58.3787 19.1759L58.2073 18.9623C57.7413 18.3813 57.1867 18.1617 56.4889 18.2817ZM57.8593 18.9314C57.7954 18.9726 57.7972 18.9798 57.8718 18.9804C57.9197 18.9808 57.959 18.9588 57.959 18.9314C57.959 18.8707 57.9533 18.8707 57.8593 18.9314ZM59.943 19.0649C59.9789 19.0793 60.0219 19.0775 60.0385 19.061C60.055 19.0444 60.0256 19.0327 59.9731 19.0348C59.915 19.0372 59.9032 19.049 59.943 19.0649ZM58.557 19.2299C58.557 19.2573 58.578 19.2797 58.6039 19.2797C58.6297 19.2797 58.6646 19.2573 58.6816 19.2299C58.6985 19.2026 58.6774 19.1802 58.6347 19.1802C58.5919 19.1802 58.557 19.2026 58.557 19.2299ZM56.5042 19.4413C56.3832 19.5499 56.3822 19.5559 56.4715 19.6403C56.5599 19.7239 56.5636 19.7218 56.5636 19.5881C56.5636 19.5115 56.5905 19.4219 56.6234 19.3891C56.7292 19.2835 56.6332 19.3256 56.5042 19.4413ZM57.5747 19.8827C57.6135 20.1713 57.6943 20.2333 57.7369 20.0069C57.7589 19.8898 57.7492 19.7996 57.7094 19.7517C57.5983 19.6182 57.546 19.6691 57.5747 19.8827ZM58.8809 19.8269C58.8639 19.8543 58.8851 19.8767 58.9278 19.8767C58.9705 19.8767 59.0055 19.8543 59.0055 19.8269C59.0055 19.7995 58.9844 19.7772 58.9586 19.7772C58.9328 19.7772 58.8978 19.7995 58.8809 19.8269ZM56.4141 19.9347C56.4141 19.9575 56.4478 19.9761 56.4889 19.9761C56.53 19.9761 56.5636 19.9575 56.5636 19.9347C56.5636 19.9119 56.53 19.8932 56.4889 19.8932C56.4478 19.8932 56.4141 19.9119 56.4141 19.9347ZM56.4141 20.2C56.4141 20.2411 56.4366 20.2746 56.464 20.2746C56.4914 20.2746 56.5138 20.2411 56.5138 20.2C56.5138 20.159 56.4914 20.1254 56.464 20.1254C56.4366 20.1254 56.4141 20.159 56.4141 20.2ZM58.3988 20.2684C58.324 20.3563 58.3234 20.3695 58.3935 20.3963C58.4945 20.435 58.519 20.4071 58.4987 20.2765C58.4824 20.1713 58.4815 20.1713 58.3988 20.2684ZM59.29 20.3244C59.2757 20.3791 59.2817 20.4239 59.3033 20.4239C59.325 20.4239 59.3544 20.3791 59.3688 20.3244C59.3831 20.2697 59.3771 20.2249 59.3554 20.2249C59.3338 20.2249 59.3044 20.2697 59.29 20.3244ZM60.9988 20.2776C60.9988 20.3065 61.0212 20.3164 61.0486 20.2995C61.076 20.2826 61.0985 20.2589 61.0985 20.2468C61.0985 20.2347 61.076 20.2249 61.0486 20.2249C61.0212 20.2249 60.9988 20.2486 60.9988 20.2776ZM56.3892 20.4736C56.4062 20.501 56.4299 20.5234 56.442 20.5234C56.4541 20.5234 56.464 20.501 56.464 20.4736C56.464 20.4463 56.4402 20.4239 56.4112 20.4239C56.3822 20.4239 56.3723 20.4463 56.3892 20.4736ZM56.6174 20.5026C56.6198 20.5606 56.6316 20.5724 56.6475 20.5327C56.6619 20.4968 56.6601 20.4539 56.6436 20.4374C56.627 20.4209 56.6153 20.4502 56.6174 20.5026ZM56.3892 20.6229C56.4062 20.6502 56.4299 20.6726 56.442 20.6726C56.4541 20.6726 56.464 20.6502 56.464 20.6229C56.464 20.5955 56.4402 20.5731 56.4112 20.5731C56.3822 20.5731 56.3723 20.5955 56.3892 20.6229ZM57.5603 20.6229C57.5603 20.6502 57.5939 20.6726 57.6351 20.6726C57.6762 20.6726 57.7098 20.6502 57.7098 20.6229C57.7098 20.5955 57.6762 20.5731 57.6351 20.5731C57.5939 20.5731 57.5603 20.5955 57.5603 20.6229ZM58.3673 20.797C58.3683 20.8791 58.3795 20.9067 58.3922 20.8582C58.4048 20.8098 58.404 20.7427 58.3903 20.709C58.3767 20.6753 58.3664 20.7149 58.3673 20.797ZM60.9246 21.0714C60.9418 21.0992 60.9767 21.1091 61.0022 21.0934C61.0714 21.0507 61.0585 21.0209 60.9709 21.0209C60.9282 21.0209 60.9074 21.0436 60.9246 21.0714ZM58.5071 21.7671C58.5071 21.8218 58.5296 21.8666 58.557 21.8666C58.5844 21.8666 58.6068 21.8218 58.6068 21.7671C58.6068 21.7124 58.5844 21.6676 58.557 21.6676C58.5296 21.6676 58.5071 21.7124 58.5071 21.7671ZM57.8126 22.2671C57.8156 22.4284 57.8187 22.4315 57.864 22.3183C57.8959 22.2386 57.8948 22.1807 57.8608 22.1467C57.8256 22.1115 57.8105 22.1493 57.8126 22.2671ZM59.1283 22.6144C59.0069 22.6943 58.9983 22.7111 59.0802 22.7085C59.246 22.7032 59.3538 22.6427 59.3133 22.5775C59.2856 22.5326 59.2384 22.542 59.1283 22.6144ZM58.9556 22.8616C59.0532 22.9246 59.1192 22.9246 59.0802 22.8616C59.0633 22.8342 59.0115 22.8122 58.9652 22.8126C58.8925 22.8133 58.8912 22.8201 58.9556 22.8616ZM58.6795 22.9644C58.6614 22.9936 58.6573 23.0282 58.6704 23.0412C58.6834 23.0542 58.7074 23.0303 58.7237 22.9881C58.7573 22.9004 58.7286 22.885 58.6795 22.9644ZM58.4698 23.1146C58.3506 23.1595 58.3154 23.2607 58.4199 23.258C58.5075 23.2558 58.671 23.1249 58.6223 23.0961C58.6 23.083 58.5314 23.0913 58.4698 23.1146ZM58.1583 23.3591C58.1583 23.3864 58.1807 23.4088 58.2081 23.4088C58.2355 23.4088 58.258 23.3864 58.258 23.3591C58.258 23.3317 58.2355 23.3093 58.2081 23.3093C58.1807 23.3093 58.1583 23.3317 58.1583 23.3591Z" fill="#E8642F"/>
</svg>
