<svg width="23" height="31" viewBox="0 0 23 31" fill="none" xmlns="http://www.w3.org/2000/svg">
<path fill-rule="evenodd" clip-rule="evenodd" d="M3.13368 12.7797C1.80672 12.7797 1.52979 13.0388 1.52979 14.2797V16.5298C1.52979 17.7708 1.80672 18.0298 3.13368 18.0298H6.34147V27.0298C6.34147 28.2707 6.61841 28.5298 7.94537 28.5298H11.1531C12.4802 28.5298 12.757 28.2707 12.757 27.0298V18.0298H16.3589C17.3653 18.0298 17.6247 17.8468 17.9011 16.9419L18.5885 14.6919C19.062 13.1417 18.7702 12.7797 17.0463 12.7797H12.757V9.02979C12.757 8.20136 13.4751 7.52978 14.3609 7.52978H18.9259C20.2528 7.52978 20.5298 7.27078 20.5298 6.02978V3.02978C20.5298 1.78878 20.2528 1.52979 18.9259 1.52979H14.3609C9.93186 1.52979 6.34147 4.88765 6.34147 9.02979V12.7797H3.13368Z" stroke="#0074EF" stroke-width="3.06" stroke-linejoin="round"/>
</svg>
