<svg width="30" height="30" viewBox="0 0 30 30" fill="none" xmlns="http://www.w3.org/2000/svg">
<path d="M1.52979 14.5298C1.52979 8.40153 1.52978 5.3374 3.43359 3.43359C5.3374 1.52978 8.40153 1.52979 14.5298 1.52979C20.658 1.52979 23.7222 1.52978 25.626 3.43359C27.5298 5.3374 27.5298 8.40153 27.5298 14.5298C27.5298 20.658 27.5298 23.7222 25.626 25.626C23.7222 27.5298 20.658 27.5298 14.5298 27.5298C8.40153 27.5298 5.3374 27.5298 3.43359 25.626C1.52978 23.7222 1.52979 20.658 1.52979 14.5298Z" stroke="#0074EF" stroke-width="3.06" stroke-linejoin="round"/>
<path d="M20.6874 14.53C20.6874 17.9309 17.9304 20.6879 14.5295 20.6879C11.1286 20.6879 8.37158 17.9309 8.37158 14.53C8.37158 11.1291 11.1286 8.37207 14.5295 8.37207C17.9304 8.37207 20.6874 11.1291 20.6874 14.53Z" stroke="#0074EF" stroke-width="3.06"/>
<path d="M22.0665 7.00342H22.0542" stroke="#0074EF" stroke-width="3.06" stroke-linecap="round" stroke-linejoin="round"/>
</svg>
