<svg width="273" height="273" viewBox="0 0 273 273" fill="none" xmlns="http://www.w3.org/2000/svg">
<g filter="url(#filter0_dii_8_15473)">
<path d="M66.5363 260.518C68.098 260.619 69.6548 260.516 71.196 260.212L74.6576 259.529C74.9041 259.481 75.1101 259.443 75.2788 259.416C75.2906 259.414 75.3027 259.413 75.3139 259.411L75.4942 259.463L75.8278 259.546C77.4818 259.9 78.9412 259.324 79.8763 258.574C80.6939 257.918 81.1202 257.15 81.3096 256.772C81.7135 255.967 81.9318 255.082 82.0678 254.435L82.7727 251.083C82.9926 250.036 83.2355 249.003 83.5011 247.984L84.3539 244.712C84.5853 243.824 84.8798 242.943 85.2392 242.069L86.549 238.884C86.7206 238.467 86.9607 238.127 87.3017 237.823L89.8817 235.522C90.7421 234.755 91.5923 233.996 92.432 233.247L94.9507 231.001C95.6107 230.412 96.3205 229.871 97.0818 229.379L99.9557 227.519C100.719 227.025 101.533 226.58 102.398 226.186L105.595 224.729C106.04 224.526 106.483 224.433 106.971 224.44L110.487 224.487C111.579 224.501 112.661 224.543 113.731 224.613L117.187 224.838C118.047 224.894 118.897 225.03 119.741 225.248L123.112 226.119C123.943 226.334 124.749 226.628 125.534 227.004L128.694 228.518C129.434 228.873 130.125 229.305 130.772 229.819L133.522 232.005C134.117 232.478 134.633 233.014 135.077 233.621L137.141 236.443C137.727 237.245 138.264 238.073 138.752 238.926L140.472 241.94C140.761 242.447 140.942 242.974 141.025 243.547L141.523 246.974C141.727 248.382 142.056 249.768 142.505 251.128L143.605 254.461L143.754 254.877C144.133 255.856 144.746 256.906 145.748 257.767C146.956 258.805 148.4 259.285 149.824 259.336L152.723 259.439C153.527 259.468 154.448 259.545 155.492 259.675L158.954 260.108C160.313 260.278 161.676 260.356 163.04 260.342L166.502 260.305C167.788 260.292 169.073 260.223 170.357 260.1L173.819 259.768C174.793 259.674 175.767 259.639 176.739 259.659L180.2 259.733C181.47 259.76 182.74 259.74 184.009 259.672L187.471 259.486C188.28 259.443 189.097 259.489 189.927 259.628L193.404 260.209C195.379 260.539 197.344 260.342 199.212 259.628L202.509 258.368C203.529 257.979 204.556 257.619 205.59 257.288L208.938 256.218C210.726 255.646 212.318 254.698 213.674 253.41L216.25 250.964C217.446 249.828 218.451 248.533 219.253 247.093L220.981 243.99C221.802 242.516 222.367 240.94 222.665 239.281L223.292 235.804C223.559 234.321 223.663 232.828 223.6 231.332L223.454 227.869C223.41 226.827 223.406 225.788 223.439 224.753L223.55 221.308C223.593 219.958 223.547 218.608 223.412 217.26L223.067 213.815C222.979 212.938 222.969 212.062 223.039 211.186L223.311 207.741C223.427 206.268 223.386 204.795 223.189 203.327L222.727 199.882C222.596 198.907 222.522 197.934 222.504 196.963L222.441 193.518C222.421 192.42 222.419 191.321 222.435 190.223L222.45 189.142L223.754 189.009C225.406 188.84 227.001 188.434 228.515 187.777L231.695 186.398C232.761 185.936 233.819 185.474 234.87 185.013L238.004 183.638C239.361 183.043 240.642 182.304 241.84 181.425L244.623 179.384C245.782 178.534 246.856 177.581 247.842 176.528L250.221 173.989C251.265 172.874 252.165 171.649 252.917 170.319L254.635 167.28C255.479 165.788 256.037 164.183 256.3 162.491L256.835 159.053C257.013 157.909 257.19 156.779 257.365 155.662L257.892 152.303C258.099 150.983 258.219 149.648 258.254 148.299L258.342 144.834C258.385 143.162 258.146 141.519 257.632 139.927L256.564 136.624C256.102 135.195 255.484 133.834 254.713 132.548L252.941 129.597C252.235 128.42 251.447 127.303 250.579 126.249L248.412 123.62C247.497 122.509 246.48 121.498 245.364 120.59L242.732 118.449C241.888 117.762 241.037 117.05 240.178 116.313L237.513 114.021C236.082 112.792 234.424 111.931 232.589 111.472L229.188 110.619C227.987 110.319 226.78 110.044 225.566 109.797L223.635 109.404L223.542 108.689C223.476 108.175 223.451 107.469 223.513 106.536L223.74 103.091C223.82 101.88 223.875 100.668 223.905 99.4561L223.99 96.0111C224.023 94.6615 223.967 93.3122 223.822 91.9658L223.451 88.5208C223.328 87.3707 223.204 86.2204 223.079 85.0703L222.705 81.6253C222.61 80.75 222.594 79.8773 222.657 79.0047L222.907 75.5596C222.994 74.3588 223.06 73.1573 223.105 71.9558L223.235 68.509C223.292 67.0096 223.176 65.5202 222.888 64.0492L222.228 60.6786C221.967 59.3441 221.611 58.0262 221.163 56.7267L220.023 53.4144C219.411 51.6362 218.416 50.0638 217.074 48.7439L214.559 46.274C213.313 45.0491 211.873 44.0825 210.259 43.404L207.066 42.0628C205.862 41.5566 204.643 41.1138 203.409 40.7359L200.161 39.741C198.696 39.2921 197.188 39.0358 195.651 38.9703L192.199 38.824C190.924 38.7697 189.647 38.766 188.37 38.8142L184.908 38.9452C183.928 38.9821 182.948 38.9639 181.967 38.8904L178.506 38.6312C177.003 38.5186 175.5 38.5756 174.006 38.8007L170.545 39.3229C169.595 39.466 168.649 39.544 167.706 39.5579L164.244 39.6091C163.248 39.6237 162.251 39.5871 161.252 39.5005L157.791 39.2009C156.632 39.1003 155.472 39.0016 154.314 38.9048L152.583 38.7595L152.261 38.7334L151.891 37.4954C151.623 36.5972 151.345 35.6164 151.059 34.5527L150.171 31.2602C149.855 30.091 149.508 28.9166 149.128 27.7371L148.056 24.3988C147.503 22.6798 146.616 21.1258 145.414 19.774L143.083 17.1525C142.199 16.1582 141.266 15.2144 140.286 14.322L137.706 11.9742C136.49 10.8672 135.124 9.96841 133.624 9.28989L130.451 7.85446C129.144 7.26326 127.798 6.79388 126.416 6.44951L123.097 5.62234C122.059 5.36353 121.015 5.07919 119.967 4.76826L116.629 3.7778C114.742 3.21835 112.8 3.16278 110.884 3.61273L107.491 4.41031C106.485 4.64664 105.479 4.83878 104.475 4.98717L101.07 5.49046C99.4764 5.72581 97.945 6.19301 96.4905 6.88554L93.3651 8.3739C92.0699 8.99065 90.8385 9.72089 89.6744 10.562L86.8582 12.5977C85.6703 13.4561 84.577 14.4262 83.5813 15.5036L81.2132 18.0658C80.1687 19.196 79.2748 20.4388 78.5367 21.7872L76.8627 24.8438C76.1144 26.2108 75.5535 27.6543 75.185 29.1644L74.3656 32.5216C74.0768 33.7052 73.8149 34.8924 73.5795 36.0824L73.0629 38.6922L71.2582 39.4108C71.0529 39.4925 70.6962 39.5797 70.0971 39.5499L66.6354 39.3767C65.4498 39.3175 64.2639 39.2705 63.0782 39.2358L59.6165 39.1345C58.4916 39.1016 57.3664 39.0583 56.2414 39.0044L52.7798 38.8384C51.6612 38.7847 50.5423 38.7184 49.4236 38.6392L45.9619 38.3943C44.632 38.3002 43.3009 38.2823 41.9702 38.3405L38.5085 38.4912C37.5596 38.5327 36.6099 38.5119 35.659 38.4275L32.1964 38.1198C30.4799 37.9676 28.778 38.1281 27.1175 38.5881L23.7162 39.5301C22.2508 39.9361 20.8524 40.4986 19.5325 41.2212L16.5414 42.8585C15.4222 43.4713 14.3237 44.1387 13.2474 44.8583L10.3501 46.7952C8.63381 47.9427 7.34096 49.5106 6.54403 51.4093L5.19903 54.6139C4.67816 55.855 4.23877 57.114 3.88468 58.3891L2.9823 61.6413C2.62917 62.9131 2.35499 64.2125 2.16016 65.5376L1.65714 68.9638C1.46708 70.2566 1.34214 71.5546 1.28302 72.8565L1.12707 76.3016C1.05702 77.8447 1.18535 79.3811 1.50659 80.9004L2.23498 84.3454C2.35216 84.8996 2.35653 85.4326 2.25121 85.9801L1.58862 89.4251C1.31752 90.8335 1.17111 92.2511 1.15231 93.674L1.10633 97.119C1.08871 98.4552 1.15382 99.791 1.30015 101.124L1.67787 104.569C1.76853 105.395 1.77148 106.218 1.68598 107.043L1.329 110.488C1.19599 111.772 1.34839 113.294 2.19351 114.731C3.04663 116.182 4.32337 117.068 5.56232 117.571L8.69315 118.843C10.2828 119.488 11.9544 119.819 13.6711 119.859L17.222 119.941C17.4303 119.946 17.5425 119.987 17.6971 120.105L20.5025 122.25C21.5171 123.026 22.5443 123.759 23.5837 124.448L26.436 126.339C26.9711 126.694 27.4285 127.118 27.8224 127.624L29.922 130.321C30.5439 131.12 31.1304 131.941 31.6816 132.784L33.545 135.635C33.9104 136.195 34.18 136.788 34.3599 137.429L35.2785 140.702C35.5457 141.653 35.7662 142.613 35.9411 143.582L36.5433 146.915C36.6761 147.651 36.7164 148.389 36.6632 149.138L36.4225 152.524C36.3631 153.36 36.2248 154.178 36.0078 154.982L35.1253 158.248C34.8454 159.284 34.5438 160.33 34.2193 161.385L33.1997 164.697C33.0272 165.257 32.7645 165.757 32.3983 166.22L30.2429 168.946C29.5984 169.761 28.9179 170.555 28.2029 171.329L25.8194 173.906C25.3876 174.373 24.898 174.747 24.331 175.041L21.2065 176.659C20.2703 177.145 19.3167 177.593 18.3461 178.005L15.1071 179.38C14.7298 179.54 14.359 179.601 13.9271 179.564L10.3888 179.258C9.16442 179.152 7.61008 179.285 6.14377 180.175C4.61286 181.105 3.75615 182.508 3.3447 183.847L2.41798 186.863C1.96195 188.347 1.75341 189.886 1.759 191.453L1.77162 194.898C1.77514 195.881 1.725 196.865 1.62198 197.851L1.26229 201.296C1.08748 202.969 1.20082 204.636 1.59043 206.274L2.40987 209.719C2.55879 210.346 2.58972 210.944 2.51534 211.539L2.08443 214.984C1.91572 216.332 1.83659 217.684 1.84825 219.036L1.878 222.481C1.88626 223.441 1.83516 224.402 1.72475 225.366L1.3299 228.811C1.12956 230.558 1.27387 232.295 1.75359 233.987L2.70916 237.358C3.09424 238.716 3.58328 240.025 4.17766 241.281L5.62362 244.338C6.29302 245.752 7.15213 247.05 8.19553 248.216L10.4375 250.722C11.5027 251.913 12.731 252.919 14.1119 253.725L16.9948 255.407C18.1597 256.087 19.3751 256.676 20.6377 257.176L23.7829 258.42C25.3489 259.04 26.9883 259.367 28.6734 259.407L32.1189 259.489C33.4327 259.52 34.7484 259.481 36.0646 259.372L39.5263 259.085C40.2031 259.029 40.8878 259.075 41.5943 259.233L45.0559 260.006C46.8516 260.408 48.6728 260.422 50.4747 260.047L53.9364 259.326C54.5381 259.2 55.1192 259.189 55.7069 259.284L59.1685 259.848C60.4678 260.059 61.7704 260.208 63.0746 260.293L66.5363 260.518Z" fill="#874FFF"/>
<path opacity="0.7" fill-rule="evenodd" clip-rule="evenodd" d="M85.4917 23.5748C85.4903 23.5841 85.3759 23.7188 85.2375 23.8743C84.9268 24.2235 84.9444 24.2011 84.8904 24.3173C84.8531 24.3976 84.8444 24.4035 84.8384 24.3526C84.8326 24.3033 84.8286 24.3053 84.8177 24.3627C84.8103 24.402 84.7785 24.4527 84.747 24.4755C84.7156 24.4983 84.7004 24.5314 84.7133 24.5491C84.7261 24.5668 84.7242 24.5867 84.7091 24.5934C84.6939 24.6 84.6516 24.6544 84.6151 24.7143C84.5786 24.7741 84.5151 24.8599 84.4738 24.9048C84.4326 24.9498 84.4004 25.0047 84.4022 25.027C84.404 25.0492 84.3772 25.088 84.3425 25.1131C84.3079 25.1382 84.2712 25.2036 84.2609 25.2584C84.2506 25.3133 84.1896 25.4608 84.1254 25.5864C84.0613 25.7119 84.0113 25.8425 84.0145 25.8767C84.0176 25.9109 84.0012 25.9401 83.9779 25.9417C83.9137 25.9461 83.8529 26.1006 83.8934 26.1563C83.913 26.1833 83.91 26.2067 83.8867 26.2083C83.8053 26.2138 83.725 26.3916 83.7736 26.4586C83.8227 26.5263 83.7893 26.5852 83.7273 26.5404C83.707 26.5258 83.6822 26.5595 83.6691 26.6195C83.6565 26.6772 83.6306 26.7612 83.6115 26.8063C83.5924 26.8515 83.593 26.9025 83.6128 26.9197C83.6359 26.9397 83.6204 26.9603 83.5696 26.9769C83.5149 26.9948 83.5008 27.0173 83.5242 27.0495C83.5429 27.0752 83.5399 27.1237 83.5176 27.1573C83.4275 27.2931 83.3692 27.4701 83.4003 27.513C83.4185 27.5381 83.4013 27.6039 83.362 27.6593C83.2832 27.7705 83.2559 27.8815 83.2944 27.9345C83.3082 27.9535 83.3083 27.9771 83.2948 27.9869C83.2303 28.0337 82.9438 29.1765 82.864 29.7051C82.8452 29.8294 82.8185 29.9483 82.8047 29.9692C82.791 29.9901 82.7687 30.1321 82.7552 30.2847C82.7417 30.4373 82.7219 30.5512 82.7112 30.5378C82.7005 30.5244 82.6865 30.5835 82.6801 30.6693C82.6738 30.755 82.6648 30.7974 82.6601 30.7635C82.6544 30.722 82.6407 30.7172 82.6184 30.7487C82.6001 30.7745 82.5997 30.8157 82.6175 30.8403C82.6353 30.8648 82.629 30.9256 82.6035 30.9753C82.5779 31.025 82.5691 31.0763 82.5838 31.0893C82.5986 31.1023 82.5905 31.1494 82.5659 31.1939C82.5413 31.2385 82.5287 31.2853 82.5379 31.298C82.5596 31.3278 82.5216 31.555 82.4778 31.6569C82.4592 31.7004 82.4568 31.7637 82.4727 31.7975C82.5181 31.895 82.4794 32.106 82.4023 32.1808C82.3636 32.2183 82.3434 32.2628 82.3575 32.2796C82.3899 32.3182 82.3725 32.4408 82.3304 32.4713C82.3128 32.4841 82.3121 32.5344 82.3288 32.583C82.3455 32.6317 82.3395 32.7983 82.3156 32.9531C82.2916 33.108 82.2691 33.3208 82.2656 33.4261C82.2621 33.5314 82.2493 33.6865 82.2371 33.7707C82.2249 33.8549 82.2251 33.9378 82.2376 33.9549C82.25 33.9721 82.2482 34.1089 82.2336 34.2589C82.2167 34.4313 82.2296 34.5719 82.2684 34.6408C82.3023 34.7008 82.321 34.7976 82.31 34.8559C82.2991 34.9142 82.3066 34.9846 82.3267 35.0123C82.3469 35.0401 82.3483 35.1172 82.3299 35.1837C82.3116 35.2501 82.3129 35.327 82.3328 35.3544C82.3616 35.3942 82.3726 35.3898 82.3867 35.3327C82.402 35.2714 82.4075 35.2763 82.4252 35.3668C82.4365 35.425 82.4247 35.4782 82.3989 35.4849C82.3319 35.5025 82.3769 35.6321 82.4573 35.6532C82.5358 35.6739 82.5827 35.7988 82.5137 35.8035C82.4881 35.8053 82.4775 35.8208 82.49 35.8381C82.5025 35.8554 82.5279 35.8678 82.5464 35.8657C82.5648 35.8637 82.5558 35.8713 82.5263 35.8828C82.4968 35.8942 82.4744 35.9306 82.4767 35.9637C82.4829 36.0539 82.5097 36.0766 82.5451 36.0216C82.5916 35.9492 82.7186 36.1715 82.6796 36.2571C82.6405 36.3432 82.7007 36.4253 82.8387 36.4739C82.9012 36.4959 82.9223 36.514 82.8883 36.5163C82.8532 36.5187 82.8308 36.5467 82.8335 36.5848C82.8392 36.6666 82.8704 36.7128 82.889 36.6669C82.8967 36.6476 82.9279 36.6789 82.9583 36.7366C82.9927 36.8022 83.0274 36.8313 83.0509 36.8142C83.0742 36.7973 83.0986 36.8176 83.1156 36.8679C83.1305 36.9124 83.1743 36.9571 83.2127 36.9673C83.2513 36.9774 83.2845 37.0075 83.2867 37.0341C83.2888 37.0608 83.3135 37.066 83.3414 37.0457C83.3694 37.0254 83.4032 37.0286 83.4163 37.0528C83.4787 37.1668 83.5125 37.1775 83.5745 37.1029C83.6092 37.0611 83.6552 37.0344 83.6768 37.0434C83.7325 37.0667 83.7599 37.1893 83.7102 37.1926C83.6359 37.1977 83.7093 37.2542 83.8394 37.292C83.9847 37.3344 84.052 37.3088 83.9648 37.2445C83.9183 37.2101 83.9196 37.2058 83.9708 37.2234C84.0064 37.2357 84.0413 37.267 84.0484 37.2931C84.0555 37.3191 84.1098 37.346 84.169 37.3528C84.2281 37.3597 84.2913 37.3855 84.3092 37.4102C84.3271 37.4349 84.4071 37.4401 84.4869 37.4217C84.5667 37.4032 84.6362 37.4014 84.6414 37.4176C84.6466 37.4338 84.6588 37.443 84.6686 37.4381C84.7312 37.4067 84.8885 37.4095 84.8911 37.442C84.8947 37.4871 84.9951 37.4675 85.0812 37.405C85.1136 37.3815 85.1703 37.3849 85.2074 37.4125C85.2444 37.4401 85.281 37.4469 85.2887 37.4278C85.2964 37.4087 85.3598 37.3956 85.4295 37.3988C85.4991 37.402 85.5715 37.3808 85.5903 37.3516C85.6118 37.3182 85.6494 37.3172 85.692 37.3489C85.7337 37.3799 85.7723 37.3793 85.7928 37.3474C85.8112 37.319 85.8541 37.2971 85.8882 37.2987C85.9629 37.3022 86.2841 37.1305 86.5893 36.9239C86.7375 36.8236 86.8325 36.7812 86.8737 36.7971C86.9248 36.8168 86.9359 36.8041 86.9373 36.7244C86.9382 36.6712 86.9514 36.6451 86.9667 36.6661C86.982 36.6872 87.0097 36.6935 87.0282 36.6801C87.0466 36.6667 87.0394 36.6464 87.0122 36.6349C86.9805 36.6218 86.9829 36.6128 87.0188 36.6104C87.0504 36.6083 87.0839 36.5624 87.0955 36.5056C87.1073 36.4472 87.1274 36.4202 87.143 36.4417C87.1578 36.4621 87.1557 36.4893 87.1382 36.5019C87.1208 36.5146 87.117 36.5394 87.1299 36.5571C87.1427 36.5749 87.1826 36.568 87.2186 36.5419C87.2545 36.5158 87.2646 36.4864 87.2409 36.4765C87.1674 36.4458 87.1813 36.3606 87.259 36.3662C87.3098 36.3699 87.3388 36.3482 87.3698 36.2832C87.3929 36.2348 87.4135 36.216 87.4156 36.2414C87.4228 36.3309 87.5334 36.2565 87.5436 36.1553C87.5556 36.0363 87.5987 35.9898 87.621 36.0716C87.6336 36.1181 87.6622 36.1009 87.7823 35.9748C87.8626 35.8905 87.9342 35.7996 87.9415 35.7729C87.9487 35.7461 88.0178 35.6657 88.095 35.5941C88.1722 35.5225 88.2423 35.4388 88.2507 35.4081C88.2671 35.348 88.4362 35.0957 88.4868 35.0557C88.5037 35.0423 88.5255 35.0122 88.5352 34.9888C88.5448 34.9654 88.5926 34.9016 88.6414 34.8469C88.6901 34.7923 88.7229 34.7214 88.7141 34.6892C88.7053 34.6571 88.7164 34.6217 88.7385 34.6106C88.8058 34.5769 88.9944 34.3588 89.0119 34.2946C89.0209 34.2615 89.0113 34.2274 88.9906 34.2187C88.9699 34.2101 88.9809 34.1957 89.0151 34.1867C89.0493 34.1778 89.0833 34.1305 89.0907 34.0817C89.098 34.0329 89.1228 33.9917 89.1456 33.9902C89.2004 33.9865 89.2753 33.8275 89.2734 33.7189C89.2726 33.6714 89.2981 33.6164 89.3301 33.5966C89.362 33.5769 89.4096 33.5032 89.4357 33.4328C89.4618 33.3625 89.5093 33.279 89.5412 33.2473C89.5731 33.2157 89.5976 33.1701 89.5957 33.1461C89.5912 33.0906 89.7694 32.7175 89.788 32.7432C89.7956 32.7537 89.8102 32.729 89.8203 32.6882C89.8304 32.6475 89.8237 32.6079 89.8054 32.6003C89.7871 32.5926 89.7804 32.5533 89.7904 32.5128C89.8004 32.4724 89.7915 32.4321 89.7706 32.4234C89.7496 32.4146 89.746 32.3976 89.7626 32.3856C89.7792 32.3735 89.7762 32.3229 89.756 32.2729C89.7357 32.223 89.7352 32.1573 89.7547 32.127C89.7751 32.0953 89.7918 32.0913 89.7939 32.1176C89.796 32.1429 89.8315 32.1408 89.8728 32.1129C89.9141 32.085 89.9352 32.0827 89.9198 32.1077C89.9043 32.1327 89.8973 32.1928 89.9042 32.2414C89.9167 32.3281 89.9178 32.3275 89.9645 32.2068C90.1185 31.8082 90.1304 31.6966 90.0205 31.6783C89.9314 31.6635 89.9467 31.6179 90.0499 31.5905C90.1096 31.5746 90.172 31.5405 90.1887 31.5147C90.2301 31.4503 90.1586 31.361 90.0997 31.4037C90.0736 31.4227 90.0431 31.4257 90.032 31.4105C90.0053 31.3737 90.1978 31.2841 90.2553 31.3065C90.3064 31.3265 90.3996 31.1159 90.3623 31.0645C90.3324 31.0233 90.247 31.0862 90.2518 31.1459C90.2562 31.2003 90.2038 31.2467 90.1781 31.2112C90.1683 31.1977 90.1678 31.1207 90.1769 31.04C90.1936 30.8924 90.2649 30.7968 90.3109 30.8601C90.3245 30.8789 90.3163 30.8955 90.2926 30.8972C90.2274 30.9016 90.2474 30.9699 90.3161 30.9772C90.3962 30.9858 90.4492 30.9425 90.462 30.8581C90.4704 30.8029 90.4613 30.7972 90.4164 30.8298C90.3728 30.8615 90.3536 30.8508 90.33 30.7819C90.3134 30.7332 90.3072 30.6738 90.3164 30.6499C90.3255 30.626 90.3094 30.5966 90.2806 30.5846C90.2429 30.5688 90.2515 30.5551 90.3114 30.5354C90.3623 30.5188 90.3845 30.4943 90.3685 30.4723C90.3511 30.4483 90.3671 30.4335 90.416 30.4281C90.5461 30.4135 90.5845 30.3178 90.5121 30.1892C90.4623 30.1009 90.4366 30.0814 90.4148 30.1152C90.3984 30.1406 90.3749 30.1473 90.3625 30.1302C90.35 30.113 90.3193 30.1139 90.2941 30.1322C90.2689 30.1504 90.225 30.1547 90.1964 30.1417C90.1677 30.1287 90.1638 30.1203 90.1876 30.123C90.2114 30.1258 90.2383 30.098 90.2475 30.0613C90.2602 30.0099 90.2732 30.0071 90.3039 30.0494C90.3259 30.0798 90.3567 30.0849 90.3727 30.0608C90.3886 30.0368 90.3872 30.0042 90.3695 29.9883C90.3242 29.9475 90.465 29.8893 90.5677 29.9064C90.6853 29.9259 90.712 29.8984 90.5992 29.8739C90.5491 29.863 90.4971 29.8399 90.4837 29.8225C90.4703 29.8052 90.4259 29.8081 90.3851 29.8289C90.3253 29.8593 90.3117 29.8525 90.3151 29.7937C90.3198 29.7125 90.4084 29.6283 90.4142 29.6996C90.4197 29.7674 90.6127 29.6776 90.6242 29.6019C90.6316 29.5527 90.6192 29.5384 90.5718 29.5416C90.5235 29.5449 90.5068 29.5249 90.4962 29.4511C90.4887 29.399 90.4964 29.3464 90.5132 29.3342C90.5576 29.302 90.5916 29.3631 90.5589 29.4161C90.5379 29.4501 90.5489 29.4611 90.6034 29.4609C90.7014 29.4603 90.709 29.4523 90.7331 29.324C90.7469 29.2506 90.7311 29.1933 90.6869 29.1568C90.6347 29.1136 90.62 29.1156 90.6211 29.1657C90.6222 29.2171 90.618 29.2185 90.6005 29.1725C90.5854 29.133 90.6172 29.0887 90.7013 29.0319C90.7788 28.9797 90.8012 28.9506 90.7619 28.9533C90.7128 28.9567 90.7044 28.9324 90.7221 28.8383C90.7345 28.7726 90.765 28.7176 90.7901 28.7159C90.8604 28.7111 90.8278 28.6893 90.7072 28.6603C90.6469 28.6459 90.5814 28.6458 90.5617 28.6601C90.5419 28.6745 90.5148 28.6712 90.5015 28.6529C90.4848 28.6299 90.5039 28.6161 90.5629 28.6083C90.6924 28.5914 90.6989 28.5734 90.609 28.4809C90.5603 28.4309 90.5447 28.3947 90.5709 28.3929C90.597 28.3912 90.5843 28.3605 90.5402 28.3189C90.4866 28.2683 90.4801 28.2438 90.5178 28.2339C90.5807 28.2174 90.6277 27.9589 90.5798 27.8929C90.5613 27.8675 90.5656 27.8357 90.5891 27.8224C90.6128 27.809 90.6271 27.7795 90.6211 27.7568C90.6151 27.7342 90.6391 27.6674 90.6744 27.6085C90.7097 27.5496 90.7188 27.4932 90.6948 27.4831C90.6163 27.4503 90.6365 27.3727 90.7266 27.3608C90.7762 27.3543 90.8083 27.3328 90.8062 27.3073C90.8043 27.284 90.7811 27.2715 90.7546 27.2798C90.7245 27.2891 90.7177 27.2441 90.7365 27.1602C90.7556 27.0749 90.7458 27.0119 90.7097 26.9882C90.6594 26.9551 90.6626 26.952 90.7371 26.9616C90.7954 26.9691 90.8157 26.9873 90.8025 27.0204C90.7902 27.0516 90.8091 27.0618 90.8564 27.0494C90.8977 27.0385 90.9325 27.0006 90.9368 26.9618C90.9428 26.9084 90.939 26.9056 90.9196 26.949C90.9019 26.9887 90.8857 26.9849 90.8632 26.9357C90.8445 26.8947 90.8566 26.8546 90.893 26.8367C90.9592 26.8043 90.9375 26.7413 90.8619 26.7465C90.8074 26.7502 90.7884 26.6533 90.8096 26.4794C90.8175 26.4139 90.8114 26.3428 90.7958 26.3214C90.7803 26.3 90.783 26.2851 90.8017 26.2882C90.8354 26.2938 90.8714 26.1585 90.8456 26.1229C90.8382 26.1128 90.8108 26.1201 90.7846 26.1391C90.7585 26.1581 90.7254 26.1576 90.7112 26.138C90.6969 26.1184 90.7122 26.0953 90.745 26.0867C90.7909 26.0747 90.7854 26.0463 90.7216 25.9649C90.6758 25.9065 90.6354 25.8048 90.6319 25.739C90.6283 25.6731 90.6089 25.5965 90.5887 25.5688C90.5686 25.5411 90.5649 25.4984 90.5805 25.4741C90.622 25.4095 90.4944 25.2193 90.4374 25.2607C90.4101 25.2805 90.3854 25.2691 90.3753 25.232C90.366 25.1982 90.3779 25.1564 90.4016 25.1392C90.455 25.1004 90.4359 24.9455 90.3696 24.8803C90.3425 24.8536 90.3366 24.8167 90.3565 24.7982C90.3765 24.7798 90.4057 24.7525 90.4216 24.7377C90.4374 24.7228 90.4339 24.6878 90.4137 24.66C90.3666 24.5952 90.2152 24.5668 90.2343 24.6265C90.2425 24.652 90.1971 24.6662 90.1226 24.6615C90.0236 24.6551 89.9991 24.639 90.0068 24.5855C90.0145 24.5316 90.0287 24.5256 90.0754 24.5564C90.1186 24.5847 90.1532 24.5734 90.204 24.5144C90.3159 24.3844 90.313 24.2877 90.1925 24.1217C90.0959 23.9885 90.091 23.9655 90.1524 23.9329C90.2212 23.8964 90.2208 23.8957 90.1258 23.8913C90.0727 23.8889 90.0315 23.8716 90.0343 23.853C90.0371 23.8344 89.9965 23.7918 89.9439 23.7583C89.8914 23.7249 89.8046 23.6319 89.7511 23.5516C89.6971 23.4705 89.6301 23.4071 89.6005 23.4092C89.5697 23.4112 89.5836 23.377 89.6334 23.3282C89.6809 23.2816 89.7209 23.2585 89.7224 23.2767C89.7239 23.295 89.7524 23.3027 89.7859 23.2939C89.8297 23.2824 89.8306 23.2558 89.789 23.1985C89.7573 23.1548 89.7147 23.1311 89.6943 23.1459C89.674 23.1607 89.6597 23.1566 89.6627 23.1369C89.6657 23.1171 89.6085 23.0933 89.5356 23.084C89.4627 23.0747 89.3888 23.0476 89.3715 23.0237C89.3542 22.9999 89.3103 22.9754 89.2739 22.9693C89.2225 22.9608 89.2162 22.9522 89.2459 22.9307C89.2668 22.9155 89.2693 22.8829 89.2514 22.8582C89.2149 22.8079 89.0978 22.8265 89.0737 22.8864C89.065 22.9079 89.0468 22.9101 89.0332 22.8914C89.0196 22.8726 88.9136 22.8415 88.7976 22.8222C88.5496 22.781 88.4198 22.7141 88.5318 22.6853C88.652 22.6544 88.6682 22.6401 88.6508 22.5807C88.6392 22.541 88.6227 22.5413 88.5968 22.5814C88.5486 22.6563 88.2358 22.6274 88.1629 22.5413C88.1181 22.4882 88.1244 22.4714 88.2007 22.4411C88.2982 22.4023 88.2837 22.3405 88.166 22.2927C88.0933 22.2633 87.9464 22.3284 87.9802 22.375C87.993 22.3927 88.0249 22.3915 88.051 22.3725C88.0772 22.3535 88.1092 22.3524 88.122 22.3702C88.1349 22.3879 88.1025 22.4334 88.0502 22.4714C87.9775 22.5242 87.9444 22.5259 87.9102 22.4788C87.8829 22.4412 87.8161 22.4274 87.7392 22.4435C87.6698 22.458 87.6044 22.458 87.5939 22.4436C87.5835 22.4292 87.5671 22.4367 87.5576 22.4603C87.5481 22.4839 87.531 22.4903 87.5196 22.4746C87.4919 22.4364 87.0738 22.5158 87.067 22.5605C87.0641 22.5798 87.0295 22.5998 86.9901 22.605C86.8379 22.625 86.6402 22.7414 86.0776 23.1423C85.7567 23.3709 85.4931 23.5655 85.4917 23.5748ZM89.9338 24.2993C89.9382 24.3538 90.0478 24.3338 90.0928 24.2703C90.1126 24.2424 90.0893 24.2316 90.0267 24.2398C89.963 24.2481 89.9313 24.2685 89.9338 24.2993ZM90.7046 25.2824C90.7155 25.3224 90.7348 25.3212 90.7698 25.2782C90.839 25.1933 90.8261 25.126 90.751 25.1805C90.7169 25.2052 90.6961 25.2511 90.7046 25.2824ZM90.8413 25.4397C90.8373 25.4839 90.81 25.5264 90.7806 25.5341C90.7512 25.5418 90.7345 25.5754 90.7436 25.6086C90.7531 25.6434 90.7891 25.6615 90.8282 25.6513C90.8659 25.6414 90.8896 25.6124 90.8812 25.5864C90.8729 25.5605 90.892 25.5206 90.9235 25.4977C90.9711 25.4631 90.9773 25.3699 90.9358 25.3127C90.9122 25.2801 90.8478 25.3665 90.8413 25.4397ZM90.814 25.7582C90.8436 25.7509 90.8702 25.7298 90.873 25.7115C90.8757 25.6932 90.8515 25.6992 90.8191 25.7248C90.7832 25.7532 90.7812 25.7663 90.814 25.7582ZM90.7967 27.1227C90.8182 27.1528 90.8565 27.1761 90.8819 27.1744C90.9404 27.1704 90.9094 27.1278 90.8235 27.0939C90.7668 27.0715 90.7631 27.0755 90.7967 27.1227ZM90.821 27.7203C90.8371 27.7786 90.8434 27.7797 90.8518 27.7254C90.8577 27.6878 90.8485 27.6547 90.8316 27.652C90.8146 27.6491 90.8099 27.6799 90.821 27.7203ZM90.4917 28.0719C90.4938 28.0975 90.5097 28.108 90.5272 28.0953C90.5446 28.0827 90.5572 28.0514 90.5552 28.0259C90.5531 28.0003 90.5371 27.9898 90.5197 28.0025C90.5022 28.0151 90.4896 28.0464 90.4917 28.0719ZM90.856 27.9345C90.8848 27.9709 90.8978 27.9731 90.8893 27.94C90.8816 27.9101 90.8603 27.8832 90.842 27.8802C90.8237 27.8771 90.83 27.9015 90.856 27.9345ZM90.7262 28.2949C90.7391 28.3126 90.771 28.3116 90.7972 28.2926C90.8234 28.2736 90.8343 28.2435 90.8214 28.2258C90.8086 28.2081 90.7766 28.2092 90.7505 28.2282C90.7243 28.2472 90.7134 28.2772 90.7262 28.2949ZM90.7153 28.4994C90.76 28.6128 90.819 28.5874 90.7936 28.4657C90.7761 28.3817 90.7628 28.3667 90.7284 28.3917C90.7046 28.4089 90.6987 28.4574 90.7153 28.4994ZM90.251 29.4787C90.2532 29.5059 90.2668 29.5301 90.2812 29.5325C90.2957 29.5349 90.2997 29.5084 90.2902 29.4736C90.2705 29.4013 90.245 29.4046 90.251 29.4787ZM90.5057 30.0243C90.5077 30.0481 90.5303 30.0661 90.5562 30.0644C90.582 30.0626 90.5867 30.0386 90.5667 30.011C90.5256 29.9544 90.5005 29.9599 90.5057 30.0243ZM89.894 31.8377C89.8514 31.8843 89.8551 31.8907 89.9319 31.9035C90.0251 31.919 90.0507 31.8787 89.9837 31.8221C89.9604 31.8023 89.92 31.8094 89.894 31.8377ZM89.4675 32.8108C89.4709 32.8409 89.4776 32.8465 89.4823 32.8232C89.487 32.8 89.528 32.7924 89.5732 32.8064C89.6474 32.8294 89.6518 32.8266 89.6182 32.7783C89.5719 32.7118 89.4591 32.7362 89.4675 32.8108ZM89.0877 33.6203C89.0905 33.6559 89.0996 33.6548 89.1148 33.617C89.1319 33.5748 89.143 33.5793 89.158 33.6342C89.175 33.6969 89.1811 33.6966 89.197 33.6326C89.2073 33.5909 89.2065 33.5441 89.1953 33.5286C89.1652 33.4872 89.0826 33.5577 89.0877 33.6203ZM79.3161 39.6612C79.2713 39.7279 79.1997 39.8095 79.157 39.8424C79.0779 39.9033 78.9051 40.1371 78.8449 40.2645C78.8267 40.3031 78.7585 40.4265 78.6933 40.5387C78.4974 40.8763 78.3842 41.2256 78.3648 41.5531C78.3547 41.7236 78.357 41.8777 78.37 41.8955C78.3829 41.9134 78.3737 41.9293 78.3495 41.9309C78.3253 41.9326 78.3323 42.0036 78.3652 42.0887C78.398 42.1738 78.413 42.2521 78.3984 42.2627C78.3838 42.2733 78.3949 42.3318 78.423 42.3926C78.4512 42.4535 78.4537 42.5125 78.4285 42.5238C78.4034 42.535 78.4025 42.5822 78.4267 42.6285C78.4546 42.6823 78.4773 42.6959 78.4892 42.6662C78.4995 42.6406 78.5235 42.6411 78.5425 42.6672C78.6065 42.7555 78.6113 42.8393 78.5533 42.8546C78.5148 42.8647 78.512 42.8922 78.5448 42.9375C78.5719 42.9748 78.6083 42.995 78.6258 42.9823C78.6432 42.9697 78.6782 42.9878 78.7035 43.0227C78.7363 43.0678 78.7306 43.091 78.6837 43.1033C78.6298 43.1174 78.6317 43.1274 78.6946 43.1584C78.7368 43.1792 78.8 43.2472 78.8352 43.3096C78.8818 43.3924 78.9117 43.4138 78.946 43.3889C78.9723 43.3698 79.0142 43.384 79.0413 43.4213C79.0678 43.4579 79.1262 43.5058 79.171 43.5279C79.2158 43.55 79.295 43.6183 79.3469 43.6796C79.3988 43.741 79.5116 43.8238 79.5976 43.8636C79.6836 43.9034 79.7689 43.9565 79.7871 43.9817C79.8053 44.0068 79.8467 44.0259 79.8789 44.0241C79.9112 44.0223 80.0066 44.0561 80.0909 44.0993C80.1753 44.1424 80.2673 44.1719 80.2955 44.1649C80.3238 44.1579 80.3567 44.1658 80.3689 44.1825C80.4249 44.2597 81.1308 44.3179 81.3022 44.2594C81.3532 44.242 81.4474 44.2341 81.5116 44.2419C81.6183 44.2548 81.6294 44.2485 81.6416 44.1681C81.6509 44.1066 81.6898 44.0639 81.7711 44.0259C81.9145 43.9589 81.9428 43.9604 81.9134 44.0334C81.8944 44.0806 81.9013 44.0898 81.9537 44.087C82.0381 44.0824 82.2984 43.9039 82.2725 43.8683C82.2528 43.8411 82.1733 43.8773 82.0996 43.9471C82.0799 43.9659 82.0528 43.966 82.0394 43.9476C82.0129 43.9112 82.1461 43.8091 82.2728 43.7686C82.3161 43.7548 82.3673 43.7652 82.3865 43.7917C82.4232 43.8423 82.5928 43.7312 82.6627 43.6108C82.6816 43.5784 82.7304 43.5323 82.7713 43.5083C82.8122 43.4843 82.8643 43.4149 82.887 43.3539C82.9097 43.2929 82.9582 43.2302 82.9948 43.2146C83.0314 43.199 83.0946 43.1118 83.1352 43.021C83.1759 42.9301 83.2165 42.8509 83.2254 42.8449C83.2745 42.812 83.3641 42.6354 83.345 42.6091C83.3328 42.5922 83.3475 42.5449 83.3778 42.504C83.4828 42.3622 83.5189 42.1812 83.4587 42.0981C83.4267 42.054 83.4203 42.0166 83.4446 42.015C83.4689 42.0133 83.4962 42.0391 83.5052 42.0722C83.5397 42.1988 83.5557 42.0991 83.5255 41.9453C83.5081 41.8566 83.5073 41.7339 83.5237 41.6727C83.5577 41.5464 83.5106 41.4524 83.4393 41.5041C83.3783 41.5484 83.3449 41.5011 83.3372 41.359C83.3313 41.2509 83.242 41.1055 82.9932 40.7989C82.9224 40.7117 82.8926 40.6465 82.9114 40.62C82.9346 40.5873 82.9241 40.5736 82.8629 40.5568C82.7962 40.5385 82.7951 40.5326 82.8556 40.5162C82.8946 40.5056 82.9163 40.483 82.9038 40.4658C82.8914 40.4487 82.8669 40.445 82.8495 40.4577C82.832 40.4703 82.7914 40.4445 82.7593 40.4002C82.7272 40.3559 82.7147 40.3097 82.7317 40.2974C82.7485 40.2852 82.7368 40.2549 82.7057 40.2303C82.6745 40.2056 82.6895 40.2058 82.739 40.2306C82.842 40.2822 82.8997 40.2599 82.8479 40.1885C82.8286 40.1619 82.8343 40.1246 82.8605 40.1056C82.9208 40.0618 82.9088 40.0466 82.7719 39.9936C82.6883 39.9612 82.6632 39.9349 82.6704 39.8872C82.6817 39.8126 82.6469 39.7512 82.6246 39.8064C82.6162 39.8274 82.5798 39.8201 82.5438 39.7904C82.4942 39.7494 82.4936 39.7323 82.5409 39.7198C82.5859 39.7081 82.5876 39.6929 82.5469 39.6662C82.5158 39.6457 82.48 39.6148 82.4675 39.5975C82.4549 39.5802 82.4369 39.5854 82.4273 39.609C82.4178 39.6326 82.3993 39.6371 82.3861 39.619C82.373 39.6008 82.3792 39.5503 82.4001 39.5067C82.4332 39.4374 82.4252 39.4198 82.3365 39.3668C82.2313 39.3041 81.9107 39.167 81.8579 39.1622C81.8414 39.1606 81.7118 39.1212 81.5699 39.0746C81.3149 38.9907 80.9534 38.9339 80.9036 38.97C80.8895 38.9803 80.8102 38.9826 80.7274 38.9751C80.6445 38.9677 80.5474 38.9812 80.5115 39.0052C80.412 39.0716 80.1891 39.1261 80.1615 39.0909C80.148 39.0736 80.0968 39.0861 80.0477 39.1186C79.9986 39.1511 79.9494 39.1803 79.9383 39.1834C79.8417 39.2105 79.3813 39.564 79.3161 39.6612ZM82.2488 39.4519C82.2457 39.4722 82.254 39.5037 82.2673 39.522C82.2819 39.5422 82.2953 39.5295 82.3014 39.4899C82.3068 39.454 82.2984 39.4224 82.2828 39.4198C82.2671 39.4172 82.2518 39.4317 82.2488 39.4519ZM83.1425 41.2567C83.1712 41.2931 83.1843 41.2952 83.1758 41.2622C83.1681 41.2323 83.1468 41.2054 83.1285 41.2023C83.1102 41.1993 83.1165 41.2237 83.1425 41.2567ZM83.4347 41.192C83.4634 41.2284 83.4765 41.2306 83.468 41.1976C83.4603 41.1677 83.439 41.1407 83.4207 41.1377C83.4024 41.1347 83.4087 41.1591 83.4347 41.192Z" fill="white"/>
<path opacity="0.7" fill-rule="evenodd" clip-rule="evenodd" d="M10.9815 199.367C10.983 199.376 10.9158 199.539 10.8322 199.73C10.6444 200.158 10.6542 200.131 10.6388 200.259C10.628 200.346 10.6216 200.355 10.6002 200.308C10.5795 200.263 10.5763 200.266 10.5836 200.324C10.5887 200.364 10.5741 200.422 10.5512 200.453C10.5284 200.485 10.5242 200.521 10.5419 200.534C10.5596 200.547 10.5639 200.566 10.5515 200.577C10.5392 200.588 10.5157 200.653 10.4995 200.721C10.4833 200.789 10.4493 200.891 10.4239 200.946C10.3986 201.001 10.3849 201.064 10.3935 201.084C10.4021 201.105 10.3885 201.15 10.3633 201.185C10.3382 201.219 10.3234 201.293 10.3305 201.348C10.3376 201.403 10.3252 201.563 10.3029 201.702C10.2806 201.841 10.2735 201.981 10.287 202.012C10.3006 202.044 10.294 202.077 10.2723 202.085C10.2126 202.109 10.2025 202.275 10.2582 202.316C10.2851 202.335 10.2895 202.358 10.2678 202.367C10.1922 202.397 10.1706 202.591 10.2375 202.64C10.3052 202.689 10.2916 202.756 10.2188 202.732C10.1949 202.724 10.1817 202.764 10.1878 202.825C10.1936 202.884 10.195 202.972 10.1907 203.021C10.1865 203.07 10.2028 203.118 10.227 203.128C10.2551 203.14 10.2467 203.165 10.2035 203.196C10.157 203.23 10.1505 203.256 10.1828 203.279C10.2084 203.298 10.2206 203.345 10.2098 203.384C10.166 203.541 10.1651 203.727 10.208 203.758C10.2331 203.776 10.237 203.844 10.2167 203.909C10.1761 204.039 10.1844 204.153 10.2374 204.192C10.2564 204.206 10.2638 204.228 10.2539 204.241C10.2071 204.306 10.2873 205.481 10.3745 206.009C10.3951 206.133 10.4064 206.254 10.3998 206.278C10.3931 206.302 10.4157 206.444 10.45 206.594C10.4843 206.743 10.5006 206.857 10.4863 206.848C10.472 206.839 10.477 206.899 10.4974 206.983C10.5178 207.066 10.5223 207.109 10.5074 207.078C10.4892 207.041 10.4746 207.04 10.4631 207.077C10.4537 207.107 10.466 207.147 10.4906 207.165C10.5151 207.182 10.5279 207.242 10.5189 207.297C10.5099 207.353 10.5174 207.404 10.5354 207.412C10.5534 207.42 10.5603 207.467 10.5507 207.517C10.541 207.567 10.5435 207.615 10.5562 207.625C10.586 207.646 10.62 207.874 10.6098 207.984C10.6055 208.032 10.6228 208.092 10.6483 208.12C10.7217 208.198 10.75 208.411 10.6997 208.506C10.6745 208.554 10.669 208.602 10.6876 208.614C10.7303 208.641 10.7516 208.763 10.721 208.805C10.7082 208.822 10.7231 208.87 10.754 208.911C10.7849 208.953 10.8306 209.113 10.8557 209.267C10.8806 209.422 10.925 209.632 10.9541 209.733C10.9833 209.834 11.019 209.985 11.0334 210.069C11.0478 210.153 11.0736 210.232 11.0907 210.244C11.1079 210.257 11.1484 210.388 11.1807 210.535C11.2179 210.704 11.2736 210.834 11.3318 210.887C11.3825 210.934 11.4302 211.02 11.4378 211.079C11.4453 211.138 11.4742 211.202 11.5019 211.223C11.5296 211.243 11.5548 211.316 11.5579 211.385C11.5609 211.453 11.5859 211.526 11.6133 211.546C11.653 211.575 11.6621 211.568 11.6579 211.509C11.6535 211.446 11.6603 211.449 11.705 211.529C11.7337 211.581 11.7389 211.635 11.7165 211.65C11.6582 211.687 11.7409 211.797 11.824 211.792C11.905 211.787 11.9882 211.892 11.924 211.917C11.9002 211.927 11.8949 211.945 11.9122 211.958C11.9294 211.97 11.9574 211.974 11.9743 211.967C11.9912 211.959 11.985 211.969 11.9604 211.989C11.9359 212.009 11.9259 212.05 11.9383 212.081C11.9721 212.165 12.0045 212.178 12.0212 212.115C12.0431 212.032 12.2325 212.204 12.2219 212.298C12.2112 212.392 12.2938 212.451 12.4401 212.455C12.5063 212.456 12.532 212.467 12.5004 212.48C12.4677 212.493 12.4551 212.526 12.4694 212.562C12.5 212.638 12.5441 212.672 12.5475 212.623C12.5489 212.602 12.5883 212.622 12.6349 212.668C12.6879 212.719 12.7299 212.736 12.747 212.713C12.7639 212.69 12.7934 212.701 12.8251 212.744C12.853 212.782 12.9085 212.811 12.9482 212.809C12.9879 212.806 13.0289 212.825 13.0391 212.849C13.0494 212.874 13.0745 212.871 13.0948 212.843C13.1151 212.815 13.1482 212.808 13.1682 212.827C13.2628 212.916 13.2982 212.916 13.3341 212.826C13.3542 212.775 13.3898 212.736 13.4131 212.738C13.4732 212.743 13.5372 212.851 13.4909 212.869C13.4218 212.897 13.509 212.928 13.6445 212.924C13.7957 212.919 13.8519 212.874 13.7491 212.84C13.6943 212.822 13.6941 212.817 13.7483 212.818C13.7859 212.819 13.8288 212.838 13.8436 212.86C13.8584 212.883 13.9183 212.892 13.9767 212.88C14.0351 212.868 14.1031 212.873 14.1278 212.891C14.1525 212.909 14.2301 212.89 14.3004 212.847C14.3706 212.805 14.4361 212.782 14.4461 212.796C14.456 212.81 14.4705 212.815 14.4783 212.807C14.5281 212.758 14.6786 212.712 14.6911 212.742C14.7085 212.784 14.7979 212.734 14.8605 212.648C14.884 212.616 14.9391 212.601 14.9828 212.616C15.0266 212.631 15.0635 212.626 15.0649 212.606C15.0664 212.585 15.1226 212.553 15.1898 212.535C15.2571 212.516 15.3194 212.474 15.3282 212.44C15.3384 212.402 15.3739 212.389 15.4242 212.406C15.4733 212.423 15.51 212.41 15.5196 212.374C15.5283 212.341 15.5623 212.307 15.5953 212.298C15.6674 212.278 15.9199 212.016 16.1464 211.725C16.2564 211.584 16.3337 211.514 16.3778 211.517C16.4325 211.52 16.4391 211.504 16.4158 211.428C16.4003 211.377 16.4048 211.348 16.4259 211.363C16.4469 211.379 16.4752 211.376 16.4886 211.358C16.502 211.339 16.4889 211.322 16.4594 211.32C16.4252 211.317 16.4248 211.308 16.4581 211.294C16.4875 211.282 16.5053 211.228 16.4988 211.171C16.492 211.112 16.5028 211.08 16.5242 211.095C16.5446 211.11 16.551 211.137 16.5383 211.154C16.5256 211.172 16.5297 211.196 16.5474 211.209C16.5651 211.222 16.6009 211.203 16.627 211.167C16.6532 211.131 16.6537 211.1 16.6281 211.098C16.5487 211.092 16.5356 211.006 16.6112 210.988C16.6607 210.976 16.6816 210.946 16.6911 210.875C16.6981 210.821 16.7119 210.797 16.7216 210.821C16.7562 210.904 16.8384 210.799 16.8169 210.699C16.7916 210.582 16.8182 210.525 16.8646 210.596C16.891 210.636 16.9128 210.611 16.9882 210.454C17.0385 210.349 17.0786 210.24 17.0772 210.213C17.0758 210.185 17.1167 210.087 17.1681 209.995C17.2194 209.903 17.2602 209.802 17.2588 209.77C17.2558 209.708 17.3387 209.416 17.3745 209.362C17.3865 209.344 17.3979 209.309 17.3999 209.284C17.4018 209.258 17.4276 209.183 17.4571 209.116C17.4866 209.049 17.4958 208.971 17.4776 208.943C17.4593 208.916 17.4589 208.879 17.4766 208.861C17.5301 208.808 17.6422 208.543 17.639 208.476C17.6373 208.442 17.6177 208.412 17.5953 208.411C17.573 208.409 17.579 208.392 17.6088 208.373C17.6385 208.354 17.6562 208.298 17.6482 208.249C17.6402 208.201 17.651 208.154 17.6722 208.145C17.7232 208.125 17.7454 207.951 17.7101 207.848C17.6946 207.803 17.7019 207.743 17.7262 207.714C17.7505 207.685 17.7729 207.601 17.7761 207.526C17.7792 207.451 17.7986 207.357 17.8192 207.317C17.8397 207.277 17.849 207.226 17.8397 207.204C17.8184 207.152 17.8726 206.742 17.8983 206.761C17.9088 206.769 17.915 206.741 17.912 206.699C17.909 206.657 17.8905 206.621 17.8707 206.62C17.851 206.618 17.8324 206.583 17.8295 206.541C17.8265 206.5 17.8056 206.464 17.783 206.462C17.7603 206.46 17.7517 206.445 17.7637 206.429C17.7758 206.412 17.7573 206.365 17.7226 206.324C17.688 206.282 17.6672 206.22 17.6764 206.185C17.686 206.149 17.7007 206.14 17.7108 206.164C17.7206 206.188 17.7537 206.175 17.7843 206.135C17.815 206.096 17.8344 206.087 17.8274 206.116C17.8204 206.144 17.8323 206.204 17.8539 206.248C17.8925 206.326 17.8934 206.326 17.9005 206.196C17.9241 205.77 17.9008 205.66 17.7907 205.676C17.7014 205.69 17.7018 205.642 17.7916 205.584C17.8434 205.55 17.8923 205.499 17.9001 205.469C17.9197 205.395 17.8241 205.332 17.7813 205.391C17.7622 205.417 17.7342 205.429 17.719 205.418C17.6822 205.391 17.8376 205.247 17.8992 205.25C17.954 205.253 17.9776 205.024 17.9263 204.987C17.8851 204.957 17.8233 205.043 17.8463 205.099C17.8673 205.149 17.8318 205.209 17.7963 205.183C17.7829 205.174 17.7586 205.1 17.7424 205.021C17.7127 204.875 17.751 204.762 17.8143 204.808C17.833 204.822 17.8304 204.84 17.8084 204.849C17.7477 204.874 17.7878 204.932 17.8555 204.918C17.9342 204.902 17.9713 204.844 17.9575 204.76C17.9484 204.705 17.9379 204.702 17.9053 204.747C17.8736 204.791 17.852 204.786 17.8084 204.728C17.7775 204.687 17.7533 204.632 17.7546 204.607C17.7559 204.581 17.7315 204.558 17.7004 204.556C17.6597 204.552 17.6637 204.537 17.7146 204.499C17.7579 204.468 17.7714 204.438 17.7494 204.422C17.7255 204.404 17.7361 204.385 17.7809 204.365C17.9002 204.311 17.9072 204.208 17.7985 204.108C17.724 204.04 17.6935 204.029 17.6832 204.068C17.6755 204.097 17.6551 204.111 17.638 204.098C17.6209 204.086 17.5919 204.096 17.5736 204.121C17.5553 204.146 17.5148 204.164 17.4836 204.16C17.4524 204.157 17.446 204.15 17.4695 204.145C17.493 204.141 17.51 204.106 17.5074 204.068C17.5036 204.015 17.5151 204.009 17.5574 204.04C17.5877 204.062 17.6186 204.057 17.6263 204.029C17.6341 204.001 17.6227 203.971 17.6009 203.961C17.5453 203.936 17.6612 203.837 17.7642 203.822C17.8821 203.804 17.899 203.77 17.7841 203.781C17.7331 203.786 17.6765 203.781 17.6584 203.768C17.6403 203.756 17.599 203.772 17.5666 203.805C17.5191 203.852 17.504 203.85 17.4891 203.793C17.4685 203.714 17.5268 203.607 17.5543 203.673C17.5804 203.736 17.7363 203.591 17.7239 203.515C17.7158 203.466 17.6996 203.456 17.6555 203.474C17.6105 203.492 17.5884 203.478 17.5556 203.411C17.5324 203.364 17.5235 203.311 17.5357 203.295C17.568 203.25 17.6191 203.298 17.6044 203.358C17.595 203.397 17.6089 203.404 17.6606 203.387C17.7537 203.356 17.7584 203.347 17.7417 203.217C17.7322 203.143 17.6995 203.093 17.6461 203.072C17.5832 203.047 17.5698 203.054 17.5863 203.101C17.6032 203.15 17.5997 203.152 17.5688 203.114C17.5423 203.081 17.5588 203.029 17.6213 202.949C17.6789 202.875 17.6912 202.841 17.6547 202.856C17.609 202.874 17.5935 202.853 17.5813 202.758C17.5728 202.692 17.5848 202.63 17.6082 202.621C17.6735 202.595 17.6358 202.584 17.5121 202.594C17.4504 202.599 17.3881 202.619 17.3737 202.638C17.3593 202.658 17.3325 202.663 17.3142 202.65C17.2913 202.633 17.3052 202.614 17.3589 202.589C17.4768 202.533 17.4774 202.514 17.3634 202.453C17.3016 202.421 17.2756 202.391 17.3 202.382C17.3243 202.372 17.3027 202.347 17.2479 202.321C17.1813 202.289 17.1676 202.268 17.2004 202.247C17.2551 202.212 17.22 201.951 17.154 201.903C17.1287 201.885 17.1229 201.853 17.1412 201.833C17.1596 201.813 17.1641 201.781 17.1514 201.761C17.1387 201.741 17.1409 201.67 17.1563 201.603C17.1716 201.537 17.163 201.48 17.137 201.478C17.0522 201.471 17.0474 201.391 17.1294 201.352C17.1746 201.33 17.1985 201.3 17.1887 201.276C17.1797 201.255 17.1537 201.25 17.1311 201.266C17.1054 201.284 17.085 201.243 17.0769 201.158C17.0688 201.071 17.04 201.014 16.9983 201.003C16.9403 200.987 16.9424 200.983 17.0162 200.969C17.074 200.958 17.0989 200.969 17.0966 201.005C17.0945 201.038 17.1156 201.042 17.1567 201.015C17.1927 200.992 17.2141 200.946 17.2062 200.907C17.1954 200.855 17.191 200.853 17.1859 200.9C17.1814 200.944 17.1648 200.945 17.1282 200.905C17.0977 200.872 17.0968 200.83 17.1259 200.802C17.1789 200.751 17.1388 200.697 17.0685 200.726C17.0178 200.746 16.9699 200.66 16.9363 200.488C16.9236 200.423 16.8958 200.357 16.8745 200.342C16.8531 200.326 16.851 200.311 16.8698 200.308C16.9036 200.303 16.896 200.163 16.8605 200.138C16.8504 200.13 16.8265 200.146 16.8075 200.172C16.7885 200.198 16.7569 200.208 16.7373 200.193C16.7177 200.179 16.7251 200.153 16.7537 200.134C16.7935 200.109 16.7796 200.083 16.6937 200.026C16.6322 199.984 16.5624 199.9 16.5387 199.838C16.5149 199.777 16.4728 199.71 16.4451 199.69C16.4174 199.67 16.4008 199.63 16.4081 199.602C16.4275 199.528 16.2475 199.387 16.206 199.443C16.1862 199.471 16.1591 199.467 16.1381 199.435C16.1189 199.406 16.1173 199.363 16.1345 199.339C16.1734 199.286 16.1074 199.144 16.0242 199.103C15.9902 199.086 15.9732 199.052 15.9864 199.029C15.9997 199.005 16.0191 198.97 16.0296 198.951C16.04 198.932 16.0259 198.9 15.9981 198.879C15.9333 198.832 15.7805 198.852 15.8171 198.903C15.8328 198.925 15.794 198.952 15.7216 198.971C15.6256 198.995 15.5973 198.987 15.588 198.934C15.5787 198.881 15.5904 198.87 15.6444 198.885C15.6941 198.899 15.7236 198.877 15.7537 198.806C15.8199 198.647 15.7874 198.556 15.6215 198.436C15.4885 198.339 15.4768 198.318 15.5251 198.268C15.5793 198.213 15.5786 198.212 15.487 198.237C15.4356 198.251 15.3912 198.248 15.3881 198.229C15.385 198.21 15.3332 198.182 15.2729 198.167C15.2126 198.151 15.1014 198.09 15.0257 198.03C14.9493 197.969 14.866 197.93 14.8385 197.941C14.8098 197.952 14.8125 197.915 14.8448 197.854C14.8755 197.795 14.9065 197.76 14.9135 197.777C14.9205 197.794 14.9501 197.793 14.9792 197.774C15.0174 197.749 15.01 197.724 14.9527 197.682C14.9091 197.65 14.8612 197.641 14.8464 197.661C14.8316 197.682 14.8168 197.682 14.8136 197.663C14.8103 197.643 14.7486 197.638 14.6763 197.651C14.6041 197.665 14.5255 197.662 14.5017 197.645C14.4778 197.627 14.4285 197.618 14.392 197.623C14.3405 197.631 14.3319 197.625 14.3534 197.595C14.3687 197.574 14.361 197.542 14.3363 197.524C14.2861 197.488 14.1804 197.542 14.176 197.606C14.1744 197.629 14.1577 197.637 14.139 197.623C14.1203 197.61 14.0098 197.613 13.8936 197.63C13.645 197.668 13.5009 197.644 13.5985 197.582C13.7032 197.516 13.7142 197.497 13.6794 197.446C13.6561 197.412 13.6405 197.417 13.6283 197.463C13.6055 197.549 13.299 197.618 13.2032 197.559C13.1441 197.522 13.145 197.504 13.2082 197.452C13.2889 197.385 13.2561 197.331 13.1293 197.322C13.0511 197.316 12.9315 197.423 12.9781 197.457C12.9957 197.47 13.0256 197.459 13.0447 197.433C13.0637 197.407 13.0937 197.396 13.1114 197.409C13.1291 197.422 13.1124 197.475 13.0744 197.527C13.0215 197.6 12.9906 197.612 12.9435 197.578C12.906 197.55 12.8382 197.558 12.77 197.597C12.7084 197.632 12.6462 197.652 12.6318 197.642C12.6174 197.631 12.6042 197.643 12.6024 197.669C12.6007 197.694 12.5864 197.706 12.5707 197.694C12.5325 197.666 12.1594 197.871 12.1667 197.916C12.1699 197.935 12.1432 197.965 12.1073 197.982C11.9687 198.048 11.8166 198.219 11.4052 198.774C11.1706 199.091 10.98 199.357 10.9815 199.367ZM15.4303 198.685C15.4512 198.735 15.5493 198.682 15.5726 198.608C15.5828 198.575 15.5573 198.572 15.5003 198.599C15.4422 198.627 15.4184 198.656 15.4303 198.685ZM16.4669 199.382C16.4896 199.416 16.5077 199.409 16.5277 199.358C16.5673 199.255 16.5342 199.195 16.4796 199.27C16.4548 199.304 16.4491 199.354 16.4669 199.382ZM16.6455 199.489C16.6554 199.532 16.6425 199.581 16.6169 199.598C16.5913 199.614 16.5858 199.651 16.6047 199.68C16.6245 199.71 16.6643 199.716 16.6984 199.694C16.7311 199.673 16.7447 199.638 16.7287 199.616C16.7129 199.594 16.7186 199.55 16.7416 199.519C16.7762 199.471 16.7533 199.381 16.6962 199.339C16.6636 199.315 16.6291 199.417 16.6455 199.489ZM16.7179 199.8C16.7438 199.784 16.7625 199.756 16.7595 199.738C16.7565 199.719 16.7353 199.733 16.7124 199.767C16.687 199.805 16.6892 199.818 16.7179 199.8ZM17.1227 201.104C17.1524 201.126 17.196 201.136 17.2196 201.126C17.274 201.105 17.2314 201.074 17.1392 201.068C17.0784 201.064 17.0761 201.069 17.1227 201.104ZM17.3302 201.665C17.3635 201.715 17.3698 201.714 17.3611 201.66C17.3551 201.622 17.3362 201.594 17.3192 201.596C17.3022 201.599 17.3071 201.63 17.3302 201.665ZM17.1256 202.101C17.1354 202.124 17.1538 202.129 17.1665 202.112C17.1792 202.095 17.1816 202.061 17.1717 202.037C17.1619 202.014 17.1434 202.008 17.1307 202.026C17.118 202.043 17.1157 202.077 17.1256 202.101ZM17.4297 201.857C17.4682 201.883 17.4813 201.881 17.4631 201.852C17.4465 201.826 17.4179 201.807 17.3996 201.81C17.3812 201.813 17.3948 201.834 17.4297 201.857ZM17.4175 202.24C17.4352 202.253 17.4652 202.242 17.4842 202.216C17.5033 202.19 17.5044 202.158 17.4867 202.145C17.469 202.132 17.439 202.143 17.4199 202.169C17.4009 202.196 17.3998 202.227 17.4175 202.24ZM17.4702 202.438C17.5477 202.532 17.596 202.49 17.5342 202.382C17.4917 202.308 17.4744 202.297 17.4494 202.332C17.4321 202.355 17.4415 202.403 17.4702 202.438ZM17.3309 203.513C17.3414 203.538 17.3618 203.557 17.3763 203.555C17.3908 203.553 17.3864 203.526 17.3666 203.496C17.3256 203.433 17.3023 203.444 17.3309 203.513ZM17.7416 203.953C17.7508 203.975 17.7779 203.985 17.802 203.976C17.826 203.966 17.823 203.942 17.7955 203.922C17.739 203.881 17.7168 203.894 17.7416 203.953ZM17.7196 205.867C17.6934 205.924 17.6989 205.929 17.776 205.918C17.8693 205.904 17.8812 205.858 17.8001 205.824C17.7718 205.813 17.7356 205.832 17.7196 205.867ZM17.6143 206.924C17.6269 206.952 17.6349 206.955 17.6323 206.931C17.6295 206.908 17.6661 206.888 17.7135 206.887C17.7911 206.886 17.7945 206.882 17.7476 206.847C17.683 206.798 17.5832 206.856 17.6143 206.924ZM17.5029 207.811C17.5167 207.844 17.525 207.841 17.5278 207.8C17.5309 207.755 17.5429 207.755 17.5741 207.803C17.6097 207.857 17.6153 207.855 17.6107 207.789C17.6077 207.747 17.5925 207.702 17.577 207.691C17.5356 207.661 17.4787 207.753 17.5029 207.811ZM10.0735 216.574C10.0515 216.651 10.0085 216.751 9.97807 216.795C9.92168 216.878 9.82951 217.153 9.81158 217.293C9.80617 217.335 9.77939 217.474 9.75204 217.601C9.66986 217.982 9.67007 218.349 9.75274 218.667C9.79576 218.832 9.84553 218.978 9.86335 218.991C9.88117 219.004 9.87731 219.022 9.8548 219.031C9.83227 219.04 9.8609 219.105 9.91842 219.176C9.97592 219.247 10.0143 219.317 10.0037 219.332C9.99307 219.346 10.0217 219.398 10.0672 219.448C10.1128 219.497 10.1334 219.552 10.113 219.571C10.0926 219.589 10.1063 219.634 10.1435 219.671C10.1867 219.713 10.2125 219.719 10.2147 219.687C10.2166 219.66 10.2395 219.653 10.2656 219.672C10.3538 219.736 10.3842 219.814 10.3337 219.847C10.3002 219.868 10.3061 219.895 10.3513 219.928C10.3886 219.955 10.4295 219.963 10.4422 219.946C10.4548 219.928 10.4937 219.935 10.5286 219.96C10.5736 219.993 10.5754 220.017 10.5346 220.043C10.4877 220.073 10.4926 220.082 10.562 220.092C10.6085 220.099 10.6896 220.144 10.7423 220.192C10.8123 220.257 10.8473 220.268 10.8722 220.234C10.8914 220.207 10.9356 220.208 10.9728 220.235C11.0094 220.262 11.0797 220.289 11.1292 220.296C11.1786 220.304 11.275 220.344 11.3433 220.386C11.4116 220.429 11.5445 220.473 11.6385 220.484C11.7326 220.495 11.8301 220.52 11.8553 220.538C11.8804 220.556 11.9255 220.562 11.9557 220.55C11.9858 220.538 12.087 220.541 12.1805 220.556C12.2741 220.571 12.3708 220.571 12.3954 220.555C12.4201 220.54 12.4539 220.537 12.4706 220.549C12.5477 220.605 13.2371 220.443 13.3821 220.334C13.4252 220.302 13.5124 220.265 13.5758 220.253C13.6813 220.232 13.6899 220.223 13.6767 220.143C13.6666 220.081 13.6904 220.029 13.756 219.967C13.8717 219.859 13.8991 219.852 13.8936 219.931C13.8901 219.981 13.8996 219.988 13.9485 219.969C14.0274 219.939 14.2198 219.689 14.1842 219.663C14.1571 219.643 14.0927 219.702 14.0442 219.791C14.0312 219.815 14.0054 219.824 13.987 219.81C13.9506 219.784 14.0457 219.645 14.1538 219.568C14.1907 219.541 14.2426 219.535 14.2691 219.555C14.3196 219.592 14.4466 219.433 14.4759 219.297C14.4838 219.261 14.5161 219.202 14.5476 219.166C14.5791 219.131 14.6072 219.049 14.6099 218.984C14.6127 218.919 14.6395 218.844 14.6694 218.818C14.6994 218.792 14.7326 218.689 14.7433 218.591C14.7539 218.492 14.768 218.404 14.7747 218.395C14.8112 218.349 14.842 218.153 14.8157 218.134C14.7988 218.122 14.7982 218.072 14.8144 218.024C14.8705 217.857 14.849 217.673 14.766 217.613C14.722 217.581 14.7044 217.547 14.727 217.538C14.7496 217.529 14.7835 217.545 14.8023 217.574C14.8742 217.684 14.8586 217.584 14.7824 217.447C14.7385 217.368 14.6999 217.251 14.6966 217.188C14.6899 217.058 14.616 216.983 14.5642 217.054C14.5198 217.115 14.4735 217.08 14.4223 216.947C14.3834 216.846 14.2535 216.736 13.9222 216.521C13.8279 216.46 13.7795 216.407 13.7892 216.376C13.8012 216.338 13.787 216.328 13.7236 216.331C13.6544 216.334 13.6516 216.329 13.704 216.294C13.7379 216.272 13.7515 216.244 13.7344 216.232C13.7173 216.219 13.6928 216.223 13.6802 216.241C13.6675 216.258 13.6209 216.246 13.5767 216.214C13.5325 216.182 13.5063 216.141 13.5186 216.125C13.5309 216.108 13.5104 216.083 13.4732 216.069C13.4359 216.055 13.4502 216.05 13.505 216.059C13.6189 216.076 13.6669 216.037 13.5956 215.985C13.569 215.966 13.5629 215.929 13.5819 215.902C13.6258 215.842 13.6097 215.831 13.4631 215.823C13.3736 215.818 13.3416 215.801 13.3338 215.753C13.3215 215.679 13.2693 215.631 13.2652 215.691C13.2637 215.713 13.2269 215.717 13.1834 215.7C13.1236 215.677 13.1177 215.661 13.1589 215.634C13.198 215.609 13.195 215.594 13.1481 215.581C13.1121 215.571 13.0686 215.553 13.0513 215.54C13.034 215.528 13.0184 215.538 13.0167 215.564C13.0149 215.589 12.9986 215.599 12.9805 215.586C12.9624 215.573 12.9528 215.523 12.9592 215.475C12.9692 215.399 12.9562 215.384 12.8555 215.361C12.7361 215.334 12.3888 215.303 12.3371 215.315C12.3209 215.318 12.1855 215.321 12.0362 215.32C11.7677 215.319 11.4063 215.377 11.3701 215.426C11.3598 215.44 11.2851 215.467 11.204 215.486C11.1229 215.504 11.0347 215.547 11.008 215.581C10.9339 215.675 10.7387 215.795 10.7015 215.77C10.6834 215.758 10.6385 215.786 10.6019 215.832C10.5652 215.878 10.5274 215.921 10.5178 215.927C10.4343 215.983 10.1056 216.461 10.0735 216.574ZM12.7983 215.469C12.8016 215.49 12.8193 215.517 12.8376 215.53C12.8577 215.545 12.8666 215.529 12.8601 215.489C12.8542 215.453 12.8365 215.426 12.8208 215.428C12.8051 215.431 12.795 215.449 12.7983 215.469ZM14.2055 216.91C14.2441 216.936 14.2572 216.934 14.2389 216.905C14.2223 216.879 14.1938 216.86 14.1754 216.863C14.1571 216.866 14.1706 216.887 14.2055 216.91ZM14.4635 216.758C14.5021 216.784 14.5152 216.782 14.4969 216.753C14.4803 216.727 14.4518 216.708 14.4334 216.711C14.4151 216.714 14.4286 216.735 14.4635 216.758Z" fill="white"/>
</g>
<defs>
<filter id="filter0_dii_8_15473" x="-3.45917" y="-1.1037" width="276.159" height="273.804" filterUnits="userSpaceOnUse" color-interpolation-filters="sRGB">
<feFlood flood-opacity="0" result="BackgroundImageFix"/>
<feColorMatrix in="SourceAlpha" type="matrix" values="0 0 0 0 0 0 0 0 0 0 0 0 0 0 0 0 0 0 127 0" result="hardAlpha"/>
<feOffset dx="6.62429" dy="4.4162"/>
<feGaussianBlur stdDeviation="3.86417"/>
<feComposite in2="hardAlpha" operator="out"/>
<feColorMatrix type="matrix" values="0 0 0 0 0 0 0 0 0 0 0 0 0 0 0 0 0 0 0.44 0"/>
<feBlend mode="normal" in2="BackgroundImageFix" result="effect1_dropShadow_8_15473"/>
<feBlend mode="normal" in="SourceGraphic" in2="effect1_dropShadow_8_15473" result="shape"/>
<feColorMatrix in="SourceAlpha" type="matrix" values="0 0 0 0 0 0 0 0 0 0 0 0 0 0 0 0 0 0 127 0" result="hardAlpha"/>
<feOffset dx="-4.4162" dy="-4.4162"/>
<feGaussianBlur stdDeviation="2.2081"/>
<feComposite in2="hardAlpha" operator="arithmetic" k2="-1" k3="1"/>
<feColorMatrix type="matrix" values="0 0 0 0 0 0 0 0 0 0 0 0 0 0 0 0 0 0 0.25 0"/>
<feBlend mode="normal" in2="shape" result="effect2_innerShadow_8_15473"/>
<feColorMatrix in="SourceAlpha" type="matrix" values="0 0 0 0 0 0 0 0 0 0 0 0 0 0 0 0 0 0 127 0" result="hardAlpha"/>
<feOffset dx="6.62429" dy="6.62429"/>
<feGaussianBlur stdDeviation="2.2081"/>
<feComposite in2="hardAlpha" operator="arithmetic" k2="-1" k3="1"/>
<feColorMatrix type="matrix" values="0 0 0 0 1 0 0 0 0 1 0 0 0 0 1 0 0 0 0.42 0"/>
<feBlend mode="normal" in2="effect2_innerShadow_8_15473" result="effect3_innerShadow_8_15473"/>
</filter>
</defs>
</svg>
