<svg width="321" height="286" viewBox="0 0 321 286" fill="none" xmlns="http://www.w3.org/2000/svg">
<g filter="url(#filter0_dii_8_15382)">
<path d="M150.049 3.39928C150.763 3.29935 151.835 3.22448 152.983 3.53647L154.499 3.94802C154.838 4.04014 155.542 4.20123 156.706 4.43662L160.222 5.14697C161.435 5.39219 162.642 5.65273 163.84 5.92872L167.312 6.7274C168.806 7.07136 170.251 7.57336 171.644 8.22796L174.902 9.75953C176.409 10.4682 177.79 11.3813 179.032 12.491L181.716 14.8908C182.641 15.7173 183.562 16.5613 184.479 17.4221L187.144 19.9243C188.57 21.2636 189.643 22.8734 190.329 24.705L191.613 28.129C192.089 29.3976 192.506 30.6737 192.863 31.956L193.819 35.3894C194.177 36.6776 194.477 37.983 194.716 39.3048L195.035 41.0703L195.056 41.1859L195.066 41.1878L196.787 41.4349C197.672 41.5615 198.591 41.6185 199.548 41.6021L203.156 41.5401C204.085 41.5241 205.02 41.4291 205.962 41.2526L209.571 40.577C211.239 40.2645 212.924 40.2013 214.608 40.3928L218.217 40.8025C219.365 40.9331 220.514 41.0442 221.662 41.1351L225.27 41.4208C226.41 41.5111 227.55 41.5794 228.69 41.6247L232.298 41.7675C233.349 41.8092 234.398 41.801 235.445 41.7431L239.045 41.5439C240.72 41.4512 242.378 41.6064 243.998 42.0202L247.391 42.8866C248.729 43.2283 250.042 43.6589 251.329 44.1757L254.604 45.4912C256.261 46.157 257.751 47.1149 259.049 48.3401L261.648 50.7925C262.722 51.8054 263.707 52.9146 264.604 54.1131L266.815 57.0672C268.114 58.8028 268.85 60.8082 268.984 62.9718L269.211 66.6541C269.295 68.018 269.321 69.3722 269.286 70.7161L269.193 74.3176C269.163 75.4809 269.147 76.6456 269.144 77.8111L269.136 81.4192C269.133 82.5999 269.138 83.7808 269.151 84.9616L269.192 88.5697C269.204 89.5726 269.277 90.5776 269.413 91.5858L269.903 95.194C270.085 96.5352 270.207 97.8784 270.27 99.223L270.438 102.831C270.513 104.429 270.392 106.021 270.08 107.598L269.366 111.206C269.193 112.082 269.116 112.946 269.129 113.803L269.154 115.338L270.642 115.637C271.919 115.893 273.184 116.19 274.435 116.527L277.885 117.456C279.361 117.854 280.783 118.402 282.145 119.1L285.333 120.732C286.631 121.397 287.869 122.165 289.043 123.036L291.933 125.177C293.166 126.091 294.294 127.125 295.314 128.275L297.712 130.982C298.769 132.175 299.671 133.48 300.412 134.892L302.091 138.094C302.799 139.443 303.367 140.849 303.793 142.308L304.8 145.761C305.215 147.183 305.503 148.632 305.661 150.102L306.043 153.663C306.201 155.129 306.23 156.599 306.131 158.07L305.889 161.647C305.794 163.058 305.603 164.46 305.317 165.852L304.59 169.396C304.28 170.903 303.817 172.368 303.206 173.787L301.756 177.152C301.053 178.782 300.088 180.257 298.874 181.553L296.373 184.226C295.463 185.199 294.522 186.135 293.552 187.036L290.893 189.506C289.646 190.663 288.247 191.61 286.71 192.338L283.435 193.888C282.259 194.445 281.067 194.966 279.862 195.452L276.51 196.803C275.008 197.408 273.447 197.813 271.839 198.016L270.038 198.244L269.961 198.254L269.798 199.187C269.64 200.093 269.484 201.119 269.332 202.269L268.857 205.877C268.749 206.697 268.74 207.511 268.831 208.328L269.228 211.936C269.377 213.289 269.462 214.644 269.483 215.999L269.536 219.607C269.557 220.974 269.508 222.34 269.389 223.705L269.075 227.313C269.001 228.165 269.02 229.016 269.133 229.874L269.611 233.482C269.804 234.947 269.876 236.416 269.825 237.888L269.7 241.497C269.654 242.802 269.567 244.109 269.438 245.417L269.08 249.036C268.903 250.818 268.415 252.527 267.625 254.134L266.013 257.415C265.313 258.842 264.455 260.174 263.445 261.407L261.112 264.256C259.976 265.642 258.626 266.8 257.084 267.715L253.899 269.603C252.455 270.459 250.916 271.104 249.293 271.534L245.708 272.485C243.824 272.985 241.897 273.058 239.98 272.701L236.333 272.023C235.676 271.901 235.047 271.899 234.418 272.01L230.81 272.644C229.2 272.927 227.577 273 225.952 272.859L222.344 272.545C221.413 272.464 220.483 272.464 219.553 272.541L215.945 272.844C214.292 272.982 212.642 272.888 211.009 272.568L207.401 271.861C206.572 271.699 205.756 271.639 204.947 271.678L201.339 271.851C199.976 271.916 198.612 271.913 197.248 271.841L193.64 271.652C192.532 271.593 191.061 271.326 189.715 270.378C188.215 269.32 187.379 267.776 187.128 266.175L186.713 263.528C186.652 263.145 186.487 262.528 186.112 261.639L184.685 258.258C184.178 257.058 183.704 255.85 183.26 254.633L182.012 251.21C181.829 250.707 181.562 250.281 181.188 249.897L178.648 247.284C177.932 246.547 177.189 245.866 176.417 245.242L173.647 243C172.952 242.437 172.218 241.947 171.444 241.529L168.336 239.846C167.397 239.337 166.434 238.858 165.45 238.409L162.203 236.927C161.517 236.614 160.8 236.398 160.041 236.276L156.49 235.708C155.689 235.58 154.888 235.549 154.079 235.616L150.495 235.912C149.589 235.986 148.702 236.142 147.832 236.377L144.375 237.31C143.637 237.509 142.948 237.799 142.3 238.181L139.232 239.988C138.284 240.546 137.355 241.128 136.444 241.734L133.49 243.697C132.788 244.164 132.137 244.702 131.536 245.317L129.031 247.875C128.331 248.59 127.663 249.358 127.028 250.179L124.789 253.075C124.339 253.658 123.984 254.292 123.721 254.994L122.427 258.445C122.156 259.168 121.994 259.905 121.938 260.669L121.666 264.334C121.584 265.435 121.305 266.781 120.501 268.038C119.627 269.403 118.324 270.359 116.796 270.8L114.251 271.536C113.017 271.893 111.667 272.11 110.258 272.233L106.65 272.549C105.13 272.682 103.609 272.664 102.092 272.496L98.4838 272.097C97.6833 272.008 96.8842 272.021 96.0791 272.135L92.4707 272.647C91.1391 272.835 89.8051 272.969 88.4704 273.048L84.862 273.26C83.4306 273.345 81.9986 273.327 80.5685 273.207L76.9601 272.904C75.9677 272.821 74.9759 272.803 73.985 272.851L70.3766 273.024C68.9234 273.094 67.4623 273.05 65.9976 272.897L62.3159 272.51C60.5733 272.328 58.8935 271.872 57.297 271.148L53.9113 269.614C52.3527 268.907 50.9235 267.986 49.6375 266.858L46.8485 264.412C45.3792 263.123 44.2429 261.557 43.4816 259.753L42.0561 256.375C41.5125 255.088 41.0466 253.788 40.6616 252.476L39.6664 249.086C39.2782 247.764 38.971 246.411 38.7427 245.03L38.1507 241.448C37.9132 240.011 37.787 238.565 37.7739 237.112L37.7419 233.504C37.7305 232.232 37.7468 230.958 37.7908 229.686L37.9158 226.078C37.9611 224.769 38.0498 223.46 38.1817 222.153L38.5454 218.545C38.6328 217.679 38.6288 216.815 38.5332 215.948L38.1357 212.339C37.9814 210.941 37.9135 209.54 37.9327 208.137L37.9825 204.529C37.999 203.327 38.0149 202.124 38.0314 200.921L38.0558 199.157L37.7241 199.059C36.5924 198.725 35.39 198.251 34.141 197.681L30.7967 196.156C29.668 195.641 28.5607 195.129 27.4758 194.621L24.2649 193.118C22.9105 192.483 21.6286 191.722 20.4234 190.836L17.5658 188.737C16.4811 187.94 15.4347 187.085 14.4272 186.175L11.7603 183.766C10.4024 182.539 9.31988 181.084 8.53532 179.43L6.99516 176.184C6.56265 175.273 6.06912 174.371 5.51326 173.48L3.56057 170.351C2.41264 168.511 1.8485 166.45 1.90295 164.28L1.99504 160.601C2.01846 159.668 1.95745 158.738 1.81086 157.808L1.23483 154.159C0.88296 151.927 1.24128 149.735 2.27319 147.731L3.97404 144.428C4.32971 143.737 4.57732 143.018 4.72204 142.257L5.41553 138.612C5.80338 136.574 6.69097 134.726 8.05231 133.152L10.456 130.375C11.4398 129.238 12.5117 128.198 13.6717 127.259L16.4785 124.988C17.4766 124.181 18.4943 123.398 19.5316 122.642L22.4484 120.516C23.683 119.616 25.0016 118.845 26.397 118.205L29.7217 116.679C31.4419 115.89 33.2701 115.479 35.1625 115.456L36.993 115.433L37.2608 115.429L37.4882 114.766C37.7151 114.103 37.9598 113.238 38.2137 112.143L39.05 108.535C39.2046 107.868 39.2372 107.229 39.1599 106.593L38.7211 102.985C38.5626 101.682 38.4457 100.378 38.3706 99.0727L38.1629 95.4646C38.0901 94.1988 38.0429 92.9327 38.0201 91.6667L37.9553 88.0585C37.9327 86.8092 37.9281 85.5598 37.9421 84.3104L37.9825 80.7023C37.9964 79.4624 38.0245 78.2221 38.0671 76.9824L38.1911 73.3742C38.2375 72.0259 38.3448 70.683 38.5134 69.3461L38.9645 65.7709C39.1565 64.249 39.5041 62.7587 40.0047 61.3058L41.185 57.8819C41.8254 56.0237 42.8697 54.3844 44.2869 53.0203L46.8861 50.5191C47.9242 49.5199 49.0254 48.6085 50.1891 47.7885L53.0655 45.7609C54.5099 44.7431 56.1038 44.0144 57.8194 43.5903L61.2155 42.7503C62.6051 42.4069 64.0194 42.1786 65.4535 42.0654L68.9802 41.7872C69.9878 41.7076 71.0159 41.5733 72.0643 41.3823L75.6727 40.7245C77.1923 40.4477 78.7231 40.3254 80.2584 40.3618L83.8668 40.4483C85.1153 40.4779 86.3642 40.5248 87.6125 40.5902L91.2209 40.78C92.5085 40.8474 93.7965 40.9486 95.083 41.0844L98.6914 41.4659C99.7732 41.58 100.854 41.6525 101.934 41.6839L105.543 41.7891C106.396 41.8139 107.255 41.7462 108.126 41.5833L111.734 40.9087C111.798 40.8968 111.851 40.8836 111.893 40.873L112.535 40.1354L113.271 39.286C113.287 39.2216 113.309 39.1173 113.325 38.9646L113.715 35.3772C113.918 33.5081 114.501 31.7403 115.45 30.1172L117.272 27.0024C117.855 26.0052 118.423 24.9986 118.976 23.9844L120.704 20.816C121.566 19.2347 122.696 17.8521 124.074 16.692L126.835 14.3655C127.853 13.5085 128.903 12.6939 129.984 11.9216L132.915 9.82718C134.243 8.87865 135.679 8.11975 137.21 7.55614L140.597 6.31021C141.795 5.86963 143.012 5.45335 144.248 5.06052L147.754 3.9452C148.492 3.71064 149.272 3.50797 150.049 3.39928Z" fill="#E8642F"/>
<path d="M123.01 117.956H124.67C124.535 119.279 124.171 120.422 123.577 121.385C122.983 122.339 122.173 123.072 121.147 123.585C120.121 124.098 118.883 124.355 117.434 124.355C116.318 124.355 115.306 124.143 114.397 123.72C113.497 123.297 112.723 122.699 112.075 121.925C111.427 121.142 110.927 120.206 110.576 119.117C110.225 118.028 110.05 116.817 110.05 115.485V113.028C110.05 111.696 110.225 110.49 110.576 109.41C110.927 108.321 111.431 107.385 112.088 106.602C112.745 105.819 113.533 105.216 114.451 104.793C115.369 104.37 116.404 104.159 117.556 104.159C118.951 104.159 120.157 104.415 121.174 104.928C122.191 105.432 122.992 106.161 123.577 107.115C124.171 108.069 124.535 109.221 124.67 110.571H123.01C122.884 109.509 122.605 108.609 122.173 107.871C121.741 107.133 121.142 106.571 120.377 106.184C119.621 105.788 118.681 105.59 117.556 105.59C116.638 105.59 115.819 105.765 115.099 106.116C114.379 106.467 113.767 106.971 113.263 107.628C112.759 108.276 112.372 109.055 112.102 109.964C111.841 110.873 111.71 111.885 111.71 113.001V115.485C111.71 116.565 111.836 117.56 112.088 118.469C112.34 119.378 112.709 120.165 113.195 120.831C113.69 121.497 114.293 122.015 115.004 122.384C115.715 122.753 116.525 122.937 117.434 122.937C118.595 122.937 119.563 122.753 120.337 122.384C121.12 122.006 121.727 121.448 122.159 120.71C122.591 119.972 122.875 119.054 123.01 117.956ZM137.698 120.71V109.478H139.318V124.085H137.765L137.698 120.71ZM137.995 118.01L138.832 117.983C138.832 118.901 138.724 119.747 138.508 120.521C138.292 121.295 137.954 121.97 137.495 122.546C137.036 123.122 136.442 123.567 135.713 123.882C134.984 124.197 134.107 124.355 133.081 124.355C132.37 124.355 131.717 124.256 131.123 124.058C130.538 123.851 130.034 123.527 129.611 123.086C129.188 122.645 128.86 122.073 128.626 121.371C128.401 120.669 128.288 119.819 128.288 118.82V109.478H129.895V118.847C129.895 119.63 129.98 120.282 130.151 120.804C130.331 121.326 130.574 121.745 130.88 122.06C131.195 122.375 131.555 122.6 131.96 122.735C132.365 122.87 132.802 122.937 133.27 122.937C134.458 122.937 135.394 122.708 136.078 122.249C136.771 121.79 137.261 121.187 137.549 120.44C137.846 119.684 137.995 118.874 137.995 118.01ZM145.15 111.894V124.085H143.543V109.478H145.109L145.15 111.894ZM150.32 109.37L150.28 110.855C150.1 110.828 149.924 110.805 149.753 110.787C149.582 110.769 149.398 110.76 149.2 110.76C148.498 110.76 147.881 110.891 147.35 111.152C146.828 111.404 146.387 111.759 146.027 112.218C145.667 112.668 145.393 113.199 145.204 113.811C145.015 114.414 144.907 115.062 144.88 115.755L144.286 115.985C144.286 115.031 144.385 114.144 144.583 113.325C144.781 112.506 145.082 111.791 145.487 111.179C145.901 110.558 146.419 110.076 147.04 109.734C147.67 109.383 148.408 109.208 149.254 109.208C149.461 109.208 149.663 109.226 149.861 109.262C150.068 109.289 150.221 109.325 150.32 109.37ZM154.465 111.894V124.085H152.858V109.478H154.424L154.465 111.894ZM159.635 109.37L159.595 110.855C159.415 110.828 159.239 110.805 159.068 110.787C158.897 110.769 158.713 110.76 158.515 110.76C157.813 110.76 157.196 110.891 156.665 111.152C156.143 111.404 155.702 111.759 155.342 112.218C154.982 112.668 154.708 113.199 154.519 113.811C154.33 114.414 154.222 115.062 154.195 115.755L153.601 115.985C153.601 115.031 153.7 114.144 153.898 113.325C154.096 112.506 154.397 111.791 154.802 111.179C155.216 110.558 155.734 110.076 156.355 109.734C156.985 109.383 157.723 109.208 158.569 109.208C158.776 109.208 158.978 109.226 159.176 109.262C159.383 109.289 159.536 109.325 159.635 109.37ZM167.546 124.355C166.592 124.355 165.715 124.179 164.914 123.828C164.122 123.477 163.429 122.982 162.835 122.343C162.25 121.704 161.795 120.948 161.471 120.075C161.156 119.193 160.999 118.23 160.999 117.186V116.606C160.999 115.481 161.165 114.464 161.498 113.555C161.831 112.646 162.29 111.867 162.875 111.219C163.46 110.571 164.126 110.076 164.873 109.734C165.629 109.383 166.421 109.208 167.249 109.208C168.176 109.208 169 109.374 169.72 109.707C170.44 110.031 171.043 110.495 171.529 111.098C172.024 111.692 172.397 112.398 172.649 113.217C172.901 114.027 173.027 114.923 173.027 115.904V116.889H161.971V115.512H171.421V115.323C171.403 114.504 171.236 113.739 170.921 113.028C170.615 112.308 170.156 111.723 169.544 111.273C168.932 110.823 168.167 110.598 167.249 110.598C166.565 110.598 165.935 110.742 165.359 111.03C164.792 111.318 164.302 111.732 163.888 112.272C163.483 112.803 163.168 113.438 162.943 114.176C162.727 114.905 162.619 115.715 162.619 116.606V117.186C162.619 117.996 162.736 118.752 162.97 119.454C163.213 120.147 163.555 120.759 163.996 121.29C164.446 121.821 164.977 122.235 165.589 122.532C166.201 122.829 166.876 122.978 167.614 122.978C168.478 122.978 169.243 122.82 169.909 122.505C170.575 122.181 171.173 121.673 171.704 120.98L172.717 121.763C172.402 122.231 172.006 122.663 171.529 123.059C171.061 123.455 170.498 123.77 169.841 124.004C169.184 124.238 168.419 124.355 167.546 124.355ZM177.82 112.596V124.085H176.213V109.478H177.752L177.82 112.596ZM177.455 115.877L176.74 115.472C176.794 114.608 176.969 113.798 177.266 113.042C177.563 112.286 177.964 111.62 178.468 111.044C178.981 110.468 179.579 110.018 180.263 109.694C180.956 109.37 181.721 109.208 182.558 109.208C183.287 109.208 183.94 109.307 184.516 109.505C185.092 109.703 185.582 110.018 185.987 110.45C186.392 110.882 186.698 111.435 186.905 112.11C187.121 112.785 187.229 113.609 187.229 114.581V124.085H185.609V114.567C185.609 113.559 185.47 112.772 185.191 112.205C184.912 111.629 184.516 111.219 184.003 110.976C183.49 110.733 182.882 110.612 182.18 110.612C181.406 110.612 180.727 110.783 180.142 111.125C179.566 111.458 179.08 111.894 178.684 112.434C178.297 112.965 178 113.537 177.793 114.149C177.586 114.752 177.473 115.328 177.455 115.877ZM196.936 109.478V110.801H189.619V109.478H196.936ZM192.305 105.725H193.912V120.534C193.912 121.209 194.002 121.718 194.182 122.06C194.362 122.402 194.596 122.631 194.884 122.748C195.172 122.865 195.482 122.924 195.815 122.924C196.058 122.924 196.292 122.91 196.517 122.883C196.742 122.847 196.945 122.811 197.125 122.775L197.192 124.139C196.994 124.202 196.738 124.251 196.423 124.287C196.108 124.332 195.793 124.355 195.478 124.355C194.857 124.355 194.308 124.242 193.831 124.017C193.354 123.783 192.98 123.387 192.71 122.829C192.44 122.262 192.305 121.493 192.305 120.521V105.725ZM112.723 148.079H107.12V146.662H112.723C113.893 146.662 114.842 146.473 115.571 146.095C116.309 145.708 116.845 145.186 117.178 144.529C117.52 143.872 117.691 143.134 117.691 142.315C117.691 141.514 117.52 140.776 117.178 140.101C116.845 139.426 116.309 138.886 115.571 138.481C114.842 138.067 113.893 137.86 112.723 137.86H107.701V156.085H106.04V136.429H112.723C114.163 136.429 115.373 136.676 116.354 137.171C117.344 137.666 118.091 138.355 118.595 139.237C119.099 140.119 119.351 141.136 119.351 142.288C119.351 143.494 119.099 144.533 118.595 145.406C118.091 146.27 117.349 146.932 116.368 147.391C115.387 147.85 114.172 148.079 112.723 148.079ZM124.306 143.894V156.085H122.699V141.478H124.265L124.306 143.894ZM129.476 141.37L129.436 142.855C129.256 142.828 129.08 142.805 128.909 142.787C128.738 142.769 128.554 142.76 128.356 142.76C127.654 142.76 127.037 142.891 126.506 143.152C125.984 143.404 125.543 143.759 125.183 144.218C124.823 144.668 124.549 145.199 124.36 145.811C124.171 146.414 124.063 147.062 124.036 147.755L123.442 147.985C123.442 147.031 123.541 146.144 123.739 145.325C123.937 144.506 124.238 143.791 124.643 143.179C125.057 142.558 125.575 142.076 126.196 141.734C126.826 141.383 127.564 141.208 128.41 141.208C128.617 141.208 128.819 141.226 129.017 141.262C129.224 141.289 129.377 141.325 129.476 141.37ZM130.853 149.011V148.565C130.853 147.503 131.006 146.522 131.312 145.622C131.618 144.722 132.055 143.944 132.622 143.287C133.198 142.63 133.886 142.121 134.687 141.761C135.488 141.392 136.379 141.208 137.36 141.208C138.35 141.208 139.246 141.392 140.047 141.761C140.848 142.121 141.536 142.63 142.112 143.287C142.688 143.944 143.129 144.722 143.435 145.622C143.741 146.522 143.894 147.503 143.894 148.565V149.011C143.894 150.073 143.741 151.054 143.435 151.954C143.129 152.845 142.688 153.619 142.112 154.276C141.545 154.933 140.861 155.446 140.06 155.815C139.259 156.175 138.368 156.355 137.387 156.355C136.397 156.355 135.502 156.175 134.701 155.815C133.9 155.446 133.211 154.933 132.635 154.276C132.059 153.619 131.618 152.845 131.312 151.954C131.006 151.054 130.853 150.073 130.853 149.011ZM132.46 148.565V149.011C132.46 149.812 132.568 150.572 132.784 151.292C133 152.003 133.315 152.638 133.729 153.196C134.143 153.745 134.656 154.177 135.268 154.492C135.88 154.807 136.586 154.964 137.387 154.964C138.179 154.964 138.877 154.807 139.48 154.492C140.092 154.177 140.605 153.745 141.019 153.196C141.433 152.638 141.743 152.003 141.95 151.292C142.166 150.572 142.274 149.812 142.274 149.011V148.565C142.274 147.773 142.166 147.022 141.95 146.311C141.743 145.6 141.428 144.965 141.005 144.407C140.591 143.849 140.078 143.408 139.466 143.084C138.854 142.76 138.152 142.598 137.36 142.598C136.568 142.598 135.866 142.76 135.254 143.084C134.651 143.408 134.138 143.849 133.715 144.407C133.301 144.965 132.986 145.6 132.77 146.311C132.563 147.022 132.46 147.773 132.46 148.565ZM147.364 141.478H148.984V157.826C148.984 158.717 148.835 159.473 148.538 160.094C148.241 160.715 147.809 161.183 147.242 161.498C146.675 161.822 145.978 161.984 145.15 161.984C144.925 161.984 144.682 161.962 144.421 161.917C144.16 161.872 143.921 161.809 143.705 161.728L143.732 160.378C143.894 160.423 144.088 160.463 144.313 160.499C144.529 160.544 144.74 160.567 144.947 160.567C145.469 160.567 145.91 160.463 146.27 160.256C146.63 160.058 146.9 159.757 147.08 159.352C147.269 158.947 147.364 158.438 147.364 157.826V141.478ZM147.08 137.252C147.08 136.946 147.179 136.69 147.377 136.483C147.575 136.267 147.845 136.159 148.187 136.159C148.529 136.159 148.799 136.267 148.997 136.483C149.204 136.69 149.308 136.946 149.308 137.252C149.308 137.549 149.204 137.806 148.997 138.022C148.799 138.229 148.529 138.332 148.187 138.332C147.845 138.332 147.575 138.229 147.377 138.022C147.179 137.806 147.08 137.549 147.08 137.252ZM159.203 156.355C158.249 156.355 157.372 156.179 156.571 155.828C155.779 155.477 155.086 154.982 154.492 154.343C153.907 153.704 153.452 152.948 153.128 152.075C152.813 151.193 152.656 150.23 152.656 149.186V148.606C152.656 147.481 152.822 146.464 153.155 145.555C153.488 144.646 153.947 143.867 154.532 143.219C155.117 142.571 155.783 142.076 156.53 141.734C157.286 141.383 158.078 141.208 158.906 141.208C159.833 141.208 160.657 141.374 161.377 141.707C162.097 142.031 162.7 142.495 163.186 143.098C163.681 143.692 164.054 144.398 164.306 145.217C164.558 146.027 164.684 146.923 164.684 147.904V148.889H153.628V147.512H163.078V147.323C163.06 146.504 162.893 145.739 162.578 145.028C162.272 144.308 161.813 143.723 161.201 143.273C160.589 142.823 159.824 142.598 158.906 142.598C158.222 142.598 157.592 142.742 157.016 143.03C156.449 143.318 155.959 143.732 155.545 144.272C155.14 144.803 154.825 145.438 154.6 146.176C154.384 146.905 154.276 147.715 154.276 148.606V149.186C154.276 149.996 154.393 150.752 154.627 151.454C154.87 152.147 155.212 152.759 155.653 153.29C156.103 153.821 156.634 154.235 157.246 154.532C157.858 154.829 158.533 154.978 159.271 154.978C160.135 154.978 160.9 154.82 161.566 154.505C162.232 154.181 162.83 153.673 163.361 152.98L164.374 153.763C164.059 154.231 163.663 154.663 163.186 155.059C162.718 155.455 162.155 155.77 161.498 156.004C160.841 156.238 160.076 156.355 159.203 156.355ZM173.257 154.964C173.941 154.964 174.58 154.838 175.174 154.586C175.777 154.325 176.272 153.943 176.659 153.439C177.055 152.926 177.28 152.3 177.334 151.562H178.873C178.828 152.489 178.544 153.317 178.022 154.046C177.509 154.766 176.834 155.333 175.997 155.747C175.169 156.152 174.256 156.355 173.257 156.355C172.24 156.355 171.34 156.17 170.557 155.801C169.783 155.432 169.135 154.919 168.613 154.262C168.091 153.596 167.695 152.822 167.425 151.94C167.164 151.049 167.033 150.091 167.033 149.065V148.498C167.033 147.472 167.164 146.518 167.425 145.636C167.695 144.745 168.091 143.971 168.613 143.314C169.135 142.648 169.783 142.13 170.557 141.761C171.331 141.392 172.226 141.208 173.243 141.208C174.287 141.208 175.223 141.419 176.051 141.842C176.888 142.265 177.554 142.864 178.049 143.638C178.553 144.412 178.828 145.33 178.873 146.392H177.334C177.289 145.609 177.082 144.934 176.713 144.367C176.344 143.8 175.858 143.363 175.255 143.057C174.652 142.751 173.981 142.598 173.243 142.598C172.415 142.598 171.709 142.76 171.124 143.084C170.539 143.399 170.062 143.836 169.693 144.394C169.333 144.943 169.067 145.573 168.896 146.284C168.725 146.986 168.64 147.724 168.64 148.498V149.065C168.64 149.848 168.721 150.595 168.883 151.306C169.054 152.008 169.319 152.633 169.679 153.182C170.048 153.731 170.525 154.168 171.11 154.492C171.704 154.807 172.42 154.964 173.257 154.964ZM187.648 141.478V142.801H180.331V141.478H187.648ZM183.017 137.725H184.624V152.534C184.624 153.209 184.714 153.718 184.894 154.06C185.074 154.402 185.308 154.631 185.596 154.748C185.884 154.865 186.194 154.924 186.527 154.924C186.77 154.924 187.004 154.91 187.229 154.883C187.454 154.847 187.657 154.811 187.837 154.775L187.904 156.139C187.706 156.202 187.45 156.251 187.135 156.287C186.82 156.332 186.505 156.355 186.19 156.355C185.569 156.355 185.02 156.242 184.543 156.017C184.066 155.783 183.692 155.387 183.422 154.829C183.152 154.262 183.017 153.493 183.017 152.521V137.725ZM199.784 152.359C199.784 151.963 199.685 151.571 199.487 151.184C199.289 150.797 198.907 150.442 198.34 150.118C197.782 149.794 196.958 149.519 195.869 149.294C195.059 149.114 194.335 148.912 193.696 148.687C193.066 148.462 192.535 148.192 192.103 147.877C191.671 147.562 191.342 147.184 191.117 146.743C190.892 146.302 190.78 145.78 190.78 145.177C190.78 144.637 190.897 144.128 191.131 143.651C191.374 143.165 191.716 142.742 192.157 142.382C192.607 142.013 193.147 141.725 193.777 141.518C194.416 141.311 195.131 141.208 195.923 141.208C197.048 141.208 198.011 141.401 198.812 141.788C199.622 142.166 200.239 142.684 200.662 143.341C201.094 143.998 201.31 144.74 201.31 145.568H199.703C199.703 145.064 199.555 144.587 199.258 144.137C198.97 143.687 198.542 143.318 197.975 143.03C197.417 142.742 196.733 142.598 195.923 142.598C195.086 142.598 194.407 142.724 193.885 142.976C193.363 143.228 192.98 143.548 192.737 143.935C192.503 144.322 192.386 144.722 192.386 145.136C192.386 145.46 192.436 145.757 192.535 146.027C192.643 146.288 192.832 146.531 193.102 146.756C193.381 146.981 193.777 147.193 194.29 147.391C194.803 147.589 195.469 147.782 196.288 147.971C197.467 148.232 198.43 148.552 199.177 148.93C199.933 149.299 200.491 149.758 200.851 150.307C201.211 150.847 201.391 151.504 201.391 152.278C201.391 152.881 201.265 153.434 201.013 153.938C200.761 154.433 200.396 154.861 199.919 155.221C199.451 155.581 198.884 155.86 198.218 156.058C197.561 156.256 196.823 156.355 196.004 156.355C194.771 156.355 193.727 156.152 192.872 155.747C192.026 155.333 191.383 154.793 190.942 154.127C190.51 153.452 190.294 152.737 190.294 151.981H191.9C191.954 152.737 192.193 153.335 192.616 153.776C193.039 154.208 193.556 154.514 194.168 154.694C194.789 154.874 195.401 154.964 196.004 154.964C196.832 154.964 197.525 154.843 198.083 154.6C198.641 154.357 199.064 154.037 199.352 153.641C199.64 153.245 199.784 152.818 199.784 152.359Z" fill="#FFF9E9"/>
<path opacity="0.7" fill-rule="evenodd" clip-rule="evenodd" d="M125.497 25.7654C125.496 25.7758 125.367 25.9271 125.212 26.1018C124.863 26.4939 124.882 26.4687 124.822 26.5992C124.78 26.6895 124.77 26.6961 124.763 26.6389C124.757 26.5836 124.752 26.5858 124.74 26.6503C124.732 26.6943 124.696 26.7513 124.661 26.7769C124.626 26.8025 124.608 26.8397 124.623 26.8596C124.637 26.8795 124.635 26.9019 124.618 26.9093C124.601 26.9168 124.554 26.9779 124.513 27.0451C124.472 27.1123 124.4 27.2086 124.354 27.2591C124.308 27.3096 124.271 27.3713 124.273 27.3963C124.276 27.4213 124.245 27.4648 124.206 27.493C124.168 27.5212 124.126 27.5947 124.115 27.6563C124.103 27.7178 124.035 27.8835 123.963 28.0246C123.891 28.1655 123.835 28.3123 123.838 28.3506C123.842 28.389 123.823 28.4219 123.797 28.4237C123.725 28.4285 123.657 28.6021 123.702 28.6647C123.724 28.695 123.721 28.7213 123.695 28.723C123.603 28.7292 123.513 28.929 123.568 29.0042C123.623 29.0802 123.585 29.1464 123.516 29.0961C123.493 29.0796 123.465 29.1175 123.45 29.1849C123.436 29.2496 123.407 29.3441 123.385 29.3947C123.364 29.4454 123.365 29.5027 123.387 29.522C123.413 29.5445 123.395 29.5676 123.338 29.5863C123.277 29.6064 123.261 29.6316 123.287 29.6679C123.308 29.6967 123.305 29.7512 123.28 29.7889C123.179 29.9414 123.113 30.1402 123.148 30.1884C123.169 30.2166 123.149 30.2905 123.105 30.3527C123.017 30.4775 122.986 30.6022 123.029 30.6618C123.045 30.6831 123.045 30.7096 123.03 30.7206C122.957 30.7732 122.636 32.0567 122.546 32.6503C122.525 32.79 122.495 32.9235 122.479 32.947C122.464 32.9705 122.439 33.13 122.424 33.3013C122.409 33.4728 122.386 33.6007 122.374 33.5856C122.362 33.5706 122.347 33.637 122.339 33.7333C122.332 33.8295 122.322 33.8771 122.317 33.839C122.311 33.7925 122.295 33.787 122.27 33.8225C122.25 33.8514 122.249 33.8977 122.269 33.9253C122.289 33.9529 122.282 34.0211 122.253 34.0769C122.225 34.1328 122.215 34.1904 122.231 34.205C122.248 34.2196 122.239 34.2724 122.211 34.3225C122.183 34.3725 122.169 34.4251 122.18 34.4394C122.204 34.4729 122.161 34.728 122.112 34.8425C122.091 34.8913 122.089 34.9624 122.106 35.0004C122.157 35.1099 122.114 35.3469 122.027 35.4309C121.984 35.473 121.961 35.523 121.977 35.5419C122.013 35.5851 121.994 35.7228 121.947 35.7572C121.927 35.7715 121.926 35.8279 121.945 35.8826C121.964 35.9373 121.957 36.1244 121.93 36.2983C121.903 36.4722 121.878 36.7113 121.874 36.8295C121.87 36.9478 121.856 37.1219 121.842 37.2165C121.828 37.311 121.828 37.4041 121.842 37.4234C121.856 37.4427 121.854 37.5963 121.838 37.7648C121.819 37.9584 121.833 38.1164 121.877 38.1937C121.915 38.2611 121.936 38.3698 121.924 38.4353C121.911 38.5007 121.92 38.5798 121.943 38.611C121.965 38.6421 121.967 38.7287 121.946 38.8034C121.925 38.8781 121.927 38.9644 121.949 38.9952C121.982 39.0399 121.994 39.035 122.01 38.9708C122.027 38.9019 122.033 38.9075 122.053 39.0092C122.066 39.0745 122.053 39.1342 122.024 39.1418C121.948 39.1615 121.999 39.307 122.089 39.3308C122.177 39.354 122.23 39.4943 122.152 39.4996C122.124 39.5016 122.112 39.519 122.126 39.5384C122.14 39.5578 122.168 39.5718 122.189 39.5695C122.21 39.5671 122.2 39.5758 122.167 39.5886C122.133 39.6015 122.108 39.6423 122.111 39.6794C122.118 39.7808 122.148 39.8063 122.188 39.7445C122.24 39.6633 122.383 39.9129 122.339 40.009C122.295 40.1058 122.363 40.1979 122.518 40.2525C122.588 40.2773 122.611 40.2976 122.573 40.3002C122.534 40.3028 122.509 40.3343 122.512 40.3771C122.518 40.4689 122.553 40.5209 122.574 40.4693C122.583 40.4475 122.618 40.4828 122.652 40.5475C122.691 40.6212 122.729 40.6539 122.756 40.6348C122.782 40.6157 122.809 40.6385 122.828 40.6951C122.845 40.745 122.894 40.7952 122.938 40.8066C122.981 40.818 123.018 40.8518 123.021 40.8817C123.023 40.9117 123.051 40.9175 123.082 40.8947C123.114 40.8719 123.151 40.8755 123.166 40.9026C123.236 41.0307 123.274 41.0427 123.344 40.9589C123.383 40.9121 123.435 40.882 123.459 40.8921C123.521 40.9183 123.552 41.0559 123.496 41.0597C123.413 41.0654 123.495 41.1288 123.641 41.1714C123.805 41.2189 123.88 41.1903 123.782 41.118C123.73 41.0794 123.731 41.0745 123.789 41.0943C123.829 41.1081 123.868 41.1433 123.876 41.1725C123.884 41.2018 123.945 41.232 124.012 41.2396C124.078 41.2473 124.149 41.2763 124.169 41.3041C124.189 41.3318 124.279 41.3376 124.369 41.3169C124.458 41.2962 124.536 41.2942 124.542 41.3124C124.548 41.3306 124.562 41.3409 124.573 41.3354C124.643 41.3002 124.82 41.3033 124.823 41.3398C124.827 41.3904 124.939 41.3685 125.036 41.2982C125.072 41.2719 125.136 41.2757 125.178 41.3066C125.219 41.3376 125.261 41.3454 125.269 41.3239C125.278 41.3024 125.349 41.2877 125.427 41.2913C125.505 41.2949 125.587 41.271 125.608 41.2382C125.632 41.2008 125.674 41.1996 125.722 41.2352C125.769 41.27 125.812 41.2694 125.835 41.2336C125.856 41.2017 125.904 41.177 125.942 41.1788C126.026 41.1828 126.387 40.9899 126.73 40.7579C126.896 40.6452 127.003 40.5977 127.049 40.6155C127.107 40.6376 127.119 40.6233 127.121 40.5339C127.122 40.4742 127.137 40.4447 127.154 40.4684C127.171 40.4921 127.202 40.4992 127.223 40.4841C127.244 40.469 127.235 40.4462 127.205 40.4334C127.169 40.4186 127.172 40.4086 127.212 40.4058C127.248 40.4034 127.285 40.3519 127.298 40.2881C127.312 40.2225 127.334 40.1922 127.352 40.2164C127.368 40.2393 127.366 40.2698 127.346 40.284C127.327 40.2982 127.323 40.3261 127.337 40.346C127.351 40.3659 127.396 40.3582 127.437 40.3289C127.477 40.2996 127.488 40.2666 127.462 40.2555C127.379 40.221 127.395 40.1252 127.482 40.1315C127.539 40.1357 127.572 40.1113 127.607 40.0383C127.632 39.984 127.656 39.9629 127.658 39.9914C127.666 40.0919 127.79 40.0083 127.802 39.8946C127.815 39.7611 127.864 39.7089 127.889 39.8007C127.903 39.8529 127.935 39.8336 128.07 39.692C128.16 39.5973 128.24 39.4952 128.249 39.4652C128.257 39.4352 128.334 39.3448 128.421 39.2644C128.508 39.184 128.586 39.09 128.596 39.0555C128.614 38.988 128.804 38.7046 128.861 38.6597C128.88 38.6447 128.904 38.6109 128.915 38.5846C128.926 38.5583 128.98 38.4866 129.035 38.4252C129.089 38.3639 129.126 38.2842 129.116 38.2481C129.106 38.212 129.119 38.1723 129.144 38.1598C129.219 38.122 129.431 37.877 129.451 37.8049C129.461 37.7678 129.45 37.7294 129.427 37.7197C129.404 37.71 129.416 37.6938 129.454 37.6838C129.493 37.6737 129.531 37.6206 129.539 37.5658C129.547 37.511 129.575 37.4648 129.601 37.463C129.662 37.4589 129.747 37.2803 129.744 37.1583C129.744 37.105 129.772 37.0432 129.808 37.021C129.844 36.9989 129.897 36.9161 129.927 36.837C129.956 36.758 130.009 36.6643 130.045 36.6287C130.081 36.5931 130.109 36.542 130.106 36.515C130.101 36.4527 130.301 36.0336 130.322 36.0625C130.331 36.0743 130.347 36.0465 130.359 36.0008C130.37 35.955 130.362 35.9105 130.342 35.902C130.321 35.8934 130.314 35.8492 130.325 35.8038C130.336 35.7584 130.326 35.7132 130.303 35.7033C130.279 35.6935 130.275 35.6744 130.294 35.6608C130.312 35.6473 130.309 35.5904 130.286 35.5343C130.264 35.4783 130.263 35.4045 130.285 35.3704C130.308 35.3348 130.327 35.3303 130.329 35.3599C130.331 35.3883 130.371 35.3859 130.418 35.3546C130.464 35.3233 130.488 35.3207 130.47 35.3487C130.453 35.3768 130.445 35.4444 130.453 35.4989C130.467 35.5963 130.468 35.5956 130.521 35.4601C130.694 35.0124 130.707 34.887 130.583 34.8665C130.483 34.8499 130.501 34.7987 130.617 34.7679C130.684 34.7501 130.754 34.7118 130.772 34.6828C130.819 34.6104 130.739 34.5101 130.672 34.5581C130.643 34.5794 130.609 34.5828 130.596 34.5657C130.566 34.5244 130.783 34.4237 130.847 34.449C130.905 34.4714 131.009 34.2348 130.967 34.1772C130.934 34.1309 130.838 34.2015 130.843 34.2685C130.848 34.3297 130.789 34.3818 130.76 34.3419C130.749 34.3268 130.749 34.2402 130.759 34.1496C130.778 33.9839 130.858 33.8764 130.91 33.9476C130.925 33.9687 130.916 33.9874 130.889 33.9892C130.816 33.9942 130.838 34.0709 130.916 34.0791C131.005 34.0888 131.065 34.0401 131.079 33.9454C131.089 33.8833 131.079 33.877 131.028 33.9135C130.979 33.9491 130.958 33.9371 130.931 33.8598C130.912 33.805 130.906 33.7383 130.916 33.7115C130.926 33.6847 130.908 33.6516 130.876 33.6381C130.833 33.6204 130.843 33.605 130.91 33.5829C130.967 33.5642 130.992 33.5367 130.974 33.512C130.955 33.4851 130.973 33.4685 131.028 33.4624C131.174 33.446 131.217 33.3385 131.136 33.194C131.08 33.0949 131.051 33.073 131.026 33.111C131.008 33.1395 130.982 33.147 130.968 33.1278C130.954 33.1085 130.919 33.1095 130.891 33.13C130.863 33.1505 130.813 33.1554 130.781 33.1407C130.749 33.1261 130.744 33.1167 130.771 33.1197C130.798 33.1228 130.828 33.0916 130.838 33.0504C130.853 32.9927 130.867 32.9896 130.902 33.0371C130.926 33.0712 130.961 33.0769 130.979 33.0499C130.997 33.023 130.995 32.9863 130.975 32.9684C130.925 32.9226 131.083 32.8573 131.198 32.8764C131.33 32.8984 131.36 32.8675 131.233 32.8399C131.177 32.8277 131.119 32.8017 131.104 32.7823C131.089 32.7629 131.039 32.766 130.993 32.7894C130.926 32.8236 130.911 32.8159 130.914 32.7498C130.92 32.6587 131.019 32.5642 131.026 32.6441C131.032 32.7203 131.249 32.6195 131.261 32.5345C131.27 32.4792 131.256 32.4632 131.203 32.4668C131.148 32.4704 131.13 32.448 131.118 32.3651C131.109 32.3066 131.118 32.2475 131.137 32.2338C131.187 32.1977 131.225 32.2662 131.188 32.3258C131.165 32.364 131.177 32.3764 131.238 32.3761C131.348 32.3755 131.357 32.3665 131.384 32.2223C131.399 32.1399 131.382 32.0756 131.332 32.0345C131.273 31.9861 131.257 31.9883 131.258 32.0446C131.259 32.1023 131.255 32.1038 131.235 32.0523C131.218 32.0078 131.254 31.9581 131.348 31.8943C131.435 31.8356 131.46 31.803 131.416 31.806C131.361 31.8098 131.352 31.7826 131.371 31.6768C131.385 31.6031 131.42 31.5413 131.448 31.5394C131.527 31.534 131.49 31.5095 131.355 31.477C131.287 31.4607 131.213 31.4606 131.191 31.4767C131.169 31.4928 131.139 31.4892 131.124 31.4686C131.105 31.4428 131.126 31.4273 131.193 31.4186C131.338 31.3995 131.345 31.3793 131.244 31.2755C131.19 31.2193 131.172 31.1787 131.202 31.1767C131.231 31.1747 131.217 31.1403 131.167 31.0935C131.107 31.0367 131.1 31.0092 131.142 30.9981C131.213 30.9795 131.265 30.6892 131.212 30.615C131.191 30.5865 131.196 30.5509 131.222 30.5358C131.249 30.5208 131.265 30.4877 131.258 30.4622C131.251 30.4368 131.278 30.3618 131.318 30.2957C131.357 30.2295 131.368 30.1662 131.341 30.1549C131.253 30.118 131.275 30.0308 131.376 30.0175C131.432 30.0102 131.468 29.986 131.466 29.9574C131.464 29.9311 131.438 29.9172 131.408 29.9264C131.374 29.937 131.367 29.8864 131.388 29.7921C131.409 29.6964 131.398 29.6256 131.358 29.5989C131.301 29.5618 131.305 29.5583 131.388 29.5691C131.454 29.5775 131.477 29.5979 131.462 29.6352C131.448 29.6702 131.469 29.6816 131.522 29.6677C131.569 29.6555 131.608 29.6129 131.613 29.5694C131.619 29.5094 131.615 29.5062 131.593 29.555C131.573 29.5996 131.555 29.5953 131.53 29.54C131.509 29.4939 131.522 29.4489 131.563 29.4289C131.638 29.3924 131.613 29.3217 131.528 29.3275C131.467 29.3316 131.446 29.2229 131.47 29.0275C131.479 28.954 131.472 28.8742 131.454 28.8501C131.437 28.8261 131.44 28.8093 131.461 28.8128C131.499 28.8191 131.539 28.6671 131.51 28.6272C131.502 28.6159 131.471 28.624 131.442 28.6454C131.412 28.6667 131.375 28.6662 131.359 28.6441C131.343 28.6221 131.36 28.5962 131.397 28.5865C131.449 28.573 131.443 28.5411 131.371 28.4497C131.319 28.3841 131.274 28.2699 131.27 28.196C131.266 28.122 131.244 28.036 131.222 28.0048C131.199 27.9737 131.195 27.9258 131.212 27.8984C131.259 27.8259 131.116 27.6123 131.052 27.6588C131.021 27.681 130.993 27.6682 130.982 27.6266C130.972 27.5886 130.985 27.5417 131.012 27.5224C131.072 27.4788 131.05 27.3048 130.976 27.2316C130.945 27.2016 130.939 27.1601 130.961 27.1394C130.983 27.1187 131.016 27.0881 131.034 27.0714C131.052 27.0546 131.048 27.0154 131.025 26.9842C130.972 26.9113 130.802 26.8795 130.824 26.9465C130.833 26.9752 130.782 26.9912 130.698 26.9858C130.587 26.9786 130.559 26.9606 130.568 26.9005C130.577 26.84 130.593 26.8332 130.645 26.8678C130.694 26.8996 130.733 26.8869 130.79 26.8206C130.915 26.6746 130.912 26.566 130.777 26.3795C130.668 26.23 130.663 26.2042 130.732 26.1675C130.809 26.1265 130.808 26.1257 130.702 26.1208C130.642 26.1181 130.596 26.0987 130.599 26.0778C130.602 26.0569 130.557 26.009 130.498 25.9715C130.438 25.934 130.341 25.8295 130.281 25.7393C130.22 25.6483 130.145 25.577 130.112 25.5793C130.077 25.5816 130.093 25.5433 130.149 25.4883C130.202 25.4361 130.247 25.4101 130.249 25.4306C130.25 25.4511 130.282 25.4597 130.32 25.4499C130.369 25.437 130.37 25.4071 130.324 25.3427C130.288 25.2936 130.24 25.267 130.217 25.2836C130.194 25.3002 130.178 25.2957 130.182 25.2735C130.185 25.2513 130.121 25.2246 130.039 25.2141C129.957 25.2037 129.874 25.1732 129.855 25.1464C129.835 25.1196 129.786 25.0921 129.745 25.0854C129.687 25.0758 129.68 25.0661 129.713 25.042C129.737 25.0249 129.74 24.9883 129.72 24.9606C129.679 24.904 129.547 24.9249 129.52 24.9922C129.51 25.0163 129.49 25.0188 129.475 24.9978C129.459 24.9767 129.34 24.9418 129.21 24.9201C128.932 24.8738 128.786 24.7987 128.912 24.7663C129.046 24.7316 129.065 24.7156 129.045 24.6488C129.032 24.6043 129.014 24.6046 128.985 24.6497C128.93 24.7338 128.579 24.7013 128.497 24.6046C128.447 24.545 128.454 24.5261 128.54 24.492C128.649 24.4485 128.633 24.3791 128.501 24.3254C128.419 24.2923 128.254 24.3655 128.292 24.4179C128.306 24.4377 128.342 24.4364 128.372 24.415C128.401 24.3937 128.437 24.3925 128.451 24.4124C128.466 24.4323 128.429 24.4835 128.371 24.5261C128.289 24.5854 128.252 24.5873 128.213 24.5345C128.183 24.4922 128.108 24.4767 128.021 24.4948C127.943 24.511 127.87 24.5111 127.858 24.4949C127.846 24.4787 127.828 24.4871 127.817 24.5136C127.807 24.5401 127.787 24.5474 127.775 24.5297C127.744 24.4868 127.274 24.576 127.266 24.6262C127.263 24.6478 127.224 24.6703 127.18 24.6761C127.009 24.6986 126.787 24.8293 126.155 25.2796C125.795 25.5364 125.499 25.755 125.497 25.7654ZM130.486 26.5791C130.491 26.6402 130.614 26.6178 130.665 26.5465C130.687 26.5151 130.661 26.503 130.59 26.5122C130.519 26.5216 130.483 26.5444 130.486 26.5791ZM131.352 27.6832C131.364 27.7281 131.386 27.7267 131.425 27.6785C131.503 27.5831 131.488 27.5076 131.404 27.5687C131.366 27.5965 131.342 27.648 131.352 27.6832ZM131.505 27.8598C131.501 27.9095 131.47 27.9572 131.437 27.9659C131.404 27.9745 131.385 28.0122 131.396 28.0496C131.406 28.0886 131.447 28.109 131.491 28.0975C131.533 28.0864 131.56 28.0538 131.55 28.0246C131.541 27.9955 131.562 27.9507 131.598 27.9249C131.651 27.8861 131.658 27.7815 131.611 27.7172C131.585 27.6806 131.513 27.7777 131.505 27.8598ZM131.475 28.2175C131.508 28.2093 131.538 28.1857 131.541 28.1651C131.544 28.1445 131.517 28.1512 131.48 28.1801C131.44 28.2119 131.438 28.2266 131.475 28.2175ZM131.455 29.7501C131.479 29.7839 131.522 29.81 131.551 29.8081C131.617 29.8036 131.582 29.7557 131.485 29.7177C131.422 29.6925 131.418 29.697 131.455 29.7501ZM131.483 30.4212C131.501 30.4867 131.508 30.4879 131.517 30.427C131.524 30.3847 131.513 30.3476 131.494 30.3445C131.475 30.3413 131.47 30.3758 131.483 30.4212ZM131.113 30.8161C131.115 30.8448 131.133 30.8566 131.153 30.8424C131.172 30.8282 131.186 30.7931 131.184 30.7644C131.182 30.7357 131.164 30.7239 131.144 30.7381C131.125 30.7524 131.11 30.7875 131.113 30.8161ZM131.522 30.6618C131.554 30.7027 131.569 30.7051 131.559 30.668C131.551 30.6344 131.527 30.6042 131.506 30.6008C131.486 30.5973 131.493 30.6248 131.522 30.6618ZM131.376 31.0666C131.391 31.0865 131.426 31.0853 131.456 31.064C131.485 31.0426 131.497 31.0089 131.483 30.989C131.469 30.9691 131.433 30.9703 131.403 30.9916C131.374 31.013 131.362 31.0467 131.376 31.0666ZM131.364 31.2963C131.414 31.4236 131.48 31.3951 131.452 31.2584C131.432 31.1641 131.417 31.1472 131.379 31.1753C131.352 31.1946 131.345 31.2491 131.364 31.2963ZM130.842 32.396C130.845 32.4266 130.86 32.4539 130.876 32.4566C130.893 32.4593 130.897 32.4295 130.886 32.3903C130.864 32.3091 130.836 32.3128 130.842 32.396ZM131.128 33.0089C131.131 33.0356 131.156 33.0558 131.185 33.0539C131.214 33.0519 131.219 33.0249 131.197 32.9939C131.151 32.9304 131.123 32.9366 131.128 33.0089ZM130.441 35.0456C130.394 35.0979 130.398 35.1051 130.484 35.1194C130.589 35.1368 130.617 35.0915 130.542 35.028C130.516 35.0058 130.471 35.0137 130.441 35.0456ZM129.962 36.1384C129.966 36.1722 129.974 36.1785 129.979 36.1524C129.984 36.1263 130.03 36.1177 130.081 36.1335C130.164 36.1593 130.169 36.1561 130.132 36.1019C130.08 36.0273 129.953 36.0546 129.962 36.1384ZM129.536 37.0476C129.539 37.0876 129.549 37.0864 129.566 37.0439C129.585 36.9965 129.598 37.0015 129.615 37.0632C129.634 37.1336 129.641 37.1333 129.659 37.0614C129.67 37.0146 129.669 36.962 129.657 36.9446C129.623 36.8981 129.53 36.9772 129.536 37.0476ZM118.561 43.8322C118.511 43.9071 118.43 43.9987 118.383 44.0357C118.294 44.1041 118.1 44.3667 118.032 44.5097C118.012 44.5531 117.935 44.6918 117.862 44.8177C117.642 45.1969 117.515 45.5892 117.493 45.9571C117.482 46.1486 117.484 46.3216 117.499 46.3416C117.513 46.3617 117.503 46.3796 117.476 46.3814C117.448 46.3833 117.456 46.4629 117.493 46.5585C117.53 46.6541 117.547 46.7421 117.531 46.754C117.514 46.7659 117.527 46.8316 117.558 46.8999C117.59 46.9683 117.593 47.0346 117.564 47.0472C117.536 47.0599 117.535 47.1128 117.562 47.1648C117.594 47.2253 117.619 47.2406 117.633 47.2072C117.644 47.1784 117.671 47.179 117.692 47.2083C117.764 47.3074 117.77 47.4016 117.705 47.4187C117.661 47.4301 117.658 47.461 117.695 47.5119C117.725 47.5538 117.766 47.5764 117.786 47.5622C117.806 47.548 117.845 47.5684 117.873 47.6075C117.91 47.6582 117.904 47.6843 117.851 47.6981C117.79 47.714 117.793 47.7251 117.863 47.7599C117.911 47.7833 117.982 47.8597 118.021 47.9298C118.073 48.0228 118.107 48.0468 118.146 48.0188C118.175 47.9974 118.222 48.0133 118.253 48.0552C118.282 48.0963 118.348 48.1502 118.398 48.175C118.449 48.1998 118.538 48.2764 118.596 48.3454C118.654 48.4143 118.781 48.5073 118.877 48.552C118.974 48.5967 119.07 48.6564 119.09 48.6846C119.111 48.7128 119.157 48.7343 119.193 48.7323C119.23 48.7302 119.337 48.7682 119.431 48.8167C119.526 48.8651 119.63 48.8983 119.661 48.8904C119.693 48.8825 119.73 48.8914 119.744 48.9101C119.807 48.9968 120.599 49.0622 120.792 48.9965C120.849 48.977 120.955 48.9681 121.027 48.9769C121.147 48.9913 121.159 48.9843 121.173 48.894C121.183 48.8249 121.227 48.7769 121.318 48.7343C121.48 48.659 121.511 48.6607 121.478 48.7427C121.457 48.7957 121.465 48.806 121.524 48.8029C121.618 48.7977 121.911 48.5973 121.882 48.5572C121.859 48.5267 121.77 48.5674 121.687 48.6458C121.665 48.6668 121.635 48.667 121.62 48.6463C121.59 48.6054 121.74 48.4907 121.882 48.4453C121.931 48.4297 121.988 48.4415 122.01 48.4713C122.051 48.5281 122.241 48.4033 122.32 48.268C122.341 48.2316 122.396 48.1799 122.442 48.153C122.488 48.126 122.546 48.048 122.572 47.9795C122.597 47.911 122.652 47.8406 122.693 47.823C122.734 47.8055 122.805 47.7077 122.851 47.6056C122.896 47.5036 122.942 47.4146 122.952 47.4078C123.007 47.3709 123.108 47.1726 123.086 47.1431C123.072 47.1241 123.089 47.0709 123.123 47.025C123.241 46.8658 123.282 46.6625 123.214 46.5692C123.178 46.5197 123.171 46.4776 123.198 46.4758C123.225 46.4739 123.256 46.5028 123.266 46.54C123.305 46.6822 123.323 46.5702 123.289 46.3975C123.269 46.2979 123.268 46.1601 123.287 46.0913C123.325 45.9495 123.272 45.8439 123.192 45.902C123.124 45.9517 123.086 45.8986 123.077 45.7391C123.071 45.6177 122.971 45.4544 122.691 45.11C122.612 45.012 122.578 44.9388 122.599 44.909C122.625 44.8723 122.613 44.857 122.545 44.8381C122.47 44.8175 122.469 44.8109 122.536 44.7924C122.58 44.7806 122.605 44.7551 122.591 44.7359C122.577 44.7166 122.549 44.7125 122.53 44.7267C122.51 44.741 122.464 44.7119 122.428 44.6622C122.392 44.6125 122.378 44.5605 122.397 44.5468C122.416 44.533 122.403 44.499 122.368 44.4713C122.333 44.4437 122.35 44.4438 122.406 44.4717C122.521 44.5297 122.586 44.5046 122.528 44.4244C122.506 44.3946 122.513 44.3527 122.542 44.3314C122.61 44.2822 122.596 44.2651 122.443 44.2055C122.349 44.1692 122.32 44.1396 122.329 44.086C122.341 44.0023 122.302 43.9333 122.277 43.9953C122.268 44.0188 122.227 44.0107 122.186 43.9773C122.131 43.9313 122.13 43.912 122.183 43.8981C122.234 43.8848 122.235 43.8678 122.19 43.8379C122.155 43.8148 122.115 43.7802 122.101 43.7607C122.086 43.7413 122.066 43.7471 122.056 43.7736C122.045 43.8001 122.024 43.8051 122.009 43.7848C121.994 43.7644 122.001 43.7077 122.025 43.6587C122.062 43.5808 122.053 43.5611 121.953 43.5016C121.835 43.4312 121.475 43.2772 121.416 43.2718C121.397 43.27 121.252 43.2258 121.093 43.1734C120.806 43.0791 120.4 43.0154 120.344 43.0559C120.328 43.0675 120.239 43.0701 120.146 43.0617C120.053 43.0534 119.944 43.0685 119.904 43.0954C119.792 43.17 119.542 43.2313 119.511 43.1917C119.496 43.1723 119.438 43.1863 119.383 43.2229C119.328 43.2593 119.272 43.2921 119.26 43.2956C119.152 43.326 118.635 43.7231 118.561 43.8322ZM121.855 43.5972C121.851 43.6199 121.861 43.6553 121.876 43.6759C121.892 43.6985 121.907 43.6843 121.914 43.6399C121.92 43.5995 121.911 43.5641 121.893 43.5611C121.876 43.5582 121.858 43.5744 121.855 43.5972ZM122.859 45.6241C122.891 45.665 122.906 45.6674 122.896 45.6303C122.887 45.5968 122.864 45.5665 122.843 45.5631C122.822 45.5597 122.83 45.5871 122.859 45.6241ZM123.187 45.5515C123.219 45.5924 123.234 45.5948 123.224 45.5578C123.216 45.5242 123.192 45.4939 123.171 45.4905C123.151 45.4871 123.158 45.5145 123.187 45.5515Z" fill="white"/>
<path opacity="0.7" fill-rule="evenodd" clip-rule="evenodd" d="M47.6942 223.2C47.6959 223.21 47.6204 223.394 47.5265 223.608C47.3156 224.089 47.3266 224.059 47.3092 224.202C47.2972 224.3 47.29 224.31 47.266 224.257C47.2427 224.207 47.2391 224.21 47.2473 224.275C47.253 224.32 47.2366 224.385 47.2109 224.42C47.1853 224.456 47.1805 224.496 47.2004 224.511C47.2203 224.525 47.2251 224.547 47.2113 224.559C47.1974 224.572 47.1711 224.645 47.1528 224.721C47.1346 224.798 47.0964 224.911 47.068 224.974C47.0395 225.036 47.0241 225.106 47.0338 225.129C47.0434 225.152 47.0282 225.203 46.9999 225.242C46.9716 225.28 46.955 225.363 46.9631 225.425C46.9711 225.487 46.9571 225.666 46.9321 225.823C46.907 225.979 46.899 226.136 46.9142 226.171C46.9294 226.207 46.922 226.244 46.8976 226.253C46.8306 226.28 46.8192 226.466 46.8818 226.512C46.9121 226.534 46.9169 226.56 46.8926 226.57C46.8077 226.604 46.7835 226.822 46.8586 226.876C46.9346 226.932 46.9194 227.006 46.8375 226.98C46.8108 226.971 46.7959 227.016 46.8027 227.084C46.8093 227.15 46.8108 227.249 46.806 227.304C46.8013 227.359 46.8196 227.413 46.8467 227.425C46.8784 227.438 46.8689 227.465 46.8204 227.501C46.7681 227.539 46.7609 227.568 46.7971 227.594C46.8259 227.615 46.8396 227.668 46.8274 227.711C46.7783 227.888 46.7773 228.097 46.8255 228.132C46.8536 228.153 46.858 228.229 46.8352 228.302C46.7896 228.448 46.7989 228.576 46.8585 228.619C46.8797 228.635 46.8881 228.66 46.877 228.675C46.8244 228.747 46.9145 230.067 47.0125 230.66C47.0355 230.799 47.0483 230.935 47.0408 230.962C47.0333 230.99 47.0588 231.149 47.0972 231.317C47.1357 231.484 47.1541 231.613 47.138 231.602C47.1219 231.592 47.1275 231.66 47.1504 231.753C47.1734 231.847 47.1784 231.896 47.1617 231.861C47.1412 231.819 47.1249 231.818 47.112 231.86C47.1014 231.894 47.1153 231.938 47.1428 231.958C47.1704 231.978 47.1847 232.045 47.1746 232.107C47.1646 232.169 47.1729 232.227 47.1932 232.236C47.2134 232.244 47.2211 232.297 47.2103 232.354C47.1994 232.41 47.2022 232.464 47.2165 232.474C47.25 232.499 47.2881 232.755 47.2767 232.879C47.2719 232.932 47.2913 233 47.32 233.031C47.4023 233.119 47.4341 233.358 47.3777 233.464C47.3493 233.518 47.3432 233.573 47.3641 233.586C47.412 233.616 47.436 233.753 47.4016 233.8C47.3873 233.819 47.4039 233.873 47.4387 233.92C47.4734 233.966 47.5247 234.146 47.5529 234.32C47.5809 234.493 47.6307 234.729 47.6634 234.842C47.6962 234.956 47.7363 235.126 47.7524 235.22C47.7686 235.314 47.7976 235.403 47.8168 235.417C47.8361 235.431 47.8816 235.578 47.9179 235.743C47.9597 235.933 48.0222 236.079 48.0876 236.139C48.1445 236.191 48.1981 236.288 48.2066 236.354C48.2151 236.42 48.2475 236.493 48.2787 236.516C48.3098 236.538 48.3381 236.62 48.3415 236.697C48.3449 236.775 48.373 236.856 48.4037 236.879C48.4484 236.911 48.4585 236.903 48.4539 236.837C48.4489 236.766 48.4565 236.77 48.5067 236.86C48.539 236.918 48.5448 236.979 48.5196 236.995C48.4541 237.037 48.5471 237.16 48.6404 237.155C48.7314 237.15 48.8248 237.267 48.7527 237.296C48.726 237.307 48.72 237.327 48.7394 237.341C48.7588 237.355 48.7902 237.36 48.8092 237.351C48.8282 237.342 48.8213 237.354 48.7936 237.376C48.7661 237.399 48.7548 237.445 48.7687 237.48C48.8067 237.574 48.8432 237.589 48.8619 237.518C48.8865 237.425 49.0992 237.618 49.0872 237.723C49.0753 237.828 49.1681 237.895 49.3324 237.899C49.4067 237.901 49.4356 237.913 49.4 237.927C49.3633 237.942 49.3492 237.98 49.3652 238.02C49.3996 238.105 49.4491 238.144 49.453 238.088C49.4546 238.065 49.4987 238.087 49.5512 238.139C49.6107 238.197 49.6578 238.216 49.677 238.189C49.696 238.163 49.7291 238.176 49.7647 238.224C49.7961 238.267 49.8584 238.299 49.903 238.297C49.9476 238.294 49.9936 238.315 50.0051 238.343C50.0167 238.37 50.0448 238.367 50.0677 238.336C50.0905 238.304 50.1276 238.296 50.1501 238.317C50.2563 238.418 50.2961 238.417 50.3365 238.316C50.359 238.26 50.399 238.215 50.4252 238.217C50.4927 238.223 50.5645 238.344 50.5125 238.365C50.4349 238.396 50.5329 238.431 50.685 238.426C50.8549 238.421 50.9179 238.371 50.8025 238.332C50.7409 238.312 50.7407 238.306 50.8016 238.308C50.8439 238.308 50.8921 238.33 50.9086 238.355C50.9253 238.38 50.9925 238.39 51.0581 238.377C51.1237 238.364 51.2001 238.37 51.2278 238.39C51.2556 238.41 51.3428 238.388 51.4216 238.34C51.5005 238.293 51.5741 238.267 51.5853 238.282C51.5965 238.298 51.6127 238.304 51.6215 238.295C51.6774 238.24 51.8464 238.188 51.8605 238.222C51.88 238.269 51.9804 238.213 52.0508 238.116C52.0772 238.08 52.139 238.064 52.1881 238.081C52.2372 238.097 52.2788 238.092 52.2803 238.069C52.2819 238.046 52.3451 238.01 52.4206 237.989C52.4962 237.968 52.5662 237.921 52.5761 237.883C52.5874 237.84 52.6273 237.826 52.6838 237.845C52.739 237.863 52.7802 237.849 52.791 237.808C52.8007 237.772 52.8389 237.733 52.876 237.723C52.9569 237.701 53.2405 237.406 53.495 237.08C53.6185 236.921 53.7053 236.843 53.7548 236.846C53.8162 236.849 53.8237 236.832 53.7975 236.746C53.7801 236.689 53.7852 236.656 53.8088 236.673C53.8325 236.691 53.8642 236.688 53.8793 236.667C53.8944 236.646 53.8796 236.627 53.8465 236.624C53.8081 236.621 53.8076 236.611 53.8451 236.596C53.8781 236.583 53.898 236.522 53.8907 236.457C53.8831 236.391 53.8952 236.355 53.9193 236.373C53.9422 236.389 53.9493 236.419 53.9351 236.439C53.9208 236.458 53.9254 236.486 53.9453 236.5C53.9652 236.515 54.0054 236.494 54.0348 236.453C54.0641 236.413 54.0647 236.378 54.036 236.376C53.9468 236.369 53.9321 236.273 54.017 236.252C54.0726 236.238 54.096 236.205 54.1067 236.125C54.1146 236.065 54.13 236.038 54.141 236.064C54.1798 236.157 54.2721 236.039 54.248 235.928C54.2195 235.796 54.2494 235.732 54.3016 235.812C54.3312 235.857 54.3557 235.829 54.4404 235.652C54.4969 235.534 54.5419 235.412 54.5404 235.381C54.5388 235.35 54.5847 235.24 54.6424 235.137C54.7001 235.034 54.7459 234.92 54.7443 234.884C54.741 234.814 54.8341 234.486 54.8742 234.426C54.8877 234.406 54.9005 234.366 54.9027 234.338C54.905 234.31 54.9339 234.225 54.967 234.149C55.0002 234.074 55.0105 233.987 54.99 233.956C54.9695 233.924 54.969 233.883 54.9889 233.863C55.049 233.804 55.1749 233.506 55.1713 233.431C55.1694 233.393 55.1474 233.359 55.1223 233.357C55.0972 233.355 55.104 233.336 55.1374 233.315C55.1708 233.293 55.1907 233.231 55.1817 233.176C55.1726 233.122 55.1848 233.069 55.2086 233.059C55.2659 233.036 55.2908 232.841 55.2511 232.725C55.2338 232.675 55.2419 232.607 55.2693 232.575C55.2965 232.543 55.3217 232.448 55.3252 232.363C55.3287 232.279 55.3505 232.174 55.3737 232.129C55.3968 232.084 55.4072 232.027 55.3968 232.002C55.3727 231.944 55.4337 231.484 55.4625 231.505C55.4743 231.513 55.4813 231.482 55.4779 231.435C55.4746 231.388 55.4537 231.348 55.4316 231.346C55.4094 231.344 55.3885 231.304 55.3852 231.258C55.3819 231.211 55.3584 231.171 55.333 231.169C55.3076 231.167 55.2979 231.15 55.3114 231.131C55.3249 231.113 55.3042 231.06 55.2653 231.013C55.2263 230.967 55.2029 230.897 55.2133 230.858C55.2241 230.817 55.2406 230.807 55.252 230.834C55.2629 230.861 55.3001 230.846 55.3346 230.802C55.369 230.758 55.3908 230.748 55.3829 230.78C55.375 230.812 55.3884 230.879 55.4127 230.928C55.4561 231.017 55.457 231.016 55.465 230.87C55.4915 230.391 55.4654 230.268 55.3416 230.286C55.2414 230.301 55.2419 230.247 55.3426 230.182C55.4009 230.145 55.4558 230.087 55.4646 230.053C55.4866 229.97 55.3791 229.9 55.3311 229.966C55.3097 229.995 55.2782 230.009 55.2611 229.996C55.2198 229.966 55.3943 229.804 55.4635 229.808C55.5251 229.811 55.5516 229.554 55.494 229.512C55.4477 229.479 55.3783 229.575 55.4041 229.637C55.4277 229.694 55.3879 229.762 55.348 229.733C55.3329 229.722 55.3057 229.64 55.2874 229.55C55.2541 229.387 55.2971 229.26 55.3682 229.312C55.3892 229.327 55.3862 229.348 55.3616 229.358C55.2934 229.385 55.3385 229.451 55.4144 229.435C55.5029 229.416 55.5446 229.352 55.529 229.257C55.5188 229.195 55.5071 229.192 55.4704 229.243C55.4348 229.292 55.4105 229.287 55.3615 229.222C55.3269 229.175 55.2997 229.114 55.3012 229.085C55.3026 229.057 55.2752 229.031 55.2403 229.028C55.1945 229.024 55.199 229.006 55.2562 228.965C55.3048 228.929 55.32 228.895 55.2953 228.877C55.2684 228.858 55.2803 228.836 55.3307 228.814C55.4646 228.753 55.4725 228.637 55.3505 228.525C55.2667 228.448 55.2325 228.436 55.2209 228.48C55.2123 228.513 55.1894 228.528 55.1702 228.514C55.151 228.5 55.1184 228.512 55.0979 228.54C55.0773 228.568 55.0318 228.588 54.9968 228.584C54.9617 228.58 54.9546 228.572 54.9809 228.567C55.0073 228.562 55.0265 228.523 55.0235 228.48C55.0193 228.421 55.0322 228.414 55.0796 228.448C55.1137 228.473 55.1483 228.468 55.1571 228.436C55.1658 228.405 55.153 228.371 55.1285 228.36C55.066 228.332 55.1962 228.221 55.3119 228.204C55.4443 228.184 55.4633 228.145 55.3343 228.158C55.2769 228.164 55.2134 228.157 55.1931 228.143C55.1728 228.13 55.1264 228.148 55.09 228.184C55.0366 228.238 55.0197 228.235 55.003 228.171C54.9798 228.083 55.0453 227.962 55.0762 228.036C55.1055 228.107 55.2806 227.944 55.2666 227.859C55.2575 227.804 55.2393 227.793 55.1898 227.813C55.1393 227.833 55.1145 227.817 55.0776 227.742C55.0516 227.689 55.0416 227.63 55.0553 227.611C55.0915 227.562 55.149 227.615 55.1325 227.683C55.1218 227.727 55.1375 227.735 55.1956 227.715C55.3001 227.681 55.3054 227.67 55.2867 227.524C55.2759 227.441 55.2392 227.385 55.1793 227.362C55.1086 227.334 55.0935 227.341 55.1121 227.394C55.1311 227.449 55.1271 227.451 55.0925 227.408C55.0627 227.371 55.0812 227.313 55.1515 227.223C55.2161 227.141 55.2299 227.102 55.1889 227.118C55.1376 227.139 55.1202 227.116 55.1065 227.009C55.0969 226.935 55.1105 226.865 55.1367 226.855C55.2101 226.825 55.1678 226.813 55.0288 226.824C54.9595 226.83 54.8895 226.852 54.8733 226.875C54.8572 226.897 54.8271 226.903 54.8066 226.888C54.7808 226.869 54.7964 226.848 54.8567 226.819C54.9892 226.756 54.9899 226.734 54.8617 226.667C54.7924 226.63 54.7632 226.597 54.7906 226.586C54.8179 226.575 54.7936 226.547 54.7321 226.517C54.6573 226.482 54.6419 226.458 54.6787 226.434C54.7402 226.395 54.7007 226.103 54.6266 226.049C54.5981 226.028 54.5917 225.993 54.6122 225.97C54.6328 225.948 54.6379 225.911 54.6237 225.889C54.6094 225.867 54.6119 225.787 54.6291 225.712C54.6464 225.637 54.6367 225.573 54.6075 225.571C54.5122 225.563 54.5069 225.473 54.599 225.429C54.6497 225.405 54.6766 225.371 54.6656 225.345C54.6554 225.32 54.6263 225.315 54.6008 225.333C54.572 225.354 54.5491 225.308 54.5401 225.212C54.5309 225.114 54.4985 225.05 54.4518 225.037C54.3866 225.019 54.3889 225.015 54.4719 224.999C54.5367 224.987 54.5647 224.999 54.5621 225.039C54.5598 225.077 54.5834 225.081 54.6297 225.052C54.67 225.026 54.6941 224.973 54.6853 224.93C54.6731 224.871 54.6681 224.869 54.6625 224.923C54.6573 224.971 54.6387 224.973 54.5976 224.928C54.5634 224.891 54.5623 224.844 54.5951 224.812C54.6545 224.754 54.6095 224.694 54.5306 224.726C54.4737 224.749 54.4198 224.652 54.3821 224.459C54.3679 224.386 54.3367 224.313 54.3126 224.295C54.2886 224.278 54.2863 224.261 54.3074 224.258C54.3454 224.252 54.3368 224.095 54.2969 224.066C54.2856 224.058 54.2588 224.075 54.2375 224.104C54.2161 224.134 54.1806 224.144 54.1586 224.128C54.1366 224.112 54.1449 224.083 54.177 224.062C54.2218 224.033 54.2061 224.005 54.1097 223.94C54.0406 223.893 53.9622 223.799 53.9355 223.73C53.9088 223.661 53.8616 223.585 53.8305 223.563C53.7993 223.54 53.7806 223.496 53.7888 223.464C53.8107 223.381 53.6085 223.222 53.5619 223.286C53.5397 223.317 53.5093 223.313 53.4856 223.277C53.4641 223.244 53.4622 223.195 53.4816 223.169C53.5252 223.109 53.4511 222.95 53.3577 222.903C53.3195 222.884 53.3004 222.847 53.3152 222.82C53.3301 222.794 53.352 222.754 53.3637 222.733C53.3755 222.712 53.3596 222.675 53.3284 222.653C53.2556 222.6 53.084 222.622 53.1251 222.679C53.1427 222.704 53.0991 222.734 53.0179 222.755C52.91 222.783 52.8782 222.774 52.8678 222.714C52.8574 222.654 52.8705 222.643 52.9311 222.659C52.987 222.675 53.0201 222.651 53.0539 222.57C53.1283 222.392 53.0918 222.29 52.9055 222.154C52.7561 222.046 52.7429 222.023 52.7972 221.967C52.858 221.904 52.8573 221.903 52.7543 221.931C52.6967 221.947 52.6468 221.943 52.6433 221.922C52.6399 221.901 52.5817 221.87 52.5139 221.852C52.4462 221.835 52.3213 221.766 52.2363 221.698C52.1505 221.631 52.0569 221.586 52.026 221.598C51.9938 221.611 51.9968 221.57 52.0331 221.5C52.0676 221.434 52.1024 221.396 52.1103 221.415C52.1182 221.434 52.1514 221.432 52.1841 221.411C52.2269 221.384 52.2186 221.355 52.1543 221.308C52.1053 221.272 52.0516 221.262 52.0349 221.285C52.0183 221.307 52.0017 221.308 51.9981 221.286C51.9944 221.264 51.925 221.258 51.8439 221.274C51.7628 221.289 51.6745 221.286 51.6477 221.266C51.6209 221.247 51.5655 221.236 51.5246 221.242C51.4667 221.251 51.4571 221.244 51.4812 221.21C51.4984 221.187 51.4897 221.151 51.462 221.131C51.4056 221.09 51.287 221.15 51.282 221.223C51.2801 221.249 51.2614 221.257 51.2404 221.242C51.2194 221.227 51.0953 221.23 50.9648 221.25C50.6855 221.292 50.5237 221.265 50.6334 221.196C50.751 221.121 50.7634 221.1 50.7242 221.043C50.6981 221.004 50.6805 221.01 50.6668 221.062C50.6413 221.159 50.297 221.236 50.1894 221.17C50.1231 221.129 50.124 221.108 50.195 221.05C50.2857 220.974 50.2488 220.913 50.1064 220.903C50.0186 220.897 49.8842 221.017 49.9366 221.056C49.9563 221.07 49.99 221.058 50.0113 221.028C50.0327 220.999 50.0665 220.987 50.0863 221.001C50.1062 221.016 50.0875 221.075 50.0447 221.134C49.9854 221.216 49.9506 221.229 49.8978 221.191C49.8556 221.16 49.7794 221.168 49.7028 221.212C49.6337 221.252 49.5639 221.274 49.5477 221.263C49.5315 221.251 49.5166 221.265 49.5147 221.293C49.5127 221.322 49.4966 221.334 49.479 221.322C49.4362 221.29 49.0171 221.52 49.0253 221.57C49.0289 221.592 48.9988 221.625 48.9586 221.644C48.8029 221.719 48.6321 221.911 48.1701 222.535C47.9066 222.89 47.6924 223.19 47.6942 223.2ZM52.6906 222.434C52.7142 222.49 52.8244 222.431 52.8505 222.348C52.862 222.311 52.8333 222.307 52.7693 222.338C52.7041 222.369 52.6773 222.402 52.6906 222.434ZM53.8549 223.217C53.8804 223.256 53.9007 223.248 53.9232 223.19C53.9676 223.075 53.9305 223.008 53.8692 223.092C53.8414 223.13 53.8349 223.186 53.8549 223.217ZM54.0555 223.337C54.0666 223.386 54.0521 223.441 54.0234 223.459C53.9946 223.478 53.9885 223.519 54.0097 223.552C54.0319 223.586 54.0766 223.592 54.1149 223.568C54.1517 223.544 54.1669 223.505 54.149 223.48C54.1311 223.455 54.1376 223.406 54.1634 223.371C54.2023 223.317 54.1766 223.216 54.1124 223.169C54.0759 223.142 54.0371 223.257 54.0555 223.337ZM54.1368 223.687C54.1659 223.669 54.1869 223.637 54.1836 223.617C54.1802 223.596 54.1563 223.611 54.1306 223.65C54.1021 223.692 54.1046 223.707 54.1368 223.687ZM54.5914 225.151C54.6248 225.175 54.6738 225.187 54.7003 225.176C54.7614 225.152 54.7135 225.117 54.61 225.111C54.5417 225.106 54.5391 225.112 54.5914 225.151ZM54.8245 225.781C54.8619 225.837 54.869 225.836 54.8592 225.775C54.8524 225.733 54.8312 225.701 54.8121 225.704C54.793 225.707 54.7986 225.741 54.8245 225.781ZM54.5947 226.27C54.6057 226.297 54.6264 226.303 54.6407 226.283C54.6549 226.264 54.6575 226.226 54.6465 226.199C54.6354 226.173 54.6147 226.167 54.6005 226.187C54.5862 226.206 54.5836 226.244 54.5947 226.27ZM54.9362 225.997C54.9795 226.026 54.9942 226.024 54.9737 225.992C54.9551 225.962 54.923 225.941 54.9024 225.944C54.8818 225.947 54.897 225.971 54.9362 225.997ZM54.9225 226.427C54.9424 226.442 54.9761 226.43 54.9975 226.4C55.0189 226.371 55.0201 226.335 55.0002 226.321C54.9804 226.306 54.9466 226.318 54.9252 226.348C54.9039 226.377 54.9026 226.413 54.9225 226.427ZM54.9817 226.65C55.0688 226.755 55.123 226.708 55.0537 226.586C55.0059 226.503 54.9864 226.491 54.9583 226.53C54.9389 226.557 54.9495 226.611 54.9817 226.65ZM54.8253 227.857C54.837 227.885 54.86 227.906 54.8762 227.904C54.8925 227.901 54.8876 227.872 54.8654 227.838C54.8193 227.767 54.7932 227.78 54.8253 227.857ZM55.2866 228.351C55.2969 228.376 55.3273 228.387 55.3543 228.377C55.3813 228.366 55.378 228.338 55.347 228.316C55.2836 228.27 55.2587 228.284 55.2866 228.351ZM55.2618 230.501C55.2324 230.565 55.2386 230.571 55.3251 230.558C55.43 230.542 55.4434 230.49 55.3522 230.453C55.3204 230.44 55.2798 230.461 55.2618 230.501ZM55.1436 231.688C55.1577 231.719 55.1667 231.723 55.1637 231.696C55.1607 231.67 55.2018 231.647 55.255 231.647C55.3422 231.645 55.346 231.641 55.2932 231.601C55.2207 231.546 55.1087 231.611 55.1436 231.688ZM55.0185 232.684C55.0339 232.721 55.0432 232.717 55.0464 232.671C55.0499 232.62 55.0634 232.621 55.0984 232.675C55.1384 232.736 55.1447 232.733 55.1395 232.66C55.1361 232.611 55.119 232.562 55.1016 232.549C55.0552 232.515 54.9913 232.619 55.0185 232.684ZM46.6744 242.525C46.6496 242.612 46.6014 242.724 46.5672 242.774C46.5039 242.867 46.4004 243.176 46.3802 243.333C46.3741 243.381 46.3441 243.536 46.3133 243.679C46.2211 244.107 46.2213 244.52 46.3141 244.876C46.3625 245.062 46.4184 245.226 46.4384 245.24C46.4584 245.255 46.454 245.275 46.4288 245.285C46.4035 245.296 46.4356 245.369 46.5002 245.448C46.5648 245.528 46.6079 245.606 46.596 245.623C46.5841 245.639 46.6162 245.698 46.6674 245.753C46.7185 245.808 46.7417 245.871 46.7187 245.891C46.6958 245.912 46.7112 245.963 46.753 246.004C46.8016 246.052 46.8305 246.058 46.8329 246.022C46.8351 245.991 46.8608 245.984 46.8902 246.005C46.9891 246.077 47.0234 246.165 46.9667 246.201C46.929 246.226 46.9356 246.256 46.9864 246.293C47.0283 246.323 47.0742 246.332 47.0884 246.313C47.1027 246.293 47.1463 246.3 47.1855 246.329C47.2361 246.366 47.2381 246.392 47.1923 246.422C47.1395 246.456 47.1451 246.466 47.223 246.477C47.2752 246.485 47.3664 246.535 47.4255 246.59C47.5041 246.662 47.5434 246.674 47.5715 246.636C47.593 246.606 47.6426 246.607 47.6844 246.638C47.7255 246.667 47.8045 246.698 47.86 246.706C47.9155 246.715 48.0238 246.76 48.1005 246.808C48.1772 246.855 48.3264 246.905 48.4321 246.917C48.5378 246.93 48.6473 246.957 48.6755 246.978C48.7037 246.998 48.7544 247.004 48.7883 246.991C48.8222 246.978 48.9358 246.981 49.0408 246.998C49.1459 247.015 49.2545 247.014 49.2822 246.997C49.3099 246.98 49.3478 246.977 49.3666 246.99C49.4532 247.053 50.2275 246.871 50.3903 246.749C50.4388 246.713 50.5367 246.672 50.6079 246.658C50.7264 246.634 50.7361 246.624 50.7212 246.534C50.7098 246.465 50.7366 246.406 50.8102 246.337C50.9402 246.216 50.9709 246.207 50.9648 246.296C50.9609 246.353 50.9715 246.36 51.0265 246.339C51.1151 246.305 51.3312 246.024 51.2912 245.995C51.2607 245.973 51.1884 246.039 51.1339 246.139C51.1193 246.166 51.0904 246.175 51.0697 246.16C51.0288 246.131 51.1357 245.975 51.257 245.888C51.2984 245.858 51.3567 245.852 51.3865 245.873C51.4433 245.915 51.5859 245.737 51.6188 245.584C51.6277 245.543 51.6639 245.477 51.6993 245.437C51.7347 245.397 51.7662 245.305 51.7693 245.232C51.7724 245.159 51.8025 245.075 51.8362 245.046C51.8698 245.017 51.9071 244.902 51.9191 244.791C51.931 244.679 51.9469 244.581 51.9544 244.571C51.9954 244.519 52.0299 244.299 52.0004 244.278C51.9814 244.264 51.9807 244.208 51.9989 244.154C52.062 243.966 52.0378 243.76 51.9446 243.693C51.8951 243.657 51.8754 243.619 51.9008 243.609C51.9262 243.598 51.9642 243.616 51.9853 243.649C52.0661 243.772 52.0486 243.66 51.9631 243.506C51.9137 243.417 51.8703 243.287 51.8666 243.215C51.8591 243.069 51.7762 242.985 51.718 243.065C51.6681 243.133 51.6161 243.094 51.5586 242.945C51.5149 242.832 51.3691 242.707 50.9969 242.466C50.891 242.397 50.8366 242.338 50.8475 242.303C50.861 242.26 50.845 242.249 50.7738 242.253C50.6962 242.256 50.693 242.25 50.7519 242.212C50.7899 242.187 50.8052 242.155 50.786 242.141C50.7667 242.127 50.7393 242.132 50.7251 242.151C50.7108 242.171 50.6585 242.157 50.6089 242.121C50.5592 242.085 50.5299 242.04 50.5437 242.021C50.5575 242.002 50.5345 241.974 50.4926 241.958C50.4507 241.943 50.4668 241.938 50.5284 241.947C50.6563 241.966 50.7102 241.923 50.6301 241.864C50.6003 241.843 50.5934 241.801 50.6148 241.771C50.664 241.704 50.6459 241.692 50.4813 241.682C50.3808 241.677 50.3449 241.657 50.336 241.604C50.3222 241.52 50.2637 241.467 50.2591 241.534C50.2573 241.559 50.216 241.564 50.1672 241.544C50.1 241.518 50.0934 241.5 50.1396 241.47C50.1836 241.442 50.1801 241.425 50.1275 241.411C50.0871 241.4 50.0382 241.379 50.0188 241.365C49.9994 241.351 49.9819 241.363 49.9799 241.391C49.9779 241.42 49.9597 241.431 49.9393 241.416C49.919 241.401 49.9082 241.345 49.9153 241.291C49.9266 241.206 49.912 241.19 49.7989 241.164C49.6648 241.133 49.2748 241.098 49.2166 241.111C49.1985 241.115 49.0464 241.118 48.8787 241.117C48.5771 241.116 48.1712 241.181 48.1306 241.237C48.1191 241.253 48.0352 241.283 47.9441 241.303C47.853 241.324 47.754 241.372 47.7239 241.41C47.6407 241.516 47.4215 241.651 47.3797 241.623C47.3593 241.609 47.3089 241.641 47.2678 241.692C47.2266 241.744 47.1841 241.792 47.1734 241.799C47.0796 241.862 46.7104 242.399 46.6744 242.525ZM49.7347 241.285C49.7384 241.308 49.7582 241.339 49.7788 241.354C49.8014 241.37 49.8113 241.352 49.804 241.308C49.7974 241.267 49.7775 241.236 49.7599 241.239C49.7422 241.242 49.7309 241.263 49.7347 241.285ZM51.3151 242.903C51.3584 242.932 51.3731 242.93 51.3526 242.898C51.334 242.868 51.3019 242.847 51.2813 242.85C51.2607 242.853 51.2759 242.877 51.3151 242.903ZM51.6049 242.733C51.6482 242.762 51.6629 242.76 51.6424 242.727C51.6238 242.698 51.5917 242.677 51.5711 242.68C51.5505 242.683 51.5657 242.707 51.6049 242.733Z" fill="white"/>
</g>
<defs>
<filter id="filter0_dii_8_15382" x="-3.31268" y="-1.1037" width="323.853" height="286.561" filterUnits="userSpaceOnUse" color-interpolation-filters="sRGB">
<feFlood flood-opacity="0" result="BackgroundImageFix"/>
<feColorMatrix in="SourceAlpha" type="matrix" values="0 0 0 0 0 0 0 0 0 0 0 0 0 0 0 0 0 0 127 0" result="hardAlpha"/>
<feOffset dx="6.62429" dy="4.4162"/>
<feGaussianBlur stdDeviation="3.86417"/>
<feComposite in2="hardAlpha" operator="out"/>
<feColorMatrix type="matrix" values="0 0 0 0 0 0 0 0 0 0 0 0 0 0 0 0 0 0 0.44 0"/>
<feBlend mode="normal" in2="BackgroundImageFix" result="effect1_dropShadow_8_15382"/>
<feBlend mode="normal" in="SourceGraphic" in2="effect1_dropShadow_8_15382" result="shape"/>
<feColorMatrix in="SourceAlpha" type="matrix" values="0 0 0 0 0 0 0 0 0 0 0 0 0 0 0 0 0 0 127 0" result="hardAlpha"/>
<feOffset dx="-4.4162" dy="-4.4162"/>
<feGaussianBlur stdDeviation="2.2081"/>
<feComposite in2="hardAlpha" operator="arithmetic" k2="-1" k3="1"/>
<feColorMatrix type="matrix" values="0 0 0 0 0 0 0 0 0 0 0 0 0 0 0 0 0 0 0.25 0"/>
<feBlend mode="normal" in2="shape" result="effect2_innerShadow_8_15382"/>
<feColorMatrix in="SourceAlpha" type="matrix" values="0 0 0 0 0 0 0 0 0 0 0 0 0 0 0 0 0 0 127 0" result="hardAlpha"/>
<feOffset dx="6.62429" dy="6.62429"/>
<feGaussianBlur stdDeviation="2.2081"/>
<feComposite in2="hardAlpha" operator="arithmetic" k2="-1" k3="1"/>
<feColorMatrix type="matrix" values="0 0 0 0 1 0 0 0 0 1 0 0 0 0 1 0 0 0 0.42 0"/>
<feBlend mode="normal" in2="effect2_innerShadow_8_15382" result="effect3_innerShadow_8_15382"/>
</filter>
</defs>
</svg>
