<svg width="288" height="256" viewBox="0 0 288 256" fill="none" xmlns="http://www.w3.org/2000/svg">
<g filter="url(#filter0_dii_8_15475)">
<path d="M133.721 3.38977C134.357 3.30079 135.312 3.23413 136.334 3.51192L137.684 3.87835C137.986 3.96038 138.612 4.10381 139.649 4.31339L142.779 4.94587C143.86 5.16422 144.934 5.3962 146.001 5.64194L149.092 6.35306C150.422 6.65932 151.71 7.10629 152.949 7.68913L155.85 9.05282C157.192 9.68379 158.422 10.4968 159.527 11.4849L161.918 13.6216C162.741 14.3575 163.561 15.109 164.378 15.8754L166.75 18.1033C168.02 19.2958 168.975 20.7291 169.587 22.36L170.73 25.4086C171.153 26.5382 171.524 27.6744 171.842 28.8162L172.693 31.8732C173.013 33.0201 173.279 34.1825 173.492 35.3593L173.777 36.9313L173.795 37.0342L173.804 37.0359L175.336 37.2559C176.124 37.3687 176.943 37.4195 177.795 37.4049L181.008 37.3496C181.834 37.3354 182.667 37.2508 183.506 37.0936L186.719 36.4921C188.205 36.2139 189.705 36.1576 191.204 36.3281L194.417 36.6929C195.44 36.8092 196.462 36.9081 197.484 36.9891L200.697 37.2434C201.712 37.3238 202.727 37.3847 203.742 37.4249L206.955 37.5521C207.89 37.5892 208.824 37.5819 209.757 37.5304L212.962 37.353C214.454 37.2705 215.93 37.4087 217.372 37.7772L220.394 38.5485C221.585 38.8527 222.754 39.2362 223.899 39.6964L226.815 40.8676C228.291 41.4605 229.617 42.3133 230.774 43.4042L233.088 45.5878C234.044 46.4896 234.921 47.4772 235.719 48.5444L237.688 51.1747C238.844 52.72 239.5 54.5056 239.619 56.432L239.822 59.7107C239.896 60.9251 239.919 62.1309 239.888 63.3274L239.806 66.5341C239.779 67.5699 239.765 68.6069 239.762 69.6447L239.755 72.8573C239.752 73.9086 239.756 74.96 239.768 76.0113L239.805 79.2239C239.815 80.1168 239.88 81.0117 240.001 81.9094L240.437 85.122C240.599 86.3163 240.708 87.5122 240.764 88.7094L240.914 91.922C240.981 93.3448 240.873 94.7621 240.595 96.1662L239.96 99.3788C239.805 100.159 239.736 100.928 239.749 101.691L239.77 103.058L241.096 103.324C242.233 103.552 243.359 103.817 244.473 104.117L247.544 104.944C248.859 105.298 250.125 105.786 251.338 106.407L254.176 107.86C255.332 108.452 256.434 109.137 257.48 109.912L260.053 111.818C261.15 112.632 262.155 113.553 263.063 114.577L265.198 116.987C266.14 118.049 266.943 119.211 267.602 120.468L269.097 123.319C269.727 124.52 270.233 125.772 270.612 127.072L271.509 130.146C271.879 131.412 272.135 132.702 272.276 134.011L272.616 137.182C272.756 138.487 272.782 139.796 272.694 141.106L272.479 144.291C272.394 145.547 272.224 146.795 271.97 148.035L271.322 151.19C271.046 152.532 270.634 153.837 270.089 155.1L268.798 158.096C268.173 159.548 267.313 160.86 266.233 162.014L264.006 164.395C263.196 165.261 262.358 166.094 261.494 166.896L259.126 169.096C258.017 170.126 256.771 170.969 255.402 171.617L252.486 172.998C251.439 173.493 250.378 173.957 249.305 174.39L246.32 175.593C244.983 176.132 243.593 176.492 242.161 176.673L240.558 176.876L240.489 176.884L240.344 177.715C240.203 178.522 240.064 179.436 239.929 180.459L239.506 183.672C239.41 184.402 239.402 185.127 239.483 185.855L239.837 189.067C239.969 190.272 240.045 191.478 240.063 192.685L240.111 195.897C240.129 197.114 240.085 198.331 239.98 199.546L239.7 202.758C239.634 203.517 239.651 204.275 239.752 205.038L240.177 208.251C240.35 209.555 240.413 210.864 240.368 212.174L240.257 215.387C240.216 216.55 240.138 217.713 240.023 218.878L239.704 222.1C239.547 223.687 239.112 225.208 238.409 226.64L236.974 229.56C236.35 230.831 235.587 232.018 234.688 233.115L232.61 235.652C231.599 236.886 230.397 237.917 229.024 238.731L226.188 240.413C224.903 241.175 223.532 241.749 222.087 242.132L218.895 242.979C217.217 243.424 215.501 243.488 213.795 243.171L210.548 242.567C209.963 242.458 209.402 242.457 208.842 242.555L205.63 243.12C204.196 243.372 202.751 243.437 201.305 243.312L198.092 243.032C197.263 242.96 196.435 242.96 195.607 243.029L192.394 243.298C190.922 243.422 189.453 243.337 188 243.052L184.787 242.423C184.049 242.279 183.322 242.226 182.602 242.26L179.389 242.414C178.176 242.472 176.961 242.469 175.747 242.406L172.534 242.237C171.548 242.185 170.238 241.947 169.04 241.102C167.704 240.161 166.96 238.786 166.736 237.36L166.366 235.003C166.313 234.662 166.166 234.113 165.832 233.322L164.561 230.312C164.11 229.243 163.687 228.167 163.292 227.084L162.181 224.036C162.018 223.588 161.78 223.209 161.447 222.867L159.186 220.54C158.548 219.884 157.886 219.278 157.2 218.722L154.733 216.726C154.114 216.225 153.461 215.789 152.772 215.416L150.004 213.917C149.168 213.464 148.311 213.038 147.435 212.638L144.543 211.319C143.933 211.04 143.295 210.847 142.619 210.739L139.457 210.233C138.744 210.119 138.03 210.091 137.31 210.151L134.119 210.414C133.312 210.481 132.523 210.619 131.748 210.828L128.669 211.659C128.012 211.837 127.399 212.095 126.822 212.435L124.09 214.044C123.247 214.541 122.419 215.059 121.608 215.599L118.978 217.347C118.353 217.762 117.774 218.242 117.238 218.789L115.008 221.066C114.384 221.703 113.789 222.387 113.224 223.118L111.23 225.697C110.83 226.215 110.514 226.78 110.28 227.405L109.128 230.478C108.887 231.122 108.742 231.778 108.692 232.458L108.45 235.721C108.377 236.702 108.129 237.9 107.413 239.019C106.635 240.234 105.474 241.085 104.114 241.479L101.848 242.134C100.749 242.451 99.5467 242.645 98.2927 242.755L95.0799 243.036C93.7271 243.154 92.3728 243.138 91.0219 242.989L87.8091 242.633C87.0963 242.554 86.3849 242.565 85.668 242.667L82.4551 243.123C81.2696 243.291 80.0818 243.41 78.8933 243.48L75.6805 243.669C74.406 243.744 73.131 243.728 71.8577 243.621L68.6448 243.352C67.7612 243.278 66.8781 243.262 65.9958 243.304L62.783 243.459C61.4891 243.521 60.1881 243.482 58.884 243.345L55.6059 243.001C54.0543 242.839 52.5586 242.432 51.1371 241.788L48.1225 240.422C46.7348 239.793 45.4623 238.973 44.3173 237.968L41.834 235.791C40.5257 234.643 39.514 233.249 38.8362 231.643L37.5669 228.635C37.0829 227.488 36.6681 226.331 36.3253 225.163L35.4392 222.145C35.0936 220.967 34.82 219.763 34.6168 218.533L34.0896 215.344C33.8782 214.064 33.7658 212.777 33.7541 211.484L33.7257 208.271C33.7155 207.138 33.73 206.004 33.7692 204.871L33.8805 201.658C33.9208 200.493 33.9998 199.328 34.1173 198.164L34.4411 194.951C34.5189 194.18 34.5154 193.411 34.4302 192.639L34.0763 189.426C33.9389 188.181 33.8784 186.933 33.8955 185.685L33.9399 182.472C33.9546 181.402 33.9687 180.33 33.9834 179.26L34.0051 177.688L33.7098 177.601C32.7021 177.304 31.6316 176.882 30.5195 176.375L27.5417 175.016C26.5368 174.558 25.5509 174.103 24.5849 173.65L21.7259 172.312C20.52 171.747 19.3787 171.069 18.3056 170.28L15.7612 168.411C14.7954 167.702 13.8637 166.94 12.9667 166.13L10.5922 163.985C9.38308 162.892 8.41921 161.597 7.72065 160.125L6.34932 157.234C5.96422 156.423 5.5248 155.619 5.02987 154.826L3.29124 152.04C2.26914 150.402 1.76683 148.567 1.81532 146.635L1.89732 143.36C1.91816 142.528 1.86385 141.7 1.73333 140.872L1.22044 137.623C0.907137 135.636 1.22617 133.684 2.14498 131.9L3.65938 128.959C3.97605 128.344 4.19653 127.703 4.32538 127.026L4.94285 123.78C5.28819 121.966 6.07848 120.32 7.29059 118.92L9.43084 116.447C10.3067 115.434 11.2612 114.508 12.294 113.672L14.7932 111.65C15.6818 110.931 16.588 110.235 17.5116 109.561L20.1086 107.668C21.2078 106.867 22.3819 106.181 23.6244 105.611L26.5846 104.252C28.1162 103.549 29.744 103.183 31.429 103.163L33.0588 103.143L33.2973 103.139L33.4998 102.549C33.7018 101.959 33.9197 101.188 34.1457 100.213L34.8904 97.0003C35.028 96.4064 35.057 95.8376 34.9882 95.2719L34.5975 92.0592C34.4564 90.8989 34.3523 89.7375 34.2854 88.5756L34.1005 85.363C34.0357 84.236 33.9937 83.1086 33.9734 81.9814L33.9156 78.7688C33.8956 77.6564 33.8914 76.5439 33.9039 75.4315L33.9399 72.2189C33.9523 71.115 33.9772 70.0106 34.0152 68.9068L34.1256 65.6942C34.1669 64.4936 34.2624 63.2979 34.4126 62.1076L34.8142 58.9243C34.9852 57.5692 35.2947 56.2423 35.7404 54.9487L36.7913 51.9001C37.3615 50.2456 38.2913 48.7859 39.5532 47.5714L41.8675 45.3443C42.7918 44.4547 43.7723 43.6432 44.8084 42.9131L47.3695 41.1077C48.6556 40.2016 50.0747 39.5527 51.6023 39.1751L54.6261 38.4272C55.8634 38.1214 57.1226 37.9182 58.3996 37.8173L61.5396 37.5697C62.4368 37.4988 63.3522 37.3792 64.2856 37.2091L67.4985 36.6235C68.8515 36.377 70.2145 36.2681 71.5815 36.3005L74.7944 36.3775C75.906 36.4039 77.018 36.4456 78.1295 36.5038L81.3423 36.6728C82.4888 36.7329 83.6356 36.823 84.7811 36.9439L87.994 37.2836C88.9571 37.3852 89.9199 37.4497 90.8814 37.4776L94.0943 37.5713C94.854 37.5934 95.6192 37.5332 96.3943 37.3881L99.6072 36.7874C99.6637 36.7768 99.7107 36.7651 99.7486 36.7556L100.32 36.0989L100.975 35.3426C100.989 35.2853 101.009 35.1925 101.024 35.0565L101.371 31.8623C101.552 30.1981 102.071 28.6241 102.915 27.1789L104.538 24.4055C105.057 23.5177 105.562 22.6214 106.055 21.7183L107.593 18.8973C108.361 17.4893 109.367 16.2583 110.594 15.2254L113.053 13.1539C113.959 12.3908 114.894 11.6655 115.856 10.9779L118.466 9.11305C119.648 8.2685 120.927 7.59278 122.291 7.09096L125.306 5.9816C126.372 5.58932 127.456 5.21867 128.557 4.86891L131.678 3.87584C132.335 3.667 133.03 3.48655 133.721 3.38977Z" fill="#E8642F"/>
<path opacity="0.7" fill-rule="evenodd" clip-rule="evenodd" d="M111.863 23.3043C111.861 23.3136 111.747 23.4483 111.609 23.6038C111.298 23.953 111.315 23.9306 111.261 24.0468C111.224 24.1271 111.215 24.133 111.21 24.0821C111.204 24.0328 111.2 24.0348 111.189 24.0922C111.181 24.1315 111.15 24.1822 111.118 24.205C111.087 24.2278 111.072 24.2609 111.084 24.2786C111.097 24.2963 111.095 24.3162 111.08 24.3229C111.065 24.3295 111.023 24.3839 110.986 24.4438C110.95 24.5036 110.886 24.5894 110.845 24.6343C110.804 24.6793 110.771 24.7342 110.773 24.7565C110.775 24.7787 110.748 24.8174 110.714 24.8426C110.679 24.8677 110.642 24.9331 110.632 24.9879C110.622 25.0428 110.561 25.1903 110.497 25.3159C110.432 25.4414 110.382 25.572 110.386 25.6062C110.389 25.6404 110.372 25.6696 110.349 25.6712C110.285 25.6755 110.224 25.8301 110.264 25.8858C110.284 25.9128 110.281 25.9362 110.258 25.9378C110.176 25.9433 110.096 26.1211 110.145 26.1881C110.194 26.2558 110.16 26.3147 110.098 26.2699C110.078 26.2552 110.053 26.289 110.04 26.349C110.028 26.4066 110.002 26.4907 109.983 26.5358C109.964 26.581 109.964 26.632 109.984 26.6491C110.007 26.6692 109.991 26.6898 109.941 26.7064C109.886 26.7243 109.872 26.7468 109.895 26.779C109.914 26.8047 109.911 26.8532 109.889 26.8868C109.799 27.0226 109.74 27.1996 109.771 27.2425C109.79 27.2676 109.772 27.3334 109.733 27.3888C109.654 27.4999 109.627 27.611 109.666 27.664C109.679 27.683 109.679 27.7066 109.666 27.7164C109.601 27.7632 109.315 28.906 109.235 29.4345C109.216 29.5589 109.19 29.6778 109.176 29.6987C109.162 29.7196 109.14 29.8616 109.126 30.0142C109.113 30.1668 109.093 30.2807 109.082 30.2673C109.072 30.2539 109.058 30.313 109.051 30.3988C109.045 30.4845 109.036 30.5268 109.031 30.4929C109.026 30.4515 109.012 30.4466 108.989 30.4782C108.971 30.504 108.971 30.5452 108.989 30.5697C109.006 30.5943 109 30.6551 108.975 30.7048C108.949 30.7545 108.94 30.8058 108.955 30.8188C108.97 30.8318 108.962 30.8788 108.937 30.9234C108.912 30.968 108.9 31.0148 108.909 31.0275C108.931 31.0573 108.893 31.2845 108.849 31.3864C108.83 31.4299 108.828 31.4931 108.844 31.527C108.889 31.6245 108.851 31.8355 108.773 31.9103C108.735 31.9478 108.714 31.9923 108.729 32.0091C108.761 32.0476 108.744 32.1702 108.701 32.2008C108.684 32.2135 108.683 32.2638 108.7 32.3125C108.717 32.3612 108.711 32.5278 108.687 32.6826C108.663 32.8375 108.64 33.0503 108.637 33.1556C108.633 33.2609 108.62 33.416 108.608 33.5002C108.596 33.5844 108.596 33.6672 108.609 33.6844C108.621 33.7016 108.619 33.8384 108.605 33.9884C108.588 34.1608 108.601 34.3014 108.64 34.3703C108.673 34.4303 108.692 34.5271 108.681 34.5854C108.67 34.6436 108.678 34.7141 108.698 34.7418C108.718 34.7696 108.719 34.8466 108.701 34.9131C108.683 34.9796 108.684 35.0565 108.704 35.0839C108.733 35.1237 108.744 35.1193 108.758 35.0622C108.773 35.0009 108.779 35.0058 108.796 35.0963C108.808 35.1545 108.796 35.2077 108.77 35.2144C108.703 35.232 108.748 35.3616 108.828 35.3827C108.907 35.4034 108.954 35.5283 108.885 35.533C108.859 35.5348 108.849 35.5503 108.861 35.5676C108.874 35.5849 108.899 35.5973 108.917 35.5952C108.936 35.5932 108.927 35.6008 108.897 35.6122C108.868 35.6237 108.846 35.6601 108.848 35.6931C108.854 35.7834 108.881 35.8061 108.916 35.7511C108.963 35.6787 109.09 35.901 109.051 35.9866C109.012 36.0727 109.072 36.1548 109.21 36.2034C109.272 36.2254 109.293 36.2435 109.259 36.2458C109.224 36.2482 109.202 36.2762 109.205 36.3143C109.21 36.3961 109.242 36.4423 109.26 36.3964C109.268 36.377 109.299 36.4084 109.329 36.4661C109.364 36.5317 109.398 36.5608 109.422 36.5437C109.445 36.5268 109.47 36.5471 109.487 36.5974C109.502 36.6419 109.545 36.6866 109.584 36.6968C109.622 36.7069 109.656 36.737 109.658 36.7636C109.66 36.7903 109.685 36.7955 109.713 36.7752C109.74 36.7549 109.774 36.7581 109.787 36.7823C109.85 36.8963 109.884 36.907 109.946 36.8324C109.98 36.7906 110.026 36.7639 110.048 36.7729C110.104 36.7962 110.131 36.9187 110.081 36.9221C110.007 36.9272 110.08 36.9836 110.21 37.0215C110.356 37.0639 110.423 37.0383 110.336 36.974C110.289 36.9396 110.291 36.9352 110.342 36.9529C110.377 36.9652 110.412 36.9965 110.42 37.0225C110.427 37.0486 110.481 37.0755 110.54 37.0823C110.599 37.0892 110.662 37.115 110.68 37.1397C110.698 37.1644 110.778 37.1696 110.858 37.1511C110.938 37.1327 111.007 37.1309 111.012 37.1471C111.018 37.1633 111.03 37.1725 111.04 37.1676C111.102 37.1362 111.26 37.139 111.262 37.1715C111.266 37.2166 111.366 37.197 111.452 37.1345C111.485 37.111 111.541 37.1144 111.578 37.142C111.615 37.1696 111.652 37.1764 111.66 37.1573C111.668 37.1382 111.731 37.1251 111.801 37.1283C111.87 37.1315 111.943 37.1102 111.961 37.0811C111.983 37.0477 112.021 37.0467 112.063 37.0784C112.105 37.1094 112.143 37.1088 112.164 37.0769C112.182 37.0485 112.225 37.0266 112.259 37.0282C112.334 37.0317 112.655 36.86 112.96 36.6534C113.109 36.5531 113.204 36.5107 113.245 36.5266C113.296 36.5463 113.307 36.5336 113.308 36.4539C113.309 36.4007 113.323 36.3746 113.338 36.3956C113.353 36.4167 113.381 36.423 113.399 36.4096C113.418 36.3962 113.411 36.3759 113.383 36.3644C113.352 36.3512 113.354 36.3423 113.39 36.3399C113.421 36.3378 113.455 36.2919 113.467 36.2351C113.478 36.1767 113.498 36.1497 113.514 36.1712C113.529 36.1916 113.527 36.2187 113.509 36.2314C113.492 36.2441 113.488 36.2689 113.501 36.2866C113.514 36.3043 113.554 36.2975 113.59 36.2714C113.626 36.2453 113.636 36.2159 113.612 36.206C113.539 36.1753 113.552 36.0901 113.63 36.0957C113.681 36.0994 113.71 36.0777 113.741 36.0127C113.764 35.9643 113.785 35.9455 113.787 35.9709C113.794 36.0604 113.905 35.9859 113.915 35.8847C113.927 35.7658 113.97 35.7193 113.992 35.8011C114.005 35.8475 114.033 35.8304 114.153 35.7043C114.234 35.62 114.305 35.5291 114.313 35.5024C114.32 35.4756 114.389 35.3952 114.466 35.3236C114.543 35.252 114.613 35.1683 114.622 35.1376C114.638 35.0775 114.807 34.8252 114.858 34.7852C114.875 34.7718 114.897 34.7417 114.906 34.7183C114.916 34.6949 114.964 34.6311 115.012 34.5764C115.061 34.5218 115.094 34.4508 115.085 34.4187C115.076 34.3866 115.087 34.3512 115.11 34.3401C115.177 34.3064 115.366 34.0883 115.383 34.0241C115.392 33.991 115.382 33.9569 115.362 33.9482C115.341 33.9396 115.352 33.9252 115.386 33.9162C115.42 33.9072 115.454 33.86 115.462 33.8112C115.469 33.7624 115.494 33.7212 115.517 33.7197C115.572 33.716 115.646 33.557 115.645 33.4483C115.644 33.4009 115.669 33.3459 115.701 33.3261C115.733 33.3064 115.781 33.2327 115.807 33.1623C115.833 33.092 115.88 33.0085 115.912 32.9768C115.944 32.9452 115.969 32.8996 115.967 32.8755C115.962 32.8201 116.14 32.4469 116.159 32.4727C116.167 32.4832 116.181 32.4585 116.191 32.4177C116.201 32.377 116.195 32.3374 116.177 32.3298C116.158 32.3221 116.151 32.2828 116.162 32.2423C116.172 32.2019 116.163 32.1616 116.142 32.1529C116.121 32.1441 116.117 32.1271 116.134 32.1151C116.15 32.103 116.147 32.0523 116.127 32.0024C116.107 31.9525 116.106 31.8868 116.126 31.8565C116.146 31.8247 116.163 31.8208 116.165 31.8471C116.167 31.8724 116.203 31.8703 116.244 31.8424C116.285 31.8145 116.306 31.8122 116.291 31.8372C116.275 31.8622 116.268 31.9223 116.275 31.9709C116.288 32.0576 116.289 32.057 116.336 31.9363C116.49 31.5377 116.501 31.4261 116.392 31.4078C116.303 31.393 116.318 31.3474 116.421 31.32C116.481 31.3041 116.543 31.27 116.56 31.2442C116.601 31.1798 116.53 31.0905 116.471 31.1332C116.445 31.1522 116.414 31.1552 116.403 31.14C116.376 31.1032 116.569 31.0136 116.626 31.036C116.677 31.056 116.771 30.8454 116.733 30.794C116.703 30.7528 116.618 30.8157 116.623 30.8754C116.627 30.9298 116.575 30.9762 116.549 30.9407C116.539 30.9272 116.539 30.8502 116.548 30.7695C116.565 30.6219 116.636 30.5262 116.682 30.5896C116.696 30.6084 116.687 30.625 116.664 30.6267C116.598 30.6311 116.619 30.6994 116.687 30.7067C116.767 30.7153 116.82 30.672 116.833 30.5876C116.841 30.5324 116.832 30.5267 116.788 30.5593C116.744 30.591 116.725 30.5803 116.701 30.5114C116.684 30.4627 116.678 30.4032 116.687 30.3794C116.697 30.3555 116.68 30.3261 116.652 30.3141C116.614 30.2983 116.623 30.2845 116.682 30.2649C116.733 30.2483 116.756 30.2238 116.74 30.2018C116.722 30.1778 116.738 30.163 116.787 30.1576C116.917 30.143 116.956 30.0473 116.883 29.9187C116.833 29.8304 116.808 29.8109 116.786 29.8447C116.77 29.8701 116.746 29.8768 116.734 29.8597C116.721 29.8425 116.69 29.8434 116.665 29.8617C116.64 29.8799 116.596 29.8842 116.567 29.8712C116.539 29.8582 116.535 29.8498 116.559 29.8525C116.583 29.8553 116.609 29.8275 116.619 29.7908C116.631 29.7394 116.644 29.7366 116.675 29.7789C116.697 29.8093 116.728 29.8144 116.744 29.7903C116.76 29.7663 116.758 29.7337 116.741 29.7178C116.695 29.677 116.836 29.6188 116.939 29.6359C117.056 29.6554 117.083 29.6279 116.97 29.6034C116.92 29.5925 116.868 29.5693 116.855 29.552C116.841 29.5347 116.797 29.5376 116.756 29.5584C116.696 29.5888 116.683 29.582 116.686 29.5231C116.691 29.442 116.78 29.3578 116.785 29.429C116.791 29.4969 116.984 29.4071 116.995 29.3314C117.003 29.2822 116.99 29.2679 116.943 29.2711C116.895 29.2744 116.878 29.2544 116.867 29.1806C116.86 29.1285 116.867 29.0759 116.884 29.0637C116.929 29.0315 116.963 29.0926 116.93 29.1456C116.909 29.1796 116.92 29.1906 116.975 29.1904C117.073 29.1898 117.08 29.1818 117.104 29.0535C117.118 28.9801 117.102 28.9228 117.058 28.8863C117.006 28.8431 116.991 28.8451 116.992 28.8952C116.993 28.9466 116.989 28.948 116.972 28.902C116.957 28.8625 116.988 28.8182 117.072 28.7614C117.15 28.7092 117.172 28.6801 117.133 28.6828C117.084 28.6861 117.076 28.6619 117.093 28.5678C117.106 28.5021 117.136 28.4471 117.161 28.4454C117.231 28.4406 117.199 28.4188 117.078 28.3898C117.018 28.3754 116.953 28.3753 116.933 28.3896C116.913 28.4039 116.886 28.4007 116.873 28.3824C116.856 28.3594 116.875 28.3455 116.934 28.3378C117.064 28.3208 117.07 28.3029 116.98 28.2104C116.931 28.1604 116.916 28.1242 116.942 28.1224C116.968 28.1207 116.955 28.09 116.911 28.0484C116.858 27.9978 116.851 27.9733 116.889 27.9634C116.952 27.9469 116.999 27.6884 116.951 27.6224C116.932 27.597 116.937 27.5652 116.96 27.5519C116.984 27.5385 116.998 27.509 116.992 27.4863C116.986 27.4637 117.01 27.3969 117.045 27.338C117.081 27.2791 117.09 27.2227 117.066 27.2126C116.987 27.1798 117.008 27.1022 117.098 27.0903C117.147 27.0838 117.179 27.0623 117.177 27.0368C117.175 27.0134 117.152 27.001 117.126 27.0092C117.096 27.0186 117.089 26.9736 117.108 26.8897C117.127 26.8044 117.117 26.7413 117.081 26.7177C117.03 26.6846 117.034 26.6815 117.108 26.6911C117.167 26.6986 117.187 26.7168 117.174 26.7499C117.161 26.7811 117.18 26.7912 117.227 26.7788C117.269 26.768 117.304 26.7301 117.308 26.6913C117.314 26.6379 117.31 26.6351 117.291 26.6785C117.273 26.7182 117.257 26.7144 117.234 26.6652C117.216 26.6242 117.228 26.5841 117.264 26.5662C117.33 26.5338 117.309 26.4708 117.233 26.4759C117.179 26.4797 117.16 26.3828 117.181 26.2089C117.189 26.1434 117.182 26.0723 117.167 26.0509C117.151 26.0295 117.154 26.0146 117.173 26.0177C117.207 26.0233 117.242 25.888 117.217 25.8524C117.209 25.8423 117.182 25.8496 117.156 25.8686C117.13 25.8876 117.096 25.8871 117.082 25.8675C117.068 25.8479 117.083 25.8248 117.116 25.8162C117.162 25.8042 117.156 25.7758 117.093 25.6944C117.047 25.636 117.007 25.5343 117.003 25.4685C116.999 25.4026 116.98 25.326 116.96 25.2983C116.94 25.2705 116.936 25.2279 116.952 25.2035C116.993 25.139 116.865 24.9488 116.808 24.9902C116.781 25.01 116.756 24.9985 116.746 24.9615C116.737 24.9277 116.749 24.8859 116.773 24.8687C116.826 24.8299 116.807 24.675 116.741 24.6098C116.714 24.5831 116.708 24.5462 116.728 24.5277C116.748 24.5093 116.777 24.482 116.793 24.4671C116.809 24.4523 116.805 24.4173 116.785 24.3895C116.738 24.3247 116.586 24.2963 116.605 24.356C116.614 24.3815 116.568 24.3957 116.494 24.391C116.395 24.3846 116.37 24.3685 116.378 24.315C116.386 24.2611 116.4 24.2551 116.447 24.2859C116.49 24.3142 116.524 24.3029 116.575 24.2439C116.687 24.1139 116.684 24.0172 116.564 23.8512C116.467 23.718 116.462 23.695 116.524 23.6624C116.592 23.6259 116.592 23.6252 116.497 23.6208C116.444 23.6183 116.403 23.6011 116.405 23.5825C116.408 23.5639 116.368 23.5213 116.315 23.4878C116.262 23.4544 116.176 23.3614 116.122 23.2811C116.068 23.2 116.001 23.1366 115.972 23.1386C115.941 23.1407 115.955 23.1065 116.005 23.0576C116.052 23.0111 116.092 22.988 116.093 23.0062C116.095 23.0244 116.124 23.0322 116.157 23.0234C116.201 23.0119 116.202 22.9853 116.16 22.928C116.128 22.8843 116.086 22.8606 116.065 22.8754C116.045 22.8902 116.031 22.8861 116.034 22.8663C116.037 22.8466 115.98 22.8228 115.907 22.8135C115.834 22.8042 115.76 22.7771 115.743 22.7532C115.725 22.7293 115.681 22.7049 115.645 22.6988C115.594 22.6903 115.587 22.6817 115.617 22.6602C115.638 22.645 115.64 22.6124 115.622 22.5877C115.586 22.5374 115.469 22.556 115.445 22.6159C115.436 22.6374 115.418 22.6396 115.404 22.6209C115.391 22.6021 115.285 22.571 115.169 22.5517C114.921 22.5104 114.791 22.4436 114.903 22.4148C115.023 22.3839 115.039 22.3696 115.022 22.3102C115.01 22.2705 114.994 22.2707 114.968 22.3109C114.92 22.3858 114.607 22.3569 114.534 22.2708C114.489 22.2177 114.495 22.2009 114.572 22.1706C114.669 22.1318 114.655 22.07 114.537 22.0222C114.464 21.9928 114.317 22.0579 114.351 22.1045C114.364 22.1222 114.396 22.121 114.422 22.102C114.448 22.083 114.48 22.0819 114.493 22.0996C114.506 22.1174 114.474 22.1629 114.421 22.2009C114.349 22.2537 114.315 22.2554 114.281 22.2083C114.254 22.1707 114.187 22.1569 114.11 22.173C114.041 22.1875 113.976 22.1875 113.965 22.1731C113.955 22.1587 113.938 22.1662 113.929 22.1898C113.919 22.2134 113.902 22.2198 113.891 22.2041C113.863 22.1659 113.445 22.2453 113.438 22.29C113.435 22.3093 113.401 22.3293 113.361 22.3345C113.209 22.3545 113.011 22.4709 112.449 22.8718C112.128 23.1004 111.864 23.295 111.863 23.3043ZM116.305 24.0288C116.309 24.0832 116.419 24.0633 116.464 23.9998C116.484 23.9719 116.46 23.9611 116.398 23.9693C116.334 23.9776 116.302 23.9979 116.305 24.0288ZM117.076 25.0119C117.087 25.0519 117.106 25.0507 117.141 25.0077C117.21 24.9228 117.197 24.8555 117.122 24.91C117.088 24.9347 117.067 24.9806 117.076 25.0119ZM117.212 25.1692C117.208 25.2134 117.181 25.2559 117.152 25.2636C117.122 25.2713 117.106 25.3048 117.115 25.3381C117.124 25.3729 117.16 25.391 117.199 25.3808C117.237 25.3709 117.261 25.3419 117.252 25.3159C117.244 25.29 117.263 25.2501 117.295 25.2272C117.342 25.1926 117.348 25.0994 117.307 25.0422C117.283 25.0096 117.219 25.096 117.212 25.1692ZM117.185 25.4877C117.215 25.4804 117.241 25.4593 117.244 25.441C117.247 25.4227 117.223 25.4286 117.19 25.4543C117.154 25.4827 117.152 25.4958 117.185 25.4877ZM117.168 26.8522C117.189 26.8823 117.228 26.9056 117.253 26.9039C117.311 26.8999 117.281 26.8573 117.195 26.8234C117.138 26.801 117.134 26.805 117.168 26.8522ZM117.192 27.4498C117.208 27.5081 117.214 27.5092 117.223 27.4549C117.229 27.4173 117.22 27.3842 117.203 27.3814C117.186 27.3786 117.181 27.4094 117.192 27.4498ZM116.863 27.8014C116.865 27.827 116.881 27.8375 116.898 27.8248C116.916 27.8122 116.928 27.7809 116.926 27.7554C116.924 27.7298 116.908 27.7193 116.891 27.732C116.873 27.7446 116.861 27.7759 116.863 27.8014ZM117.227 27.664C117.256 27.7004 117.269 27.7025 117.26 27.6695C117.253 27.6396 117.231 27.6127 117.213 27.6096C117.195 27.6066 117.201 27.631 117.227 27.664ZM117.097 28.0244C117.11 28.0421 117.142 28.0411 117.168 28.0221C117.194 28.0031 117.205 27.973 117.193 27.9553C117.18 27.9376 117.148 27.9387 117.122 27.9577C117.095 27.9767 117.084 28.0067 117.097 28.0244ZM117.086 28.2289C117.131 28.3423 117.19 28.3169 117.165 28.1952C117.147 28.1112 117.134 28.0962 117.099 28.1212C117.076 28.1384 117.07 28.1869 117.086 28.2289ZM116.622 29.2081C116.624 29.2354 116.638 29.2596 116.652 29.262C116.667 29.2644 116.671 29.2379 116.661 29.2031C116.642 29.1308 116.616 29.1341 116.622 29.2081ZM116.877 29.7538C116.879 29.7776 116.901 29.7956 116.927 29.7939C116.953 29.7921 116.958 29.7681 116.938 29.7405C116.897 29.6839 116.872 29.6894 116.877 29.7538ZM116.265 31.5672C116.222 31.6138 116.226 31.6202 116.303 31.633C116.396 31.6485 116.422 31.6082 116.355 31.5516C116.331 31.5318 116.291 31.5389 116.265 31.5672ZM115.839 32.5403C115.842 32.5704 115.849 32.576 115.853 32.5527C115.858 32.5294 115.899 32.5219 115.944 32.5359C116.018 32.5589 116.023 32.5561 115.989 32.5078C115.943 32.4413 115.83 32.4657 115.839 32.5403ZM115.459 33.3498C115.462 33.3854 115.471 33.3843 115.486 33.3465C115.503 33.3043 115.514 33.3088 115.529 33.3637C115.546 33.4264 115.552 33.4261 115.568 33.3621C115.578 33.3204 115.578 33.2736 115.566 33.2581C115.536 33.2167 115.454 33.2872 115.459 33.3498ZM105.687 39.3907C105.642 39.4574 105.571 39.539 105.528 39.5719C105.449 39.6328 105.276 39.8666 105.216 39.9939C105.198 40.0326 105.13 40.156 105.064 40.2682C104.868 40.6058 104.755 40.9551 104.736 41.2826C104.726 41.4531 104.728 41.6072 104.741 41.625C104.754 41.6429 104.745 41.6588 104.721 41.6604C104.696 41.6621 104.703 41.733 104.736 41.8182C104.769 41.9033 104.784 41.9816 104.769 41.9922C104.755 42.0028 104.766 42.0613 104.794 42.1221C104.822 42.183 104.825 42.242 104.8 42.2533C104.775 42.2645 104.774 42.3117 104.798 42.358C104.826 42.4118 104.848 42.4254 104.86 42.3957C104.871 42.3701 104.895 42.3706 104.914 42.3967C104.978 42.4849 104.982 42.5688 104.924 42.5841C104.886 42.5942 104.883 42.6217 104.916 42.667C104.943 42.7043 104.979 42.7245 104.997 42.7118C105.014 42.6991 105.049 42.7173 105.075 42.7522C105.107 42.7973 105.102 42.8205 105.055 42.8328C105.001 42.8469 105.003 42.8569 105.066 42.8879C105.108 42.9087 105.171 42.9767 105.206 43.0391C105.253 43.1219 105.283 43.1433 105.317 43.1183C105.343 43.0993 105.385 43.1135 105.412 43.1508C105.439 43.1873 105.497 43.2353 105.542 43.2574C105.587 43.2795 105.666 43.3478 105.718 43.4091C105.77 43.4705 105.883 43.5533 105.969 43.5931C106.055 43.6329 106.14 43.686 106.158 43.7112C106.176 43.7363 106.218 43.7554 106.25 43.7536C106.282 43.7518 106.378 43.7856 106.462 43.8288C106.546 43.8719 106.638 43.9014 106.667 43.8944C106.695 43.8874 106.728 43.8953 106.74 43.912C106.796 43.9892 107.502 44.0474 107.673 43.9889C107.724 43.9715 107.819 43.9636 107.883 43.9714C107.989 43.9843 108 43.978 108.013 43.8976C108.022 43.8361 108.061 43.7934 108.142 43.7554C108.286 43.6884 108.314 43.6898 108.284 43.7629C108.265 43.8101 108.272 43.8193 108.325 43.8165C108.409 43.8119 108.669 43.6334 108.644 43.5978C108.624 43.5706 108.544 43.6068 108.471 43.6766C108.451 43.6954 108.424 43.6955 108.41 43.6771C108.384 43.6406 108.517 43.5386 108.644 43.4981C108.687 43.4842 108.738 43.4947 108.758 43.5212C108.794 43.5718 108.964 43.4607 109.034 43.3403C109.053 43.3079 109.101 43.2618 109.142 43.2378C109.183 43.2138 109.235 43.1443 109.258 43.0834C109.281 43.0224 109.329 42.9597 109.366 42.9441C109.402 42.9285 109.466 42.8413 109.506 42.7505C109.547 42.6596 109.588 42.5803 109.597 42.5744C109.646 42.5415 109.735 42.3649 109.716 42.3386C109.704 42.3217 109.719 42.2744 109.749 42.2335C109.854 42.0917 109.89 41.9107 109.83 41.8276C109.798 41.7835 109.791 41.7461 109.816 41.7445C109.84 41.7428 109.867 41.7686 109.876 41.8017C109.911 41.9283 109.927 41.8285 109.897 41.6748C109.879 41.5861 109.878 41.4634 109.895 41.4022C109.929 41.2759 109.882 41.1819 109.81 41.2336C109.749 41.2779 109.716 41.2305 109.708 41.0885C109.702 40.9804 109.613 40.835 109.364 40.5284C109.293 40.4412 109.264 40.376 109.283 40.3494C109.306 40.3168 109.295 40.3031 109.234 40.2863C109.167 40.268 109.166 40.2621 109.227 40.2457C109.266 40.2351 109.287 40.2124 109.275 40.1953C109.262 40.1782 109.238 40.1745 109.221 40.1872C109.203 40.1998 109.163 40.174 109.13 40.1297C109.098 40.0854 109.086 40.0392 109.103 40.0269C109.12 40.0147 109.108 39.9844 109.077 39.9598C109.046 39.9351 109.061 39.9353 109.11 39.9601C109.213 40.0117 109.271 39.9894 109.219 39.918C109.2 39.8914 109.205 39.8541 109.232 39.8351C109.292 39.7913 109.28 39.7761 109.143 39.7231C109.059 39.6907 109.034 39.6644 109.042 39.6167C109.053 39.5421 109.018 39.4807 108.996 39.5359C108.987 39.5569 108.951 39.5496 108.915 39.5199C108.865 39.4789 108.865 39.4618 108.912 39.4493C108.957 39.4375 108.959 39.4224 108.918 39.3957C108.887 39.3752 108.851 39.3443 108.839 39.327C108.826 39.3097 108.808 39.3149 108.798 39.3385C108.789 39.3621 108.77 39.3666 108.757 39.3485C108.744 39.3303 108.75 39.2798 108.771 39.2362C108.804 39.1668 108.796 39.1493 108.708 39.0963C108.602 39.0336 108.282 38.8965 108.229 38.8917C108.212 38.8901 108.083 38.8507 107.941 38.8041C107.686 38.7202 107.324 38.6634 107.275 38.6995C107.261 38.7098 107.181 38.7121 107.098 38.7046C107.016 38.6972 106.918 38.7107 106.883 38.7347C106.783 38.8011 106.56 38.8556 106.533 38.8204C106.519 38.8031 106.468 38.8156 106.419 38.8481C106.37 38.8806 106.32 38.9098 106.309 38.9129C106.213 38.94 105.752 39.2935 105.687 39.3907ZM108.62 39.1814C108.617 39.2016 108.625 39.2332 108.638 39.2515C108.653 39.2717 108.666 39.259 108.672 39.2194C108.678 39.1835 108.67 39.1519 108.654 39.1493C108.638 39.1467 108.623 39.1612 108.62 39.1814ZM109.514 40.9862C109.542 41.0226 109.555 41.0247 109.547 40.9917C109.539 40.9618 109.518 40.9349 109.5 40.9318C109.481 40.9288 109.488 40.9532 109.514 40.9862ZM109.806 40.9215C109.835 40.9579 109.848 40.9601 109.839 40.9271C109.831 40.8972 109.81 40.8702 109.792 40.8672C109.774 40.8641 109.78 40.8886 109.806 40.9215Z" fill="white"/>
<path opacity="0.7" fill-rule="evenodd" clip-rule="evenodd" d="M42.587 199.096C42.5885 199.105 42.5213 199.269 42.4377 199.46C42.2499 199.888 42.2597 199.861 42.2442 199.988C42.2335 200.076 42.2271 200.084 42.2057 200.038C42.185 199.993 42.1818 199.996 42.1891 200.054C42.1941 200.093 42.1795 200.151 42.1567 200.183C42.1339 200.214 42.1296 200.25 42.1473 200.263C42.165 200.276 42.1693 200.296 42.157 200.307C42.1446 200.318 42.1212 200.382 42.105 200.451C42.0887 200.519 42.0547 200.62 42.0294 200.675C42.0041 200.731 41.9904 200.793 41.9989 200.814C42.0075 200.834 41.994 200.879 41.9688 200.914C41.9436 200.949 41.9289 201.022 41.936 201.078C41.9431 201.133 41.9307 201.292 41.9084 201.431C41.8861 201.57 41.8789 201.71 41.8925 201.742C41.9061 201.773 41.8994 201.806 41.8777 201.815C41.8181 201.839 41.8079 202.004 41.8636 202.045C41.8906 202.065 41.8949 202.088 41.8733 202.097C41.7976 202.127 41.7761 202.321 41.843 202.37C41.9106 202.419 41.8971 202.485 41.8242 202.462C41.8004 202.454 41.7872 202.494 41.7933 202.555C41.7991 202.614 41.8004 202.702 41.7962 202.75C41.792 202.799 41.8083 202.847 41.8324 202.858C41.8606 202.87 41.8522 202.894 41.809 202.925C41.7624 202.959 41.756 202.985 41.7882 203.009C41.8139 203.027 41.8261 203.074 41.8152 203.113C41.7714 203.27 41.7706 203.456 41.8135 203.488C41.8385 203.506 41.8425 203.574 41.8222 203.639C41.7815 203.769 41.7899 203.883 41.8429 203.921C41.8618 203.935 41.8692 203.957 41.8594 203.971C41.8125 204.035 41.8928 205.211 41.98 205.738C42.0005 205.862 42.0119 205.984 42.0052 206.008C41.9986 206.032 42.0212 206.174 42.0555 206.323C42.0897 206.472 42.1061 206.587 42.0918 206.577C42.0775 206.568 42.0824 206.629 42.1028 206.712C42.1232 206.796 42.1278 206.839 42.1128 206.808C42.0946 206.77 42.0801 206.77 42.0686 206.807C42.0591 206.837 42.0715 206.876 42.096 206.894C42.1206 206.912 42.1333 206.972 42.1244 207.027C42.1154 207.082 42.1229 207.134 42.1409 207.141C42.1589 207.149 42.1658 207.196 42.1561 207.246C42.1464 207.296 42.1489 207.345 42.1616 207.354C42.1915 207.376 42.2254 207.603 42.2153 207.714C42.211 207.761 42.2283 207.822 42.2538 207.849C42.3271 207.928 42.3554 208.141 42.3052 208.236C42.2799 208.283 42.2745 208.332 42.2931 208.343C42.3358 208.37 42.3571 208.492 42.3264 208.534C42.3137 208.552 42.3286 208.6 42.3595 208.641C42.3904 208.682 42.4361 208.842 42.4611 208.997C42.4861 209.152 42.5305 209.361 42.5596 209.462C42.5888 209.564 42.6244 209.715 42.6388 209.799C42.6532 209.883 42.679 209.961 42.6962 209.974C42.7133 209.986 42.7538 210.117 42.7862 210.264C42.8234 210.433 42.879 210.563 42.9373 210.617C42.988 210.663 43.0356 210.75 43.0432 210.808C43.0508 210.867 43.0797 210.932 43.1074 210.952C43.1351 210.972 43.1603 211.045 43.1634 211.114C43.1664 211.183 43.1914 211.256 43.2188 211.276C43.2585 211.305 43.2676 211.297 43.2634 211.238C43.2589 211.175 43.2657 211.178 43.3105 211.259C43.3392 211.311 43.3444 211.365 43.3219 211.379C43.2636 211.417 43.3464 211.526 43.4295 211.521C43.5105 211.517 43.5936 211.621 43.5295 211.647C43.5057 211.657 43.5004 211.675 43.5176 211.687C43.5349 211.7 43.5629 211.704 43.5798 211.696C43.5967 211.688 43.5905 211.698 43.5659 211.718C43.5414 211.738 43.5314 211.78 43.5437 211.811C43.5775 211.895 43.61 211.908 43.6267 211.845C43.6486 211.761 43.838 211.934 43.8273 212.027C43.8167 212.121 43.8993 212.181 44.0456 212.184C44.1118 212.186 44.1375 212.197 44.1058 212.209C44.0732 212.222 44.0605 212.256 44.0748 212.291C44.1055 212.367 44.1495 212.402 44.153 212.352C44.1544 212.332 44.1937 212.352 44.2404 212.397C44.2934 212.449 44.3354 212.466 44.3524 212.442C44.3694 212.419 44.3989 212.431 44.4305 212.474C44.4585 212.511 44.5139 212.54 44.5536 212.538C44.5934 212.536 44.6343 212.554 44.6446 212.579C44.6549 212.604 44.6799 212.601 44.7003 212.573C44.7206 212.545 44.7537 212.538 44.7737 212.557C44.8682 212.646 44.9036 212.645 44.9396 212.555C44.9597 212.505 44.9953 212.465 45.0186 212.467C45.0787 212.472 45.1426 212.58 45.0964 212.599C45.0273 212.627 45.1145 212.658 45.25 212.654C45.4012 212.649 45.4573 212.604 45.3546 212.57C45.2997 212.551 45.2996 212.547 45.3538 212.548C45.3914 212.548 45.4343 212.567 45.4491 212.59C45.4639 212.613 45.5238 212.621 45.5822 212.61C45.6406 212.598 45.7086 212.603 45.7333 212.621C45.758 212.639 45.8356 212.619 45.9058 212.577C45.976 212.535 46.0416 212.512 46.0515 212.525C46.0615 212.539 46.076 212.544 46.0837 212.536C46.1336 212.487 46.284 212.441 46.2966 212.471C46.3139 212.513 46.4033 212.464 46.466 212.378C46.4895 212.345 46.5445 212.331 46.5883 212.346C46.632 212.361 46.669 212.356 46.6704 212.335C46.6718 212.315 46.728 212.283 46.7953 212.264C46.8626 212.246 46.9249 212.203 46.9337 212.17C46.9438 212.131 46.9794 212.119 47.0296 212.136C47.0788 212.152 47.1154 212.14 47.1251 212.103C47.1337 212.07 47.1678 212.036 47.2008 212.027C47.2728 212.008 47.5253 211.745 47.7519 211.454C47.8619 211.313 47.9391 211.244 47.9833 211.246C48.0379 211.249 48.0446 211.233 48.0213 211.157C48.0057 211.106 48.0103 211.077 48.0313 211.093C48.0524 211.108 48.0806 211.106 48.0941 211.087C48.1075 211.069 48.0944 211.051 48.0649 211.049C48.0307 211.046 48.0302 211.037 48.0636 211.024C48.093 211.012 48.1108 210.958 48.1042 210.9C48.0975 210.841 48.1082 210.809 48.1297 210.825C48.1501 210.84 48.1564 210.866 48.1438 210.884C48.1311 210.901 48.1352 210.926 48.1528 210.939C48.1705 210.952 48.2064 210.933 48.2325 210.897C48.2586 210.861 48.2591 210.83 48.2336 210.828C48.1542 210.821 48.1411 210.736 48.2167 210.717C48.2662 210.705 48.287 210.675 48.2965 210.604C48.3036 210.551 48.3173 210.527 48.3271 210.55C48.3616 210.633 48.4439 210.528 48.4223 210.429C48.397 210.312 48.4236 210.254 48.4701 210.325C48.4965 210.366 48.5183 210.34 48.5937 210.183C48.644 210.078 48.6841 209.97 48.6827 209.942C48.6813 209.915 48.7222 209.817 48.7736 209.725C48.8249 209.633 48.8657 209.532 48.8642 209.5C48.8613 209.438 48.9442 209.145 48.98 209.092C48.9919 209.074 49.0034 209.038 49.0053 209.013C49.0073 208.988 49.0331 208.912 49.0626 208.845C49.0921 208.778 49.1013 208.701 49.083 208.673C49.0648 208.645 49.0644 208.608 49.082 208.591C49.1356 208.538 49.2477 208.272 49.2445 208.206C49.2428 208.171 49.2232 208.142 49.2008 208.14C49.1785 208.138 49.1845 208.121 49.2142 208.102C49.244 208.083 49.2617 208.028 49.2537 207.979C49.2456 207.93 49.2565 207.883 49.2777 207.875C49.3287 207.854 49.3508 207.68 49.3155 207.577C49.3001 207.532 49.3074 207.472 49.3317 207.444C49.356 207.415 49.3784 207.33 49.3815 207.255C49.3846 207.18 49.4041 207.086 49.4246 207.046C49.4452 207.006 49.4545 206.955 49.4452 206.933C49.4238 206.882 49.4781 206.472 49.5038 206.49C49.5143 206.498 49.5204 206.47 49.5175 206.428C49.5145 206.386 49.4959 206.351 49.4762 206.349C49.4565 206.348 49.4379 206.312 49.4349 206.271C49.432 206.229 49.4111 206.194 49.3884 206.192C49.3658 206.19 49.3572 206.175 49.3692 206.158C49.3813 206.142 49.3628 206.094 49.3281 206.053C49.2935 206.012 49.2726 205.95 49.2819 205.915C49.2915 205.878 49.3061 205.869 49.3163 205.894C49.326 205.917 49.3591 205.904 49.3898 205.865C49.4205 205.826 49.4399 205.817 49.4329 205.845C49.4259 205.874 49.4378 205.933 49.4594 205.977C49.498 206.056 49.4988 206.055 49.506 205.926C49.5295 205.499 49.5063 205.389 49.3961 205.406C49.3069 205.419 49.3073 205.371 49.397 205.313C49.4489 205.28 49.4978 205.228 49.5056 205.198C49.5252 205.124 49.4295 205.061 49.3867 205.12C49.3677 205.146 49.3397 205.159 49.3244 205.148C49.2876 205.121 49.4431 204.976 49.5047 204.98C49.5595 204.983 49.5831 204.754 49.5318 204.717C49.4906 204.687 49.4288 204.773 49.4518 204.828C49.4727 204.878 49.4373 204.939 49.4018 204.913C49.3884 204.903 49.3641 204.83 49.3479 204.75C49.3182 204.605 49.3564 204.492 49.4198 204.538C49.4385 204.552 49.4358 204.57 49.4139 204.579C49.3532 204.603 49.3933 204.662 49.4609 204.648C49.5397 204.631 49.5768 204.574 49.5629 204.489C49.5538 204.434 49.5434 204.432 49.5108 204.477C49.4791 204.52 49.4575 204.516 49.4138 204.458C49.383 204.416 49.3588 204.362 49.3601 204.336C49.3614 204.311 49.337 204.288 49.3059 204.285C49.2652 204.282 49.2691 204.266 49.32 204.229C49.3633 204.197 49.3768 204.167 49.3548 204.151C49.3309 204.134 49.3415 204.115 49.3864 204.095C49.5056 204.041 49.5127 203.938 49.404 203.838C49.3294 203.769 49.2989 203.758 49.2886 203.797C49.2809 203.827 49.2606 203.84 49.2435 203.828C49.2264 203.815 49.1974 203.826 49.1791 203.851C49.1608 203.876 49.1203 203.894 49.0891 203.89C49.0578 203.886 49.0515 203.88 49.075 203.875C49.0985 203.87 49.1155 203.835 49.1128 203.798C49.1091 203.745 49.1206 203.738 49.1628 203.769C49.1931 203.791 49.224 203.786 49.2318 203.759C49.2396 203.731 49.2281 203.7 49.2064 203.691C49.1507 203.666 49.2667 203.567 49.3696 203.552C49.4876 203.534 49.5044 203.499 49.3896 203.511C49.3385 203.516 49.2819 203.51 49.2639 203.498C49.2458 203.485 49.2044 203.502 49.172 203.534C49.1245 203.582 49.1095 203.579 49.0946 203.522C49.074 203.444 49.1323 203.336 49.1598 203.402C49.1859 203.465 49.3418 203.32 49.3293 203.244C49.3212 203.195 49.305 203.186 49.261 203.203C49.216 203.221 49.1939 203.208 49.161 203.141C49.1379 203.093 49.1289 203.041 49.1412 203.024C49.1734 202.98 49.2246 203.027 49.2099 203.088C49.2004 203.127 49.2143 203.134 49.2661 203.117C49.3591 203.086 49.3639 203.076 49.3472 202.946C49.3376 202.872 49.3049 202.823 49.2516 202.802C49.1886 202.777 49.1752 202.783 49.1918 202.831C49.2087 202.879 49.2051 202.882 49.1743 202.843C49.1477 202.81 49.1643 202.758 49.2268 202.679C49.2843 202.605 49.2967 202.57 49.2602 202.585C49.2144 202.603 49.199 202.583 49.1868 202.488C49.1782 202.422 49.1903 202.36 49.2137 202.351C49.279 202.324 49.2413 202.314 49.1176 202.323C49.0558 202.328 48.9935 202.348 48.9791 202.368C48.9648 202.388 48.938 202.393 48.9197 202.38C48.8968 202.363 48.9106 202.344 48.9643 202.318C49.0823 202.262 49.0829 202.243 48.9688 202.183C48.9071 202.15 48.8811 202.121 48.9055 202.111C48.9298 202.101 48.9082 202.076 48.8534 202.05C48.7868 202.018 48.7731 201.997 48.8059 201.976C48.8606 201.941 48.8254 201.681 48.7595 201.633C48.7341 201.614 48.7284 201.583 48.7467 201.563C48.765 201.543 48.7696 201.51 48.7569 201.49C48.7441 201.471 48.7463 201.4 48.7617 201.333C48.7771 201.266 48.7684 201.21 48.7424 201.207C48.6576 201.2 48.6529 201.12 48.7349 201.081C48.7801 201.06 48.804 201.029 48.7942 201.006C48.7851 200.984 48.7592 200.979 48.7365 200.995C48.7108 201.014 48.6905 200.973 48.6824 200.887C48.6742 200.8 48.6454 200.743 48.6038 200.732C48.5458 200.716 48.5478 200.712 48.6217 200.698C48.6795 200.687 48.7043 200.698 48.7021 200.734C48.7 200.767 48.721 200.771 48.7622 200.745C48.7981 200.722 48.8196 200.675 48.8117 200.637C48.8009 200.584 48.7964 200.583 48.7914 200.63C48.7868 200.673 48.7702 200.675 48.7337 200.635C48.7032 200.601 48.7023 200.56 48.7314 200.531C48.7843 200.48 48.7443 200.427 48.674 200.455C48.6233 200.475 48.5753 200.389 48.5418 200.217C48.5291 200.152 48.5013 200.087 48.4799 200.071C48.4585 200.056 48.4564 200.041 48.4753 200.038C48.5091 200.033 48.5015 199.893 48.466 199.867C48.4559 199.86 48.432 199.875 48.413 199.901C48.3939 199.927 48.3624 199.937 48.3428 199.923C48.3232 199.909 48.3306 199.882 48.3591 199.864C48.399 199.838 48.385 199.813 48.2992 199.755C48.2377 199.714 48.1679 199.629 48.1442 199.568C48.1204 199.506 48.0783 199.439 48.0506 199.419C48.0229 199.399 48.0062 199.36 48.0135 199.332C48.033 199.258 47.853 199.116 47.8115 199.173C47.7917 199.2 47.7646 199.197 47.7436 199.165C47.7244 199.136 47.7227 199.092 47.74 199.068C47.7788 199.015 47.7128 198.874 47.6297 198.832C47.5956 198.815 47.5786 198.782 47.5919 198.758C47.6051 198.734 47.6245 198.699 47.635 198.68C47.6455 198.661 47.6313 198.629 47.6035 198.609C47.5387 198.562 47.386 198.582 47.4226 198.632C47.4383 198.654 47.3994 198.682 47.3271 198.7C47.231 198.725 47.2028 198.717 47.1935 198.664C47.1842 198.61 47.1958 198.6 47.2498 198.615C47.2996 198.628 47.329 198.607 47.3591 198.535C47.4254 198.377 47.3929 198.286 47.227 198.165C47.094 198.068 47.0823 198.048 47.1306 197.998C47.1847 197.942 47.1841 197.941 47.0924 197.967C47.0411 197.981 46.9967 197.977 46.9936 197.958C46.9905 197.94 46.9387 197.912 46.8784 197.896C46.8181 197.881 46.7068 197.819 46.6312 197.759C46.5548 197.699 46.4714 197.659 46.4439 197.67C46.4152 197.682 46.4179 197.645 46.4502 197.583C46.481 197.524 46.5119 197.49 46.519 197.507C46.526 197.524 46.5556 197.522 46.5847 197.503C46.6228 197.479 46.6154 197.453 46.5582 197.412C46.5145 197.38 46.4667 197.371 46.4519 197.391C46.4371 197.411 46.4223 197.412 46.4191 197.392C46.4158 197.372 46.354 197.367 46.2818 197.381C46.2096 197.395 46.131 197.392 46.1071 197.374C46.0833 197.357 46.034 197.347 45.9975 197.353C45.946 197.36 45.9374 197.354 45.9589 197.325C45.9741 197.304 45.9664 197.272 45.9418 197.254C45.8915 197.217 45.7859 197.271 45.7815 197.336C45.7798 197.359 45.7632 197.366 45.7445 197.353C45.7258 197.339 45.6153 197.342 45.4991 197.36C45.2504 197.397 45.1063 197.374 45.204 197.312C45.3087 197.245 45.3197 197.227 45.2848 197.175C45.2616 197.141 45.2459 197.147 45.2338 197.193C45.211 197.279 44.9045 197.348 44.8087 197.289C44.7496 197.252 44.7504 197.234 44.8137 197.182C44.8944 197.115 44.8615 197.06 44.7348 197.051C44.6566 197.046 44.537 197.153 44.5836 197.187C44.6011 197.2 44.6311 197.189 44.6501 197.163C44.6692 197.136 44.6992 197.126 44.7169 197.138C44.7346 197.151 44.7179 197.205 44.6798 197.257C44.627 197.329 44.596 197.341 44.549 197.307C44.5114 197.28 44.4436 197.287 44.3754 197.326C44.3139 197.362 44.2517 197.382 44.2373 197.371C44.2229 197.361 44.2097 197.373 44.2079 197.398C44.2061 197.424 44.1918 197.435 44.1761 197.424C44.138 197.396 43.7648 197.601 43.7722 197.645C43.7754 197.664 43.7486 197.694 43.7128 197.711C43.5742 197.777 43.4221 197.949 43.0107 198.504C42.7761 198.82 42.5854 199.087 42.587 199.096ZM47.0357 198.414C47.0567 198.464 47.1548 198.412 47.178 198.337C47.1883 198.305 47.1628 198.302 47.1058 198.329C47.0477 198.356 47.0238 198.385 47.0357 198.414ZM48.0724 199.111C48.0951 199.146 48.1131 199.139 48.1331 199.087C48.1727 198.985 48.1397 198.925 48.0851 199C48.0603 199.034 48.0546 199.084 48.0724 199.111ZM48.251 199.219C48.2608 199.262 48.248 199.311 48.2224 199.327C48.1968 199.343 48.1913 199.381 48.2102 199.409C48.2299 199.44 48.2698 199.446 48.3038 199.424C48.3366 199.403 48.3502 199.368 48.3342 199.346C48.3183 199.324 48.3241 199.28 48.3471 199.248C48.3817 199.201 48.3588 199.11 48.3017 199.069C48.2691 199.045 48.2346 199.147 48.251 199.219ZM48.3233 199.53C48.3493 199.514 48.368 199.486 48.365 199.467C48.362 199.449 48.3408 199.462 48.3178 199.497C48.2925 199.535 48.2946 199.548 48.3233 199.53ZM48.7281 200.833C48.7578 200.855 48.8015 200.865 48.8251 200.856C48.8795 200.834 48.8369 200.803 48.7447 200.797C48.6839 200.794 48.6816 200.799 48.7281 200.833ZM48.9357 201.394C48.969 201.445 48.9753 201.444 48.9666 201.389C48.9605 201.352 48.9417 201.323 48.9247 201.326C48.9077 201.328 48.9126 201.359 48.9357 201.394ZM48.731 201.83C48.7409 201.854 48.7593 201.859 48.772 201.841C48.7847 201.824 48.787 201.79 48.7772 201.767C48.7673 201.743 48.7489 201.738 48.7362 201.755C48.7235 201.773 48.7212 201.806 48.731 201.83ZM49.0351 201.587C49.0737 201.613 49.0868 201.611 49.0685 201.582C49.052 201.556 49.0234 201.537 49.0051 201.54C48.9867 201.542 49.0002 201.564 49.0351 201.587ZM49.0229 201.97C49.0406 201.983 49.0707 201.972 49.0897 201.946C49.1087 201.92 49.1098 201.888 49.0922 201.875C49.0745 201.862 49.0444 201.873 49.0254 201.899C49.0063 201.925 49.0052 201.957 49.0229 201.97ZM49.0757 202.168C49.1532 202.262 49.2014 202.219 49.1397 202.111C49.0971 202.037 49.0799 202.027 49.0548 202.061C49.0376 202.085 49.0469 202.133 49.0757 202.168ZM48.9364 203.242C48.9468 203.268 48.9673 203.287 48.9818 203.284C48.9962 203.282 48.9919 203.256 48.9721 203.226C48.931 203.163 48.9078 203.174 48.9364 203.242ZM49.3471 203.683C49.3563 203.705 49.3834 203.715 49.4074 203.705C49.4314 203.696 49.4285 203.671 49.4009 203.651C49.3444 203.61 49.3223 203.623 49.3471 203.683ZM49.3251 205.596C49.2989 205.654 49.3044 205.659 49.3814 205.647C49.4748 205.633 49.4867 205.587 49.4056 205.554C49.3773 205.542 49.3411 205.562 49.3251 205.596ZM49.2198 206.654C49.2323 206.681 49.2404 206.685 49.2377 206.661C49.235 206.637 49.2716 206.618 49.319 206.617C49.3966 206.616 49.4 206.612 49.353 206.576C49.2885 206.527 49.1887 206.585 49.2198 206.654ZM49.1084 207.541C49.1221 207.574 49.1304 207.57 49.1332 207.529C49.1364 207.484 49.1484 207.485 49.1796 207.532C49.2151 207.587 49.2208 207.585 49.2161 207.519C49.2131 207.476 49.1979 207.432 49.1824 207.42C49.1411 207.39 49.0842 207.483 49.1084 207.541ZM41.679 216.303C41.6569 216.381 41.614 216.48 41.5835 216.525C41.5272 216.607 41.435 216.883 41.417 217.023C41.4116 217.065 41.3849 217.203 41.3575 217.33C41.2753 217.712 41.2755 218.079 41.3582 218.397C41.4012 218.562 41.451 218.708 41.4688 218.721C41.4866 218.734 41.4828 218.752 41.4603 218.761C41.4377 218.77 41.4664 218.835 41.5239 218.906C41.5814 218.977 41.6198 219.046 41.6092 219.061C41.5985 219.076 41.6272 219.128 41.6727 219.177C41.7183 219.226 41.7389 219.282 41.7184 219.3C41.698 219.319 41.7117 219.364 41.749 219.4C41.7922 219.443 41.8179 219.449 41.8201 219.417C41.822 219.389 41.845 219.382 41.8711 219.401C41.9592 219.466 41.9897 219.544 41.9392 219.576C41.9057 219.598 41.9115 219.625 41.9568 219.658C41.9941 219.685 42.0349 219.693 42.0476 219.675C42.0603 219.658 42.0992 219.664 42.134 219.69C42.1791 219.723 42.1809 219.746 42.1401 219.773C42.0931 219.803 42.0981 219.811 42.1674 219.822C42.214 219.828 42.2951 219.874 42.3478 219.922C42.4177 219.986 42.4528 219.997 42.4777 219.963C42.4968 219.937 42.5411 219.937 42.5783 219.965C42.6148 219.991 42.6852 220.019 42.7346 220.026C42.7841 220.033 42.8804 220.074 42.9487 220.116C43.0171 220.158 43.1499 220.202 43.244 220.214C43.3381 220.225 43.4356 220.249 43.4607 220.267C43.4858 220.286 43.531 220.291 43.5612 220.279C43.5913 220.268 43.6925 220.27 43.786 220.285C43.8795 220.3 43.9762 220.3 44.0009 220.285C44.0256 220.269 44.0594 220.267 44.0761 220.279C44.1532 220.335 44.8426 220.172 44.9876 220.064C45.0307 220.032 45.1179 219.995 45.1813 219.983C45.2868 219.962 45.2954 219.952 45.2822 219.872C45.2721 219.811 45.2959 219.758 45.3614 219.697C45.4772 219.589 45.5045 219.582 45.4991 219.66C45.4956 219.711 45.505 219.718 45.554 219.699C45.6329 219.668 45.8253 219.418 45.7897 219.392C45.7625 219.372 45.6981 219.431 45.6496 219.521C45.6367 219.545 45.6109 219.553 45.5925 219.54C45.5561 219.513 45.6512 219.375 45.7593 219.297C45.7961 219.271 45.848 219.265 45.8746 219.284C45.9251 219.321 46.0521 219.163 46.0814 219.027C46.0893 218.99 46.1215 218.931 46.153 218.896C46.1846 218.86 46.2126 218.778 46.2154 218.713C46.2182 218.648 46.2449 218.574 46.2749 218.548C46.3049 218.521 46.3381 218.419 46.3487 218.32C46.3593 218.221 46.3735 218.133 46.3802 218.125C46.4167 218.078 46.4475 217.883 46.4212 217.864C46.4043 217.851 46.4036 217.802 46.4198 217.753C46.476 217.586 46.4545 217.403 46.3715 217.342C46.3274 217.31 46.3099 217.277 46.3325 217.268C46.355 217.259 46.3889 217.275 46.4077 217.303C46.4796 217.413 46.4641 217.313 46.3879 217.176C46.344 217.097 46.3053 216.981 46.3021 216.918C46.2953 216.787 46.2215 216.712 46.1697 216.783C46.1253 216.844 46.079 216.81 46.0278 216.677C45.9888 216.576 45.859 216.465 45.5277 216.25C45.4334 216.189 45.385 216.136 45.3947 216.105C45.4066 216.067 45.3924 216.057 45.329 216.06C45.2599 216.063 45.2571 216.058 45.3095 216.024C45.3433 216.002 45.357 215.974 45.3399 215.961C45.3227 215.949 45.2983 215.953 45.2856 215.97C45.2729 215.988 45.2264 215.975 45.1821 215.943C45.1379 215.911 45.1118 215.871 45.1241 215.854C45.1364 215.837 45.1159 215.812 45.0786 215.798C45.0414 215.784 45.0557 215.78 45.1105 215.788C45.2244 215.806 45.2724 215.766 45.201 215.715C45.1745 215.695 45.1684 215.658 45.1874 215.632C45.2313 215.572 45.2152 215.561 45.0686 215.553C44.9791 215.548 44.9471 215.53 44.9392 215.483C44.927 215.408 44.8748 215.361 44.8707 215.42C44.8691 215.443 44.8323 215.447 44.7889 215.43C44.7291 215.406 44.7232 215.39 44.7644 215.364C44.8035 215.338 44.8004 215.324 44.7535 215.311C44.7176 215.301 44.6741 215.283 44.6568 215.27C44.6395 215.257 44.6239 215.268 44.6221 215.293C44.6204 215.319 44.6041 215.329 44.586 215.315C44.5679 215.302 44.5583 215.252 44.5646 215.204C44.5747 215.128 44.5617 215.114 44.4609 215.091C44.3416 215.064 43.9943 215.032 43.9425 215.044C43.9264 215.048 43.791 215.05 43.6416 215.05C43.3731 215.048 43.0117 215.106 42.9756 215.156C42.9653 215.17 42.8906 215.197 42.8095 215.215C42.7284 215.234 42.6402 215.276 42.6134 215.31C42.5393 215.404 42.3442 215.525 42.307 215.5C42.2888 215.488 42.244 215.515 42.2073 215.561C42.1707 215.607 42.1328 215.65 42.1233 215.657C42.0398 215.712 41.711 216.191 41.679 216.303ZM44.4038 215.199C44.4071 215.219 44.4248 215.247 44.4431 215.26C44.4632 215.275 44.4721 215.258 44.4655 215.219C44.4596 215.183 44.4419 215.156 44.4263 215.158C44.4105 215.16 44.4004 215.179 44.4038 215.199ZM45.811 216.64C45.8496 216.665 45.8626 216.663 45.8444 216.635C45.8278 216.609 45.7992 216.59 45.7809 216.592C45.7626 216.595 45.7761 216.616 45.811 216.64ZM46.069 216.488C46.1076 216.514 46.1206 216.512 46.1024 216.483C46.0858 216.457 46.0572 216.438 46.0389 216.441C46.0206 216.443 46.0341 216.465 46.069 216.488Z" fill="white"/>
</g>
<defs>
<filter id="filter0_dii_8_15475" x="-3.31268" y="-1.1037" width="290.411" height="256.964" filterUnits="userSpaceOnUse" color-interpolation-filters="sRGB">
<feFlood flood-opacity="0" result="BackgroundImageFix"/>
<feColorMatrix in="SourceAlpha" type="matrix" values="0 0 0 0 0 0 0 0 0 0 0 0 0 0 0 0 0 0 127 0" result="hardAlpha"/>
<feOffset dx="6.62429" dy="4.4162"/>
<feGaussianBlur stdDeviation="3.86417"/>
<feComposite in2="hardAlpha" operator="out"/>
<feColorMatrix type="matrix" values="0 0 0 0 0 0 0 0 0 0 0 0 0 0 0 0 0 0 0.44 0"/>
<feBlend mode="normal" in2="BackgroundImageFix" result="effect1_dropShadow_8_15475"/>
<feBlend mode="normal" in="SourceGraphic" in2="effect1_dropShadow_8_15475" result="shape"/>
<feColorMatrix in="SourceAlpha" type="matrix" values="0 0 0 0 0 0 0 0 0 0 0 0 0 0 0 0 0 0 127 0" result="hardAlpha"/>
<feOffset dx="-4.4162" dy="-4.4162"/>
<feGaussianBlur stdDeviation="2.2081"/>
<feComposite in2="hardAlpha" operator="arithmetic" k2="-1" k3="1"/>
<feColorMatrix type="matrix" values="0 0 0 0 0 0 0 0 0 0 0 0 0 0 0 0 0 0 0.25 0"/>
<feBlend mode="normal" in2="shape" result="effect2_innerShadow_8_15475"/>
<feColorMatrix in="SourceAlpha" type="matrix" values="0 0 0 0 0 0 0 0 0 0 0 0 0 0 0 0 0 0 127 0" result="hardAlpha"/>
<feOffset dx="6.62429" dy="6.62429"/>
<feGaussianBlur stdDeviation="2.2081"/>
<feComposite in2="hardAlpha" operator="arithmetic" k2="-1" k3="1"/>
<feColorMatrix type="matrix" values="0 0 0 0 1 0 0 0 0 1 0 0 0 0 1 0 0 0 0.42 0"/>
<feBlend mode="normal" in2="effect2_innerShadow_8_15475" result="effect3_innerShadow_8_15475"/>
</filter>
</defs>
</svg>
