<svg width="254" height="286" viewBox="0 0 254 286" fill="none" xmlns="http://www.w3.org/2000/svg">
<g filter="url(#filter0_dii_8_15381)">
<path d="M98.7336 3.32665L101.996 3.49881C102.951 3.54936 103.898 3.55556 104.837 3.5171L108.059 3.38487C109.786 3.31413 111.464 3.63205 113.045 4.32879L115.995 5.62866C116.986 6.06537 117.966 6.50151 118.936 6.93602L121.823 8.22841C123.127 8.81238 124.337 9.55836 125.445 10.4597L127.901 12.4582C128.757 13.1543 129.609 13.8718 130.458 14.6097L132.903 16.7345C134.142 17.8114 135.136 19.0971 135.865 20.5659L137.304 23.4634C137.857 24.5765 138.342 25.7168 138.761 26.8832L139.848 29.9137C140.365 31.3552 140.642 32.8502 140.673 34.3805L140.702 35.7527L141.667 35.9382C142.184 36.0376 142.775 36.0674 143.459 35.9947L146.661 35.6546C148.074 35.5045 149.489 35.5266 150.898 35.7203L154.1 36.1602C154.799 36.2564 155.494 36.2612 156.191 36.1744L159.393 35.776C160.614 35.6239 161.838 35.5386 163.063 35.5215L166.265 35.4775C167.604 35.4588 168.939 35.5664 170.266 35.7985L173.468 36.359C173.999 36.4519 174.522 36.4442 175.067 36.3316L178.276 35.6679C180.086 35.2934 181.909 35.4018 183.662 35.9972L186.742 37.0426C187.78 37.395 188.81 37.7503 189.831 38.1071L192.861 39.165C194.408 39.7051 195.803 40.5318 197.024 41.62L199.451 43.784C200.704 44.9007 201.689 46.2386 202.378 47.7684L203.702 50.71C204.234 51.8937 204.669 53.1083 205.004 54.3518L205.83 57.4156C206.194 58.7682 206.392 60.1502 206.423 61.553L206.496 64.7466C206.523 65.9551 206.489 67.1637 206.393 68.3709L206.142 71.5645C206.064 72.5467 206.015 73.5287 205.995 74.5102L205.93 77.7037C205.912 78.591 205.949 79.4799 206.041 80.37L206.375 83.5635C206.487 84.6387 206.596 85.7143 206.699 86.7895L207.008 89.983C207.154 91.4992 207.058 93.0107 206.729 94.5014L206.023 97.6949C205.849 98.4812 205.76 99.2553 205.751 100.021L205.734 101.476L207.22 101.859C208.262 102.128 209.292 102.391 210.308 102.647L213.378 103.423C214.553 103.719 215.716 104.082 216.866 104.508L219.892 105.63C221.34 106.166 222.67 106.926 223.869 107.898L226.38 109.938C227.595 110.924 228.617 112.093 229.429 113.429L231.099 116.179C231.518 116.87 232.003 117.523 232.555 118.141L234.729 120.572C235.821 121.793 236.65 123.188 237.2 124.73L238.294 127.8C238.784 129.176 239.088 130.596 239.202 132.051L239.456 135.294C239.501 135.872 239.533 136.413 239.536 136.871C239.538 137.095 239.533 137.374 239.507 137.665C239.495 137.8 239.442 138.469 239.119 139.201C239.116 139.245 239.112 139.293 239.109 139.346C239.099 139.521 239.089 139.73 239.08 139.976L238.959 143.188C238.896 144.86 238.487 146.466 237.742 147.966L236.311 150.849C235.883 151.711 235.493 152.58 235.142 153.455L233.961 156.401C233.353 157.916 232.462 159.266 231.307 160.421L229.063 162.669C228.335 163.398 227.613 164.135 226.898 164.881L224.692 167.18C223.593 168.327 222.311 169.245 220.871 169.919L217.981 171.271C216.97 171.744 215.947 172.199 214.913 172.638L211.952 173.895C210.657 174.444 209.309 174.838 207.917 175.078L206.344 175.347L206.28 176.111C206.207 176.974 206.137 177.924 206.072 178.963L205.871 182.157C205.827 182.855 205.871 183.559 206.01 184.275L206.629 187.468C206.944 189.098 206.926 190.742 206.577 192.364L205.888 195.558C205.737 196.259 205.685 196.944 205.722 197.621L205.899 200.815C205.955 201.827 206.03 202.841 206.123 203.854L206.418 207.047C206.535 208.309 206.562 209.573 206.501 210.836L206.346 214.026C206.293 215.113 206.23 216.208 206.158 217.31L205.948 220.546C205.824 222.458 205.163 224.227 204.004 225.753L202.04 228.338C201.376 229.212 200.711 230.077 200.047 230.932L198.083 233.459C196.939 234.931 195.454 236.017 193.701 236.662L190.695 237.768C189.489 238.212 188.265 238.558 187.024 238.803L183.99 239.401C183.044 239.587 182.069 239.802 181.067 240.046L177.885 240.82C176.478 241.163 175.049 241.326 173.608 241.302L170.406 241.248C169.305 241.229 168.204 241.198 167.103 241.153L163.901 241.023C162.66 240.972 161.421 240.846 160.186 240.646L156.984 240.125C156.316 240.017 155.657 240.004 154.995 240.086L151.793 240.483C150.364 240.66 148.931 240.654 147.504 240.465L144.302 240.042C143.5 239.936 142.703 239.907 141.908 239.953L140.398 240.04L140.078 241.646C139.88 242.639 139.713 243.623 139.579 244.597L139.138 247.779C138.922 249.345 138.433 250.836 137.681 252.227L136.148 255.062C135.492 256.276 134.712 257.408 133.811 258.452L131.711 260.886C130.746 262.004 129.639 262.968 128.397 263.767L125.713 265.494C124.928 265.999 124.161 266.542 123.413 267.125L120.87 269.107C119.405 270.249 117.71 270.944 115.864 271.161L112.654 271.538C111.714 271.649 110.793 271.801 109.892 271.993L106.792 272.656C105.522 272.927 104.229 273.092 102.915 273.152L99.6567 273.301C97.9004 273.381 96.1929 273.055 94.5901 272.334L91.6191 270.998C90.492 270.491 89.4034 269.93 88.3554 269.314L85.6195 267.709C84.5743 267.095 83.5656 266.427 82.5942 265.704L80.0526 263.814C79.1068 263.11 78.183 262.359 77.2817 261.563L74.8385 259.404C73.5446 258.26 72.549 256.874 71.8808 255.284L70.6208 252.285C70.0789 250.995 69.6867 249.663 69.4501 248.293L68.9072 245.152C68.725 244.097 68.5477 243.049 68.3744 242.009L68.1159 240.461L68.0959 240.342L67.8882 240.306L66.2931 240.029C65.7183 239.929 65.1505 239.929 64.5678 240.03L61.3658 240.589C59.8997 240.845 58.4213 240.891 56.9446 240.723L53.7426 240.36C53.0265 240.278 52.3126 240.285 51.5938 240.382L48.3917 240.813C47.0455 240.994 45.6938 241.041 44.3417 240.953L41.1396 240.746C40.2032 240.685 39.2669 240.667 38.3312 240.692L35.1292 240.78C34.0021 240.81 32.874 240.817 31.7454 240.8L28.5383 240.752C27.2962 240.734 26.0538 240.64 24.8126 240.472L21.5889 240.035C19.8464 239.799 18.2254 239.171 16.7817 238.167L14.1267 236.32C13.0433 235.566 12.0369 234.73 11.1131 233.811L8.88673 231.597C7.95127 230.666 7.10888 229.651 6.36013 228.555L4.55982 225.92C3.65796 224.6 3.0241 223.148 2.66362 221.592L1.93566 218.449C1.57334 216.885 1.50805 215.294 1.73887 213.705L2.205 210.5C2.29238 209.898 2.28 209.305 2.16581 208.7L1.56209 205.507C1.30864 204.166 1.19063 202.815 1.21187 201.458L1.2619 198.265C1.28029 197.093 1.34383 195.92 1.45119 194.749L1.74388 191.556C1.84301 190.475 1.94865 189.393 2.06074 188.312L2.39179 185.119C2.46757 184.388 2.4571 183.659 2.35927 182.924L1.93316 179.731C1.76992 178.505 1.67795 177.278 1.65715 176.048L1.60295 172.855C1.58248 171.643 1.8584 170.192 2.84541 168.905C3.83718 167.612 5.17887 166.966 6.37681 166.676L9.45125 165.934C10.3832 165.708 11.3 165.454 12.2013 165.171L15.1849 164.233C16.2194 163.908 17.2775 163.592 18.3586 163.286L21.4897 162.397C21.7143 162.334 21.8535 162.244 22.0017 162.068L24.0955 159.586C24.9518 158.571 25.8892 157.636 26.9065 156.786L29.3864 154.715C29.7852 154.381 30.0955 153.997 30.337 153.537L31.8379 150.679C32.1581 150.07 32.385 149.439 32.525 148.779L33.1896 145.645C33.4041 144.632 33.6061 143.62 33.7958 142.608L34.3837 139.475C34.5001 138.854 34.5203 138.234 34.4454 137.603L34.0693 134.429C33.9478 133.404 33.8135 132.369 33.6657 131.326L33.2088 128.103C33.155 127.723 33.0263 127.406 32.7977 127.095L30.869 124.465C30.1465 123.48 29.4731 122.465 28.8502 121.42L27.1908 118.638C26.947 118.229 26.6433 117.903 26.2536 117.631L23.5944 115.777C22.8907 115.286 22.1656 114.861 21.418 114.5L18.5503 113.115C17.8458 112.775 17.1253 112.512 16.3865 112.322L13.3387 111.538C12.2362 111.254 11.1303 110.932 10.0208 110.573L6.93216 109.575C4.79514 108.884 2.76291 107.249 2.26921 104.458L1.80725 101.844C1.58821 100.605 1.53023 99.3133 1.59461 97.9943L1.75055 94.8008C1.79999 93.7881 1.83074 92.7753 1.84311 91.7628L1.8823 88.5692C1.89587 87.4579 1.92775 86.3463 1.97819 85.2351L2.12328 82.0416C2.15609 81.319 2.10282 80.5903 1.95901 79.8502L1.33779 76.6567C1.02795 75.062 1.02544 73.452 1.33028 71.8564L1.94067 68.6628C2.07011 67.9854 2.1015 67.3206 2.0399 66.6577L1.74304 63.4617C1.59068 61.8227 1.76996 60.2013 2.28422 58.6356L3.27568 55.6175C3.6178 54.5761 3.97203 53.5427 4.33885 52.5188L5.40119 49.5548C5.96625 47.9776 6.85253 46.5764 8.03119 45.3857L10.2651 43.1295C11.2833 42.101 12.4262 41.2252 13.6848 40.5114L16.434 38.9521C17.7454 38.2084 19.1487 37.6858 20.6275 37.3919L23.7136 36.779C25.0167 36.5201 26.3379 36.3896 27.6728 36.3864L30.8581 36.379C31.886 36.3765 32.9171 36.3617 33.9509 36.3349L37.1529 36.2517C38.2408 36.2235 39.3288 36.2035 40.4167 36.191L43.6187 36.1536C44.5915 36.1424 45.5653 36.0995 46.5389 36.0238L49.7409 35.7752C51.1085 35.669 52.4761 35.707 53.8385 35.8883L57.0405 36.3141C57.8393 36.4204 58.634 36.4497 59.427 36.4031L62.6291 36.2143C63.7177 36.1503 64.8066 36.0947 65.8953 36.0471L67.3245 35.9839L67.5163 34.9868C67.6944 34.057 67.8737 33.0721 68.0542 32.0319L68.607 28.8442C68.8643 27.361 69.3386 25.9414 70.0229 24.5986L71.5005 21.7003C72.2225 20.2839 73.1763 19.0275 74.3482 17.9512L76.7388 15.7548C77.3728 15.1726 77.9626 14.5413 78.5075 13.8587L80.5487 11.3005C81.7725 9.76721 83.3751 8.68696 85.2542 8.12279L88.4037 7.1772C89.1342 6.95791 89.824 6.65973 90.4784 6.27985L93.3118 4.63484C94.972 3.67101 96.8128 3.22509 98.7336 3.32665Z" fill="#FF8CB7"/>
</g>
<path d="M94.68 121.053H89.0775V119.636H94.68C95.85 119.636 96.7995 119.447 97.5285 119.069C98.2665 118.682 98.802 118.16 99.135 117.503C99.477 116.846 99.648 116.108 99.648 115.289C99.648 114.488 99.477 113.75 99.135 113.075C98.802 112.4 98.2665 111.86 97.5285 111.455C96.7995 111.041 95.85 110.834 94.68 110.834H89.658V129.059H87.9975V109.403H94.68C96.12 109.403 97.3305 109.65 98.3115 110.145C99.3015 110.64 100.049 111.329 100.553 112.211C101.057 113.093 101.309 114.11 101.309 115.262C101.309 116.468 101.057 117.507 100.553 118.38C100.049 119.244 99.306 119.906 98.325 120.365C97.344 120.824 96.129 121.053 94.68 121.053ZM113.378 126.44V118.907C113.378 118.214 113.234 117.615 112.946 117.111C112.658 116.607 112.235 116.22 111.677 115.95C111.119 115.68 110.43 115.545 109.611 115.545C108.855 115.545 108.18 115.68 107.586 115.95C107.001 116.211 106.538 116.567 106.196 117.017C105.863 117.458 105.696 117.948 105.696 118.488L104.076 118.475C104.076 117.926 104.211 117.395 104.481 116.882C104.751 116.369 105.134 115.91 105.629 115.505C106.124 115.1 106.713 114.78 107.397 114.546C108.09 114.303 108.851 114.182 109.679 114.182C110.723 114.182 111.641 114.357 112.433 114.708C113.234 115.059 113.859 115.586 114.309 116.288C114.759 116.99 114.984 117.872 114.984 118.934V125.994C114.984 126.498 115.02 127.02 115.092 127.56C115.173 128.1 115.286 128.546 115.43 128.897V129.059H113.715C113.607 128.735 113.522 128.33 113.459 127.844C113.405 127.349 113.378 126.881 113.378 126.44ZM113.756 120.554L113.783 121.796H110.61C109.782 121.796 109.04 121.872 108.383 122.025C107.735 122.169 107.186 122.385 106.736 122.673C106.286 122.952 105.939 123.29 105.696 123.686C105.462 124.082 105.345 124.532 105.345 125.036C105.345 125.558 105.476 126.035 105.737 126.467C106.007 126.899 106.385 127.245 106.871 127.506C107.366 127.758 107.951 127.884 108.626 127.884C109.526 127.884 110.318 127.718 111.002 127.385C111.695 127.052 112.266 126.615 112.716 126.075C113.166 125.535 113.468 124.946 113.621 124.307L114.323 125.238C114.206 125.688 113.99 126.152 113.675 126.629C113.369 127.097 112.968 127.538 112.473 127.952C111.978 128.357 111.393 128.69 110.718 128.951C110.052 129.203 109.296 129.329 108.45 129.329C107.496 129.329 106.664 129.149 105.953 128.789C105.251 128.429 104.702 127.938 104.306 127.317C103.919 126.687 103.725 125.976 103.725 125.184C103.725 124.464 103.878 123.821 104.184 123.254C104.49 122.678 104.931 122.192 105.507 121.796C106.092 121.391 106.794 121.085 107.613 120.878C108.441 120.662 109.368 120.554 110.394 120.554H113.756ZM128.066 125.333C128.066 124.937 127.967 124.545 127.769 124.158C127.571 123.771 127.188 123.416 126.621 123.092C126.063 122.768 125.24 122.493 124.151 122.268C123.341 122.088 122.616 121.886 121.977 121.661C121.347 121.436 120.816 121.166 120.384 120.851C119.952 120.536 119.624 120.158 119.399 119.717C119.174 119.276 119.061 118.754 119.061 118.151C119.061 117.611 119.178 117.102 119.412 116.625C119.655 116.139 119.997 115.716 120.438 115.356C120.888 114.987 121.428 114.699 122.058 114.492C122.697 114.285 123.413 114.182 124.205 114.182C125.33 114.182 126.293 114.375 127.094 114.762C127.904 115.14 128.52 115.658 128.943 116.315C129.375 116.972 129.591 117.714 129.591 118.542H127.985C127.985 118.038 127.836 117.561 127.539 117.111C127.251 116.661 126.824 116.292 126.257 116.004C125.699 115.716 125.015 115.572 124.205 115.572C123.368 115.572 122.688 115.698 122.166 115.95C121.644 116.202 121.262 116.522 121.019 116.909C120.785 117.296 120.668 117.696 120.668 118.11C120.668 118.434 120.717 118.731 120.816 119.001C120.924 119.262 121.113 119.505 121.383 119.73C121.662 119.955 122.058 120.167 122.571 120.365C123.084 120.563 123.75 120.756 124.569 120.945C125.748 121.206 126.711 121.526 127.458 121.904C128.214 122.273 128.772 122.732 129.132 123.281C129.492 123.821 129.672 124.478 129.672 125.252C129.672 125.855 129.546 126.408 129.294 126.912C129.042 127.407 128.678 127.835 128.201 128.195C127.733 128.555 127.166 128.834 126.5 129.032C125.843 129.23 125.105 129.329 124.286 129.329C123.053 129.329 122.009 129.126 121.154 128.721C120.308 128.307 119.664 127.767 119.223 127.101C118.791 126.426 118.575 125.711 118.575 124.955H120.182C120.236 125.711 120.474 126.309 120.897 126.75C121.32 127.182 121.838 127.488 122.45 127.668C123.071 127.848 123.683 127.938 124.286 127.938C125.114 127.938 125.807 127.817 126.365 127.574C126.923 127.331 127.346 127.011 127.634 126.615C127.922 126.219 128.066 125.792 128.066 125.333ZM138.852 114.452V115.775H131.535V114.452H138.852ZM134.222 110.699H135.828V125.508C135.828 126.183 135.918 126.692 136.098 127.034C136.278 127.376 136.512 127.605 136.8 127.722C137.088 127.839 137.399 127.898 137.732 127.898C137.975 127.898 138.209 127.884 138.434 127.857C138.659 127.821 138.861 127.785 139.041 127.749L139.109 129.113C138.911 129.176 138.654 129.225 138.339 129.261C138.024 129.306 137.709 129.329 137.394 129.329C136.773 129.329 136.224 129.216 135.747 128.991C135.27 128.757 134.897 128.361 134.627 127.803C134.357 127.236 134.222 126.467 134.222 125.495V110.699ZM72.297 153.053H66.6945V151.636H72.297C73.467 151.636 74.4165 151.447 75.1455 151.069C75.8835 150.682 76.419 150.16 76.752 149.503C77.094 148.846 77.265 148.108 77.265 147.289C77.265 146.488 77.094 145.75 76.752 145.075C76.419 144.4 75.8835 143.86 75.1455 143.455C74.4165 143.041 73.467 142.834 72.297 142.834H67.275V161.059H65.6145V141.403H72.297C73.737 141.403 74.9475 141.65 75.9285 142.145C76.9185 142.64 77.6655 143.329 78.1695 144.211C78.6735 145.093 78.9255 146.11 78.9255 147.262C78.9255 148.468 78.6735 149.507 78.1695 150.38C77.6655 151.244 76.923 151.906 75.942 152.365C74.961 152.824 73.746 153.053 72.297 153.053ZM83.88 148.868V161.059H82.2735V146.452H83.8395L83.88 148.868ZM89.0505 146.344L89.01 147.829C88.83 147.802 88.6545 147.779 88.4835 147.761C88.3125 147.743 88.128 147.734 87.93 147.734C87.228 147.734 86.6115 147.865 86.0805 148.126C85.5585 148.378 85.1175 148.733 84.7575 149.192C84.3975 149.642 84.123 150.173 83.934 150.785C83.745 151.388 83.637 152.036 83.61 152.729L83.016 152.959C83.016 152.005 83.115 151.118 83.313 150.299C83.511 149.48 83.8125 148.765 84.2175 148.153C84.6315 147.532 85.149 147.05 85.77 146.708C86.4 146.357 87.138 146.182 87.984 146.182C88.191 146.182 88.3935 146.2 88.5915 146.236C88.7985 146.263 88.9515 146.299 89.0505 146.344ZM90.4275 153.985V153.539C90.4275 152.477 90.5805 151.496 90.8865 150.596C91.1925 149.696 91.629 148.918 92.196 148.261C92.772 147.604 93.4605 147.095 94.2615 146.735C95.0625 146.366 95.9535 146.182 96.9345 146.182C97.9245 146.182 98.82 146.366 99.621 146.735C100.422 147.095 101.111 147.604 101.687 148.261C102.263 148.918 102.704 149.696 103.01 150.596C103.316 151.496 103.469 152.477 103.469 153.539V153.985C103.469 155.047 103.316 156.028 103.01 156.928C102.704 157.819 102.263 158.593 101.687 159.25C101.12 159.907 100.436 160.42 99.6345 160.789C98.8335 161.149 97.9425 161.329 96.9615 161.329C95.9715 161.329 95.076 161.149 94.275 160.789C93.474 160.42 92.7855 159.907 92.2095 159.25C91.6335 158.593 91.1925 157.819 90.8865 156.928C90.5805 156.028 90.4275 155.047 90.4275 153.985ZM92.034 153.539V153.985C92.034 154.786 92.142 155.546 92.358 156.266C92.574 156.977 92.889 157.612 93.303 158.17C93.717 158.719 94.23 159.151 94.842 159.466C95.454 159.781 96.1605 159.938 96.9615 159.938C97.7535 159.938 98.451 159.781 99.054 159.466C99.666 159.151 100.179 158.719 100.593 158.17C101.007 157.612 101.318 156.977 101.525 156.266C101.741 155.546 101.849 154.786 101.849 153.985V153.539C101.849 152.747 101.741 151.996 101.525 151.285C101.318 150.574 101.003 149.939 100.58 149.381C100.166 148.823 99.6525 148.382 99.0405 148.058C98.4285 147.734 97.7265 147.572 96.9345 147.572C96.1425 147.572 95.4405 147.734 94.8285 148.058C94.2255 148.382 93.7125 148.823 93.2895 149.381C92.8755 149.939 92.5605 150.574 92.3445 151.285C92.1375 151.996 92.034 152.747 92.034 153.539ZM106.938 146.452H108.558V162.8C108.558 163.691 108.41 164.447 108.113 165.068C107.816 165.689 107.384 166.157 106.817 166.472C106.25 166.796 105.552 166.958 104.724 166.958C104.499 166.958 104.256 166.936 103.995 166.891C103.734 166.846 103.496 166.783 103.28 166.702L103.307 165.352C103.469 165.397 103.662 165.437 103.887 165.473C104.103 165.518 104.315 165.541 104.522 165.541C105.044 165.541 105.485 165.437 105.845 165.23C106.205 165.032 106.475 164.731 106.655 164.326C106.844 163.921 106.938 163.412 106.938 162.8V146.452ZM106.655 142.226C106.655 141.92 106.754 141.664 106.952 141.457C107.15 141.241 107.42 141.133 107.762 141.133C108.104 141.133 108.374 141.241 108.572 141.457C108.779 141.664 108.882 141.92 108.882 142.226C108.882 142.523 108.779 142.78 108.572 142.996C108.374 143.203 108.104 143.306 107.762 143.306C107.42 143.306 107.15 143.203 106.952 142.996C106.754 142.78 106.655 142.523 106.655 142.226ZM118.778 161.329C117.824 161.329 116.946 161.153 116.145 160.802C115.353 160.451 114.66 159.956 114.066 159.317C113.481 158.678 113.027 157.922 112.703 157.049C112.388 156.167 112.23 155.204 112.23 154.16V153.58C112.23 152.455 112.397 151.438 112.73 150.529C113.063 149.62 113.522 148.841 114.107 148.193C114.692 147.545 115.358 147.05 116.105 146.708C116.861 146.357 117.653 146.182 118.481 146.182C119.408 146.182 120.231 146.348 120.951 146.681C121.671 147.005 122.274 147.469 122.76 148.072C123.255 148.666 123.629 149.372 123.881 150.191C124.133 151.001 124.259 151.897 124.259 152.878V153.863H113.202V152.486H122.652V152.297C122.634 151.478 122.468 150.713 122.153 150.002C121.847 149.282 121.388 148.697 120.776 148.247C120.164 147.797 119.399 147.572 118.481 147.572C117.797 147.572 117.167 147.716 116.591 148.004C116.024 148.292 115.533 148.706 115.119 149.246C114.714 149.777 114.399 150.412 114.174 151.15C113.958 151.879 113.85 152.689 113.85 153.58V154.16C113.85 154.97 113.967 155.726 114.201 156.428C114.444 157.121 114.786 157.733 115.227 158.264C115.677 158.795 116.208 159.209 116.82 159.506C117.432 159.803 118.107 159.952 118.845 159.952C119.709 159.952 120.474 159.794 121.14 159.479C121.806 159.155 122.405 158.647 122.936 157.954L123.948 158.737C123.633 159.205 123.237 159.637 122.76 160.033C122.292 160.429 121.73 160.744 121.073 160.978C120.416 161.212 119.651 161.329 118.778 161.329ZM132.831 159.938C133.515 159.938 134.154 159.812 134.748 159.56C135.351 159.299 135.846 158.917 136.233 158.413C136.629 157.9 136.854 157.274 136.908 156.536H138.447C138.402 157.463 138.119 158.291 137.597 159.02C137.084 159.74 136.409 160.307 135.572 160.721C134.744 161.126 133.83 161.329 132.831 161.329C131.814 161.329 130.914 161.144 130.131 160.775C129.357 160.406 128.709 159.893 128.187 159.236C127.665 158.57 127.269 157.796 126.999 156.914C126.738 156.023 126.608 155.065 126.608 154.039V153.472C126.608 152.446 126.738 151.492 126.999 150.61C127.269 149.719 127.665 148.945 128.187 148.288C128.709 147.622 129.357 147.104 130.131 146.735C130.905 146.366 131.801 146.182 132.818 146.182C133.862 146.182 134.798 146.393 135.626 146.816C136.463 147.239 137.129 147.838 137.624 148.612C138.128 149.386 138.402 150.304 138.447 151.366H136.908C136.863 150.583 136.656 149.908 136.287 149.341C135.918 148.774 135.432 148.337 134.829 148.031C134.226 147.725 133.556 147.572 132.818 147.572C131.99 147.572 131.283 147.734 130.698 148.058C130.113 148.373 129.636 148.81 129.267 149.368C128.907 149.917 128.642 150.547 128.471 151.258C128.3 151.96 128.214 152.698 128.214 153.472V154.039C128.214 154.822 128.295 155.569 128.457 156.28C128.628 156.982 128.894 157.607 129.254 158.156C129.623 158.705 130.1 159.142 130.685 159.466C131.279 159.781 131.994 159.938 132.831 159.938ZM147.222 146.452V147.775H139.905V146.452H147.222ZM142.592 142.699H144.198V157.508C144.198 158.183 144.288 158.692 144.468 159.034C144.648 159.376 144.882 159.605 145.17 159.722C145.458 159.839 145.769 159.898 146.102 159.898C146.345 159.898 146.579 159.884 146.804 159.857C147.029 159.821 147.231 159.785 147.411 159.749L147.479 161.113C147.281 161.176 147.024 161.225 146.709 161.261C146.394 161.306 146.079 161.329 145.764 161.329C145.143 161.329 144.594 161.216 144.117 160.991C143.64 160.757 143.267 160.361 142.997 159.803C142.727 159.236 142.592 158.467 142.592 157.495V142.699ZM159.359 157.333C159.359 156.937 159.26 156.545 159.062 156.158C158.864 155.771 158.481 155.416 157.914 155.092C157.356 154.768 156.533 154.493 155.444 154.268C154.634 154.088 153.909 153.886 153.27 153.661C152.64 153.436 152.109 153.166 151.677 152.851C151.245 152.536 150.917 152.158 150.692 151.717C150.467 151.276 150.354 150.754 150.354 150.151C150.354 149.611 150.471 149.102 150.705 148.625C150.948 148.139 151.29 147.716 151.731 147.356C152.181 146.987 152.721 146.699 153.351 146.492C153.99 146.285 154.706 146.182 155.498 146.182C156.623 146.182 157.586 146.375 158.387 146.762C159.197 147.14 159.813 147.658 160.236 148.315C160.668 148.972 160.884 149.714 160.884 150.542H159.278C159.278 150.038 159.129 149.561 158.832 149.111C158.544 148.661 158.117 148.292 157.55 148.004C156.992 147.716 156.308 147.572 155.498 147.572C154.661 147.572 153.981 147.698 153.459 147.95C152.937 148.202 152.555 148.522 152.312 148.909C152.078 149.296 151.961 149.696 151.961 150.11C151.961 150.434 152.01 150.731 152.109 151.001C152.217 151.262 152.406 151.505 152.676 151.73C152.955 151.955 153.351 152.167 153.864 152.365C154.377 152.563 155.043 152.756 155.862 152.945C157.041 153.206 158.004 153.526 158.751 153.904C159.507 154.273 160.065 154.732 160.425 155.281C160.785 155.821 160.965 156.478 160.965 157.252C160.965 157.855 160.839 158.408 160.587 158.912C160.335 159.407 159.971 159.835 159.494 160.195C159.026 160.555 158.459 160.834 157.793 161.032C157.136 161.23 156.398 161.329 155.579 161.329C154.346 161.329 153.302 161.126 152.447 160.721C151.601 160.307 150.957 159.767 150.516 159.101C150.084 158.426 149.868 157.711 149.868 156.955H151.475C151.529 157.711 151.767 158.309 152.19 158.75C152.613 159.182 153.131 159.488 153.743 159.668C154.364 159.848 154.976 159.938 155.579 159.938C156.407 159.938 157.1 159.817 157.658 159.574C158.216 159.331 158.639 159.011 158.927 158.615C159.215 158.219 159.359 157.792 159.359 157.333Z" fill="#FFF9E9"/>
<path opacity="0.7" fill-rule="evenodd" clip-rule="evenodd" d="M76.5258 23.085C76.5244 23.0942 76.4113 23.2275 76.2744 23.3813C75.9671 23.7266 75.9845 23.7044 75.9311 23.8193C75.8942 23.8988 75.8856 23.9046 75.8797 23.8543C75.874 23.8056 75.87 23.8075 75.8592 23.8643C75.8518 23.9031 75.8204 23.9532 75.7893 23.9758C75.7582 23.9983 75.7432 24.0311 75.7559 24.0486C75.7686 24.0661 75.7667 24.0858 75.7518 24.0924C75.7368 24.099 75.695 24.1528 75.6589 24.212C75.6228 24.2712 75.5599 24.356 75.5191 24.4004C75.4784 24.4449 75.4465 24.4992 75.4482 24.5212C75.45 24.5432 75.4235 24.5815 75.3892 24.6064C75.355 24.6312 75.3187 24.6959 75.3085 24.7502C75.2983 24.8044 75.238 24.9503 75.1745 25.0745C75.1111 25.1986 75.0617 25.3278 75.0648 25.3616C75.0679 25.3954 75.0517 25.4244 75.0286 25.4259C74.9652 25.4302 74.905 25.583 74.945 25.6382C74.9644 25.6649 74.9614 25.688 74.9384 25.6895C74.858 25.695 74.7785 25.8709 74.8266 25.9371C74.8752 26.0041 74.8421 26.0624 74.7808 26.018C74.7607 26.0035 74.7361 26.0369 74.7232 26.0963C74.7108 26.1533 74.6851 26.2364 74.6663 26.281C74.6474 26.3257 74.648 26.3761 74.6676 26.3931C74.6904 26.4129 74.675 26.4333 74.6248 26.4497C74.5707 26.4674 74.5568 26.4897 74.5799 26.5216C74.5984 26.547 74.5955 26.5949 74.5734 26.6281C74.4843 26.7625 74.4266 26.9375 74.4574 26.98C74.4754 27.0048 74.4584 27.0699 74.4195 27.1246C74.3416 27.2346 74.3146 27.3444 74.3527 27.3968C74.3663 27.4156 74.3664 27.4389 74.353 27.4486C74.2893 27.4949 74.0059 28.6251 73.9269 29.1479C73.9083 29.2709 73.882 29.3884 73.8684 29.4091C73.8547 29.4298 73.8327 29.5703 73.8193 29.7212C73.806 29.8721 73.7864 29.9848 73.7758 29.9715C73.7653 29.9583 73.7514 30.0167 73.7451 30.1015C73.7388 30.1863 73.7299 30.2282 73.7253 30.1947C73.7197 30.1537 73.7061 30.1489 73.684 30.1801C73.6659 30.2056 73.6656 30.2463 73.6832 30.2706C73.7008 30.2949 73.6946 30.355 73.6693 30.4042C73.644 30.4533 73.6353 30.5041 73.6499 30.5169C73.6644 30.5298 73.6565 30.5763 73.6321 30.6204C73.6078 30.6645 73.5953 30.7108 73.6045 30.7233C73.6259 30.7529 73.5883 30.9775 73.545 31.0783C73.5266 31.1213 73.5243 31.1839 73.5399 31.2174C73.5849 31.3138 73.5466 31.5225 73.4704 31.5964C73.4321 31.6336 73.4121 31.6776 73.426 31.6942C73.458 31.7323 73.4409 31.8535 73.3992 31.8838C73.3819 31.8964 73.3812 31.9461 73.3977 31.9943C73.4142 32.0424 73.4083 32.2071 73.3846 32.3603C73.3609 32.5134 73.3386 32.7239 73.3352 32.8281C73.3317 32.9322 73.319 33.0856 73.3069 33.1688C73.2949 33.2521 73.2951 33.3341 73.3074 33.3511C73.3197 33.368 73.318 33.5033 73.3035 33.6517C73.2868 33.8222 73.2995 33.9613 73.3379 34.0294C73.3714 34.0887 73.3899 34.1845 73.3791 34.2421C73.3683 34.2998 73.3757 34.3694 73.3956 34.3968C73.4155 34.4243 73.4169 34.5005 73.3988 34.5663C73.3806 34.632 73.3819 34.7081 73.4016 34.7352C73.4301 34.7745 73.4409 34.7702 73.455 34.7137C73.47 34.653 73.4755 34.6579 73.4929 34.7475C73.5041 34.805 73.4925 34.8576 73.467 34.8643C73.4007 34.8817 73.4452 35.0098 73.5248 35.0307C73.6024 35.0512 73.6487 35.1747 73.5805 35.1794C73.5552 35.1811 73.5447 35.1965 73.5571 35.2136C73.5695 35.2306 73.5946 35.2429 73.6129 35.2409C73.6311 35.2388 73.6222 35.2464 73.593 35.2577C73.5638 35.269 73.5417 35.305 73.5439 35.3377C73.5501 35.427 73.5766 35.4494 73.6116 35.395C73.6576 35.3235 73.7831 35.5433 73.7446 35.628C73.7059 35.7131 73.7655 35.7943 73.9019 35.8424C73.9637 35.8642 73.9846 35.882 73.951 35.8843C73.9163 35.8867 73.8941 35.9143 73.8968 35.952C73.9024 36.0329 73.9333 36.0787 73.9516 36.0333C73.9593 36.0141 73.9902 36.0452 74.0202 36.1022C74.0543 36.167 74.0886 36.1958 74.1118 36.179C74.1348 36.1622 74.159 36.1823 74.1758 36.2321C74.1905 36.2761 74.2338 36.3203 74.2719 36.3303C74.31 36.3403 74.3429 36.3701 74.345 36.3964C74.3471 36.4228 74.3715 36.428 74.3992 36.4079C74.4268 36.3878 74.4602 36.3909 74.4732 36.4149C74.535 36.5276 74.5683 36.5382 74.6297 36.4644C74.664 36.4232 74.7095 36.3967 74.7309 36.4056C74.7859 36.4286 74.813 36.5499 74.7639 36.5532C74.6904 36.5582 74.763 36.614 74.8916 36.6515C75.0353 36.6934 75.1019 36.6681 75.0157 36.6045C74.9697 36.5705 74.9709 36.5662 75.0216 36.5836C75.0568 36.5958 75.0914 36.6268 75.0984 36.6525C75.1054 36.6783 75.159 36.7049 75.2176 36.7116C75.2761 36.7184 75.3385 36.7439 75.3563 36.7684C75.374 36.7928 75.4531 36.7979 75.532 36.7797C75.6109 36.7615 75.6797 36.7597 75.6848 36.7757C75.69 36.7917 75.7021 36.8008 75.7117 36.796C75.7736 36.7649 75.9292 36.7677 75.9318 36.7998C75.9354 36.8444 76.0346 36.8251 76.1198 36.7632C76.1518 36.74 76.2079 36.7434 76.2446 36.7706C76.2812 36.7979 76.3174 36.8047 76.325 36.7858C76.3327 36.7669 76.3953 36.7539 76.4642 36.7571C76.5331 36.7603 76.6048 36.7393 76.6233 36.7104C76.6445 36.6774 76.6818 36.6764 76.7239 36.7077C76.7651 36.7384 76.8033 36.7378 76.8236 36.7063C76.8417 36.6782 76.8842 36.6565 76.9179 36.6581C76.9918 36.6616 77.3094 36.4917 77.6114 36.2874C77.7579 36.1882 77.8518 36.1463 77.8926 36.162C77.9431 36.1815 77.9541 36.1689 77.9555 36.0901C77.9564 36.0375 77.9695 36.0116 77.9846 36.0325C77.9998 36.0534 78.0271 36.0596 78.0454 36.0463C78.0636 36.033 78.0565 36.0129 78.0295 36.0016C77.9982 35.9886 78.0006 35.9798 78.0361 35.9774C78.0673 35.9752 78.1005 35.9298 78.112 35.8737C78.1237 35.8159 78.1435 35.7893 78.1589 35.8105C78.1736 35.8307 78.1715 35.8575 78.1542 35.8701C78.137 35.8826 78.1332 35.9072 78.146 35.9247C78.1587 35.9422 78.1982 35.9354 78.2337 35.9096C78.2692 35.8838 78.2792 35.8547 78.2558 35.845C78.1831 35.8146 78.1968 35.7303 78.2736 35.7358C78.3239 35.7395 78.3526 35.718 78.3833 35.6538C78.4061 35.6059 78.4265 35.5873 78.4285 35.6125C78.4357 35.701 78.5451 35.6273 78.5552 35.5272C78.567 35.4096 78.6096 35.3636 78.6317 35.4445C78.6442 35.4904 78.6724 35.4735 78.7913 35.3487C78.8706 35.2654 78.9415 35.1755 78.9486 35.1491C78.9558 35.1226 79.0241 35.0431 79.1005 34.9723C79.1769 34.9014 79.2462 34.8187 79.2545 34.7883C79.2707 34.7288 79.4379 34.4793 79.488 34.4397C79.5047 34.4265 79.5262 34.3967 79.5358 34.3736C79.5454 34.3505 79.5926 34.2873 79.6409 34.2333C79.6891 34.1793 79.7214 34.1091 79.7128 34.0773C79.7041 34.0455 79.715 34.0105 79.737 33.9995C79.8035 33.9662 79.99 33.7505 80.0073 33.687C80.0162 33.6543 80.0067 33.6205 79.9862 33.612C79.9658 33.6034 79.9767 33.5892 80.0105 33.5803C80.0443 33.5715 80.0779 33.5247 80.0852 33.4765C80.0925 33.4282 80.117 33.3875 80.1396 33.3859C80.1938 33.3823 80.2678 33.225 80.266 33.1176C80.2652 33.0706 80.2904 33.0163 80.322 32.9967C80.3536 32.9772 80.4006 32.9043 80.4264 32.8347C80.4522 32.7651 80.4992 32.6826 80.5308 32.6513C80.5623 32.6199 80.5866 32.5749 80.5847 32.5511C80.5802 32.4963 80.7564 32.1272 80.7749 32.1526C80.7824 32.163 80.7968 32.1386 80.8068 32.0983C80.8168 32.058 80.8102 32.0188 80.7921 32.0113C80.774 32.0037 80.7674 31.9648 80.7773 31.9248C80.7872 31.8848 80.7783 31.845 80.7576 31.8364C80.7369 31.8277 80.7334 31.8109 80.7498 31.799C80.7662 31.7871 80.7632 31.7369 80.7432 31.6875C80.7232 31.6382 80.7226 31.5732 80.7419 31.5432C80.7622 31.5118 80.7786 31.5079 80.7808 31.534C80.7828 31.5589 80.8179 31.5568 80.8587 31.5293C80.8996 31.5017 80.9205 31.4994 80.9052 31.5241C80.8899 31.5488 80.8829 31.6083 80.8898 31.6564C80.9021 31.7421 80.9032 31.7415 80.9494 31.6221C81.1018 31.228 81.1135 31.1175 81.0048 31.0994C80.9167 31.0848 80.9318 31.0397 81.0339 31.0127C81.0929 30.9969 81.1547 30.9632 81.1711 30.9377C81.2121 30.874 81.1414 30.7856 81.0832 30.8278C81.0573 30.8466 81.0271 30.8497 81.0162 30.8346C80.9898 30.7982 81.1801 30.7096 81.237 30.7318C81.2876 30.7516 81.3797 30.5432 81.3429 30.4924C81.3133 30.4516 81.2288 30.5138 81.2336 30.5729C81.2379 30.6267 81.1861 30.6726 81.1606 30.6375C81.151 30.6242 81.1505 30.548 81.1595 30.4682C81.176 30.3222 81.2465 30.2276 81.292 30.2903C81.3054 30.3088 81.2973 30.3253 81.274 30.3269C81.2094 30.3313 81.2293 30.3988 81.2972 30.4061C81.3764 30.4146 81.4288 30.3718 81.4415 30.2883C81.4498 30.2337 81.4408 30.2281 81.3964 30.2603C81.3532 30.2916 81.3342 30.281 81.3109 30.2129C81.2945 30.1647 81.2884 30.106 81.2974 30.0823C81.3064 30.0587 81.2905 30.0297 81.2621 30.0177C81.2248 30.0021 81.2333 29.9886 81.2925 29.9691C81.3429 29.9527 81.3648 29.9285 81.349 29.9067C81.3318 29.883 81.3476 29.8684 81.396 29.863C81.5246 29.8486 81.5627 29.7539 81.491 29.6267C81.4418 29.5394 81.4163 29.5201 81.3947 29.5536C81.3786 29.5787 81.3553 29.5853 81.343 29.5683C81.3307 29.5514 81.3003 29.5523 81.2754 29.5703C81.2505 29.5884 81.207 29.5926 81.1787 29.5797C81.1504 29.5669 81.1466 29.5585 81.1701 29.5613C81.1936 29.564 81.2203 29.5365 81.2293 29.5002C81.2419 29.4494 81.2547 29.4467 81.2851 29.4885C81.3068 29.5185 81.3373 29.5236 81.3531 29.4997C81.3689 29.476 81.3675 29.4438 81.35 29.428C81.3052 29.3877 81.4444 29.3301 81.546 29.347C81.6624 29.3663 81.6887 29.3392 81.5772 29.3149C81.5276 29.3041 81.4762 29.2812 81.4629 29.2641C81.4497 29.247 81.4058 29.2498 81.3654 29.2704C81.3063 29.3005 81.2928 29.2937 81.2962 29.2355C81.3008 29.1553 81.3885 29.072 81.3942 29.1425C81.3996 29.2095 81.5905 29.1208 81.6018 29.0459C81.6092 28.9972 81.597 28.9831 81.5501 28.9863C81.5023 28.9895 81.4857 28.9697 81.4753 28.8968C81.4679 28.8452 81.4755 28.7932 81.4921 28.7811C81.536 28.7493 81.5696 28.8097 81.5373 28.8622C81.5165 28.8957 81.5274 28.9067 81.5813 28.9064C81.6783 28.9058 81.6858 28.8979 81.7096 28.771C81.7233 28.6984 81.7076 28.6418 81.6639 28.6056C81.6123 28.563 81.5977 28.5649 81.5988 28.6145C81.5999 28.6653 81.5958 28.6667 81.5785 28.6212C81.5635 28.5821 81.595 28.5383 81.6782 28.4822C81.7548 28.4305 81.7769 28.4018 81.7381 28.4044C81.6895 28.4077 81.6812 28.3838 81.6987 28.2906C81.7109 28.2257 81.7412 28.1713 81.766 28.1696C81.8355 28.1649 81.8032 28.1433 81.6839 28.1147C81.6243 28.1003 81.5596 28.1002 81.54 28.1144C81.5205 28.1286 81.4937 28.1254 81.4806 28.1073C81.4641 28.0846 81.4829 28.0709 81.5413 28.0632C81.6694 28.0464 81.6758 28.0287 81.5868 27.9372C81.5387 27.8877 81.5232 27.852 81.5492 27.8502C81.575 27.8485 81.5624 27.8181 81.5188 27.777C81.4658 27.7269 81.4594 27.7027 81.4967 27.6929C81.5588 27.6766 81.6053 27.4209 81.5579 27.3556C81.5397 27.3305 81.5439 27.2991 81.5672 27.2859C81.5906 27.2727 81.6048 27.2435 81.5989 27.2211C81.5929 27.1987 81.6166 27.1326 81.6515 27.0744C81.6864 27.0161 81.6955 26.9603 81.6717 26.9504C81.594 26.9179 81.614 26.8411 81.7031 26.8294C81.7522 26.823 81.784 26.8017 81.7819 26.7765C81.78 26.7534 81.7571 26.7411 81.7308 26.7493C81.7011 26.7585 81.6944 26.714 81.713 26.631C81.7318 26.5467 81.7221 26.4843 81.6864 26.4609C81.6367 26.4282 81.6399 26.4251 81.7136 26.4346C81.7712 26.442 81.7912 26.46 81.7783 26.4928C81.7661 26.5236 81.7847 26.5336 81.8315 26.5214C81.8723 26.5106 81.9068 26.4732 81.9111 26.4348C81.9169 26.382 81.9132 26.3792 81.8941 26.4222C81.8766 26.4614 81.8605 26.4576 81.8383 26.409C81.8198 26.3684 81.8317 26.3287 81.8677 26.3111C81.9332 26.279 81.9117 26.2167 81.837 26.2218C81.7831 26.2255 81.7643 26.1297 81.7852 25.9577C81.7931 25.8929 81.787 25.8226 81.7716 25.8015C81.7563 25.7803 81.7589 25.7655 81.7775 25.7686C81.8108 25.7742 81.8463 25.6403 81.8208 25.6052C81.8136 25.5952 81.7864 25.6024 81.7606 25.6211C81.7347 25.6399 81.702 25.6395 81.6879 25.6201C81.6738 25.6007 81.6889 25.5778 81.7214 25.5693C81.7667 25.5574 81.7613 25.5293 81.6982 25.4488C81.6529 25.3911 81.613 25.2905 81.6095 25.2254C81.6059 25.1603 81.5867 25.0845 81.5668 25.0571C81.5469 25.0297 81.5433 24.9875 81.5587 24.9634C81.5997 24.8995 81.4735 24.7115 81.4171 24.7524C81.3902 24.7719 81.3657 24.7606 81.3557 24.724C81.3466 24.6906 81.3583 24.6493 81.3817 24.6322C81.4346 24.5939 81.4157 24.4407 81.3501 24.3762C81.3233 24.3498 81.3175 24.3133 81.3372 24.295C81.3569 24.2767 81.3858 24.2498 81.4015 24.2351C81.4172 24.2204 81.4136 24.1858 81.3937 24.1583C81.3471 24.0942 81.1974 24.0661 81.2163 24.1251C81.2244 24.1504 81.1795 24.1645 81.1058 24.1597C81.0079 24.1534 80.9837 24.1375 80.9912 24.0846C80.9989 24.0313 81.0129 24.0254 81.0592 24.0558C81.1018 24.0838 81.1361 24.0726 81.1863 24.0142C81.2969 23.8857 81.2942 23.7901 81.175 23.6259C81.0794 23.4942 81.0746 23.4714 81.1353 23.4392C81.2033 23.4031 81.2029 23.4024 81.109 23.3981C81.0564 23.3956 81.0157 23.3786 81.0185 23.3602C81.0213 23.3417 80.9811 23.2996 80.9291 23.2665C80.8771 23.2335 80.7913 23.1415 80.7384 23.062C80.685 22.9819 80.6187 22.9192 80.5894 22.9212C80.559 22.9232 80.5727 22.8894 80.622 22.8411C80.6689 22.795 80.7085 22.7721 80.71 22.7902C80.7114 22.8082 80.7397 22.8159 80.7728 22.8072C80.8161 22.7958 80.817 22.7695 80.7759 22.7129C80.7445 22.6696 80.7024 22.6462 80.6822 22.6608C80.6621 22.6754 80.648 22.6714 80.651 22.6519C80.654 22.6323 80.5974 22.6088 80.5252 22.5996C80.4531 22.5904 80.3801 22.5636 80.363 22.54C80.3458 22.5164 80.3024 22.4922 80.2664 22.4862C80.2156 22.4778 80.2094 22.4693 80.2387 22.448C80.2594 22.433 80.2619 22.4007 80.2442 22.3763C80.208 22.3266 80.0923 22.3449 80.0684 22.4042C80.0598 22.4254 80.0418 22.4276 80.0284 22.4091C80.0149 22.3905 79.9101 22.3598 79.7954 22.3407C79.5501 22.2999 79.4217 22.2337 79.5325 22.2053C79.6513 22.1747 79.6673 22.1606 79.6502 22.1018C79.6387 22.0626 79.6223 22.0628 79.5968 22.1026C79.5491 22.1767 79.2397 22.148 79.1677 22.0629C79.1233 22.0104 79.1295 21.9938 79.205 21.9637C79.3014 21.9254 79.2871 21.8643 79.1707 21.817C79.0988 21.7879 78.9535 21.8523 78.987 21.8984C78.9996 21.9159 79.0311 21.9147 79.057 21.8959C79.0829 21.8771 79.1145 21.8761 79.1272 21.8936C79.1399 21.9111 79.1079 21.9562 79.0561 21.9938C78.9843 22.0459 78.9515 22.0476 78.9177 22.0011C78.8907 21.9639 78.8247 21.9503 78.7486 21.9661C78.6799 21.9805 78.6153 21.9805 78.6049 21.9662C78.5946 21.952 78.5784 21.9594 78.569 21.9827C78.5596 22.0061 78.5426 22.0125 78.5314 21.9969C78.504 21.9592 78.0905 22.0377 78.0837 22.0819C78.0809 22.1009 78.0467 22.1207 78.0077 22.1258C77.8572 22.1456 77.6617 22.2607 77.1052 22.6573C76.7879 22.8834 76.5272 23.0759 76.5258 23.085ZM80.919 23.8016C80.9234 23.8554 81.0318 23.8356 81.0763 23.7729C81.096 23.7452 81.0729 23.7346 81.011 23.7427C80.9479 23.7509 80.9166 23.771 80.919 23.8016ZM81.6814 24.7738C81.6922 24.8134 81.7113 24.8122 81.7459 24.7697C81.8143 24.6858 81.8015 24.6192 81.7273 24.6731C81.6936 24.6975 81.673 24.7429 81.6814 24.7738ZM81.8166 24.9294C81.8127 24.9731 81.7857 25.0151 81.7566 25.0228C81.7275 25.0304 81.711 25.0636 81.72 25.0965C81.7294 25.1309 81.765 25.1488 81.8036 25.1387C81.8409 25.1289 81.8643 25.1002 81.8561 25.0745C81.8479 25.0489 81.8667 25.0094 81.8979 24.9867C81.945 24.9526 81.9511 24.8604 81.9101 24.8038C81.8867 24.7716 81.8231 24.857 81.8166 24.9294ZM81.7896 25.2444C81.8189 25.2372 81.8452 25.2164 81.8479 25.1982C81.8507 25.1801 81.8267 25.186 81.7946 25.2114C81.7592 25.2395 81.7572 25.2524 81.7896 25.2444ZM81.7725 26.5939C81.7937 26.6237 81.8317 26.6467 81.8568 26.645C81.9146 26.6411 81.884 26.5989 81.799 26.5654C81.7429 26.5433 81.7393 26.5472 81.7725 26.5939ZM81.7965 27.1849C81.8124 27.2426 81.8186 27.2437 81.827 27.19C81.8328 27.1528 81.8238 27.1201 81.807 27.1174C81.7902 27.1146 81.7855 27.145 81.7965 27.1849ZM81.4708 27.5327C81.4729 27.558 81.4887 27.5684 81.5059 27.5559C81.5232 27.5433 81.5357 27.5124 81.5336 27.4872C81.5316 27.4619 81.5158 27.4515 81.4985 27.464C81.4813 27.4766 81.4688 27.5075 81.4708 27.5327ZM81.8312 27.3968C81.8596 27.4328 81.8725 27.4349 81.8641 27.4023C81.8565 27.3727 81.8354 27.3461 81.8173 27.3431C81.7992 27.34 81.8055 27.3642 81.8312 27.3968ZM81.7028 27.7533C81.7155 27.7708 81.7471 27.7697 81.773 27.7509C81.7989 27.7322 81.8096 27.7025 81.7969 27.6849C81.7842 27.6674 81.7526 27.6685 81.7268 27.6873C81.7009 27.7061 81.6901 27.7358 81.7028 27.7533ZM81.692 27.9555C81.7362 28.0677 81.7945 28.0425 81.7694 27.9222C81.7521 27.8391 81.739 27.8242 81.7049 27.849C81.6814 27.866 81.6756 27.914 81.692 27.9555ZM81.2328 28.924C81.2349 28.9509 81.2484 28.9749 81.2627 28.9773C81.277 28.9797 81.281 28.9534 81.2716 28.919C81.2521 28.8475 81.2269 28.8507 81.2328 28.924ZM81.4847 29.4637C81.4866 29.4872 81.5091 29.505 81.5346 29.5033C81.5601 29.5015 81.5648 29.4778 81.545 29.4505C81.5044 29.3945 81.4796 29.4 81.4847 29.4637ZM80.8797 31.2571C80.8376 31.3032 80.8412 31.3095 80.9172 31.3222C81.0093 31.3375 81.0347 31.2976 80.9685 31.2416C80.9454 31.2221 80.9054 31.2291 80.8797 31.2571ZM80.4579 32.2195C80.4613 32.2493 80.4679 32.2548 80.4726 32.2318C80.4772 32.2088 80.5177 32.2013 80.5625 32.2152C80.6358 32.2379 80.6402 32.2351 80.6069 32.1874C80.5611 32.1216 80.4496 32.1457 80.4579 32.2195ZM80.0822 33.0201C80.0851 33.0554 80.0941 33.0543 80.1091 33.0169C80.1259 32.9752 80.137 32.9796 80.1518 33.0339C80.1687 33.0959 80.1746 33.0956 80.1903 33.0322C80.2006 32.991 80.1998 32.9447 80.1887 32.9294C80.159 32.8885 80.0772 32.9582 80.0822 33.0201ZM70.4181 38.9946C70.3737 39.0606 70.3029 39.1413 70.2607 39.1738C70.1825 39.2341 70.0116 39.4653 69.9521 39.5913C69.934 39.6295 69.8666 39.7515 69.8021 39.8625C69.6083 40.1964 69.4964 40.5418 69.4772 40.8658C69.4672 41.0344 69.4695 41.1868 69.4823 41.2044C69.4951 41.2221 69.486 41.2378 69.4621 41.2394C69.4381 41.2411 69.4451 41.3113 69.4776 41.3954C69.5101 41.4796 69.5249 41.557 69.5104 41.5675C69.496 41.578 69.507 41.6359 69.5348 41.6961C69.5626 41.7562 69.5651 41.8146 69.5402 41.8258C69.5154 41.8369 69.5145 41.8835 69.5384 41.9293C69.5661 41.9826 69.5884 41.996 69.6003 41.9666C69.6104 41.9413 69.6342 41.9418 69.6529 41.9676C69.7162 42.0549 69.721 42.1378 69.6636 42.1529C69.6255 42.1629 69.6227 42.1902 69.6553 42.235C69.682 42.2719 69.7181 42.2918 69.7353 42.2793C69.7526 42.2667 69.7872 42.2847 69.8122 42.3192C69.8446 42.3638 69.839 42.3868 69.7926 42.3989C69.7393 42.4129 69.7412 42.4227 69.8034 42.4534C69.8451 42.474 69.9076 42.5412 69.9424 42.6029C69.9885 42.6848 70.0181 42.706 70.052 42.6813C70.0781 42.6624 70.1195 42.6765 70.1462 42.7134C70.1725 42.7496 70.2302 42.797 70.2746 42.8188C70.3189 42.8407 70.3972 42.9082 70.4485 42.9689C70.4998 43.0296 70.6114 43.1115 70.6964 43.1509C70.7815 43.1902 70.8658 43.2428 70.8839 43.2676C70.9019 43.2925 70.9428 43.3114 70.9747 43.3096C71.0066 43.3078 71.101 43.3413 71.1844 43.3839C71.2678 43.4266 71.3588 43.4558 71.3867 43.4489C71.4146 43.4419 71.4473 43.4497 71.4592 43.4662C71.5147 43.5426 72.2128 43.6001 72.3824 43.5423C72.4328 43.5251 72.526 43.5173 72.5894 43.525C72.6949 43.5378 72.7059 43.5315 72.718 43.452C72.7272 43.3912 72.7657 43.3489 72.8461 43.3114C72.9879 43.2451 73.0159 43.2465 72.9868 43.3188C72.968 43.3654 72.9749 43.3746 73.0266 43.3718C73.1102 43.3672 73.3675 43.1907 73.342 43.1555C73.3224 43.1286 73.2438 43.1644 73.171 43.2335C73.1515 43.252 73.1247 43.2522 73.1114 43.2339C73.0853 43.1979 73.217 43.0969 73.3423 43.0569C73.3851 43.0432 73.4357 43.0535 73.4547 43.0798C73.491 43.1298 73.6588 43.0199 73.7279 42.9008C73.7465 42.8688 73.7948 42.8232 73.8353 42.7995C73.8758 42.7757 73.9272 42.707 73.9497 42.6467C73.9721 42.5864 74.0201 42.5244 74.0563 42.509C74.0925 42.4935 74.155 42.4073 74.1952 42.3175C74.2354 42.2276 74.2755 42.1492 74.2844 42.1433C74.333 42.1108 74.4216 41.9362 74.4027 41.9102C74.3906 41.8934 74.4051 41.8466 74.4351 41.8062C74.539 41.666 74.5747 41.487 74.5151 41.4048C74.4834 41.3612 74.4772 41.3242 74.5012 41.3225C74.5252 41.3209 74.5522 41.3464 74.5611 41.3791C74.5952 41.5043 74.6111 41.4057 74.5812 41.2536C74.564 41.1659 74.5632 41.0445 74.5795 40.984C74.613 40.8591 74.5664 40.7661 74.496 40.8172C74.4356 40.8611 74.4026 40.8143 74.395 40.6738C74.3892 40.5669 74.3008 40.4231 74.0547 40.1198C73.9847 40.0336 73.9553 39.9691 73.9739 39.9429C73.9968 39.9106 73.9864 39.897 73.9259 39.8804C73.8599 39.8623 73.8588 39.8564 73.9187 39.8402C73.9572 39.8298 73.9787 39.8074 73.9664 39.7904C73.954 39.7735 73.9299 39.7698 73.9126 39.7823C73.8953 39.7949 73.8552 39.7693 73.8234 39.7255C73.7917 39.6817 73.7794 39.636 73.7961 39.6239C73.8128 39.6117 73.8012 39.5818 73.7704 39.5575C73.7395 39.5331 73.7544 39.5332 73.8034 39.5578C73.9052 39.6089 73.9623 39.5867 73.911 39.5161C73.892 39.4899 73.8976 39.453 73.9235 39.4342C73.9831 39.3909 73.9713 39.3758 73.8359 39.3234C73.7532 39.2913 73.7284 39.2654 73.7355 39.2181C73.7467 39.1444 73.7122 39.0836 73.6902 39.1383C73.6818 39.159 73.6459 39.1518 73.6103 39.1224C73.5613 39.0819 73.5606 39.0649 73.6074 39.0526C73.6519 39.041 73.6536 39.026 73.6134 38.9996C73.5826 38.9793 73.5472 38.9488 73.5348 38.9317C73.5224 38.9146 73.5045 38.9197 73.4951 38.943C73.4857 38.9664 73.4674 38.9708 73.4543 38.9529C73.4413 38.9349 73.4475 38.885 73.4682 38.8418C73.5009 38.7733 73.493 38.7559 73.4052 38.7035C73.3013 38.6415 72.9842 38.5059 72.9319 38.5011C72.9156 38.4996 72.7874 38.4606 72.6471 38.4145C72.3949 38.3315 72.0373 38.2754 71.9881 38.3111C71.9741 38.3212 71.8957 38.3235 71.8138 38.3161C71.7319 38.3088 71.6358 38.3221 71.6003 38.3458C71.5019 38.4115 71.2815 38.4654 71.2541 38.4306C71.2408 38.4135 71.1901 38.4259 71.1416 38.458C71.093 38.4902 71.0444 38.519 71.0334 38.5221C70.9379 38.5489 70.4826 38.8986 70.4181 38.9946ZM73.3185 38.7877C73.3154 38.8077 73.3237 38.8389 73.3368 38.857C73.3513 38.8769 73.3646 38.8644 73.3705 38.8253C73.3759 38.7897 73.3676 38.7585 73.3521 38.7559C73.3367 38.7533 73.3215 38.7676 73.3185 38.7877ZM74.2024 40.5726C74.2308 40.6086 74.2437 40.6107 74.2353 40.5781C74.2277 40.5485 74.2066 40.5218 74.1885 40.5188C74.1704 40.5158 74.1767 40.54 74.2024 40.5726ZM74.4914 40.5086C74.5198 40.5446 74.5327 40.5468 74.5243 40.5141C74.5167 40.4846 74.4956 40.4579 74.4776 40.4549C74.4595 40.4519 74.4657 40.4761 74.4914 40.5086Z" fill="white"/>
<path opacity="0.7" fill-rule="evenodd" clip-rule="evenodd" d="M10.8498 196.945C10.8514 196.954 10.7849 197.116 10.7022 197.304C10.5165 197.727 10.5262 197.701 10.5109 197.827C10.5003 197.914 10.4939 197.922 10.4728 197.876C10.4523 197.831 10.4491 197.834 10.4564 197.892C10.4614 197.931 10.4469 197.988 10.4243 198.019C10.4017 198.05 10.3976 198.086 10.4151 198.099C10.4325 198.112 10.4368 198.131 10.4246 198.142C10.4124 198.153 10.3892 198.217 10.3731 198.284C10.3571 198.352 10.3235 198.452 10.2984 198.507C10.2734 198.561 10.2598 198.623 10.2683 198.643C10.2768 198.664 10.2634 198.708 10.2385 198.743C10.2136 198.777 10.199 198.85 10.206 198.904C10.2131 198.959 10.2008 199.116 10.1787 199.254C10.1567 199.392 10.1496 199.53 10.163 199.561C10.1764 199.592 10.1699 199.625 10.1484 199.633C10.0894 199.657 10.0794 199.821 10.1345 199.861C10.1611 199.881 10.1654 199.903 10.144 199.912C10.0692 199.942 10.0479 200.134 10.1141 200.182C10.181 200.231 10.1676 200.296 10.0955 200.273C10.0719 200.266 10.0589 200.305 10.0649 200.365C10.0707 200.423 10.072 200.51 10.0678 200.559C10.0636 200.607 10.0798 200.655 10.1036 200.665C10.1315 200.677 10.1231 200.701 10.0804 200.732C10.0344 200.765 10.028 200.791 10.0599 200.814C10.0853 200.833 10.0973 200.879 10.0866 200.917C10.0433 201.073 10.0424 201.257 10.0849 201.288C10.1097 201.306 10.1135 201.373 10.0935 201.437C10.0533 201.566 10.0615 201.679 10.1139 201.717C10.1327 201.73 10.14 201.752 10.1303 201.766C10.0839 201.83 10.1633 202.992 10.2496 203.514C10.2699 203.636 10.2811 203.756 10.2745 203.78C10.2679 203.804 10.2903 203.945 10.3242 204.092C10.3581 204.24 10.3743 204.353 10.3601 204.344C10.346 204.334 10.3509 204.394 10.371 204.477C10.3912 204.559 10.3957 204.602 10.3809 204.572C10.3629 204.534 10.3486 204.534 10.3372 204.57C10.3278 204.6 10.3401 204.639 10.3643 204.657C10.3886 204.674 10.4012 204.734 10.3923 204.788C10.3835 204.843 10.3908 204.894 10.4087 204.901C10.4265 204.909 10.4333 204.956 10.4237 205.005C10.4142 205.055 10.4166 205.103 10.4292 205.112C10.4587 205.133 10.4923 205.358 10.4823 205.468C10.478 205.514 10.4951 205.575 10.5203 205.602C10.5929 205.679 10.6209 205.89 10.5712 205.984C10.5462 206.031 10.5408 206.079 10.5592 206.09C10.6014 206.117 10.6225 206.237 10.5922 206.279C10.5796 206.296 10.5943 206.344 10.6248 206.384C10.6554 206.425 10.7007 206.584 10.7254 206.737C10.7501 206.89 10.794 207.097 10.8228 207.197C10.8516 207.297 10.8869 207.447 10.9012 207.53C10.9154 207.613 10.9409 207.69 10.9579 207.703C10.9748 207.715 11.0149 207.844 11.0469 207.99C11.0837 208.157 11.1387 208.286 11.1963 208.339C11.2465 208.385 11.2936 208.47 11.3011 208.528C11.3086 208.586 11.3371 208.65 11.3646 208.67C11.392 208.69 11.4169 208.762 11.4199 208.83C11.4229 208.899 11.4476 208.971 11.4747 208.99C11.514 209.019 11.523 209.011 11.5188 208.953C11.5144 208.891 11.5211 208.894 11.5654 208.974C11.5938 209.025 11.5989 209.079 11.5768 209.093C11.5191 209.13 11.6009 209.238 11.6831 209.233C11.7632 209.229 11.8455 209.332 11.782 209.358C11.7585 209.367 11.7532 209.385 11.7703 209.397C11.7873 209.41 11.815 209.414 11.8318 209.406C11.8485 209.398 11.8424 209.408 11.818 209.428C11.7938 209.448 11.7839 209.489 11.7961 209.519C11.8295 209.602 11.8617 209.616 11.8781 209.553C11.8998 209.471 12.0871 209.641 12.0766 209.734C12.0661 209.827 12.1478 209.885 12.2924 209.889C12.3579 209.891 12.3833 209.901 12.352 209.914C12.3197 209.927 12.3072 209.96 12.3214 209.995C12.3517 210.07 12.3952 210.104 12.3986 210.055C12.4001 210.035 12.439 210.055 12.4851 210.1C12.5375 210.151 12.579 210.167 12.5959 210.144C12.6127 210.121 12.6418 210.133 12.6732 210.175C12.7008 210.212 12.7557 210.241 12.7949 210.239C12.8342 210.237 12.8747 210.255 12.8849 210.279C12.895 210.304 12.9198 210.301 12.9399 210.273C12.96 210.246 12.9928 210.238 13.0126 210.257C13.1061 210.345 13.1411 210.345 13.1766 210.256C13.1965 210.206 13.2317 210.167 13.2548 210.169C13.3142 210.174 13.3774 210.281 13.3317 210.299C13.2634 210.326 13.3496 210.357 13.4836 210.353C13.6331 210.348 13.6887 210.304 13.5871 210.27C13.5328 210.252 13.5326 210.247 13.5862 210.248C13.6235 210.249 13.6659 210.268 13.6805 210.29C13.6952 210.312 13.7544 210.321 13.8122 210.31C13.8699 210.298 13.9372 210.303 13.9616 210.321C13.986 210.338 14.0628 210.319 14.1322 210.277C14.2017 210.236 14.2665 210.213 14.2764 210.226C14.2862 210.24 14.3005 210.245 14.3082 210.237C14.3575 210.189 14.5063 210.143 14.5187 210.173C14.5359 210.214 14.6243 210.165 14.6863 210.08C14.7095 210.048 14.7639 210.034 14.8072 210.049C14.8505 210.063 14.887 210.059 14.8884 210.038C14.8898 210.018 14.9454 209.986 15.012 209.968C15.0785 209.95 15.1401 209.908 15.1488 209.874C15.1588 209.836 15.194 209.824 15.2437 209.841C15.2923 209.857 15.3286 209.845 15.3381 209.809C15.3467 209.776 15.3803 209.743 15.4129 209.734C15.4842 209.714 15.734 209.455 15.958 209.167C16.0668 209.027 16.1432 208.959 16.1869 208.961C16.2409 208.964 16.2475 208.949 16.2245 208.873C16.2091 208.823 16.2136 208.794 16.2344 208.809C16.2552 208.825 16.2832 208.822 16.2964 208.804C16.3097 208.786 16.2967 208.769 16.2676 208.766C16.2338 208.763 16.2333 208.754 16.2663 208.741C16.2954 208.729 16.313 208.676 16.3065 208.619C16.2998 208.561 16.3104 208.529 16.3317 208.544C16.3519 208.559 16.3581 208.585 16.3456 208.603C16.333 208.62 16.3371 208.644 16.3546 208.657C16.3721 208.67 16.4075 208.651 16.4334 208.616C16.4592 208.58 16.4597 208.549 16.4344 208.547C16.3559 208.541 16.3429 208.456 16.4177 208.438C16.4667 208.426 16.4873 208.397 16.4967 208.326C16.5036 208.274 16.5173 208.25 16.5269 208.273C16.5611 208.355 16.6424 208.251 16.6211 208.153C16.5961 208.037 16.6224 207.98 16.6683 208.05C16.6944 208.09 16.716 208.065 16.7906 207.91C16.8403 207.806 16.88 207.699 16.8786 207.672C16.8772 207.644 16.9177 207.547 16.9685 207.456C17.0192 207.366 17.0596 207.265 17.0581 207.234C17.0552 207.172 17.1372 206.883 17.1726 206.83C17.1845 206.813 17.1957 206.778 17.1977 206.753C17.1997 206.728 17.2251 206.653 17.2543 206.587C17.2835 206.521 17.2926 206.444 17.2746 206.416C17.2565 206.389 17.2561 206.352 17.2735 206.335C17.3265 206.283 17.4374 206.02 17.4342 205.954C17.4326 205.92 17.4132 205.891 17.391 205.889C17.3689 205.887 17.3749 205.87 17.4043 205.852C17.4337 205.833 17.4512 205.778 17.4433 205.73C17.4354 205.682 17.4461 205.635 17.4671 205.627C17.5175 205.607 17.5394 205.434 17.5045 205.333C17.4892 205.288 17.4964 205.229 17.5204 205.2C17.5445 205.172 17.5667 205.088 17.5697 205.014C17.5728 204.94 17.592 204.847 17.6124 204.807C17.6327 204.768 17.6419 204.717 17.6327 204.695C17.6116 204.645 17.6652 204.239 17.6906 204.258C17.701 204.265 17.7071 204.238 17.7042 204.196C17.7013 204.155 17.6829 204.12 17.6634 204.118C17.6439 204.116 17.6255 204.081 17.6226 204.04C17.6197 203.999 17.599 203.964 17.5766 203.962C17.5542 203.96 17.5456 203.945 17.5576 203.929C17.5695 203.913 17.5512 203.866 17.5169 203.825C17.4827 203.784 17.4621 203.723 17.4712 203.688C17.4807 203.652 17.4952 203.643 17.5052 203.667C17.5149 203.691 17.5476 203.678 17.5779 203.639C17.6083 203.6 17.6275 203.591 17.6205 203.62C17.6136 203.648 17.6254 203.707 17.6468 203.75C17.6849 203.828 17.6858 203.827 17.6929 203.699C17.7161 203.277 17.6932 203.169 17.5842 203.185C17.4959 203.198 17.4963 203.151 17.5851 203.093C17.6364 203.06 17.6847 203.009 17.6924 202.98C17.7118 202.906 17.6172 202.844 17.5749 202.902C17.5561 202.928 17.5283 202.94 17.5133 202.93C17.4769 202.903 17.6306 202.76 17.6915 202.764C17.7458 202.767 17.7691 202.54 17.7184 202.503C17.6776 202.474 17.6165 202.559 17.6392 202.613C17.66 202.663 17.6249 202.723 17.5898 202.697C17.5765 202.688 17.5525 202.615 17.5364 202.537C17.5071 202.393 17.5449 202.281 17.6076 202.327C17.6261 202.34 17.6235 202.358 17.6017 202.367C17.5417 202.391 17.5814 202.449 17.6483 202.435C17.7262 202.419 17.7629 202.362 17.7492 202.279C17.7402 202.224 17.7299 202.222 17.6976 202.266C17.6662 202.309 17.6449 202.305 17.6017 202.247C17.5712 202.206 17.5472 202.152 17.5485 202.127C17.5498 202.102 17.5257 202.079 17.495 202.077C17.4547 202.073 17.4586 202.058 17.5089 202.021C17.5518 201.99 17.5651 201.96 17.5434 201.944C17.5197 201.927 17.5302 201.908 17.5745 201.888C17.6925 201.835 17.6994 201.733 17.592 201.634C17.5182 201.566 17.4881 201.556 17.4779 201.594C17.4703 201.623 17.4502 201.637 17.4332 201.624C17.4163 201.612 17.3876 201.622 17.3695 201.647C17.3514 201.672 17.3114 201.689 17.2805 201.686C17.2496 201.682 17.2433 201.676 17.2666 201.671C17.2898 201.666 17.3066 201.632 17.304 201.595C17.3003 201.542 17.3117 201.536 17.3535 201.566C17.3834 201.588 17.414 201.583 17.4217 201.556C17.4293 201.528 17.418 201.498 17.3965 201.489C17.3415 201.464 17.4561 201.366 17.558 201.351C17.6746 201.334 17.6913 201.3 17.5777 201.311C17.5272 201.316 17.4713 201.31 17.4534 201.298C17.4355 201.286 17.3946 201.302 17.3626 201.334C17.3156 201.381 17.3007 201.378 17.286 201.322C17.2656 201.244 17.3233 201.138 17.3504 201.203C17.3763 201.265 17.5305 201.122 17.5181 201.047C17.5101 200.999 17.4941 200.989 17.4505 201.007C17.406 201.024 17.3842 201.011 17.3517 200.945C17.3288 200.898 17.3199 200.846 17.332 200.829C17.3639 200.786 17.4145 200.833 17.4 200.893C17.3906 200.931 17.4044 200.938 17.4556 200.921C17.5476 200.891 17.5523 200.881 17.5358 200.753C17.5263 200.679 17.494 200.63 17.4412 200.609C17.379 200.585 17.3657 200.591 17.3821 200.638C17.3988 200.686 17.3953 200.689 17.3648 200.651C17.3385 200.618 17.3549 200.567 17.4167 200.488C17.4736 200.415 17.4858 200.381 17.4497 200.395C17.4045 200.413 17.3892 200.393 17.3771 200.299C17.3687 200.234 17.3806 200.172 17.4037 200.163C17.4684 200.137 17.4311 200.127 17.3087 200.136C17.2476 200.141 17.186 200.161 17.1718 200.181C17.1576 200.2 17.1311 200.205 17.113 200.192C17.0903 200.176 17.104 200.157 17.1571 200.131C17.2738 200.076 17.2744 200.057 17.1616 199.997C17.1005 199.965 17.0748 199.936 17.0989 199.926C17.123 199.917 17.1016 199.892 17.0474 199.866C16.9815 199.835 16.968 199.814 17.0004 199.793C17.0545 199.758 17.0198 199.501 16.9546 199.453C16.9295 199.435 16.9238 199.404 16.9419 199.384C16.96 199.364 16.9645 199.332 16.952 199.313C16.9394 199.293 16.9416 199.223 16.9568 199.157C16.972 199.091 16.9634 199.035 16.9377 199.033C16.8538 199.026 16.8491 198.947 16.9302 198.908C16.9749 198.887 16.9985 198.857 16.9889 198.833C16.9799 198.812 16.9543 198.807 16.9318 198.823C16.9064 198.841 16.8863 198.801 16.8783 198.716C16.8702 198.63 16.8417 198.574 16.8006 198.563C16.7432 198.547 16.7452 198.543 16.8183 198.529C16.8754 198.518 16.9 198.529 16.8978 198.565C16.8957 198.598 16.9165 198.601 16.9572 198.575C16.9928 198.552 17.014 198.506 17.0062 198.468C16.9955 198.416 16.9911 198.415 16.9861 198.462C16.9816 198.504 16.9652 198.506 16.929 198.466C16.8989 198.433 16.898 198.392 16.9268 198.364C16.9791 198.313 16.9395 198.261 16.87 198.289C16.8198 198.309 16.7724 198.223 16.7392 198.053C16.7267 197.989 16.6992 197.924 16.678 197.909C16.6569 197.894 16.6548 197.879 16.6734 197.876C16.7069 197.871 16.6994 197.733 16.6642 197.707C16.6542 197.7 16.6307 197.715 16.6118 197.741C16.593 197.767 16.5618 197.776 16.5424 197.762C16.523 197.748 16.5304 197.722 16.5586 197.704C16.598 197.678 16.5842 197.653 16.4993 197.596C16.4385 197.555 16.3694 197.472 16.346 197.411C16.3225 197.35 16.2808 197.284 16.2535 197.264C16.226 197.244 16.2096 197.205 16.2168 197.178C16.2361 197.104 16.058 196.964 16.017 197.021C15.9974 197.048 15.9706 197.044 15.9498 197.013C15.9308 196.984 15.9292 196.941 15.9462 196.917C15.9847 196.864 15.9194 196.725 15.8371 196.683C15.8035 196.667 15.7867 196.634 15.7997 196.61C15.8129 196.587 15.8321 196.552 15.8424 196.533C15.8528 196.515 15.8388 196.483 15.8113 196.463C15.7472 196.416 15.5961 196.436 15.6324 196.486C15.6478 196.507 15.6094 196.535 15.5379 196.553C15.4429 196.577 15.4149 196.57 15.4058 196.517C15.3966 196.464 15.4081 196.454 15.4615 196.469C15.5107 196.482 15.5398 196.461 15.5696 196.39C15.6351 196.233 15.603 196.143 15.4389 196.024C15.3074 195.928 15.2957 195.908 15.3435 195.859C15.3971 195.803 15.3965 195.803 15.3058 195.828C15.2551 195.841 15.2111 195.838 15.2081 195.819C15.205 195.801 15.1538 195.773 15.0941 195.758C15.0345 195.743 14.9245 195.682 14.8496 195.622C14.7741 195.563 14.6916 195.523 14.6644 195.534C14.6361 195.546 14.6387 195.509 14.6707 195.448C14.7011 195.39 14.7317 195.356 14.7386 195.373C14.7456 195.389 14.7748 195.388 14.8036 195.369C14.8414 195.345 14.834 195.32 14.7775 195.279C14.7343 195.247 14.687 195.238 14.6723 195.258C14.6577 195.278 14.643 195.279 14.6398 195.259C14.6366 195.24 14.5755 195.235 14.5041 195.248C14.4327 195.262 14.3549 195.259 14.3313 195.242C14.3077 195.225 14.259 195.215 14.2229 195.22C14.1719 195.228 14.1635 195.222 14.1847 195.193C14.1998 195.172 14.1922 195.14 14.1678 195.123C14.1181 195.087 14.0137 195.14 14.0092 195.203C14.0076 195.226 13.9912 195.234 13.9727 195.22C13.9542 195.207 13.8449 195.21 13.73 195.227C13.484 195.264 13.3415 195.241 13.4381 195.18C13.5417 195.114 13.5526 195.096 13.5181 195.045C13.4951 195.011 13.4796 195.016 13.4676 195.062C13.4451 195.147 13.1419 195.216 13.0471 195.157C12.9887 195.121 12.9896 195.103 13.0521 195.051C13.1319 194.985 13.0994 194.931 12.9741 194.922C12.8967 194.917 12.7784 195.023 12.8245 195.056C12.8419 195.069 12.8715 195.058 12.8903 195.032C12.9092 195.006 12.9389 194.996 12.9564 195.008C12.9739 195.021 12.9574 195.074 12.9197 195.126C12.8675 195.197 12.8368 195.209 12.7903 195.175C12.7532 195.148 12.6861 195.156 12.6187 195.194C12.5578 195.229 12.4963 195.249 12.4821 195.239C12.4678 195.228 12.4547 195.24 12.453 195.265C12.4512 195.291 12.4371 195.302 12.4216 195.291C12.3838 195.263 12.0148 195.465 12.022 195.51C12.0252 195.529 11.9987 195.558 11.9633 195.575C11.8262 195.64 11.6758 195.81 11.2689 196.359C11.0369 196.672 10.8483 196.936 10.8498 196.945ZM15.2497 196.27C15.2705 196.32 15.3675 196.268 15.3905 196.194C15.4006 196.162 15.3754 196.159 15.319 196.186C15.2616 196.213 15.238 196.242 15.2497 196.27ZM16.275 196.959C16.2974 196.994 16.3153 196.987 16.3351 196.936C16.3742 196.835 16.3415 196.775 16.2876 196.849C16.263 196.883 16.2574 196.933 16.275 196.959ZM16.4516 197.066C16.4614 197.108 16.4487 197.157 16.4233 197.173C16.398 197.189 16.3926 197.226 16.4113 197.254C16.4308 197.284 16.4702 197.29 16.5039 197.269C16.5363 197.248 16.5497 197.213 16.5339 197.191C16.5182 197.17 16.524 197.126 16.5467 197.095C16.5809 197.048 16.5583 196.958 16.5017 196.917C16.4696 196.894 16.4354 196.995 16.4516 197.066ZM16.5232 197.374C16.5488 197.358 16.5674 197.33 16.5644 197.312C16.5614 197.294 16.5404 197.307 16.5177 197.341C16.4927 197.378 16.4948 197.391 16.5232 197.374ZM16.9235 198.663C16.9529 198.684 16.9961 198.694 17.0194 198.685C17.0732 198.663 17.0311 198.633 16.9399 198.627C16.8797 198.623 16.8775 198.628 16.9235 198.663ZM17.1288 199.217C17.1617 199.267 17.168 199.266 17.1594 199.213C17.1534 199.175 17.1347 199.147 17.1179 199.15C17.1011 199.152 17.106 199.183 17.1288 199.217ZM16.9264 199.649C16.9361 199.672 16.9544 199.677 16.9669 199.66C16.9795 199.642 16.9818 199.609 16.972 199.586C16.9623 199.562 16.9441 199.557 16.9315 199.575C16.919 199.592 16.9167 199.625 16.9264 199.649ZM17.2272 199.408C17.2653 199.433 17.2783 199.432 17.2602 199.403C17.2438 199.377 17.2155 199.358 17.1974 199.361C17.1793 199.364 17.1927 199.385 17.2272 199.408ZM17.2151 199.787C17.2326 199.799 17.2623 199.789 17.2811 199.763C17.3 199.737 17.3011 199.705 17.2836 199.693C17.2661 199.68 17.2363 199.691 17.2175 199.717C17.1987 199.742 17.1976 199.774 17.2151 199.787ZM17.2672 199.982C17.3439 200.075 17.3916 200.034 17.3306 199.927C17.2885 199.853 17.2714 199.843 17.2466 199.877C17.2296 199.901 17.2388 199.948 17.2672 199.982ZM17.1295 201.045C17.1398 201.07 17.1601 201.089 17.1744 201.087C17.1887 201.085 17.1844 201.058 17.1648 201.029C17.1242 200.967 17.1012 200.977 17.1295 201.045ZM17.5357 201.481C17.5448 201.503 17.5716 201.513 17.5954 201.503C17.6191 201.494 17.6162 201.47 17.5889 201.45C17.5331 201.409 17.5112 201.422 17.5357 201.481ZM17.5139 203.374C17.488 203.43 17.4935 203.435 17.5697 203.424C17.662 203.41 17.6738 203.364 17.5935 203.331C17.5655 203.32 17.5297 203.339 17.5139 203.374ZM17.4098 204.419C17.4222 204.446 17.4302 204.45 17.4275 204.426C17.4248 204.403 17.461 204.383 17.5079 204.383C17.5847 204.382 17.588 204.378 17.5416 204.343C17.4777 204.294 17.3791 204.352 17.4098 204.419ZM17.2996 205.297C17.3132 205.329 17.3214 205.325 17.3242 205.285C17.3273 205.24 17.3391 205.241 17.37 205.288C17.4052 205.342 17.4108 205.34 17.4062 205.275C17.4032 205.232 17.3882 205.189 17.3728 205.177C17.332 205.148 17.2757 205.239 17.2996 205.297ZM9.95184 213.963C9.93005 214.039 9.88759 214.138 9.85745 214.182C9.80169 214.263 9.71053 214.536 9.69279 214.674C9.68744 214.716 9.66095 214.853 9.63391 214.978C9.55263 215.356 9.55284 215.719 9.6346 216.033C9.67715 216.196 9.72637 216.341 9.74399 216.353C9.76162 216.366 9.7578 216.384 9.73554 216.393C9.71326 216.402 9.74157 216.467 9.79846 216.537C9.85532 216.607 9.89331 216.676 9.88279 216.69C9.87229 216.705 9.90059 216.756 9.94565 216.805C9.99073 216.853 10.0111 216.908 9.99088 216.927C9.97068 216.945 9.98425 216.989 10.0211 217.026C10.0638 217.068 10.0893 217.074 10.0915 217.042C10.0933 217.015 10.116 217.008 10.1419 217.027C10.229 217.09 10.2592 217.168 10.2092 217.2C10.1761 217.221 10.1818 217.248 10.2266 217.28C10.2635 217.307 10.3039 217.315 10.3164 217.298C10.329 217.28 10.3674 217.287 10.4019 217.312C10.4465 217.344 10.4482 217.368 10.4079 217.394C10.3614 217.424 10.3663 217.432 10.4349 217.442C10.4809 217.449 10.5612 217.494 10.6133 217.542C10.6825 217.605 10.7171 217.616 10.7418 217.582C10.7607 217.556 10.8045 217.557 10.8413 217.584C10.8774 217.61 10.947 217.637 10.9959 217.644C11.0448 217.652 11.1401 217.692 11.2077 217.733C11.2753 217.775 11.4066 217.819 11.4997 217.83C11.5927 217.841 11.6892 217.865 11.714 217.883C11.7388 217.901 11.7835 217.907 11.8133 217.895C11.8432 217.884 11.9432 217.886 12.0357 217.901C12.1282 217.916 12.2239 217.916 12.2483 217.9C12.2726 217.885 12.3061 217.882 12.3226 217.894C12.3989 217.95 13.0807 217.789 13.2241 217.682C13.2667 217.65 13.353 217.614 13.4157 217.601C13.52 217.581 13.5285 217.572 13.5154 217.492C13.5054 217.432 13.529 217.38 13.5938 217.319C13.7083 217.212 13.7354 217.205 13.73 217.283C13.7265 217.333 13.7359 217.339 13.7843 217.321C13.8623 217.291 14.0526 217.043 14.0174 217.018C13.9905 216.998 13.9268 217.057 13.8789 217.145C13.866 217.168 13.8406 217.177 13.8223 217.163C13.7863 217.137 13.8804 217.001 13.9873 216.924C14.0237 216.898 14.0751 216.892 14.1013 216.911C14.1513 216.947 14.2769 216.791 14.3059 216.656C14.3137 216.62 14.3456 216.562 14.3767 216.527C14.4079 216.492 14.4357 216.41 14.4384 216.346C14.4411 216.282 14.4676 216.208 14.4973 216.182C14.5269 216.156 14.5598 216.055 14.5703 215.957C14.5808 215.859 14.5948 215.772 14.6014 215.764C14.6375 215.718 14.6679 215.525 14.6419 215.506C14.6252 215.494 14.6246 215.445 14.6406 215.397C14.6962 215.231 14.6749 215.05 14.5928 214.99C14.5492 214.959 14.5318 214.925 14.5542 214.916C14.5765 214.907 14.61 214.923 14.6286 214.952C14.6997 215.06 14.6843 214.962 14.609 214.826C14.5656 214.748 14.5274 214.633 14.5241 214.57C14.5175 214.441 14.4444 214.367 14.3932 214.437C14.3493 214.498 14.3035 214.463 14.2529 214.332C14.2143 214.232 14.0859 214.123 13.7582 213.91C13.665 213.85 13.6171 213.798 13.6267 213.767C13.6385 213.729 13.6245 213.719 13.5618 213.722C13.4934 213.725 13.4906 213.72 13.5425 213.686C13.5759 213.664 13.5894 213.637 13.5725 213.624C13.5555 213.612 13.5314 213.616 13.5189 213.633C13.5063 213.65 13.4603 213.638 13.4165 213.607C13.3728 213.575 13.3469 213.535 13.3591 213.518C13.3713 213.502 13.351 213.477 13.3142 213.463C13.2773 213.45 13.2915 213.445 13.3457 213.453C13.4583 213.47 13.5057 213.432 13.4352 213.38C13.409 213.361 13.4029 213.325 13.4217 213.299C13.4651 213.239 13.4492 213.228 13.3042 213.22C13.2157 213.215 13.184 213.198 13.1763 213.151C13.1641 213.078 13.1126 213.03 13.1085 213.089C13.1069 213.111 13.0705 213.116 13.0276 213.099C12.9685 213.075 12.9626 213.059 13.0033 213.033C13.042 213.008 13.039 212.994 12.9926 212.981C12.9571 212.971 12.914 212.953 12.8969 212.941C12.8798 212.928 12.8644 212.939 12.8627 212.964C12.8609 212.989 12.8448 212.999 12.8269 212.986C12.809 212.973 12.7995 212.923 12.8058 212.876C12.8158 212.8 12.8028 212.786 12.7032 212.764C12.5852 212.737 12.2417 212.706 12.1905 212.717C12.1745 212.721 12.0406 212.723 11.8929 212.723C11.6274 212.722 11.27 212.779 11.2342 212.828C11.224 212.842 11.1501 212.868 11.0699 212.886C10.9897 212.905 10.9025 212.947 10.876 212.981C10.8027 213.073 10.6097 213.193 10.5729 213.168C10.555 213.156 10.5106 213.183 10.4744 213.229C10.4381 213.275 10.4007 213.317 10.3913 213.323C10.3087 213.378 9.98354 213.851 9.95184 213.963ZM12.6467 212.87C12.65 212.89 12.6675 212.918 12.6856 212.931C12.7055 212.945 12.7142 212.929 12.7078 212.89C12.7019 212.855 12.6844 212.828 12.6689 212.83C12.6534 212.832 12.6434 212.85 12.6467 212.87ZM14.0384 214.295C14.0766 214.321 14.0895 214.319 14.0715 214.29C14.0551 214.265 14.0268 214.246 14.0087 214.248C13.9905 214.251 14.0039 214.272 14.0384 214.295ZM14.2936 214.145C14.3318 214.171 14.3447 214.169 14.3266 214.14C14.3103 214.115 14.282 214.096 14.2638 214.098C14.2457 214.101 14.2591 214.122 14.2936 214.145Z" fill="white"/>
<defs>
<filter id="filter0_dii_8_15381" x="-3.31268" y="-1.1037" width="257.202" height="286.561" filterUnits="userSpaceOnUse" color-interpolation-filters="sRGB">
<feFlood flood-opacity="0" result="BackgroundImageFix"/>
<feColorMatrix in="SourceAlpha" type="matrix" values="0 0 0 0 0 0 0 0 0 0 0 0 0 0 0 0 0 0 127 0" result="hardAlpha"/>
<feOffset dx="6.62429" dy="4.4162"/>
<feGaussianBlur stdDeviation="3.86417"/>
<feComposite in2="hardAlpha" operator="out"/>
<feColorMatrix type="matrix" values="0 0 0 0 0 0 0 0 0 0 0 0 0 0 0 0 0 0 0.44 0"/>
<feBlend mode="normal" in2="BackgroundImageFix" result="effect1_dropShadow_8_15381"/>
<feBlend mode="normal" in="SourceGraphic" in2="effect1_dropShadow_8_15381" result="shape"/>
<feColorMatrix in="SourceAlpha" type="matrix" values="0 0 0 0 0 0 0 0 0 0 0 0 0 0 0 0 0 0 127 0" result="hardAlpha"/>
<feOffset dx="-4.4162" dy="-4.4162"/>
<feGaussianBlur stdDeviation="2.2081"/>
<feComposite in2="hardAlpha" operator="arithmetic" k2="-1" k3="1"/>
<feColorMatrix type="matrix" values="0 0 0 0 0 0 0 0 0 0 0 0 0 0 0 0 0 0 0.25 0"/>
<feBlend mode="normal" in2="shape" result="effect2_innerShadow_8_15381"/>
<feColorMatrix in="SourceAlpha" type="matrix" values="0 0 0 0 0 0 0 0 0 0 0 0 0 0 0 0 0 0 127 0" result="hardAlpha"/>
<feOffset dx="6.62429" dy="6.62429"/>
<feGaussianBlur stdDeviation="2.2081"/>
<feComposite in2="hardAlpha" operator="arithmetic" k2="-1" k3="1"/>
<feColorMatrix type="matrix" values="0 0 0 0 1 0 0 0 0 1 0 0 0 0 1 0 0 0 0.42 0"/>
<feBlend mode="normal" in2="effect2_innerShadow_8_15381" result="effect3_innerShadow_8_15381"/>
</filter>
</defs>
</svg>
