<svg width="257" height="289" viewBox="0 0 257 289" fill="none" xmlns="http://www.w3.org/2000/svg">
<g filter="url(#filter0_dii_8_15474)">
<path d="M99.8184 3.32681L103.117 3.50088C104.083 3.55199 105.04 3.55826 105.989 3.51938L109.247 3.38567C110.993 3.31414 112.691 3.6356 114.289 4.34009L117.272 5.6544C118.274 6.09596 119.265 6.53695 120.246 6.97628L123.165 8.28303C124.483 8.87349 125.706 9.62775 126.826 10.5391L129.31 12.5598C130.175 13.2637 131.037 13.9891 131.895 14.7352L134.367 16.8837C135.62 17.9725 136.625 19.2725 137.363 20.7577L138.817 23.6873C139.376 24.8128 139.867 25.9657 140.29 27.1451L141.39 30.2093C141.912 31.6668 142.192 33.1784 142.224 34.7257L142.253 36.1132L143.228 36.3007C143.751 36.4012 144.349 36.4314 145.041 36.3579L148.279 36.014C149.707 35.8622 151.138 35.8845 152.563 36.0804L155.8 36.5252C156.507 36.6224 157.209 36.6273 157.914 36.5395L161.152 36.1367C162.387 35.9829 163.624 35.8967 164.863 35.8794L168.101 35.8348C169.454 35.816 170.804 35.9248 172.145 36.1594L175.383 36.7262C175.92 36.8201 176.449 36.8123 177 36.6984L180.244 36.0274C182.075 35.6488 183.918 35.7584 185.691 36.3604L188.804 37.4174C189.854 37.7737 190.895 38.1329 191.928 38.4937L194.992 39.5634C196.556 40.1095 197.967 40.9454 199.201 42.0457L201.655 44.2337C202.922 45.3628 203.918 46.7156 204.614 48.2624L205.953 51.2366C206.491 52.4335 206.931 53.6616 207.27 54.9189L208.104 58.0167C208.473 59.3844 208.673 60.7817 208.705 62.2002L208.778 65.4292C208.806 66.6511 208.771 67.8732 208.674 69.0938L208.42 72.3228C208.341 73.3159 208.292 74.3088 208.271 75.3012L208.206 78.5303C208.187 79.4275 208.225 80.3262 208.319 81.2262L208.656 84.4552C208.769 85.5423 208.879 86.6299 208.984 87.717L209.296 90.946C209.444 92.479 209.347 94.0074 209.013 95.5146L208.3 98.7436C208.124 99.5387 208.034 100.321 208.025 101.096L208.007 102.566L209.51 102.954C210.564 103.226 211.605 103.492 212.632 103.751L215.736 104.535C216.924 104.835 218.101 105.201 219.263 105.632L222.323 106.767C223.787 107.309 225.132 108.077 226.344 109.061L228.883 111.122C230.112 112.12 231.145 113.301 231.966 114.652L233.655 117.433C234.079 118.132 234.568 118.792 235.127 119.417L237.325 121.875C238.429 123.11 239.267 124.52 239.823 126.079L240.929 129.183C241.425 130.574 241.732 132.01 241.847 133.482L242.104 136.76C242.15 137.345 242.182 137.892 242.185 138.355C242.187 138.581 242.182 138.864 242.156 139.158C242.143 139.294 242.09 139.97 241.764 140.711C241.761 140.756 241.757 140.804 241.754 140.857C241.743 141.034 241.733 141.246 241.724 141.495L241.602 144.742C241.538 146.433 241.125 148.057 240.372 149.573L238.924 152.488C238.491 153.36 238.097 154.238 237.742 155.124L236.548 158.102C235.934 159.634 235.033 160.998 233.865 162.167L231.596 164.44C230.86 165.176 230.13 165.922 229.407 166.676L227.177 169.001C226.065 170.16 224.769 171.089 223.313 171.77L220.39 173.137C219.369 173.615 218.334 174.075 217.289 174.519L214.295 175.79C212.985 176.346 211.623 176.744 210.215 176.986L208.625 177.259L208.56 178.031C208.486 178.903 208.415 179.864 208.349 180.915L208.146 184.144C208.101 184.85 208.146 185.561 208.287 186.285L208.912 189.515C209.231 191.162 209.213 192.824 208.86 194.465L208.163 197.694C208.011 198.403 207.958 199.095 207.996 199.78L208.174 203.009C208.231 204.033 208.307 205.057 208.401 206.082L208.7 209.311C208.817 210.587 208.845 211.865 208.783 213.142L208.626 216.368C208.573 217.467 208.509 218.573 208.437 219.687L208.224 222.96C208.098 224.893 207.431 226.681 206.258 228.225L204.272 230.838C203.601 231.722 202.929 232.597 202.257 233.461L200.272 236.016C199.115 237.504 197.613 238.603 195.841 239.255L192.802 240.373C191.582 240.822 190.344 241.172 189.09 241.419L186.022 242.024C185.066 242.213 184.08 242.43 183.066 242.677L179.85 243.459C178.427 243.806 176.982 243.971 175.525 243.946L172.288 243.892C171.174 243.873 170.06 243.841 168.947 243.796L165.71 243.664C164.455 243.613 163.202 243.486 161.953 243.283L158.716 242.756C158.04 242.647 157.374 242.634 156.705 242.717L153.467 243.118C152.023 243.297 150.574 243.291 149.13 243.1L145.893 242.672C145.082 242.565 144.277 242.536 143.472 242.582L141.946 242.67L141.622 244.294C141.422 245.298 141.253 246.293 141.117 247.278L140.672 250.495C140.453 252.079 139.959 253.586 139.198 254.993L137.649 257.86C136.985 259.087 136.196 260.231 135.285 261.287L133.162 263.748C132.187 264.878 131.067 265.853 129.812 266.66L127.098 268.407C126.304 268.918 125.528 269.467 124.772 270.056L122.201 272.061C120.72 273.215 119.005 273.917 117.14 274.137L113.894 274.519C112.943 274.63 112.012 274.784 111.101 274.979L107.966 275.649C106.682 275.923 105.374 276.089 104.046 276.15L100.752 276.3C98.9759 276.382 97.2495 276.052 95.6289 275.323L92.6248 273.972C91.4852 273.459 90.3845 272.892 89.3248 272.27L86.5585 270.646C85.5018 270.026 84.4818 269.35 83.4997 268.62L80.9298 266.708C79.9735 265.997 79.0395 265.237 78.1281 264.432L75.6577 262.249C74.3495 261.093 73.3428 259.691 72.6672 258.083L71.3932 255.051C70.8453 253.747 70.4487 252.4 70.2095 251.015L69.6606 247.839C69.4764 246.772 69.297 245.713 69.1218 244.661L68.8605 243.096L68.8402 242.976L68.6303 242.94L67.0174 242.659C66.4362 242.558 65.8622 242.558 65.273 242.661L62.0354 243.226C60.553 243.484 59.0582 243.531 57.5651 243.361L54.3275 242.994C53.6035 242.911 52.8816 242.918 52.1548 243.016L48.9172 243.452C47.556 243.635 46.1892 243.683 44.8221 243.594L41.5845 243.384C40.6377 243.322 39.6909 243.304 38.7448 243.33L35.5072 243.418C34.3676 243.449 33.227 243.456 32.0858 243.439L28.8432 243.39C27.5872 243.372 26.331 243.277 25.0761 243.107L21.8165 242.666C20.0546 242.427 18.4156 241.792 16.9559 240.776L14.2714 238.909C13.176 238.146 12.1584 237.301 11.2244 236.372L8.97321 234.133C8.02736 233.192 7.1756 232.166 6.41854 231.058L4.59823 228.393C3.68635 227.059 3.04544 225.591 2.68096 224.017L1.94491 220.839C1.57856 219.258 1.51254 217.649 1.74593 216.043L2.21724 212.802C2.30559 212.194 2.29307 211.594 2.17761 210.982L1.56719 207.753C1.31092 206.397 1.1916 205.031 1.21308 203.66L1.26366 200.431C1.28225 199.246 1.3465 198.06 1.45505 196.877L1.75099 193.648C1.85123 192.554 1.95804 191.461 2.07138 190.368L2.4061 187.139C2.48272 186.4 2.47214 185.662 2.37322 184.92L1.94238 181.691C1.77733 180.452 1.68433 179.21 1.66331 177.967L1.6085 174.738C1.5878 173.513 1.86679 172.046 2.86476 170.745C3.86755 169.438 5.22415 168.784 6.4354 168.491L9.54401 167.74C10.4863 167.513 11.4133 167.256 12.3246 166.969L15.3413 166.021C16.3873 165.692 17.4572 165.373 18.5503 165.063L21.7162 164.165C21.9433 164.101 22.084 164.01 22.2339 163.832L24.351 161.323C25.2168 160.296 26.1646 159.351 27.1932 158.492L29.7006 156.397C30.1039 156.06 30.4176 155.671 30.6618 155.206L32.1794 152.317C32.5031 151.701 32.7326 151.063 32.8741 150.395L33.5461 147.226C33.763 146.203 33.9673 145.179 34.1591 144.156L34.7535 140.988C34.8711 140.36 34.8916 139.733 34.8159 139.095L34.4356 135.886C34.3127 134.849 34.1769 133.803 34.0275 132.748L33.5655 129.489C33.5111 129.105 33.381 128.785 33.1499 128.47L31.1997 125.811C30.4692 124.815 29.7883 123.789 29.1585 122.733L27.4807 119.919C27.2341 119.505 26.9271 119.176 26.533 118.901L23.8443 117.026C23.1328 116.53 22.3997 116.101 21.6437 115.736L18.7442 114.335C18.0318 113.991 17.3033 113.725 16.5563 113.533L13.4747 112.74C12.3599 112.453 11.2417 112.128 10.1199 111.765L6.99692 110.756C4.83616 110.057 2.78135 108.404 2.28216 105.582L1.81507 102.939C1.59359 101.686 1.53497 100.38 1.60007 99.0463L1.75774 95.8173C1.80773 94.7934 1.83882 93.7693 1.85132 92.7455L1.89095 89.5165C1.90467 88.3929 1.93691 87.2689 1.98791 86.1454L2.13461 82.9164C2.16778 82.1857 2.11393 81.449 1.96852 80.7006L1.34039 77.4716C1.02711 75.8592 1.02457 74.2313 1.3328 72.618L1.94997 69.3889C2.08085 68.704 2.11259 68.0318 2.0503 67.3615L1.75015 64.13C1.5961 62.4728 1.77736 60.8334 2.29734 59.2503L3.29981 56.1987C3.64573 55.1457 4.00391 54.1008 4.3748 53.0656L5.44894 50.0686C6.02028 48.4739 6.9164 47.0571 8.10816 45.8532L10.3669 43.5719C11.3964 42.532 12.552 41.6465 13.8246 40.9248L16.6043 39.3481C17.9303 38.5962 19.3492 38.0677 20.8444 37.7706L23.9648 37.1508C25.2824 36.8891 26.6183 36.7571 27.968 36.7539L31.1887 36.7464C32.228 36.7439 33.2706 36.7289 34.3159 36.7018L37.5535 36.6177C38.6534 36.5892 39.7536 36.569 40.8535 36.5563L44.0911 36.5185C45.0747 36.5072 46.0593 36.4638 47.0437 36.3873L50.2813 36.1359C51.6641 36.0285 53.0469 36.067 54.4245 36.2502L57.6621 36.6808C58.4697 36.7882 59.2733 36.8179 60.0751 36.7708L63.3127 36.5799C64.4134 36.5151 65.5144 36.4589 66.6152 36.4109L68.0603 36.3469L68.2542 35.3387C68.4343 34.3986 68.6156 33.4028 68.7981 32.351L69.3571 29.1279C69.6172 27.6282 70.0967 26.1928 70.7887 24.8351L72.2827 21.9046C73.0127 20.4725 73.9771 19.2021 75.162 18.1139L77.5792 15.8931C78.2202 15.3044 78.8166 14.6661 79.3675 13.9759L81.4315 11.3893C82.6689 9.83893 84.2892 8.74668 86.1892 8.17623L89.3737 7.22014C90.1123 6.99841 90.8097 6.69692 91.4714 6.31282L94.3364 4.64953C96.015 3.67499 97.8763 3.22412 99.8184 3.32681Z" fill="#FF8CB7"/>
</g>
<path opacity="0.7" fill-rule="evenodd" clip-rule="evenodd" d="M77.3628 23.3043C77.3614 23.3136 77.247 23.4483 77.1086 23.6038C76.7979 23.953 76.8155 23.9306 76.7615 24.0468C76.7242 24.1271 76.7155 24.133 76.7095 24.0821C76.7037 24.0328 76.6997 24.0348 76.6888 24.0922C76.6814 24.1315 76.6496 24.1822 76.6181 24.205C76.5867 24.2278 76.5715 24.2609 76.5844 24.2786C76.5972 24.2963 76.5953 24.3162 76.5802 24.3229C76.565 24.3295 76.5227 24.3839 76.4862 24.4438C76.4497 24.5036 76.3862 24.5894 76.3449 24.6343C76.3037 24.6793 76.2715 24.7342 76.2733 24.7565C76.2751 24.7787 76.2482 24.8174 76.2136 24.8426C76.179 24.8677 76.1423 24.9331 76.132 24.9879C76.1217 25.0428 76.0607 25.1903 75.9965 25.3159C75.9323 25.4414 75.8824 25.572 75.8856 25.6062C75.8887 25.6404 75.8723 25.6696 75.849 25.6712C75.7848 25.6755 75.724 25.8301 75.7645 25.8858C75.7841 25.9128 75.781 25.9362 75.7578 25.9378C75.6764 25.9433 75.5961 26.1211 75.6447 26.1881C75.6938 26.2558 75.6604 26.3147 75.5984 26.2699C75.5781 26.2552 75.5533 26.289 75.5401 26.349C75.5276 26.4066 75.5017 26.4907 75.4826 26.5358C75.4635 26.581 75.4641 26.632 75.4839 26.6491C75.507 26.6692 75.4915 26.6898 75.4407 26.7064C75.386 26.7243 75.3719 26.7468 75.3953 26.779C75.414 26.8047 75.411 26.8532 75.3887 26.8868C75.2986 27.0226 75.2403 27.1996 75.2714 27.2425C75.2896 27.2676 75.2724 27.3334 75.2331 27.3888C75.1543 27.4999 75.127 27.611 75.1655 27.664C75.1793 27.683 75.1794 27.7066 75.1659 27.7164C75.1014 27.7632 74.8149 28.906 74.7351 29.4345C74.7163 29.5589 74.6896 29.6778 74.6758 29.6987C74.6621 29.7196 74.6398 29.8616 74.6262 30.0142C74.6127 30.1668 74.593 30.2807 74.5823 30.2673C74.5716 30.2539 74.5576 30.313 74.5512 30.3988C74.5449 30.4845 74.5359 30.5268 74.5312 30.4929C74.5255 30.4515 74.5118 30.4466 74.4895 30.4782C74.4712 30.504 74.4708 30.5452 74.4886 30.5697C74.5064 30.5943 74.5001 30.6551 74.4746 30.7048C74.449 30.7545 74.4402 30.8058 74.4549 30.8188C74.4697 30.8318 74.4616 30.8788 74.437 30.9234C74.4124 30.968 74.3998 31.0148 74.409 31.0275C74.4307 31.0573 74.3927 31.2845 74.3489 31.3864C74.3303 31.4299 74.3279 31.4931 74.3438 31.527C74.3892 31.6245 74.3505 31.8355 74.2734 31.9103C74.2347 31.9478 74.2145 31.9923 74.2286 32.0091C74.261 32.0476 74.2436 32.1702 74.2015 32.2008C74.1839 32.2135 74.1832 32.2638 74.1999 32.3125C74.2166 32.3612 74.2106 32.5278 74.1867 32.6826C74.1627 32.8375 74.1402 33.0503 74.1367 33.1556C74.1332 33.2609 74.1204 33.416 74.1082 33.5002C74.096 33.5844 74.0962 33.6672 74.1087 33.6844C74.1211 33.7016 74.1193 33.8384 74.1047 33.9884C74.0878 34.1608 74.1007 34.3014 74.1395 34.3703C74.1734 34.4303 74.1921 34.5271 74.1811 34.5854C74.1702 34.6436 74.1777 34.7141 74.1978 34.7418C74.2179 34.7696 74.2194 34.8466 74.201 34.9131C74.1827 34.9796 74.1839 35.0565 74.2039 35.0839C74.2327 35.1237 74.2437 35.1193 74.2578 35.0622C74.2731 35.0009 74.2786 35.0058 74.2962 35.0963C74.3076 35.1545 74.2958 35.2077 74.27 35.2144C74.203 35.232 74.2479 35.3616 74.3284 35.3827C74.4069 35.4034 74.4538 35.5283 74.3848 35.533C74.3592 35.5348 74.3486 35.5503 74.3611 35.5676C74.3736 35.5849 74.399 35.5973 74.4175 35.5952C74.4359 35.5932 74.4269 35.6008 74.3974 35.6122C74.3678 35.6237 74.3455 35.6601 74.3478 35.6931C74.354 35.7834 74.3808 35.8061 74.4162 35.7511C74.4627 35.6787 74.5897 35.901 74.5507 35.9866C74.5116 36.0727 74.5718 36.1548 74.7098 36.2034C74.7723 36.2254 74.7934 36.2435 74.7594 36.2458C74.7243 36.2482 74.7019 36.2762 74.7046 36.3143C74.7102 36.3961 74.7415 36.4423 74.76 36.3964C74.7678 36.377 74.799 36.4084 74.8294 36.4661C74.8638 36.5317 74.8985 36.5608 74.9219 36.5437C74.9453 36.5268 74.9697 36.5471 74.9866 36.5974C75.0016 36.6419 75.0454 36.6866 75.0838 36.6968C75.1223 36.7069 75.1556 36.737 75.1577 36.7636C75.1599 36.7903 75.1846 36.7955 75.2125 36.7752C75.2405 36.7549 75.2742 36.7581 75.2874 36.7823C75.3498 36.8963 75.3836 36.907 75.4456 36.8324C75.4803 36.7906 75.5263 36.7639 75.5479 36.7729C75.6036 36.7962 75.631 36.9187 75.5813 36.9221C75.507 36.9272 75.5804 36.9836 75.7105 37.0215C75.8557 37.0639 75.9231 37.0383 75.8359 36.974C75.7894 36.9396 75.7906 36.9352 75.8419 36.9529C75.8775 36.9652 75.9124 36.9965 75.9195 37.0225C75.9266 37.0486 75.9808 37.0755 76.0401 37.0823C76.0992 37.0892 76.1623 37.115 76.1803 37.1397C76.1982 37.1644 76.2782 37.1696 76.358 37.1511C76.4378 37.1327 76.5073 37.1309 76.5125 37.1471C76.5177 37.1633 76.5299 37.1725 76.5397 37.1676C76.6023 37.1362 76.7595 37.139 76.7622 37.1715C76.7658 37.2166 76.8662 37.197 76.9523 37.1345C76.9846 37.111 77.0414 37.1144 77.0785 37.142C77.1155 37.1696 77.1521 37.1764 77.1598 37.1573C77.1675 37.1382 77.2308 37.1251 77.3006 37.1283C77.3702 37.1315 77.4426 37.1102 77.4614 37.0811C77.4828 37.0477 77.5205 37.0467 77.5631 37.0784C77.6047 37.1094 77.6434 37.1088 77.6639 37.0769C77.6823 37.0485 77.7252 37.0266 77.7593 37.0282C77.834 37.0317 78.1552 36.86 78.4604 36.6534C78.6086 36.5531 78.7035 36.5107 78.7448 36.5266C78.7959 36.5463 78.807 36.5336 78.8084 36.4539C78.8093 36.4007 78.8225 36.3746 78.8378 36.3956C78.8531 36.4167 78.8808 36.423 78.8993 36.4096C78.9177 36.3962 78.9105 36.3759 78.8833 36.3644C78.8516 36.3512 78.854 36.3423 78.8899 36.3399C78.9215 36.3378 78.955 36.2919 78.9666 36.2351C78.9784 36.1767 78.9985 36.1497 79.0141 36.1712C79.0289 36.1916 79.0268 36.2187 79.0093 36.2314C78.9919 36.2441 78.9881 36.2689 79.001 36.2866C79.0138 36.3043 79.0537 36.2975 79.0897 36.2714C79.1256 36.2453 79.1357 36.2159 79.112 36.206C79.0385 36.1753 79.0524 36.0901 79.1301 36.0957C79.1809 36.0994 79.2099 36.0777 79.2409 36.0127C79.264 35.9643 79.2846 35.9455 79.2866 35.9709C79.2939 36.0604 79.4045 35.9859 79.4147 35.8847C79.4267 35.7658 79.4698 35.7193 79.4921 35.8011C79.5047 35.8475 79.5333 35.8304 79.6534 35.7043C79.7337 35.62 79.8053 35.5291 79.8126 35.5024C79.8198 35.4756 79.8889 35.3952 79.9661 35.3236C80.0433 35.252 80.1134 35.1683 80.1218 35.1376C80.1382 35.0775 80.3073 34.8252 80.3579 34.7852C80.3748 34.7718 80.3966 34.7417 80.4062 34.7183C80.4159 34.6949 80.4637 34.6311 80.5125 34.5764C80.5612 34.5218 80.594 34.4508 80.5852 34.4187C80.5764 34.3866 80.5874 34.3512 80.6096 34.3401C80.6769 34.3064 80.8655 34.0883 80.883 34.0241C80.892 33.991 80.8824 33.9569 80.8617 33.9482C80.841 33.9396 80.852 33.9252 80.8862 33.9162C80.9204 33.9072 80.9544 33.86 80.9618 33.8112C80.9691 33.7624 80.9939 33.7212 81.0167 33.7197C81.0715 33.716 81.1464 33.557 81.1445 33.4483C81.1437 33.4009 81.1692 33.3459 81.2012 33.3261C81.2331 33.3064 81.2806 33.2327 81.3068 33.1623C81.3329 33.092 81.3804 33.0085 81.4123 32.9768C81.4442 32.9452 81.4687 32.8996 81.4668 32.8755C81.4623 32.8201 81.6404 32.4469 81.6591 32.4727C81.6667 32.4832 81.6813 32.4585 81.6914 32.4177C81.7015 32.377 81.6948 32.3374 81.6765 32.3298C81.6582 32.3221 81.6515 32.2828 81.6615 32.2423C81.6715 32.2019 81.6626 32.1616 81.6417 32.1529C81.6207 32.1441 81.6171 32.1271 81.6337 32.1151C81.6503 32.103 81.6473 32.0523 81.6271 32.0024C81.6068 31.9525 81.6063 31.8868 81.6258 31.8565C81.6462 31.8247 81.6629 31.8208 81.665 31.8471C81.6671 31.8724 81.7026 31.8703 81.7439 31.8424C81.7852 31.8145 81.8063 31.8122 81.7908 31.8372C81.7754 31.8622 81.7684 31.9223 81.7753 31.9709C81.7878 32.0576 81.7889 32.057 81.8356 31.9363C81.9896 31.5377 82.0015 31.4261 81.8916 31.4078C81.8025 31.393 81.8178 31.3474 81.921 31.32C81.9807 31.3041 82.0431 31.27 82.0597 31.2442C82.1012 31.1798 82.0297 31.0905 81.9708 31.1332C81.9447 31.1522 81.9142 31.1552 81.9031 31.14C81.8764 31.1032 82.0689 31.0136 82.1263 31.036C82.1775 31.056 82.2707 30.8454 82.2334 30.794C82.2035 30.7528 82.1181 30.8157 82.1229 30.8754C82.1272 30.9298 82.0749 30.9762 82.0491 30.9407C82.0394 30.9272 82.0389 30.8502 82.048 30.7695C82.0647 30.6219 82.136 30.5262 82.182 30.5896C82.1956 30.6084 82.1874 30.625 82.1637 30.6267C82.0985 30.6311 82.1185 30.6994 82.1872 30.7067C82.2673 30.7153 82.3203 30.672 82.3331 30.5876C82.3415 30.5324 82.3324 30.5267 82.2875 30.5593C82.2439 30.591 82.2246 30.5803 82.2011 30.5114C82.1845 30.4627 82.1783 30.4032 82.1874 30.3794C82.1966 30.3555 82.1805 30.3261 82.1517 30.3141C82.114 30.2983 82.1226 30.2845 82.1825 30.2649C82.2334 30.2483 82.2556 30.2238 82.2396 30.2018C82.2222 30.1778 82.2382 30.163 82.2871 30.1576C82.4172 30.143 82.4556 30.0473 82.3832 29.9187C82.3334 29.8304 82.3077 29.8109 82.2858 29.8447C82.2695 29.8701 82.246 29.8768 82.2336 29.8597C82.2211 29.8425 82.1904 29.8434 82.1652 29.8617C82.14 29.8799 82.0961 29.8842 82.0675 29.8712C82.0388 29.8582 82.0349 29.8498 82.0587 29.8525C82.0825 29.8553 82.1094 29.8275 82.1186 29.7908C82.1313 29.7394 82.1443 29.7366 82.175 29.7789C82.197 29.8093 82.2278 29.8144 82.2438 29.7903C82.2597 29.7663 82.2583 29.7337 82.2406 29.7178C82.1953 29.677 82.3361 29.6188 82.4388 29.6359C82.5564 29.6554 82.5831 29.6279 82.4703 29.6034C82.4202 29.5925 82.3682 29.5693 82.3548 29.552C82.3414 29.5347 82.297 29.5376 82.2562 29.5584C82.1964 29.5888 82.1828 29.582 82.1862 29.5231C82.1909 29.442 82.2795 29.3578 82.2853 29.429C82.2907 29.4969 82.4838 29.4071 82.4953 29.3314C82.5027 29.2822 82.4903 29.2679 82.4429 29.2711C82.3946 29.2744 82.3779 29.2544 82.3673 29.1806C82.3598 29.1285 82.3675 29.0759 82.3843 29.0637C82.4287 29.0315 82.4627 29.0926 82.43 29.1456C82.409 29.1796 82.42 29.1906 82.4745 29.1904C82.5725 29.1898 82.5801 29.1818 82.6042 29.0535C82.618 28.9801 82.6022 28.9228 82.558 28.8863C82.5058 28.8431 82.4911 28.8451 82.4922 28.8952C82.4933 28.9466 82.4891 28.948 82.4716 28.902C82.4565 28.8625 82.4883 28.8182 82.5724 28.7614C82.6499 28.7092 82.6723 28.6801 82.633 28.6828C82.5839 28.6861 82.5755 28.6619 82.5932 28.5678C82.6055 28.5021 82.6361 28.4471 82.6612 28.4454C82.7315 28.4406 82.6989 28.4188 82.5783 28.3898C82.518 28.3754 82.4525 28.3753 82.4328 28.3896C82.413 28.4039 82.3859 28.4007 82.3726 28.3824C82.3559 28.3594 82.375 28.3455 82.434 28.3378C82.5635 28.3208 82.57 28.3029 82.4801 28.2104C82.4314 28.1604 82.4158 28.1242 82.442 28.1224C82.4681 28.1207 82.4554 28.09 82.4113 28.0484C82.3577 27.9978 82.3512 27.9733 82.3889 27.9634C82.4518 27.9469 82.4988 27.6884 82.4509 27.6224C82.4324 27.597 82.4367 27.5652 82.4602 27.5519C82.4839 27.5385 82.4982 27.509 82.4922 27.4863C82.4862 27.4637 82.5102 27.3969 82.5455 27.338C82.5807 27.2791 82.5899 27.2227 82.5659 27.2126C82.4874 27.1798 82.5076 27.1022 82.5977 27.0903C82.6473 27.0838 82.6794 27.0623 82.6773 27.0368C82.6754 27.0134 82.6522 27.001 82.6257 27.0092C82.5956 27.0186 82.5888 26.9736 82.6076 26.8897C82.6267 26.8044 82.6169 26.7413 82.5808 26.7177C82.5305 26.6846 82.5337 26.6815 82.6082 26.6911C82.6665 26.6986 82.6868 26.7168 82.6736 26.7499C82.6613 26.7811 82.6802 26.7912 82.7274 26.7788C82.7687 26.768 82.8036 26.7301 82.8079 26.6913C82.8139 26.6379 82.8101 26.6351 82.7907 26.6785C82.773 26.7182 82.7568 26.7144 82.7343 26.6652C82.7156 26.6242 82.7277 26.5841 82.7641 26.5662C82.8303 26.5338 82.8086 26.4708 82.733 26.4759C82.6785 26.4797 82.6595 26.3828 82.6807 26.2089C82.6886 26.1434 82.6825 26.0723 82.6669 26.0509C82.6514 26.0295 82.6541 26.0146 82.6728 26.0177C82.7065 26.0233 82.7425 25.888 82.7167 25.8524C82.7093 25.8423 82.6819 25.8496 82.6557 25.8686C82.6295 25.8876 82.5965 25.8871 82.5823 25.8675C82.568 25.8479 82.5833 25.8248 82.6161 25.8162C82.662 25.8042 82.6565 25.7758 82.5927 25.6944C82.5469 25.636 82.5065 25.5343 82.503 25.4685C82.4994 25.4026 82.48 25.326 82.4598 25.2983C82.4397 25.2705 82.436 25.2279 82.4516 25.2035C82.4931 25.139 82.3655 24.9488 82.3085 24.9902C82.2812 25.01 82.2564 24.9985 82.2464 24.9615C82.2371 24.9277 82.249 24.8859 82.2727 24.8687C82.3261 24.8299 82.307 24.675 82.2407 24.6098C82.2136 24.5831 82.2077 24.5462 82.2276 24.5277C82.2476 24.5093 82.2768 24.482 82.2927 24.4671C82.3085 24.4523 82.305 24.4173 82.2848 24.3895C82.2377 24.3247 82.0863 24.2963 82.1054 24.356C82.1136 24.3815 82.0682 24.3957 81.9937 24.391C81.8947 24.3846 81.8702 24.3685 81.8779 24.315C81.8856 24.2611 81.8997 24.2551 81.9465 24.2859C81.9897 24.3142 82.0243 24.3029 82.0751 24.2439C82.1869 24.1139 82.1841 24.0172 82.0636 23.8512C81.967 23.718 81.9621 23.695 82.0235 23.6624C82.0923 23.6259 82.0919 23.6252 81.9969 23.6208C81.9437 23.6183 81.9026 23.6011 81.9054 23.5825C81.9082 23.5639 81.8676 23.5213 81.815 23.4878C81.7625 23.4544 81.6757 23.3614 81.6222 23.2811C81.5682 23.2 81.5012 23.1366 81.4716 23.1386C81.4408 23.1407 81.4547 23.1065 81.5045 23.0576C81.552 23.0111 81.592 22.988 81.5935 23.0062C81.5949 23.0244 81.6235 23.0322 81.657 23.0234C81.7008 23.0119 81.7017 22.9853 81.6601 22.928C81.6284 22.8843 81.5858 22.8606 81.5654 22.8754C81.5451 22.8902 81.5308 22.8861 81.5338 22.8663C81.5368 22.8466 81.4796 22.8228 81.4067 22.8135C81.3337 22.8042 81.2599 22.7771 81.2426 22.7532C81.2253 22.7293 81.1814 22.7049 81.145 22.6988C81.0936 22.6903 81.0873 22.6817 81.1169 22.6602C81.1379 22.645 81.1404 22.6124 81.1225 22.5877C81.086 22.5374 80.9689 22.556 80.9448 22.6159C80.9361 22.6374 80.9179 22.6396 80.9043 22.6209C80.8907 22.6021 80.7847 22.571 80.6687 22.5517C80.4207 22.5104 80.2909 22.4436 80.4029 22.4148C80.5231 22.3839 80.5392 22.3696 80.5219 22.3102C80.5103 22.2705 80.4938 22.2707 80.4679 22.3109C80.4197 22.3858 80.1068 22.3569 80.034 22.2708C79.9892 22.2177 79.9955 22.2009 80.0718 22.1706C80.1693 22.1318 80.1548 22.07 80.0371 22.0222C79.9644 21.9928 79.8175 22.0579 79.8513 22.1045C79.8641 22.1222 79.896 22.121 79.9221 22.102C79.9483 22.083 79.9803 22.0819 79.9931 22.0996C80.006 22.1174 79.9736 22.1629 79.9213 22.2009C79.8486 22.2537 79.8155 22.2554 79.7813 22.2083C79.754 22.1707 79.6872 22.1569 79.6103 22.173C79.5409 22.1875 79.4755 22.1875 79.465 22.1731C79.4546 22.1587 79.4382 22.1662 79.4287 22.1898C79.4192 22.2134 79.4021 22.2198 79.3907 22.2041C79.363 22.1659 78.9449 22.2453 78.9381 22.29C78.9352 22.3093 78.9006 22.3293 78.8612 22.3345C78.709 22.3545 78.5113 22.4709 77.9487 22.8718C77.6278 23.1004 77.3642 23.295 77.3628 23.3043ZM81.8049 24.0288C81.8093 24.0832 81.9189 24.0633 81.9639 23.9998C81.9837 23.9719 81.9604 23.9611 81.8978 23.9693C81.8341 23.9776 81.8024 23.9979 81.8049 24.0288ZM82.5757 25.0119C82.5866 25.0519 82.6059 25.0507 82.6409 25.0077C82.7101 24.9228 82.6972 24.8555 82.6221 24.91C82.588 24.9347 82.5672 24.9806 82.5757 25.0119ZM82.7124 25.1692C82.7084 25.2134 82.6811 25.2559 82.6517 25.2636C82.6223 25.2713 82.6056 25.3048 82.6147 25.3381C82.6242 25.3729 82.6602 25.391 82.6993 25.3808C82.737 25.3709 82.7607 25.3419 82.7523 25.3159C82.744 25.29 82.763 25.2501 82.7946 25.2272C82.8422 25.1926 82.8484 25.0994 82.8069 25.0422C82.7833 25.0096 82.7189 25.096 82.7124 25.1692ZM82.6851 25.4877C82.7147 25.4804 82.7413 25.4593 82.7441 25.441C82.7468 25.4227 82.7226 25.4286 82.6902 25.4543C82.6543 25.4827 82.6523 25.4958 82.6851 25.4877ZM82.6678 26.8522C82.6893 26.8823 82.7276 26.9056 82.753 26.9039C82.8115 26.8999 82.7805 26.8573 82.6946 26.8234C82.6379 26.801 82.6342 26.805 82.6678 26.8522ZM82.6921 27.4498C82.7081 27.5081 82.7145 27.5092 82.7229 27.4549C82.7288 27.4173 82.7196 27.3842 82.7027 27.3814C82.6857 27.3786 82.6809 27.4094 82.6921 27.4498ZM82.3628 27.8014C82.3649 27.827 82.3808 27.8375 82.3983 27.8248C82.4157 27.8122 82.4283 27.7809 82.4263 27.7554C82.4242 27.7298 82.4082 27.7193 82.3908 27.732C82.3733 27.7446 82.3607 27.7759 82.3628 27.8014ZM82.7271 27.664C82.7559 27.7004 82.7689 27.7025 82.7604 27.6695C82.7527 27.6396 82.7314 27.6127 82.7131 27.6096C82.6948 27.6066 82.7011 27.631 82.7271 27.664ZM82.5973 28.0244C82.6102 28.0421 82.6421 28.0411 82.6683 28.0221C82.6945 28.0031 82.7054 27.973 82.6925 27.9553C82.6797 27.9376 82.6477 27.9387 82.6215 27.9577C82.5954 27.9767 82.5845 28.0067 82.5973 28.0244ZM82.5864 28.2289C82.6311 28.3423 82.69 28.3169 82.6647 28.1952C82.6472 28.1112 82.6339 28.0962 82.5995 28.1212C82.5757 28.1384 82.5698 28.1869 82.5864 28.2289ZM82.1221 29.2081C82.1243 29.2354 82.1379 29.2596 82.1523 29.262C82.1668 29.2644 82.1708 29.2379 82.1613 29.2031C82.1416 29.1308 82.1161 29.1341 82.1221 29.2081ZM82.3768 29.7538C82.3787 29.7776 82.4014 29.7956 82.4273 29.7939C82.4531 29.7921 82.4578 29.7681 82.4378 29.7405C82.3967 29.6839 82.3716 29.6894 82.3768 29.7538ZM81.7651 31.5672C81.7225 31.6138 81.7262 31.6202 81.803 31.633C81.8961 31.6485 81.9218 31.6082 81.8548 31.5516C81.8315 31.5318 81.7911 31.5389 81.7651 31.5672ZM81.3386 32.5403C81.342 32.5704 81.3487 32.576 81.3534 32.5527C81.3581 32.5294 81.3991 32.5219 81.4443 32.5359C81.5185 32.5589 81.5229 32.5561 81.4893 32.5078C81.443 32.4413 81.3302 32.4657 81.3386 32.5403ZM80.9588 33.3498C80.9616 33.3854 80.9707 33.3843 80.9859 33.3465C81.003 33.3043 81.0141 33.3088 81.0291 33.3637C81.0461 33.4264 81.0522 33.4261 81.0681 33.3621C81.0784 33.3204 81.0776 33.2736 81.0664 33.2581C81.0363 33.2167 80.9537 33.2872 80.9588 33.3498ZM71.1872 39.3907C71.1424 39.4574 71.0708 39.539 71.0281 39.5719C70.949 39.6328 70.7762 39.8666 70.716 39.9939C70.6978 40.0326 70.6296 40.156 70.5644 40.2682C70.3685 40.6058 70.2553 40.9551 70.2359 41.2826C70.2258 41.4531 70.2281 41.6072 70.2411 41.625C70.254 41.6429 70.2448 41.6588 70.2206 41.6604C70.1964 41.6621 70.2034 41.733 70.2363 41.8182C70.2691 41.9033 70.2841 41.9816 70.2695 41.9922C70.2549 42.0028 70.266 42.0613 70.2941 42.1221C70.3223 42.183 70.3248 42.242 70.2996 42.2533C70.2745 42.2645 70.2736 42.3117 70.2978 42.358C70.3257 42.4118 70.3483 42.4254 70.3603 42.3957C70.3706 42.3701 70.3946 42.3706 70.4136 42.3967C70.4776 42.4849 70.4824 42.5688 70.4244 42.5841C70.3859 42.5942 70.3831 42.6217 70.4159 42.667C70.443 42.7043 70.4794 42.7245 70.4969 42.7118C70.5143 42.6991 70.5493 42.7173 70.5746 42.7522C70.6074 42.7973 70.6017 42.8205 70.5548 42.8328C70.5009 42.8469 70.5028 42.8569 70.5657 42.8879C70.6079 42.9087 70.6711 42.9767 70.7062 43.0391C70.7529 43.1219 70.7828 43.1433 70.8171 43.1183C70.8434 43.0993 70.8853 43.1135 70.9124 43.1508C70.9389 43.1873 70.9973 43.2353 71.0421 43.2574C71.0869 43.2795 71.1661 43.3478 71.218 43.4091C71.2699 43.4705 71.3827 43.5533 71.4687 43.5931C71.5547 43.6329 71.6399 43.686 71.6582 43.7112C71.6764 43.7363 71.7178 43.7554 71.75 43.7536C71.7823 43.7518 71.8777 43.7856 71.962 43.8288C72.0463 43.8719 72.1384 43.9014 72.1666 43.8944C72.1949 43.8874 72.2278 43.8953 72.24 43.912C72.296 43.9892 73.0019 44.0474 73.1733 43.9889C73.2243 43.9715 73.3185 43.9636 73.3827 43.9714C73.4894 43.9843 73.5005 43.978 73.5127 43.8976C73.522 43.8361 73.5609 43.7934 73.6422 43.7554C73.7856 43.6884 73.8139 43.6898 73.7845 43.7629C73.7655 43.8101 73.7724 43.8193 73.8248 43.8165C73.9092 43.8119 74.1695 43.6334 74.1436 43.5978C74.1239 43.5706 74.0444 43.6068 73.9707 43.6766C73.951 43.6954 73.9239 43.6955 73.9105 43.6771C73.884 43.6406 74.0172 43.5386 74.1439 43.4981C74.1872 43.4842 74.2384 43.4947 74.2576 43.5212C74.2943 43.5718 74.4639 43.4607 74.5338 43.3403C74.5527 43.3079 74.6015 43.2618 74.6424 43.2378C74.6833 43.2138 74.7354 43.1443 74.7581 43.0834C74.7808 43.0224 74.8293 42.9597 74.8659 42.9441C74.9025 42.9285 74.9657 42.8413 75.0063 42.7505C75.047 42.6596 75.0875 42.5803 75.0965 42.5744C75.1456 42.5415 75.2352 42.3649 75.2161 42.3386C75.2038 42.3217 75.2186 42.2744 75.2488 42.2335C75.3539 42.0917 75.39 41.9107 75.3298 41.8276C75.2978 41.7835 75.2914 41.7461 75.3157 41.7445C75.34 41.7428 75.3673 41.7686 75.3763 41.8017C75.4108 41.9283 75.4268 41.8285 75.3966 41.6748C75.3792 41.5861 75.3784 41.4634 75.3948 41.4022C75.4287 41.2759 75.3817 41.1819 75.3104 41.2336C75.2494 41.2779 75.216 41.2305 75.2083 41.0885C75.2024 40.9804 75.1131 40.835 74.8643 40.5284C74.7935 40.4412 74.7637 40.376 74.7825 40.3494C74.8057 40.3168 74.7952 40.3031 74.734 40.2863C74.6673 40.268 74.6662 40.2621 74.7267 40.2457C74.7657 40.2351 74.7874 40.2124 74.7749 40.1953C74.7625 40.1782 74.738 40.1745 74.7206 40.1872C74.7031 40.1998 74.6625 40.174 74.6304 40.1297C74.5983 40.0854 74.5858 40.0392 74.6028 40.0269C74.6196 40.0147 74.6079 39.9844 74.5768 39.9598C74.5455 39.9351 74.5606 39.9353 74.6101 39.9601C74.7131 40.0117 74.7708 39.9894 74.719 39.918C74.6997 39.8914 74.7054 39.8541 74.7315 39.8351C74.7919 39.7913 74.7799 39.7761 74.643 39.7231C74.5594 39.6907 74.5343 39.6644 74.5415 39.6167C74.5528 39.5421 74.5179 39.4807 74.4957 39.5359C74.4873 39.5569 74.4509 39.5496 74.4149 39.5199C74.3653 39.4789 74.3647 39.4618 74.412 39.4493C74.457 39.4375 74.4587 39.4224 74.418 39.3957C74.3869 39.3752 74.3511 39.3443 74.3386 39.327C74.326 39.3097 74.3079 39.3149 74.2984 39.3385C74.2889 39.3621 74.2704 39.3666 74.2572 39.3485C74.2441 39.3303 74.2503 39.2798 74.2712 39.2362C74.3043 39.1668 74.2963 39.1493 74.2076 39.0963C74.1024 39.0336 73.7818 38.8965 73.729 38.8917C73.7124 38.8901 73.5829 38.8507 73.441 38.8041C73.186 38.7202 72.8244 38.6634 72.7747 38.6995C72.7606 38.7098 72.6813 38.7121 72.5984 38.7046C72.5156 38.6972 72.4185 38.7107 72.3826 38.7347C72.2831 38.8011 72.0602 38.8556 72.0326 38.8204C72.0191 38.8031 71.9678 38.8156 71.9188 38.8481C71.8697 38.8806 71.8205 38.9098 71.8094 38.9129C71.7128 38.94 71.2524 39.2935 71.1872 39.3907ZM74.1199 39.1814C74.1168 39.2016 74.1251 39.2332 74.1384 39.2515C74.153 39.2717 74.1664 39.259 74.1724 39.2194C74.1779 39.1835 74.1695 39.1519 74.1539 39.1493C74.1382 39.1467 74.1229 39.1612 74.1199 39.1814ZM75.0136 40.9862C75.0423 41.0226 75.0554 41.0247 75.0469 40.9917C75.0392 40.9618 75.0179 40.9349 74.9996 40.9318C74.9813 40.9288 74.9876 40.9532 75.0136 40.9862ZM75.3058 40.9215C75.3345 40.9579 75.3476 40.9601 75.3391 40.9271C75.3314 40.8972 75.3101 40.8702 75.2918 40.8672C75.2735 40.8641 75.2798 40.8886 75.3058 40.9215Z" fill="white"/>
<path opacity="0.7" fill-rule="evenodd" clip-rule="evenodd" d="M10.958 199.096C10.9596 199.105 10.8924 199.269 10.8088 199.46C10.621 199.888 10.6308 199.861 10.6153 199.988C10.6046 200.076 10.5982 200.084 10.5768 200.038C10.5561 199.993 10.5529 199.996 10.5602 200.054C10.5652 200.093 10.5506 200.151 10.5278 200.183C10.505 200.214 10.5007 200.25 10.5184 200.263C10.5361 200.276 10.5404 200.296 10.5281 200.307C10.5157 200.318 10.4923 200.382 10.4761 200.451C10.4598 200.519 10.4258 200.62 10.4005 200.675C10.3752 200.731 10.3615 200.793 10.37 200.814C10.3786 200.834 10.3651 200.879 10.3399 200.914C10.3147 200.949 10.3 201.022 10.3071 201.078C10.3142 201.133 10.3018 201.292 10.2795 201.431C10.2572 201.57 10.25 201.71 10.2636 201.742C10.2772 201.773 10.2705 201.806 10.2488 201.815C10.1892 201.839 10.179 202.004 10.2347 202.045C10.2617 202.065 10.266 202.088 10.2444 202.097C10.1687 202.127 10.1472 202.321 10.2141 202.37C10.2817 202.419 10.2682 202.485 10.1953 202.462C10.1715 202.454 10.1583 202.494 10.1644 202.555C10.1702 202.614 10.1715 202.702 10.1673 202.75C10.1631 202.799 10.1794 202.847 10.2035 202.858C10.2317 202.87 10.2232 202.894 10.1801 202.925C10.1335 202.959 10.1271 202.985 10.1593 203.009C10.185 203.027 10.1972 203.074 10.1863 203.113C10.1425 203.27 10.1417 203.456 10.1846 203.488C10.2096 203.506 10.2136 203.574 10.1933 203.639C10.1526 203.769 10.161 203.883 10.214 203.921C10.2329 203.935 10.2403 203.957 10.2305 203.971C10.1836 204.035 10.2638 205.211 10.3511 205.738C10.3716 205.862 10.383 205.984 10.3763 206.008C10.3697 206.032 10.3923 206.174 10.4265 206.323C10.4608 206.472 10.4772 206.587 10.4629 206.577C10.4486 206.568 10.4535 206.629 10.4739 206.712C10.4943 206.796 10.4988 206.839 10.4839 206.808C10.4657 206.77 10.4512 206.77 10.4397 206.807C10.4302 206.837 10.4426 206.876 10.4671 206.894C10.4917 206.912 10.5044 206.972 10.4955 207.027C10.4865 207.082 10.494 207.134 10.512 207.141C10.53 207.149 10.5369 207.196 10.5272 207.246C10.5175 207.296 10.52 207.345 10.5327 207.354C10.5626 207.376 10.5965 207.603 10.5864 207.714C10.5821 207.761 10.5994 207.822 10.6249 207.849C10.6982 207.928 10.7265 208.141 10.6763 208.236C10.651 208.283 10.6456 208.332 10.6642 208.343C10.7068 208.37 10.7282 208.492 10.6975 208.534C10.6848 208.552 10.6997 208.6 10.7306 208.641C10.7615 208.682 10.8072 208.842 10.8322 208.997C10.8572 209.152 10.9015 209.361 10.9307 209.462C10.9599 209.564 10.9955 209.715 11.0099 209.799C11.0243 209.883 11.0501 209.961 11.0673 209.974C11.0844 209.986 11.1249 210.117 11.1573 210.264C11.1945 210.433 11.2501 210.563 11.3084 210.617C11.3591 210.663 11.4067 210.75 11.4143 210.808C11.4219 210.867 11.4508 210.932 11.4785 210.952C11.5062 210.972 11.5314 211.045 11.5345 211.114C11.5375 211.183 11.5624 211.256 11.5898 211.276C11.6296 211.305 11.6386 211.297 11.6345 211.238C11.63 211.175 11.6368 211.178 11.6816 211.259C11.7103 211.311 11.7155 211.365 11.693 211.379C11.6347 211.417 11.7175 211.526 11.8006 211.521C11.8816 211.517 11.9647 211.621 11.9006 211.647C11.8768 211.657 11.8715 211.675 11.8887 211.687C11.906 211.7 11.934 211.704 11.9509 211.696C11.9678 211.688 11.9616 211.698 11.937 211.718C11.9125 211.738 11.9025 211.78 11.9148 211.811C11.9486 211.895 11.9811 211.908 11.9978 211.845C12.0197 211.761 12.209 211.934 12.1984 212.027C12.1878 212.121 12.2704 212.181 12.4167 212.184C12.4829 212.186 12.5086 212.197 12.4769 212.209C12.4443 212.222 12.4316 212.256 12.4459 212.291C12.4766 212.367 12.5206 212.402 12.524 212.352C12.5255 212.332 12.5648 212.352 12.6115 212.397C12.6645 212.449 12.7065 212.466 12.7235 212.442C12.7405 212.419 12.77 212.431 12.8016 212.474C12.8296 212.511 12.885 212.54 12.9247 212.538C12.9645 212.536 13.0054 212.554 13.0157 212.579C13.026 212.604 13.051 212.601 13.0714 212.573C13.0917 212.545 13.1248 212.538 13.1448 212.557C13.2393 212.646 13.2747 212.645 13.3107 212.555C13.3308 212.505 13.3664 212.465 13.3897 212.467C13.4498 212.472 13.5137 212.58 13.4675 212.599C13.3984 212.627 13.4856 212.658 13.6211 212.654C13.7723 212.649 13.8284 212.604 13.7257 212.57C13.6708 212.551 13.6707 212.547 13.7248 212.548C13.7625 212.548 13.8054 212.567 13.8202 212.59C13.835 212.613 13.8949 212.621 13.9533 212.61C14.0117 212.598 14.0797 212.603 14.1044 212.621C14.1291 212.639 14.2067 212.619 14.2769 212.577C14.3471 212.535 14.4127 212.512 14.4226 212.525C14.4326 212.539 14.447 212.544 14.4548 212.536C14.5047 212.487 14.6551 212.441 14.6676 212.471C14.685 212.513 14.7744 212.464 14.8371 212.378C14.8606 212.345 14.9156 212.331 14.9594 212.346C15.0031 212.361 15.0401 212.356 15.0415 212.335C15.0429 212.315 15.0991 212.283 15.1664 212.264C15.2337 212.246 15.296 212.203 15.3048 212.17C15.3149 212.131 15.3505 212.119 15.4007 212.136C15.4499 212.152 15.4865 212.14 15.4962 212.103C15.5048 212.07 15.5389 212.036 15.5718 212.027C15.6439 212.008 15.8964 211.745 16.123 211.454C16.233 211.313 16.3102 211.244 16.3544 211.246C16.409 211.249 16.4157 211.233 16.3924 211.157C16.3768 211.106 16.3814 211.077 16.4024 211.093C16.4235 211.108 16.4517 211.106 16.4652 211.087C16.4786 211.069 16.4655 211.051 16.436 211.049C16.4018 211.046 16.4013 211.037 16.4347 211.024C16.4641 211.012 16.4819 210.958 16.4753 210.9C16.4686 210.841 16.4793 210.809 16.5008 210.825C16.5212 210.84 16.5275 210.866 16.5149 210.884C16.5022 210.901 16.5062 210.926 16.5239 210.939C16.5416 210.952 16.5775 210.933 16.6036 210.897C16.6297 210.861 16.6302 210.83 16.6047 210.828C16.5253 210.821 16.5122 210.736 16.5878 210.717C16.6373 210.705 16.6581 210.675 16.6676 210.604C16.6747 210.551 16.6884 210.527 16.6982 210.55C16.7327 210.633 16.815 210.528 16.7934 210.429C16.7681 210.312 16.7947 210.254 16.8412 210.325C16.8676 210.366 16.8894 210.34 16.9648 210.183C17.0151 210.078 17.0552 209.97 17.0538 209.942C17.0524 209.915 17.0933 209.817 17.1447 209.725C17.196 209.633 17.2368 209.532 17.2353 209.5C17.2324 209.438 17.3153 209.145 17.3511 209.092C17.363 209.074 17.3744 209.038 17.3764 209.013C17.3784 208.988 17.4042 208.912 17.4337 208.845C17.4632 208.778 17.4724 208.701 17.4541 208.673C17.4359 208.645 17.4355 208.608 17.4531 208.591C17.5067 208.538 17.6188 208.272 17.6156 208.206C17.6139 208.171 17.5943 208.142 17.5719 208.14C17.5496 208.138 17.5556 208.121 17.5853 208.102C17.6151 208.083 17.6328 208.028 17.6248 207.979C17.6167 207.93 17.6276 207.883 17.6488 207.875C17.6998 207.854 17.7219 207.68 17.6866 207.577C17.6712 207.532 17.6785 207.472 17.7028 207.444C17.7271 207.415 17.7495 207.33 17.7526 207.255C17.7557 207.18 17.7751 207.086 17.7957 207.046C17.8163 207.006 17.8256 206.955 17.8163 206.933C17.7949 206.882 17.8492 206.472 17.8749 206.49C17.8853 206.498 17.8915 206.47 17.8886 206.428C17.8856 206.386 17.867 206.351 17.8473 206.349C17.8275 206.348 17.809 206.312 17.806 206.271C17.8031 206.229 17.7822 206.194 17.7595 206.192C17.7369 206.19 17.7282 206.175 17.7403 206.158C17.7524 206.142 17.7339 206.094 17.6992 206.053C17.6646 206.012 17.6437 205.95 17.653 205.915C17.6626 205.878 17.6772 205.869 17.6874 205.894C17.6971 205.917 17.7302 205.904 17.7609 205.865C17.7916 205.826 17.811 205.817 17.804 205.845C17.797 205.874 17.8089 205.933 17.8305 205.977C17.8691 206.056 17.8699 206.055 17.8771 205.926C17.9006 205.499 17.8774 205.389 17.7672 205.406C17.678 205.419 17.6784 205.371 17.7681 205.313C17.82 205.28 17.8688 205.228 17.8767 205.198C17.8963 205.124 17.8006 205.061 17.7578 205.12C17.7388 205.146 17.7107 205.159 17.6955 205.148C17.6587 205.121 17.8142 204.976 17.8758 204.98C17.9306 204.983 17.9542 204.754 17.9029 204.717C17.8617 204.687 17.7999 204.773 17.8229 204.828C17.8438 204.878 17.8084 204.939 17.7729 204.913C17.7595 204.903 17.7352 204.83 17.7189 204.75C17.6893 204.605 17.7275 204.492 17.7909 204.538C17.8096 204.552 17.8069 204.57 17.785 204.579C17.7243 204.603 17.7644 204.662 17.832 204.648C17.9108 204.631 17.9479 204.574 17.934 204.489C17.9249 204.434 17.9145 204.432 17.8819 204.477C17.8502 204.52 17.8286 204.516 17.7849 204.458C17.7541 204.416 17.7299 204.362 17.7312 204.336C17.7325 204.311 17.7081 204.288 17.677 204.285C17.6362 204.282 17.6402 204.266 17.6911 204.229C17.7344 204.197 17.7479 204.167 17.7259 204.151C17.702 204.134 17.7126 204.115 17.7575 204.095C17.8767 204.041 17.8838 203.938 17.7751 203.838C17.7005 203.769 17.67 203.758 17.6597 203.797C17.652 203.827 17.6317 203.84 17.6146 203.828C17.5975 203.815 17.5685 203.826 17.5502 203.851C17.5319 203.876 17.4914 203.894 17.4602 203.89C17.4289 203.886 17.4226 203.88 17.4461 203.875C17.4696 203.87 17.4866 203.835 17.4839 203.798C17.4802 203.745 17.4917 203.738 17.5339 203.769C17.5642 203.791 17.5951 203.786 17.6029 203.759C17.6107 203.731 17.5992 203.7 17.5775 203.691C17.5218 203.666 17.6377 203.567 17.7407 203.552C17.8587 203.534 17.8755 203.499 17.7607 203.511C17.7096 203.516 17.653 203.51 17.635 203.498C17.6168 203.485 17.5755 203.502 17.5431 203.534C17.4956 203.582 17.4806 203.579 17.4657 203.522C17.4451 203.444 17.5034 203.336 17.5308 203.402C17.557 203.465 17.7129 203.32 17.7004 203.244C17.6923 203.195 17.6761 203.186 17.6321 203.203C17.5871 203.221 17.565 203.208 17.5321 203.141C17.509 203.093 17.5 203.041 17.5123 203.024C17.5445 202.98 17.5957 203.027 17.581 203.088C17.5715 203.127 17.5854 203.134 17.6372 203.117C17.7302 203.086 17.7349 203.076 17.7183 202.946C17.7087 202.872 17.676 202.823 17.6227 202.802C17.5597 202.777 17.5463 202.783 17.5628 202.831C17.5798 202.879 17.5762 202.882 17.5454 202.843C17.5188 202.81 17.5354 202.758 17.5979 202.679C17.6554 202.605 17.6678 202.57 17.6313 202.585C17.5855 202.603 17.5701 202.583 17.5578 202.488C17.5493 202.422 17.5614 202.36 17.5847 202.351C17.6501 202.324 17.6124 202.314 17.4887 202.323C17.4269 202.328 17.3646 202.348 17.3502 202.368C17.3359 202.388 17.3091 202.393 17.2908 202.38C17.2678 202.363 17.2817 202.344 17.3354 202.318C17.4534 202.262 17.454 202.243 17.3399 202.183C17.2782 202.15 17.2522 202.121 17.2766 202.111C17.3009 202.101 17.2793 202.076 17.2245 202.05C17.1579 202.018 17.1442 201.997 17.177 201.976C17.2317 201.941 17.1965 201.681 17.1306 201.633C17.1052 201.614 17.0995 201.583 17.1178 201.563C17.1361 201.543 17.1407 201.51 17.128 201.49C17.1152 201.471 17.1174 201.4 17.1328 201.333C17.1482 201.266 17.1395 201.21 17.1135 201.207C17.0287 201.2 17.0239 201.12 17.106 201.081C17.1512 201.06 17.1751 201.029 17.1653 201.006C17.1562 200.984 17.1303 200.979 17.1076 200.995C17.0819 201.014 17.0616 200.973 17.0535 200.887C17.0453 200.8 17.0165 200.743 16.9749 200.732C16.9168 200.716 16.9189 200.712 16.9928 200.698C17.0506 200.687 17.0754 200.698 17.0732 200.734C17.0711 200.767 17.0921 200.771 17.1333 200.745C17.1692 200.722 17.1907 200.675 17.1828 200.637C17.172 200.584 17.1675 200.583 17.1625 200.63C17.1579 200.673 17.1413 200.675 17.1048 200.635C17.0743 200.601 17.0734 200.56 17.1025 200.531C17.1554 200.48 17.1154 200.427 17.0451 200.455C16.9944 200.475 16.9464 200.389 16.9129 200.217C16.9002 200.152 16.8724 200.087 16.851 200.071C16.8296 200.056 16.8275 200.041 16.8464 200.038C16.8802 200.033 16.8726 199.893 16.837 199.867C16.8269 199.86 16.8031 199.875 16.7841 199.901C16.765 199.927 16.7334 199.937 16.7139 199.923C16.6943 199.909 16.7017 199.882 16.7302 199.864C16.7701 199.838 16.7561 199.813 16.6703 199.755C16.6088 199.714 16.539 199.629 16.5152 199.568C16.4915 199.506 16.4494 199.439 16.4217 199.419C16.394 199.399 16.3773 199.36 16.3846 199.332C16.4041 199.258 16.224 199.116 16.1826 199.173C16.1628 199.2 16.1357 199.197 16.1147 199.165C16.0955 199.136 16.0938 199.092 16.1111 199.068C16.1499 199.015 16.0839 198.874 16.0008 198.832C15.9667 198.815 15.9497 198.782 15.9629 198.758C15.9762 198.734 15.9956 198.699 16.0061 198.68C16.0166 198.661 16.0024 198.629 15.9746 198.609C15.9098 198.562 15.7571 198.582 15.7937 198.632C15.8093 198.654 15.7705 198.682 15.6982 198.7C15.6021 198.725 15.5738 198.717 15.5646 198.664C15.5553 198.61 15.5669 198.6 15.6209 198.615C15.6707 198.628 15.7001 198.607 15.7302 198.535C15.7965 198.377 15.764 198.286 15.5981 198.165C15.4651 198.068 15.4533 198.048 15.5017 197.998C15.5558 197.942 15.5552 197.941 15.4635 197.967C15.4122 197.981 15.3678 197.977 15.3647 197.958C15.3616 197.94 15.3098 197.912 15.2495 197.896C15.1892 197.881 15.0779 197.819 15.0023 197.759C14.9259 197.699 14.8425 197.659 14.815 197.67C14.7863 197.682 14.789 197.645 14.8213 197.583C14.8521 197.524 14.883 197.49 14.8901 197.507C14.8971 197.524 14.9267 197.522 14.9558 197.503C14.9939 197.479 14.9865 197.453 14.9293 197.412C14.8856 197.38 14.8378 197.371 14.823 197.391C14.8082 197.411 14.7934 197.412 14.7902 197.392C14.7869 197.372 14.7251 197.367 14.6529 197.381C14.5807 197.395 14.5021 197.392 14.4782 197.374C14.4544 197.357 14.4051 197.347 14.3686 197.353C14.3171 197.36 14.3085 197.354 14.33 197.325C14.3452 197.304 14.3375 197.272 14.3129 197.254C14.2626 197.217 14.157 197.271 14.1526 197.336C14.1509 197.359 14.1343 197.366 14.1156 197.353C14.0969 197.339 13.9864 197.342 13.8702 197.36C13.6215 197.397 13.4774 197.374 13.5751 197.312C13.6798 197.245 13.6908 197.227 13.6559 197.175C13.6327 197.141 13.617 197.147 13.6049 197.193C13.5821 197.279 13.2756 197.348 13.1797 197.289C13.1207 197.252 13.1215 197.234 13.1847 197.182C13.2655 197.115 13.2326 197.06 13.1059 197.051C13.0277 197.046 12.908 197.153 12.9546 197.187C12.9722 197.2 13.0022 197.189 13.0212 197.163C13.0403 197.136 13.0703 197.126 13.088 197.138C13.1057 197.151 13.089 197.205 13.0509 197.257C12.9981 197.329 12.9671 197.341 12.9201 197.307C12.8825 197.28 12.8147 197.287 12.7465 197.326C12.685 197.362 12.6228 197.382 12.6084 197.371C12.594 197.361 12.5807 197.373 12.579 197.398C12.5772 197.424 12.5629 197.435 12.5472 197.424C12.5091 197.396 12.1359 197.601 12.1433 197.645C12.1465 197.664 12.1197 197.694 12.0839 197.711C11.9452 197.777 11.7932 197.949 11.3818 198.504C11.1472 198.82 10.9565 199.087 10.958 199.096ZM15.4068 198.414C15.4278 198.464 15.5259 198.412 15.5491 198.337C15.5594 198.305 15.5338 198.302 15.4769 198.329C15.4188 198.356 15.3949 198.385 15.4068 198.414ZM16.4435 199.111C16.4662 199.146 16.4842 199.139 16.5042 199.087C16.5438 198.985 16.5107 198.925 16.4562 199C16.4314 199.034 16.4257 199.084 16.4435 199.111ZM16.622 199.219C16.6319 199.262 16.6191 199.311 16.5935 199.327C16.5679 199.343 16.5624 199.381 16.5813 199.409C16.601 199.44 16.6409 199.446 16.6749 199.424C16.7077 199.403 16.7213 199.368 16.7053 199.346C16.6894 199.324 16.6952 199.28 16.7182 199.248C16.7528 199.201 16.7299 199.11 16.6727 199.069C16.6402 199.045 16.6057 199.147 16.622 199.219ZM16.6944 199.53C16.7203 199.514 16.7391 199.486 16.7361 199.467C16.7331 199.449 16.7119 199.462 16.6889 199.497C16.6636 199.535 16.6657 199.548 16.6944 199.53ZM17.0992 200.833C17.1289 200.855 17.1726 200.865 17.1962 200.856C17.2506 200.834 17.208 200.803 17.1158 200.797C17.0549 200.794 17.0527 200.799 17.0992 200.833ZM17.3067 201.394C17.3401 201.445 17.3464 201.444 17.3377 201.389C17.3316 201.352 17.3128 201.323 17.2958 201.326C17.2788 201.328 17.2837 201.359 17.3067 201.394ZM17.1021 201.83C17.112 201.854 17.1304 201.859 17.1431 201.841C17.1558 201.824 17.1581 201.79 17.1483 201.767C17.1384 201.743 17.12 201.738 17.1073 201.755C17.0946 201.773 17.0923 201.806 17.1021 201.83ZM17.4062 201.587C17.4448 201.613 17.4579 201.611 17.4396 201.582C17.4231 201.556 17.3945 201.537 17.3761 201.54C17.3578 201.542 17.3713 201.564 17.4062 201.587ZM17.394 201.97C17.4117 201.983 17.4418 201.972 17.4608 201.946C17.4798 201.92 17.4809 201.888 17.4632 201.875C17.4456 201.862 17.4155 201.873 17.3965 201.899C17.3774 201.925 17.3763 201.957 17.394 201.97ZM17.4468 202.168C17.5243 202.262 17.5725 202.219 17.5108 202.111C17.4682 202.037 17.451 202.027 17.4259 202.061C17.4086 202.085 17.418 202.133 17.4468 202.168ZM17.3074 203.242C17.3179 203.268 17.3384 203.287 17.3528 203.284C17.3673 203.282 17.363 203.256 17.3432 203.226C17.3021 203.163 17.2789 203.174 17.3074 203.242ZM17.7182 203.683C17.7274 203.705 17.7545 203.715 17.7785 203.705C17.8025 203.696 17.7996 203.671 17.772 203.651C17.7155 203.61 17.6934 203.623 17.7182 203.683ZM17.6962 205.596C17.67 205.654 17.6755 205.659 17.7525 205.647C17.8459 205.633 17.8578 205.587 17.7767 205.554C17.7484 205.542 17.7121 205.562 17.6962 205.596ZM17.5909 206.654C17.6034 206.681 17.6115 206.685 17.6088 206.661C17.6061 206.637 17.6427 206.618 17.6901 206.617C17.7677 206.616 17.7711 206.612 17.7241 206.576C17.6596 206.527 17.5598 206.585 17.5909 206.654ZM17.4795 207.541C17.4932 207.574 17.5015 207.57 17.5043 207.529C17.5075 207.484 17.5194 207.485 17.5506 207.532C17.5862 207.587 17.5919 207.585 17.5872 207.519C17.5842 207.476 17.569 207.432 17.5535 207.42C17.5122 207.39 17.4553 207.483 17.4795 207.541ZM10.0501 216.303C10.028 216.381 9.9851 216.48 9.95463 216.525C9.89824 216.607 9.80607 216.883 9.78814 217.023C9.78273 217.065 9.75595 217.203 9.7286 217.33C9.64643 217.712 9.64663 218.079 9.7293 218.397C9.77232 218.562 9.8221 218.708 9.83991 218.721C9.85773 218.734 9.85388 218.752 9.83137 218.761C9.80883 218.77 9.83746 218.835 9.89498 218.906C9.95248 218.977 9.99088 219.046 9.98025 219.061C9.96963 219.076 9.99825 219.128 10.0438 219.177C10.0894 219.226 10.11 219.282 10.0895 219.3C10.0691 219.319 10.0828 219.364 10.1201 219.4C10.1633 219.443 10.189 219.449 10.1912 219.417C10.1931 219.389 10.2161 219.382 10.2422 219.401C10.3303 219.466 10.3608 219.544 10.3103 219.576C10.2768 219.598 10.2826 219.625 10.3279 219.658C10.3652 219.685 10.406 219.693 10.4187 219.675C10.4314 219.658 10.4703 219.664 10.5051 219.69C10.5502 219.723 10.552 219.746 10.5112 219.773C10.4642 219.803 10.4692 219.811 10.5385 219.822C10.5851 219.828 10.6662 219.874 10.7189 219.922C10.7888 219.986 10.8238 219.997 10.8488 219.963C10.8679 219.937 10.9122 219.937 10.9494 219.965C10.9859 219.991 11.0563 220.019 11.1057 220.026C11.1552 220.033 11.2515 220.074 11.3198 220.116C11.3882 220.158 11.521 220.202 11.6151 220.214C11.7092 220.225 11.8067 220.249 11.8318 220.267C11.8569 220.286 11.9021 220.291 11.9323 220.279C11.9624 220.268 12.0636 220.27 12.1571 220.285C12.2506 220.3 12.3473 220.3 12.372 220.285C12.3967 220.269 12.4305 220.267 12.4472 220.279C12.5243 220.335 13.2137 220.172 13.3587 220.064C13.4018 220.032 13.489 219.995 13.5524 219.983C13.6579 219.962 13.6665 219.952 13.6533 219.872C13.6432 219.811 13.667 219.758 13.7325 219.697C13.8483 219.589 13.8756 219.582 13.8702 219.66C13.8667 219.711 13.8761 219.718 13.9251 219.699C14.004 219.668 14.1964 219.418 14.1608 219.392C14.1336 219.372 14.0692 219.431 14.0207 219.521C14.0078 219.545 13.982 219.553 13.9635 219.54C13.9272 219.513 14.0223 219.375 14.1304 219.297C14.1672 219.271 14.2191 219.265 14.2457 219.284C14.2962 219.321 14.4232 219.163 14.4525 219.027C14.4604 218.99 14.4926 218.931 14.5241 218.896C14.5557 218.86 14.5837 218.778 14.5865 218.713C14.5892 218.648 14.616 218.574 14.646 218.548C14.676 218.521 14.7092 218.419 14.7198 218.32C14.7304 218.221 14.7446 218.133 14.7513 218.125C14.7878 218.078 14.8185 217.883 14.7923 217.864C14.7754 217.851 14.7747 217.802 14.7909 217.753C14.8471 217.586 14.8256 217.403 14.7426 217.342C14.6985 217.31 14.681 217.277 14.7035 217.268C14.7261 217.259 14.76 217.275 14.7788 217.303C14.8507 217.413 14.8352 217.313 14.759 217.176C14.7151 217.097 14.6764 216.981 14.6731 216.918C14.6664 216.787 14.5926 216.712 14.5408 216.783C14.4964 216.844 14.4501 216.81 14.3989 216.677C14.3599 216.576 14.2301 216.465 13.8988 216.25C13.8045 216.189 13.7561 216.136 13.7658 216.105C13.7777 216.067 13.7635 216.057 13.7001 216.06C13.631 216.063 13.6282 216.058 13.6806 216.024C13.7144 216.002 13.7281 215.974 13.711 215.961C13.6938 215.949 13.6694 215.953 13.6567 215.97C13.644 215.988 13.5975 215.975 13.5532 215.943C13.509 215.911 13.4829 215.871 13.4952 215.854C13.5075 215.837 13.487 215.812 13.4497 215.798C13.4125 215.784 13.4268 215.78 13.4816 215.788C13.5955 215.806 13.6435 215.766 13.5721 215.715C13.5456 215.695 13.5395 215.658 13.5585 215.632C13.6024 215.572 13.5863 215.561 13.4397 215.553C13.3501 215.548 13.3182 215.53 13.3103 215.483C13.2981 215.408 13.2459 215.361 13.2418 215.42C13.2402 215.443 13.2034 215.447 13.16 215.43C13.1002 215.406 13.0943 215.39 13.1355 215.364C13.1746 215.338 13.1715 215.324 13.1246 215.311C13.0887 215.301 13.0452 215.283 13.0278 215.27C13.0106 215.257 12.995 215.268 12.9932 215.293C12.9915 215.319 12.9752 215.329 12.9571 215.315C12.939 215.302 12.9294 215.252 12.9357 215.204C12.9458 215.128 12.9328 215.114 12.832 215.091C12.7127 215.064 12.3654 215.032 12.3136 215.044C12.2974 215.048 12.162 215.05 12.0127 215.05C11.7442 215.048 11.3828 215.106 11.3467 215.156C11.3364 215.17 11.2617 215.197 11.1806 215.215C11.0995 215.234 11.0113 215.276 10.9845 215.31C10.9104 215.404 10.7153 215.525 10.6781 215.5C10.6599 215.488 10.6151 215.515 10.5784 215.561C10.5417 215.607 10.5039 215.65 10.4944 215.657C10.4109 215.712 10.0821 216.191 10.0501 216.303ZM12.7749 215.199C12.7782 215.219 12.7959 215.247 12.8142 215.26C12.8343 215.275 12.8431 215.258 12.8366 215.219C12.8307 215.183 12.813 215.156 12.7973 215.158C12.7816 215.16 12.7715 215.179 12.7749 215.199ZM14.1821 216.64C14.2206 216.665 14.2337 216.663 14.2155 216.635C14.1989 216.609 14.1703 216.59 14.152 216.592C14.1337 216.595 14.1472 216.616 14.1821 216.64ZM14.4401 216.488C14.4786 216.514 14.4917 216.512 14.4735 216.483C14.4569 216.457 14.4283 216.438 14.41 216.441C14.3917 216.443 14.4052 216.465 14.4401 216.488Z" fill="white"/>
<defs>
<filter id="filter0_dii_8_15474" x="-3.31268" y="-1.1037" width="259.851" height="289.561" filterUnits="userSpaceOnUse" color-interpolation-filters="sRGB">
<feFlood flood-opacity="0" result="BackgroundImageFix"/>
<feColorMatrix in="SourceAlpha" type="matrix" values="0 0 0 0 0 0 0 0 0 0 0 0 0 0 0 0 0 0 127 0" result="hardAlpha"/>
<feOffset dx="6.62429" dy="4.4162"/>
<feGaussianBlur stdDeviation="3.86417"/>
<feComposite in2="hardAlpha" operator="out"/>
<feColorMatrix type="matrix" values="0 0 0 0 0 0 0 0 0 0 0 0 0 0 0 0 0 0 0.44 0"/>
<feBlend mode="normal" in2="BackgroundImageFix" result="effect1_dropShadow_8_15474"/>
<feBlend mode="normal" in="SourceGraphic" in2="effect1_dropShadow_8_15474" result="shape"/>
<feColorMatrix in="SourceAlpha" type="matrix" values="0 0 0 0 0 0 0 0 0 0 0 0 0 0 0 0 0 0 127 0" result="hardAlpha"/>
<feOffset dx="-4.4162" dy="-4.4162"/>
<feGaussianBlur stdDeviation="2.2081"/>
<feComposite in2="hardAlpha" operator="arithmetic" k2="-1" k3="1"/>
<feColorMatrix type="matrix" values="0 0 0 0 0 0 0 0 0 0 0 0 0 0 0 0 0 0 0.25 0"/>
<feBlend mode="normal" in2="shape" result="effect2_innerShadow_8_15474"/>
<feColorMatrix in="SourceAlpha" type="matrix" values="0 0 0 0 0 0 0 0 0 0 0 0 0 0 0 0 0 0 127 0" result="hardAlpha"/>
<feOffset dx="6.62429" dy="6.62429"/>
<feGaussianBlur stdDeviation="2.2081"/>
<feComposite in2="hardAlpha" operator="arithmetic" k2="-1" k3="1"/>
<feColorMatrix type="matrix" values="0 0 0 0 1 0 0 0 0 1 0 0 0 0 1 0 0 0 0.42 0"/>
<feBlend mode="normal" in2="effect2_innerShadow_8_15474" result="effect3_innerShadow_8_15474"/>
</filter>
</defs>
</svg>
