<svg width="286" height="286" viewBox="0 0 286 286" fill="none" xmlns="http://www.w3.org/2000/svg">
<g filter="url(#filter0_dii_8_15380)">
<path d="M69.781 273.273C71.4203 273.379 73.0542 273.271 74.6718 272.952L78.3052 272.235C78.5638 272.184 78.78 272.145 78.9571 272.116C78.9694 272.115 78.9822 272.113 78.994 272.111L79.1832 272.165L79.5333 272.253C81.2694 272.624 82.8011 272.019 83.7826 271.232C84.6407 270.544 85.0882 269.738 85.287 269.341C85.7109 268.496 85.94 267.568 86.0827 266.889L86.8227 263.37C87.0535 262.271 87.3084 261.187 87.5872 260.117L88.4823 256.683C88.7251 255.751 89.0342 254.826 89.4114 253.909L90.7862 250.566C90.9663 250.128 91.2183 249.771 91.5763 249.452L94.2842 247.038C95.1872 246.233 96.0796 245.436 96.961 244.65L99.6046 242.292C100.297 241.674 101.042 241.106 101.841 240.589L104.858 238.637C105.659 238.119 106.513 237.652 107.421 237.238L110.777 235.709C111.244 235.496 111.709 235.399 112.221 235.406L115.911 235.455C117.058 235.47 118.193 235.514 119.316 235.587L122.943 235.824C123.846 235.883 124.739 236.025 125.624 236.254L129.162 237.168C130.034 237.394 130.881 237.702 131.705 238.097L135.021 239.686C135.798 240.059 136.523 240.512 137.202 241.052L140.089 243.346C140.714 243.842 141.255 244.405 141.721 245.042L143.887 248.004C144.502 248.846 145.066 249.714 145.577 250.61L147.383 253.773C147.687 254.305 147.876 254.859 147.964 255.461L148.486 259.057C148.701 260.535 149.046 261.99 149.517 263.418L150.672 266.916L150.828 267.352C151.226 268.38 151.869 269.482 152.921 270.386C154.188 271.475 155.704 271.979 157.198 272.033L160.241 272.141C161.086 272.171 162.053 272.252 163.148 272.389L166.781 272.842C168.208 273.021 169.639 273.103 171.07 273.088L174.704 273.05C176.053 273.035 177.403 272.963 178.75 272.834L182.384 272.486C183.407 272.388 184.428 272.35 185.449 272.372L189.082 272.449C190.414 272.477 191.747 272.456 193.079 272.385L196.713 272.19C197.562 272.145 198.42 272.193 199.291 272.339L202.94 272.949C205.013 273.295 207.075 273.088 209.036 272.339L212.497 271.017C213.567 270.608 214.645 270.23 215.73 269.883L219.244 268.76C221.121 268.16 222.792 267.164 224.215 265.812L226.919 263.245C228.175 262.053 229.229 260.694 230.071 259.182L231.885 255.925C232.747 254.378 233.339 252.724 233.653 250.983L234.31 247.333C234.59 245.777 234.7 244.21 234.634 242.639L234.48 239.005C234.434 237.911 234.429 236.82 234.464 235.734L234.581 232.118C234.626 230.701 234.578 229.284 234.436 227.87L234.074 224.254C233.981 223.333 233.972 222.414 234.044 221.495L234.33 217.879C234.452 216.333 234.409 214.786 234.202 213.246L233.717 209.63C233.579 208.606 233.502 207.585 233.483 206.566L233.417 202.95C233.396 201.798 233.393 200.644 233.41 199.492L233.426 198.358L234.795 198.218C236.529 198.041 238.203 197.614 239.792 196.925L243.13 195.477C244.249 194.992 245.359 194.507 246.462 194.024L249.752 192.581C251.177 191.956 252.521 191.18 253.778 190.258L256.699 188.116C257.915 187.223 259.043 186.223 260.077 185.118L262.574 182.453C263.67 181.283 264.615 179.997 265.404 178.601L267.208 175.411C268.093 173.845 268.679 172.161 268.955 170.385L269.516 166.776C269.703 165.576 269.889 164.389 270.073 163.217L270.626 159.691C270.844 158.307 270.97 156.905 271.006 155.489L271.098 151.852C271.143 150.098 270.893 148.372 270.353 146.701L269.233 143.235C268.748 141.735 268.099 140.307 267.289 138.957L265.43 135.859C264.689 134.624 263.861 133.452 262.95 132.345L260.676 129.586C259.716 128.42 258.648 127.359 257.477 126.406L254.714 124.159C253.829 123.438 252.935 122.691 252.034 121.917L249.236 119.512C247.734 118.221 245.994 117.318 244.068 116.835L240.498 115.941C239.238 115.625 237.971 115.337 236.697 115.077L234.671 114.665L234.573 113.915C234.503 113.375 234.477 112.634 234.542 111.656L234.78 108.04C234.864 106.768 234.922 105.496 234.953 104.224L235.042 100.608C235.077 99.1917 235.018 97.7755 234.866 96.3624L234.478 92.7465C234.348 91.5394 234.218 90.332 234.087 89.1249L233.694 85.5091C233.594 84.5904 233.578 83.6744 233.644 82.7585L233.906 79.1426C233.997 77.8822 234.067 76.6212 234.114 75.3601L234.25 71.7423C234.31 70.1686 234.189 68.6053 233.886 67.0614L233.194 63.5237C232.919 62.1229 232.546 60.7397 232.076 59.3757L230.879 55.8992C230.236 54.0328 229.193 52.3824 227.783 50.997L225.144 48.4047C223.836 47.1191 222.325 46.1045 220.631 45.3924L217.28 43.9847C216.016 43.4534 214.736 42.9887 213.441 42.592L210.032 41.5477C208.494 41.0766 206.912 40.8076 205.298 40.7388L201.675 40.5853C200.337 40.5283 198.997 40.5244 197.656 40.575L194.023 40.7125C192.995 40.7512 191.966 40.7321 190.936 40.655L187.303 40.3829C185.726 40.2647 184.149 40.3246 182.581 40.5608L178.947 41.1089C177.95 41.2591 176.957 41.341 175.968 41.3556L172.334 41.4093C171.289 41.4247 170.242 41.3862 169.194 41.2953L165.561 40.9808C164.345 40.8753 163.128 40.7717 161.911 40.6701L160.095 40.5175L159.757 40.4902L159.369 39.1908C159.087 38.2481 158.796 37.2186 158.495 36.1022L157.563 32.6464C157.232 31.4193 156.867 30.1866 156.469 28.9486L155.343 25.4447C154.763 23.6405 153.832 22.0094 152.571 20.5906L150.124 17.8391C149.196 16.7955 148.217 15.8049 147.188 14.8682L144.48 12.404C143.203 11.2421 141.77 10.2988 140.196 9.58658L136.865 8.07997C135.493 7.45946 134.08 6.9668 132.63 6.60536L129.147 5.73718C128.057 5.46552 126.961 5.16709 125.861 4.84074L122.357 3.80116C120.377 3.21398 118.339 3.15565 116.328 3.6279L112.767 4.46502C111.711 4.71308 110.655 4.91475 109.601 5.07049L106.027 5.59875C104.355 5.84578 102.747 6.33613 101.221 7.06301L97.9403 8.62517C96.5808 9.2725 95.2884 10.039 94.0666 10.9218L91.1107 13.0584C89.8639 13.9594 88.7164 14.9776 87.6714 16.1084L85.1858 18.7977C84.0895 19.9839 83.1513 21.2884 82.3766 22.7036L80.6195 25.9118C79.8341 27.3466 79.2454 28.8617 78.8587 30.4467L77.9986 33.9703C77.6955 35.2126 77.4206 36.4587 77.1735 37.7077L76.6314 40.4469L74.7371 41.2012C74.5216 41.287 74.1473 41.3785 73.5184 41.3471L69.8851 41.1654C68.6407 41.1033 67.396 41.0539 66.1515 41.0175L62.5182 40.9111C61.3375 40.8766 60.1564 40.8313 58.9757 40.7746L55.3424 40.6004C54.1683 40.5441 52.9939 40.4745 51.8197 40.3913L48.1864 40.1343C46.7906 40.0355 45.3934 40.0167 43.9967 40.0778L40.3634 40.236C39.3675 40.2795 38.3706 40.2576 37.3725 40.1691L33.7383 39.8461C31.9367 39.6864 30.1504 39.8548 28.4075 40.3377L24.8376 41.3264C23.2995 41.7525 21.8317 42.3429 20.4464 43.1014L17.3069 44.8199C16.1323 45.463 14.9793 46.1635 13.8496 46.9188L10.8086 48.9518C9.00724 50.1562 7.65027 51.8018 6.81382 53.7946L5.40212 57.1582C4.85543 58.4608 4.39424 59.7823 4.0226 61.1206L3.07547 64.5341C2.70482 65.869 2.41705 67.2328 2.21256 68.6236L1.68459 72.2197C1.4851 73.5766 1.35398 74.939 1.29193 76.3055L1.12824 79.9214C1.05472 81.541 1.18941 83.1536 1.52658 84.7482L2.29109 88.3641C2.41407 88.9457 2.41867 89.5052 2.30812 90.0798L1.61268 93.6957C1.32813 95.1739 1.17447 96.6618 1.15473 98.1553L1.10647 101.771C1.08797 103.174 1.15632 104.576 1.3099 105.975L1.70635 109.591C1.80151 110.457 1.8046 111.321 1.71487 112.188L1.34018 115.803C1.20057 117.151 1.36053 118.748 2.24757 120.256C3.14299 121.779 4.48304 122.709 5.78343 123.238L9.06951 124.572C10.738 125.25 12.4925 125.597 14.2943 125.639L18.0213 125.725C18.2399 125.73 18.3577 125.773 18.5199 125.897L21.4644 128.148C22.5294 128.962 23.6075 129.732 24.6985 130.455L27.6922 132.44C28.2539 132.813 28.734 133.258 29.1474 133.789L31.3511 136.619C32.0038 137.458 32.6194 138.32 33.198 139.205L35.1538 142.198C35.5373 142.785 35.8202 143.407 36.0091 144.08L36.9733 147.515C37.2537 148.514 37.4851 149.522 37.6687 150.538L38.3007 154.037C38.4402 154.809 38.4824 155.584 38.4266 156.37L38.174 159.924C38.1116 160.801 37.9664 161.66 37.7387 162.503L36.8124 165.932C36.5187 167.019 36.2021 168.117 35.8615 169.224L34.7914 172.7C34.6103 173.288 34.3345 173.813 33.9502 174.299L31.6879 177.16C31.0114 178.015 30.2972 178.849 29.5467 179.661L27.045 182.366C26.5918 182.856 26.0779 183.249 25.4829 183.557L22.2034 185.256C21.2208 185.765 20.2198 186.236 19.2012 186.668L15.8016 188.111C15.4055 188.279 15.0163 188.343 14.563 188.304L10.8493 187.983C9.56416 187.872 7.93274 188.012 6.39372 188.946C4.78688 189.922 3.88769 191.394 3.45583 192.799L2.48316 195.965C2.00452 197.523 1.78564 199.138 1.79151 200.783L1.80475 204.399C1.80845 205.43 1.75582 206.464 1.64769 207.498L1.27016 211.114C1.08668 212.87 1.20565 214.619 1.61457 216.339L2.47465 219.955C2.63095 220.613 2.66342 221.241 2.58535 221.865L2.13308 225.481C1.95599 226.896 1.87295 228.314 1.88518 229.734L1.9164 233.35C1.92507 234.357 1.87144 235.366 1.75555 236.378L1.34113 239.993C1.13086 241.828 1.28232 243.651 1.78583 245.427L2.78878 248.964C3.19295 250.39 3.70625 251.764 4.3301 253.082L5.84777 256.29C6.55037 257.775 7.45207 259.137 8.54722 260.361L10.9004 262.991C12.0183 264.241 13.3076 265.297 14.757 266.143L17.7829 267.908C19.0055 268.622 20.2811 269.241 21.6064 269.765L24.9076 271.071C26.5512 271.722 28.2719 272.065 30.0406 272.107L33.6569 272.193C35.0359 272.225 36.4168 272.185 37.7983 272.07L41.4316 271.769C42.142 271.71 42.8607 271.759 43.6022 271.924L47.2355 272.736C49.1202 273.157 51.0318 273.173 52.923 272.778L56.5563 272.021C57.1879 271.89 57.7978 271.878 58.4146 271.978L62.0479 272.569C63.4116 272.791 64.7788 272.947 66.1477 273.036L69.781 273.273Z" fill="#874FFF"/>
<path d="M98.9745 129.932C98.9745 129.392 98.8845 128.91 98.7045 128.487C98.5245 128.064 98.2275 127.686 97.8135 127.353C97.4085 127.011 96.8595 126.696 96.1665 126.408C95.4825 126.111 94.6275 125.819 93.6015 125.531C92.6205 125.252 91.734 124.946 90.942 124.613C90.15 124.28 89.4705 123.897 88.9035 123.465C88.3455 123.033 87.918 122.529 87.621 121.953C87.324 121.368 87.1755 120.689 87.1755 119.915C87.1755 119.159 87.3375 118.47 87.6615 117.849C87.9855 117.228 88.44 116.693 89.025 116.243C89.619 115.793 90.3165 115.446 91.1175 115.203C91.9275 114.96 92.814 114.839 93.777 114.839C95.154 114.839 96.342 115.1 97.341 115.622C98.349 116.144 99.1275 116.85 99.6765 117.741C100.234 118.623 100.513 119.613 100.513 120.711H98.853C98.853 119.856 98.6505 119.096 98.2455 118.43C97.8495 117.755 97.2735 117.228 96.5175 116.85C95.7705 116.463 94.857 116.27 93.777 116.27C92.697 116.27 91.788 116.436 91.05 116.769C90.321 117.093 89.7675 117.53 89.3895 118.079C89.0205 118.619 88.836 119.222 88.836 119.888C88.836 120.356 88.926 120.788 89.106 121.184C89.286 121.571 89.5785 121.935 89.9835 122.277C90.3975 122.61 90.942 122.925 91.617 123.222C92.292 123.51 93.1245 123.785 94.1145 124.046C95.1585 124.334 96.0855 124.653 96.8955 125.004C97.7055 125.355 98.3895 125.76 98.9475 126.219C99.5055 126.669 99.9285 127.196 100.216 127.799C100.504 128.402 100.648 129.104 100.648 129.905C100.648 130.706 100.477 131.426 100.135 132.065C99.8025 132.695 99.33 133.23 98.718 133.671C98.115 134.112 97.3995 134.45 96.5715 134.684C95.7525 134.918 94.857 135.035 93.885 135.035C93.012 135.035 92.1435 134.922 91.2795 134.697C90.4155 134.472 89.6235 134.126 88.9035 133.658C88.1925 133.181 87.621 132.569 87.189 131.822C86.766 131.075 86.5545 130.184 86.5545 129.149H88.2015C88.2015 129.977 88.368 130.674 88.701 131.241C89.034 131.808 89.475 132.267 90.024 132.618C90.582 132.969 91.194 133.226 91.86 133.388C92.535 133.541 93.21 133.617 93.885 133.617C94.92 133.617 95.8155 133.464 96.5715 133.158C97.3365 132.852 97.926 132.425 98.34 131.876C98.763 131.318 98.9745 130.67 98.9745 129.932ZM113.217 131.39V120.158H114.837V134.765H113.284L113.217 131.39ZM113.514 128.69L114.351 128.663C114.351 129.581 114.243 130.427 114.027 131.201C113.811 131.975 113.473 132.65 113.014 133.226C112.555 133.802 111.961 134.247 111.232 134.562C110.503 134.877 109.626 135.035 108.6 135.035C107.889 135.035 107.236 134.936 106.642 134.738C106.057 134.531 105.553 134.207 105.13 133.766C104.707 133.325 104.379 132.753 104.145 132.051C103.92 131.349 103.807 130.499 103.807 129.5V120.158H105.414V129.527C105.414 130.31 105.499 130.962 105.67 131.484C105.85 132.006 106.093 132.425 106.399 132.74C106.714 133.055 107.074 133.28 107.479 133.415C107.884 133.55 108.321 133.617 108.789 133.617C109.977 133.617 110.913 133.388 111.597 132.929C112.29 132.47 112.78 131.867 113.068 131.12C113.365 130.364 113.514 129.554 113.514 128.69ZM124.449 133.644C125.133 133.644 125.772 133.518 126.366 133.266C126.969 133.005 127.464 132.623 127.851 132.119C128.247 131.606 128.472 130.98 128.526 130.242H130.065C130.02 131.169 129.736 131.997 129.214 132.726C128.701 133.446 128.026 134.013 127.189 134.427C126.361 134.832 125.448 135.035 124.449 135.035C123.432 135.035 122.532 134.85 121.749 134.481C120.975 134.112 120.327 133.599 119.805 132.942C119.283 132.276 118.887 131.502 118.617 130.62C118.356 129.729 118.225 128.771 118.225 127.745V127.178C118.225 126.152 118.356 125.198 118.617 124.316C118.887 123.425 119.283 122.651 119.805 121.994C120.327 121.328 120.975 120.81 121.749 120.441C122.523 120.072 123.418 119.888 124.435 119.888C125.479 119.888 126.415 120.099 127.243 120.522C128.08 120.945 128.746 121.544 129.241 122.318C129.745 123.092 130.02 124.01 130.065 125.072H128.526C128.481 124.289 128.274 123.614 127.905 123.047C127.536 122.48 127.05 122.043 126.447 121.737C125.844 121.431 125.173 121.278 124.435 121.278C123.607 121.278 122.901 121.44 122.316 121.764C121.731 122.079 121.254 122.516 120.885 123.074C120.525 123.623 120.259 124.253 120.088 124.964C119.917 125.666 119.832 126.404 119.832 127.178V127.745C119.832 128.528 119.913 129.275 120.075 129.986C120.246 130.688 120.511 131.313 120.871 131.862C121.24 132.411 121.717 132.848 122.302 133.172C122.896 133.487 123.612 133.644 124.449 133.644ZM138.705 133.644C139.389 133.644 140.028 133.518 140.622 133.266C141.225 133.005 141.72 132.623 142.107 132.119C142.503 131.606 142.728 130.98 142.782 130.242H144.321C144.276 131.169 143.992 131.997 143.47 132.726C142.957 133.446 142.282 134.013 141.445 134.427C140.617 134.832 139.704 135.035 138.705 135.035C137.688 135.035 136.788 134.85 136.005 134.481C135.231 134.112 134.583 133.599 134.061 132.942C133.539 132.276 133.143 131.502 132.873 130.62C132.612 129.729 132.481 128.771 132.481 127.745V127.178C132.481 126.152 132.612 125.198 132.873 124.316C133.143 123.425 133.539 122.651 134.061 121.994C134.583 121.328 135.231 120.81 136.005 120.441C136.779 120.072 137.674 119.888 138.691 119.888C139.735 119.888 140.671 120.099 141.499 120.522C142.336 120.945 143.002 121.544 143.497 122.318C144.001 123.092 144.276 124.01 144.321 125.072H142.782C142.737 124.289 142.53 123.614 142.161 123.047C141.792 122.48 141.306 122.043 140.703 121.737C140.1 121.431 139.429 121.278 138.691 121.278C137.863 121.278 137.157 121.44 136.572 121.764C135.987 122.079 135.51 122.516 135.141 123.074C134.781 123.623 134.515 124.253 134.344 124.964C134.173 125.666 134.088 126.404 134.088 127.178V127.745C134.088 128.528 134.169 129.275 134.331 129.986C134.502 130.688 134.767 131.313 135.127 131.862C135.496 132.411 135.973 132.848 136.558 133.172C137.152 133.487 137.868 133.644 138.705 133.644ZM153.217 135.035C152.263 135.035 151.386 134.859 150.585 134.508C149.793 134.157 149.1 133.662 148.506 133.023C147.921 132.384 147.466 131.628 147.142 130.755C146.827 129.873 146.67 128.91 146.67 127.866V127.286C146.67 126.161 146.836 125.144 147.169 124.235C147.502 123.326 147.961 122.547 148.546 121.899C149.131 121.251 149.797 120.756 150.544 120.414C151.3 120.063 152.092 119.888 152.92 119.888C153.847 119.888 154.671 120.054 155.391 120.387C156.111 120.711 156.714 121.175 157.2 121.778C157.695 122.372 158.068 123.078 158.32 123.897C158.572 124.707 158.698 125.603 158.698 126.584V127.569H147.642V126.192H157.092V126.003C157.074 125.184 156.907 124.419 156.592 123.708C156.286 122.988 155.827 122.403 155.215 121.953C154.603 121.503 153.838 121.278 152.92 121.278C152.236 121.278 151.606 121.422 151.03 121.71C150.463 121.998 149.973 122.412 149.559 122.952C149.154 123.483 148.839 124.118 148.614 124.856C148.398 125.585 148.29 126.395 148.29 127.286V127.866C148.29 128.676 148.407 129.432 148.641 130.134C148.884 130.827 149.226 131.439 149.667 131.97C150.117 132.501 150.648 132.915 151.26 133.212C151.872 133.509 152.547 133.658 153.285 133.658C154.149 133.658 154.914 133.5 155.58 133.185C156.246 132.861 156.844 132.353 157.375 131.66L158.388 132.443C158.073 132.911 157.677 133.343 157.2 133.739C156.732 134.135 156.169 134.45 155.512 134.684C154.855 134.918 154.09 135.035 153.217 135.035ZM170.632 131.039C170.632 130.643 170.533 130.251 170.335 129.864C170.137 129.477 169.755 129.122 169.188 128.798C168.63 128.474 167.806 128.199 166.717 127.974C165.907 127.794 165.183 127.592 164.544 127.367C163.914 127.142 163.383 126.872 162.951 126.557C162.519 126.242 162.19 125.864 161.965 125.423C161.74 124.982 161.628 124.46 161.628 123.857C161.628 123.317 161.745 122.808 161.979 122.331C162.222 121.845 162.564 121.422 163.005 121.062C163.455 120.693 163.995 120.405 164.625 120.198C165.264 119.991 165.979 119.888 166.771 119.888C167.896 119.888 168.859 120.081 169.66 120.468C170.47 120.846 171.087 121.364 171.51 122.021C171.942 122.678 172.158 123.42 172.158 124.248H170.551C170.551 123.744 170.403 123.267 170.106 122.817C169.818 122.367 169.39 121.998 168.823 121.71C168.265 121.422 167.581 121.278 166.771 121.278C165.934 121.278 165.255 121.404 164.733 121.656C164.211 121.908 163.828 122.228 163.585 122.615C163.351 123.002 163.234 123.402 163.234 123.816C163.234 124.14 163.284 124.437 163.383 124.707C163.491 124.968 163.68 125.211 163.95 125.436C164.229 125.661 164.625 125.873 165.138 126.071C165.651 126.269 166.317 126.462 167.136 126.651C168.315 126.912 169.278 127.232 170.025 127.61C170.781 127.979 171.339 128.438 171.699 128.987C172.059 129.527 172.239 130.184 172.239 130.958C172.239 131.561 172.113 132.114 171.861 132.618C171.609 133.113 171.244 133.541 170.767 133.901C170.299 134.261 169.732 134.54 169.066 134.738C168.409 134.936 167.671 135.035 166.852 135.035C165.619 135.035 164.575 134.832 163.72 134.427C162.874 134.013 162.231 133.473 161.79 132.807C161.358 132.132 161.142 131.417 161.142 130.661H162.748C162.802 131.417 163.041 132.015 163.464 132.456C163.887 132.888 164.404 133.194 165.016 133.374C165.637 133.554 166.249 133.644 166.852 133.644C167.68 133.644 168.373 133.523 168.931 133.28C169.489 133.037 169.912 132.717 170.2 132.321C170.488 131.925 170.632 131.498 170.632 131.039ZM184.645 131.039C184.645 130.643 184.546 130.251 184.348 129.864C184.15 129.477 183.768 129.122 183.201 128.798C182.643 128.474 181.819 128.199 180.73 127.974C179.92 127.794 179.196 127.592 178.557 127.367C177.927 127.142 177.396 126.872 176.964 126.557C176.532 126.242 176.203 125.864 175.978 125.423C175.753 124.982 175.641 124.46 175.641 123.857C175.641 123.317 175.758 122.808 175.992 122.331C176.235 121.845 176.577 121.422 177.018 121.062C177.468 120.693 178.008 120.405 178.638 120.198C179.277 119.991 179.992 119.888 180.784 119.888C181.909 119.888 182.872 120.081 183.673 120.468C184.483 120.846 185.1 121.364 185.523 122.021C185.955 122.678 186.171 123.42 186.171 124.248H184.564C184.564 123.744 184.416 123.267 184.119 122.817C183.831 122.367 183.403 121.998 182.836 121.71C182.278 121.422 181.594 121.278 180.784 121.278C179.947 121.278 179.268 121.404 178.746 121.656C178.224 121.908 177.841 122.228 177.598 122.615C177.364 123.002 177.247 123.402 177.247 123.816C177.247 124.14 177.297 124.437 177.396 124.707C177.504 124.968 177.693 125.211 177.963 125.436C178.242 125.661 178.638 125.873 179.151 126.071C179.664 126.269 180.33 126.462 181.149 126.651C182.328 126.912 183.291 127.232 184.038 127.61C184.794 127.979 185.352 128.438 185.712 128.987C186.072 129.527 186.252 130.184 186.252 130.958C186.252 131.561 186.126 132.114 185.874 132.618C185.622 133.113 185.257 133.541 184.78 133.901C184.312 134.261 183.745 134.54 183.079 134.738C182.422 134.936 181.684 135.035 180.865 135.035C179.632 135.035 178.588 134.832 177.733 134.427C176.887 134.013 176.244 133.473 175.803 132.807C175.371 132.132 175.155 131.417 175.155 130.661H176.761C176.815 131.417 177.054 132.015 177.477 132.456C177.9 132.888 178.417 133.194 179.029 133.374C179.65 133.554 180.262 133.644 180.865 133.644C181.693 133.644 182.386 133.523 182.944 133.28C183.502 133.037 183.925 132.717 184.213 132.321C184.501 131.925 184.645 131.498 184.645 131.039ZM108.006 161.932C108.006 161.392 107.916 160.91 107.736 160.487C107.556 160.064 107.259 159.686 106.845 159.353C106.44 159.011 105.891 158.696 105.198 158.408C104.514 158.111 103.659 157.819 102.633 157.531C101.652 157.252 100.765 156.946 99.9735 156.613C99.1815 156.28 98.502 155.897 97.935 155.465C97.377 155.033 96.9495 154.529 96.6525 153.953C96.3555 153.368 96.207 152.689 96.207 151.915C96.207 151.159 96.369 150.47 96.693 149.849C97.017 149.228 97.4715 148.693 98.0565 148.243C98.6505 147.793 99.348 147.446 100.149 147.203C100.959 146.96 101.845 146.839 102.808 146.839C104.185 146.839 105.373 147.1 106.372 147.622C107.38 148.144 108.159 148.85 108.708 149.741C109.266 150.623 109.545 151.613 109.545 152.711H107.884C107.884 151.856 107.682 151.096 107.277 150.43C106.881 149.755 106.305 149.228 105.549 148.85C104.802 148.463 103.888 148.27 102.808 148.27C101.728 148.27 100.819 148.436 100.081 148.769C99.3525 149.093 98.799 149.53 98.421 150.079C98.052 150.619 97.8675 151.222 97.8675 151.888C97.8675 152.356 97.9575 152.788 98.1375 153.184C98.3175 153.571 98.61 153.935 99.015 154.277C99.429 154.61 99.9735 154.925 100.648 155.222C101.323 155.51 102.156 155.785 103.146 156.046C104.19 156.334 105.117 156.653 105.927 157.004C106.737 157.355 107.421 157.76 107.979 158.219C108.537 158.669 108.96 159.196 109.248 159.799C109.536 160.402 109.68 161.104 109.68 161.905C109.68 162.706 109.509 163.426 109.167 164.065C108.834 164.695 108.361 165.23 107.749 165.671C107.146 166.112 106.431 166.45 105.603 166.684C104.784 166.918 103.888 167.035 102.916 167.035C102.043 167.035 101.175 166.922 100.311 166.697C99.447 166.472 98.655 166.126 97.935 165.658C97.224 165.181 96.6525 164.569 96.2205 163.822C95.7975 163.075 95.586 162.184 95.586 161.149H97.233C97.233 161.977 97.3995 162.674 97.7325 163.241C98.0655 163.808 98.5065 164.267 99.0555 164.618C99.6135 164.969 100.225 165.226 100.891 165.388C101.566 165.541 102.241 165.617 102.916 165.617C103.951 165.617 104.847 165.464 105.603 165.158C106.368 164.852 106.957 164.425 107.371 163.876C107.794 163.318 108.006 162.67 108.006 161.932ZM118.414 152.158V153.481H111.097V152.158H118.414ZM113.784 148.405H115.39V163.214C115.39 163.889 115.48 164.398 115.66 164.74C115.84 165.082 116.074 165.311 116.362 165.428C116.65 165.545 116.961 165.604 117.294 165.604C117.537 165.604 117.771 165.59 117.996 165.563C118.221 165.527 118.423 165.491 118.603 165.455L118.671 166.819C118.473 166.882 118.216 166.931 117.901 166.967C117.586 167.012 117.271 167.035 116.956 167.035C116.335 167.035 115.786 166.922 115.309 166.697C114.832 166.463 114.459 166.067 114.189 165.509C113.919 164.942 113.784 164.173 113.784 163.201V148.405ZM120.642 159.691V159.245C120.642 158.183 120.795 157.202 121.101 156.302C121.407 155.402 121.843 154.624 122.41 153.967C122.986 153.31 123.675 152.801 124.476 152.441C125.277 152.072 126.168 151.888 127.149 151.888C128.139 151.888 129.034 152.072 129.835 152.441C130.636 152.801 131.325 153.31 131.901 153.967C132.477 154.624 132.918 155.402 133.224 156.302C133.53 157.202 133.683 158.183 133.683 159.245V159.691C133.683 160.753 133.53 161.734 133.224 162.634C132.918 163.525 132.477 164.299 131.901 164.956C131.334 165.613 130.65 166.126 129.849 166.495C129.048 166.855 128.157 167.035 127.176 167.035C126.186 167.035 125.29 166.855 124.489 166.495C123.688 166.126 123 165.613 122.424 164.956C121.848 164.299 121.407 163.525 121.101 162.634C120.795 161.734 120.642 160.753 120.642 159.691ZM122.248 159.245V159.691C122.248 160.492 122.356 161.252 122.572 161.972C122.788 162.683 123.103 163.318 123.517 163.876C123.931 164.425 124.444 164.857 125.056 165.172C125.668 165.487 126.375 165.644 127.176 165.644C127.968 165.644 128.665 165.487 129.268 165.172C129.88 164.857 130.393 164.425 130.807 163.876C131.221 163.318 131.532 162.683 131.739 161.972C131.955 161.252 132.063 160.492 132.063 159.691V159.245C132.063 158.453 131.955 157.702 131.739 156.991C131.532 156.28 131.217 155.645 130.794 155.087C130.38 154.529 129.867 154.088 129.255 153.764C128.643 153.44 127.941 153.278 127.149 153.278C126.357 153.278 125.655 153.44 125.043 153.764C124.44 154.088 123.927 154.529 123.504 155.087C123.09 155.645 122.775 156.28 122.559 156.991C122.352 157.702 122.248 158.453 122.248 159.245ZM138.637 154.574V166.765H137.031V152.158H138.597L138.637 154.574ZM143.808 152.05L143.767 153.535C143.587 153.508 143.412 153.485 143.241 153.467C143.07 153.449 142.885 153.44 142.687 153.44C141.985 153.44 141.369 153.571 140.838 153.832C140.316 154.084 139.875 154.439 139.515 154.898C139.155 155.348 138.88 155.879 138.691 156.491C138.502 157.094 138.394 157.742 138.367 158.435L137.773 158.665C137.773 157.711 137.872 156.824 138.07 156.005C138.268 155.186 138.57 154.471 138.975 153.859C139.389 153.238 139.906 152.756 140.527 152.414C141.157 152.063 141.895 151.888 142.741 151.888C142.948 151.888 143.151 151.906 143.349 151.942C143.556 151.969 143.709 152.005 143.808 152.05ZM148.141 152.158V166.765H146.535V152.158H148.141ZM146.251 147.932C146.251 147.626 146.346 147.37 146.535 147.163C146.733 146.947 147.003 146.839 147.345 146.839C147.687 146.839 147.957 146.947 148.155 147.163C148.362 147.37 148.465 147.626 148.465 147.932C148.465 148.229 148.362 148.486 148.155 148.702C147.957 148.909 147.687 149.012 147.345 149.012C147.003 149.012 146.733 148.909 146.535 148.702C146.346 148.486 146.251 148.229 146.251 147.932ZM158.199 167.035C157.245 167.035 156.367 166.859 155.566 166.508C154.774 166.157 154.081 165.662 153.487 165.023C152.902 164.384 152.448 163.628 152.124 162.755C151.809 161.873 151.651 160.91 151.651 159.866V159.286C151.651 158.161 151.818 157.144 152.151 156.235C152.484 155.326 152.943 154.547 153.528 153.899C154.113 153.251 154.779 152.756 155.526 152.414C156.282 152.063 157.074 151.888 157.902 151.888C158.829 151.888 159.652 152.054 160.372 152.387C161.092 152.711 161.695 153.175 162.181 153.778C162.676 154.372 163.05 155.078 163.302 155.897C163.554 156.707 163.68 157.603 163.68 158.584V159.569H152.623V158.192H162.073V158.003C162.055 157.184 161.889 156.419 161.574 155.708C161.268 154.988 160.809 154.403 160.197 153.953C159.585 153.503 158.82 153.278 157.902 153.278C157.218 153.278 156.588 153.422 156.012 153.71C155.445 153.998 154.954 154.412 154.54 154.952C154.135 155.483 153.82 156.118 153.595 156.856C153.379 157.585 153.271 158.395 153.271 159.286V159.866C153.271 160.676 153.388 161.432 153.622 162.134C153.865 162.827 154.207 163.439 154.648 163.97C155.098 164.501 155.629 164.915 156.241 165.212C156.853 165.509 157.528 165.658 158.266 165.658C159.13 165.658 159.895 165.5 160.561 165.185C161.227 164.861 161.826 164.353 162.357 163.66L163.369 164.443C163.054 164.911 162.658 165.343 162.181 165.739C161.713 166.135 161.151 166.45 160.494 166.684C159.837 166.918 159.072 167.035 158.199 167.035ZM175.614 163.039C175.614 162.643 175.515 162.251 175.317 161.864C175.119 161.477 174.736 161.122 174.169 160.798C173.611 160.474 172.788 160.199 171.699 159.974C170.889 159.794 170.164 159.592 169.525 159.367C168.895 159.142 168.364 158.872 167.932 158.557C167.5 158.242 167.172 157.864 166.947 157.423C166.722 156.982 166.609 156.46 166.609 155.857C166.609 155.317 166.726 154.808 166.96 154.331C167.203 153.845 167.545 153.422 167.986 153.062C168.436 152.693 168.976 152.405 169.606 152.198C170.245 151.991 170.961 151.888 171.753 151.888C172.878 151.888 173.841 152.081 174.642 152.468C175.452 152.846 176.068 153.364 176.491 154.021C176.923 154.678 177.139 155.42 177.139 156.248H175.533C175.533 155.744 175.384 155.267 175.087 154.817C174.799 154.367 174.372 153.998 173.805 153.71C173.247 153.422 172.563 153.278 171.753 153.278C170.916 153.278 170.236 153.404 169.714 153.656C169.192 153.908 168.81 154.228 168.567 154.615C168.333 155.002 168.216 155.402 168.216 155.816C168.216 156.14 168.265 156.437 168.364 156.707C168.472 156.968 168.661 157.211 168.931 157.436C169.21 157.661 169.606 157.873 170.119 158.071C170.632 158.269 171.298 158.462 172.117 158.651C173.296 158.912 174.259 159.232 175.006 159.61C175.762 159.979 176.32 160.438 176.68 160.987C177.04 161.527 177.22 162.184 177.22 162.958C177.22 163.561 177.094 164.114 176.842 164.618C176.59 165.113 176.226 165.541 175.749 165.901C175.281 166.261 174.714 166.54 174.048 166.738C173.391 166.936 172.653 167.035 171.834 167.035C170.601 167.035 169.557 166.832 168.702 166.427C167.856 166.013 167.212 165.473 166.771 164.807C166.339 164.132 166.123 163.417 166.123 162.661H167.73C167.784 163.417 168.022 164.015 168.445 164.456C168.868 164.888 169.386 165.194 169.998 165.374C170.619 165.554 171.231 165.644 171.834 165.644C172.662 165.644 173.355 165.523 173.913 165.28C174.471 165.037 174.894 164.717 175.182 164.321C175.47 163.925 175.614 163.498 175.614 163.039Z" fill="#FFF9E9"/>
<path opacity="0.7" fill-rule="evenodd" clip-rule="evenodd" d="M89.6752 24.5802C89.6737 24.5899 89.5537 24.7314 89.4084 24.8946C89.0822 25.2611 89.1007 25.2375 89.0441 25.3595C89.0049 25.4438 88.9958 25.45 88.9895 25.3966C88.9834 25.3449 88.9792 25.347 88.9678 25.4072C88.96 25.4484 88.9266 25.5016 88.8936 25.5255C88.8606 25.5495 88.8447 25.5842 88.8582 25.6028C88.8717 25.6214 88.8696 25.6423 88.8538 25.6493C88.8379 25.6563 88.7935 25.7133 88.7551 25.7762C88.7168 25.839 88.6501 25.929 88.6069 25.9762C88.5636 26.0234 88.5297 26.0811 88.5316 26.1044C88.5335 26.1277 88.5054 26.1684 88.469 26.1948C88.4327 26.2211 88.3941 26.2898 88.3833 26.3473C88.3725 26.4049 88.3085 26.5597 88.2412 26.6915C88.1738 26.8233 88.1214 26.9604 88.1247 26.9963C88.128 27.0321 88.1108 27.0628 88.0863 27.0645C88.019 27.069 87.9551 27.2312 87.9976 27.2898C88.0181 27.3181 88.015 27.3426 87.9906 27.3443C87.9052 27.3501 87.8209 27.5367 87.8719 27.607C87.9235 27.6781 87.8884 27.7399 87.8233 27.6929C87.802 27.6775 87.7759 27.7129 87.7622 27.7759C87.749 27.8364 87.7218 27.9246 87.7018 27.972C87.6817 28.0193 87.6824 28.0729 87.7031 28.0909C87.7274 28.112 87.7111 28.1336 87.6578 28.151C87.6003 28.1698 87.5856 28.1934 87.6101 28.2272C87.6297 28.2542 87.6266 28.3051 87.6032 28.3403C87.5086 28.4829 87.4474 28.6686 87.4801 28.7137C87.4992 28.74 87.4811 28.8091 87.4399 28.8672C87.3572 28.9839 87.3285 29.1004 87.3689 29.1561C87.3834 29.176 87.3836 29.2008 87.3693 29.2111C87.3017 29.2602 87.0009 30.4596 86.9171 31.0144C86.8974 31.145 86.8695 31.2697 86.855 31.2917C86.8405 31.3136 86.8171 31.4627 86.8029 31.6228C86.7888 31.783 86.768 31.9026 86.7568 31.8885C86.7456 31.8744 86.7309 31.9365 86.7242 32.0265C86.7175 32.1164 86.7081 32.1609 86.7031 32.1253C86.6972 32.0818 86.6828 32.0767 86.6594 32.1099C86.6401 32.1369 86.6398 32.1802 86.6585 32.2059C86.6772 32.2317 86.6705 32.2955 86.6437 32.3477C86.6169 32.3998 86.6076 32.4537 86.6231 32.4674C86.6386 32.481 86.6301 32.5304 86.6043 32.5771C86.5784 32.6239 86.5652 32.673 86.5749 32.6864C86.5977 32.7177 86.5578 32.9561 86.5118 33.0631C86.4923 33.1087 86.4898 33.1751 86.5064 33.2107C86.5542 33.313 86.5135 33.5345 86.4326 33.6129C86.3919 33.6524 86.3708 33.699 86.3855 33.7167C86.4195 33.7571 86.4013 33.8858 86.3571 33.9179C86.3387 33.9313 86.3379 33.9841 86.3555 34.0352C86.373 34.0863 86.3667 34.2611 86.3416 34.4236C86.3164 34.5861 86.2928 34.8095 86.2891 34.92C86.2854 35.0306 86.272 35.1933 86.2592 35.2817C86.2464 35.37 86.2466 35.457 86.2597 35.4751C86.2728 35.4931 86.2709 35.6367 86.2555 35.7941C86.2378 35.975 86.2513 36.1226 86.2921 36.195C86.3276 36.2579 86.3472 36.3595 86.3357 36.4207C86.3242 36.4819 86.3321 36.5558 86.3532 36.5849C86.3744 36.614 86.3759 36.6949 86.3566 36.7647C86.3373 36.8345 86.3387 36.9152 86.3596 36.944C86.3899 36.9857 86.4014 36.9811 86.4163 36.9212C86.4322 36.8568 86.438 36.862 86.4566 36.957C86.4684 37.0181 86.456 37.0739 86.429 37.081C86.3587 37.0994 86.4059 37.2354 86.4903 37.2576C86.5727 37.2793 86.6219 37.4104 86.5495 37.4153C86.5226 37.4172 86.5115 37.4335 86.5246 37.4516C86.5378 37.4698 86.5644 37.4828 86.5838 37.4806C86.6032 37.4785 86.5937 37.4865 86.5627 37.4985C86.5317 37.5105 86.5083 37.5487 86.5107 37.5834C86.5172 37.6781 86.5453 37.7019 86.5825 37.6442C86.6313 37.5683 86.7645 37.8015 86.7236 37.8914C86.6826 37.9818 86.7458 38.0679 86.8906 38.119C86.9562 38.1421 86.9784 38.1611 86.9427 38.1635C86.9058 38.166 86.8823 38.1954 86.8851 38.2354C86.8911 38.3212 86.9239 38.3698 86.9434 38.3216C86.9515 38.3012 86.9843 38.3342 87.0161 38.3947C87.0523 38.4635 87.0887 38.494 87.1133 38.4762C87.1378 38.4584 87.1634 38.4797 87.1812 38.5325C87.1969 38.5792 87.2428 38.6262 87.2832 38.6368C87.3236 38.6474 87.3585 38.679 87.3608 38.707C87.363 38.735 87.3889 38.7404 87.4183 38.7191C87.4476 38.6978 87.4831 38.7011 87.4969 38.7265C87.5624 38.8462 87.5978 38.8574 87.6629 38.7791C87.6993 38.7353 87.7477 38.7073 87.7703 38.7167C87.8287 38.7411 87.8575 38.8698 87.8053 38.8733C87.7274 38.8787 87.8044 38.9379 87.9409 38.9777C88.0934 39.0221 88.1641 38.9953 88.0726 38.9278C88.0238 38.8917 88.0251 38.8871 88.0789 38.9056C88.1162 38.9185 88.1529 38.9514 88.1603 38.9787C88.1678 39.0061 88.2247 39.0343 88.2868 39.0415C88.349 39.0486 88.4152 39.0757 88.434 39.1017C88.4529 39.1276 88.5368 39.133 88.6205 39.1137C88.7043 39.0944 88.7772 39.0925 88.7827 39.1095C88.7882 39.1264 88.801 39.1361 88.8113 39.131C88.8769 39.098 89.042 39.1009 89.0448 39.1351C89.0486 39.1824 89.1539 39.1619 89.2444 39.0962C89.2783 39.0716 89.3379 39.0752 89.3768 39.1041C89.4156 39.133 89.4541 39.1403 89.4621 39.1202C89.4702 39.1001 89.5367 39.0864 89.6098 39.0897C89.683 39.0931 89.759 39.0708 89.7787 39.0402C89.8012 39.0051 89.8407 39.0041 89.8854 39.0373C89.9291 39.0699 89.9697 39.0693 89.9913 39.0358C90.0105 39.006 90.0555 38.983 90.0914 38.9846C90.1697 38.9883 90.5068 38.8081 90.8272 38.5913C90.9828 38.486 91.0824 38.4415 91.1257 38.4582C91.1793 38.4789 91.191 38.4655 91.1924 38.3819C91.1934 38.3261 91.2073 38.2986 91.2234 38.3207C91.2394 38.3429 91.2685 38.3495 91.2878 38.3354C91.3072 38.3213 91.2997 38.3 91.271 38.288C91.2378 38.2741 91.2403 38.2648 91.278 38.2622C91.3111 38.26 91.3464 38.2118 91.3585 38.1522C91.3709 38.0909 91.392 38.0626 91.4084 38.0852C91.4239 38.1066 91.4217 38.1351 91.4034 38.1484C91.385 38.1617 91.3811 38.1877 91.3946 38.2063C91.4081 38.2249 91.45 38.2177 91.4877 38.1904C91.5254 38.163 91.536 38.1321 91.5112 38.1217C91.434 38.0895 91.4486 38 91.5301 38.0059C91.5835 38.0098 91.6139 37.987 91.6465 37.9188C91.6707 37.8681 91.6923 37.8483 91.6944 37.875C91.702 37.9689 91.8181 37.8907 91.8289 37.7845C91.8415 37.6597 91.8866 37.6109 91.9101 37.6968C91.9233 37.7455 91.9533 37.7275 92.0794 37.5951C92.1637 37.5066 92.2388 37.4113 92.2464 37.3832C92.254 37.3551 92.3265 37.2707 92.4076 37.1956C92.4886 37.1204 92.5622 37.0326 92.571 37.0003C92.5883 36.9372 92.7657 36.6724 92.8188 36.6304C92.8366 36.6164 92.8594 36.5848 92.8696 36.5602C92.8797 36.5357 92.9299 36.4687 92.9811 36.4113C93.0322 36.354 93.0666 36.2795 93.0574 36.2458C93.0482 36.2121 93.0597 36.1749 93.083 36.1632C93.1536 36.1279 93.3516 35.899 93.3699 35.8316C93.3794 35.7969 93.3693 35.761 93.3476 35.7519C93.3259 35.7429 93.3375 35.7277 93.3733 35.7184C93.4092 35.709 93.4448 35.6593 93.4526 35.6081C93.4604 35.5569 93.4864 35.5137 93.5103 35.5121C93.5678 35.5082 93.6464 35.3413 93.6445 35.2273C93.6436 35.1775 93.6704 35.1198 93.7039 35.099C93.7374 35.0783 93.7873 35.0009 93.8147 34.9271C93.8421 34.8532 93.892 34.7656 93.9255 34.7324C93.959 34.6992 93.9847 34.6513 93.9827 34.6261C93.978 34.5679 94.165 34.1762 94.1846 34.2032C94.1925 34.2142 94.2078 34.1883 94.2184 34.1455C94.229 34.1028 94.222 34.0612 94.2028 34.0532C94.1836 34.0452 94.1765 34.0039 94.1871 33.9615C94.1976 33.919 94.1882 33.8768 94.1662 33.8676C94.1442 33.8584 94.1405 33.8405 94.1579 33.8279C94.1753 33.8153 94.1722 33.7621 94.1509 33.7097C94.1297 33.6573 94.1291 33.5883 94.1496 33.5565C94.171 33.5232 94.1885 33.519 94.1908 33.5467C94.1929 33.5732 94.2302 33.571 94.2735 33.5417C94.3169 33.5125 94.3391 33.51 94.3228 33.5362C94.3066 33.5624 94.2992 33.6256 94.3065 33.6766C94.3196 33.7676 94.3207 33.7669 94.3697 33.6402C94.5315 33.2219 94.5439 33.1047 94.4285 33.0855C94.3351 33.07 94.3511 33.0222 94.4594 32.9934C94.5221 32.9767 94.5876 32.9409 94.605 32.9138C94.6486 32.8462 94.5735 32.7525 94.5117 32.7973C94.4842 32.8172 94.4523 32.8204 94.4407 32.8045C94.4126 32.7658 94.6146 32.6718 94.675 32.6953C94.7286 32.7163 94.8264 32.4952 94.7873 32.4413C94.7559 32.3981 94.6663 32.4641 94.6713 32.5267C94.6759 32.5838 94.621 32.6325 94.5939 32.5953C94.5837 32.5811 94.5831 32.5003 94.5927 32.4156C94.6102 32.2607 94.685 32.1603 94.7333 32.2268C94.7476 32.2465 94.739 32.264 94.7142 32.2657C94.6457 32.2703 94.6668 32.342 94.7389 32.3497C94.8229 32.3587 94.8786 32.3133 94.892 32.2247C94.9008 32.1667 94.8912 32.1608 94.8441 32.195C94.7983 32.2282 94.7781 32.217 94.7534 32.1447C94.736 32.0936 94.7295 32.0312 94.7391 32.0061C94.7487 31.9811 94.7318 31.9502 94.7015 31.9376C94.662 31.921 94.671 31.9066 94.7339 31.886C94.7873 31.8685 94.8106 31.8428 94.7938 31.8197C94.7756 31.7946 94.7923 31.779 94.8436 31.7733C94.9802 31.758 95.0206 31.6576 94.9445 31.5226C94.8923 31.43 94.8653 31.4094 94.8424 31.445C94.8252 31.4716 94.8005 31.4786 94.7875 31.4607C94.7744 31.4426 94.7421 31.4436 94.7157 31.4627C94.6893 31.4819 94.6432 31.4864 94.6131 31.4727C94.5831 31.4591 94.579 31.4503 94.604 31.4531C94.6289 31.456 94.6572 31.4269 94.6668 31.3883C94.6801 31.3344 94.6938 31.3315 94.726 31.3759C94.7491 31.4077 94.7814 31.4131 94.7982 31.3878C94.8149 31.3627 94.8134 31.3284 94.7949 31.3117C94.7473 31.2689 94.8951 31.2078 95.0029 31.2257C95.1264 31.2463 95.1543 31.2174 95.036 31.1916C94.9834 31.1802 94.9288 31.1559 94.9147 31.1378C94.9007 31.1196 94.8541 31.1226 94.8113 31.1444C94.7485 31.1764 94.7342 31.1692 94.7378 31.1074C94.7427 31.0223 94.8357 30.9339 94.8418 31.0087C94.8475 31.0799 95.0501 30.9857 95.0622 30.9062C95.07 30.8546 95.057 30.8395 95.0072 30.8429C94.9565 30.8463 94.9389 30.8254 94.9278 30.7479C94.92 30.6933 94.9281 30.638 94.9457 30.6252C94.9923 30.5914 95.0279 30.6555 94.9936 30.7112C94.9716 30.7468 94.9832 30.7584 95.0404 30.7581C95.1433 30.7576 95.1512 30.7492 95.1765 30.6145C95.191 30.5374 95.1744 30.4773 95.128 30.439C95.0732 30.3937 95.0578 30.3958 95.0589 30.4484C95.0601 30.5023 95.0557 30.5037 95.0373 30.4555C95.0215 30.414 95.0548 30.3675 95.1432 30.308C95.2245 30.2531 95.248 30.2226 95.2068 30.2254C95.1552 30.2289 95.1464 30.2035 95.165 30.1047C95.1779 30.0358 95.21 29.978 95.2363 29.9762C95.3101 29.9712 95.2759 29.9483 95.1493 29.9179C95.086 29.9027 95.0173 29.9026 94.9966 29.9177C94.9758 29.9327 94.9474 29.9293 94.9334 29.9101C94.9159 29.886 94.9359 29.8714 94.9978 29.8634C95.1338 29.8455 95.1406 29.8267 95.0462 29.7296C94.9951 29.6771 94.9787 29.6391 95.0063 29.6373C95.0337 29.6354 95.0203 29.6032 94.974 29.5595C94.9177 29.5064 94.911 29.4807 94.9505 29.4704C95.0165 29.4531 95.0658 29.1817 95.0156 29.1124C94.9962 29.0857 95.0007 29.0524 95.0254 29.0384C95.0502 29.0244 95.0653 28.9934 95.059 28.9696C95.0527 28.9458 95.0778 28.8758 95.1149 28.814C95.1519 28.7521 95.1615 28.6929 95.1363 28.6823C95.0539 28.6479 95.0751 28.5664 95.1696 28.554C95.2217 28.5472 95.2554 28.5245 95.2533 28.4978C95.2513 28.4733 95.2269 28.4602 95.199 28.4689C95.1675 28.4787 95.1604 28.4315 95.1801 28.3434C95.2001 28.2539 95.1898 28.1877 95.1519 28.1628C95.0991 28.1281 95.1025 28.1249 95.1807 28.1349C95.2419 28.1428 95.2632 28.1619 95.2494 28.1967C95.2364 28.2294 95.2562 28.2401 95.3059 28.2271C95.3492 28.2157 95.3858 28.1759 95.3903 28.1352C95.3966 28.0791 95.3926 28.0761 95.3723 28.1217C95.3537 28.1634 95.3367 28.1594 95.3131 28.1078C95.2934 28.0647 95.3061 28.0226 95.3443 28.0039C95.4138 27.9698 95.391 27.9038 95.3117 27.9091C95.2545 27.913 95.2346 27.8114 95.2568 27.6288C95.2651 27.5601 95.2586 27.4855 95.2423 27.463C95.226 27.4406 95.2288 27.4249 95.2485 27.4282C95.2839 27.4341 95.3216 27.292 95.2945 27.2547C95.2868 27.2441 95.2581 27.2517 95.2306 27.2717C95.2031 27.2916 95.1684 27.2911 95.1535 27.2705C95.1385 27.2499 95.1546 27.2257 95.189 27.2167C95.2371 27.204 95.2314 27.1742 95.1644 27.0888C95.1164 27.0276 95.074 26.9208 95.0702 26.8517C95.0665 26.7826 95.0461 26.7022 95.025 26.6731C95.0038 26.644 95 26.5992 95.0164 26.5736C95.0598 26.5059 94.9259 26.3063 94.8661 26.3497C94.8375 26.3705 94.8115 26.3585 94.8009 26.3196C94.7912 26.2841 94.8037 26.2403 94.8285 26.2222C94.8846 26.1815 94.8646 26.0189 94.795 25.9505C94.7665 25.9224 94.7604 25.8837 94.7813 25.8643C94.8022 25.8449 94.8329 25.8164 94.8495 25.8007C94.8662 25.7851 94.8624 25.7484 94.8412 25.7192C94.7918 25.6512 94.6329 25.6214 94.653 25.684C94.6616 25.7108 94.6139 25.7258 94.5357 25.7208C94.4318 25.7141 94.4061 25.6972 94.4141 25.641C94.4222 25.5845 94.4371 25.5782 94.4862 25.6105C94.5315 25.6402 94.5678 25.6283 94.6212 25.5664C94.7386 25.4299 94.7356 25.3285 94.6091 25.1542C94.5077 25.0144 94.5026 24.9903 94.567 24.9561C94.6392 24.9178 94.6388 24.917 94.5391 24.9124C94.4833 24.9098 94.4401 24.8917 94.4431 24.8722C94.446 24.8526 94.4034 24.8079 94.3482 24.7729C94.293 24.7378 94.202 24.6401 94.1458 24.5558C94.0891 24.4708 94.0188 24.4042 93.9877 24.4063C93.9554 24.4085 93.97 24.3726 94.0223 24.3213C94.0721 24.2725 94.1141 24.2482 94.1157 24.2673C94.1172 24.2865 94.1472 24.2946 94.1823 24.2854C94.2283 24.2733 94.2292 24.2454 94.1856 24.1852C94.1523 24.1394 94.1076 24.1145 94.0862 24.13C94.0648 24.1455 94.0499 24.1413 94.0531 24.1205C94.0562 24.0998 93.9961 24.0748 93.9196 24.0651C93.8431 24.0553 93.7655 24.0269 93.7474 24.0018C93.7292 23.9767 93.6831 23.9511 93.6449 23.9447C93.591 23.9357 93.5844 23.9267 93.6155 23.9042C93.6375 23.8882 93.6401 23.854 93.6213 23.8281C93.583 23.7753 93.4601 23.7948 93.4348 23.8577C93.4257 23.8802 93.4066 23.8825 93.3923 23.8629C93.378 23.8432 93.2667 23.8105 93.1451 23.7903C92.8847 23.747 92.7485 23.6768 92.8661 23.6466C92.9922 23.6141 93.0092 23.5992 92.9909 23.5368C92.9788 23.4952 92.9614 23.4954 92.9343 23.5376C92.8837 23.6162 92.5553 23.5858 92.4789 23.4954C92.4318 23.4397 92.4384 23.4221 92.5185 23.3903C92.6209 23.3496 92.6056 23.2847 92.4821 23.2346C92.4058 23.2036 92.2516 23.272 92.2871 23.321C92.3005 23.3394 92.334 23.3382 92.3614 23.3183C92.3889 23.2983 92.4224 23.2972 92.4359 23.3158C92.4494 23.3344 92.4155 23.3822 92.3605 23.4221C92.2843 23.4775 92.2495 23.4793 92.2136 23.4299C92.185 23.3904 92.1149 23.376 92.0341 23.3928C91.9613 23.408 91.8927 23.408 91.8817 23.3929C91.8707 23.3778 91.8535 23.3856 91.8435 23.4104C91.8336 23.4352 91.8156 23.442 91.8036 23.4255C91.7745 23.3854 91.3357 23.4687 91.3286 23.5156C91.3255 23.5359 91.2892 23.5568 91.2479 23.5623C91.0881 23.5833 90.8807 23.7054 90.2901 24.1263C89.9534 24.3662 89.6767 24.5705 89.6752 24.5802ZM94.3375 25.3407C94.3421 25.3978 94.4572 25.3768 94.5044 25.3102C94.5253 25.2809 94.5008 25.2695 94.4351 25.2782C94.3682 25.2869 94.3349 25.3083 94.3375 25.3407ZM95.1466 26.3725C95.158 26.4145 95.1783 26.4132 95.215 26.3681C95.2877 26.279 95.2741 26.2084 95.1953 26.2655C95.1595 26.2915 95.1376 26.3396 95.1466 26.3725ZM95.2901 26.5376C95.2859 26.584 95.2572 26.6285 95.2264 26.6367C95.1955 26.6447 95.178 26.68 95.1875 26.7149C95.1975 26.7514 95.2353 26.7704 95.2763 26.7597C95.3159 26.7493 95.3407 26.7188 95.3319 26.6915C95.3232 26.6644 95.3432 26.6225 95.3764 26.5984C95.4263 26.5622 95.4328 26.4643 95.3893 26.4043C95.3644 26.3701 95.2969 26.4608 95.2901 26.5376ZM95.2614 26.8718C95.2925 26.8642 95.3204 26.8421 95.3233 26.8229C95.3262 26.8036 95.3008 26.8099 95.2667 26.8368C95.2291 26.8666 95.227 26.8803 95.2614 26.8718ZM95.2433 28.3041C95.2658 28.3357 95.306 28.3601 95.3327 28.3583C95.394 28.3541 95.3616 28.3094 95.2714 28.2738C95.2119 28.2503 95.208 28.2545 95.2433 28.3041ZM95.2687 28.9312C95.2856 28.9925 95.2922 28.9936 95.3011 28.9366C95.3072 28.8972 95.2977 28.8625 95.2799 28.8595C95.2621 28.8566 95.2571 28.8888 95.2687 28.9312ZM94.9231 29.3003C94.9253 29.3271 94.9421 29.3382 94.9604 29.3249C94.9787 29.3116 94.9919 29.2788 94.9897 29.252C94.9876 29.2252 94.9708 29.2141 94.9525 29.2274C94.9342 29.2407 94.921 29.2735 94.9231 29.3003ZM95.3055 29.1561C95.3357 29.1943 95.3494 29.1966 95.3405 29.1619C95.3324 29.1305 95.31 29.1022 95.2908 29.0991C95.2716 29.0959 95.2782 29.1215 95.3055 29.1561ZM95.1693 29.5344C95.1828 29.553 95.2163 29.5519 95.2438 29.5319C95.2712 29.512 95.2827 29.4805 95.2692 29.4619C95.2557 29.4433 95.2222 29.4444 95.1947 29.4644C95.1672 29.4843 95.1558 29.5158 95.1693 29.5344ZM95.1578 29.749C95.2047 29.868 95.2666 29.8414 95.24 29.7136C95.2216 29.6255 95.2077 29.6097 95.1715 29.6359C95.1466 29.6541 95.1404 29.705 95.1578 29.749ZM94.6705 30.7768C94.6728 30.8054 94.6871 30.8309 94.7022 30.8334C94.7174 30.8359 94.7216 30.8081 94.7117 30.7715C94.691 30.6956 94.6642 30.6991 94.6705 30.7768ZM94.9379 31.3496C94.9399 31.3745 94.9637 31.3934 94.9908 31.3916C95.0179 31.3897 95.0228 31.3645 95.0018 31.3356C94.9587 31.2762 94.9324 31.282 94.9379 31.3496ZM94.2958 33.2529C94.2511 33.3018 94.255 33.3085 94.3356 33.3219C94.4333 33.3382 94.4602 33.2958 94.39 33.2364C94.3655 33.2157 94.3231 33.2231 94.2958 33.2529ZM93.8482 34.2742C93.8517 34.3058 93.8587 34.3117 93.8637 34.2873C93.8686 34.2628 93.9116 34.2549 93.9591 34.2696C94.0369 34.2937 94.0416 34.2908 94.0063 34.2401C93.9577 34.1703 93.8393 34.1959 93.8482 34.2742ZM93.4495 35.1238C93.4525 35.1613 93.462 35.1601 93.478 35.1204C93.4958 35.0761 93.5075 35.0808 93.5232 35.1385C93.5412 35.2042 93.5475 35.2039 93.5642 35.1367C93.5751 35.093 93.5742 35.0439 93.5624 35.0276C93.5309 34.9841 93.4441 35.0581 93.4495 35.1238ZM83.1934 41.4643C83.1463 41.5343 83.0711 41.6199 83.0263 41.6545C82.9433 41.7184 82.762 41.9638 82.6988 42.0975C82.6797 42.138 82.6081 42.2676 82.5397 42.3853C82.334 42.7396 82.2152 43.1063 82.1949 43.4501C82.1843 43.629 82.1867 43.7907 82.2003 43.8095C82.2139 43.8282 82.2042 43.8449 82.1788 43.8466C82.1534 43.8484 82.1608 43.9228 82.1953 44.0122C82.2297 44.1015 82.2454 44.1837 82.2301 44.1948C82.2148 44.2059 82.2264 44.2673 82.256 44.3312C82.2855 44.3951 82.2881 44.457 82.2617 44.4689C82.2354 44.4807 82.2345 44.5301 82.2598 44.5788C82.2891 44.6353 82.3129 44.6496 82.3254 44.6184C82.3362 44.5915 82.3614 44.592 82.3813 44.6194C82.4485 44.712 82.4536 44.8001 82.3927 44.816C82.3523 44.8266 82.3493 44.8556 82.3838 44.9031C82.4122 44.9423 82.4505 44.9634 82.4688 44.9501C82.4871 44.9368 82.5238 44.9559 82.5504 44.9925C82.5848 45.0399 82.5788 45.0642 82.5296 45.0771C82.473 45.092 82.475 45.1024 82.541 45.1349C82.5853 45.1567 82.6517 45.2282 82.6885 45.2936C82.7375 45.3806 82.7689 45.403 82.8049 45.3768C82.8325 45.3568 82.8765 45.3717 82.9049 45.4109C82.9327 45.4492 82.994 45.4996 83.041 45.5228C83.0881 45.5459 83.1712 45.6176 83.2256 45.682C83.2801 45.7465 83.3985 45.8334 83.4888 45.8751C83.579 45.9169 83.6685 45.9727 83.6877 45.999C83.7068 46.0254 83.7502 46.0455 83.7841 46.0436C83.8179 46.0417 83.9181 46.0772 84.0066 46.1225C84.0951 46.1678 84.1918 46.1987 84.2214 46.1914C84.251 46.184 84.2856 46.1923 84.2983 46.2098C84.3571 46.2908 85.098 46.3519 85.278 46.2905C85.3315 46.2723 85.4304 46.264 85.4977 46.2722C85.6097 46.2857 85.6213 46.2791 85.6341 46.1947C85.6439 46.1302 85.6847 46.0853 85.7701 46.0455C85.9206 45.9751 85.9503 45.9767 85.9194 46.0533C85.8995 46.1028 85.9067 46.1125 85.9617 46.1096C86.0504 46.1048 86.3235 45.9174 86.2963 45.88C86.2756 45.8515 86.1922 45.8895 86.1149 45.9628C86.0942 45.9824 86.0657 45.9826 86.0516 45.9632C86.0239 45.925 86.1637 45.8179 86.2967 45.7754C86.3421 45.7609 86.3958 45.7718 86.416 45.7997C86.4546 45.8528 86.6325 45.7361 86.7059 45.6097C86.7257 45.5757 86.777 45.5273 86.8199 45.5022C86.8628 45.477 86.9175 45.4041 86.9413 45.3401C86.9651 45.2761 87.016 45.2103 87.0544 45.1939C87.0929 45.1775 87.1592 45.086 87.2019 44.9907C87.2445 44.8953 87.2871 44.8121 87.2965 44.8059C87.348 44.7714 87.4421 44.5861 87.4221 44.5584C87.4092 44.5407 87.4246 44.491 87.4564 44.4481C87.5667 44.2993 87.6046 44.1093 87.5413 44.0221C87.5077 43.9758 87.5011 43.9365 87.5266 43.9348C87.5521 43.9331 87.5807 43.9601 87.5902 43.9949C87.6264 44.1277 87.6432 44.0231 87.6115 43.8617C87.5932 43.7685 87.5924 43.6398 87.6096 43.5755C87.6452 43.443 87.5958 43.3443 87.521 43.3986C87.4569 43.4451 87.422 43.3954 87.4138 43.2463C87.4077 43.1329 87.3139 42.9803 87.0528 42.6584C86.9785 42.5669 86.9472 42.4985 86.967 42.4706C86.9913 42.4363 86.9803 42.422 86.916 42.4044C86.846 42.3851 86.8449 42.3789 86.9084 42.3617C86.9493 42.3506 86.972 42.3268 86.959 42.3088C86.9459 42.2908 86.9202 42.287 86.9019 42.3003C86.8836 42.3136 86.841 42.2864 86.8073 42.24C86.7736 42.1935 86.7605 42.145 86.7783 42.1321C86.796 42.1192 86.7837 42.0875 86.751 42.0616C86.7182 42.0357 86.734 42.0359 86.786 42.062C86.8941 42.1162 86.9547 42.0927 86.9003 42.0177C86.88 41.9899 86.886 41.9507 86.9134 41.9308C86.9768 41.8848 86.9642 41.8689 86.8205 41.8132C86.7327 41.7792 86.7064 41.7516 86.714 41.7015C86.7259 41.6232 86.6893 41.5588 86.6659 41.6168C86.657 41.6387 86.6189 41.6311 86.5811 41.5999C86.5291 41.5569 86.5284 41.5389 86.5781 41.5259C86.6252 41.5135 86.627 41.4976 86.5844 41.4696C86.5517 41.4481 86.5142 41.4157 86.501 41.3975C86.4878 41.3793 86.4688 41.3847 86.4589 41.4095C86.4489 41.4343 86.4294 41.439 86.4156 41.42C86.4018 41.401 86.4084 41.348 86.4303 41.3021C86.465 41.2294 86.4566 41.2109 86.3635 41.1554C86.2531 41.0896 85.9166 40.9456 85.8612 40.9405C85.8438 40.9389 85.7078 40.8976 85.5589 40.8486C85.2913 40.7605 84.9118 40.701 84.8596 40.7389C84.8447 40.7496 84.7615 40.7521 84.6746 40.7442C84.5876 40.7364 84.4857 40.7506 84.448 40.7758C84.3436 40.8455 84.1097 40.9027 84.0806 40.8657C84.0665 40.8476 84.0127 40.8607 83.9612 40.8949C83.9097 40.929 83.858 40.9595 83.8464 40.9628C83.745 40.9913 83.2618 41.3623 83.1934 41.4643ZM86.2714 41.2447C86.2682 41.2659 86.2769 41.299 86.2909 41.3182C86.3063 41.3394 86.3203 41.3261 86.3266 41.2846C86.3323 41.2468 86.3236 41.2137 86.3071 41.211C86.2907 41.2082 86.2746 41.2234 86.2714 41.2447ZM87.2095 43.1389C87.2396 43.1771 87.2533 43.1794 87.2444 43.1447C87.2363 43.1134 87.214 43.0851 87.1948 43.0819C87.1756 43.0787 87.1822 43.1043 87.2095 43.1389ZM87.5162 43.0711C87.5463 43.1093 87.56 43.1115 87.5511 43.0769C87.543 43.0455 87.5207 43.0172 87.5015 43.014C87.4823 43.0108 87.4889 43.0365 87.5162 43.0711Z" fill="white"/>
<path opacity="0.7" fill-rule="evenodd" clip-rule="evenodd" d="M11.4708 209.09C11.4724 209.099 11.4019 209.271 11.3141 209.471C11.117 209.92 11.1273 209.892 11.1111 210.026C11.0998 210.118 11.0931 210.127 11.0706 210.078C11.0489 210.03 11.0455 210.034 11.0532 210.095C11.0585 210.136 11.0432 210.197 11.0192 210.23C10.9952 210.263 10.9908 210.301 11.0094 210.314C11.0279 210.328 11.0325 210.349 11.0195 210.36C11.0065 210.372 10.9819 210.44 10.9649 210.511C10.9478 210.583 10.9122 210.689 10.8856 210.747C10.859 210.805 10.8446 210.871 10.8536 210.892C10.8626 210.914 10.8484 210.961 10.822 210.998C10.7956 211.034 10.78 211.111 10.7875 211.169C10.795 211.227 10.782 211.394 10.7586 211.54C10.7352 211.687 10.7277 211.833 10.7419 211.866C10.7561 211.899 10.7492 211.934 10.7264 211.943C10.6638 211.968 10.6531 212.142 10.7116 212.185C10.7399 212.205 10.7444 212.23 10.7217 212.239C10.6423 212.271 10.6197 212.474 10.6899 212.525C10.7609 212.577 10.7467 212.647 10.6702 212.622C10.6452 212.614 10.6314 212.656 10.6377 212.72C10.6439 212.781 10.6453 212.874 10.6408 212.925C10.6364 212.976 10.6535 213.027 10.6788 213.038C10.7084 213.05 10.6995 213.076 10.6542 213.109C10.6054 213.144 10.5986 213.171 10.6325 213.196C10.6594 213.216 10.6722 213.265 10.6608 213.306C10.6148 213.471 10.6139 213.666 10.659 213.699C10.6853 213.718 10.6894 213.789 10.6681 213.857C10.6254 213.994 10.6342 214.113 10.6898 214.154C10.7097 214.168 10.7175 214.192 10.7071 214.206C10.658 214.274 10.7422 215.507 10.8337 216.061C10.8553 216.191 10.8672 216.319 10.8602 216.344C10.8532 216.369 10.877 216.518 10.9129 216.675C10.9489 216.832 10.9661 216.952 10.951 216.942C10.936 216.932 10.9412 216.996 10.9627 217.083C10.9841 217.171 10.9888 217.216 10.9731 217.184C10.9541 217.144 10.9388 217.144 10.9267 217.182C10.9168 217.214 10.9298 217.255 10.9555 217.274C10.9813 217.293 10.9947 217.356 10.9853 217.414C10.9758 217.471 10.9837 217.526 11.0026 217.534C11.0215 217.542 11.0287 217.591 11.0186 217.644C11.0084 217.696 11.011 217.747 11.0244 217.757C11.0557 217.78 11.0913 218.019 11.0807 218.135C11.0761 218.184 11.0943 218.248 11.1211 218.277C11.1981 218.359 11.2278 218.583 11.175 218.682C11.1485 218.732 11.1428 218.783 11.1623 218.795C11.2071 218.823 11.2295 218.951 11.1973 218.996C11.184 219.014 11.1996 219.064 11.232 219.108C11.2644 219.151 11.3125 219.319 11.3387 219.481C11.3649 219.644 11.4115 219.863 11.4421 219.97C11.4727 220.076 11.5101 220.235 11.5252 220.323C11.5403 220.411 11.5674 220.494 11.5854 220.507C11.6034 220.52 11.6459 220.657 11.6799 220.812C11.719 220.989 11.7773 221.125 11.8385 221.181C11.8917 221.23 11.9417 221.321 11.9497 221.383C11.9576 221.444 11.9879 221.512 12.017 221.533C12.0461 221.555 12.0725 221.631 12.0758 221.703C12.079 221.776 12.1051 221.852 12.1339 221.873C12.1756 221.903 12.1851 221.895 12.1808 221.834C12.1761 221.768 12.1832 221.771 12.2302 221.855C12.2603 221.91 12.2658 221.967 12.2422 221.982C12.181 222.021 12.2679 222.136 12.3551 222.131C12.4401 222.126 12.5274 222.236 12.46 222.263C12.4351 222.273 12.4295 222.292 12.4476 222.305C12.4657 222.318 12.4951 222.322 12.5129 222.314C12.5306 222.306 12.5241 222.317 12.4983 222.338C12.4725 222.359 12.462 222.402 12.475 222.435C12.5105 222.523 12.5446 222.537 12.5621 222.47C12.5851 222.383 12.7838 222.564 12.7727 222.662C12.7615 222.76 12.8482 222.823 13.0017 222.827C13.0713 222.828 13.0982 222.84 13.065 222.853C13.0307 222.867 13.0174 222.902 13.0324 222.939C13.0646 223.019 13.1108 223.055 13.1144 223.003C13.1159 222.981 13.1572 223.002 13.2062 223.05C13.2619 223.105 13.3059 223.122 13.3238 223.098C13.3416 223.073 13.3725 223.086 13.4058 223.13C13.4351 223.17 13.4933 223.2 13.535 223.198C13.5767 223.196 13.6197 223.215 13.6305 223.241C13.6412 223.267 13.6675 223.264 13.6889 223.235C13.7102 223.205 13.745 223.198 13.766 223.217C13.8652 223.311 13.9024 223.311 13.9401 223.216C13.9612 223.163 13.9985 223.122 14.023 223.124C14.0861 223.129 14.1532 223.242 14.1047 223.262C14.0321 223.291 14.1237 223.324 14.2658 223.319C14.4246 223.314 14.4835 223.267 14.3757 223.231C14.3181 223.212 14.3179 223.207 14.3748 223.208C14.4143 223.209 14.4593 223.229 14.4748 223.253C14.4904 223.276 14.5532 223.285 14.6145 223.273C14.6758 223.261 14.7472 223.266 14.7731 223.285C14.7991 223.304 14.8805 223.283 14.9542 223.239C15.0279 223.195 15.0967 223.17 15.1072 223.185C15.1176 223.199 15.1328 223.204 15.141 223.196C15.1933 223.145 15.3512 223.097 15.3643 223.128C15.3826 223.172 15.4764 223.12 15.5422 223.03C15.5669 222.996 15.6246 222.981 15.6705 222.996C15.7164 223.012 15.7552 223.007 15.7567 222.985C15.7582 222.964 15.8172 222.93 15.8878 222.911C15.9584 222.891 16.0238 222.847 16.0331 222.811C16.0437 222.771 16.081 222.758 16.1338 222.776C16.1854 222.793 16.2238 222.78 16.234 222.742C16.243 222.707 16.2788 222.671 16.3134 222.662C16.389 222.641 16.6541 222.366 16.8919 222.061C17.0073 221.913 17.0884 221.839 17.1347 221.842C17.1921 221.845 17.199 221.829 17.1746 221.749C17.1583 221.695 17.163 221.665 17.1851 221.681C17.2073 221.697 17.2369 221.694 17.251 221.675C17.2651 221.656 17.2513 221.638 17.2204 221.635C17.1845 221.632 17.184 221.623 17.219 221.609C17.2499 221.596 17.2685 221.539 17.2616 221.479C17.2546 221.417 17.2659 221.384 17.2884 221.4C17.3098 221.416 17.3165 221.443 17.3031 221.462C17.2898 221.48 17.2941 221.506 17.3127 221.519C17.3312 221.533 17.3689 221.513 17.3963 221.475C17.4237 221.438 17.4242 221.405 17.3974 221.403C17.3141 221.396 17.3003 221.307 17.3797 221.287C17.4317 221.274 17.4535 221.243 17.4635 221.168C17.4709 221.112 17.4853 221.087 17.4956 221.112C17.5318 221.199 17.6181 221.088 17.5955 220.984C17.569 220.861 17.5969 220.801 17.6457 220.876C17.6733 220.918 17.6963 220.891 17.7754 220.727C17.8282 220.616 17.8702 220.503 17.8688 220.474C17.8674 220.444 17.9103 220.342 17.9642 220.245C18.0181 220.149 18.0609 220.043 18.0593 220.009C18.0563 219.944 18.1433 219.637 18.1808 219.581C18.1934 219.562 18.2054 219.525 18.2074 219.498C18.2095 219.472 18.2366 219.393 18.2675 219.322C18.2985 219.252 18.3082 219.171 18.289 219.141C18.2699 219.112 18.2694 219.073 18.2879 219.055C18.3442 218.999 18.4618 218.721 18.4584 218.651C18.4567 218.615 18.4361 218.584 18.4126 218.582C18.3892 218.58 18.3955 218.562 18.4267 218.542C18.4579 218.522 18.4765 218.464 18.4681 218.413C18.4597 218.362 18.4711 218.313 18.4933 218.304C18.5468 218.282 18.5701 218.099 18.533 217.991C18.5168 217.944 18.5245 217.881 18.55 217.851C18.5755 217.821 18.599 217.732 18.6023 217.653C18.6056 217.575 18.6259 217.476 18.6475 217.434C18.6691 217.392 18.6789 217.338 18.6691 217.315C18.6467 217.261 18.7036 216.831 18.7306 216.851C18.7416 216.859 18.7481 216.829 18.745 216.785C18.7419 216.741 18.7224 216.704 18.7017 216.702C18.6809 216.701 18.6615 216.663 18.6584 216.62C18.6553 216.576 18.6333 216.539 18.6096 216.537C18.5858 216.535 18.5767 216.519 18.5894 216.502C18.602 216.484 18.5826 216.435 18.5462 216.391C18.5099 216.348 18.488 216.283 18.4977 216.246C18.5078 216.208 18.5231 216.198 18.5338 216.224C18.544 216.249 18.5788 216.235 18.611 216.194C18.6432 216.153 18.6636 216.144 18.6562 216.173C18.6488 216.203 18.6613 216.266 18.684 216.312C18.7245 216.394 18.7254 216.394 18.7329 216.258C18.7576 215.81 18.7333 215.695 18.6176 215.712C18.5239 215.726 18.5244 215.676 18.6186 215.615C18.673 215.58 18.7243 215.525 18.7325 215.494C18.753 215.417 18.6527 215.351 18.6078 215.412C18.5878 215.44 18.5583 215.453 18.5424 215.441C18.5038 215.413 18.6669 215.261 18.7315 215.265C18.7891 215.268 18.8139 215.028 18.76 214.989C18.7168 214.957 18.6519 215.048 18.676 215.106C18.698 215.159 18.6608 215.222 18.6236 215.195C18.6095 215.184 18.584 215.108 18.567 215.024C18.5358 214.871 18.576 214.753 18.6424 214.801C18.6621 214.816 18.6593 214.835 18.6362 214.844C18.5725 214.87 18.6147 214.931 18.6856 214.916C18.7683 214.899 18.8073 214.839 18.7927 214.75C18.7831 214.692 18.7722 214.69 18.738 214.737C18.7047 214.783 18.682 214.778 18.6362 214.717C18.6038 214.674 18.5784 214.616 18.5798 214.59C18.5812 214.563 18.5556 214.539 18.5229 214.536C18.4802 214.532 18.4843 214.516 18.5377 214.477C18.5832 214.444 18.5974 214.412 18.5743 214.395C18.5492 214.377 18.5603 214.357 18.6074 214.336C18.7326 214.279 18.7399 214.171 18.6259 214.066C18.5476 213.994 18.5156 213.983 18.5048 214.024C18.4967 214.055 18.4754 214.069 18.4574 214.056C18.4394 214.043 18.409 214.054 18.3898 214.08C18.3706 214.106 18.3281 214.125 18.2953 214.121C18.2625 214.117 18.2559 214.11 18.2805 214.105C18.3052 214.1 18.3231 214.064 18.3203 214.024C18.3163 213.969 18.3284 213.962 18.3728 213.994C18.4046 214.017 18.437 214.012 18.4451 213.983C18.4533 213.954 18.4413 213.922 18.4185 213.912C18.36 213.886 18.4817 213.782 18.5898 213.766C18.7136 213.747 18.7313 213.711 18.6107 213.723C18.5572 213.729 18.4978 213.722 18.4788 213.709C18.4598 213.696 18.4164 213.714 18.3824 213.748C18.3325 213.797 18.3168 213.795 18.3011 213.735C18.2795 213.653 18.3407 213.54 18.3695 213.609C18.397 213.675 18.5606 213.523 18.5475 213.444C18.539 213.392 18.522 213.382 18.4758 213.4C18.4285 213.419 18.4054 213.405 18.3709 213.335C18.3465 213.285 18.3372 213.23 18.35 213.212C18.3839 213.166 18.4376 213.216 18.4221 213.279C18.4122 213.32 18.4268 213.327 18.4811 213.31C18.5788 213.277 18.5837 213.267 18.5663 213.131C18.5562 213.053 18.5219 213.001 18.4659 212.979C18.3998 212.953 18.3858 212.959 18.4031 213.009C18.4209 213.06 18.4171 213.063 18.3848 213.023C18.3569 212.988 18.3743 212.934 18.4399 212.85C18.5003 212.772 18.5132 212.736 18.4749 212.751C18.4269 212.771 18.4107 212.749 18.3979 212.65C18.3889 212.58 18.4016 212.515 18.4261 212.505C18.4947 212.478 18.4551 212.467 18.3253 212.477C18.2605 212.482 18.195 212.503 18.18 212.524C18.1649 212.544 18.1368 212.55 18.1176 212.536C18.0935 212.518 18.108 212.498 18.1644 212.472C18.2882 212.413 18.2889 212.393 18.1691 212.329C18.1043 212.295 18.077 212.264 18.1026 212.254C18.1281 212.244 18.1055 212.217 18.0479 212.19C17.978 212.157 17.9637 212.134 17.9981 212.112C18.0555 212.076 18.0186 211.802 17.9494 211.752C17.9228 211.732 17.9168 211.699 17.936 211.678C17.9552 211.657 17.96 211.623 17.9467 211.603C17.9333 211.582 17.9356 211.508 17.9518 211.437C17.9679 211.367 17.9588 211.308 17.9315 211.306C17.8425 211.298 17.8375 211.214 17.9236 211.173C17.971 211.151 17.9961 211.119 17.9858 211.094C17.9763 211.071 17.9491 211.066 17.9253 211.083C17.8983 211.102 17.877 211.059 17.8685 210.97C17.8599 210.878 17.8297 210.818 17.786 210.807C17.7251 210.79 17.7273 210.786 17.8048 210.771C17.8654 210.76 17.8915 210.771 17.8891 210.809C17.8869 210.844 17.9091 210.848 17.9523 210.82C17.99 210.796 18.0125 210.747 18.0042 210.707C17.9928 210.651 17.9882 210.65 17.9829 210.699C17.9781 210.745 17.9607 210.746 17.9223 210.704C17.8903 210.67 17.8893 210.626 17.9199 210.596C17.9755 210.542 17.9335 210.486 17.8596 210.516C17.8065 210.537 17.7561 210.447 17.7209 210.266C17.7076 210.198 17.6784 210.129 17.656 210.113C17.6335 210.097 17.6313 210.081 17.6511 210.078C17.6866 210.073 17.6786 209.926 17.6413 209.899C17.6307 209.891 17.6057 209.907 17.5857 209.935C17.5657 209.962 17.5326 209.972 17.512 209.957C17.4915 209.942 17.4992 209.914 17.5292 209.895C17.5711 209.868 17.5564 209.842 17.4663 209.781C17.4017 209.738 17.3285 209.649 17.3036 209.585C17.2786 209.52 17.2344 209.45 17.2054 209.429C17.1763 209.408 17.1588 209.366 17.1665 209.337C17.1869 209.259 16.9979 209.11 16.9544 209.17C16.9336 209.199 16.9052 209.195 16.8831 209.162C16.863 209.131 16.8612 209.085 16.8793 209.061C16.9201 209.004 16.8508 208.856 16.7636 208.812C16.7278 208.795 16.71 208.76 16.7239 208.735C16.7378 208.71 16.7582 208.673 16.7692 208.653C16.7802 208.633 16.7653 208.599 16.7361 208.578C16.6681 208.529 16.5078 208.549 16.5462 208.603C16.5627 208.626 16.5219 208.655 16.446 208.674C16.3451 208.7 16.3155 208.692 16.3058 208.636C16.296 208.579 16.3082 208.569 16.3649 208.584C16.4171 208.599 16.448 208.576 16.4796 208.501C16.5492 208.335 16.515 208.239 16.3409 208.112C16.2013 208.011 16.189 207.989 16.2397 207.937C16.2966 207.878 16.2959 207.878 16.1997 207.904C16.1458 207.919 16.0992 207.915 16.096 207.895C16.0927 207.876 16.0383 207.847 15.975 207.83C15.9117 207.814 15.795 207.749 15.7155 207.686C15.6354 207.623 15.5479 207.581 15.519 207.593C15.4889 207.605 15.4917 207.566 15.5256 207.501C15.5579 207.44 15.5904 207.403 15.5978 207.421C15.6052 207.439 15.6362 207.437 15.6668 207.418C15.7068 207.392 15.699 207.365 15.639 207.322C15.5931 207.288 15.5429 207.278 15.5274 207.3C15.5118 207.321 15.4963 207.322 15.4929 207.301C15.4895 207.28 15.4247 207.275 15.3489 207.289C15.273 207.304 15.1905 207.301 15.1655 207.282C15.1405 207.264 15.0887 207.254 15.0505 207.26C14.9964 207.268 14.9874 207.261 15.0099 207.23C15.0259 207.208 15.0178 207.175 14.992 207.156C14.9392 207.118 14.8284 207.174 14.8237 207.242C14.822 207.266 14.8045 207.274 14.7849 207.26C14.7652 207.246 14.6493 207.249 14.5273 207.267C14.2663 207.306 14.1151 207.282 14.2176 207.217C14.3275 207.147 14.3391 207.127 14.3025 207.074C14.2781 207.038 14.2616 207.043 14.2488 207.092C14.225 207.182 13.9033 207.255 13.8027 207.192C13.7407 207.154 13.7416 207.135 13.8079 207.08C13.8927 207.01 13.8582 206.953 13.7252 206.943C13.643 206.937 13.5175 207.05 13.5664 207.086C13.5849 207.099 13.6163 207.088 13.6363 207.06C13.6563 207.033 13.6878 207.021 13.7064 207.035C13.7249 207.048 13.7074 207.104 13.6675 207.159C13.612 207.235 13.5795 207.248 13.5301 207.212C13.4907 207.183 13.4195 207.191 13.348 207.232C13.2833 207.269 13.2181 207.29 13.203 207.279C13.1879 207.268 13.1739 207.281 13.1721 207.308C13.1703 207.334 13.1552 207.346 13.1388 207.334C13.0987 207.305 12.7071 207.52 12.7148 207.567C12.7181 207.587 12.6901 207.618 12.6524 207.636C12.5069 207.705 12.3473 207.885 11.9155 208.468C11.6693 208.8 11.4692 209.08 11.4708 209.09ZM16.1402 208.374C16.1622 208.427 16.2652 208.371 16.2895 208.293C16.3003 208.259 16.2735 208.256 16.2137 208.284C16.1527 208.313 16.1277 208.344 16.1402 208.374ZM17.2282 209.105C17.2521 209.142 17.271 209.134 17.292 209.08C17.3336 208.973 17.2988 208.91 17.2416 208.989C17.2156 209.024 17.2096 209.077 17.2282 209.105ZM17.4157 209.218C17.426 209.263 17.4125 209.315 17.3857 209.332C17.3588 209.349 17.353 209.388 17.3729 209.418C17.3936 209.45 17.4354 209.456 17.4712 209.433C17.5056 209.411 17.5198 209.375 17.503 209.352C17.4864 209.328 17.4924 209.282 17.5165 209.249C17.5529 209.199 17.5289 209.104 17.4689 209.061C17.4347 209.036 17.3985 209.143 17.4157 209.218ZM17.4916 209.545C17.5188 209.528 17.5385 209.498 17.5353 209.479C17.5322 209.46 17.5099 209.474 17.4859 209.51C17.4593 209.55 17.4615 209.564 17.4916 209.545ZM17.9165 210.913C17.9477 210.936 17.9935 210.947 18.0183 210.937C18.0753 210.914 18.0306 210.881 17.9339 210.875C17.87 210.871 17.8676 210.876 17.9165 210.913ZM18.1343 211.501C18.1693 211.554 18.1759 211.553 18.1668 211.496C18.1604 211.457 18.1406 211.427 18.1228 211.43C18.1049 211.432 18.1101 211.465 18.1343 211.501ZM17.9195 211.959C17.9299 211.984 17.9492 211.989 17.9625 211.971C17.9759 211.953 17.9783 211.917 17.968 211.893C17.9576 211.868 17.9383 211.862 17.925 211.881C17.9117 211.899 17.9092 211.934 17.9195 211.959ZM18.2387 211.704C18.2792 211.731 18.2929 211.729 18.2738 211.699C18.2564 211.671 18.2264 211.651 18.2071 211.654C18.1879 211.657 18.2021 211.679 18.2387 211.704ZM18.2259 212.106C18.2445 212.119 18.276 212.108 18.296 212.08C18.316 212.053 18.3171 212.019 18.2986 212.006C18.28 211.992 18.2485 212.004 18.2285 212.031C18.2085 212.059 18.2074 212.092 18.2259 212.106ZM18.2813 212.313C18.3626 212.412 18.4133 212.368 18.3485 212.254C18.3038 212.176 18.2857 212.166 18.2594 212.202C18.2413 212.227 18.2511 212.277 18.2813 212.313ZM18.135 213.441C18.146 213.468 18.1675 213.488 18.1827 213.485C18.1979 213.483 18.1933 213.455 18.1726 213.424C18.1295 213.358 18.105 213.369 18.135 213.441ZM18.5662 213.904C18.5758 213.927 18.6043 213.937 18.6295 213.927C18.6547 213.917 18.6516 213.892 18.6227 213.871C18.5633 213.827 18.5401 213.841 18.5662 213.904ZM18.5431 215.912C18.5156 215.973 18.5214 215.978 18.6022 215.966C18.7002 215.951 18.7127 215.902 18.6275 215.868C18.5978 215.855 18.5598 215.876 18.5431 215.912ZM18.4325 217.022C18.4457 217.051 18.4542 217.054 18.4514 217.03C18.4485 217.005 18.4869 216.984 18.5366 216.983C18.6181 216.982 18.6217 216.978 18.5724 216.941C18.5046 216.889 18.3999 216.95 18.4325 217.022ZM18.3156 217.953C18.33 217.988 18.3387 217.984 18.3417 217.941C18.345 217.893 18.3576 217.894 18.3903 217.944C18.4277 218.001 18.4336 217.999 18.4287 217.93C18.4255 217.885 18.4096 217.839 18.3933 217.827C18.3499 217.795 18.2902 217.892 18.3156 217.953ZM10.5178 227.15C10.4947 227.231 10.4496 227.336 10.4176 227.382C10.3584 227.469 10.2617 227.758 10.2429 227.905C10.2372 227.949 10.2091 228.095 10.1804 228.228C10.0941 228.628 10.0943 229.014 10.1811 229.347C10.2263 229.521 10.2785 229.674 10.2972 229.687C10.3159 229.701 10.3119 229.72 10.2882 229.729C10.2646 229.739 10.2946 229.807 10.355 229.882C10.4153 229.956 10.4557 230.029 10.4445 230.045C10.4333 230.06 10.4634 230.115 10.5112 230.166C10.559 230.218 10.5807 230.276 10.5592 230.295C10.5378 230.315 10.5522 230.362 10.5913 230.401C10.6366 230.445 10.6636 230.451 10.6659 230.418C10.6679 230.389 10.692 230.382 10.7194 230.402C10.8119 230.469 10.8439 230.551 10.7909 230.585C10.7558 230.608 10.7619 230.636 10.8094 230.671C10.8485 230.699 10.8914 230.708 10.9047 230.689C10.918 230.671 10.9588 230.678 10.9954 230.704C11.0427 230.739 11.0446 230.764 11.0018 230.791C10.9525 230.823 10.9576 230.832 11.0304 230.843C11.0793 230.85 11.1645 230.897 11.2198 230.948C11.2932 231.016 11.3299 231.027 11.3561 230.991C11.3762 230.964 11.4226 230.964 11.4617 230.993C11.5001 231.021 11.5739 231.05 11.6258 231.057C11.6777 231.065 11.7788 231.107 11.8505 231.152C11.9222 231.196 12.0617 231.242 12.1604 231.254C12.2592 231.266 12.3615 231.291 12.3879 231.311C12.4142 231.33 12.4617 231.336 12.4933 231.323C12.5249 231.311 12.6311 231.314 12.7293 231.33C12.8275 231.345 12.929 231.345 12.9548 231.329C12.9807 231.313 13.0162 231.31 13.0337 231.323C13.1147 231.382 13.8382 231.211 13.9905 231.097C14.0357 231.063 14.1272 231.025 14.1938 231.012C14.3045 230.99 14.3135 230.98 14.2997 230.896C14.289 230.832 14.314 230.776 14.3829 230.712C14.5044 230.599 14.533 230.591 14.5273 230.673C14.5237 230.727 14.5336 230.734 14.5849 230.714C14.6678 230.682 14.8697 230.419 14.8324 230.392C14.8038 230.371 14.7362 230.433 14.6853 230.527C14.6717 230.552 14.6447 230.561 14.6253 230.547C14.5871 230.519 14.687 230.374 14.8004 230.293C14.8391 230.265 14.8936 230.259 14.9214 230.279C14.9744 230.317 15.1077 230.152 15.1385 230.009C15.1468 229.97 15.1806 229.908 15.2137 229.871C15.2468 229.834 15.2762 229.748 15.2792 229.68C15.282 229.611 15.3102 229.533 15.3416 229.505C15.3731 229.478 15.408 229.371 15.4191 229.267C15.4302 229.163 15.4451 229.071 15.4521 229.062C15.4905 229.013 15.5227 228.808 15.4951 228.788C15.4774 228.775 15.4767 228.723 15.4937 228.672C15.5527 228.496 15.5301 228.304 15.443 228.241C15.3968 228.207 15.3783 228.172 15.402 228.162C15.4257 228.153 15.4613 228.17 15.481 228.2C15.5565 228.315 15.5402 228.21 15.4602 228.066C15.4141 227.983 15.3735 227.861 15.3701 227.795C15.363 227.658 15.2856 227.579 15.2312 227.654C15.1846 227.718 15.136 227.681 15.0822 227.542C15.0414 227.436 14.9051 227.32 14.5573 227.094C14.4584 227.03 14.4075 226.975 14.4177 226.942C14.4303 226.902 14.4154 226.892 14.3488 226.895C14.2763 226.898 14.2733 226.893 14.3284 226.857C14.3639 226.834 14.3782 226.804 14.3602 226.791C14.3422 226.778 14.3166 226.782 14.3033 226.8C14.29 226.819 14.2411 226.806 14.1947 226.772C14.1483 226.738 14.1208 226.696 14.1337 226.678C14.1466 226.661 14.1251 226.634 14.086 226.62C14.0469 226.605 14.062 226.601 14.1195 226.609C14.239 226.628 14.2894 226.587 14.2145 226.532C14.1866 226.512 14.1802 226.473 14.2002 226.445C14.2462 226.382 14.2293 226.371 14.0755 226.362C13.9815 226.357 13.948 226.339 13.9397 226.289C13.9268 226.211 13.8721 226.161 13.8678 226.223C13.8661 226.247 13.8275 226.251 13.7819 226.233C13.7192 226.208 13.7129 226.191 13.7562 226.164C13.7972 226.137 13.794 226.122 13.7448 226.108C13.7071 226.098 13.6614 226.079 13.6432 226.065C13.6251 226.052 13.6087 226.063 13.6069 226.09C13.605 226.116 13.588 226.127 13.569 226.113C13.55 226.099 13.5399 226.047 13.5465 225.997C13.5571 225.917 13.5434 225.902 13.4377 225.878C13.3124 225.849 12.9479 225.816 12.8936 225.828C12.8766 225.832 12.7345 225.835 12.5777 225.834C12.296 225.833 11.9166 225.893 11.8787 225.946C11.8679 225.96 11.7895 225.988 11.7044 226.008C11.6192 226.027 11.5267 226.072 11.4986 226.108C11.4208 226.206 11.216 226.333 11.1769 226.307C11.1579 226.294 11.1108 226.323 11.0723 226.371C11.0338 226.42 10.9941 226.465 10.9841 226.471C10.8965 226.53 10.5514 227.032 10.5178 227.15ZM13.3777 225.991C13.3812 226.012 13.3997 226.041 13.4189 226.055C13.4401 226.07 13.4494 226.053 13.4425 226.012C13.4363 225.974 13.4178 225.945 13.4013 225.948C13.3848 225.95 13.3742 225.97 13.3777 225.991ZM14.8547 227.503C14.8952 227.53 14.9089 227.528 14.8897 227.498C14.8724 227.47 14.8424 227.45 14.8231 227.453C14.8039 227.456 14.8181 227.479 14.8547 227.503ZM15.1255 227.344C15.166 227.371 15.1797 227.369 15.1605 227.339C15.1432 227.311 15.1131 227.291 15.0939 227.294C15.0747 227.297 15.0889 227.319 15.1255 227.344Z" fill="white"/>
</g>
<defs>
<filter id="filter0_dii_8_15380" x="-3.46698" y="-1.1037" width="288.923" height="286.561" filterUnits="userSpaceOnUse" color-interpolation-filters="sRGB">
<feFlood flood-opacity="0" result="BackgroundImageFix"/>
<feColorMatrix in="SourceAlpha" type="matrix" values="0 0 0 0 0 0 0 0 0 0 0 0 0 0 0 0 0 0 127 0" result="hardAlpha"/>
<feOffset dx="6.62429" dy="4.4162"/>
<feGaussianBlur stdDeviation="3.86417"/>
<feComposite in2="hardAlpha" operator="out"/>
<feColorMatrix type="matrix" values="0 0 0 0 0 0 0 0 0 0 0 0 0 0 0 0 0 0 0.44 0"/>
<feBlend mode="normal" in2="BackgroundImageFix" result="effect1_dropShadow_8_15380"/>
<feBlend mode="normal" in="SourceGraphic" in2="effect1_dropShadow_8_15380" result="shape"/>
<feColorMatrix in="SourceAlpha" type="matrix" values="0 0 0 0 0 0 0 0 0 0 0 0 0 0 0 0 0 0 127 0" result="hardAlpha"/>
<feOffset dx="-4.4162" dy="-4.4162"/>
<feGaussianBlur stdDeviation="2.2081"/>
<feComposite in2="hardAlpha" operator="arithmetic" k2="-1" k3="1"/>
<feColorMatrix type="matrix" values="0 0 0 0 0 0 0 0 0 0 0 0 0 0 0 0 0 0 0.25 0"/>
<feBlend mode="normal" in2="shape" result="effect2_innerShadow_8_15380"/>
<feColorMatrix in="SourceAlpha" type="matrix" values="0 0 0 0 0 0 0 0 0 0 0 0 0 0 0 0 0 0 127 0" result="hardAlpha"/>
<feOffset dx="6.62429" dy="6.62429"/>
<feGaussianBlur stdDeviation="2.2081"/>
<feComposite in2="hardAlpha" operator="arithmetic" k2="-1" k3="1"/>
<feColorMatrix type="matrix" values="0 0 0 0 1 0 0 0 0 1 0 0 0 0 1 0 0 0 0.42 0"/>
<feBlend mode="normal" in2="effect2_innerShadow_8_15380" result="effect3_innerShadow_8_15380"/>
</filter>
</defs>
</svg>
