<svg width="15" height="13" viewBox="0 0 15 13" fill="none" xmlns="http://www.w3.org/2000/svg">
<path opacity="0.7" fill-rule="evenodd" clip-rule="evenodd" d="M2.97943 12.2534C2.98358 12.2478 3.10613 12.1994 3.25174 12.1458C3.57869 12.0254 3.55925 12.034 3.63553 11.9766C3.68832 11.9368 3.69608 11.936 3.68213 11.9716C3.66862 12.006 3.67197 12.0061 3.6993 11.9722C3.71797 11.949 3.75669 11.9269 3.78535 11.9229C3.81401 11.919 3.83564 11.9025 3.83341 11.8864C3.83118 11.8702 3.83944 11.8578 3.85173 11.8587C3.86402 11.8597 3.91094 11.8388 3.95596 11.8123C4.00098 11.7857 4.0729 11.7517 4.11578 11.7366C4.15866 11.7215 4.19917 11.6967 4.2058 11.6815C4.21243 11.6662 4.24367 11.6502 4.27526 11.6459C4.30682 11.6415 4.35397 11.6114 4.38001 11.579C4.40604 11.5466 4.49793 11.471 4.58424 11.411C4.67053 11.351 4.74926 11.2827 4.75916 11.2591C4.7691 11.2355 4.7902 11.2221 4.80608 11.2292C4.84978 11.2489 4.94404 11.1687 4.93702 11.1178C4.93363 11.0932 4.94381 11.0789 4.95966 11.086C5.01509 11.111 5.13036 11.0223 5.12194 10.9612C5.11342 10.8994 5.15607 10.8724 5.18111 10.9237C5.18932 10.9404 5.2175 10.927 5.24721 10.8921C5.27569 10.8586 5.32226 10.8125 5.35066 10.7895C5.37906 10.7666 5.39656 10.7328 5.38959 10.7145C5.38146 10.6933 5.39891 10.6852 5.43812 10.6921C5.4804 10.6996 5.49754 10.6897 5.49348 10.6603C5.49025 10.6369 5.50921 10.606 5.53566 10.5918C5.64262 10.5341 5.74314 10.4383 5.73773 10.3991C5.73458 10.3762 5.76904 10.339 5.81431 10.3164C5.90517 10.271 5.9621 10.2076 5.95542 10.1592C5.95304 10.1419 5.96122 10.1264 5.97358 10.1247C6.03238 10.1166 6.62222 9.46595 6.86038 9.1465C6.91643 9.07134 6.97569 9.00256 6.9921 8.99366C7.00851 8.98475 7.07304 8.89923 7.13554 8.80366C7.19803 8.70807 7.25103 8.64015 7.25336 8.65273C7.25568 8.66528 7.28563 8.63131 7.31994 8.5772C7.35422 8.52308 7.37504 8.4984 7.36621 8.52233C7.35538 8.55157 7.36268 8.55957 7.38845 8.54668C7.40954 8.53617 7.42427 8.50921 7.42118 8.48679C7.41808 8.46438 7.44359 8.42666 7.47785 8.40296C7.51211 8.37926 7.53594 8.34861 7.53081 8.3349C7.5257 8.32118 7.54752 8.29309 7.57934 8.27245C7.61119 8.2518 7.6359 8.22544 7.6343 8.21384C7.63055 8.18661 7.73532 8.05065 7.79989 7.999C7.82742 7.97698 7.85118 7.9362 7.85268 7.90837C7.85704 7.8283 7.95662 7.7032 8.03356 7.68113C8.07221 7.67005 8.10111 7.6479 8.09775 7.6319C8.09 7.5952 8.14449 7.5207 8.18294 7.5154C8.19892 7.51319 8.21705 7.48038 8.22319 7.44251C8.22933 7.40464 8.29175 7.29723 8.36189 7.20384C8.43207 7.11048 8.5216 6.97845 8.5609 6.91047C8.60021 6.84247 8.6631 6.74505 8.70069 6.69399C8.73828 6.64292 8.76725 6.58835 8.76509 6.57269C8.76294 6.55704 8.81219 6.46773 8.87453 6.37425C8.94613 6.26686 8.9871 6.1699 8.98576 6.11094C8.98458 6.05962 9.0063 5.98944 9.03396 5.95495C9.06163 5.92048 9.08144 5.87157 9.07795 5.84625C9.07446 5.82093 9.10059 5.76974 9.13601 5.73247C9.17144 5.69523 9.1976 5.64424 9.19415 5.61922C9.18915 5.58292 9.1804 5.58197 9.15103 5.61454C9.11947 5.64951 9.11758 5.64433 9.13778 5.5786C9.15078 5.53637 9.17721 5.50558 9.19652 5.51019C9.24677 5.52217 9.2627 5.42121 9.21723 5.37902C9.17291 5.33788 9.18598 5.23928 9.23298 5.26042C9.2504 5.26826 9.26287 5.26178 9.2607 5.24601C9.25852 5.23027 9.2462 5.21317 9.23333 5.20803C9.22047 5.20292 9.22909 5.20104 9.25253 5.20391C9.27597 5.20676 9.30343 5.19067 9.31354 5.16815C9.34114 5.10664 9.3315 5.08232 9.28892 5.10605C9.23292 5.13724 9.22754 4.94655 9.28324 4.90394C9.33923 4.86109 9.32845 4.78598 9.25482 4.70554C9.22147 4.6691 9.21394 4.64982 9.23712 4.66024C9.26103 4.67101 9.28557 4.66047 9.2972 4.63447C9.3222 4.57871 9.31788 4.53731 9.28958 4.561C9.27766 4.571 9.26819 4.53941 9.26849 4.49085C9.26887 4.43564 9.25629 4.40433 9.2349 4.40728C9.21362 4.41021 9.2047 4.38831 9.21123 4.34925C9.21703 4.31475 9.20396 4.26998 9.18223 4.24981C9.16048 4.22961 9.14918 4.19816 9.15713 4.17988C9.16509 4.16161 9.1507 4.14952 9.12517 4.15304C9.09966 4.15656 9.07859 4.14262 9.07841 4.12208C9.07745 4.02521 9.05903 4.00632 8.99204 4.03358C8.95458 4.04883 8.91492 4.05023 8.90388 4.03672C8.87547 4.00188 8.9005 3.91166 8.93437 3.9269C8.98498 3.94967 8.95658 3.88678 8.88435 3.81617C8.80373 3.73732 8.75051 3.73044 8.7852 3.80336C8.80369 3.84229 8.80135 3.84474 8.77387 3.81512C8.75478 3.79456 8.74281 3.76167 8.74731 3.74208C8.75177 3.72246 8.72558 3.68572 8.68905 3.66044C8.65255 3.63515 8.62013 3.59602 8.61702 3.57346C8.61391 3.5509 8.56316 3.51944 8.50423 3.50351C8.4453 3.4876 8.39897 3.46436 8.40123 3.45189C8.4035 3.43943 8.3987 3.42908 8.39056 3.42885C8.33839 3.42752 8.23596 3.37044 8.24567 3.34815C8.2591 3.31723 8.18627 3.29483 8.10764 3.30568C8.07817 3.30974 8.04204 3.28758 8.02736 3.25644C8.01271 3.2253 7.99105 3.2079 7.97928 3.21779C7.96748 3.22764 7.92126 3.214 7.87656 3.18742C7.83188 3.16083 7.77681 3.14936 7.75424 3.16196C7.7284 3.17636 7.70327 3.16378 7.68642 3.12801C7.66994 3.09299 7.64431 3.07976 7.61962 3.09352C7.59759 3.10578 7.56169 3.10513 7.5398 3.09208C7.49196 3.06354 7.22049 3.06359 6.94723 3.09218C6.81458 3.10607 6.73729 3.10053 6.71574 3.07561C6.68909 3.04472 6.67731 3.04918 6.64842 3.10109C6.62915 3.13571 6.61123 3.14827 6.60858 3.12903C6.60592 3.10979 6.58994 3.09595 6.57309 3.09828C6.55625 3.1006 6.55383 3.1165 6.56775 3.13358C6.58394 3.15338 6.57923 3.1584 6.55479 3.1474C6.53327 3.13771 6.49507 3.15609 6.46753 3.18936C6.43923 3.22358 6.41657 3.23425 6.41387 3.21466C6.4113 3.19601 6.42222 3.17894 6.43814 3.17675C6.45407 3.17455 6.46527 3.15954 6.46305 3.14338C6.46082 3.12723 6.43216 3.11771 6.39938 3.12223C6.36661 3.12675 6.34964 3.14256 6.36171 3.15736C6.39925 3.20339 6.36019 3.25454 6.3111 3.22357C6.27895 3.20328 6.25228 3.20738 6.20905 3.23917C6.17688 3.26285 6.15674 3.26799 6.16434 3.25057C6.19101 3.18919 6.09212 3.19929 6.04985 3.26223C6.00019 3.33621 5.95556 3.35164 5.96963 3.29002C5.97762 3.25507 5.95285 3.2563 5.82954 3.29701C5.74715 3.32423 5.66816 3.3588 5.65401 3.37383C5.63986 3.38889 5.56618 3.41749 5.49025 3.43742C5.41435 3.45737 5.33888 3.48777 5.32256 3.50502C5.29063 3.53878 5.09089 3.64525 5.04356 3.65378C5.02773 3.65662 5.00285 3.66876 4.98828 3.68074C4.9737 3.69272 4.91985 3.71789 4.8686 3.73669C4.81738 3.75546 4.77092 3.79063 4.76541 3.81482C4.75986 3.83902 4.7402 3.8584 4.7217 3.85793C4.66568 3.85644 4.46504 3.93355 4.43102 3.96964C4.41349 3.98822 4.40776 4.01403 4.41834 4.027C4.42888 4.03994 4.41659 4.04556 4.39099 4.03942C4.36537 4.03331 4.32643 4.05245 4.30442 4.08192C4.28243 4.11141 4.25169 4.12977 4.23615 4.12279C4.19881 4.10597 4.09374 4.18418 4.0568 4.25625C4.04067 4.28775 4.00459 4.31493 3.97663 4.31669C3.9487 4.31845 3.89157 4.35021 3.84968 4.3873C3.8078 4.42438 3.74725 4.46257 3.71514 4.47217C3.68304 4.48178 3.65091 4.50312 3.64374 4.51961C3.62721 4.55763 3.37901 4.74037 3.37578 4.7169C3.37446 4.70732 3.35622 4.71846 3.33527 4.7417C3.31431 4.76494 3.3048 4.79331 3.31414 4.80474C3.32347 4.81617 3.31409 4.84441 3.29328 4.86748C3.27248 4.89055 3.26423 4.92015 3.27492 4.93325C3.28561 4.94638 3.28198 4.95882 3.26684 4.96091C3.25173 4.963 3.23587 4.99736 3.23165 5.0373C3.22741 5.07721 3.20472 5.12059 3.18122 5.13368C3.15664 5.14737 3.14427 5.14414 3.15213 5.12605C3.15966 5.10873 3.13559 5.09765 3.09865 5.10146C3.0617 5.10527 3.047 5.09937 3.06593 5.0884C3.08489 5.07741 3.11063 5.04031 3.12312 5.00593C3.1454 4.94456 3.14446 4.9446 3.07136 5.00753C2.83005 5.21542 2.78304 5.28467 2.84888 5.3353C2.90221 5.37631 2.87619 5.40091 2.79871 5.38265C2.75389 5.37213 2.70085 5.37262 2.68085 5.38376C2.63096 5.41153 2.64662 5.49539 2.7003 5.48799C2.72419 5.48469 2.7453 5.4934 2.74721 5.50729C2.75185 5.54089 2.59384 5.53218 2.56394 5.49721C2.53735 5.4661 2.40209 5.57185 2.40855 5.6187C2.41374 5.65632 2.49198 5.64499 2.50979 5.60405C2.52603 5.56673 2.57673 5.55462 2.5812 5.58702C2.58289 5.5993 2.55618 5.65012 2.52183 5.69996C2.459 5.79111 2.37854 5.82896 2.37057 5.77113C2.36821 5.75404 2.37946 5.74596 2.39556 5.7532C2.44001 5.7732 2.45081 5.72128 2.40823 5.69231C2.35864 5.65853 2.30854 5.66837 2.27049 5.71935C2.24559 5.75272 2.24959 5.75965 2.29052 5.754C2.33033 5.74851 2.33923 5.76228 2.3305 5.81583C2.32431 5.85371 2.30748 5.89494 2.2931 5.90743C2.27871 5.91992 2.27897 5.9449 2.29367 5.96293C2.31292 5.98655 2.30242 5.99255 2.25616 5.98441C2.21682 5.97748 2.19365 5.98579 2.19642 6.00588C2.19943 6.0277 2.18375 6.03184 2.14969 6.01825C2.05903 5.98212 2.00014 6.03151 2.0026 6.14155C2.00431 6.21704 2.01435 6.23894 2.0406 6.22434C2.06024 6.2134 2.07806 6.21726 2.08022 6.23288C2.08237 6.24854 2.1029 6.25875 2.12586 6.25559C2.14882 6.25242 2.17923 6.26505 2.19346 6.28368C2.2077 6.30228 2.20733 6.30918 2.19265 6.29902C2.17797 6.28884 2.15051 6.29765 2.13163 6.31857C2.10519 6.3479 2.0957 6.34514 2.09037 6.30654C2.08656 6.27888 2.06811 6.26469 2.04913 6.27491C2.03024 6.28506 2.01972 6.30701 2.02577 6.32369C2.04119 6.36642 1.92821 6.35522 1.86667 6.30791C1.79621 6.25373 1.76903 6.26245 1.83455 6.31821C1.86366 6.34299 1.88972 6.37645 1.89244 6.39253C1.89519 6.40861 1.92534 6.42232 1.95948 6.423C2.00951 6.42401 2.01604 6.43328 1.99312 6.47074C1.96154 6.52245 1.87372 6.54665 1.89495 6.49781C1.91518 6.45129 1.75675 6.44249 1.72261 6.48823C1.70042 6.51796 1.70356 6.53171 1.73583 6.54624C1.76876 6.56109 1.77274 6.58009 1.75378 6.63233C1.74039 6.66919 1.71685 6.70108 1.7015 6.7032C1.66103 6.70878 1.66013 6.6567 1.70027 6.6333C1.72598 6.61835 1.72261 6.6072 1.68669 6.58824C1.62207 6.55418 1.61428 6.55678 1.55332 6.63267C1.51848 6.67609 1.50877 6.71927 1.525 6.75884C1.54415 6.80553 1.55453 6.80939 1.57142 6.77606C1.58871 6.74189 1.59195 6.74246 1.58731 6.7788C1.58334 6.81012 1.5469 6.82807 1.47165 6.83582C1.40236 6.84298 1.37745 6.8542 1.40418 6.86622C1.43768 6.8813 1.43467 6.90015 1.38996 6.95585C1.35879 6.99465 1.31934 7.02012 1.30226 7.01242C1.25439 6.99088 1.26815 7.01664 1.33728 7.07807C1.3718 7.10875 1.41482 7.13182 1.43285 7.12933C1.45089 7.12684 1.46754 7.13849 1.46985 7.15521C1.47274 7.17618 1.45534 7.17858 1.41386 7.16293C1.32274 7.12859 1.31216 7.13813 1.3388 7.23051C1.35322 7.2805 1.35079 7.30975 1.33292 7.30171C1.31514 7.29369 1.31273 7.31832 1.32711 7.3612C1.34456 7.4133 1.34022 7.43165 1.31197 7.42492C1.26484 7.41367 1.14312 7.56714 1.15143 7.62735C1.15462 7.65053 1.14068 7.6699 1.12049 7.67041C1.10026 7.67089 1.08046 7.68524 1.07644 7.70225C1.07244 7.71927 1.03322 7.75472 0.989351 7.78104C0.945455 7.80738 0.919591 7.84124 0.931876 7.8563C0.971963 7.90546 0.931412 7.94942 0.868022 7.92554C0.833137 7.91239 0.804443 7.91527 0.796848 7.93272C0.789885 7.94876 0.800784 7.9651 0.821119 7.969C0.844176 7.97339 0.832828 8.00536 0.790998 8.05396C0.748505 8.10331 0.732808 8.14821 0.74821 8.17647C0.769662 8.21586 0.766456 8.21678 0.72082 8.18429C0.68513 8.15889 0.678223 8.13982 0.698509 8.12263C0.717553 8.10647 0.708727 8.09317 0.673278 8.08471C0.642317 8.07734 0.606091 8.09 0.589634 8.11399C0.566958 8.14702 0.568429 8.1502 0.596435 8.12844C0.622016 8.10857 0.631324 8.11678 0.628819 8.15702C0.626718 8.19056 0.604719 8.21269 0.574508 8.21162C0.519606 8.2097 0.511734 8.2587 0.563226 8.28189C0.600342 8.29859 0.578799 8.36894 0.503794 8.47583C0.475565 8.51609 0.454662 8.56497 0.457356 8.58451C0.460049 8.60404 0.453044 8.61294 0.44182 8.60428C0.421623 8.58875 0.350459 8.66509 0.354931 8.69752C0.356203 8.70674 0.376786 8.7116 0.400671 8.7083C0.424556 8.70501 0.446116 8.71694 0.448582 8.73483C0.451049 8.75271 0.4329 8.76252 0.408285 8.75667C0.373935 8.74847 0.367572 8.76907 0.380932 8.84499C0.390504 8.89943 0.381322 8.98046 0.360532 9.02502C0.33977 9.06957 0.325615 9.12674 0.329102 9.15203C0.332593 9.17735 0.320027 9.20668 0.301211 9.21721C0.251304 9.2451 0.268383 9.41493 0.32038 9.40776C0.34525 9.40433 0.357516 9.42054 0.351152 9.44841C0.345315 9.47391 0.32286 9.49721 0.301233 9.50019C0.252478 9.50691 0.210626 9.61546 0.231282 9.6816C0.239738 9.70869 0.230625 9.73503 0.211067 9.74018C0.191476 9.74531 0.162672 9.75293 0.147028 9.75715C0.131384 9.76137 0.121446 9.78558 0.124945 9.81096C0.133107 9.87014 0.222695 9.94195 0.231053 9.89602C0.234656 9.87637 0.269525 9.88297 0.316817 9.91227C0.37963 9.95123 0.39009 9.97041 0.366278 10.0029C0.342288 10.0356 0.330848 10.0346 0.310893 9.99791C0.292489 9.96414 0.265757 9.95942 0.21162 9.98038C0.092423 10.0265 0.0603132 10.0911 0.0812048 10.2426C0.097957 10.364 0.0930815 10.3809 0.0412584 10.3808C-0.0167667 10.3806 -0.0167404 10.3812 0.0441622 10.4174C0.078233 10.4377 0.0992223 10.4635 0.090831 10.4747C0.0824428 10.486 0.0942044 10.5283 0.11701 10.5687C0.139815 10.6092 0.164168 10.7008 0.171119 10.7724C0.17816 10.8446 0.199957 10.9099 0.220119 10.9189C0.241103 10.9284 0.219958 10.946 0.170023 10.9606C0.122467 10.9746 0.0880193 10.9757 0.093463 10.9632C0.0989057 10.9507 0.0828372 10.9356 0.0577595 10.9296C0.0249057 10.9217 0.0149747 10.9389 0.0221803 10.9912C0.0276806 11.0311 0.0473804 11.0616 0.065968 11.0591C0.0845254 11.0565 0.0924586 11.0642 0.0835399 11.0761C0.0746252 11.088 0.103892 11.1238 0.148568 11.1555C0.193244 11.1872 0.232263 11.231 0.235265 11.2528C0.23827 11.2746 0.258543 11.3061 0.280325 11.3228C0.311115 11.3465 0.312197 11.3543 0.285185 11.3581C0.266077 11.3607 0.252985 11.3813 0.256087 11.4038C0.262418 11.4497 0.345885 11.4786 0.382806 11.4477C0.396059 11.4366 0.40881 11.4415 0.411167 11.4586C0.413524 11.4757 0.472286 11.5334 0.541722 11.5868C0.690297 11.7011 0.752121 11.7906 0.668351 11.7702C0.578537 11.7483 0.56288 11.752 0.553416 11.7972C0.547095 11.8273 0.558056 11.833 0.589151 11.8157C0.647182 11.7834 0.842678 11.9123 0.8603 11.9945C0.871148 12.0451 0.861093 12.0539 0.80026 12.0471C0.722552 12.0383 0.710361 12.0841 0.77099 12.1568C0.808425 12.2017 0.927882 12.2105 0.922014 12.1679C0.919798 12.1519 0.898445 12.1414 0.87456 12.1447C0.850675 12.148 0.82931 12.1375 0.827082 12.1214C0.824854 12.1052 0.862116 12.0866 0.909887 12.08C0.976186 12.0709 0.998582 12.0814 1.0045 12.1243C1.00923 12.1586 1.0483 12.1911 1.1045 12.2076C1.15523 12.2225 1.19822 12.2454 1.20003 12.2586C1.20185 12.2717 1.21523 12.2726 1.22978 12.2604C1.24433 12.2482 1.25785 12.25 1.25983 12.2643C1.26463 12.2991 1.56737 12.3938 1.58754 12.3668C1.59621 12.3552 1.62598 12.3542 1.65368 12.3646C1.76079 12.4049 1.9316 12.3978 2.44234 12.3319C2.73357 12.2944 2.97525 12.259 2.97943 12.2534ZM0.313744 10.2167C0.329957 10.1793 0.250872 10.154 0.199007 10.1799C0.176124 10.1913 0.187674 10.2066 0.231707 10.2232C0.276553 10.2401 0.304509 10.2378 0.313744 10.2167ZM0.152322 9.29963C0.15923 9.2695 0.146071 9.2635 0.107998 9.27944C0.0326872 9.31095 0.0175517 9.35973 0.0860223 9.35029C0.117117 9.346 0.146929 9.32321 0.152322 9.29963ZM0.117721 9.1482C0.135855 9.12053 0.16873 9.1022 0.190784 9.10745C0.212842 9.11273 0.235564 9.09651 0.241284 9.07145C0.247263 9.04528 0.229976 9.02069 0.200659 9.01369C0.172411 9.00696 0.146663 9.0177 0.143025 9.03774C0.139371 9.05767 0.112832 9.07722 0.0840246 9.0812C0.0405971 9.08718 0.00378308 9.14628 0.0109805 9.19848C0.0150795 9.2282 0.087719 9.194 0.117721 9.1482ZM0.247536 8.94842C0.225491 8.94281 0.20065 8.94731 0.192382 8.95839C0.184115 8.96946 0.202155 8.97404 0.232496 8.96857C0.26603 8.96251 0.271932 8.9546 0.247536 8.94842ZM0.738256 8.05744C0.734721 8.03009 0.717687 8.00134 0.700386 7.99355C0.660566 7.97564 0.665929 8.01452 0.710512 8.06698C0.739924 8.10162 0.743752 8.10029 0.738256 8.05744ZM0.932234 7.65608C0.942155 7.61207 0.938387 7.60914 0.913751 7.64187C0.896699 7.66454 0.89108 7.68947 0.90124 7.69726C0.911405 7.70508 0.925343 7.68655 0.932234 7.65608ZM1.27222 7.54057C1.27984 7.52306 1.27304 7.51053 1.25711 7.51272C1.24119 7.51492 1.22193 7.53104 1.21432 7.54856C1.2067 7.56607 1.2135 7.5786 1.22943 7.5764C1.24535 7.57421 1.2646 7.55808 1.27222 7.54057ZM0.98443 7.50295C0.978322 7.46892 0.970499 7.46291 0.964492 7.48759C0.959049 7.50995 0.963587 7.53515 0.974543 7.54358C0.9855 7.552 0.989944 7.53373 0.98443 7.50295ZM1.19639 7.31159C1.19416 7.29543 1.1728 7.28491 1.14891 7.28821C1.12503 7.2915 1.10731 7.30741 1.10953 7.32357C1.11176 7.33972 1.13313 7.35024 1.15701 7.34695C1.1809 7.34365 1.19862 7.32774 1.19639 7.31159ZM1.27541 7.181C1.28586 7.09076 1.23816 7.08674 1.2121 7.17567C1.1941 7.23702 1.19755 7.25157 1.22897 7.24724C1.25065 7.24425 1.27155 7.21443 1.27541 7.181ZM1.92462 6.70035C1.93276 6.68169 1.93232 6.66095 1.92367 6.6543C1.91502 6.64765 1.90304 6.66367 1.89704 6.68991C1.88461 6.74436 1.90254 6.75116 1.92462 6.70035ZM1.94884 6.25213C1.95595 6.23583 1.94734 6.21604 1.92976 6.20811C1.91218 6.20021 1.90064 6.21434 1.90411 6.23951C1.91123 6.29111 1.92965 6.29629 1.94884 6.25213ZM2.98801 5.2749C3.03241 5.25926 3.03221 5.25375 2.9862 5.21834C2.93042 5.17545 2.89941 5.19296 2.92354 5.25368C2.93195 5.27488 2.96097 5.2844 2.98801 5.2749ZM3.61022 4.78504C3.61856 4.76405 3.61614 4.75804 3.60486 4.77165C3.59359 4.7853 3.56403 4.77591 3.5392 4.75078C3.49851 4.70964 3.49459 4.70991 3.49978 4.75349C3.50686 4.81345 3.58957 4.83706 3.61022 4.78504ZM4.14431 4.38632C4.15495 4.36187 4.14859 4.3594 4.12529 4.37892C4.09929 4.40067 4.09354 4.39383 4.10299 4.35245C4.11378 4.30526 4.1097 4.30334 4.07677 4.33985C4.05532 4.36361 4.03939 4.39466 4.04135 4.40881C4.04655 4.44655 4.12565 4.42927 4.14431 4.38632ZM12.6902 3.84768C12.7431 3.81956 12.8188 3.79109 12.8585 3.78446C12.9319 3.77219 13.1276 3.67921 13.2119 3.61661C13.2374 3.59761 13.3256 3.54043 13.4079 3.48958C13.6553 3.33649 13.8524 3.14662 13.9802 2.9381C14.0467 2.82955 14.0993 2.72745 14.0971 2.71118C14.0949 2.69491 14.1065 2.68767 14.123 2.6951C14.1395 2.70252 14.1598 2.65339 14.1681 2.58589C14.1764 2.51842 14.1941 2.46169 14.2074 2.45985C14.2207 2.45802 14.234 2.41566 14.2369 2.36576C14.2397 2.31586 14.2588 2.27618 14.2793 2.2776C14.2998 2.27903 14.3169 2.24835 14.3173 2.20942C14.3178 2.16421 14.3078 2.14731 14.2894 2.16265C14.2737 2.17587 14.2581 2.16712 14.2548 2.14327C14.2437 2.0628 14.27 2.00595 14.3135 2.01633C14.3424 2.02321 14.3539 2.00609 14.3482 1.96476C14.3435 1.93072 14.3266 1.90467 14.3107 1.90687C14.2948 1.90907 14.2782 1.88484 14.2738 1.85303C14.2681 1.81185 14.28 1.7986 14.3151 1.80699C14.3556 1.81664 14.3577 1.80943 14.3273 1.76696C14.3069 1.73847 14.2892 1.67153 14.288 1.61818C14.2865 1.54734 14.2743 1.5228 14.243 1.52712C14.219 1.53043 14.1965 1.50636 14.1918 1.47235C14.1872 1.43898 14.1657 1.38694 14.1439 1.35668C14.1222 1.32642 14.0942 1.25373 14.0816 1.19515C14.0691 1.13655 14.024 1.0425 13.9814 0.986141C13.9389 0.929756 13.9015 0.864877 13.8983 0.841938C13.8952 0.818998 13.8747 0.79195 13.8529 0.781793C13.831 0.771637 13.7802 0.715883 13.7399 0.657899C13.6996 0.599912 13.6494 0.548169 13.6284 0.542865C13.6074 0.537593 13.5885 0.520804 13.5864 0.505561C13.5767 0.435128 13.1331 0.148907 12.9998 0.127118C12.9602 0.120636 12.8955 0.0927179 12.8561 0.0650855C12.7905 0.0191214 12.7809 0.0193586 12.7447 0.0679359C12.717 0.10507 12.6764 0.119494 12.6096 0.115924C12.4917 0.10958 12.4737 0.0986897 12.5187 0.0610294C12.5477 0.036669 12.5464 0.0281729 12.511 0.0116266C12.4539 -0.0150342 12.2201 0.0108881 12.2246 0.043403C12.228 0.0682212 12.293 0.0723075 12.3659 0.0522819C12.3855 0.0468957 12.4034 0.0563079 12.4057 0.0731676C12.4103 0.106386 12.2869 0.126727 12.1894 0.10881C12.1561 0.102716 12.1261 0.0778765 12.1227 0.053645C12.1164 0.00750324 11.9659 0.0209869 11.8776 0.075599C11.8538 0.0902788 11.8055 0.103437 11.7702 0.104803C11.7349 0.106203 11.6763 0.13359 11.6399 0.165689C11.6036 0.197817 11.5497 0.221982 11.5201 0.219415C11.4906 0.216814 11.4184 0.251905 11.3598 0.297344C11.3012 0.342812 11.2466 0.380649 11.2386 0.381424C11.1948 0.385788 11.0739 0.470379 11.0772 0.494375C11.0793 0.509824 11.053 0.53578 11.0187 0.551997C10.8999 0.608288 10.8125 0.71461 10.823 0.790388C10.8285 0.830626 10.8195 0.857455 10.803 0.850009C10.7865 0.842564 10.7776 0.816044 10.7833 0.791104C10.8051 0.695766 10.7595 0.75571 10.7253 0.867395C10.7056 0.93183 10.663 1.01276 10.6307 1.04724C10.5641 1.11832 10.562 1.1967 10.627 1.18773C10.6827 1.18005 10.688 1.22287 10.6432 1.31896C10.6091 1.39208 10.6167 1.51904 10.6726 1.80803C10.6885 1.89024 10.6852 1.94355 10.6635 1.95439C10.6367 1.96771 10.6388 1.98038 10.6732 2.01294C10.7106 2.04842 10.7092 2.05268 10.6637 2.04223C10.6344 2.03547 10.6122 2.04275 10.6143 2.05838C10.6165 2.07403 10.6313 2.08504 10.6472 2.08285C10.6631 2.08065 10.6807 2.1119 10.6863 2.15228C10.6918 2.19267 10.6838 2.22745 10.6683 2.22958C10.6529 2.2317 10.65 2.25569 10.6618 2.28285C10.6737 2.31001 10.6639 2.30463 10.64 2.2709C10.5905 2.20078 10.5447 2.19521 10.5537 2.26036C10.557 2.28459 10.5402 2.30711 10.5163 2.3104C10.4612 2.318 10.4638 2.33222 10.5351 2.41516C10.5787 2.46584 10.586 2.49192 10.5645 2.52078C10.5308 2.56582 10.5322 2.61846 10.5662 2.58995C10.5791 2.57916 10.6005 2.59668 10.6137 2.62889C10.6319 2.67322 10.6263 2.68474 10.5908 2.67628C10.5572 2.66824 10.5507 2.6776 10.5681 2.70941C10.5813 2.73383 10.594 2.76669 10.5962 2.78249C10.5983 2.79826 10.612 2.80122 10.6266 2.78904C10.6411 2.77686 10.6549 2.78044 10.6572 2.79697C10.6594 2.81351 10.6376 2.84451 10.6085 2.86587C10.5624 2.89983 10.5615 2.9142 10.6012 2.98016C10.6483 3.05831 10.8109 3.26108 10.844 3.28283C10.8543 3.28964 10.9256 3.36106 11.0025 3.44157C11.1407 3.58632 11.3584 3.75063 11.4038 3.74437C11.4167 3.74259 11.4696 3.76893 11.5215 3.80294C11.5733 3.83691 11.6419 3.86214 11.6739 3.85901C11.7627 3.85031 11.9283 3.89274 11.9341 3.92564C11.9369 3.94171 11.975 3.95149 12.0187 3.94735C12.0624 3.94324 12.105 3.94138 12.1133 3.94322C12.1863 3.95931 12.6132 3.88862 12.6902 3.84768ZM10.6888 2.95504C10.6979 2.94283 10.7035 2.91916 10.7012 2.90245C10.6987 2.88406 10.6854 2.88766 10.6676 2.91158C10.6514 2.9333 10.6458 2.95696 10.6551 2.96417C10.6645 2.97141 10.6797 2.96728 10.6888 2.95504ZM10.7352 1.45466C10.7291 1.42063 10.7213 1.41462 10.7153 1.4393C10.7099 1.46166 10.7144 1.48686 10.7254 1.49529C10.7363 1.50372 10.7408 1.48544 10.7352 1.45466ZM10.5204 1.39449C10.5143 1.36046 10.5065 1.35445 10.5005 1.37913C10.495 1.40149 10.4996 1.4267 10.5105 1.43512C10.5215 1.44355 10.5259 1.42528 10.5204 1.39449Z" fill="white"/>
</svg>
