<svg width="164" height="153" viewBox="0 0 164 153" fill="none" xmlns="http://www.w3.org/2000/svg">
<path d="M150.787 139.904C149.832 139.154 149.071 138.279 148.502 137.278C147.957 136.255 147.536 135.164 147.24 134.004C147.104 134.118 146.899 134.243 146.626 134.379C146.354 134.516 146.069 134.629 145.774 134.72C145.501 134.811 145.228 134.879 144.955 134.925C144.682 134.948 144.478 134.913 144.341 134.822C144.228 134.732 144.193 134.584 144.239 134.379C144.307 134.152 144.523 133.822 144.887 133.39C144.932 133.322 145.069 133.174 145.296 132.947C145.546 132.719 145.808 132.48 146.081 132.23C146.354 131.958 146.604 131.707 146.831 131.48C147.058 131.23 147.195 131.071 147.24 131.003C147.49 130.434 147.638 129.809 147.684 129.127C147.752 128.445 147.786 127.74 147.786 127.012C147.809 126.262 147.854 125.523 147.922 124.795C147.991 124.068 148.161 123.385 148.434 122.749C148.593 122.385 148.889 121.942 149.321 121.419C149.776 120.873 150.276 120.35 150.822 119.85C151.39 119.349 151.958 118.906 152.527 118.52C153.118 118.11 153.618 117.86 154.028 117.769C154.46 117.678 154.767 117.781 154.948 118.076C155.153 118.372 155.153 118.94 154.948 119.781C154.698 120.782 154.312 121.76 153.789 122.715C153.289 123.647 152.766 124.579 152.22 125.511C151.674 126.421 151.151 127.33 150.651 128.24C150.174 129.149 149.832 130.07 149.628 131.003C149.514 131.503 149.457 132.117 149.457 132.844C149.457 133.549 149.537 134.254 149.696 134.959C149.855 135.664 150.117 136.312 150.48 136.903C150.844 137.471 151.345 137.869 151.981 138.097C152.709 138.37 153.436 138.438 154.164 138.301C154.892 138.165 155.596 137.903 156.279 137.517C156.983 137.13 157.654 136.653 158.291 136.084C158.928 135.493 159.519 134.891 160.064 134.277C160.61 133.663 161.099 133.072 161.531 132.503C161.963 131.912 162.327 131.412 162.622 131.003L163.202 131.616C163.361 131.753 163.259 132.139 162.895 132.776C162.554 133.413 162.043 134.14 161.36 134.959C160.701 135.755 159.917 136.573 159.007 137.415C158.098 138.256 157.154 138.961 156.176 139.529C155.221 140.098 154.266 140.45 153.311 140.586C152.379 140.723 151.538 140.496 150.787 139.904ZM149.628 125.068C149.605 125.182 149.582 125.386 149.56 125.682C149.56 125.955 149.56 126.25 149.56 126.569C149.56 126.887 149.56 127.183 149.56 127.455C149.582 127.728 149.605 127.922 149.628 128.035C150.355 126.785 151.038 125.455 151.674 124.045C152.311 122.635 152.811 121.214 153.175 119.781C152.652 119.963 152.174 120.248 151.742 120.634C151.333 120.998 150.981 121.43 150.685 121.93C150.39 122.408 150.151 122.919 149.969 123.465C149.81 124.011 149.696 124.545 149.628 125.068Z" fill="#FFF9E9"/>
<path d="M132.343 151.844C132.002 151.389 131.774 150.855 131.661 150.241C131.547 149.627 131.513 148.991 131.558 148.331C131.604 147.672 131.706 147.024 131.865 146.387C132.002 145.773 132.161 145.227 132.343 144.75C132.434 144.477 132.581 144.056 132.786 143.488C132.991 142.942 133.229 142.317 133.502 141.612C133.775 140.907 134.059 140.168 134.355 139.395C134.651 138.622 134.935 137.883 135.208 137.178C135.503 136.496 135.765 135.882 135.992 135.337L136.504 134.109C136.595 133.199 136.595 132.324 136.504 131.483C136.413 130.618 136.276 129.777 136.094 128.959C135.913 128.14 135.697 127.321 135.446 126.503C135.196 125.684 134.946 124.854 134.696 124.013C134.605 123.718 134.616 123.479 134.73 123.297C134.867 123.092 135.037 122.967 135.242 122.922C135.446 122.854 135.662 122.865 135.89 122.956C136.14 123.024 136.345 123.183 136.504 123.433C136.867 124.047 137.14 124.673 137.322 125.309C137.504 125.923 137.663 126.56 137.8 127.219C137.936 127.856 138.073 128.504 138.209 129.163C138.345 129.823 138.55 130.482 138.823 131.141C139.073 130.937 139.471 130.607 140.017 130.152C140.585 129.675 141.21 129.22 141.893 128.788C142.597 128.333 143.302 127.97 144.007 127.697C144.735 127.424 145.383 127.378 145.951 127.56C146.019 127.583 146.133 127.674 146.292 127.833C146.451 127.97 146.542 128.083 146.565 128.174C146.383 128.47 146.076 128.754 145.644 129.027C145.212 129.3 144.712 129.584 144.144 129.879C143.598 130.152 143.029 130.425 142.438 130.698C141.847 130.971 141.301 131.255 140.801 131.551C140.324 131.846 139.926 132.153 139.607 132.472C139.289 132.813 139.13 133.154 139.13 133.495V145.944C139.13 146.308 139.028 146.796 138.823 147.41C138.641 148.024 138.38 148.661 138.038 149.32C137.72 150.002 137.334 150.639 136.879 151.23C136.447 151.844 135.969 152.31 135.446 152.629C134.946 152.947 134.435 153.061 133.912 152.97C133.366 152.901 132.843 152.526 132.343 151.844ZM134.116 145.944C134.093 146.126 134.082 146.433 134.082 146.865C134.059 147.319 134.048 147.797 134.048 148.297C134.048 148.797 134.059 149.275 134.082 149.73C134.082 150.184 134.093 150.491 134.116 150.65C134.162 150.673 134.253 150.685 134.389 150.685C134.548 150.685 134.651 150.673 134.696 150.65C135.06 150.469 135.378 150.071 135.651 149.457C135.947 148.843 136.197 148.195 136.401 147.513C136.606 146.853 136.765 146.239 136.879 145.671C137.015 145.125 137.084 144.818 137.084 144.75C137.106 144.477 137.118 144 137.118 143.318C137.14 142.658 137.152 141.942 137.152 141.169C137.152 140.418 137.14 139.702 137.118 139.02C137.118 138.361 137.106 137.895 137.084 137.622C136.356 138.918 135.708 140.248 135.139 141.612C134.571 142.999 134.23 144.443 134.116 145.944ZM136.504 113.952C136.345 113.656 136.345 113.406 136.504 113.201C136.686 112.974 136.924 112.826 137.22 112.758C137.516 112.69 137.822 112.701 138.141 112.792C138.459 112.883 138.687 113.065 138.823 113.338C138.959 113.633 138.937 113.883 138.755 114.088C138.596 114.27 138.368 114.395 138.073 114.463C137.777 114.532 137.47 114.532 137.152 114.463C136.856 114.395 136.64 114.225 136.504 113.952Z" fill="#FFF9E9"/>
<path d="M126.957 139.904C126.457 139.586 126.082 139.097 125.832 138.438C125.604 137.756 125.434 137.051 125.32 136.323C125.229 135.573 125.184 134.879 125.184 134.243V132.81C125.184 132.56 125.195 132.06 125.218 131.31C125.241 130.536 125.275 129.65 125.32 128.649C125.366 127.626 125.411 126.546 125.457 125.409C125.502 124.25 125.547 123.169 125.593 122.169C125.638 121.146 125.673 120.259 125.695 119.509C125.741 118.758 125.763 118.258 125.763 118.008C125.763 117.667 125.763 117.076 125.763 116.234C125.786 115.393 125.798 114.506 125.798 113.574C125.798 112.619 125.786 111.721 125.763 110.88C125.763 110.038 125.763 109.447 125.763 109.106C126.105 108.856 126.4 108.686 126.65 108.595C126.878 108.504 127.082 108.492 127.264 108.56C127.446 108.606 127.537 108.788 127.537 109.106V136.937C127.537 137.096 127.583 137.29 127.673 137.517C127.787 137.722 127.924 137.904 128.083 138.063C128.242 138.222 128.424 138.324 128.628 138.37C128.856 138.392 129.083 138.301 129.311 138.097L133.437 134.584C133.551 135.107 133.54 135.652 133.403 136.221C133.267 136.789 133.04 137.324 132.721 137.824C132.426 138.324 132.05 138.779 131.596 139.188C131.141 139.597 130.652 139.916 130.129 140.143C129.606 140.348 129.072 140.45 128.526 140.45C127.98 140.427 127.457 140.246 126.957 139.904Z" fill="#FFF9E9"/>
<path d="M107.773 139.904C107.318 138.949 107.068 137.983 107.023 137.005C107 136.028 107.057 135.027 107.193 134.004C107.216 133.686 107.273 133.208 107.364 132.571C107.455 131.935 107.557 131.23 107.671 130.457C107.784 129.684 107.909 128.865 108.046 128.001C108.182 127.137 108.307 126.319 108.421 125.545C108.535 124.772 108.637 124.09 108.728 123.499C108.842 122.885 108.921 122.43 108.967 122.135C109.149 121.18 109.342 120.373 109.546 119.713C109.774 119.031 110.069 118.508 110.433 118.144C110.82 117.781 111.309 117.587 111.9 117.565C112.514 117.542 113.298 117.69 114.253 118.008C114.367 118.031 114.492 118.122 114.628 118.281C114.765 118.417 114.844 118.52 114.867 118.588C114.913 118.883 114.992 119.338 115.106 119.952C115.242 120.566 115.39 121.271 115.549 122.067C115.708 122.84 115.868 123.658 116.027 124.522C116.209 125.364 116.379 126.182 116.538 126.978C116.697 127.751 116.834 128.445 116.948 129.058C117.084 129.672 117.186 130.127 117.255 130.423C117.596 132.037 118.016 133.163 118.517 133.799C119.017 134.413 119.551 134.732 120.12 134.754C120.688 134.777 121.268 134.595 121.859 134.209C122.473 133.799 123.075 133.379 123.667 132.947C124.258 132.492 124.815 132.105 125.338 131.787C125.861 131.469 126.316 131.412 126.702 131.616C126.702 132.048 126.6 132.469 126.395 132.878C126.191 133.288 125.94 133.674 125.645 134.038C125.372 134.379 125.065 134.697 124.724 134.993C124.383 135.289 124.065 135.539 123.769 135.743C122.496 136.585 121.427 137.028 120.563 137.074C119.722 137.119 119.005 136.926 118.414 136.494C117.823 136.062 117.346 135.471 116.982 134.72C116.618 133.97 116.288 133.208 115.993 132.435C115.72 131.662 115.447 130.98 115.174 130.389C114.924 129.775 114.617 129.388 114.253 129.229C114.185 129.525 114.037 130.036 113.81 130.764C113.605 131.491 113.378 132.264 113.128 133.083C112.878 133.902 112.639 134.675 112.411 135.402C112.184 136.13 112.025 136.642 111.934 136.937C111.888 137.051 111.786 137.267 111.627 137.585C111.491 137.903 111.309 138.256 111.081 138.642C110.854 139.006 110.592 139.37 110.297 139.734C110.024 140.075 109.74 140.336 109.444 140.518C109.149 140.723 108.853 140.791 108.557 140.723C108.262 140.655 108 140.382 107.773 139.904ZM109.546 129.843C109.501 130.116 109.467 130.616 109.444 131.344C109.444 132.071 109.444 132.844 109.444 133.663C109.444 134.481 109.444 135.255 109.444 135.982C109.467 136.71 109.501 137.221 109.546 137.517C110.342 136.312 111.059 134.913 111.695 133.322C112.332 131.707 112.809 130.048 113.128 128.342C113.469 126.614 113.605 124.909 113.537 123.226C113.469 121.521 113.128 119.975 112.514 118.588C112.127 119.293 111.763 120.179 111.422 121.248C111.081 122.317 110.786 123.408 110.536 124.522C110.285 125.614 110.069 126.648 109.888 127.626C109.728 128.581 109.615 129.32 109.546 129.843Z" fill="#FFF9E9"/>
<path d="M93.7728 139.291C93.8183 137.722 93.7956 136.153 93.7046 134.584C93.6364 132.992 93.5454 131.412 93.4318 129.843C93.3408 128.251 93.2499 126.671 93.1589 125.102C93.0907 123.511 93.0907 121.93 93.1589 120.361C92.9088 120.43 92.5222 120.532 91.9993 120.668C91.4763 120.782 90.8851 120.918 90.2257 121.078C89.5663 121.237 88.8615 121.407 88.1111 121.589C87.3835 121.748 86.69 121.908 86.0306 122.067C85.3712 122.226 84.78 122.374 84.2571 122.51C83.7341 122.624 83.3476 122.703 83.0974 122.749C82.7791 122.817 82.4608 122.783 82.1425 122.647C81.8469 122.487 81.574 122.317 81.3239 122.135L82.5176 120.975C86.1102 120.634 89.6459 119.941 93.1248 118.895C96.6037 117.826 99.9689 116.541 103.22 115.041H104.994C105.108 115.223 105.108 115.416 104.994 115.621C104.903 115.825 104.767 116.018 104.585 116.2C104.403 116.36 104.221 116.507 104.039 116.644L103.8 116.814L95.5464 119.782C95.5236 119.782 95.5009 120.054 95.4782 120.6C95.4782 121.146 95.4782 121.794 95.4782 122.544C95.4782 123.295 95.4782 124.079 95.4782 124.898C95.5009 125.693 95.5236 126.353 95.5464 126.876C95.5464 127.058 95.5577 127.456 95.5805 128.07C95.6259 128.683 95.6601 129.4 95.6828 130.218C95.7283 131.014 95.7737 131.867 95.8192 132.776C95.8647 133.686 95.9102 134.55 95.9556 135.368C96.0011 136.187 96.0352 136.903 96.058 137.517C96.0807 138.108 96.1034 138.506 96.1262 138.711C96.1262 139.097 96.0125 139.45 95.7851 139.768C95.5805 140.086 95.3417 140.302 95.0689 140.416C94.796 140.53 94.5232 140.518 94.2503 140.382C94.0002 140.223 93.841 139.859 93.7728 139.291Z" fill="#FFF9E9"/>
<path d="M52.4028 139.904C51.8571 139.495 51.4479 138.927 51.175 138.199C50.9249 137.449 50.7885 136.755 50.7657 136.119C50.7657 135.459 50.8567 134.959 51.0386 134.618C51.2205 134.254 51.4706 134.243 51.7889 134.584C51.7435 135.812 51.9708 136.744 52.4711 137.381C52.9713 138.017 53.5738 138.415 54.2787 138.574C55.0063 138.733 55.768 138.688 56.5639 138.438C57.3824 138.188 58.0759 137.801 58.6444 137.278C59.2355 136.732 59.6335 136.073 59.8381 135.3C60.0655 134.527 59.9518 133.697 59.497 132.81C58.9058 132.151 58.2351 131.514 57.4847 130.9C56.7571 130.264 56.0182 129.638 55.2678 129.024C54.5175 128.41 53.7899 127.785 53.085 127.149C52.3801 126.489 51.7548 125.796 51.2091 125.068C51.1636 125.023 51.1409 124.932 51.1409 124.795C51.1409 124.636 51.1636 124.534 51.2091 124.488C51.3683 124.284 51.5957 123.965 51.8912 123.533C52.1868 123.101 52.5279 122.612 52.9144 122.067C53.301 121.521 53.7103 120.952 54.1423 120.361C54.5743 119.747 54.9836 119.168 55.3701 118.622C55.7567 118.076 56.0977 117.587 56.3933 117.155C56.7117 116.723 56.9504 116.405 57.1096 116.2C57.4279 115.791 57.7462 115.552 58.0646 115.484C58.4056 115.416 58.8831 115.461 59.497 115.62C59.4743 115.711 59.3833 115.916 59.2242 116.234C59.065 116.53 58.9513 116.723 58.8831 116.814C58.7012 117.087 58.3601 117.565 57.8599 118.247C57.3597 118.906 56.8253 119.622 56.2569 120.395C55.6885 121.146 55.1541 121.862 54.6539 122.544C54.1537 123.204 53.8012 123.658 53.5966 123.908C53.4147 124.181 53.4829 124.5 53.8012 124.863C54.1195 125.227 54.5743 125.636 55.1655 126.091C55.7567 126.546 56.4274 127.058 57.1778 127.626C57.9281 128.172 58.633 128.763 59.2924 129.4C59.9745 130.036 60.543 130.718 60.9977 131.446C61.4752 132.174 61.7253 132.958 61.7481 133.799C61.7935 134.618 61.5548 135.482 61.0318 136.391C60.5316 137.301 59.6221 138.267 58.3033 139.29C57.894 139.609 57.4393 139.882 56.939 140.109C56.4615 140.336 55.9613 140.484 55.4383 140.552C54.9154 140.643 54.3924 140.643 53.8694 140.552C53.3465 140.461 52.8576 140.245 52.4028 139.904Z" fill="#FFF9E9"/>
<path d="M43.4164 138.711C43.3709 138.62 43.3141 138.449 43.2459 138.199C43.1777 137.926 43.1095 137.631 43.0412 137.312C42.973 136.994 42.9162 136.687 42.8707 136.391C42.8252 136.096 42.8025 135.88 42.8025 135.743V119.168C42.8025 118.94 42.9048 118.781 43.1095 118.69C43.3141 118.599 43.5415 118.554 43.7916 118.554C44.0644 118.531 44.3032 118.531 44.5078 118.554C44.7352 118.576 44.8603 118.588 44.883 118.588V136.937C44.883 137.324 45.0081 137.642 45.2582 137.892C45.5083 138.142 45.8039 138.347 46.145 138.506C46.486 138.643 46.8385 138.733 47.2023 138.779C47.5661 138.802 47.873 138.779 48.1231 138.711C48.4415 139.188 48.4301 139.575 48.089 139.87C47.7707 140.143 47.3046 140.302 46.6907 140.348C46.0995 140.371 45.4742 140.257 44.8148 140.007C44.1781 139.734 43.712 139.302 43.4164 138.711ZM42.2227 113.233C42.2227 112.574 42.4842 112.153 43.0071 111.971C43.5301 111.766 44.0644 111.789 44.6102 112.039V113.847C44.5419 113.87 44.4169 113.892 44.235 113.915C44.0758 113.915 43.8939 113.915 43.6893 113.915C43.5074 113.915 43.3255 113.915 43.1436 113.915C42.9844 113.892 42.8707 113.87 42.8025 113.847C42.7115 113.824 42.5865 113.733 42.4273 113.574C42.2909 113.415 42.2227 113.301 42.2227 113.233Z" fill="#FFF9E9"/>
<path d="M27.9838 138.711C27.9384 138.62 27.8815 138.472 27.8133 138.267C27.7451 138.04 27.6769 137.801 27.6087 137.551C27.5632 137.278 27.5177 137.028 27.4722 136.801C27.4268 136.573 27.404 136.414 27.404 136.323V123.295C27.404 123.09 27.4836 122.942 27.6428 122.851C27.8019 122.76 27.9838 122.703 28.1885 122.681C28.3931 122.658 28.5864 122.658 28.7683 122.681C28.9729 122.703 29.1094 122.726 29.1776 122.749C29.1548 123.044 29.1435 123.499 29.1435 124.113C29.1435 124.727 29.1321 125.421 29.1094 126.194C29.1094 126.967 29.1094 127.785 29.1094 128.649C29.1321 129.513 29.1435 130.343 29.1435 131.139V133.22C29.1435 133.833 29.1548 134.288 29.1776 134.584C29.2231 135.857 29.3936 136.744 29.6892 137.244C30.0075 137.744 30.3827 137.983 30.8147 137.96C31.2694 137.915 31.7356 137.665 32.2131 137.21C32.7133 136.733 33.1681 136.175 33.5773 135.539C34.0093 134.879 34.3618 134.197 34.6346 133.492C34.9302 132.788 35.078 132.162 35.078 131.617V122.749H37.4655C37.42 123.272 37.3632 123.954 37.295 124.795C37.2267 125.637 37.1813 126.546 37.1585 127.524C37.1585 128.501 37.1813 129.502 37.2267 130.525C37.2722 131.526 37.3745 132.481 37.5337 133.39C37.7156 134.277 37.9657 135.061 38.284 135.743C38.6024 136.403 39.0117 136.88 39.5119 137.176C40.0349 137.449 40.6601 137.494 41.3878 137.312C42.1154 137.108 42.9794 136.585 43.9799 135.743C44.1845 136.335 44.1049 136.903 43.7411 137.449C43.3773 137.995 42.8998 138.472 42.3086 138.881C41.7174 139.291 41.0808 139.598 40.3987 139.802C39.7165 139.984 39.1367 140.018 38.6592 139.904C38.591 139.882 38.4773 139.791 38.3182 139.632C38.1817 139.472 38.0908 139.359 38.0453 139.291C37.9544 139.131 37.7952 138.836 37.5678 138.404C37.3404 137.949 37.1017 137.472 36.8516 136.971C36.6015 136.471 36.3627 135.994 36.1353 135.539C35.9307 135.084 35.7829 134.766 35.6919 134.584C35.5555 134.834 35.3281 135.22 35.0098 135.743C34.6915 136.244 34.3049 136.789 33.8502 137.381C33.4182 137.949 32.9407 138.495 32.4177 139.018C31.9175 139.518 31.4059 139.882 30.8829 140.109C30.3599 140.314 29.8483 140.336 29.3481 140.177C28.8479 139.995 28.3931 139.507 27.9838 138.711Z" fill="#FFF9E9"/>
<path d="M14.2566 123.909C14.2566 123.886 14.1771 123.874 14.0179 123.874C13.8815 123.874 13.7678 123.886 13.6768 123.909C12.881 124.204 12.233 124.466 11.7327 124.693C11.2552 124.898 10.846 125.08 10.5049 125.239C10.1638 125.398 9.85688 125.546 9.58403 125.682C9.31117 125.796 9.00421 125.921 8.66315 126.057C8.32208 126.171 7.89006 126.296 7.36709 126.432C6.86686 126.546 6.20747 126.694 5.38891 126.876V138.711C5.38891 139.12 5.29796 139.336 5.11606 139.359C4.93415 139.382 4.72951 139.302 4.50214 139.12C4.2975 138.915 4.09286 138.665 3.88822 138.37C3.70631 138.051 3.61536 137.767 3.61536 137.517C3.59263 136.994 3.55852 136.369 3.51304 135.641C3.46757 134.891 3.42209 134.129 3.37662 133.356C3.35388 132.56 3.31977 131.776 3.2743 131.003C3.22882 130.23 3.18335 129.536 3.13787 128.922C3.11513 128.308 3.0924 127.819 3.06966 127.456L3.03555 126.876L0.0682743 125.682C0.0227988 125.659 6.10352e-05 125.58 6.10352e-05 125.443C6.10352e-05 125.307 0.0227988 125.182 0.0682743 125.068C0.181963 124.841 0.363865 124.659 0.61398 124.522C0.886833 124.363 1.17106 124.25 1.46665 124.181C1.76224 124.09 2.04646 124.034 2.31931 124.011C2.6149 123.965 2.85365 123.931 3.03555 123.909C3.03555 123.567 3.05829 122.976 3.10376 122.135C3.14924 121.294 3.20608 120.407 3.2743 119.475C3.34251 118.52 3.39936 117.622 3.44483 116.78C3.51304 115.939 3.56989 115.359 3.61536 115.041C3.61536 114.973 3.67221 114.802 3.7859 114.529C3.92232 114.234 4.07012 113.915 4.22928 113.574C4.41119 113.233 4.60446 112.915 4.8091 112.619C5.01374 112.324 5.19564 112.119 5.3548 112.005C5.5367 111.892 5.6845 111.926 5.79819 112.108C5.91188 112.267 5.96872 112.642 5.96872 113.233C5.96872 113.37 5.93461 113.677 5.8664 114.154C5.82093 114.609 5.75271 115.098 5.66176 115.621C5.59355 116.144 5.52534 116.644 5.45712 117.121C5.41165 117.576 5.38891 117.872 5.38891 118.008C5.36617 118.258 5.34343 118.69 5.3207 119.304C5.3207 119.895 5.3207 120.543 5.3207 121.248C5.3207 121.93 5.3207 122.578 5.3207 123.192C5.34343 123.806 5.36617 124.238 5.38891 124.488C5.95735 124.625 6.7077 124.647 7.63995 124.557C8.57219 124.466 9.50444 124.284 10.4367 124.011C11.3917 123.715 12.2784 123.363 13.097 122.954C13.9156 122.522 14.5067 122.055 14.8706 121.555C15.3026 120.919 15.6323 120.191 15.8596 119.372C16.087 118.554 16.2917 117.724 16.4736 116.883C16.6555 116.019 16.8828 115.166 17.1557 114.325C17.4286 113.483 17.8378 112.722 18.3835 112.039C19.0429 111.244 19.691 110.698 20.3276 110.402C20.987 110.107 21.5896 110.004 22.1353 110.095C22.681 110.164 23.1471 110.402 23.5336 110.812C23.9429 111.198 24.2044 111.676 24.3181 112.244C24.4545 112.812 24.4318 113.449 24.2499 114.154C24.0907 114.836 23.7155 115.518 23.1244 116.2C22.9652 116.382 22.7151 116.644 22.374 116.985C22.0557 117.326 21.6805 117.712 21.2485 118.144C20.8392 118.577 20.3958 119.031 19.9183 119.509C19.4636 119.986 19.0202 120.441 18.5882 120.873C18.1562 121.282 17.7582 121.657 17.3944 121.999C17.0534 122.34 16.8033 122.59 16.6441 122.749C16.5077 124.113 16.4622 125.534 16.5077 127.012C16.5531 128.49 16.6668 129.968 16.8487 131.446C17.0306 132.924 17.258 134.379 17.5309 135.812C17.8037 137.244 18.0879 138.608 18.3835 139.905H16.0643L14.2566 123.909ZM18.3835 115.621C18.3381 115.78 18.2585 116.053 18.1448 116.439C18.0311 116.826 17.906 117.246 17.7696 117.701C17.6559 118.133 17.5422 118.554 17.4285 118.963C17.3376 119.35 17.2694 119.622 17.2239 119.782C17.906 119.441 18.5313 118.963 19.0998 118.349C19.691 117.735 20.2026 117.087 20.6346 116.405C21.0666 115.723 21.419 115.052 21.6919 114.393C21.9875 113.733 22.1694 113.176 22.2376 112.722C22.3285 112.267 22.3058 111.96 22.1694 111.801C22.0329 111.642 21.7601 111.721 21.3508 112.039C20.7596 112.54 20.1798 113.074 19.6114 113.642C19.0657 114.211 18.6564 114.87 18.3835 115.621Z" fill="#FFF9E9"/>
<path fill-rule="evenodd" clip-rule="evenodd" d="M105.407 0.0800665C104.276 0.274834 103.392 0.954127 102.649 2.19888C102.198 2.95458 102.176 3.04355 102.165 4.14656C102.148 5.86643 102.532 7.07788 103.699 8.9988C105.117 11.3317 108.217 13.9431 109.292 13.7113C110.234 13.5082 111.59 12.5838 113.331 10.9569C113.627 10.6805 114.097 10.2564 114.376 10.0145C114.654 9.77259 114.885 9.4724 114.888 9.34738C114.891 9.22235 114.944 9.15122 115.006 9.18917C115.163 9.28668 115.556 8.64972 115.472 8.43209C115.418 8.29173 115.478 8.271 115.745 8.33747C116.056 8.41488 116.071 8.40318 115.911 8.20892C115.757 8.02207 115.77 7.96314 116.011 7.73872C116.162 7.59761 116.319 7.31675 116.36 7.1147C116.4 6.91277 116.476 6.74741 116.529 6.74741C116.582 6.74741 116.664 6.53732 116.713 6.28047C116.761 6.02363 116.911 5.73612 117.046 5.6415C117.207 5.52828 117.265 5.3873 117.215 5.22909C117.173 5.09678 117.134 4.81895 117.128 4.61149C117.122 4.40403 117.053 4.23427 116.975 4.23427C116.897 4.23427 116.733 4.06463 116.61 3.8573C116.409 3.51727 116.407 3.48033 116.591 3.48033C116.703 3.48033 116.893 3.53299 117.014 3.5972C117.134 3.66191 117.308 3.66693 117.403 3.60863C117.677 3.43911 117.221 3.06152 116.832 3.13591C116.483 3.20276 116.273 2.94353 116.28 2.45196C116.284 2.19235 116.3 2.18355 116.437 2.3699C116.521 2.48487 116.65 2.67776 116.722 2.79851C116.82 2.96124 116.91 2.98687 117.07 2.8974C117.266 2.78771 117.254 2.73532 116.938 2.31575C115.63 0.580808 112.657 0.443457 110.587 2.02221L110.172 2.33873L109.74 1.79917C108.565 0.33162 107.166 -0.223143 105.407 0.0800665ZM108.862 1.72114C108.701 1.82518 108.706 1.84327 108.894 1.84491C109.015 1.84591 109.114 1.79025 109.114 1.72114C109.114 1.56783 109.099 1.56783 108.862 1.72114ZM114.116 2.05827C114.207 2.09459 114.315 2.09006 114.357 2.04835C114.399 2.00663 114.325 1.97697 114.192 1.98237C114.046 1.98841 114.016 2.01819 114.116 2.05827ZM110.621 2.47508C110.621 2.54419 110.675 2.60073 110.74 2.60073C110.805 2.60073 110.893 2.54419 110.936 2.47508C110.978 2.40597 110.925 2.34942 110.817 2.34942C110.71 2.34942 110.621 2.40597 110.621 2.47508ZM105.445 3.00912C105.14 3.2833 105.138 3.29851 105.363 3.51174C105.586 3.72285 105.595 3.71756 105.595 3.3798C105.595 3.18629 105.663 2.96012 105.746 2.87719C106.013 2.61054 105.771 2.71671 105.445 3.00912ZM108.145 4.12382C108.242 4.85275 108.446 5.00932 108.554 4.43771C108.609 4.14192 108.585 3.9141 108.484 3.79309C108.204 3.45583 108.072 3.58437 108.145 4.12382ZM111.438 3.98296C111.395 4.05207 111.449 4.10861 111.556 4.10861C111.664 4.10861 111.752 4.05207 111.752 3.98296C111.752 3.91385 111.699 3.8573 111.634 3.8573C111.569 3.8573 111.481 3.91385 111.438 3.98296ZM105.218 4.25526C105.218 4.31281 105.303 4.35993 105.407 4.35993C105.51 4.35993 105.595 4.31281 105.595 4.25526C105.595 4.19758 105.51 4.15046 105.407 4.15046C105.303 4.15046 105.218 4.19758 105.218 4.25526ZM105.218 4.92538C105.218 5.02905 105.275 5.11387 105.344 5.11387C105.413 5.11387 105.47 5.02905 105.47 4.92538C105.47 4.82172 105.413 4.7369 105.344 4.7369C105.275 4.7369 105.218 4.82172 105.218 4.92538ZM110.223 5.09804C110.034 5.3202 110.033 5.35338 110.209 5.42123C110.464 5.51899 110.526 5.44849 110.475 5.11864C110.433 4.85288 110.431 4.85276 110.223 5.09804ZM112.47 5.23953C112.434 5.37775 112.449 5.49084 112.503 5.49084C112.558 5.49084 112.632 5.37775 112.668 5.23953C112.704 5.1013 112.689 4.98821 112.635 4.98821C112.58 4.98821 112.506 5.1013 112.47 5.23953ZM116.779 5.12128C116.779 5.19441 116.835 5.21942 116.904 5.1767C116.973 5.13397 117.03 5.07417 117.03 5.04363C117.03 5.0131 116.973 4.98821 116.904 4.98821C116.835 4.98821 116.779 5.04815 116.779 5.12128ZM105.155 5.6165C105.198 5.68561 105.258 5.74215 105.288 5.74215C105.319 5.74215 105.344 5.68561 105.344 5.6165C105.344 5.54738 105.284 5.49084 105.211 5.49084C105.138 5.49084 105.113 5.54738 105.155 5.6165ZM105.731 5.68975C105.737 5.83614 105.767 5.86592 105.807 5.76577C105.843 5.67505 105.838 5.56661 105.797 5.52489C105.755 5.48317 105.725 5.55731 105.731 5.68975ZM105.155 5.99347C105.198 6.06258 105.258 6.11912 105.288 6.11912C105.319 6.11912 105.344 6.06258 105.344 5.99347C105.344 5.92436 105.284 5.86781 105.211 5.86781C105.138 5.86781 105.113 5.92436 105.155 5.99347ZM108.108 5.99347C108.108 6.06258 108.193 6.11912 108.297 6.11912C108.4 6.11912 108.485 6.06258 108.485 5.99347C108.485 5.92436 108.4 5.86781 108.297 5.86781C108.193 5.86781 108.108 5.92436 108.108 5.99347ZM110.143 6.43326C110.146 6.6406 110.174 6.71021 110.206 6.58794C110.238 6.46568 110.236 6.29604 110.201 6.21097C110.167 6.1259 110.141 6.22593 110.143 6.43326ZM116.591 7.12639C116.635 7.19663 116.723 7.22164 116.787 7.18181C116.962 7.07412 116.929 6.99872 116.708 6.99872C116.601 6.99872 116.548 7.05614 116.591 7.12639ZM110.496 8.88357C110.496 9.02179 110.552 9.13488 110.621 9.13488C110.691 9.13488 110.747 9.02179 110.747 8.88357C110.747 8.74535 110.691 8.63226 110.621 8.63226C110.552 8.63226 110.496 8.74535 110.496 8.88357ZM108.745 10.1464C108.752 10.5538 108.76 10.5616 108.874 10.2758C108.954 10.0745 108.952 9.92816 108.866 9.84233C108.777 9.75349 108.739 9.84887 108.745 10.1464ZM112.062 11.0238C111.756 11.2256 111.734 11.2679 111.941 11.2614C112.359 11.2481 112.631 11.0951 112.529 10.9304C112.459 10.8169 112.34 10.8408 112.062 11.0238ZM111.627 11.648C111.873 11.8071 112.039 11.8071 111.941 11.648C111.898 11.5789 111.768 11.5232 111.651 11.5243C111.468 11.526 111.464 11.5431 111.627 11.648ZM110.93 11.9078C110.885 11.9814 110.875 12.0687 110.907 12.1016C110.94 12.1346 111.001 12.0742 111.042 11.9676C111.127 11.7462 111.054 11.7072 110.93 11.9078ZM110.402 12.287C110.101 12.4006 110.012 12.656 110.276 12.6493C110.497 12.6436 110.909 12.313 110.786 12.2402C110.73 12.2072 110.557 12.2282 110.402 12.287ZM109.616 12.9046C109.616 12.9737 109.673 13.0302 109.742 13.0302C109.811 13.0302 109.868 12.9737 109.868 12.9046C109.868 12.8355 109.811 12.7789 109.742 12.7789C109.673 12.7789 109.616 12.8355 109.616 12.9046ZM79.3957 17.6899C78.3508 17.8057 77.051 18.3249 75.6167 19.1994C74.9475 19.6075 74.3604 19.9414 74.3123 19.9414C74.2642 19.9414 74.092 20.0827 73.9297 20.2555C73.7673 20.4283 73.5737 20.5724 73.4994 20.5758C73.425 20.5792 73.0532 20.8058 72.6731 21.0793C72.293 21.3529 71.6852 21.7734 71.3223 22.0141C70.9594 22.2546 70.6626 22.5087 70.6626 22.5787C70.6626 22.6485 70.602 22.7058 70.528 22.7058C70.4541 22.7058 70.1253 22.932 69.7974 23.2084C69.4696 23.4849 69.1344 23.7111 69.0524 23.7111C68.9705 23.7111 68.9034 23.7563 68.9034 23.8117C68.9034 23.9159 67.5541 25.062 66.4811 25.8694C66.1435 26.1233 65.6016 26.5757 65.2769 26.8746C64.9524 27.1734 64.38 27.6381 64.0052 27.9073C63.6303 28.1764 62.7486 28.8832 62.0458 29.478C61.343 30.0727 60.5241 30.7573 60.2262 30.9992C59.9281 31.2411 59.5974 31.5379 59.491 31.6589C59.3846 31.7799 59.2512 31.8788 59.1944 31.8788C59.1376 31.8788 58.763 32.1474 58.3621 32.4756C57.9611 32.8038 57.5056 33.1573 57.35 33.261C57.1945 33.3647 56.7426 33.7039 56.3459 34.0149C55.9492 34.3259 55.103 34.9479 54.4657 35.3971C53.8282 35.8464 52.9826 36.4684 52.5864 36.7794C52.19 37.0904 51.7753 37.4014 51.6644 37.4705C51.5536 37.5396 51.0189 37.923 50.4762 38.3223C49.9335 38.7217 49.1502 39.297 48.7355 39.6007C43.2523 43.6174 43.2512 43.6182 41.7162 45.1529C40.5624 46.3063 39.7534 47.4329 39.1571 48.7168C38.9434 49.1768 38.415 50.7513 38.2927 51.2927C38.001 52.5832 37.5613 56.1585 37.6008 56.9193C37.6144 57.1804 37.5823 57.4631 37.5294 57.5475C37.4766 57.6321 37.4253 58.0688 37.4152 58.518C37.405 58.9672 37.3574 60.2395 37.3091 61.3453C37.2331 63.0883 37.0866 68.9226 37.0962 69.8271C37.098 69.9999 37.095 70.9046 37.0895 71.8376C37.0841 72.7706 37.0828 73.6188 37.087 73.7225C37.1288 74.7885 37.257 80.6693 37.2978 83.398C37.3511 86.9568 37.444 89.261 37.5563 89.8082C37.5916 89.9801 37.6532 90.3751 37.6931 90.6861C37.7851 91.4026 38.2488 92.8558 38.4241 92.9775C38.5107 93.0374 38.4992 93.0705 38.3913 93.0717C38.267 93.0731 38.2752 93.1236 38.4238 93.2723C38.533 93.3815 38.5883 93.5261 38.5466 93.5936C38.5048 93.6612 38.6174 93.9381 38.7967 94.209C38.976 94.4801 39.1227 94.7531 39.1227 94.8158C39.1227 94.8785 39.6225 95.4054 40.2332 95.9866C41.8526 97.5278 43.2085 98.0942 45.7197 98.2791C46.2726 98.3198 46.9794 98.3795 47.2904 98.4118C47.6014 98.4439 48.5344 98.4994 49.3638 98.5349C50.1931 98.5705 52.1439 98.655 53.6989 98.7228C55.2539 98.7906 58.8446 98.8808 61.6781 98.9232C64.5117 98.9657 67.0562 99.0174 67.3327 99.0383C68.6526 99.1379 78.3633 99.2416 88.6943 99.2662C109.943 99.3171 115.996 99.05 118.17 97.9654C119.561 97.2716 121.46 95.3 121.254 94.7636C121.216 94.6634 121.239 94.5815 121.306 94.5815C121.373 94.5815 121.432 94.6522 121.437 94.7386C121.442 94.825 121.49 94.7825 121.545 94.6443C121.616 94.465 121.587 94.3685 121.442 94.3076C121.264 94.2324 121.266 94.2211 121.459 94.2133C121.702 94.2036 121.753 94.0139 121.547 93.8866C121.456 93.8303 121.458 93.7539 121.554 93.6391C121.649 93.5242 121.651 93.4478 121.56 93.3915C121.487 93.3468 121.428 93.2535 121.428 93.1844C121.428 93.1153 121.484 93.0937 121.554 93.1364C121.623 93.1792 121.679 93.0907 121.679 92.94C121.679 92.7174 121.713 92.6938 121.858 92.8141C122.004 92.9358 122.024 92.9159 121.969 92.7038C121.932 92.5617 121.955 92.4453 122.021 92.4453C122.156 92.4453 122.204 91.9163 122.228 90.1521C122.237 89.4783 122.287 88.9269 122.339 88.9269C122.53 88.9269 122.428 88.1333 122.213 87.9576C122.092 87.8585 122.073 87.8186 122.17 87.8692C122.304 87.9387 122.33 87.8951 122.276 87.6898C122.237 87.5407 122.255 87.4493 122.316 87.4869C122.376 87.5244 122.465 87.4002 122.512 87.211C122.567 86.9921 122.546 86.8492 122.453 86.8183C122.373 86.7916 122.312 86.6473 122.317 86.4976C122.323 86.3478 122.356 86.2961 122.391 86.3824C122.426 86.4688 122.512 86.5395 122.583 86.5395C122.653 86.5395 122.675 86.445 122.631 86.3296C122.586 86.2141 122.623 86.0729 122.712 86.0155C122.815 85.9487 122.828 85.8772 122.747 85.8169C122.58 85.6911 122.553 85.2829 122.713 85.2829C122.783 85.2829 122.806 85.1563 122.766 85.0017C122.725 84.847 122.758 84.5018 122.838 84.2345C122.964 83.8137 122.955 83.7329 122.771 83.63C122.534 83.4976 122.481 83.1467 122.698 83.1467C122.774 83.1467 122.803 83.2344 122.762 83.3417C122.721 83.4491 122.735 83.5072 122.793 83.4713C122.892 83.4102 123.01 82.6401 123.136 81.2305C123.178 80.759 123.149 80.6336 123 80.6336C122.895 80.6336 122.81 80.5737 122.81 80.5005C122.81 80.4274 122.863 80.3999 122.927 80.4396C122.991 80.4792 123.077 80.4069 123.117 80.279C123.233 79.9137 123.161 75.687 123.036 75.5243C122.969 75.4381 122.971 75.3487 123.041 75.306C123.2 75.2077 123.042 63.6528 122.876 63.2615C122.822 63.1336 122.838 63.0416 122.914 63.0416C122.999 63.0416 123.006 62.9107 122.936 62.6647C122.867 62.4232 122.873 62.2877 122.955 62.2877C123.081 62.2877 122.997 60.4772 122.86 60.2562C122.824 60.1987 122.855 60.1515 122.928 60.1515C123.115 60.1515 123.095 59.1064 122.904 58.9044C122.779 58.7712 122.779 58.7263 122.904 58.6803C123.1 58.6087 123.113 58.141 122.92 58.141C122.823 58.141 122.819 58.0928 122.908 57.984C123.053 57.8072 123.046 57.1542 122.896 56.9173C122.828 56.8104 122.858 56.7851 122.992 56.8365C123.147 56.8958 123.187 56.8153 123.187 56.4507C123.187 56.1756 123.136 56.0213 123.061 56.0677C122.992 56.1104 122.936 56.0854 122.936 56.0123C122.936 55.9391 122.987 55.8792 123.049 55.8792C123.19 55.8792 123.289 54.7487 123.155 54.6659C123.102 54.6326 123.098 54.54 123.147 54.46C123.317 54.1859 123.284 53.2291 123.098 53.0436C122.942 52.8872 122.943 52.8634 123.109 52.8634C123.354 52.8634 123.438 51.71 123.233 51.1671C123.154 50.9597 123.106 50.5074 123.125 50.1618C123.144 49.8163 123.117 49.5053 123.065 49.4707C122.904 49.3644 122.763 48.7987 122.922 48.897C123.298 49.1292 122.944 48.5461 121.668 46.8319C120.961 45.8813 120.497 45.4241 119.312 44.5103C118.66 44.0073 117.057 42.3173 116.567 41.6172C116.404 41.3842 116.319 41.0974 116.345 40.8665C116.367 40.6609 116.337 40.4344 116.278 40.363C116.219 40.2915 116.167 39.866 116.162 39.4173C116.158 38.9686 116.13 38.3752 116.101 38.0988C116.072 37.8223 116.043 37.4373 116.036 37.2432C116.028 36.996 115.978 36.9185 115.868 36.9846C115.768 37.0443 115.777 36.9976 115.89 36.858C116.03 36.6855 116.04 36.5497 115.936 36.237C115.862 36.017 115.811 35.2526 115.822 34.5384C115.832 33.8243 115.796 33.2122 115.741 33.1782C115.686 33.1442 115.646 32.9369 115.652 32.7175C115.658 32.4981 115.622 31.4138 115.572 30.3081C115.522 29.2023 115.475 27.5907 115.469 26.7268C115.462 25.8629 115.405 25.0747 115.342 24.975C115.266 24.8566 115.277 24.777 115.373 24.745C115.481 24.7092 115.484 24.6286 115.385 24.4441C115.311 24.3055 115.281 24.1613 115.319 24.1236C115.357 24.0859 115.333 23.9528 115.266 23.8278C115.199 23.7029 115.192 23.5713 115.25 23.5357C115.381 23.4546 115.149 21.9519 115.006 21.9519C114.949 21.9519 114.935 21.8649 114.976 21.7587C115.365 20.7441 110.221 19.1226 106.475 19.0791C104.614 19.0575 103.481 19.2661 102.348 19.8388C101.631 20.2013 100.695 21.0621 100.695 21.3583C100.695 21.4215 100.57 21.6483 100.418 21.8622C100.219 22.1412 100.136 22.4519 100.123 22.9623C100.113 23.3535 100.066 23.7353 100.02 23.8107C99.9729 23.8861 99.9032 25.1245 99.8645 26.5625C99.8258 28.0005 99.7702 29.2532 99.7411 29.3461C99.706 29.4581 99.4296 29.2885 98.9222 28.8435C98.1112 28.1324 97.3692 27.5661 96.7176 27.1612C96.5 27.026 95.8781 26.576 95.3356 26.1614C94.793 25.7467 94.2077 25.3153 94.0348 25.2026C93.862 25.09 93.6075 24.8897 93.4693 24.7577C93.3311 24.6255 92.9353 24.3251 92.5897 24.0902C92.2441 23.8552 91.9426 23.6172 91.9196 23.5613C91.8965 23.5055 91.8224 23.4598 91.755 23.4598C91.6203 23.4598 90.6991 22.7889 90.0254 22.2003C89.7901 21.9946 89.5234 21.8262 89.433 21.8262C89.3426 21.8262 89.2132 21.7227 89.1454 21.596C89.0777 21.4693 88.7647 21.2292 88.4499 21.0622C88.1352 20.8952 87.8776 20.716 87.8776 20.6641C87.8776 20.6121 87.8137 20.5697 87.7357 20.5697C87.6577 20.5697 87.0912 20.2022 86.4771 19.7531C84.1399 18.0441 81.951 17.4064 79.3957 17.6899ZM102.831 21.4492C102.831 21.5184 102.912 21.5749 103.012 21.5749C103.111 21.5749 103.228 21.5184 103.271 21.4492C103.313 21.3801 103.232 21.3236 103.089 21.3236C102.947 21.3236 102.831 21.3801 102.831 21.4492ZM77.4795 21.6201C77.324 21.6972 77.1968 21.863 77.1968 21.9887C77.1968 22.1145 77.0162 22.3823 76.7955 22.5839C76.5747 22.7855 76.4334 22.9895 76.4814 23.0376C76.5293 23.0854 76.5685 23.054 76.5685 22.9676C76.5685 22.8812 76.6337 22.8322 76.7133 22.8589C76.916 22.9263 77.478 22.3366 77.4013 22.137C77.3361 21.9671 77.6442 21.7728 77.7334 21.9275C77.7612 21.9755 77.7692 21.9509 77.7514 21.873C77.7336 21.7949 77.7824 21.6678 77.86 21.5902C78.0321 21.4181 77.8601 21.4317 77.4795 21.6201ZM108.443 22.1613C108.397 22.2073 108.36 22.3035 108.36 22.375C108.36 22.4536 108.418 22.4462 108.508 22.3561C108.59 22.2743 108.628 22.1782 108.592 22.1425C108.556 22.1068 108.489 22.1152 108.443 22.1613ZM108.985 22.3957C108.832 22.5794 108.839 22.6293 109.036 22.7737C109.269 22.9439 109.666 22.8881 109.551 22.7013C109.515 22.6442 109.54 22.5642 109.606 22.5234C109.672 22.4825 109.783 22.5494 109.851 22.6718C109.971 22.8842 109.98 22.8841 110.063 22.669C110.172 22.386 110.153 22.3694 109.608 22.2676C109.269 22.2042 109.118 22.2351 108.985 22.3957ZM112.506 23.3341C112.506 23.4032 112.563 23.4598 112.632 23.4598C112.701 23.4598 112.758 23.4032 112.758 23.3341C112.758 23.265 112.701 23.2084 112.632 23.2084C112.563 23.2084 112.506 23.265 112.506 23.3341ZM75.769 23.6482C75.7293 23.7519 75.7516 23.8367 75.8184 23.8367C75.8854 23.8367 75.9402 23.7519 75.9402 23.6482C75.9402 23.5446 75.9179 23.4598 75.8908 23.4598C75.8637 23.4598 75.8089 23.5446 75.769 23.6482ZM81.4731 24.1572C81.4686 24.4503 81.6901 24.7163 81.9389 24.7163C82.0618 24.7163 82.0709 24.6739 81.9723 24.5593C81.8982 24.4729 81.7563 24.2891 81.6573 24.1509C81.4776 23.9003 81.4771 23.9003 81.4731 24.1572ZM81.9717 25.219C81.9717 25.2881 82.0316 25.3446 82.1048 25.3446C82.1779 25.3446 82.2029 25.2881 82.1602 25.219C82.1175 25.1498 82.0577 25.0933 82.0271 25.0933C81.9966 25.0933 81.9717 25.1498 81.9717 25.219ZM82.3487 26.4755C82.3487 26.5446 82.4052 26.6012 82.4743 26.6012C82.5434 26.6012 82.6 26.5446 82.6 26.4755C82.6 26.4064 82.5434 26.3499 82.4743 26.3499C82.4052 26.3499 82.3487 26.4064 82.3487 26.4755ZM82.5372 26.8525C82.4944 26.9216 82.5477 26.9781 82.6554 26.9781C82.7631 26.9781 82.8513 26.9216 82.8513 26.8525C82.8513 26.7834 82.7981 26.7268 82.7331 26.7268C82.668 26.7268 82.5799 26.7834 82.5372 26.8525ZM115.019 27.8577C115.019 27.9269 115.079 27.9834 115.152 27.9834C115.226 27.9834 115.251 27.9269 115.208 27.8577C115.165 27.7886 115.105 27.7321 115.075 27.7321C115.044 27.7321 115.019 27.7886 115.019 27.8577ZM83.3539 35.8849C83.3539 35.9541 83.4105 36.0455 83.4796 36.0883C83.5487 36.131 83.6052 36.1094 83.6052 36.0403C83.6052 35.9712 83.5487 35.8797 83.4796 35.8369C83.4105 35.7942 83.3539 35.8158 83.3539 35.8849ZM94.0688 36.0317C94.0589 36.1638 94.1012 36.303 94.1629 36.3411C94.2246 36.3793 94.244 36.5076 94.2059 36.6263C94.1546 36.7864 94.1673 36.7995 94.2553 36.677C94.3778 36.5062 94.3205 35.9358 94.1715 35.8439C94.125 35.8151 94.0787 35.8997 94.0688 36.0317ZM76.7255 36.4787C76.7255 36.7098 76.7573 36.756 76.8336 36.6358C76.9742 36.4138 76.9752 36.1511 76.8355 36.1511C76.775 36.1511 76.7255 36.2985 76.7255 36.4787ZM83.7309 36.7794C83.7309 36.8485 83.7874 36.905 83.8566 36.905C83.9257 36.905 83.9822 36.8485 83.9822 36.7794C83.9822 36.7103 83.9257 36.6537 83.8566 36.6537C83.7874 36.6537 83.7309 36.7103 83.7309 36.7794ZM76.6941 37.4002C76.6941 37.4653 76.7507 37.5534 76.8198 37.5961C76.8889 37.6389 76.9454 37.5856 76.9454 37.4779C76.9454 37.3702 76.8889 37.282 76.8198 37.282C76.7507 37.282 76.6941 37.3352 76.6941 37.4002ZM83.9822 38.0359C83.9822 38.1051 84.0388 38.1616 84.1079 38.1616C84.177 38.1616 84.2335 38.1051 84.2335 38.0359C84.2335 37.9668 84.177 37.9103 84.1079 37.9103C84.0388 37.9103 83.9822 37.9668 83.9822 38.0359ZM84.1079 38.4609C84.1079 38.5646 84.1644 38.6843 84.2335 38.7271C84.3026 38.7698 84.3592 38.7199 84.3592 38.6162C84.3592 38.5126 84.3026 38.3928 84.2335 38.3501C84.1644 38.3074 84.1079 38.3572 84.1079 38.4609ZM76.5049 39.0619C76.5162 39.2154 76.5964 39.3646 76.6832 39.3935C76.7861 39.4278 76.8263 39.3464 76.7989 39.1593C76.7443 38.7856 76.478 38.6974 76.5049 39.0619ZM54.8298 39.2162C54.8298 39.2434 54.9176 39.2993 55.0249 39.3405C55.1367 39.3834 55.1871 39.3623 55.1431 39.2911C55.0693 39.1716 54.8298 39.1144 54.8298 39.2162ZM84.3592 39.4849C84.3592 39.6882 84.5556 39.7344 84.6652 39.557C84.7035 39.4951 84.6502 39.4121 84.5469 39.3724C84.4329 39.3287 84.3592 39.3728 84.3592 39.4849ZM76.518 39.8876C76.4766 39.9288 76.4473 40.1653 76.4527 40.413C76.4581 40.6607 76.4912 40.7926 76.526 40.7061C76.5609 40.6198 76.6625 40.5491 76.7517 40.5491C76.9622 40.5491 76.9638 39.9547 76.7536 39.8741C76.6652 39.8401 76.5593 39.8463 76.518 39.8876ZM54.9031 40.0296C54.8662 40.0894 54.6789 40.1133 54.4873 40.0826C54.2153 40.039 54.1801 40.0561 54.3272 40.1603C54.4838 40.2713 54.4686 40.2942 54.2374 40.2959C53.9605 40.2978 53.6357 40.6952 53.7871 40.8468C53.9354 40.9949 54.0759 40.9268 54.0769 40.7061C54.0774 40.5851 54.2188 40.4209 54.3911 40.341C54.7367 40.1806 54.8107 40.3042 54.5157 40.5491C54.3065 40.7227 54.2658 40.926 54.4402 40.926C54.5024 40.926 54.671 40.6999 54.8151 40.4234C54.9593 40.147 55.0531 39.9208 55.0237 39.9208C54.9943 39.9208 54.94 39.9698 54.9031 40.0296ZM84.7362 40.5491C84.7362 40.6873 84.7927 40.8004 84.8618 40.8004C84.9309 40.8004 84.9875 40.6873 84.9875 40.5491C84.9875 40.4109 84.9309 40.2978 84.8618 40.2978C84.7927 40.2978 84.7362 40.4109 84.7362 40.5491ZM76.714 41.1774C76.714 41.3501 76.7425 41.4209 76.7773 41.3344C76.8122 41.2481 76.8122 41.1067 76.7773 41.0203C76.7425 40.934 76.714 41.0046 76.714 41.1774ZM54.236 41.1561C54.151 41.2087 54.1319 41.3161 54.1908 41.4111C54.2695 41.5386 54.3109 41.5268 54.3755 41.3584C54.4759 41.0968 54.4328 41.0345 54.236 41.1561ZM85.1131 41.4894C85.1131 41.5082 85.1904 41.5878 85.2849 41.6662C85.4141 41.7734 85.4893 41.7693 85.5884 41.6501C85.6876 41.5303 85.6457 41.4871 85.4165 41.4734C85.2496 41.4633 85.1131 41.4706 85.1131 41.4894ZM53.8266 41.9275C53.7474 42.0754 53.7079 42.264 53.7386 42.3466C53.7694 42.4292 53.8595 42.3334 53.9388 42.1337C54.1117 41.6982 54.0299 41.5477 53.8266 41.9275ZM76.5056 41.8056C76.5484 41.8748 76.6681 41.9313 76.7718 41.9313C76.8754 41.9313 76.9253 41.8748 76.8826 41.8056C76.8399 41.7365 76.7201 41.68 76.6165 41.68C76.5128 41.68 76.4629 41.7365 76.5056 41.8056ZM95.1116 41.917C95.0738 41.9783 95.1552 42.0578 95.2927 42.0938C95.4547 42.1361 95.5426 42.0969 95.5426 41.9823C95.5426 41.7882 95.2213 41.7395 95.1116 41.917ZM85.4666 42.3941C85.5572 42.4304 85.6656 42.4259 85.7074 42.3842C85.7491 42.3424 85.6749 42.3128 85.5425 42.3182C85.3961 42.3242 85.3663 42.354 85.4666 42.3941ZM95.2456 42.496C95.2853 42.5993 95.3682 42.6526 95.4302 42.6143C95.6076 42.5047 95.5614 42.3083 95.358 42.3083C95.246 42.3083 95.2019 42.382 95.2456 42.496ZM76.511 43.3047C76.4751 43.3629 76.558 43.4401 76.6955 43.476C76.833 43.5119 76.9454 43.4961 76.9454 43.4408C76.9454 43.2932 76.5876 43.1811 76.511 43.3047ZM103.49 43.5279C103.205 43.5828 103.089 43.8162 103.347 43.8162C103.423 43.8162 103.46 43.8869 103.427 43.9732C103.395 44.0597 103.536 44.2999 103.74 44.5073C104.104 44.8782 104.109 44.8792 104.019 44.5701C103.969 44.3973 103.873 44.2208 103.806 44.1777C103.729 44.1282 103.735 44.0044 103.823 43.8404C103.986 43.5368 103.998 43.4326 103.867 43.4563C103.816 43.4657 103.646 43.4979 103.49 43.5279ZM102.865 44.0647C102.876 44.2044 102.929 44.3188 102.983 44.3188C103.122 44.3188 103.107 43.972 102.964 43.8836C102.899 43.8435 102.855 43.925 102.865 44.0647ZM76.5926 44.3816C76.6037 44.6751 76.67 44.8214 76.792 44.8214C76.9202 44.8214 76.9521 44.737 76.8989 44.5387C76.8573 44.3832 76.8224 44.1853 76.8215 44.0989C76.8205 44.0126 76.765 43.9418 76.6979 43.9418C76.6309 43.9418 76.5835 44.1397 76.5926 44.3816ZM65.4688 44.2769C65.4227 44.3229 65.385 44.419 65.385 44.4905C65.385 44.5692 65.4436 44.5618 65.5337 44.4717C65.6155 44.3899 65.6532 44.2938 65.6175 44.2581C65.5818 44.2224 65.5148 44.2308 65.4688 44.2769ZM118.349 44.5701C118.392 44.6392 118.484 44.6958 118.553 44.6958C118.622 44.6958 118.643 44.6392 118.601 44.5701C118.558 44.501 118.466 44.4444 118.397 44.4444C118.328 44.4444 118.307 44.501 118.349 44.5701ZM102.768 44.6958C102.811 44.7649 102.87 44.8214 102.901 44.8214C102.931 44.8214 102.956 44.7649 102.956 44.6958C102.956 44.6266 102.896 44.5701 102.823 44.5701C102.75 44.5701 102.725 44.6266 102.768 44.6958ZM65.2205 44.7826C65.1819 44.845 65.196 44.9703 65.2519 45.0608C65.3079 45.1511 65.3853 45.174 65.4238 45.1115C65.4624 45.0491 65.4483 44.9238 65.3924 44.8333C65.3365 44.743 65.2591 44.7201 65.2205 44.7826ZM76.5685 45.1984C76.5685 45.2675 76.6567 45.324 76.7644 45.324C76.8721 45.324 76.9253 45.2675 76.8826 45.1984C76.8399 45.1293 76.7518 45.0727 76.6867 45.0727C76.6216 45.0727 76.5685 45.1293 76.5685 45.1984ZM103.972 45.3973C103.978 45.5437 104.007 45.5735 104.047 45.4733C104.084 45.3826 104.079 45.2741 104.038 45.2324C103.996 45.1907 103.966 45.2649 103.972 45.3973ZM64.8824 45.4467C64.8824 45.491 64.9654 45.637 65.0669 45.7712C65.2445 46.0061 65.2516 46.0031 65.2553 45.6906C65.2579 45.484 65.1907 45.3659 65.0709 45.3659C64.9672 45.3659 64.8824 45.4022 64.8824 45.4467ZM44.0942 45.6642C44.0261 45.8433 44.0405 45.8577 44.1646 45.7346C44.2506 45.6492 44.2891 45.5478 44.2504 45.5093C44.2117 45.4706 44.1415 45.5403 44.0942 45.6642ZM76.7826 45.9107C76.6926 46.0564 76.9023 46.4142 77.0129 46.3037C77.0576 46.259 77.0402 46.1261 76.9743 46.0085C76.9085 45.8907 76.8222 45.8468 76.7826 45.9107ZM120.302 46.0271C120.299 46.1027 120.407 46.2642 120.541 46.3857C120.676 46.5073 120.809 46.7281 120.838 46.8764C120.887 47.1242 120.892 47.1257 120.908 46.8947C120.917 46.7565 120.785 46.4738 120.615 46.2665C120.445 46.0591 120.304 45.9514 120.302 46.0271ZM88.0609 46.3377C88.0153 46.4113 88.0083 46.5018 88.0451 46.5388C88.1352 46.6287 88.3802 46.4702 88.3802 46.3219C88.3802 46.1613 88.1633 46.172 88.0609 46.3377ZM64.5486 47.524C64.3789 47.8901 64.5605 47.9525 64.7523 47.5942C64.9068 47.3056 64.9158 47.2085 64.7881 47.2099C64.7362 47.2104 64.6286 47.3518 64.5486 47.524ZM120.925 47.3151C120.925 47.47 121.417 47.8901 121.501 47.8065C121.54 47.7674 121.47 47.6169 121.346 47.4721C121.113 47.2 120.925 47.1298 120.925 47.3151ZM76.9554 48.4131C76.9614 48.5594 76.9912 48.5892 77.0313 48.4891C77.0676 48.3983 77.063 48.2899 77.0213 48.2482C76.9796 48.2065 76.95 48.2806 76.9554 48.4131ZM93.3683 48.3217C93.1573 48.4045 93.1619 48.4343 93.4351 48.7522C93.5966 48.9401 93.7975 49.0937 93.8817 49.0937C94.0522 49.0937 94.0843 48.9338 93.9421 48.7917C93.8911 48.7408 93.8488 48.609 93.8479 48.4989C93.846 48.261 93.6795 48.1996 93.3683 48.3217ZM62.4189 48.6881C62.1144 48.938 61.9552 49.3091 62.0716 49.4974C62.1157 49.5687 62.2431 49.4295 62.3547 49.188C62.4664 48.9466 62.6129 48.7459 62.6802 48.7423C62.8295 48.7341 62.9357 48.4643 62.7881 48.4682C62.7305 48.4697 62.5644 48.5687 62.4189 48.6881ZM64.0229 48.7379C64.0118 48.9223 63.9662 49.1768 63.9215 49.3033C63.8592 49.4799 63.8759 49.5006 63.9935 49.3924C64.0796 49.3133 64.124 49.0652 64.0949 48.827C64.0527 48.482 64.0392 48.4653 64.0229 48.7379ZM104.349 48.79C104.355 48.9364 104.384 48.9662 104.424 48.866C104.461 48.7753 104.456 48.6669 104.415 48.6252C104.373 48.5834 104.343 48.6576 104.349 48.79ZM97.2846 52.1172C97.2318 52.6708 97.3629 53.4774 97.5332 53.6477C97.6133 53.7278 97.6788 53.8716 97.6788 53.9671C97.6788 54.0627 97.7495 54.115 97.8359 54.0833C97.9223 54.0517 97.9764 53.9549 97.9563 53.8685C97.936 53.7819 97.9001 53.4402 97.8765 53.1091C97.8483 52.7147 97.7419 52.4088 97.5677 52.2218C97.3762 52.0163 97.2971 51.987 97.2846 52.1172ZM93.6033 52.6271C93.4614 53.043 93.4834 53.2369 93.69 53.3904C93.8734 53.5268 93.8897 53.6272 93.7868 53.9846C93.6494 54.4614 93.8003 54.7821 94.1068 54.6646C94.2054 54.6267 94.2861 54.6617 94.2861 54.7423C94.2861 54.8228 94.241 54.8609 94.1858 54.8268C93.9706 54.6938 93.7543 54.9615 93.8816 55.2036C93.9498 55.3332 94.0443 55.6734 94.0917 55.9594C94.1653 56.4041 94.2149 56.4697 94.4347 56.4122C94.6564 56.3543 94.6793 56.3864 94.6015 56.6462C94.5136 56.94 94.5161 56.9411 94.7089 56.696C94.9965 56.3299 94.9676 56.0049 94.6477 56.0049C94.4248 56.0049 94.4067 55.9738 94.5374 55.8164C94.6647 55.6629 94.6584 55.6279 94.5033 55.6279C94.3987 55.6279 94.2804 55.5431 94.2406 55.4394C94.1919 55.3124 94.2466 55.2509 94.4082 55.2509C94.7394 55.2509 94.8479 55.0257 94.639 54.7718C94.528 54.6367 94.4722 54.294 94.4855 53.8274C94.5018 53.253 94.4622 53.0786 94.3019 53.0194C94.1896 52.9778 93.9997 52.8334 93.8801 52.6986C93.7114 52.5086 93.6492 52.4925 93.6033 52.6271ZM81.0965 53.0052C81.0941 53.1868 81.1769 53.4056 81.2806 53.4917C81.5314 53.6998 81.5314 53.4278 81.2806 52.9891L81.101 52.675L81.0965 53.0052ZM92.9038 53.6649C92.9038 53.6909 92.9792 53.7748 93.0713 53.8514C93.1983 53.9565 93.239 53.9451 93.239 53.8039C93.239 53.7013 93.1636 53.6174 93.0713 53.6174C92.9792 53.6174 92.9038 53.6387 92.9038 53.6649ZM81.2756 54.0101C81.2289 54.157 81.2469 54.3124 81.3154 54.3556C81.384 54.3988 81.4682 54.5472 81.5027 54.6855C81.5611 54.9187 81.5666 54.9169 81.5802 54.6615C81.5882 54.51 81.5359 54.3498 81.4639 54.3053C81.392 54.2609 81.3675 54.1162 81.4096 53.9838C81.4516 53.8514 81.4578 53.743 81.4232 53.743C81.3887 53.743 81.3222 53.8632 81.2756 54.0101ZM72.0547 54.1933C72.0608 54.3397 72.0906 54.3694 72.1306 54.2693C72.167 54.1786 72.1624 54.0701 72.1207 54.0284C72.079 53.9867 72.0493 54.0608 72.0547 54.1933ZM93.1013 54.3713C93.2066 54.7599 93.2295 54.7864 93.4097 54.7263C93.5015 54.6956 93.456 54.5645 93.2853 54.3675L93.0162 54.0572L93.1013 54.3713ZM97.2494 54.3545C97.1953 54.4421 97.185 54.5476 97.2264 54.5891C97.3389 54.7015 97.4615 54.5362 97.4007 54.354C97.3582 54.2263 97.3286 54.2263 97.2494 54.3545ZM97.6968 54.4832C97.5903 54.5506 97.5741 54.6207 97.6535 54.6699C97.7915 54.7552 97.7154 55.2204 97.5232 55.4664C97.4576 55.5505 97.4414 55.841 97.4872 56.1122C97.556 56.5197 97.6126 56.5941 97.8131 56.5417C97.9956 56.4939 98.0558 56.5432 98.0558 56.7402C98.0558 56.9215 97.9977 56.98 97.8673 56.93C97.646 56.845 97.6173 57.0241 97.8198 57.2265C98.0535 57.4602 98.3014 57.2716 98.2431 56.9046C98.2138 56.7207 98.1547 56.0756 98.1116 55.4708C98.0323 54.3585 98.0031 54.2891 97.6968 54.4832ZM97.3018 55.1253C97.3018 55.1944 97.3584 55.2509 97.4275 55.2509C97.4966 55.2509 97.5531 55.1944 97.5531 55.1253C97.5531 55.0561 97.4966 54.9996 97.4275 54.9996C97.3584 54.9996 97.3018 55.0561 97.3018 55.1253ZM81.5947 55.4394C81.5947 55.5431 81.6513 55.6279 81.7204 55.6279C81.7895 55.6279 81.8461 55.5431 81.8461 55.4394C81.8461 55.3357 81.7895 55.2509 81.7204 55.2509C81.6513 55.2509 81.5947 55.3357 81.5947 55.4394ZM97.6424 55.7535C97.6063 55.8918 97.6279 56.0049 97.6906 56.0049C97.7532 56.0049 97.8045 55.8918 97.8045 55.7535C97.8045 55.6153 97.7827 55.5022 97.7563 55.5022C97.7298 55.5022 97.6785 55.6153 97.6424 55.7535ZM81.6857 55.9659C81.6533 56.0219 81.7327 56.1765 81.8621 56.3096C82.1333 56.5883 82.1731 56.4296 81.9169 56.0916C81.822 55.9665 81.718 55.91 81.6857 55.9659ZM74.558 56.8845C74.558 57.0241 74.6418 57.1358 74.7464 57.1358C74.8511 57.1358 74.9349 57.0241 74.9349 56.8845C74.9349 56.7449 74.8511 56.6331 74.7464 56.6331C74.6418 56.6331 74.558 56.7449 74.558 56.8845ZM76.2014 56.9577C76.2075 57.1041 76.2372 57.1339 76.2773 57.0337C76.3136 56.943 76.3091 56.8346 76.2674 56.7929C76.2257 56.7511 76.196 56.8253 76.2014 56.9577ZM74.181 57.0175C74.181 57.0907 74.2375 57.1157 74.3066 57.0729C74.3758 57.0302 74.4323 56.9704 74.4323 56.9399C74.4323 56.9093 74.3758 56.8845 74.3066 56.8845C74.2375 56.8845 74.181 56.9444 74.181 57.0175ZM94.6241 57.0649C94.4991 57.1598 94.449 57.2697 94.5131 57.3092C94.5771 57.3488 94.7306 57.2693 94.8542 57.1327C95.1104 56.8496 94.9646 56.8067 94.6241 57.0649ZM94.8173 57.8142C94.6842 58.1065 94.7362 58.6437 94.8976 58.6437C94.9414 58.6437 94.987 58.3892 94.999 58.0782C95.011 57.7672 95.006 57.5127 94.9877 57.5127C94.9695 57.5127 94.8929 57.6485 94.8173 57.8142ZM67.3955 58.0154C67.3955 58.25 67.4291 58.2834 67.5463 58.1661C67.6635 58.0489 67.6635 57.9818 67.5463 57.8646C67.4291 57.7473 67.3955 57.7808 67.3955 58.0154ZM72.0448 58.0154C72.0448 58.1536 72.1014 58.2667 72.1705 58.2667C72.2396 58.2667 72.2961 58.1536 72.2961 58.0154C72.2961 57.8771 72.2396 57.7641 72.1705 57.7641C72.1014 57.7641 72.0448 57.8771 72.0448 58.0154ZM98.0729 58.0949C98.06 58.3912 98.118 58.5049 98.307 58.5543C98.4451 58.5905 98.5858 58.5753 98.6197 58.5205C98.6535 58.4657 98.5736 58.3927 98.4419 58.3583C98.3104 58.324 98.1774 58.162 98.1464 57.9985C98.1006 57.7573 98.0868 57.7755 98.0729 58.0949ZM76.2203 58.039C76.2477 58.121 76.3373 58.2105 76.4193 58.2379C76.5112 58.2686 76.5392 58.211 76.4923 58.0887C76.4046 57.8603 76.1449 57.8128 76.2203 58.039ZM77.4481 58.1262C77.4481 58.1953 77.5046 58.2868 77.5737 58.3295C77.6428 58.3722 77.6994 58.3506 77.6994 58.2815C77.6994 58.2124 77.6428 58.1209 77.5737 58.0782C77.5046 58.0355 77.4481 58.0571 77.4481 58.1262ZM77.9606 58.5913C77.9666 58.7376 77.9964 58.7674 78.0365 58.6673C78.0728 58.5765 78.0683 58.4681 78.0266 58.4264C77.9849 58.3847 77.9552 58.4588 77.9606 58.5913ZM67.4054 58.7169C67.4115 58.8633 67.4413 58.8931 67.4813 58.7929C67.5177 58.7022 67.5131 58.5938 67.4714 58.552C67.4297 58.5103 67.4 58.5845 67.4054 58.7169ZM94.5218 59.1896C94.7127 59.5827 94.7285 59.5906 94.7658 59.3132C94.7878 59.1499 94.8584 59.0489 94.9229 59.0887C94.9874 59.1286 95.04 59.0951 95.04 59.0146C95.04 58.934 94.9569 58.9 94.8555 58.9388C94.7541 58.9778 94.6377 58.9555 94.5968 58.8894C94.4028 58.5756 94.342 58.8189 94.5218 59.1896ZM67.4054 59.3452C67.4115 59.4916 67.4413 59.5214 67.4813 59.4212C67.5177 59.3305 67.5131 59.222 67.4714 59.1803C67.4297 59.1386 67.4 59.2128 67.4054 59.3452ZM69.5562 59.963C69.5587 60.1704 69.5868 60.24 69.6188 60.1177C69.6507 59.9955 69.6485 59.8258 69.6141 59.7408C69.5797 59.6557 69.5537 59.7557 69.5562 59.963ZM94.7471 60.1829C94.829 60.6134 94.8834 60.7299 94.9622 60.6437C95.0511 60.5467 94.887 59.7746 94.7776 59.7746C94.7181 59.7746 94.7042 59.9584 94.7471 60.1829ZM95.1776 62.1306C95.2701 62.2516 95.3618 62.3741 95.3814 62.4029C95.401 62.4317 95.417 62.3327 95.417 62.183C95.417 62.0156 95.3385 61.9107 95.2132 61.9107C95.0386 61.9107 95.0335 61.9424 95.1776 62.1306ZM44.5354 63.45C44.5796 63.7909 44.5202 63.9328 44.3689 63.8473C44.2443 63.777 44.2438 63.7932 44.3668 63.9259C44.4521 64.0177 44.5476 64.0673 44.5791 64.0357C44.7042 63.9107 44.7529 63.293 44.6378 63.293C44.5702 63.293 44.5241 63.3637 44.5354 63.45ZM61.2483 63.6175C61.2543 63.7639 61.2841 63.7937 61.3242 63.6935C61.3605 63.6028 61.356 63.4944 61.3142 63.4527C61.2725 63.4109 61.2429 63.4851 61.2483 63.6175ZM49.7925 63.827C49.7865 63.8443 49.7562 64.1271 49.7254 64.4553C49.6798 64.9411 49.7066 65.0521 49.8695 65.0521C49.9894 65.0521 50.0335 64.9937 49.9796 64.9064C49.9301 64.8263 49.8981 64.5436 49.9085 64.2781C49.9189 64.0127 49.8996 63.7956 49.8655 63.7956C49.8315 63.7956 49.7985 63.8097 49.7925 63.827ZM86.1812 64.0469C86.2239 64.116 86.2837 64.1725 86.3143 64.1725C86.3448 64.1725 86.3697 64.116 86.3697 64.0469C86.3697 63.9778 86.3098 63.9212 86.2366 63.9212C86.1635 63.9212 86.1385 63.9778 86.1812 64.0469ZM94.5374 64.0809C94.5374 64.1856 94.6222 64.3039 94.7259 64.3437C94.8295 64.3834 94.9144 64.3681 94.9144 64.3096C94.9144 64.2512 94.8295 64.133 94.7259 64.0469C94.5724 63.9196 94.5374 63.9259 94.5374 64.0809ZM86.3069 65.5548C86.3496 65.6239 86.4094 65.6804 86.4399 65.6804C86.4705 65.6804 86.4953 65.6239 86.4953 65.5548C86.4953 65.4857 86.4354 65.4291 86.3623 65.4291C86.2892 65.4291 86.2641 65.4857 86.3069 65.5548ZM49.6569 65.8589C49.447 66.1406 49.384 66.3485 49.4118 66.6696C49.424 66.8108 49.4618 66.813 49.6209 66.6809C49.7277 66.5923 49.7832 66.4369 49.7443 66.3355C49.7054 66.2341 49.7365 66.0755 49.8133 65.9829C49.8902 65.8903 49.9335 65.7614 49.9097 65.6963C49.8859 65.6313 49.7722 65.7044 49.6569 65.8589ZM90.1394 65.9453C90.1394 66.068 90.1995 66.2053 90.2728 66.2507C90.3462 66.296 90.4681 66.4831 90.5439 66.6665C90.6631 66.9551 90.6891 66.9677 90.7375 66.7607C90.7694 66.6246 90.7065 66.4729 90.5914 66.4085C90.4577 66.3337 90.4136 66.1984 90.4612 66.0089C90.5131 65.8019 90.4784 65.7223 90.3363 65.7223C90.228 65.7223 90.1394 65.8227 90.1394 65.9453ZM94.9595 66.036C95.0024 66.2661 95.118 66.6337 95.2161 66.8528C95.3142 67.0718 95.4234 67.336 95.4586 67.4396C95.5018 67.5663 95.5261 67.5423 95.5327 67.3664C95.5381 67.2224 95.5046 67.0664 95.458 67.0198C95.4113 66.9733 95.3599 66.8083 95.3436 66.6534C95.2906 66.1519 95.2167 65.9323 95.0473 65.7734C94.9108 65.6455 94.8951 65.6925 94.9595 66.036ZM95.7939 66.0426C95.7939 66.1117 95.8505 66.2032 95.9196 66.2459C95.9887 66.2886 96.0453 66.267 96.0453 66.1979C96.0453 66.1288 95.9887 66.0373 95.9196 65.9946C95.8505 65.9519 95.7939 65.9735 95.7939 66.0426ZM46.5993 66.1831C46.5566 66.2522 46.5816 66.3087 46.6547 66.3087C46.7279 66.3087 46.7878 66.2522 46.7878 66.1831C46.7878 66.114 46.7629 66.0574 46.7324 66.0574C46.7019 66.0574 46.642 66.114 46.5993 66.1831ZM48.7983 66.9296C48.7983 66.9947 48.8549 67.0828 48.924 67.1255C48.9931 67.1682 49.0496 67.1149 49.0496 67.0072C49.0496 66.8996 48.9931 66.8113 48.924 66.8113C48.8549 66.8113 48.7983 66.8645 48.7983 66.9296ZM90.3416 67.0405C90.2972 67.1123 90.3222 67.2088 90.397 67.255C90.5837 67.3704 90.6498 67.2787 90.5253 67.077C90.4584 66.969 90.3937 66.9561 90.3416 67.0405ZM46.5001 67.314C46.5362 67.4522 46.5875 67.5653 46.614 67.5653C46.6404 67.5653 46.6622 67.4522 46.6622 67.314C46.6622 67.1758 46.6109 67.0627 46.5483 67.0627C46.4856 67.0627 46.464 67.1758 46.5001 67.314ZM90.9033 67.6385C90.9093 67.7849 90.9391 67.8147 90.9792 67.7146C91.0155 67.6238 91.011 67.5154 90.9692 67.4737C90.9275 67.432 90.8979 67.5061 90.9033 67.6385ZM95.4993 67.874C95.4585 67.9803 95.5296 68.2513 95.6572 68.4761C95.7849 68.7007 95.8962 69.1375 95.9047 69.4464C95.9231 70.1234 96.2453 71.0533 96.5808 71.3978L96.8255 71.6491L96.7561 71.3978C96.718 71.2596 96.5961 70.779 96.4852 70.3297C96.3744 69.8805 96.2017 69.3348 96.1017 69.117C96.0015 68.8993 95.9196 68.6371 95.9196 68.5345C95.9196 68.4319 95.8417 68.1978 95.7466 68.0144C95.6123 67.7557 95.5568 67.7241 95.4993 67.874ZM81.5947 68.0605C81.5947 68.364 81.6646 68.3945 81.7642 68.1348C81.8032 68.0334 81.781 67.9169 81.7149 67.876C81.6488 67.8352 81.5947 67.9183 81.5947 68.0605ZM94.2861 67.9497C94.2861 68.0228 94.3426 68.0478 94.4117 68.0051C94.4808 67.9624 94.5374 67.9025 94.5374 67.872C94.5374 67.8415 94.4808 67.8166 94.4117 67.8166C94.3426 67.8166 94.2861 67.8765 94.2861 67.9497ZM49.1753 68.2564C49.1753 68.4292 49.197 68.5705 49.2234 68.5705C49.2499 68.5705 49.2987 68.4292 49.3317 68.2564C49.3648 68.0836 49.343 67.9423 49.2835 67.9423C49.224 67.9423 49.1753 68.0836 49.1753 68.2564ZM60.0446 68.1936C60.0019 68.2627 60.0269 68.3192 60.1 68.3192C60.1731 68.3192 60.2331 68.2627 60.2331 68.1936C60.2331 68.1245 60.2082 68.0679 60.1777 68.0679C60.1471 68.0679 60.0873 68.1245 60.0446 68.1936ZM86.5437 68.6931C86.5406 69.2322 86.5952 69.282 86.684 68.821C86.7144 68.6635 86.6958 68.4573 86.6429 68.3628C86.5854 68.2603 86.5455 68.3935 86.5437 68.6931ZM90.669 68.6119C90.685 68.8051 90.7703 69.0233 90.8585 69.0964C90.9467 69.1697 91.019 69.4442 91.019 69.7066C91.019 70.2281 91.1186 70.581 91.2657 70.581C91.3176 70.581 91.3539 70.4115 91.3465 70.2043C91.3392 69.9972 91.298 69.8276 91.255 69.8274C91.212 69.8272 91.1395 69.5938 91.0939 69.3085C91.0483 69.0234 90.9275 68.6708 90.8255 68.5252C90.6438 68.266 90.6405 68.2677 90.669 68.6119ZM46.348 68.5705C46.3053 68.6396 46.3303 68.6962 46.4034 68.6962C46.4766 68.6962 46.5365 68.6396 46.5365 68.5705C46.5365 68.5014 46.5116 68.4449 46.4811 68.4449C46.4506 68.4449 46.3907 68.5014 46.348 68.5705ZM94.6173 68.6326C94.657 68.7359 94.7409 68.7886 94.8039 68.7496C94.9357 68.6682 94.8299 68.4449 94.6595 68.4449C94.5967 68.4449 94.5777 68.5293 94.6173 68.6326ZM96.6428 68.7591C96.6734 68.9194 96.8017 69.0774 96.9279 69.1104C97.0856 69.1516 97.1365 69.116 97.0907 68.9969C97.0542 68.9014 96.9742 68.8541 96.9132 68.892C96.8521 68.9297 96.833 68.8802 96.8707 68.7818C96.9084 68.6834 96.86 68.5725 96.7633 68.5354C96.6352 68.4862 96.6023 68.5474 96.6428 68.7591ZM48.6152 68.8132C48.5294 68.952 48.7276 69.1021 48.8437 68.986C48.9631 68.8665 48.9408 68.6962 48.8057 68.6962C48.7406 68.6962 48.6549 68.7488 48.6152 68.8132ZM106.597 69.0669C106.668 69.1986 106.692 69.3931 106.651 69.4991C106.61 69.6053 106.669 70.0573 106.781 70.5035C106.893 70.9497 106.974 71.3619 106.961 71.4192C106.948 71.4766 106.973 71.6083 107.017 71.712C107.224 72.2037 107.32 72.9594 107.183 73.0158C107.086 73.0555 107.091 73.0776 107.197 73.0843C107.284 73.0897 107.354 73.2186 107.354 73.3706C107.354 73.5597 107.395 73.6064 107.483 73.518C107.569 73.4325 107.573 73.1813 107.495 72.7704C107.43 72.4302 107.31 71.7277 107.228 71.2093C106.938 69.3752 106.837 68.9689 106.654 68.8984C106.507 68.842 106.495 68.8761 106.597 69.0669ZM46.2224 69.3245C46.1796 69.3936 46.2046 69.4501 46.2778 69.4501C46.3509 69.4501 46.4108 69.3936 46.4108 69.3245C46.4108 69.2554 46.386 69.1988 46.3554 69.1988C46.3249 69.1988 46.2651 69.2554 46.2224 69.3245ZM93.1839 69.5994C93.2113 69.6815 93.3009 69.7709 93.383 69.7983C93.4748 69.829 93.5029 69.7714 93.456 69.6492C93.3683 69.4207 93.1085 69.3732 93.1839 69.5994ZM48.5616 69.8585C48.5726 70.0736 48.59 70.0884 48.634 69.9198C48.6658 69.7981 48.7439 69.7307 48.8079 69.7702C48.8717 69.8096 48.924 69.782 48.924 69.7089C48.924 69.6357 48.8392 69.5758 48.7355 69.5758C48.6195 69.5758 48.5527 69.6845 48.5616 69.8585ZM94.7421 69.7614C94.7825 69.8667 94.9085 69.9573 95.022 69.9627C95.1525 69.969 95.1706 69.996 95.0714 70.0359C94.9851 70.0709 94.9144 70.1494 94.9144 70.2106C94.9144 70.2718 94.9998 70.289 95.1042 70.2489C95.2463 70.1944 95.2734 70.235 95.2114 70.41C95.1472 70.5915 95.1635 70.6117 95.2844 70.5003C95.4778 70.3222 95.2811 69.8977 94.9144 69.7015C94.7147 69.5946 94.6824 69.6058 94.7421 69.7614ZM86.621 70.3716C86.621 70.625 86.6762 70.8324 86.7435 70.8324C86.8139 70.8324 86.833 70.6586 86.7883 70.424C86.6793 69.8514 86.621 69.8331 86.621 70.3716ZM59.4791 70.3371C59.4791 70.4103 59.5357 70.4353 59.6048 70.3926C59.6739 70.3498 59.7305 70.29 59.7305 70.2595C59.7305 70.229 59.6739 70.2041 59.6048 70.2041C59.5357 70.2041 59.4791 70.264 59.4791 70.3371ZM97.1998 70.589C97.23 70.6796 97.329 70.7786 97.4197 70.8089C97.5139 70.8403 97.5611 70.7932 97.5296 70.6989C97.4994 70.6082 97.4003 70.5092 97.3097 70.479C97.2155 70.4476 97.1684 70.4947 97.1998 70.589ZM59.4267 70.9412C59.3726 71.0288 59.3623 71.1343 59.4038 71.1758C59.5162 71.2882 59.6389 71.1229 59.578 70.9407C59.5356 70.813 59.5059 70.813 59.4267 70.9412ZM94.9713 70.9676C94.8642 71.1407 94.9723 71.2425 95.2063 71.189C95.3617 71.1535 95.3645 71.121 95.2227 70.9907C95.1072 70.8845 95.0272 70.8771 94.9713 70.9676ZM91.2811 71.3283C91.147 71.4111 91.1654 71.4629 91.3676 71.5711C91.5734 71.6813 91.6193 71.6721 91.5976 71.5255C91.5589 71.2612 91.4746 71.2087 91.2811 71.3283ZM86.8723 71.5789C86.8723 71.644 86.9282 71.7317 86.9966 71.7739C87.0677 71.8179 87.0888 71.7675 87.046 71.6557C86.9624 71.438 86.8723 71.3982 86.8723 71.5789ZM57.4526 72.0575C57.2964 72.2568 57.3008 72.2612 57.5 72.105C57.7094 71.9408 57.7759 71.8376 57.6725 71.8376C57.6464 71.8376 57.5474 71.9365 57.4526 72.0575ZM86.8968 72.2774C86.8993 72.4847 86.9275 72.5544 86.9594 72.4321C86.9913 72.3098 86.9892 72.1402 86.9548 72.0551C86.9203 71.9701 86.8943 72.0701 86.8968 72.2774ZM44.9958 72.3263C44.9616 72.4569 44.9825 72.6407 45.0421 72.7347C45.1157 72.8509 45.151 72.775 45.1524 72.4973C45.1545 72.0402 45.0893 71.9689 44.9958 72.3263ZM96.8232 72.2146C96.8584 72.3183 96.9882 72.7283 97.1117 73.1256C97.2352 73.5229 97.3796 73.8481 97.4325 73.8481C97.5398 73.8481 97.0094 72.2518 96.8563 72.1137C96.8028 72.0656 96.788 72.1109 96.8232 72.2146ZM58.8608 72.4135C58.8668 72.5599 58.8966 72.5897 58.9367 72.4895C58.973 72.3988 58.9685 72.2904 58.9268 72.2486C58.885 72.2069 58.8554 72.2811 58.8608 72.4135ZM57.4248 72.8547C57.1918 73.1269 57.2338 73.5285 57.4864 73.4443C57.6045 73.4049 57.793 72.5916 57.684 72.5916C57.6654 72.5916 57.5488 72.7099 57.4248 72.8547ZM97.9301 72.8503C97.9301 72.9234 97.9867 72.9484 98.0558 72.9057C98.1249 72.863 98.1814 72.8032 98.1814 72.7726C98.1814 72.7421 98.1249 72.7172 98.0558 72.7172C97.9867 72.7172 97.9301 72.7771 97.9301 72.8503ZM110.129 72.9161C110.135 73.0625 110.165 73.0923 110.205 72.9921C110.241 72.9014 110.236 72.793 110.195 72.7513C110.153 72.7095 110.123 72.7837 110.129 72.9161ZM87.0079 73.4188C87.0139 73.5651 87.0437 73.5949 87.0838 73.4948C87.1201 73.4041 87.1156 73.2956 87.0739 73.2539C87.0322 73.2122 87.0025 73.2863 87.0079 73.4188ZM92.4012 73.3381C92.4012 73.4032 92.4578 73.4913 92.5269 73.534C92.596 73.5767 92.6525 73.5234 92.6525 73.4157C92.6525 73.308 92.596 73.2198 92.5269 73.2198C92.4578 73.2198 92.4012 73.273 92.4012 73.3381ZM58.5082 74.2271C58.3714 74.9196 58.494 75.1802 58.6988 74.6319C58.9492 73.9613 58.9598 73.865 58.7975 73.7303C58.668 73.6229 58.607 73.7279 58.5082 74.2271ZM57.3195 73.9339C57.4101 73.9703 57.5185 73.9657 57.5602 73.924C57.602 73.8823 57.5278 73.8526 57.3954 73.858C57.249 73.8641 57.2192 73.8939 57.3195 73.9339ZM107.455 74.0574C107.382 74.3383 107.46 74.6021 107.616 74.6021C107.76 74.6021 107.763 74.2187 107.621 73.9945C107.538 73.8641 107.502 73.878 107.455 74.0574ZM92.6544 74.1863C92.6574 74.5372 92.8572 74.7725 93.0796 74.6871C93.367 74.5768 93.3283 74.3508 93.0221 74.3508C92.8798 74.3508 92.7959 74.2981 92.8356 74.2338C92.8755 74.1694 92.8504 74.0813 92.7802 74.0379C92.71 73.9945 92.6534 74.0612 92.6544 74.1863ZM92.1135 74.3508C92.1496 74.489 92.2009 74.6021 92.2274 74.6021C92.2538 74.6021 92.2756 74.489 92.2756 74.3508C92.2756 74.2125 92.2243 74.0994 92.1617 74.0994C92.099 74.0994 92.0774 74.2125 92.1135 74.3508ZM87.0781 74.5392C87.118 74.6429 87.1728 74.7277 87.1999 74.7277C87.2271 74.7277 87.2493 74.6429 87.2493 74.5392C87.2493 74.4356 87.1945 74.3508 87.1275 74.3508C87.0607 74.3508 87.0384 74.4356 87.0781 74.5392ZM97.6887 74.6753C97.6948 74.8217 97.7245 74.8515 97.7646 74.7513C97.8009 74.6606 97.7964 74.5522 97.7547 74.5105C97.713 74.4687 97.6833 74.5429 97.6887 74.6753ZM110.119 74.6021C110.119 74.6712 110.179 74.7277 110.252 74.7277C110.325 74.7277 110.35 74.6712 110.307 74.6021C110.265 74.533 110.205 74.4764 110.174 74.4764C110.144 74.4764 110.119 74.533 110.119 74.6021ZM57.0917 74.8534C57.0917 74.9225 57.1482 74.979 57.2173 74.979C57.2864 74.979 57.343 74.9225 57.343 74.8534C57.343 74.7843 57.2864 74.7277 57.2173 74.7277C57.1482 74.7277 57.0917 74.7843 57.0917 74.8534ZM111.501 74.8608C111.501 74.9339 111.558 74.9589 111.627 74.9162C111.696 74.8735 111.752 74.8137 111.752 74.7831C111.752 74.7526 111.696 74.7277 111.627 74.7277C111.558 74.7277 111.501 74.7877 111.501 74.8608ZM44.7773 74.9864C44.7773 75.0596 44.8338 75.0846 44.903 75.0419C44.9721 74.9991 45.0286 74.9393 45.0286 74.9088C45.0286 74.8783 44.9721 74.8534 44.903 74.8534C44.8338 74.8534 44.7773 74.9133 44.7773 74.9864ZM60.4844 74.979C60.4844 75.0481 60.5409 75.1047 60.6101 75.1047C60.6792 75.1047 60.7357 75.0481 60.7357 74.979C60.7357 74.9099 60.6792 74.8534 60.6101 74.8534C60.5409 74.8534 60.4844 74.9099 60.4844 74.979ZM46.1595 75.2303C46.1595 75.3686 46.2108 75.4817 46.2734 75.4817C46.3361 75.4817 46.3577 75.3686 46.3216 75.2303C46.2854 75.0921 46.2342 74.979 46.2077 74.979C46.1813 74.979 46.1595 75.0921 46.1595 75.2303ZM97.8445 75.3364C97.8881 75.5545 98.0383 75.9843 98.1783 76.2915C98.3183 76.5987 98.4327 76.9629 98.4327 77.1009C98.4327 77.2388 98.4819 77.3821 98.5419 77.4192C98.6019 77.4562 98.6864 77.7079 98.7297 77.9783C98.7729 78.2487 98.8934 78.5027 98.9974 78.5425C99.1015 78.5825 99.1867 78.5984 99.1867 78.578C99.1867 78.5576 98.9322 77.8489 98.6212 77.0032C98.3102 76.1576 98.0558 75.3878 98.0558 75.2927C98.0558 75.1974 97.9904 75.0792 97.9105 75.0298C97.8066 74.9656 97.7879 75.053 97.8445 75.3364ZM107.684 75.3192C107.768 75.7841 107.857 75.8497 107.857 75.4472C107.857 75.2669 107.804 75.0867 107.739 75.0468C107.672 75.0049 107.648 75.1213 107.684 75.3192ZM96.7364 75.2303C96.7791 75.2995 96.8389 75.356 96.8694 75.356C96.9 75.356 96.9249 75.2995 96.9249 75.2303C96.9249 75.1612 96.8649 75.1047 96.7918 75.1047C96.7187 75.1047 96.6937 75.1612 96.7364 75.2303ZM111.752 75.2303C111.913 75.3344 111.909 75.3525 111.721 75.3541C111.6 75.3551 111.501 75.4126 111.501 75.4817C111.501 75.6412 111.582 75.6399 111.89 75.4754C112.168 75.3266 112.099 75.1037 111.776 75.1066C111.593 75.1083 111.59 75.1254 111.752 75.2303ZM57.0917 75.531C57.0917 75.5582 57.1765 75.613 57.2802 75.6528C57.3838 75.6925 57.4686 75.6703 57.4686 75.6034C57.4686 75.5364 57.3838 75.4817 57.2802 75.4817C57.1765 75.4817 57.0917 75.5039 57.0917 75.531ZM58.3117 75.8591C58.2678 76.0271 58.1792 76.0854 58.0458 76.0342C57.9176 75.985 57.8456 76.025 57.8456 76.1454C57.8456 76.2488 57.9164 76.3255 58.0027 76.3159C58.0891 76.3064 58.1702 76.355 58.1829 76.4241C58.1957 76.4932 58.1295 76.5342 58.0357 76.5151C57.8182 76.4708 57.731 76.8615 57.8964 77.1396C57.9897 77.2966 57.9667 77.4145 57.8087 77.5893C57.6908 77.7195 57.5943 77.9507 57.5943 78.1029C57.5943 78.2552 57.5132 78.4107 57.4142 78.4488C57.2661 78.5056 57.2416 78.866 57.2759 80.4867C57.2989 81.5696 57.3265 82.5593 57.3373 82.6861C57.3481 82.8129 57.2266 83.0331 57.0673 83.1755L56.7775 83.4345L57.0576 83.3659C57.3112 83.3038 57.3454 83.3554 57.4194 83.9131C57.5298 84.7463 57.6678 84.6908 57.6843 83.8064C57.7049 82.7069 57.854 80.5833 57.915 80.5223C57.9447 80.4926 57.9025 80.3881 57.8212 80.29C57.7161 80.1634 57.7128 80.0874 57.8099 80.0272C57.8851 79.9805 57.9867 79.6746 58.0358 79.3471C58.1087 78.8608 58.0879 78.7374 57.9225 78.674C57.7941 78.6246 57.7216 78.4516 57.7243 78.2012L57.7289 77.8063L57.916 78.1205C58.0931 78.4179 58.1012 78.3912 58.0693 77.6178C58.0395 76.9002 58.0621 76.8056 58.2546 76.838C58.4391 76.869 58.4739 76.7743 58.4739 76.2411C58.4739 75.5705 58.4202 75.4441 58.3117 75.8591ZM87.2512 75.757C87.2502 75.8738 87.3058 76.0044 87.3749 76.0471C87.534 76.1454 87.534 75.979 87.3749 75.733C87.27 75.5705 87.2529 75.5739 87.2512 75.757ZM44.9606 75.9927C44.915 76.0663 44.9047 76.1537 44.9376 76.1866C44.9706 76.2195 45.031 76.1592 45.072 76.0525C45.1569 75.8311 45.0845 75.7922 44.9606 75.9927ZM60.4844 75.9843C60.4844 76.0534 60.5409 76.1099 60.6101 76.1099C60.6792 76.1099 60.7357 76.0534 60.7357 75.9843C60.7357 75.9152 60.6792 75.8586 60.6101 75.8586C60.5409 75.8586 60.4844 75.9152 60.4844 75.9843ZM96.6735 76.0876C96.6735 76.1789 97.2775 76.8639 97.358 76.8639C97.3833 76.8639 97.3468 76.6775 97.277 76.4498C97.1955 76.1848 97.0641 76.0293 96.9117 76.0178C96.7807 76.008 96.6735 76.0393 96.6735 76.0876ZM111.752 76.2107C111.752 76.4039 111.808 76.4576 111.951 76.4026C112.061 76.3606 112.103 76.2911 112.046 76.248C111.988 76.2051 111.898 76.1186 111.847 76.0562C111.795 75.9936 111.752 76.0632 111.752 76.2107ZM80.9665 76.644C80.9665 76.7419 81.0529 76.822 81.1585 76.822C81.3757 76.822 81.3435 76.5917 81.1157 76.5157C81.0336 76.4883 80.9665 76.5461 80.9665 76.644ZM51.4371 76.7801C51.4371 76.8966 51.5347 76.9887 51.657 76.9877C51.7825 76.9865 51.823 76.9454 51.7513 76.8919C51.6821 76.8404 51.5832 76.7469 51.5314 76.6844C51.4795 76.6219 51.4371 76.665 51.4371 76.7801ZM60.3644 76.7652C60.3675 76.8541 60.4432 77.0964 60.5325 77.3037L60.695 77.6807L60.7573 77.2656C60.8048 76.9497 60.7647 76.821 60.5893 76.7271C60.4209 76.637 60.3602 76.6472 60.3644 76.7652ZM92.5977 77.152C92.645 77.2759 92.7152 77.3457 92.7539 77.307C92.7926 77.2684 92.7541 77.167 92.6681 77.0817C92.544 76.9585 92.5296 76.973 92.5977 77.152ZM60.4297 77.8559C60.3914 77.9179 60.4447 78.0008 60.548 78.0405C60.6619 78.0843 60.7357 78.0402 60.7357 77.9281C60.7357 77.7248 60.5393 77.6785 60.4297 77.8559ZM91.3725 77.955C91.4631 77.9913 91.5715 77.9868 91.6132 77.945C91.6549 77.9033 91.5808 77.8737 91.4484 77.8791C91.302 77.8851 91.2722 77.9149 91.3725 77.955ZM46.491 78.1833C46.4513 78.2869 46.4735 78.3718 46.5404 78.3718C46.6074 78.3718 46.6622 78.2869 46.6622 78.1833C46.6622 78.0796 46.6399 77.9948 46.6128 77.9948C46.5856 77.9948 46.5308 78.0796 46.491 78.1833ZM51.5922 78.2947C51.4982 78.5008 51.4898 78.6231 51.5694 78.6231C51.7222 78.6231 51.8566 78.3107 51.7898 78.1104C51.7633 78.0311 51.6745 78.114 51.5922 78.2947ZM97.7553 78.224C97.711 78.2957 97.736 78.3923 97.8107 78.4385C97.9975 78.5538 98.0636 78.4621 97.939 78.2604C97.8722 78.1525 97.8075 78.1395 97.7553 78.224ZM101.519 78.2829C101.567 78.4068 101.637 78.4766 101.676 78.4379C101.714 78.3993 101.676 78.2979 101.59 78.2126C101.466 78.0894 101.451 78.1039 101.519 78.2829ZM60.3555 78.6277C60.2302 78.7069 60.2211 78.7455 60.3273 78.7468C60.4138 78.7479 60.4703 78.8123 60.453 78.8901C60.4356 78.9679 60.4923 79.0574 60.5786 79.089C60.7518 79.1526 60.7862 78.8971 60.6362 78.6612C60.5731 78.5619 60.4775 78.5506 60.3555 78.6277ZM101.449 78.7487C101.449 78.8178 101.565 78.8744 101.707 78.8744C101.849 78.8744 101.931 78.8178 101.888 78.7487C101.846 78.6796 101.729 78.6231 101.63 78.6231C101.53 78.6231 101.449 78.6796 101.449 78.7487ZM84.9875 79.0001C84.9875 79.1575 85.1208 79.1575 85.3644 79.0001C85.5169 78.9015 85.4988 78.8779 85.2702 78.8763C85.1148 78.8753 84.9875 78.9309 84.9875 79.0001ZM79.9023 79.2882C79.8485 79.4121 79.8398 79.5488 79.8828 79.5919C80.0105 79.7194 80.1134 79.5403 80.0546 79.2926C80.0025 79.0731 79.9958 79.0729 79.9023 79.2882ZM51.6884 79.3844C51.6884 79.4576 51.745 79.4826 51.8141 79.4398C51.8832 79.3971 51.9397 79.3373 51.9397 79.3068C51.9397 79.2763 51.8832 79.2514 51.8141 79.2514C51.745 79.2514 51.6884 79.3113 51.6884 79.3844ZM102.079 79.5685C102.167 79.6738 102.264 79.7341 102.296 79.7026C102.383 79.6154 102.206 79.377 102.054 79.377C101.971 79.377 101.98 79.4492 102.079 79.5685ZM49.2023 80.0995C49.3076 80.2206 49.425 80.4043 49.4632 80.5079C49.5035 80.6179 49.5366 80.558 49.5423 80.3643C49.5481 80.1703 49.4696 80.0004 49.3535 79.9559C49.0332 79.833 48.9986 79.8658 49.2023 80.0995ZM79.8984 80.0053C79.9411 80.0744 80.0326 80.131 80.1017 80.131C80.1708 80.131 80.1924 80.0744 80.1497 80.0053C80.107 79.9362 80.0155 79.8796 79.9464 79.8796C79.8773 79.8796 79.8556 79.9362 79.8984 80.0053ZM122.852 80.0626C122.852 80.1633 122.9 80.2159 122.959 80.1796C123.017 80.1433 123.033 80.061 122.993 79.9966C122.892 79.8323 122.852 79.8508 122.852 80.0626ZM102.332 80.0681C102.332 80.1372 102.387 80.2786 102.454 80.3823C102.521 80.4859 102.576 80.5142 102.576 80.4451C102.576 80.376 102.521 80.2346 102.454 80.131C102.387 80.0273 102.332 79.999 102.332 80.0681ZM51.5393 80.3424C51.6299 80.3788 51.7383 80.3742 51.78 80.3325C51.8217 80.2908 51.7476 80.2611 51.6152 80.2665C51.4688 80.2726 51.439 80.3024 51.5393 80.3424ZM98.4327 80.306C98.4327 80.4252 98.8088 80.4853 98.8759 80.3768C98.9168 80.3107 98.8337 80.2566 98.6915 80.2566C98.5492 80.2566 98.4327 80.2789 98.4327 80.306ZM80.0149 80.9416C80.0199 81.1732 80.0664 81.3365 80.1183 81.3049C80.2456 81.2268 80.2384 80.6645 80.1091 80.5845C80.0522 80.5494 80.0098 80.71 80.0149 80.9416ZM112.192 80.6336C112.235 80.7027 112.295 80.7592 112.325 80.7592C112.356 80.7592 112.381 80.7027 112.381 80.6336C112.381 80.5645 112.321 80.5079 112.248 80.5079C112.174 80.5079 112.149 80.5645 112.192 80.6336ZM99.815 80.7592C99.815 80.8284 99.8715 80.8849 99.9406 80.8849C100.01 80.8849 100.066 80.8284 100.066 80.7592C100.066 80.6901 100.01 80.6336 99.9406 80.6336C99.8715 80.6336 99.815 80.6901 99.815 80.7592ZM98.8826 80.8686C98.844 80.931 98.8967 81.0519 98.9996 81.1374C99.1517 81.2636 99.1867 81.256 99.1867 81.0961C99.1867 80.8617 98.9817 80.7082 98.8826 80.8686ZM46.5365 81.1362C46.5365 81.2744 46.48 81.3875 46.4108 81.3875C46.3417 81.3875 46.2852 81.4347 46.2852 81.4922C46.2852 81.7747 46.6464 81.5515 46.6921 81.2409C46.7207 81.0451 46.6976 80.8849 46.6404 80.8849C46.5832 80.8849 46.5365 80.998 46.5365 81.1362ZM49.0496 81.018C49.0496 81.0911 49.1062 81.1161 49.1753 81.0734C49.2444 81.0307 49.3009 80.9709 49.3009 80.9403C49.3009 80.9098 49.2444 80.8849 49.1753 80.8849C49.1062 80.8849 49.0496 80.9448 49.0496 81.018ZM99.4488 80.9477C99.4619 81.1857 99.6712 81.5866 99.6785 81.3875C99.6824 81.2839 99.6306 81.1142 99.5637 81.0106C99.4967 80.9069 99.4449 80.8786 99.4488 80.9477ZM102.611 81.0937C102.431 81.1662 102.397 81.3875 102.566 81.3875C102.628 81.3875 102.711 81.3027 102.751 81.199C102.79 81.0954 102.81 81.0151 102.795 81.0205C102.78 81.0259 102.697 81.0589 102.611 81.0937ZM96.1709 81.3875C96.1709 81.4566 96.2275 81.5132 96.2966 81.5132C96.3657 81.5132 96.4222 81.4566 96.4222 81.3875C96.4222 81.3184 96.3657 81.2619 96.2966 81.2619C96.2275 81.2619 96.1709 81.3184 96.1709 81.3875ZM80.0264 82.2985C80.1267 83.0428 80.1431 83.0787 80.3301 82.9631C80.4245 82.905 80.4252 82.8068 80.3326 82.6339C80.2603 82.4985 80.2354 82.3317 80.2776 82.2634C80.3815 82.0954 80.2272 81.6388 80.0666 81.6388C79.9834 81.6388 79.9692 81.8734 80.0264 82.2985ZM92.1537 81.7645C92.1538 81.9811 92.3636 82.3518 92.4361 82.2635C92.4629 82.2309 92.4103 82.0629 92.3192 81.8902C92.2279 81.717 92.1537 81.6606 92.1537 81.7645ZM51.6233 81.9844C51.4477 82.4041 51.3448 83.1525 51.4534 83.2197C51.5136 83.2568 51.5628 83.2273 51.5628 83.1541C51.5628 83.081 51.6476 83.0211 51.7513 83.0211C51.8549 83.0211 51.9397 82.9611 51.9397 82.888C51.9397 82.8149 51.8832 82.7899 51.8141 82.8326C51.745 82.8753 51.6884 82.8254 51.6884 82.7218C51.6884 82.6181 51.7441 82.4988 51.8122 82.4567C51.9477 82.3731 51.9371 81.7645 51.8001 81.7645C51.7535 81.7645 51.6738 81.8634 51.6233 81.9844ZM85.1917 81.9904C85.1576 82.0456 85.1773 82.1676 85.2354 82.2617C85.2936 82.3558 85.3099 82.5142 85.2717 82.6137C85.214 82.7644 85.2442 82.7685 85.4518 82.6389C85.6604 82.5086 85.6787 82.4347 85.5642 82.1876C85.4226 81.8821 85.299 81.8166 85.1917 81.9904ZM69.5405 82.2985C69.5357 82.4887 69.5882 82.6441 69.6573 82.6441C69.8049 82.6441 69.8049 82.5475 69.6573 82.2043C69.5616 81.9816 69.5484 81.9923 69.5405 82.2985ZM58.7252 82.2671C58.7252 82.3362 58.7817 82.3928 58.8509 82.3928C58.92 82.3928 58.9765 82.3362 58.9765 82.2671C58.9765 82.198 58.92 82.1415 58.8509 82.1415C58.7817 82.1415 58.7252 82.198 58.7252 82.2671ZM102.787 82.2985C102.819 82.3503 102.927 82.3928 103.027 82.3928C103.138 82.3928 103.208 82.5186 103.208 82.7174C103.208 82.8959 103.269 83.0217 103.343 82.9969C103.502 82.9438 103.504 82.9298 103.396 82.501C103.334 82.2537 103.239 82.1738 103.021 82.1868C102.861 82.1964 102.755 82.2468 102.787 82.2985ZM43.9882 82.4345C43.8482 82.7905 43.8711 82.9723 44.0352 82.8082C44.1107 82.7327 44.1515 82.5658 44.1256 82.4375C44.0804 82.2126 44.0755 82.2125 43.9882 82.4345ZM99.361 82.5584C99.4014 82.7092 99.4354 82.8751 99.4362 82.9268C99.4372 82.9786 99.5827 83.0211 99.7595 83.0211C99.9454 83.0211 100.048 82.9672 100.002 82.8934C99.9587 82.8232 99.8617 82.8037 99.7864 82.8502C99.698 82.9048 99.6737 82.8429 99.7177 82.6746C99.7667 82.4872 99.7162 82.3963 99.5366 82.3493C99.3308 82.2955 99.3003 82.3318 99.361 82.5584ZM69.6281 83.0164C69.5718 83.2172 69.6058 83.3974 69.7252 83.5292C69.8263 83.6411 69.8713 83.7704 69.8252 83.8166C69.779 83.8628 69.8 83.9007 69.872 83.9007C69.944 83.9007 70.0029 83.7593 70.0029 83.5865C70.0029 83.4137 69.9574 83.2724 69.9017 83.2724C69.8461 83.2724 69.7812 83.1451 69.7577 82.9897C69.7156 82.7107 69.7139 82.7111 69.6281 83.0164ZM46.5993 83.0211C46.5566 83.0902 46.5816 83.1467 46.6547 83.1467C46.7279 83.1467 46.7878 83.0902 46.7878 83.0211C46.7878 82.952 46.7629 82.8954 46.7324 82.8954C46.7019 82.8954 46.642 82.952 46.5993 83.0211ZM62.9975 83.0913C62.9975 83.199 63.0541 83.2523 63.1232 83.2096C63.1923 83.1668 63.2488 83.0788 63.2488 83.0137C63.2488 82.9486 63.1923 82.8954 63.1232 82.8954C63.0541 82.8954 62.9975 82.9836 62.9975 83.0913ZM85.3212 83.1726C85.2814 83.3252 85.2747 83.476 85.3066 83.5077C85.3384 83.5395 85.3644 83.4963 85.3644 83.4116C85.3644 83.3269 85.4157 83.2892 85.4784 83.3279C85.541 83.3668 85.5627 83.2852 85.5265 83.1469C85.4429 82.8268 85.4107 82.8308 85.3212 83.1726ZM96.5382 82.9268C96.4587 83.1868 96.468 83.398 96.559 83.398C96.622 83.398 96.6735 83.285 96.6735 83.1467C96.6735 82.9447 96.5796 82.7919 96.5382 82.9268ZM88.2645 83.4713C88.2705 83.6177 88.3003 83.6475 88.3404 83.5473C88.3767 83.4566 88.3722 83.3482 88.3304 83.3064C88.2887 83.2647 88.2591 83.3389 88.2645 83.4713ZM92.6096 83.4545C92.5629 83.576 92.6 83.6134 92.721 83.5669C92.8208 83.5287 92.8712 83.4468 92.8329 83.3848C92.7366 83.229 92.6906 83.2434 92.6096 83.4545ZM100.009 83.6693C100.077 84.2056 100.25 84.3632 100.498 84.1148C100.677 83.936 100.672 83.9105 100.444 83.838C100.305 83.794 100.192 83.6804 100.192 83.5855C100.192 83.4905 100.139 83.3804 100.075 83.3407C100.009 83.2998 99.9805 83.4422 100.009 83.6693ZM100.443 83.4054C100.443 83.4786 100.5 83.5036 100.569 83.4609C100.638 83.4181 100.695 83.3583 100.695 83.3278C100.695 83.2973 100.638 83.2724 100.569 83.2724C100.5 83.2724 100.443 83.3323 100.443 83.4054ZM103.312 83.7325C103.363 84.1662 103.374 84.1767 103.513 83.917C103.594 83.7655 103.709 83.6857 103.768 83.7397C103.828 83.7936 103.839 83.7343 103.793 83.6076C103.748 83.4811 103.71 83.3538 103.71 83.3249C103.71 83.296 103.609 83.2724 103.484 83.2724C103.298 83.2724 103.268 83.3533 103.312 83.7325ZM46.6203 83.6075C46.5742 83.6535 46.5365 83.7496 46.5365 83.8211C46.5365 83.8998 46.5951 83.8924 46.6851 83.8023C46.7669 83.7205 46.8046 83.6243 46.769 83.5887C46.7333 83.553 46.6663 83.5614 46.6203 83.6075ZM57.1016 83.7226C57.1076 83.869 57.1374 83.8988 57.1775 83.7986C57.2138 83.7079 57.2093 83.5995 57.1676 83.5577C57.1258 83.516 57.0962 83.5902 57.1016 83.7226ZM85.3233 83.7398C85.2263 83.8968 85.3648 84.4033 85.5048 84.4033C85.646 84.4033 85.6455 84.0165 85.5039 83.793C85.4444 83.6991 85.3633 83.6752 85.3233 83.7398ZM51.4141 84.1265C51.3355 84.6619 51.4821 85.8759 51.6028 85.6893C51.6595 85.6017 51.7584 85.5626 51.8227 85.6024C51.9977 85.7105 51.9566 85.5042 51.7482 85.2289C51.5869 85.0155 51.588 84.9607 51.7577 84.7731C51.9319 84.5806 51.9288 84.5516 51.7252 84.4727C51.51 84.3892 51.5104 84.3777 51.7324 84.2142C51.9764 84.0346 51.9172 83.775 51.6324 83.775C51.5407 83.775 51.4424 83.9331 51.4141 84.1265ZM92.8537 84.11C92.9693 84.5915 93.0295 84.637 93.0295 84.2432C93.0295 84.0629 92.9707 83.8792 92.8988 83.8347C92.8131 83.7818 92.7975 83.8765 92.8537 84.11ZM46.4108 84.1995C46.4108 84.2946 46.4879 84.4365 46.5821 84.5146C46.7207 84.6297 46.7419 84.5967 46.6931 84.3416C46.63 84.0111 46.4108 83.9008 46.4108 84.1995ZM69.8458 84.2776C69.8885 84.3467 69.9484 84.4033 69.9789 84.4033C70.0094 84.4033 70.0343 84.3467 70.0343 84.2776C70.0343 84.2085 69.9744 84.152 69.9012 84.152C69.8281 84.152 69.8031 84.2085 69.8458 84.2776ZM86.6838 84.2776C86.7266 84.3467 86.7864 84.4033 86.8169 84.4033C86.8474 84.4033 86.8723 84.3467 86.8723 84.2776C86.8723 84.2085 86.8124 84.152 86.7393 84.152C86.6661 84.152 86.6411 84.2085 86.6838 84.2776ZM92.0242 84.2776C92.0242 84.3467 92.0842 84.4033 92.1573 84.4033C92.2304 84.4033 92.2555 84.3467 92.2127 84.2776C92.17 84.2085 92.1102 84.152 92.0797 84.152C92.0491 84.152 92.0242 84.2085 92.0242 84.2776ZM43.772 84.4751C43.772 84.5532 44.1029 84.9059 44.1762 84.9059C44.2009 84.9059 44.2297 84.7928 44.2401 84.6546C44.2531 84.4832 44.1816 84.4033 44.0156 84.4033C43.8816 84.4033 43.772 84.4356 43.772 84.4751ZM75.6889 84.5289C75.6889 84.5981 75.7488 84.6546 75.8219 84.6546C75.8951 84.6546 75.9201 84.5981 75.8774 84.5289C75.8346 84.4598 75.7748 84.4033 75.7443 84.4033C75.7137 84.4033 75.6889 84.4598 75.6889 84.5289ZM96.871 84.6007C96.616 84.8558 96.6168 85.0803 96.8723 84.9822C96.9817 84.9402 97.123 84.9059 97.1865 84.9059C97.2499 84.9059 97.3018 84.7928 97.3018 84.6546C97.3018 84.3527 97.1394 84.3323 96.871 84.6007ZM58.9986 84.8554C59.0483 85.276 59.2962 85.3901 59.3889 85.0351C59.4348 84.8599 59.3764 84.7341 59.2072 84.6435C58.9838 84.524 58.9622 84.5459 58.9986 84.8554ZM69.941 85.44C69.9638 86.124 70.0155 86.351 70.148 86.351C70.245 86.351 70.339 86.2517 70.3569 86.1304C70.3747 86.0092 70.3402 85.9403 70.2801 85.9774C70.22 86.0145 70.1764 85.9158 70.1832 85.7581C70.2134 85.0548 70.15 84.5289 70.0352 84.5289C69.9612 84.5289 69.9229 84.9 69.941 85.44ZM86.8095 84.6546C86.8522 84.7237 86.912 84.7803 86.9426 84.7803C86.9731 84.7803 86.998 84.7237 86.998 84.6546C86.998 84.5855 86.938 84.5289 86.8649 84.5289C86.7918 84.5289 86.7668 84.5855 86.8095 84.6546ZM100.537 84.6155C100.416 84.6472 100.318 84.7255 100.318 84.7894C100.318 84.967 100.519 84.9284 100.695 84.7174C100.781 84.6138 100.83 84.5355 100.804 84.5435C100.778 84.5516 100.659 84.584 100.537 84.6155ZM56.966 84.9688C56.966 85.0771 57.0794 85.1572 57.2327 85.1572C57.4556 85.1572 57.4737 85.1262 57.343 84.9688C57.2569 84.8651 57.1369 84.7803 57.0763 84.7803C57.0156 84.7803 56.966 84.8651 56.966 84.9688ZM85.2388 84.9059C85.2388 84.975 85.2953 85.0316 85.3644 85.0316C85.4336 85.0316 85.4901 84.975 85.4901 84.9059C85.4901 84.8368 85.4336 84.7803 85.3644 84.7803C85.2953 84.7803 85.2388 84.8368 85.2388 84.9059ZM75.5897 85.0812C75.7568 85.262 75.9402 85.2323 75.9402 85.0242C75.9402 84.9591 75.8248 84.9059 75.684 84.9059C75.471 84.9059 75.455 84.9356 75.5897 85.0812ZM100.589 85.2829C100.589 85.4557 100.617 85.5264 100.652 85.44C100.687 85.3536 100.687 85.2123 100.652 85.1258C100.617 85.0395 100.589 85.1101 100.589 85.2829ZM62.9453 85.4303C62.7181 85.5622 62.7168 85.5789 62.9238 85.7302C63.1008 85.8597 63.116 85.9409 63.0031 86.1522C62.8895 86.3644 62.8994 86.4138 63.056 86.4138C63.2008 86.4138 63.2488 86.2729 63.2488 85.8483C63.2488 85.5373 63.2348 85.2847 63.2174 85.2867C63.2001 85.2888 63.0777 85.3534 62.9453 85.4303ZM85.2388 85.4085C85.2388 85.4777 85.3095 85.5201 85.3959 85.5028C85.5048 85.481 85.5455 85.636 85.5288 86.0083C85.515 86.3178 85.5549 86.5142 85.623 86.4721C85.8285 86.3452 85.7634 85.4439 85.5426 85.3592C85.2745 85.2563 85.2388 85.262 85.2388 85.4085ZM94.2245 85.4065C94.1811 85.4768 94.208 85.5342 94.2843 85.5342C94.3734 85.5342 94.398 85.7032 94.3533 86.0054C94.3013 86.356 94.3136 86.4123 94.4015 86.2253C94.4665 86.0871 94.5237 85.8501 94.5286 85.6987C94.5384 85.3923 94.3469 85.2084 94.2245 85.4065ZM56.966 85.5896C56.966 85.8555 57.1787 85.9417 57.267 85.7116C57.3744 85.4317 57.3658 85.4085 57.1545 85.4085C57.0508 85.4085 56.966 85.49 56.966 85.5896ZM92.4192 85.5225C92.2928 85.6011 92.2869 85.6519 92.3962 85.7195C92.5686 85.8261 92.698 85.7317 92.6342 85.5461C92.6081 85.47 92.5193 85.4603 92.4192 85.5225ZM46.2852 85.7301C46.2852 85.8378 46.3417 85.8911 46.4108 85.8483C46.48 85.8056 46.5365 85.7175 46.5365 85.6525C46.5365 85.5874 46.48 85.5342 46.4108 85.5342C46.3417 85.5342 46.2852 85.6224 46.2852 85.7301ZM59.0463 86.0014C58.9475 86.2585 59.1507 86.2775 59.4456 86.0387L59.7251 85.8124L59.4151 85.8304C59.2447 85.8403 59.0787 85.9172 59.0463 86.0014ZM95.831 86.141C95.8217 86.2565 95.6748 86.8428 95.5044 87.4441C95.3341 88.0452 95.2174 88.5599 95.2452 88.5877C95.2731 88.6154 95.2123 88.7991 95.1102 88.9959C94.9318 89.3397 95.0219 89.6809 95.2909 89.6809C95.4114 89.6809 95.5808 88.9709 95.569 88.5164C95.564 88.3253 95.6062 88.1975 95.6629 88.2324C95.7723 88.3002 95.8921 87.84 96.0051 86.9164C96.043 86.6054 96.1318 86.3147 96.2023 86.2702C96.277 86.2232 96.2297 86.1356 96.0891 86.0603C95.897 85.9575 95.8443 85.974 95.831 86.141ZM51.3916 86.351C51.4315 86.4546 51.4862 86.5395 51.5134 86.5395C51.5405 86.5395 51.5628 86.4546 51.5628 86.351C51.5628 86.2473 51.508 86.1625 51.441 86.1625C51.3742 86.1625 51.3519 86.2473 51.3916 86.351ZM92.0832 86.4014C92.1248 86.5325 92.079 86.718 91.981 86.816C91.8382 86.9589 91.8339 87.0349 91.9592 87.2063C92.1493 87.4662 92.3285 87.4868 92.2328 87.2377C92.1946 87.1381 92.2117 86.8876 92.2709 86.6814C92.3531 86.3946 92.3349 86.2895 92.1931 86.2352C92.057 86.183 92.0278 86.2271 92.0832 86.4014ZM46.5453 86.8776C46.5405 87.029 46.48 87.1878 46.4108 87.2306C46.3417 87.2733 46.2852 87.4126 46.2852 87.5403C46.2852 87.7106 46.3522 87.7549 46.5365 87.7068C46.8033 87.6371 46.8532 87.2982 46.6622 86.8536C46.558 86.6113 46.5538 86.6122 46.5453 86.8776ZM59.1823 86.8536C59.2222 86.9573 59.2701 87.0421 59.2888 87.0421C59.3074 87.0421 59.3931 86.9573 59.4791 86.8536C59.6097 86.6963 59.5921 86.6651 59.3728 86.6651C59.1909 86.6651 59.1323 86.723 59.1823 86.8536ZM62.7462 86.9911C62.7462 87.0882 62.8593 87.1677 62.9975 87.1677C63.1358 87.1677 63.2488 87.1177 63.2488 87.0568C63.2488 86.9957 63.1358 86.9162 62.9975 86.88C62.8342 86.8373 62.7462 86.8762 62.7462 86.9911ZM91.396 86.9164C91.396 86.9855 91.4525 87.0421 91.5216 87.0421C91.5907 87.0421 91.6473 86.9855 91.6473 86.9164C91.6473 86.8473 91.5907 86.7908 91.5216 86.7908C91.4525 86.7908 91.396 86.8473 91.396 86.9164ZM85.4273 87.1677C85.47 87.2369 85.5298 87.2934 85.5603 87.2934C85.5909 87.2934 85.6158 87.2369 85.6158 87.1677C85.6158 87.0986 85.5558 87.0421 85.4827 87.0421C85.4096 87.0421 85.3845 87.0986 85.4273 87.1677ZM51.4371 87.3601C51.4371 87.4617 51.5219 87.5447 51.6256 87.5447C51.7293 87.5447 51.8141 87.4942 51.8141 87.4325C51.8141 87.3708 51.7293 87.2877 51.6256 87.2479C51.5107 87.2039 51.4371 87.2478 51.4371 87.3601ZM59.2278 88.0473C59.2278 88.5541 59.2693 88.9273 59.3199 88.8767C59.4157 88.781 59.3844 87.2825 59.2846 87.1826C59.2533 87.1514 59.2278 87.5406 59.2278 88.0473ZM104.884 87.258C105.04 87.2972 105.095 87.3949 105.053 87.556C105.019 87.6878 105.046 87.8298 105.113 87.8714C105.18 87.913 105.205 88.0262 105.168 88.1229C105.128 88.2261 105.179 88.2987 105.292 88.2987C105.398 88.2987 105.449 88.2421 105.407 88.173C105.364 88.1039 105.382 88.0473 105.447 88.0473C105.513 88.0473 105.595 88.1604 105.632 88.2987C105.676 88.469 105.635 88.55 105.505 88.55C105.375 88.55 105.35 88.6009 105.425 88.707C105.487 88.7935 105.531 89.0195 105.522 89.2097C105.514 89.3998 105.561 89.5552 105.627 89.5552C105.694 89.5552 105.715 89.64 105.675 89.7437C105.63 89.8627 105.677 89.9322 105.804 89.9322C105.968 89.9322 105.989 89.8395 105.922 89.4203C105.862 89.0439 105.88 88.9326 105.988 88.9998C106.201 89.131 106.018 88.075 105.788 87.8457C105.691 87.7484 105.58 87.5702 105.542 87.4497C105.496 87.3053 105.332 87.2253 105.062 87.2151C104.837 87.2066 104.757 87.2259 104.884 87.258ZM43.9076 87.4923C43.9137 87.6387 43.9434 87.6685 43.9835 87.5683C44.0198 87.4776 44.0153 87.3692 43.9736 87.3275C43.9319 87.2857 43.9022 87.3599 43.9076 87.4923ZM91.396 87.4819C91.396 87.5855 91.4525 87.6704 91.5216 87.6704C91.5907 87.6704 91.6473 87.5855 91.6473 87.4819C91.6473 87.3782 91.5907 87.2934 91.5216 87.2934C91.4525 87.2934 91.396 87.3782 91.396 87.4819ZM55.5838 87.9217C55.5838 87.9908 55.6403 88.0473 55.7094 88.0473C55.7786 88.0473 55.8351 87.9908 55.8351 87.9217C55.8351 87.8526 55.7786 87.796 55.7094 87.796C55.6403 87.796 55.5838 87.8526 55.5838 87.9217ZM46.4737 88.173C46.5164 88.2421 46.5762 88.2987 46.6067 88.2987C46.6373 88.2987 46.6622 88.2421 46.6622 88.173C46.6622 88.1039 46.6022 88.0473 46.5291 88.0473C46.4559 88.0473 46.4309 88.1039 46.4737 88.173ZM50.9345 88.2358C50.9345 88.3395 50.991 88.4243 51.0601 88.4243C51.1293 88.4243 51.1858 88.3395 51.1858 88.2358C51.1858 88.1322 51.1293 88.0473 51.0601 88.0473C50.991 88.0473 50.9345 88.1322 50.9345 88.2358ZM51.3115 88.3255C51.3115 88.4638 51.4049 88.55 51.555 88.55C51.7113 88.55 51.7925 88.4697 51.7815 88.3255C51.7721 88.1994 51.6656 88.1012 51.538 88.1012C51.4043 88.1012 51.3115 88.1931 51.3115 88.3255ZM62.7561 88.3262C62.7485 88.5882 62.7926 88.65 62.9453 88.5913C63.0547 88.5493 63.0914 88.4805 63.0269 88.4383C62.9624 88.396 62.8773 88.2767 62.8378 88.173C62.7956 88.0622 62.7619 88.1254 62.7561 88.3262ZM56.8404 88.2987C56.7407 88.3602 56.6874 88.4389 56.722 88.4734C56.7565 88.508 56.8664 88.4859 56.966 88.4243C57.0657 88.3627 57.1189 88.2841 57.0844 88.2495C57.0498 88.215 56.94 88.2371 56.8404 88.2987ZM59.6293 88.7384C59.6318 88.9458 59.66 89.0154 59.6919 88.8931C59.7238 88.7709 59.7217 88.6012 59.6872 88.5162C59.6528 88.4311 59.6268 88.5311 59.6293 88.7384ZM51.3133 89.2769C51.3117 89.5185 51.3486 89.5442 51.5463 89.4384C51.6754 89.3692 51.8167 89.3485 51.8605 89.3921C51.9041 89.4357 51.9397 89.4115 51.9397 89.3383C51.9397 89.2651 51.8549 89.1726 51.7513 89.1328C51.6476 89.093 51.5619 89.1294 51.5609 89.2136C51.5596 89.3104 51.5141 89.2975 51.4371 89.1783C51.339 89.0263 51.315 89.0454 51.3133 89.2769ZM106.243 89.6809C106.243 89.8537 106.272 89.9244 106.307 89.8379C106.342 89.7516 106.342 89.6103 106.307 89.5238C106.272 89.4375 106.243 89.5081 106.243 89.6809ZM44.2298 89.9935C44.1698 90.1501 44.2046 90.2674 44.3323 90.339C44.4389 90.3985 44.526 90.5576 44.526 90.6924C44.526 91.0572 44.7382 90.9887 44.8125 90.5998C44.8944 90.1717 44.7925 89.8995 44.5808 89.9807C44.4904 90.0154 44.3951 89.9791 44.3687 89.9C44.3424 89.8211 44.2798 89.8631 44.2298 89.9935ZM63.3745 90.6484C63.3745 90.7389 63.5146 90.8118 63.6886 90.8118C63.8627 90.8118 64.0028 90.7389 64.0028 90.6484C64.0028 90.558 63.8627 90.4851 63.6886 90.4851C63.5146 90.4851 63.3745 90.558 63.3745 90.6484ZM77.7083 91.4715L77.7171 92.2568L77.9413 91.7537C78.374 90.7824 78.3813 90.6861 78.0219 90.6861C77.7091 90.6861 77.6996 90.7098 77.7083 91.4715ZM61.4897 91.1185C61.4897 91.2182 61.5462 91.3345 61.6153 91.3772C61.6844 91.42 61.741 91.3384 61.741 91.1962C61.741 91.0539 61.6844 90.9374 61.6153 90.9374C61.5462 90.9374 61.4897 91.0189 61.4897 91.1185ZM44.526 91.5029C44.526 91.6757 44.5477 91.817 44.5741 91.817C44.6006 91.817 44.6494 91.6757 44.6824 91.5029C44.7155 91.3301 44.6937 91.1888 44.6342 91.1888C44.5747 91.1888 44.526 91.3301 44.526 91.5029ZM52.1417 91.6571C52.0997 91.6989 52.0654 92.0099 52.0654 92.3481C52.0654 92.8063 52.1054 92.9388 52.2225 92.8684C52.3244 92.8072 52.3173 92.8507 52.2026 92.9919C52.0782 93.1452 52.0653 93.2494 52.1588 93.3429C52.3 93.4841 52.3498 93.378 52.5058 92.6024C52.5621 92.3226 52.5405 92.194 52.437 92.194C52.3314 92.194 52.3246 92.1468 52.4143 92.0369C52.5503 91.8707 52.2902 91.5084 52.1417 91.6571ZM105.595 91.6811C105.595 91.7445 105.557 91.8952 105.511 92.0158C105.457 92.1574 105.475 92.2053 105.563 92.151C105.638 92.1047 105.726 92.1378 105.759 92.2247C105.792 92.3115 105.816 92.1987 105.813 91.9741C105.811 91.7496 105.76 91.5657 105.702 91.5657C105.643 91.5657 105.595 91.6176 105.595 91.6811ZM61.5698 92.2568C61.6097 92.3605 61.6644 92.4453 61.6916 92.4453C61.7187 92.4453 61.741 92.3605 61.741 92.2568C61.741 92.1532 61.6862 92.0684 61.6192 92.0684C61.5524 92.0684 61.5301 92.1532 61.5698 92.2568ZM49.0496 92.704C49.0496 92.7772 49.1062 92.8022 49.1753 92.7595C49.2444 92.7167 49.3009 92.6569 49.3009 92.6264C49.3009 92.5959 49.2444 92.571 49.1753 92.571C49.1062 92.571 49.0496 92.6309 49.0496 92.704ZM64.0789 92.77C64.0321 92.8923 64.0601 92.9498 64.1519 92.9192C64.3398 92.8566 64.4432 92.571 64.278 92.571C64.2105 92.571 64.121 92.6606 64.0789 92.77ZM49.0182 93.1461C48.9663 93.1984 48.9291 93.4721 48.9353 93.7543L48.9466 94.2673L49.0677 93.8465C49.1988 93.3915 49.1705 92.9924 49.0182 93.1461ZM50.2748 93.1461C50.2229 93.1984 50.1842 93.4155 50.1885 93.6286C50.1962 94.0075 50.1991 94.0093 50.3189 93.7097C50.4535 93.3728 50.4239 92.9957 50.2748 93.1461ZM64.1093 93.2307C64.0543 93.6818 64.0537 93.7735 64.1044 93.8724C64.1876 94.034 64.3756 93.679 64.3779 93.3563C64.3799 93.0636 64.1432 92.9529 64.1093 93.2307ZM77.1134 93.5052C77.1515 93.6045 77.1151 93.7098 77.0326 93.7393C76.9501 93.769 76.9213 93.8348 76.9684 93.8857C77.0157 93.9367 77.1147 93.9411 77.1883 93.8955C77.3654 93.7861 77.3614 93.3249 77.1833 93.3249C77.1068 93.3249 77.0754 93.4061 77.1134 93.5052ZM72.2333 93.7019C72.276 93.771 72.3358 93.8276 72.3664 93.8276C72.3969 93.8276 72.4218 93.771 72.4218 93.7019C72.4218 93.6328 72.3619 93.5762 72.2887 93.5762C72.2156 93.5762 72.1906 93.6328 72.2333 93.7019ZM104.6 93.9008C104.606 94.0472 104.636 94.077 104.676 93.9768C104.712 93.8861 104.708 93.7777 104.666 93.7359C104.624 93.6942 104.594 93.7684 104.6 93.9008ZM50.5628 94.4164C50.6464 94.7868 50.6249 94.9121 50.4554 95.0423C50.2694 95.185 50.2665 95.2205 50.4319 95.3312C50.775 95.5607 50.8247 95.5198 50.8453 94.9899C50.8592 94.6349 50.672 93.9532 50.5608 93.9532C50.5044 93.9532 50.5054 94.1617 50.5628 94.4164ZM63.8771 94.2748C63.8771 94.3824 63.9346 94.4351 64.0048 94.3917C64.075 94.3483 64.1 94.2602 64.0602 94.1959C63.9525 94.0216 63.8771 94.054 63.8771 94.2748ZM76.7733 94.4873C76.6363 94.9983 76.6773 95.1544 76.8786 94.8882C77.0834 94.6176 77.1325 94.2045 76.9601 94.2045C76.8991 94.2045 76.815 94.3318 76.7733 94.4873ZM114.768 94.5815C114.768 94.7197 114.819 94.8328 114.882 94.8328C114.945 94.8328 114.966 94.7197 114.93 94.5815C114.894 94.4433 114.843 94.3302 114.816 94.3302C114.79 94.3302 114.768 94.4433 114.768 94.5815ZM65.4231 95.1155C65.425 95.5288 65.4775 95.7124 65.5939 95.7124C65.7887 95.7124 65.8129 95.5637 65.646 95.392C65.5822 95.3264 65.5054 95.103 65.4752 94.8956C65.4416 94.664 65.4214 94.7489 65.4231 95.1155ZM65.0919 94.791C65.0457 94.837 65.0098 94.9642 65.0118 95.0737C65.015 95.237 65.0396 95.2316 65.149 95.0433C65.2844 94.8106 65.2452 94.6377 65.0919 94.791ZM93.2264 95.2734C93.0959 95.5156 93.0188 95.7436 93.0551 95.7799C93.1263 95.851 93.4371 95.4111 93.5689 95.0527C93.7122 94.6634 93.4713 94.8186 93.2264 95.2734ZM119.983 94.9585C119.94 95.0276 119.951 95.0881 120.007 95.0929C120.063 95.0978 120 95.1444 119.866 95.1966C119.661 95.2769 119.655 95.3031 119.822 95.3672C119.941 95.413 120.133 95.3221 120.306 95.1379C120.591 94.8338 120.591 94.8328 120.326 94.8328C120.18 94.8328 120.026 94.8894 119.983 94.9585ZM91.3331 95.0841C91.3759 95.1532 91.4357 95.2098 91.4662 95.2098C91.4967 95.2098 91.5216 95.1532 91.5216 95.0841C91.5216 95.015 91.4617 94.9585 91.3886 94.9585C91.3154 94.9585 91.2904 95.015 91.3331 95.0841ZM52.5052 95.3354C52.4625 95.4045 52.519 95.4611 52.6308 95.4611C52.7427 95.4611 52.7992 95.4045 52.7565 95.3354C52.7138 95.2663 52.6572 95.2098 52.6308 95.2098C52.6045 95.2098 52.5479 95.2663 52.5052 95.3354ZM80.7379 95.4691C80.5491 95.774 80.5829 95.8717 80.8253 95.722C80.9166 95.6655 80.9715 95.5254 80.9474 95.4105C80.9103 95.2329 80.8786 95.2418 80.7379 95.4691ZM64.5856 95.5239C64.5459 95.6276 64.5681 95.7124 64.635 95.7124C64.7019 95.7124 64.7567 95.6276 64.7567 95.5239C64.7567 95.4202 64.7345 95.3354 64.7073 95.3354C64.6802 95.3354 64.6254 95.4202 64.5856 95.5239ZM94.4117 95.5165C94.4117 95.6161 94.4624 95.7289 94.5242 95.7671C94.6536 95.847 94.8096 95.5238 94.6962 95.4106C94.5614 95.2757 94.4117 95.3314 94.4117 95.5165ZM119.073 96.0843C118.936 96.3031 118.946 96.321 119.16 96.2417C119.413 96.1484 119.513 95.9325 119.332 95.8722C119.274 95.8531 119.158 95.9485 119.073 96.0843ZM118.29 96.7128C118.188 96.7771 118.138 96.8624 118.178 96.9024C118.218 96.9423 118.322 96.8888 118.41 96.7835C118.591 96.5651 118.556 96.5445 118.29 96.7128ZM111.25 97.1728C111.25 97.3473 111.281 97.3525 111.47 97.2084C111.591 97.1159 111.713 97.0241 111.742 97.0045C111.771 96.9849 111.672 96.969 111.522 96.969C111.355 96.969 111.25 97.0475 111.25 97.1728Z" fill="#FFF9E9"/>
</svg>
