<svg width="57" height="57" viewBox="0 0 57 57" fill="none" xmlns="http://www.w3.org/2000/svg">
<path d="M0 28.5C0 12.7599 12.7599 0 28.5 0C44.2401 0 57 12.7599 57 28.5C57 44.2401 44.2401 57 28.5 57C12.7599 57 0 44.2401 0 28.5Z" fill="#BD002F"/>
<path d="M23.1665 15.1666V20.5" stroke="#FFF9E9" stroke-width="2.66667" stroke-linecap="round" stroke-linejoin="round"/>
<path d="M33.8335 15.1666V20.5" stroke="#FFF9E9" stroke-width="2.66667" stroke-linecap="round" stroke-linejoin="round"/>
<path d="M37.8333 17.8334H19.1667C17.6939 17.8334 16.5 19.0273 16.5 20.5V39.1667C16.5 40.6395 17.6939 41.8334 19.1667 41.8334H37.8333C39.3061 41.8334 40.5 40.6395 40.5 39.1667V20.5C40.5 19.0273 39.3061 17.8334 37.8333 17.8334Z" stroke="#FFF9E9" stroke-width="2.66667" stroke-linecap="round" stroke-linejoin="round"/>
<path d="M16.5 25.8334H40.5" stroke="#FFF9E9" stroke-width="2.66667" stroke-linecap="round" stroke-linejoin="round"/>
</svg>
