<svg width="414" height="415" viewBox="0 0 414 415" fill="none" xmlns="http://www.w3.org/2000/svg">
<g filter="url(#filter0_d_8_9711)">
<path d="M105.742 9.51413C108.055 9.36296 110.36 9.51711 112.643 9.9693L117.769 10.9851C118.134 11.0574 118.439 11.113 118.689 11.1533C118.707 11.1561 118.725 11.1586 118.741 11.1613L119.008 11.0839L119.502 10.9597C121.952 10.4337 124.113 11.2908 125.498 12.4067C126.709 13.3825 127.34 14.5249 127.621 15.0869C128.219 16.2858 128.542 17.6012 128.743 18.5641L129.787 23.5523C130.113 25.1093 130.473 26.6466 130.866 28.1627L132.129 33.0307C132.472 34.3514 132.908 35.6625 133.44 36.9631L135.38 41.7016C135.634 42.3221 135.99 42.8283 136.495 43.2807L140.315 46.7031C141.59 47.8444 142.849 48.9735 144.092 50.0882L147.822 53.4305C148.8 54.3066 149.851 55.111 150.978 55.8439L155.235 58.6109C156.365 59.3455 157.57 60.008 158.851 60.5944L163.587 62.7622C164.245 63.0635 164.901 63.2015 165.624 63.192L170.831 63.1226C172.448 63.1012 174.051 63.0382 175.635 62.9343L180.753 62.5993C182.027 62.5158 183.286 62.3136 184.536 61.9893L189.528 60.6932C190.758 60.3739 191.953 59.9365 193.115 59.3771L197.794 57.1239C198.89 56.5964 199.914 55.9532 200.872 55.1885L204.945 51.9369C205.827 51.2332 206.59 50.4349 207.248 49.5316L210.304 45.3336C211.173 44.1401 211.968 42.9089 212.69 41.6389L215.237 37.1553C215.665 36.401 215.933 35.617 216.057 34.7633L216.793 29.6657C217.097 27.5698 217.584 25.508 218.249 23.4842L219.877 18.5254L220.098 17.9074C220.659 16.4502 221.567 14.8878 223.051 13.6066C224.839 12.0626 226.978 11.3478 229.087 11.2721L233.38 11.1186C234.572 11.0758 235.936 10.9617 237.481 10.7675L242.608 10.1241C244.621 9.87122 246.639 9.75427 248.66 9.77575L253.786 9.83048C255.69 9.85076 257.595 9.95294 259.496 10.1362L264.623 10.63C266.066 10.769 267.507 10.8224 268.947 10.7915L274.073 10.6821C275.954 10.6418 277.835 10.6718 279.714 10.7729L284.841 11.0492C286.039 11.1135 287.249 11.0448 288.479 10.8383L293.628 9.9733C296.552 9.48218 299.462 9.77638 302.228 10.8383L307.112 12.7123C308.622 13.2919 310.143 13.8278 311.674 14.3194L316.632 15.9119C319.28 16.7622 321.638 18.1738 323.646 20.0898L327.461 23.7285C329.233 25.419 330.721 27.3457 331.909 29.4881L334.468 34.1052C335.684 36.2982 336.52 38.6432 336.962 41.1103L337.89 46.284C338.285 48.4906 338.44 50.712 338.346 52.938L338.13 58.0903C338.065 59.6408 338.058 61.1866 338.108 62.7261L338.272 67.8518C338.336 69.8607 338.268 71.8694 338.067 73.8744L337.556 79.0001C337.426 80.3053 337.412 81.608 337.515 82.911L337.918 88.0367C338.09 90.2282 338.03 92.4207 337.738 94.6039L337.053 99.7296C336.859 101.181 336.749 102.629 336.723 104.073L336.63 109.199C336.6 110.832 336.596 112.468 336.62 114.101L336.643 115.709L338.575 115.907C341.021 116.158 343.383 116.763 345.625 117.74L350.335 119.792C351.913 120.479 353.48 121.167 355.036 121.853L359.678 123.898C361.688 124.783 363.585 125.884 365.358 127.191L369.48 130.227C371.197 131.492 372.787 132.911 374.247 134.476L377.77 138.255C379.317 139.913 380.65 141.736 381.763 143.714L384.308 148.236C385.557 150.457 386.384 152.844 386.774 155.362L387.566 160.477C387.829 162.178 388.091 163.86 388.351 165.522L389.132 170.52C389.438 172.482 389.616 174.469 389.667 176.477L389.798 181.632C389.861 184.119 389.508 186.564 388.746 188.933L387.165 193.847C386.481 195.973 385.566 197.998 384.423 199.911L381.799 204.302C380.753 206.053 379.586 207.715 378.3 209.284L375.092 213.195C373.737 214.848 372.231 216.352 370.578 217.702L366.68 220.888C365.43 221.91 364.169 222.969 362.898 224.067L358.95 227.476C356.831 229.305 354.375 230.585 351.658 231.269L346.621 232.537C344.843 232.985 343.055 233.393 341.258 233.761L338.399 234.346L338.261 235.41C338.162 236.175 338.126 237.225 338.217 238.612L338.553 243.738C338.672 245.54 338.754 247.344 338.798 249.146L338.923 254.272C338.972 256.28 338.889 258.287 338.675 260.291L338.126 265.416C337.943 267.127 337.76 268.839 337.575 270.55L337.021 275.676C336.88 276.978 336.856 278.276 336.95 279.574L337.32 284.7C337.449 286.487 337.547 288.274 337.614 290.062L337.806 295.19C337.889 297.421 337.718 299.637 337.292 301.826L336.315 306.841C335.928 308.826 335.401 310.787 334.738 312.72L333.049 317.648C332.142 320.294 330.67 322.634 328.681 324.597L324.957 328.272C323.112 330.094 320.98 331.533 318.589 332.542L313.86 334.538C312.077 335.291 310.271 335.95 308.444 336.512L303.634 337.992C301.464 338.66 299.232 339.041 296.955 339.139L291.843 339.356C289.955 339.437 288.064 339.443 286.172 339.371L281.045 339.176C279.594 339.121 278.143 339.148 276.69 339.258L271.564 339.643C269.338 339.811 267.113 339.726 264.9 339.391L259.774 338.614C258.367 338.401 256.966 338.285 255.57 338.264L250.443 338.188C248.967 338.167 247.491 338.221 246.012 338.35L240.886 338.796C239.17 338.945 237.452 339.092 235.736 339.236L233.173 339.452L232.696 339.491L232.149 341.333C231.752 342.669 231.34 344.129 230.916 345.711L229.601 350.61C229.133 352.35 228.619 354.097 228.057 355.852L226.469 360.819C225.65 363.376 224.337 365.688 222.557 367.7L219.104 371.6C217.795 373.079 216.414 374.483 214.962 375.811L211.141 379.304C209.34 380.951 207.317 382.289 205.096 383.298L200.396 385.434C198.461 386.313 196.467 387.012 194.421 387.524L189.506 388.755C187.968 389.14 186.423 389.563 184.87 390.026L179.926 391.499C177.132 392.331 174.256 392.414 171.419 391.745L166.394 390.558C164.904 390.206 163.415 389.921 161.927 389.7L156.885 388.951C154.525 388.601 152.257 387.906 150.103 386.875L145.474 384.661C143.556 383.743 141.732 382.657 140.008 381.405L135.838 378.377C134.079 377.099 132.459 375.656 130.985 374.053L127.478 370.241C125.931 368.56 124.607 366.71 123.514 364.704L121.035 360.157C119.927 358.123 119.096 355.975 118.55 353.728L117.337 348.733C116.909 346.972 116.521 345.206 116.173 343.436L115.408 339.553L112.735 338.483C112.431 338.362 111.903 338.232 111.015 338.276L105.889 338.534C104.133 338.622 102.377 338.692 100.621 338.744L95.494 338.895C93.8281 338.943 92.1617 339.008 90.4956 339.088L85.3691 339.335C83.7125 339.415 82.0555 339.513 80.3987 339.631L75.2721 339.996C73.3027 340.136 71.3313 340.162 69.3606 340.076L64.234 339.852C62.8287 339.79 61.4222 339.821 60.0139 339.946L54.886 340.404C52.344 340.631 49.8236 340.392 47.3644 339.707L42.3273 338.306C40.1571 337.702 38.0861 336.865 36.1313 335.79L31.7017 333.354C30.0442 332.442 28.4174 331.449 26.8234 330.378L22.5326 327.497C19.9909 325.789 18.0762 323.457 16.896 320.632L14.9041 315.864C14.1328 314.017 13.482 312.144 12.9576 310.247L11.6213 305.408C11.0983 303.516 10.6922 301.583 10.4037 299.611L9.65875 294.514C9.37728 292.59 9.19226 290.659 9.10471 288.722L8.87375 283.596C8.77001 281.3 8.96006 279.014 9.4358 276.754L10.5145 271.628C10.688 270.804 10.6945 270.011 10.5385 269.196L9.55729 264.071C9.15579 261.975 8.93898 259.866 8.91113 257.749L8.84304 252.623C8.81693 250.635 8.91337 248.648 9.13008 246.665L9.68946 241.539C9.82372 240.31 9.82809 239.086 9.70147 237.858L9.1728 232.732C8.97581 230.823 9.20151 228.558 10.4531 226.42C11.7165 224.261 13.6073 222.943 15.4422 222.194L20.0788 220.302C22.433 219.342 24.9086 218.849 27.4509 218.79L32.7096 218.669C33.018 218.661 33.1843 218.6 33.4132 218.424L37.5678 215.233C39.0704 214.079 40.5917 212.988 42.131 211.963L46.3551 209.149C47.1476 208.621 47.825 207.99 48.4084 207.237L51.5177 203.225C52.4388 202.037 53.3073 200.815 54.1237 199.56L56.8833 195.318C57.4244 194.485 57.8236 193.603 58.0901 192.649L59.4505 187.78C59.8462 186.364 60.1728 184.936 60.4318 183.495L61.3236 178.535C61.5203 177.441 61.5799 176.342 61.5012 175.227L61.1447 170.19C61.0567 168.946 60.8519 167.729 60.5306 166.534L59.2236 161.674C58.8092 160.132 58.3625 158.576 57.8819 157.007L56.3719 152.079C56.1164 151.245 55.7273 150.502 55.1851 149.813L51.993 145.758C51.0384 144.545 50.0307 143.363 48.9718 142.212L45.4419 138.378C44.8025 137.683 44.0774 137.126 43.2378 136.689L38.6105 134.281C37.224 133.559 35.8117 132.891 34.3744 132.279L29.5776 130.234C29.0188 129.996 28.4696 129.905 27.83 129.96L22.59 130.415C20.7767 130.572 18.4748 130.374 16.3033 129.05C14.036 127.667 12.7673 125.58 12.158 123.588L10.7855 119.1C10.1102 116.892 9.80134 114.602 9.80961 112.271L9.8283 107.146C9.83352 105.683 9.75926 104.218 9.60669 102.752L9.074 97.6259C8.81512 95.1375 8.98297 92.6573 9.55996 90.2191L10.7735 85.0934C10.9941 84.1612 11.0399 83.2711 10.9297 82.3865L10.2916 77.2608C10.0417 75.2551 9.92452 73.2441 9.94178 71.2315L9.98584 66.1058C9.99807 64.6779 9.9224 63.2477 9.75888 61.8144L9.17413 56.6888C8.87744 54.0889 9.09115 51.5045 9.8016 48.987L11.2167 43.9721C11.787 41.9514 12.5113 40.0036 13.3915 38.135L15.5329 33.5873C16.5243 31.483 17.7966 29.5527 19.3418 27.817L22.6621 24.0889C24.2395 22.317 26.0586 20.8203 28.1037 19.6213L32.3732 17.1185C34.0983 16.1072 35.8982 15.2298 37.7681 14.4863L42.4261 12.6349C44.7452 11.7128 47.1731 11.2261 49.6687 11.1666L54.7712 11.0452C56.717 10.9989 58.6654 11.0565 60.6147 11.2187L65.7413 11.6458C66.7435 11.7292 67.7576 11.6605 68.8039 11.4256L73.9304 10.275C76.5897 9.67783 79.2869 9.65614 81.9554 10.2149L87.0819 11.2881C87.9731 11.4747 88.8336 11.4919 89.704 11.3495L94.8305 10.5112C96.7547 10.1964 98.6838 9.97547 100.615 9.84917L105.742 9.51413Z" fill="#FF8CB7"/>
<path d="M105.742 9.51413C108.055 9.36296 110.36 9.51711 112.643 9.9693L117.769 10.9851C118.134 11.0574 118.439 11.113 118.689 11.1533C118.707 11.1561 118.725 11.1586 118.741 11.1613L119.008 11.0839L119.502 10.9597C121.952 10.4337 124.113 11.2908 125.498 12.4067C126.709 13.3825 127.34 14.5249 127.621 15.0869C128.219 16.2858 128.542 17.6012 128.743 18.5641L129.787 23.5523C130.113 25.1093 130.473 26.6466 130.866 28.1627L132.129 33.0307C132.472 34.3514 132.908 35.6625 133.44 36.9631L135.38 41.7016C135.634 42.3221 135.99 42.8283 136.495 43.2807L140.315 46.7031C141.59 47.8444 142.849 48.9735 144.092 50.0882L147.822 53.4305C148.8 54.3066 149.851 55.111 150.978 55.8439L155.235 58.6109C156.365 59.3455 157.57 60.008 158.851 60.5944L163.587 62.7622C164.245 63.0635 164.901 63.2015 165.624 63.192L170.831 63.1226C172.448 63.1012 174.051 63.0382 175.635 62.9343L180.753 62.5993C182.027 62.5158 183.286 62.3136 184.536 61.9893L189.528 60.6932C190.758 60.3739 191.953 59.9365 193.115 59.3771L197.794 57.1239C198.89 56.5964 199.914 55.9532 200.872 55.1885L204.945 51.9369C205.827 51.2332 206.59 50.4349 207.248 49.5316L210.304 45.3336C211.173 44.1401 211.968 42.9089 212.69 41.6389L215.237 37.1553C215.665 36.401 215.933 35.617 216.057 34.7633L216.793 29.6657C217.097 27.5698 217.584 25.508 218.249 23.4842L219.877 18.5254L220.098 17.9074C220.659 16.4502 221.567 14.8878 223.051 13.6066C224.839 12.0626 226.978 11.3478 229.087 11.2721L233.38 11.1186C234.572 11.0758 235.936 10.9617 237.481 10.7675L242.608 10.1241C244.621 9.87122 246.639 9.75427 248.66 9.77575L253.786 9.83048C255.69 9.85076 257.595 9.95294 259.496 10.1362L264.623 10.63C266.066 10.769 267.507 10.8224 268.947 10.7915L274.073 10.6821C275.954 10.6418 277.835 10.6718 279.714 10.7729L284.841 11.0492C286.039 11.1135 287.249 11.0448 288.479 10.8383L293.628 9.9733C296.552 9.48218 299.462 9.77638 302.228 10.8383L307.112 12.7123C308.622 13.2919 310.143 13.8278 311.674 14.3194L316.632 15.9119C319.28 16.7622 321.638 18.1738 323.646 20.0898L327.461 23.7285C329.233 25.419 330.721 27.3457 331.909 29.4881L334.468 34.1052C335.684 36.2982 336.52 38.6432 336.962 41.1103L337.89 46.284C338.285 48.4906 338.44 50.712 338.346 52.938L338.13 58.0903C338.065 59.6408 338.058 61.1866 338.108 62.7261L338.272 67.8518C338.336 69.8607 338.268 71.8694 338.067 73.8744L337.556 79.0001C337.426 80.3053 337.412 81.608 337.515 82.911L337.918 88.0367C338.09 90.2282 338.03 92.4207 337.738 94.6039L337.053 99.7296C336.859 101.181 336.749 102.629 336.723 104.073L336.63 109.199C336.6 110.832 336.596 112.468 336.62 114.101L336.643 115.709L338.575 115.907C341.021 116.158 343.383 116.763 345.625 117.74L350.335 119.792C351.913 120.479 353.48 121.167 355.036 121.853L359.678 123.898C361.688 124.783 363.585 125.884 365.358 127.191L369.48 130.227C371.197 131.492 372.787 132.911 374.247 134.476L377.77 138.255C379.317 139.913 380.65 141.736 381.763 143.714L384.308 148.236C385.557 150.457 386.384 152.844 386.774 155.362L387.566 160.477C387.829 162.178 388.091 163.86 388.351 165.522L389.132 170.52C389.438 172.482 389.616 174.469 389.667 176.477L389.798 181.632C389.861 184.119 389.508 186.564 388.746 188.933L387.165 193.847C386.481 195.973 385.566 197.998 384.423 199.911L381.799 204.302C380.753 206.053 379.586 207.715 378.3 209.284L375.092 213.195C373.737 214.848 372.231 216.352 370.578 217.702L366.68 220.888C365.43 221.91 364.169 222.969 362.898 224.067L358.95 227.476C356.831 229.305 354.375 230.585 351.658 231.269L346.621 232.537C344.843 232.985 343.055 233.393 341.258 233.761L338.399 234.346L338.261 235.41C338.162 236.175 338.126 237.225 338.217 238.612L338.553 243.738C338.672 245.54 338.754 247.344 338.798 249.146L338.923 254.272C338.972 256.28 338.889 258.287 338.675 260.291L338.126 265.416C337.943 267.127 337.76 268.839 337.575 270.55L337.021 275.676C336.88 276.978 336.856 278.276 336.95 279.574L337.32 284.7C337.449 286.487 337.547 288.274 337.614 290.062L337.806 295.19C337.889 297.421 337.718 299.637 337.292 301.826L336.315 306.841C335.928 308.826 335.401 310.787 334.738 312.72L333.049 317.648C332.142 320.294 330.67 322.634 328.681 324.597L324.957 328.272C323.112 330.094 320.98 331.533 318.589 332.542L313.86 334.538C312.077 335.291 310.271 335.95 308.444 336.512L303.634 337.992C301.464 338.66 299.232 339.041 296.955 339.139L291.843 339.356C289.955 339.437 288.064 339.443 286.172 339.371L281.045 339.176C279.594 339.121 278.143 339.148 276.69 339.258L271.564 339.643C269.338 339.811 267.113 339.726 264.9 339.391L259.774 338.614C258.367 338.401 256.966 338.285 255.57 338.264L250.443 338.188C248.967 338.167 247.491 338.221 246.012 338.35L240.886 338.796C239.17 338.945 237.452 339.092 235.736 339.236L233.173 339.452L232.696 339.491L232.149 341.333C231.752 342.669 231.34 344.129 230.916 345.711L229.601 350.61C229.133 352.35 228.619 354.097 228.057 355.852L226.469 360.819C225.65 363.376 224.337 365.688 222.557 367.7L219.104 371.6C217.795 373.079 216.414 374.483 214.962 375.811L211.141 379.304C209.34 380.951 207.317 382.289 205.096 383.298L200.396 385.434C198.461 386.313 196.467 387.012 194.421 387.524L189.506 388.755C187.968 389.14 186.423 389.563 184.87 390.026L179.926 391.499C177.132 392.331 174.256 392.414 171.419 391.745L166.394 390.558C164.904 390.206 163.415 389.921 161.927 389.7L156.885 388.951C154.525 388.601 152.257 387.906 150.103 386.875L145.474 384.661C143.556 383.743 141.732 382.657 140.008 381.405L135.838 378.377C134.079 377.099 132.459 375.656 130.985 374.053L127.478 370.241C125.931 368.56 124.607 366.71 123.514 364.704L121.035 360.157C119.927 358.123 119.096 355.975 118.55 353.728L117.337 348.733C116.909 346.972 116.521 345.206 116.173 343.436L115.408 339.553L112.735 338.483C112.431 338.362 111.903 338.232 111.015 338.276L105.889 338.534C104.133 338.622 102.377 338.692 100.621 338.744L95.494 338.895C93.8281 338.943 92.1617 339.008 90.4956 339.088L85.3691 339.335C83.7125 339.415 82.0555 339.513 80.3987 339.631L75.2721 339.996C73.3027 340.136 71.3313 340.162 69.3606 340.076L64.234 339.852C62.8287 339.79 61.4222 339.821 60.0139 339.946L54.886 340.404C52.344 340.631 49.8236 340.392 47.3644 339.707L42.3273 338.306C40.1571 337.702 38.0861 336.865 36.1313 335.79L31.7017 333.354C30.0442 332.442 28.4174 331.449 26.8234 330.378L22.5326 327.497C19.9909 325.789 18.0762 323.457 16.896 320.632L14.9041 315.864C14.1328 314.017 13.482 312.144 12.9576 310.247L11.6213 305.408C11.0983 303.516 10.6922 301.583 10.4037 299.611L9.65875 294.514C9.37728 292.59 9.19226 290.659 9.10471 288.722L8.87375 283.596C8.77001 281.3 8.96006 279.014 9.4358 276.754L10.5145 271.628C10.688 270.804 10.6945 270.011 10.5385 269.196L9.55729 264.071C9.15579 261.975 8.93898 259.866 8.91113 257.749L8.84304 252.623C8.81693 250.635 8.91337 248.648 9.13008 246.665L9.68946 241.539C9.82372 240.31 9.82809 239.086 9.70147 237.858L9.1728 232.732C8.97581 230.823 9.20151 228.558 10.4531 226.42C11.7165 224.261 13.6073 222.943 15.4422 222.194L20.0788 220.302C22.433 219.342 24.9086 218.849 27.4509 218.79L32.7096 218.669C33.018 218.661 33.1843 218.6 33.4132 218.424L37.5678 215.233C39.0704 214.079 40.5917 212.988 42.131 211.963L46.3551 209.149C47.1476 208.621 47.825 207.99 48.4084 207.237L51.5177 203.225C52.4388 202.037 53.3073 200.815 54.1237 199.56L56.8833 195.318C57.4244 194.485 57.8236 193.603 58.0901 192.649L59.4505 187.78C59.8462 186.364 60.1728 184.936 60.4318 183.495L61.3236 178.535C61.5203 177.441 61.5799 176.342 61.5012 175.227L61.1447 170.19C61.0567 168.946 60.8519 167.729 60.5306 166.534L59.2236 161.674C58.8092 160.132 58.3625 158.576 57.8819 157.007L56.3719 152.079C56.1164 151.245 55.7273 150.502 55.1851 149.813L51.993 145.758C51.0384 144.545 50.0307 143.363 48.9718 142.212L45.4419 138.378C44.8025 137.683 44.0774 137.126 43.2378 136.689L38.6105 134.281C37.224 133.559 35.8117 132.891 34.3744 132.279L29.5776 130.234C29.0188 129.996 28.4696 129.905 27.83 129.96L22.59 130.415C20.7767 130.572 18.4748 130.374 16.3033 129.05C14.036 127.667 12.7673 125.58 12.158 123.588L10.7855 119.1C10.1102 116.892 9.80134 114.602 9.80961 112.271L9.8283 107.146C9.83352 105.683 9.75926 104.218 9.60669 102.752L9.074 97.6259C8.81512 95.1375 8.98297 92.6573 9.55996 90.2191L10.7735 85.0934C10.9941 84.1612 11.0399 83.2711 10.9297 82.3865L10.2916 77.2608C10.0417 75.2551 9.92452 73.2441 9.94178 71.2315L9.98584 66.1058C9.99807 64.6779 9.9224 63.2477 9.75888 61.8144L9.17413 56.6888C8.87744 54.0889 9.09115 51.5045 9.8016 48.987L11.2167 43.9721C11.787 41.9514 12.5113 40.0036 13.3915 38.135L15.5329 33.5873C16.5243 31.483 17.7966 29.5527 19.3418 27.817L22.6621 24.0889C24.2395 22.317 26.0586 20.8203 28.1037 19.6213L32.3732 17.1185C34.0983 16.1072 35.8982 15.2298 37.7681 14.4863L42.4261 12.6349C44.7452 11.7128 47.1731 11.2261 49.6687 11.1666L54.7712 11.0452C56.717 10.9989 58.6654 11.0565 60.6147 11.2187L65.7413 11.6458C66.7435 11.7292 67.7576 11.6605 68.8039 11.4256L73.9304 10.275C76.5897 9.67783 79.2869 9.65614 81.9554 10.2149L87.0819 11.2881C87.9731 11.4747 88.8336 11.4919 89.704 11.3495L94.8305 10.5112C96.7547 10.1964 98.6838 9.97547 100.615 9.84917L105.742 9.51413Z" stroke="#BD002F" stroke-width="8.83909"/>
</g>
<defs>
<filter id="filter0_d_8_9711" x="1.14897" y="4.72069e-05" width="412.256" height="414.024" filterUnits="userSpaceOnUse" color-interpolation-filters="sRGB">
<feFlood flood-opacity="0" result="BackgroundImageFix"/>
<feColorMatrix in="SourceAlpha" type="matrix" values="0 0 0 0 0 0 0 0 0 0 0 0 0 0 0 0 0 0 127 0" result="hardAlpha"/>
<feOffset dx="7.95518" dy="6.18736"/>
<feGaussianBlur stdDeviation="5.61282"/>
<feComposite in2="hardAlpha" operator="out"/>
<feColorMatrix type="matrix" values="0 0 0 0 0 0 0 0 0 0 0 0 0 0 0 0 0 0 0.25 0"/>
<feBlend mode="normal" in2="BackgroundImageFix" result="effect1_dropShadow_8_9711"/>
<feBlend mode="normal" in="SourceGraphic" in2="effect1_dropShadow_8_9711" result="shape"/>
</filter>
</defs>
</svg>
