<svg width="57" height="57" viewBox="0 0 57 57" fill="none" xmlns="http://www.w3.org/2000/svg">
<path d="M0 28.5C0 12.7599 12.7599 0 28.5 0C44.2401 0 57 12.7599 57 28.5C57 44.2401 44.2401 57 28.5 57C12.7599 57 0 44.2401 0 28.5Z" fill="#0074EF"/>
<path d="M39.1667 23.1666H17.8333C17.097 23.1666 16.5 23.7636 16.5 24.5V27.1666C16.5 27.903 17.097 28.5 17.8333 28.5H39.1667C39.903 28.5 40.5 27.903 40.5 27.1666V24.5C40.5 23.7636 39.903 23.1666 39.1667 23.1666Z" stroke="#FFF9E9" stroke-width="2.66667" stroke-linecap="round" stroke-linejoin="round"/>
<path d="M28.5 23.1666V40.5" stroke="#FFF9E9" stroke-width="2.66667" stroke-linecap="round" stroke-linejoin="round"/>
<path d="M37.8332 28.5V37.8333C37.8332 38.5406 37.5522 39.2189 37.0521 39.719C36.552 40.219 35.8737 40.5 35.1665 40.5H21.8332C21.1259 40.5 20.4476 40.219 19.9476 39.719C19.4475 39.2189 19.1665 38.5406 19.1665 37.8333V28.5" stroke="#FFF9E9" stroke-width="2.66667" stroke-linecap="round" stroke-linejoin="round"/>
<path d="M22.4998 23.1666C21.6158 23.1666 20.7679 22.8155 20.1428 22.1903C19.5177 21.5652 19.1665 20.7174 19.1665 19.8333C19.1665 18.9493 19.5177 18.1014 20.1428 17.4763C20.7679 16.8512 21.6158 16.5 22.4998 16.5C23.7861 16.4776 25.0465 17.1017 26.1168 18.2909C27.1871 19.4801 28.0175 21.1792 28.4998 23.1666C28.9821 21.1792 29.8126 19.4801 30.8829 18.2909C31.9531 17.1017 33.2136 16.4776 34.4998 16.5C35.3839 16.5 36.2317 16.8512 36.8569 17.4763C37.482 18.1014 37.8332 18.9493 37.8332 19.8333C37.8332 20.7174 37.482 21.5652 36.8569 22.1903C36.2317 22.8155 35.3839 23.1666 34.4998 23.1666" stroke="#FFF9E9" stroke-width="2.66667" stroke-linecap="round" stroke-linejoin="round"/>
</svg>
