<svg width="413" height="270" viewBox="0 0 413 270" fill="none" xmlns="http://www.w3.org/2000/svg">
<g filter="url(#filter0_dd_8_9621)">
<path d="M366.899 2.00464C370.115 2.03507 373.332 2.17207 376.547 2.41479C379.598 2.64524 382.657 2.67729 385.708 2.49292C389.136 2.28522 392.53 2.60696 395.864 3.46948C399.512 4.41381 402.466 6.43711 404.594 9.50464C406.637 12.4501 407.759 15.7485 407.954 19.3289C408.123 22.4473 408.295 25.5961 408.461 28.7625C408.633 32.0241 408.601 35.2862 408.383 38.5476C408.177 41.6315 408.118 44.7219 408.208 47.8054C408.301 50.999 408.341 54.2017 408.325 57.3953C408.309 60.5642 408.281 63.7381 408.247 66.907C408.213 70.0149 408.296 73.1347 408.481 76.2429C408.676 79.511 408.663 82.7797 408.442 86.0476C408.236 89.0784 408.277 92.1176 408.559 95.1492C408.862 98.4009 409.002 101.662 408.969 104.915C408.937 108.104 408.855 111.296 408.735 114.485C408.615 117.675 408.44 120.866 408.227 124.055C408.02 127.147 407.961 130.241 408.032 133.333C408.103 136.438 408.281 139.543 408.579 142.649C408.892 145.916 409.015 149.185 408.93 152.454C408.847 155.664 408.678 158.873 408.422 162.083C408.175 165.186 408.041 168.297 408.032 171.399C408.023 174.524 408.076 177.649 408.208 180.774C408.34 183.909 408.543 187.053 408.793 190.188C409.051 193.411 409.189 196.633 409.223 199.856C409.258 203.144 409.048 206.435 408.598 209.719C408.183 212.746 408.029 215.778 408.129 218.802C408.234 221.951 408.359 225.105 408.52 228.255C408.684 231.466 408.762 234.692 408.754 237.903C408.746 241.147 408.579 244.37 408.247 247.571C407.884 251.065 406.783 254.327 404.946 257.317C402.948 260.569 400.011 262.655 396.274 263.489C393.074 264.203 389.831 264.689 386.547 264.934C383.289 265.178 380.021 265.231 376.762 265.11C373.647 264.994 370.521 264.973 367.407 265.052C364.144 265.133 360.883 265.023 357.622 264.719C354.607 264.439 351.593 264.445 348.579 264.719C345.337 265.015 342.094 265.151 338.852 265.149C335.584 265.148 332.313 264.954 329.047 264.544C325.995 264.16 322.937 263.981 319.887 264.016C316.814 264.052 313.724 264.262 310.649 264.641C307.291 265.055 303.929 265.07 300.571 264.68C297.539 264.328 294.498 264.221 291.469 264.368C288.221 264.525 284.972 264.508 281.723 264.329C278.713 264.163 275.694 264.285 272.68 264.68C269.363 265.116 266.04 265.24 262.719 265.052C259.597 264.874 256.466 264.76 253.344 264.739C250.139 264.718 246.92 264.635 243.715 264.466C240.675 264.305 237.636 264.369 234.594 264.661C231.252 264.982 227.896 264.951 224.555 264.563C221.503 264.21 218.446 264.053 215.395 264.114C212.2 264.178 209.001 264.188 205.805 264.134C202.661 264.08 199.516 264.062 196.372 264.075C193.226 264.088 190.064 264.138 186.918 264.231C183.807 264.324 180.695 264.508 177.583 264.798C174.242 265.108 170.902 265.075 167.563 264.68C164.493 264.318 161.413 264.135 158.344 264.134C155.239 264.132 152.134 264.248 149.028 264.466C145.767 264.694 142.504 264.73 139.243 264.583C136.171 264.444 133.096 264.471 130.024 264.68C126.783 264.901 123.539 264.984 120.297 264.915C117.167 264.848 114.034 264.848 110.903 264.915C107.713 264.983 104.522 264.997 101.333 264.973C98.1489 264.95 94.9653 264.892 91.7817 264.798C88.6351 264.705 85.4752 264.659 82.3286 264.641C79.2255 264.625 76.1157 264.707 73.0122 264.915C69.6839 265.137 66.357 265.035 63.0317 264.602C60.0377 264.212 57.0387 264.147 54.0474 264.387C50.8382 264.646 47.628 264.809 44.4185 264.895C41.1826 264.982 37.947 264.931 34.7114 264.739C31.6676 264.558 28.6153 264.595 25.5708 264.856C21.973 265.165 18.5301 264.562 15.2974 263.04C12.1573 261.561 9.44194 259.507 7.17236 256.887C4.74982 254.09 3.46121 250.754 3.30518 247.005C3.16771 243.694 3.2421 240.399 3.55908 237.122C3.84948 234.123 3.85175 231.117 3.53955 228.118C3.19826 224.842 3.07312 221.552 3.16846 218.274C3.26102 215.094 3.38298 211.904 3.53955 208.723C3.69046 205.651 3.66666 202.577 3.48096 199.505C3.2808 196.191 3.38621 192.875 3.77393 189.563C4.12976 186.523 4.25441 183.48 4.14502 180.442C4.02973 177.239 3.97738 174.036 4.0083 170.833C4.03892 167.663 4.08875 164.491 4.14502 161.321C4.19904 158.279 4.02969 155.226 3.63721 152.18C3.20345 148.817 3.18005 145.447 3.55908 142.083C3.90756 138.994 4.10943 135.893 4.16455 132.805C4.21899 129.743 4.07506 126.67 3.75439 123.606C3.41695 120.379 3.21735 117.147 3.12939 113.919C3.04119 110.676 3.10479 107.434 3.32471 104.192C3.53708 101.064 3.66659 97.9259 3.73486 94.7976C3.80234 91.7015 3.74932 88.5972 3.55908 85.5007C3.36282 82.3045 3.22112 79.1073 3.14893 75.9109C3.07676 72.7149 3.06763 69.5171 3.10986 66.321C3.15167 63.1575 3.1755 59.9924 3.20752 56.8289C3.23916 53.6999 3.21776 50.5634 3.10986 47.4343C2.99934 44.2254 2.97025 41.0144 3.03174 37.8054C3.09336 34.592 3.23613 31.37 3.48096 28.157C3.71824 25.041 3.87182 21.9041 3.93018 18.7625C4.00201 14.9969 5.28761 11.6237 7.71924 8.72339C10.0247 5.97421 12.6789 4.03173 15.7271 3.15698C16.9693 2.80127 17.9787 2.54033 18.6958 2.39526C19.03 2.32771 19.4383 2.27102 19.8091 2.25854C19.9616 2.25354 20.3493 2.2434 20.7856 2.37573C20.8559 2.39709 20.9184 2.48906 21.02 2.53198C21.0417 2.5351 21.069 2.52833 21.0981 2.53198C21.2012 2.54489 21.3364 2.55698 21.5083 2.57104C22.2154 2.62883 23.3365 2.68226 24.9067 2.70776C28.0181 2.75826 31.1311 2.70684 34.2427 2.55151C37.5224 2.38779 40.8075 2.44591 44.0864 2.72729C47.1338 2.98857 50.1805 3.03536 53.2271 2.86401C56.482 2.68093 59.7377 2.67038 62.9927 2.84448C66.1009 3.01104 69.2206 3.07247 72.3286 3.02026C75.464 2.96756 78.6072 2.8549 81.7427 2.68823C84.9262 2.51907 88.1098 2.38642 91.2935 2.29761C94.5739 2.20614 97.8586 2.35257 101.137 2.70776C104.109 3.02964 107.09 2.98627 110.063 2.61011C113.342 2.19568 116.625 2.02735 119.907 2.08276C123.148 2.13764 126.393 2.33647 129.633 2.68823C132.66 3.01693 135.69 3.10118 138.715 2.92261C141.923 2.73293 145.136 2.62842 148.344 2.61011C151.57 2.59186 154.806 2.68047 158.032 2.90308C161.069 3.11289 164.115 3.08714 167.153 2.82495C170.381 2.54633 173.611 2.40593 176.84 2.37573C180.016 2.34614 183.196 2.33923 186.372 2.3562C189.545 2.37321 192.729 2.38988 195.903 2.43433C199.123 2.47942 202.351 2.63229 205.571 2.88354C208.625 3.12149 211.678 3.16392 214.731 3.00073C217.926 2.82978 221.125 2.70523 224.321 2.64917C227.527 2.59297 230.744 2.61299 233.95 2.70776C237.119 2.80149 240.292 2.90477 243.461 3.02026C246.547 3.1326 249.634 3.10859 252.719 2.92261C255.876 2.73234 259.035 2.52409 262.192 2.29761C265.48 2.06185 268.768 2.06572 272.055 2.31714C275.134 2.55273 278.215 2.62086 281.293 2.53198C284.46 2.44048 287.638 2.3496 290.805 2.25854C294 2.16681 297.2 2.13243 300.395 2.16089C303.539 2.18885 306.685 2.19287 309.829 2.14136C313.004 2.08933 316.184 2.03917 319.36 2.02417C322.62 2.00893 325.886 2.1955 329.145 2.55151C332.167 2.88124 335.188 2.94789 338.208 2.76636C341.451 2.57082 344.71 2.52673 347.954 2.62964C351.02 2.72666 354.086 2.6382 357.153 2.37573C360.398 2.09796 363.653 1.97409 366.899 2.00464ZM366.84 7.00464C363.755 6.97573 360.669 7.09208 357.583 7.3562C354.322 7.6353 351.059 7.73277 347.797 7.62964C344.708 7.53162 341.609 7.56062 338.52 7.74683C335.213 7.94624 331.904 7.87347 328.598 7.51245C325.525 7.17672 322.451 7.00967 319.379 7.02417C316.222 7.03908 313.064 7.07011 309.907 7.12183C306.72 7.17403 303.524 7.18928 300.336 7.16089C297.205 7.13311 294.073 7.16854 290.942 7.25854C287.775 7.34959 284.597 7.44049 281.43 7.53198C278.181 7.62552 274.933 7.54595 271.684 7.29761C268.64 7.0647 265.587 7.05971 262.543 7.27808C259.368 7.50588 256.187 7.7117 253.012 7.90308C249.77 8.09832 246.528 8.13813 243.286 8.02026C240.125 7.90509 236.954 7.80121 233.793 7.70776C230.669 7.61539 227.543 7.5945 224.418 7.64917C221.283 7.70414 218.14 7.8135 215.004 7.9812C211.73 8.15635 208.454 8.11919 205.18 7.86401C202.066 7.62101 198.938 7.47792 195.825 7.43433C192.668 7.39015 189.509 7.37312 186.352 7.3562C183.201 7.33933 180.05 7.34641 176.899 7.37573C173.797 7.40464 170.686 7.53764 167.583 7.80542C164.289 8.08967 160.994 8.13038 157.7 7.90308C154.595 7.68865 151.487 7.59259 148.383 7.61011C145.261 7.62776 142.131 7.71846 139.008 7.90308C135.707 8.09789 132.405 8.02649 129.106 7.6687C126.016 7.33311 122.918 7.13516 119.829 7.08276C116.784 7.03123 113.735 7.1859 110.688 7.57104C107.328 7.99611 103.951 8.03281 100.59 7.6687C97.5383 7.33843 94.4804 7.21256 91.4302 7.29761C88.2869 7.38531 85.1399 7.52114 81.9966 7.68823C78.8011 7.85805 75.6024 7.96659 72.4067 8.02026C69.184 8.07433 65.9612 8.01705 62.7388 7.84448C59.6634 7.67968 56.5759 7.67151 53.5005 7.84448C50.2188 8.02873 46.9377 7.98919 43.6567 7.70776C40.6036 7.44576 37.5489 7.39931 34.4966 7.55151C31.2755 7.71231 28.0499 7.76001 24.8286 7.70776C23.233 7.68187 21.9741 7.64263 21.0981 7.57104C20.6774 7.53661 20.2457 7.47152 19.8872 7.39526C19.8163 7.38007 19.7273 7.33046 19.6138 7.29761C19.0949 7.40639 18.2753 7.62911 17.1138 7.96167C15.2435 8.49722 13.3782 9.74458 11.5474 11.9265C9.84161 13.9611 8.97955 16.2469 8.93018 18.8601C8.87 22.0997 8.72592 25.3329 8.48096 28.5476C8.24333 31.6664 8.09151 34.7846 8.03174 37.9031C7.97191 41.025 7.98268 44.1561 8.09033 47.2781C8.20059 50.4791 8.23991 53.6863 8.20752 56.8875C8.17549 60.0515 8.15167 63.2156 8.10986 66.3796C8.06844 69.5146 8.07819 72.6587 8.14893 75.7937C8.21971 78.928 8.34698 82.0733 8.53955 85.2078C8.7381 88.4418 8.80546 91.6804 8.73486 94.9148C8.66488 98.118 8.52259 101.321 8.30518 104.524C8.0957 107.61 8.02598 110.697 8.10986 113.782C8.19439 116.884 8.4101 119.995 8.73486 123.098C9.07657 126.365 9.2229 129.635 9.16455 132.903C9.10657 136.146 8.88552 139.388 8.52002 142.63C8.18532 145.596 8.21536 148.568 8.59814 151.536C9.0219 154.822 9.20337 158.11 9.14502 161.399C9.08895 164.556 9.03882 167.715 9.0083 170.872C8.97808 174 9.03237 177.138 9.14502 180.266C9.26359 183.561 9.12026 186.857 8.73486 190.149C8.38146 193.169 8.29856 196.194 8.48096 199.212C8.67743 202.467 8.69974 205.722 8.53955 208.977C8.38448 212.127 8.26007 215.281 8.16846 218.43C8.07976 221.483 8.18263 224.536 8.50049 227.591C8.84746 230.921 8.86174 234.259 8.53955 237.591C8.2441 240.642 8.15718 243.722 8.28564 246.809C8.39689 249.458 9.28509 251.691 10.9419 253.606C12.7548 255.7 14.914 257.345 17.4263 258.528C19.8467 259.667 22.4069 260.11 25.1411 259.876C28.4269 259.594 31.718 259.563 35.0044 259.759C38.0969 259.942 41.1895 259.978 44.2817 259.895C47.4038 259.811 50.5343 259.658 53.6567 259.407C56.9972 259.139 60.3386 259.207 63.6763 259.641C66.6798 260.033 69.6797 260.135 72.6802 259.934C75.9069 259.718 79.1406 259.624 82.3677 259.641C85.5512 259.659 88.7349 259.704 91.9185 259.798C95.0667 259.891 98.2234 259.95 101.372 259.973C104.514 259.997 107.663 259.982 110.805 259.915H125.043C126.586 259.879 128.129 259.805 129.672 259.7C132.931 259.478 136.199 259.435 139.458 259.583C142.528 259.722 145.605 259.681 148.676 259.466C151.898 259.24 155.122 259.132 158.344 259.134C161.609 259.135 164.886 259.334 168.149 259.719C171.138 260.072 174.126 260.095 177.114 259.817C180.333 259.518 183.562 259.327 186.782 259.231C189.965 259.137 193.149 259.089 196.333 259.075C199.517 259.061 202.718 259.079 205.903 259.134C209.034 259.187 212.166 259.176 215.297 259.114C218.578 259.049 221.863 259.203 225.141 259.583C228.131 259.929 231.117 259.967 234.106 259.68C237.395 259.364 240.698 259.292 243.989 259.466C247.114 259.63 250.239 259.718 253.364 259.739C256.572 259.76 259.785 259.869 262.993 260.052C266.002 260.223 269.023 260.115 272.036 259.719C275.352 259.285 278.677 259.146 281.997 259.329C285.075 259.499 288.157 259.517 291.235 259.368C294.536 259.208 297.838 259.316 301.137 259.7C304.105 260.045 307.075 260.047 310.043 259.68C313.301 259.278 316.569 259.054 319.829 259.016C323.108 258.978 326.395 259.171 329.672 259.583C332.733 259.967 335.794 260.148 338.852 260.149C341.942 260.151 345.038 260.02 348.129 259.739C351.447 259.437 354.773 259.43 358.09 259.739C361.157 260.024 364.224 260.129 367.29 260.052C370.506 259.971 373.722 259.99 376.938 260.11C380.009 260.225 383.086 260.164 386.157 259.934C389.202 259.707 392.215 259.267 395.18 258.606C397.611 258.064 399.404 256.789 400.688 254.7C402.132 252.349 403 249.813 403.286 247.063C403.601 244.026 403.747 240.966 403.754 237.884L403.54 228.509C403.378 225.331 403.235 222.155 403.129 218.977C403.02 215.67 403.204 212.359 403.657 209.055C404.075 206.009 404.255 202.958 404.223 199.915C404.19 196.806 404.062 193.688 403.813 190.579C403.558 187.383 403.362 184.185 403.227 180.989C403.092 177.786 403.023 174.583 403.032 171.38C403.041 168.15 403.185 164.921 403.442 161.692C403.691 158.57 403.849 155.439 403.93 152.317C404.009 149.254 403.892 146.182 403.598 143.118C403.289 139.896 403.106 136.673 403.032 133.45C402.957 130.209 403.03 126.964 403.247 123.723C403.457 120.581 403.617 117.432 403.735 114.29C403.853 111.147 403.938 107.999 403.969 104.856C404 101.778 403.866 98.6973 403.579 95.6179C403.271 92.3186 403.218 89.0157 403.442 85.7156C403.649 82.6555 403.663 79.5958 403.481 76.5359C403.289 73.3135 403.212 70.0906 403.247 66.8679C403.281 63.7063 403.309 60.5373 403.325 57.3757C403.341 54.2379 403.299 51.0995 403.208 47.9617C403.113 44.7149 403.186 41.4619 403.403 38.2156C403.607 35.15 403.623 32.0817 403.461 29.0164C403.295 25.8543 403.123 22.7164 402.954 19.6023C402.809 16.9459 401.989 14.5406 400.473 12.3562C399.043 10.2958 397.126 8.96365 394.614 8.31323C391.786 7.5813 388.924 7.29761 386.02 7.47339C382.74 7.67209 379.456 7.64299 376.176 7.39526C373.066 7.16036 369.951 7.03391 366.84 7.00464ZM17.6216 4.81714C17.6216 5.18104 17.7135 5.52181 17.856 5.83276C17.7296 5.54776 17.6216 5.21419 17.6216 4.81714ZM22.3677 3.78198C22.2268 3.48441 22.066 3.24827 21.9185 3.09839C22.1054 3.29928 22.2526 3.52738 22.3677 3.78198ZM21.3911 2.72729C21.3323 2.694 21.2867 2.645 21.2544 2.62964C21.2197 2.6134 21.1861 2.60254 21.1567 2.59058C21.234 2.62865 21.3069 2.67392 21.3911 2.72729Z" fill="#E8642F"/>
</g>
<defs>
<filter id="filter0_dd_8_9621" x="0" y="0" width="412.227" height="269.173" filterUnits="userSpaceOnUse" color-interpolation-filters="sRGB">
<feFlood flood-opacity="0" result="BackgroundImageFix"/>
<feColorMatrix in="SourceAlpha" type="matrix" values="0 0 0 0 0 0 0 0 0 0 0 0 0 0 0 0 0 0 127 0" result="hardAlpha"/>
<feMorphology radius="1" operator="erode" in="SourceAlpha" result="effect1_dropShadow_8_9621"/>
<feOffset dy="1"/>
<feGaussianBlur stdDeviation="1"/>
<feComposite in2="hardAlpha" operator="out"/>
<feColorMatrix type="matrix" values="0 0 0 0 0 0 0 0 0 0 0 0 0 0 0 0 0 0 0.1 0"/>
<feBlend mode="normal" in2="BackgroundImageFix" result="effect1_dropShadow_8_9621"/>
<feColorMatrix in="SourceAlpha" type="matrix" values="0 0 0 0 0 0 0 0 0 0 0 0 0 0 0 0 0 0 127 0" result="hardAlpha"/>
<feOffset dy="1"/>
<feGaussianBlur stdDeviation="1.5"/>
<feComposite in2="hardAlpha" operator="out"/>
<feColorMatrix type="matrix" values="0 0 0 0 0 0 0 0 0 0 0 0 0 0 0 0 0 0 0.1 0"/>
<feBlend mode="normal" in2="effect1_dropShadow_8_9621" result="effect2_dropShadow_8_9621"/>
<feBlend mode="normal" in="SourceGraphic" in2="effect2_dropShadow_8_9621" result="shape"/>
</filter>
</defs>
</svg>
