<svg width="1046" height="133" viewBox="0 0 1046 133" fill="none" xmlns="http://www.w3.org/2000/svg">
<g filter="url(#filter0_dd_8_9670)">
<path d="M7.91162 18.1578C7.91162 10.4258 14.1796 4.15778 21.9116 4.15778H1023.91C1031.64 4.15778 1037.91 10.4258 1037.91 18.1578V106.158C1037.91 113.89 1031.64 120.158 1023.91 120.158H21.9116C14.1796 120.158 7.91162 113.89 7.91162 106.158V18.1578Z" fill="#FFF9E9" shape-rendering="crispEdges"/>
<path d="M45.6616 4.52059L45.7802 7.01778L45.6616 4.52059ZM55.1616 4.55791L55.0235 7.05409V7.05409L55.1616 4.55791ZM140.662 3.96899L140.449 1.47807L140.662 3.96899ZM159.662 4.26769L159.865 1.77595L159.662 4.26769ZM216.662 4.41718L216.649 6.91715L216.662 4.41718ZM226.162 4.01362L225.938 1.52366L226.162 4.01362ZM245.162 4.05777L245.059 1.55987L245.162 4.05777ZM254.662 4.04375L254.567 6.54195L254.662 4.04375ZM349.662 3.85163L349.635 1.35177L349.662 3.85163ZM520.662 4.21016L520.874 1.71924L520.662 4.21016ZM530.162 4.68047L530.128 7.18024L530.162 4.68047ZM653.662 3.65653L653.619 6.15616L653.662 3.65653ZM739.162 4.1161L739.175 1.61614L739.162 4.1161ZM796.162 4.12623L796.238 1.62741L796.162 4.12623ZM900.662 3.98155L900.535 1.48478L900.662 3.98155ZM910.162 3.62751L910.221 6.12681L910.162 3.62751ZM938.662 3.85533L938.708 6.3549L938.662 3.85533ZM995.662 4.23148L995.815 1.73618L995.662 4.23148ZM1024.01 4.85326L1024.39 2.38276L1024.01 4.85326ZM1032.43 8.20234L1033.85 6.14408L1032.43 8.20234ZM1038.06 24.9158L1035.57 24.7463L1038.06 24.9158ZM1037.91 34.4158L1035.41 34.5069L1037.91 34.4158ZM1038.25 43.9158L1040.75 43.8303L1038.25 43.9158ZM1037.48 72.4157L1034.99 72.3272L1037.48 72.4157ZM1031.04 117.227L1032.68 119.109L1031.04 117.227ZM994.146 119.784L994.079 122.283L994.146 119.784ZM965.646 119.971L965.544 122.469L965.646 119.971ZM927.646 120.474L927.516 122.971L927.646 120.474ZM899.146 120.106L899.347 122.598L899.146 120.106ZM889.646 120.524L889.628 118.024L889.646 120.524ZM861.146 120.395L861.324 117.902L861.146 120.395ZM842.146 120.197L841.95 117.705L842.146 120.197ZM832.646 120.02L832.359 122.504L832.646 120.02ZM823.146 119.838L823.338 122.33L823.146 119.838ZM747.146 119.886L746.957 117.393L747.146 119.886ZM737.646 119.956L737.797 117.461L737.646 119.956ZM728.146 120.192L727.872 117.707L728.146 120.192ZM718.646 120.123L718.336 122.603L718.646 120.123ZM699.646 120.318L699.553 117.819L699.646 120.318ZM661.646 119.95L661.475 117.456L661.646 119.95ZM652.146 120.028L652.015 122.525L652.146 120.028ZM642.646 119.786L642.643 117.286L642.646 119.786ZM633.146 120.316L633.42 122.801L633.146 120.316ZM614.146 120.325L614.321 122.819L614.146 120.325ZM604.646 120.255L604.434 122.746L604.646 120.255ZM595.146 119.719L595.076 122.218L595.146 119.719ZM585.646 119.593L585.642 117.093L585.646 119.593ZM566.646 120.154L566.482 117.66L566.646 120.154ZM538.146 119.88L538.08 117.38L538.146 119.88ZM519.146 120.29L519.33 122.783L519.146 120.29ZM500.146 120.061L500.25 122.559L500.146 120.061ZM490.646 120.116L490.721 117.617L490.646 120.116ZM433.646 120.187L433.565 122.686L433.646 120.187ZM338.646 119.633L338.673 117.133L338.646 119.633ZM300.646 120.485L300.566 117.986L300.646 120.485ZM281.646 120.468L281.757 117.97L281.646 120.468ZM272.146 120.315L272.177 122.815L272.146 120.315ZM177.146 119.93L177.034 122.427L177.146 119.93ZM158.146 120.427L158.02 117.93L158.146 120.427ZM148.646 120.601L148.611 123.101L148.646 120.601ZM129.646 120.103L129.62 122.603L129.646 120.103ZM101.146 120.131L101.335 117.638L101.146 120.131ZM82.1457 120.086L82.3558 122.577L82.1457 120.086ZM53.6457 120.152L53.3245 117.672L53.6457 120.152ZM44.1457 120.244L44.4196 117.759L44.1457 120.244ZM25.1641 119.661L25.2146 122.161L25.1641 119.661ZM16.1661 117.949L15.1907 120.251L16.1661 117.949ZM12.1073 9.3911L10.3091 7.65435L12.1073 9.3911ZM18.6227 5.09983L17.9286 2.69811L18.6227 5.09983ZM26.6616 3.88798L26.8034 6.38396C29.8236 6.21241 32.8442 6.30585 35.8669 6.66473L36.1616 4.18217L36.4564 1.69961C33.1457 1.30651 29.8329 1.20382 26.5199 1.392L26.6616 3.88798ZM36.1616 4.18217L35.8669 6.66473C39.1699 7.05691 42.4748 7.17474 45.7802 7.01778L45.6616 4.52059L45.543 2.02341C42.5151 2.16719 39.4867 2.05941 36.4564 1.69961L36.1616 4.18217ZM45.6616 4.52059L45.7802 7.01778C48.8613 6.87147 51.9423 6.88357 55.0235 7.05409L55.1616 4.55791L55.2998 2.06173C52.0476 1.88175 48.7953 1.86897 45.543 2.02341L45.6616 4.52059ZM55.1616 4.55791L55.0235 7.05409C58.3463 7.23798 61.6684 7.11107 64.9879 6.67407L64.6616 4.19545L64.3353 1.71684C61.3215 2.1136 58.3103 2.22834 55.2998 2.06173L55.1616 4.55791ZM64.6616 4.19545L64.9879 6.67407C68.0195 6.27497 71.0487 6.12702 74.077 6.22961L74.1616 3.73104L74.2463 1.23247C70.9412 1.12051 67.6371 1.28217 64.3353 1.71684L64.6616 4.19545ZM74.1616 3.73104L74.077 6.22961C77.2253 6.33626 80.3737 6.47756 83.5221 6.65349L83.6616 4.15738L83.8011 1.66128C80.6162 1.4833 77.4312 1.34037 74.2463 1.23247L74.1616 3.73104ZM83.6616 4.15738L83.5221 6.65349C86.7503 6.83388 89.9786 6.8948 93.207 6.83623L93.1616 4.33664L93.1163 1.83705C90.0113 1.89338 86.9063 1.8348 83.8011 1.66128L83.6616 4.15738ZM93.1616 4.33664L93.207 6.83623C96.347 6.77926 99.487 6.77256 102.627 6.81613L102.662 4.31637L102.696 1.81661C99.503 1.7723 96.3096 1.77912 93.1163 1.83705L93.1616 4.33664ZM102.662 4.31637L102.627 6.81613C105.782 6.8599 108.937 6.92544 112.092 7.01276L112.162 4.51372L112.231 2.01467C109.053 1.92672 105.874 1.8607 102.696 1.81661L102.662 4.31637ZM112.162 4.51372L112.092 7.01276C115.3 7.10153 118.508 7.1113 121.716 7.04207L121.662 4.54266L121.608 2.04324C118.482 2.11069 115.356 2.10117 112.231 2.01467L112.162 4.51372ZM121.662 4.54266L121.716 7.04207C124.87 6.974 128.024 6.92915 131.179 6.90753L131.162 4.40759L131.144 1.90765C127.966 1.92944 124.787 1.97463 121.608 2.04324L121.662 4.54266ZM131.162 4.40759L131.179 6.90753C134.411 6.88537 137.643 6.73614 140.875 6.4599L140.662 3.96899L140.449 1.47807C137.347 1.74322 134.246 1.88639 131.144 1.90765L131.162 4.40759ZM140.662 3.96899L140.875 6.4599C143.943 6.19761 147.011 6.11782 150.078 6.22041L150.162 3.72181L150.245 1.22321C146.979 1.11398 143.714 1.19897 140.449 1.47807L140.662 3.96899ZM150.162 3.72181L150.078 6.22041C153.205 6.32499 156.332 6.50465 159.459 6.75943L159.662 4.26769L159.865 1.77595C156.658 1.51471 153.452 1.33046 150.245 1.22321L150.162 3.72181ZM159.662 4.26769L159.459 6.75943C162.767 7.02896 166.075 7.01647 169.383 6.722L169.162 4.23184L168.94 1.74169C165.914 2.01103 162.89 2.02243 159.865 1.77595L159.662 4.26769ZM169.162 4.23184L169.383 6.722C172.465 6.44761 175.547 6.33103 178.628 6.37213L178.662 3.87236L178.695 1.37258C175.443 1.32919 172.191 1.45227 168.94 1.74169L169.162 4.23184ZM178.662 3.87236L178.628 6.37213C181.814 6.41464 185.001 6.41975 188.187 6.38745L188.162 3.88758L188.136 1.38771C184.989 1.41961 181.842 1.41457 178.695 1.37258L178.662 3.87236ZM188.162 3.88758L188.187 6.38745C191.357 6.35531 194.528 6.31601 197.698 6.26955L197.662 3.76982L197.625 1.27008C194.462 1.31644 191.299 1.35564 188.136 1.38771L188.162 3.88758ZM197.662 3.76982L197.698 6.26955C200.792 6.22421 203.885 6.31448 206.98 6.54041L207.162 4.04705L207.344 1.55369C204.104 1.31716 200.865 1.2226 197.625 1.27008L197.662 3.76982ZM207.162 4.04705L206.98 6.54041C210.203 6.77576 213.426 6.90135 216.649 6.91715L216.662 4.41718L216.674 1.91721C213.564 1.90197 210.454 1.78081 207.344 1.55369L207.162 4.04705ZM216.662 4.41718L216.649 6.91715C219.895 6.93306 223.141 6.79517 226.385 6.50359L226.162 4.01362L225.938 1.52366C222.849 1.80119 219.761 1.93235 216.674 1.91721L216.662 4.41718ZM226.162 4.01362L226.385 6.50359C229.42 6.23092 232.453 6.20093 235.487 6.41351L235.662 3.91963L235.836 1.42574C232.537 1.19453 229.237 1.22721 225.938 1.52366L226.162 4.01362ZM235.662 3.91963L235.487 6.41351C238.746 6.64186 242.005 6.68927 245.264 6.55568L245.162 4.05777L245.059 1.55987C241.985 1.68588 238.911 1.64119 235.836 1.42574L235.662 3.91963ZM245.162 4.05777L245.264 6.55568C248.365 6.42857 251.466 6.424 254.567 6.54195L254.662 4.04375L254.757 1.54556C251.524 1.4226 248.292 1.42738 245.059 1.55987L245.162 4.05777ZM254.662 4.04375L254.567 6.54195C257.712 6.66158 260.857 6.82198 264.002 7.02314L264.162 4.52824L264.321 2.03334C261.133 1.82942 257.945 1.66683 254.757 1.54556L254.662 4.04375ZM264.162 4.52824L264.002 7.02314C267.319 7.23531 270.636 7.14784 273.951 6.76115L273.662 4.27798L273.372 1.79482C270.354 2.14689 267.337 2.22626 264.321 2.03334L264.162 4.52824ZM273.662 4.27798L273.951 6.76115C276.93 6.41369 279.907 6.40572 282.885 6.73715L283.162 4.25248L283.438 1.76782C280.083 1.39449 276.727 1.40352 273.372 1.79482L273.662 4.27798ZM283.162 4.25248L282.885 6.73715C286.149 7.10038 289.415 7.2696 292.681 7.24456L292.662 4.74463L292.642 2.24471C289.575 2.26822 286.507 2.10934 283.438 1.76782L283.162 4.25248ZM292.662 4.74463L292.681 7.24456C295.927 7.21967 299.172 7.04052 302.417 6.70725L302.162 4.22033L301.906 1.73341C298.818 2.05065 295.73 2.22103 292.642 2.24471L292.662 4.74463ZM302.162 4.22033L302.417 6.70725C305.495 6.3911 308.572 6.24107 311.649 6.25697L311.662 3.75701L311.675 1.25704C308.418 1.2402 305.162 1.39905 301.906 1.73341L302.162 4.22033ZM311.662 3.75701L311.649 6.25697C314.782 6.27317 317.915 6.35282 321.048 6.49591L321.162 3.99852L321.276 1.50112C318.075 1.35495 314.875 1.27359 311.675 1.25704L311.662 3.75701ZM321.162 3.99852L321.048 6.49591C324.237 6.64157 327.426 6.74415 330.615 6.80367L330.662 4.3041L330.708 1.80454C327.564 1.74586 324.42 1.64473 321.276 1.50112L321.162 3.99852ZM330.662 4.3041L330.615 6.80367C333.84 6.86385 337.066 6.81062 340.291 6.644L340.162 4.14733L340.033 1.65066C336.924 1.81125 333.816 1.86253 330.708 1.80454L330.662 4.3041ZM340.162 4.14733L340.291 6.644C343.423 6.48216 346.556 6.38466 349.688 6.35149L349.662 3.85163L349.635 1.35177C346.434 1.38567 343.233 1.4853 340.033 1.65066L340.162 4.14733ZM349.662 3.85163L349.688 6.35149C352.835 6.31817 355.983 6.32155 359.13 6.36162L359.162 3.86182L359.193 1.36202C356.007 1.32146 352.821 1.31804 349.635 1.35177L349.662 3.85163ZM359.162 3.86182L359.13 6.36162C362.304 6.40203 365.479 6.42768 368.653 6.43854L368.662 3.93856L368.67 1.43857C365.511 1.42776 362.352 1.40224 359.193 1.36202L359.162 3.86182ZM368.662 3.93856L368.653 6.43854C371.781 6.44925 374.909 6.53246 378.037 6.68816L378.162 4.19125L378.286 1.69435C375.081 1.53481 371.875 1.44955 368.67 1.43857L368.662 3.93856ZM378.162 4.19125L378.037 6.68816C381.327 6.85192 384.617 6.77263 387.905 6.45053L387.662 3.96243L387.418 1.47434C384.373 1.77258 381.329 1.84584 378.286 1.69435L378.162 4.19125ZM387.662 3.96243L387.905 6.45053C390.984 6.14898 394.062 6.01209 397.139 6.0397L397.162 3.5398L397.184 1.03991C393.928 1.01069 390.673 1.15555 387.418 1.47434L387.662 3.96243ZM397.162 3.5398L397.139 6.0397C400.234 6.06747 403.328 6.22923 406.424 6.52506L406.662 4.0364L406.899 1.54774C403.662 1.23828 400.423 1.06897 397.184 1.03991L397.162 3.5398ZM406.662 4.0364L406.424 6.52506C409.715 6.83961 413.007 6.90614 416.299 6.72448L416.162 4.22828L416.024 1.73207C412.983 1.89988 409.942 1.8385 406.899 1.54774L406.662 4.0364ZM416.162 4.22828L416.299 6.72448C419.377 6.55467 422.454 6.54989 425.532 6.71014L425.662 4.21352L425.792 1.71691C422.536 1.54736 419.28 1.55242 416.024 1.73207L416.162 4.22828ZM425.662 4.21352L425.532 6.71014C428.785 6.87956 432.039 6.87915 435.292 6.70889L435.162 4.21231L435.031 1.71573C431.951 1.87689 428.871 1.87728 425.792 1.71691L425.662 4.21352ZM435.162 4.21231L435.292 6.70889C438.416 6.54545 441.539 6.46327 444.662 6.46234L444.662 3.96234L444.661 1.46234C441.451 1.46329 438.241 1.54776 435.031 1.71573L435.162 4.21231ZM444.662 3.96234L444.662 6.46234C447.869 6.46139 451.076 6.38339 454.282 6.22833L454.162 3.73124L454.041 1.23416C450.914 1.38536 447.787 1.46142 444.661 1.46234L444.662 3.96234ZM454.162 3.73124L454.282 6.22833C457.32 6.08144 460.358 6.16944 463.397 6.49263L463.662 4.00664L463.926 1.52066C460.632 1.17039 457.337 1.07479 454.041 1.23416L454.162 3.73124ZM463.662 4.00664L463.397 6.49263C466.647 6.8382 469.898 7.01908 473.149 7.03509L473.162 4.53512L473.174 2.03516C470.092 2.01997 467.009 1.84853 463.926 1.52066L463.662 4.00664ZM473.162 4.53512L473.149 7.03509C476.373 7.05097 479.597 6.95667 482.82 6.75222L482.662 4.25723L482.503 1.76225C479.393 1.95951 476.284 2.05047 473.174 2.03516L473.162 4.53512ZM482.662 4.25723L482.82 6.75222C485.886 6.55777 488.951 6.54962 492.017 6.72777L492.162 4.23198L492.307 1.73619C489.039 1.5463 485.771 1.55499 482.503 1.76225L482.662 4.25723ZM492.162 4.23198L492.017 6.72777C495.24 6.91511 498.464 6.99162 501.688 6.95727L501.662 4.45741L501.635 1.95755C498.526 1.99068 495.416 1.9169 492.307 1.73619L492.162 4.23198ZM501.662 4.45741L501.688 6.95727C504.899 6.92306 508.109 6.80414 511.32 6.60054L511.162 4.10556L511.003 1.61057C507.88 1.80862 504.758 1.92428 501.635 1.95755L501.662 4.45741ZM511.162 4.10556L511.32 6.60054C514.363 6.40757 517.405 6.44105 520.449 6.70109L520.662 4.21016L520.874 1.71924C517.585 1.43815 514.294 1.40189 511.003 1.61057L511.162 4.10556ZM520.662 4.21016L520.449 6.70109C523.675 6.97672 526.901 7.13645 530.128 7.18024L530.162 4.68047L530.196 2.1807C527.089 2.13854 523.982 1.98474 520.874 1.71924L520.662 4.21016ZM530.162 4.68047L530.128 7.18024C533.319 7.22354 536.51 7.22001 539.701 7.16965L539.662 4.66996L539.622 2.17027C536.48 2.21986 533.338 2.22334 530.196 2.1807L530.162 4.68047ZM539.662 4.66996L539.701 7.16965C542.903 7.11911 546.105 7.00042 549.307 6.81358L549.162 4.31783L549.016 1.82207C545.885 2.00479 542.753 2.12086 539.622 2.17027L539.662 4.66996ZM549.162 4.31783L549.307 6.81358C552.465 6.62933 555.623 6.46222 558.78 6.31227L558.662 3.81508L558.543 1.3179C555.367 1.46871 552.192 1.63677 549.016 1.82207L549.162 4.31783ZM558.662 3.81508L558.78 6.31227C561.837 6.16711 564.893 6.22409 567.95 6.48331L568.162 3.99225L568.373 1.50119C565.097 1.22341 561.82 1.16227 558.543 1.3179L558.662 3.81508ZM568.162 3.99225L567.95 6.48331C571.262 6.76408 574.574 6.75599 577.885 6.4591L577.662 3.96909L577.438 1.47908C574.416 1.75007 571.395 1.75742 568.373 1.50119L568.162 3.99225ZM577.662 3.96909L577.885 6.4591C580.983 6.18132 584.08 6.0326 587.178 6.01286L587.162 3.51292L587.146 1.01297C583.91 1.03359 580.674 1.18899 577.438 1.47908L577.662 3.96909ZM587.162 3.51292L587.178 6.01286C590.242 5.99334 593.307 6.16155 596.373 6.51777L596.662 4.03447L596.95 1.55118C593.683 1.17163 590.415 0.992134 587.146 1.01297L587.162 3.51292ZM596.662 4.03447L596.373 6.51777C599.726 6.90724 603.08 6.91911 606.433 6.55327L606.162 4.06802L605.89 1.58277C602.91 1.90798 599.931 1.89748 596.95 1.55118L596.662 4.03447ZM606.162 4.06802L606.433 6.55327C609.466 6.22229 612.498 6.137 615.53 6.29707L615.662 3.80055L615.793 1.30403C612.492 1.12969 609.19 1.22272 605.89 1.58277L606.162 4.06802ZM615.662 3.80055L615.53 6.29707C618.741 6.46663 621.952 6.55013 625.164 6.54755L625.162 4.04755L625.16 1.54755C622.038 1.55005 618.916 1.46889 615.793 1.30403L615.662 3.80055ZM625.162 4.04755L625.164 6.54755C628.355 6.54498 631.547 6.49493 634.738 6.39739L634.662 3.89856L634.585 1.39973C631.443 1.49575 628.301 1.54502 625.16 1.54755L625.162 4.04755ZM634.662 3.89856L634.738 6.39739C637.895 6.30091 641.052 6.22301 644.209 6.16369L644.162 3.66413L644.115 1.16457C640.938 1.22426 637.762 1.30265 634.585 1.39973L634.662 3.89856ZM644.162 3.66413L644.209 6.16369C647.345 6.10475 650.482 6.10224 653.619 6.15616L653.662 3.65653L653.705 1.1569C650.508 1.10194 647.311 1.1045 644.115 1.16457L644.162 3.66413ZM653.662 3.65653L653.619 6.15616C656.766 6.21026 659.913 6.30147 663.06 6.42978L663.162 3.93186L663.263 1.43394C660.077 1.30402 656.891 1.21168 653.705 1.1569L653.662 3.65653ZM663.162 3.93186L663.06 6.42978C666.315 6.5625 669.57 6.52237 672.825 6.30941L672.662 3.81475L672.498 1.32008C669.42 1.5215 666.342 1.55944 663.263 1.43394L663.162 3.93186ZM672.662 3.81475L672.825 6.30941C675.928 6.1064 679.03 6.02289 682.133 6.05885L682.162 3.55902L682.191 1.05918C678.96 1.02174 675.729 1.10871 672.498 1.32008L672.662 3.81475ZM682.162 3.55902L682.133 6.05885C685.232 6.09476 688.331 6.25649 691.431 6.5441L691.662 4.05479L691.893 1.56548C688.659 1.26546 685.425 1.09667 682.191 1.05918L682.162 3.55902ZM691.662 4.05479L691.431 6.5441C694.757 6.85275 698.085 6.84025 701.411 6.50667L701.162 4.01915L700.912 1.53163C697.905 1.8332 694.899 1.84446 691.893 1.56548L691.662 4.05479ZM701.162 4.01915L701.411 6.50667C704.5 6.19694 707.587 6.03411 710.675 6.01806L710.662 3.51809L710.649 1.01812C707.403 1.035 704.157 1.20622 700.912 1.53163L701.162 4.01915ZM710.662 3.51809L710.675 6.01806C713.811 6.00175 716.948 6.04224 720.084 6.13953L720.162 3.64073L720.239 1.14193C717.042 1.04277 713.845 1.0015 710.649 1.01812L710.662 3.51809ZM720.162 3.64073L720.084 6.13953C723.25 6.23774 726.416 6.33729 729.582 6.43818L729.662 3.93945L729.741 1.44072C726.574 1.33978 723.406 1.24019 720.239 1.14193L720.162 3.64073ZM729.662 3.93945L729.582 6.43818C732.771 6.53981 735.96 6.5991 739.148 6.61607L739.162 4.1161L739.175 1.61614C736.03 1.59941 732.886 1.54094 729.741 1.44072L729.662 3.93945ZM739.162 4.1161L739.148 6.61607C742.318 6.63293 745.489 6.64325 748.659 6.647L748.662 4.14701L748.665 1.64701C745.501 1.64326 742.338 1.63297 739.175 1.61614L739.162 4.1161ZM748.662 4.14701L748.659 6.647C751.793 6.65072 754.927 6.71539 758.061 6.84103L758.162 4.34304L758.262 1.84505C755.063 1.71681 751.864 1.6508 748.665 1.64701L748.662 4.14701ZM758.162 4.34304L758.061 6.84103C761.256 6.96907 764.45 7.04428 767.644 7.06666L767.662 4.56672L767.679 2.06679C764.54 2.04479 761.401 1.97088 758.262 1.84505L758.162 4.34304ZM767.662 4.56672L767.644 7.06666C770.892 7.08941 774.139 6.95468 777.386 6.66256L777.162 4.17262L776.938 1.68267C773.851 1.9604 770.765 2.0884 767.679 2.06679L767.662 4.56672ZM777.162 4.17262L777.386 6.66256C780.458 6.38615 783.529 6.286 786.6 6.36197L786.662 3.86273L786.723 1.3635C783.461 1.28279 780.199 1.38923 776.938 1.68267L777.162 4.17262ZM786.662 3.86273L786.6 6.36197C789.761 6.44018 792.923 6.52787 796.085 6.62505L796.162 4.12623L796.238 1.62741C793.067 1.52992 789.895 1.44195 786.723 1.3635L786.662 3.86273ZM796.162 4.12623L796.085 6.62505C799.324 6.7246 802.563 6.68329 805.802 6.50113L805.662 4.00508L805.521 1.50902C802.427 1.68305 799.333 1.72251 796.238 1.62741L796.162 4.12623ZM805.662 4.00508L805.802 6.50113C808.938 6.32474 812.074 6.20582 815.211 6.14435L815.162 3.64483L815.113 1.14531C811.915 1.20797 808.718 1.32921 805.521 1.50902L805.662 4.00508ZM815.162 3.64483L815.211 6.14435C818.305 6.0837 821.4 6.15682 824.495 6.36376L824.662 3.86933L824.828 1.3749C821.59 1.15838 818.351 1.08183 815.113 1.14531L815.162 3.64483ZM824.662 3.86933L824.495 6.36376C827.688 6.57727 830.881 6.73951 834.075 6.85045L834.162 4.35196L834.248 1.85347C831.108 1.74438 827.969 1.58486 824.828 1.3749L824.662 3.86933ZM834.162 4.35196L834.075 6.85045C837.257 6.96101 840.439 7.04211 843.621 7.09377L843.662 4.59409L843.702 2.09442C840.551 2.04327 837.4 1.96295 834.248 1.85347L834.162 4.35196ZM843.662 4.59409L843.621 7.09377C846.795 7.14528 849.969 7.18327 853.142 7.20772L853.162 4.7078L853.181 2.20787C850.021 2.18353 846.862 2.14571 843.702 2.09442L843.662 4.59409ZM853.162 4.7078L853.142 7.20772C856.321 7.23221 859.499 7.23416 862.678 7.21357L862.662 4.71362L862.645 2.21367C859.491 2.23411 856.336 2.23218 853.181 2.20787L853.162 4.7078ZM862.662 4.71362L862.678 7.21357C865.829 7.19315 868.98 7.20253 872.13 7.24171L872.162 4.7419L872.193 2.24209C869.01 2.20253 865.828 2.19306 862.645 2.21367L862.662 4.71362ZM872.162 4.7419L872.13 7.24171C875.335 7.28154 878.539 7.24924 881.743 7.14481L881.662 4.64614L881.58 2.14746C878.451 2.24945 875.322 2.281 872.193 2.24209L872.162 4.7419ZM881.662 4.64614L881.743 7.14481C884.906 7.04172 888.069 6.94551 891.232 6.8562L891.162 4.3572L891.091 1.85819C887.921 1.94771 884.75 2.04414 881.58 2.14746L881.662 4.64614ZM891.162 4.3572L891.232 6.8562C894.418 6.76625 897.603 6.64029 900.789 6.47833L900.662 3.98155L900.535 1.48478C897.387 1.64484 894.239 1.76931 891.091 1.85819L891.162 4.3572ZM900.662 3.98155L900.789 6.47833C903.933 6.31847 907.077 6.20129 910.221 6.12681L910.162 3.62751L910.102 1.12821C906.913 1.20377 903.724 1.32262 900.535 1.48478L900.662 3.98155ZM910.162 3.62751L910.221 6.12681C913.37 6.0522 916.52 6.0102 919.669 6.00081L919.662 3.50082L919.654 1.00083C916.47 1.01032 913.286 1.05279 910.102 1.12821L910.162 3.62751ZM919.662 3.50082L919.669 6.00081C922.793 5.99149 925.917 6.06199 929.041 6.21233L929.162 3.71522L929.282 1.21811C926.073 1.06369 922.863 0.991256 919.654 1.00083L919.662 3.50082ZM929.162 3.71522L929.041 6.21233C932.264 6.36738 935.486 6.41491 938.708 6.3549L938.662 3.85533L938.615 1.35576C935.504 1.4137 932.393 1.36782 929.282 1.21811L929.162 3.71522ZM938.662 3.85533L938.708 6.3549C941.784 6.29761 944.86 6.40756 947.937 6.68487L948.162 4.19496L948.386 1.70505C945.13 1.41157 941.872 1.2951 938.615 1.35576L938.662 3.85533ZM948.162 4.19496L947.937 6.68487C951.251 6.98349 954.565 6.98855 957.878 6.70002L957.662 4.20945L957.445 1.71887C954.425 1.98182 951.406 1.97722 948.386 1.70505L948.162 4.19496ZM957.662 4.20945L957.878 6.70002C960.999 6.42833 964.119 6.24452 967.238 6.14856L967.162 3.64974L967.085 1.15092C963.871 1.24977 960.658 1.43909 957.445 1.71887L957.662 4.20945ZM967.162 3.64974L967.238 6.14856C970.367 6.05232 973.496 6.02739 976.625 6.07374L976.662 3.57402L976.699 1.07429C973.494 1.02681 970.289 1.05235 967.085 1.15092L967.162 3.64974ZM976.662 3.57402L976.625 6.07374C979.778 6.12047 982.931 6.19286 986.084 6.29092L986.162 3.79213L986.239 1.29334C983.059 1.19443 979.879 1.12142 976.699 1.07429L976.662 3.57402ZM986.162 3.79213L986.084 6.29092C989.225 6.38863 992.367 6.53391 995.508 6.72678L995.662 4.23148L995.815 1.73618C992.623 1.54023 989.431 1.39261 986.239 1.29334L986.162 3.79213ZM995.662 4.23148L995.508 6.72678C998.798 6.92873 1002.09 6.88816 1005.38 6.60518L1005.16 4.11438L1004.95 1.62359C1001.9 1.88557 998.859 1.92306 995.815 1.73618L995.662 4.23148ZM1005.16 4.11438L1005.38 6.60518C1008.43 6.34208 1011.49 6.28053 1014.55 6.42042L1014.66 3.92304L1014.78 1.42565C1011.5 1.27571 1008.22 1.34173 1004.95 1.62359L1005.16 4.11438ZM1014.66 3.92304L1014.55 6.42042C1017.63 6.56131 1020.65 6.86262 1023.63 7.32376L1024.01 4.85326L1024.39 2.38276C1021.24 1.89344 1018.03 1.57459 1014.78 1.42565L1014.66 3.92304ZM1024.01 4.85326L1023.63 7.32376C1026.32 7.74147 1028.78 8.71724 1031.01 10.2606L1032.43 8.20234L1033.85 6.14408C1030.99 4.17248 1027.83 2.91553 1024.39 2.38276L1024.01 4.85326ZM1032.43 8.20234L1031.01 10.2606C1033.03 11.651 1034.31 13.5395 1034.88 16.058L1037.32 15.5022L1039.76 14.9463C1038.91 11.2467 1036.93 8.26866 1033.85 6.14408L1032.43 8.20234ZM1037.32 15.5022L1034.88 16.058C1035.54 18.9305 1035.77 21.824 1035.57 24.7463L1038.06 24.9158L1040.56 25.0852C1040.79 21.6742 1040.52 18.292 1039.76 14.9463L1037.32 15.5022ZM1038.06 24.9158L1035.57 24.7463C1035.35 27.9995 1035.3 31.2532 1035.41 34.5069L1037.91 34.4158L1040.41 34.3246C1040.3 31.245 1040.35 28.1653 1040.56 25.0852L1038.06 24.9158ZM1037.91 34.4158L1035.41 34.5069C1035.53 37.6717 1035.64 40.8364 1035.75 44.0012L1038.25 43.9158L1040.75 43.8303C1040.64 40.6618 1040.53 37.4932 1040.41 34.3246L1037.91 34.4158ZM1038.25 43.9158L1035.75 44.0012C1035.86 47.0918 1035.82 50.1825 1035.64 53.2734L1038.14 53.4158L1040.64 53.5581C1040.82 50.3156 1040.86 47.073 1040.75 43.8303L1038.25 43.9158ZM1038.14 53.4158L1035.64 53.2734C1035.46 56.4686 1035.33 59.6638 1035.26 62.859L1037.76 62.9158L1040.26 62.9725C1040.33 59.8344 1040.46 56.6963 1040.64 53.5581L1038.14 53.4158ZM1037.76 62.9158L1035.26 62.859C1035.19 66.0151 1035.1 69.1712 1034.99 72.3272L1037.48 72.4157L1039.98 72.5043C1040.1 69.327 1040.19 66.1497 1040.26 62.9725L1037.76 62.9158ZM1037.48 72.4157L1034.99 72.3272C1034.87 75.6348 1035.03 78.9413 1035.47 82.2454L1037.95 81.9157L1040.43 81.5861C1040.02 78.5569 1039.88 75.5301 1039.98 72.5043L1037.48 72.4157ZM1037.95 81.9157L1035.47 82.2454C1035.86 85.212 1035.9 88.1756 1035.57 91.1407L1038.05 91.4157L1040.54 91.6908C1040.91 88.3225 1040.87 84.9528 1040.43 81.5861L1037.95 81.9157ZM1038.05 91.4157L1035.57 91.1407C1035.2 94.4439 1035.11 97.7487 1035.3 101.054L1037.79 100.916L1040.29 100.778C1040.12 97.7494 1040.2 94.721 1040.54 91.6908L1038.05 91.4157ZM1037.79 100.916L1035.3 101.054C1035.45 103.862 1035.01 106.485 1034 108.953L1036.31 109.905L1038.62 110.857C1039.93 107.672 1040.48 104.302 1040.29 100.778L1037.79 100.916ZM1036.31 109.905L1034 108.953C1032.98 111.413 1031.46 113.538 1029.39 115.344L1031.04 117.227L1032.68 119.109C1035.32 116.805 1037.31 114.048 1038.62 110.857L1036.31 109.905ZM1031.04 117.227L1029.39 115.344C1027.55 116.953 1025.42 117.677 1022.85 117.52L1022.7 120.015L1022.55 122.511C1026.39 122.745 1029.82 121.61 1032.68 119.109L1031.04 117.227ZM1022.7 120.015L1022.85 117.52C1019.61 117.322 1016.38 117.207 1013.17 117.178L1013.15 119.677L1013.12 122.177C1016.25 122.206 1019.39 122.317 1022.55 122.511L1022.7 120.015ZM1013.15 119.677L1013.17 117.178C1009.97 117.148 1006.77 117.18 1003.57 117.273L1003.65 119.772L1003.72 122.271C1006.85 122.179 1009.99 122.148 1013.12 122.177L1013.15 119.677ZM1003.65 119.772L1003.57 117.273C1000.45 117.364 997.332 117.368 994.212 117.285L994.146 119.784L994.079 122.283C997.292 122.369 1000.51 122.365 1003.72 122.271L1003.65 119.772ZM994.146 119.784L994.212 117.285C990.932 117.197 987.653 117.333 984.374 117.69L984.646 120.176L984.917 122.661C987.972 122.327 991.026 122.202 994.079 122.283L994.146 119.784ZM984.646 120.176L984.374 117.69C981.344 118.021 978.314 118.102 975.285 117.933L975.146 120.429L975.006 122.925C978.31 123.109 981.615 123.021 984.917 122.661L984.646 120.176ZM975.146 120.429L975.285 117.933C972.106 117.755 968.926 117.602 965.747 117.473L965.646 119.971L965.544 122.469C968.698 122.597 971.852 122.749 975.006 122.925L975.146 120.429ZM965.646 119.971L965.747 117.473C962.483 117.341 959.218 117.4 955.955 117.65L956.146 120.142L956.337 122.635C959.406 122.4 962.475 122.345 965.544 122.469L965.646 119.971ZM956.146 120.142L955.955 117.65C952.922 117.882 949.89 117.869 946.858 117.611L946.646 120.102L946.434 122.593C949.734 122.874 953.036 122.888 956.337 122.635L956.146 120.142ZM946.646 120.102L946.858 117.611C943.531 117.328 940.204 117.366 936.878 117.724L937.146 120.21L937.413 122.695C940.421 122.371 943.427 122.337 946.434 122.593L946.646 120.102ZM937.146 120.21L936.878 117.724C933.843 118.051 930.809 118.135 927.776 117.977L927.646 120.474L927.516 122.971C930.816 123.143 934.115 123.051 937.413 122.695L937.146 120.21ZM927.646 120.474L927.776 117.977C924.629 117.813 921.482 117.612 918.335 117.373L918.146 119.866L917.956 122.358C921.143 122.601 924.329 122.805 927.516 122.971L927.646 120.474ZM918.146 119.866L918.335 117.373C915.087 117.126 911.838 117.04 908.588 117.114L908.646 119.614L908.703 122.113C911.787 122.042 914.871 122.124 917.956 122.358L918.146 119.866ZM908.646 119.614L908.588 117.114C905.373 117.188 902.159 117.355 898.944 117.615L899.146 120.106L899.347 122.598C902.466 122.346 905.585 122.184 908.703 122.113L908.646 119.614ZM899.146 120.106L898.944 117.615C895.838 117.866 892.733 118.002 889.628 118.024L889.646 120.524L889.664 123.024C892.892 123.001 896.12 122.859 899.347 122.598L899.146 120.106ZM889.646 120.524L889.628 118.024C886.511 118.047 883.395 117.975 880.278 117.81L880.146 120.307L880.013 122.803C883.23 122.974 886.447 123.047 889.664 123.024L889.646 120.524ZM880.146 120.307L880.278 117.81C877.008 117.637 873.737 117.667 870.468 117.901L870.646 120.395L870.824 122.888C873.887 122.669 876.95 122.641 880.013 122.803L880.146 120.307ZM870.646 120.395L870.468 117.901C867.419 118.119 864.372 118.119 861.324 117.902L861.146 120.395L860.968 122.889C864.253 123.123 867.539 123.123 870.824 122.888L870.646 120.395ZM861.146 120.395L861.324 117.902C858.118 117.673 854.912 117.519 851.707 117.441L851.646 119.941L851.585 122.44C854.712 122.516 857.84 122.666 860.968 122.889L861.146 120.395ZM851.646 119.941L851.707 117.441C848.454 117.362 845.202 117.45 841.95 117.705L842.146 120.197L842.341 122.689C845.423 122.448 848.504 122.365 851.585 122.44L851.646 119.941ZM842.146 120.197L841.95 117.705C838.945 117.94 835.94 117.884 832.933 117.537L832.646 120.02L832.359 122.504C835.685 122.888 839.013 122.95 842.341 122.689L842.146 120.197ZM832.646 120.02L832.933 117.537C829.607 117.153 826.28 117.089 822.953 117.345L823.146 119.838L823.338 122.33C826.344 122.099 829.351 122.156 832.359 122.504L832.646 120.02ZM823.146 119.838L822.953 117.345C819.851 117.584 816.75 117.702 813.648 117.699L813.646 120.199L813.643 122.699C816.875 122.703 820.107 122.58 823.338 122.33L823.146 119.838ZM813.646 120.199L813.648 117.699C810.503 117.696 807.357 117.652 804.211 117.57L804.146 120.069L804.08 122.568C807.268 122.652 810.455 122.695 813.643 122.699L813.646 120.199ZM804.146 120.069L804.211 117.57C801.036 117.486 797.86 117.42 794.684 117.372L794.646 119.871L794.608 122.371C797.765 122.419 800.922 122.485 804.08 122.568L804.146 120.069ZM794.646 119.871L794.684 117.372C791.413 117.322 788.144 117.475 784.875 117.831L785.146 120.316L785.416 122.801C788.481 122.468 791.545 122.324 794.608 122.371L794.646 119.871ZM785.146 120.316L784.875 117.831C781.872 118.157 778.871 118.186 775.869 117.917L775.646 120.407L775.422 122.897C778.754 123.196 782.086 123.164 785.416 122.801L785.146 120.316ZM775.646 120.407L775.869 117.917C772.622 117.626 769.374 117.493 766.126 117.519L766.146 120.018L766.165 122.518C769.251 122.494 772.336 122.62 775.422 122.897L775.646 120.407ZM766.146 120.018L766.126 117.519C763.012 117.543 759.899 117.469 756.785 117.295L756.646 119.791L756.507 122.288C759.726 122.467 762.946 122.544 766.165 122.518L766.146 120.018ZM756.646 119.791L756.785 117.295C753.509 117.113 750.233 117.145 746.957 117.393L747.146 119.886L747.334 122.379C750.392 122.148 753.449 122.117 756.507 122.288L756.646 119.791ZM747.146 119.886L746.957 117.393C743.904 117.624 740.85 117.646 737.797 117.461L737.646 119.956L737.494 122.452C740.774 122.651 744.054 122.627 747.334 122.379L747.146 119.886ZM737.646 119.956L737.797 117.461C734.488 117.26 731.179 117.342 727.872 117.707L728.146 120.192L728.42 122.677C731.446 122.343 734.47 122.268 737.494 122.452L737.646 119.956ZM728.146 120.192L727.872 117.707C724.899 118.034 721.929 118.013 718.955 117.642L718.646 120.123L718.336 122.603C721.696 123.023 725.059 123.047 728.42 122.677L728.146 120.192ZM718.646 120.123L718.955 117.642C715.634 117.228 712.31 117.127 708.985 117.341L709.146 119.835L709.306 122.33C712.315 122.137 715.324 122.228 718.336 122.603L718.646 120.123ZM709.146 119.835L708.985 117.341C705.841 117.543 702.697 117.702 699.553 117.819L699.646 120.318L699.739 122.816C702.928 122.697 706.117 122.535 709.306 122.33L709.146 119.835ZM699.646 120.318L699.553 117.819C696.501 117.933 693.449 117.836 690.396 117.529L690.146 120.016L689.895 122.504C693.175 122.834 696.457 122.938 699.739 122.816L699.646 120.318ZM690.146 120.016L690.396 117.529C687.032 117.19 683.668 117.251 680.307 117.711L680.646 120.188L680.985 122.665C683.957 122.258 686.926 122.204 689.895 122.504L690.146 120.016ZM680.646 120.188L680.307 117.711C677.357 118.115 674.411 118.129 671.462 117.752L671.146 120.232L670.829 122.712C674.214 123.144 677.601 123.128 680.985 122.665L680.646 120.188ZM671.146 120.232L671.462 117.752C668.135 117.327 664.805 117.228 661.475 117.456L661.646 119.95L661.816 122.445C664.82 122.239 667.823 122.328 670.829 122.712L671.146 120.232ZM661.646 119.95L661.475 117.456C658.408 117.666 655.342 117.691 652.276 117.531L652.146 120.028L652.015 122.525C655.283 122.695 658.55 122.668 661.816 122.445L661.646 119.95ZM652.146 120.028L652.276 117.531C649.065 117.364 645.854 117.282 642.643 117.286L642.646 119.786L642.649 122.286C645.771 122.282 648.893 122.362 652.015 122.525L652.146 120.028ZM642.646 119.786L642.643 117.286C639.385 117.29 636.128 117.472 632.871 117.831L633.146 120.316L633.42 122.801C636.497 122.462 639.573 122.29 642.649 122.286L642.646 119.786ZM633.146 120.316L632.871 117.831C629.869 118.163 626.869 118.194 623.868 117.926L623.646 120.416L623.423 122.906C626.755 123.204 630.089 123.169 633.42 122.801L633.146 120.316ZM623.646 120.416L623.868 117.926C620.57 117.631 617.27 117.599 613.971 117.831L614.146 120.325L614.321 122.819C617.355 122.606 620.388 122.635 623.423 122.906L623.646 120.416ZM614.146 120.325L613.971 117.831C610.933 118.044 607.895 118.022 604.857 117.764L604.646 120.255L604.434 122.746C607.729 123.026 611.025 123.05 614.321 122.819L614.146 120.325ZM604.646 120.255L604.857 117.764C601.643 117.491 598.43 117.31 595.215 117.22L595.146 119.719L595.076 122.218C598.195 122.305 601.315 122.481 604.434 122.746L604.646 120.255ZM595.146 119.719L595.215 117.22C592.024 117.131 588.833 117.089 585.642 117.093L585.646 119.593L585.649 122.093C588.791 122.089 591.934 122.131 595.076 122.218L595.146 119.719ZM585.646 119.593L585.642 117.093C582.456 117.097 579.269 117.14 576.082 117.222L576.146 119.721L576.21 122.22C579.356 122.139 582.503 122.097 585.649 122.093L585.646 119.593ZM576.146 119.721L576.082 117.222C572.882 117.303 569.682 117.449 566.482 117.66L566.646 120.154L566.81 122.649C569.943 122.443 573.076 122.3 576.21 122.22L576.146 119.721ZM566.646 120.154L566.482 117.66C563.403 117.862 560.324 117.902 557.245 117.78L557.146 120.278L557.047 122.776C560.301 122.905 563.555 122.863 566.81 122.649L566.646 120.154ZM557.146 120.278L557.245 117.78C554.074 117.654 550.904 117.536 547.734 117.424L547.646 119.922L547.557 122.421C550.721 122.532 553.884 122.651 557.047 122.776L557.146 120.278ZM547.646 119.922L547.734 117.424C544.516 117.31 541.298 117.296 538.08 117.38L538.146 119.88L538.211 122.379C541.327 122.297 544.442 122.311 547.557 122.421L547.646 119.922ZM538.146 119.88L538.08 117.38C534.941 117.463 531.802 117.493 528.663 117.471L528.646 119.971L528.628 122.471C531.823 122.494 535.017 122.463 538.211 122.379L538.146 119.88ZM528.646 119.971L528.663 117.471C525.429 117.449 522.195 117.557 518.961 117.797L519.146 120.29L519.33 122.783C522.43 122.553 525.529 122.449 528.628 122.471L528.646 119.971ZM519.146 120.29L518.961 117.797C515.924 118.022 512.887 118.01 509.85 117.761L509.646 120.252L509.441 122.744C512.737 123.014 516.034 123.027 519.33 122.783L519.146 120.29ZM509.646 120.252L509.85 117.761C506.581 117.493 503.311 117.427 500.041 117.563L500.146 120.061L500.25 122.559C503.313 122.431 506.377 122.493 509.441 122.744L509.646 120.252ZM500.146 120.061L500.041 117.563C496.935 117.693 493.828 117.711 490.721 117.617L490.646 120.116L490.57 122.615C493.797 122.712 497.023 122.694 500.25 122.559L500.146 120.061ZM490.646 120.116L490.721 117.617C487.503 117.52 484.284 117.523 481.066 117.625L481.146 120.124L481.225 122.623C484.34 122.523 487.455 122.521 490.57 122.615L490.646 120.116ZM481.146 120.124L481.066 117.625C477.933 117.725 474.801 117.761 471.668 117.732L471.646 120.232L471.623 122.732C474.824 122.761 478.025 122.725 481.225 122.623L481.146 120.124ZM471.646 120.232L471.668 117.732C468.505 117.704 465.342 117.669 462.178 117.627L462.146 120.127L462.113 122.627C465.283 122.668 468.453 122.703 471.623 122.732L471.646 120.232ZM462.146 120.127L462.178 117.627C459.024 117.586 455.869 117.522 452.715 117.435L452.646 119.934L452.576 122.433C455.755 122.521 458.934 122.586 462.113 122.627L462.146 120.127ZM452.646 119.934L452.715 117.435C449.478 117.345 446.241 117.392 443.004 117.576L443.146 120.072L443.287 122.568C446.384 122.392 449.48 122.347 452.576 122.433L452.646 119.934ZM443.146 120.072L443.004 117.576C439.911 117.751 436.819 117.789 433.727 117.688L433.646 120.187L433.565 122.686C436.806 122.791 440.047 122.752 443.287 122.568L443.146 120.072ZM433.646 120.187L433.727 117.688C430.53 117.585 427.333 117.539 424.136 117.552L424.146 120.052L424.156 122.552C427.292 122.539 430.428 122.584 433.565 122.686L433.646 120.187ZM424.146 120.052L424.136 117.552C421.009 117.565 417.882 117.503 414.755 117.366L414.646 119.864L414.536 122.361C417.743 122.501 420.949 122.565 424.156 122.552L424.146 120.052ZM414.646 119.864L414.755 117.366C411.55 117.226 408.345 117.159 405.141 117.166L405.146 119.666L405.151 122.166C408.279 122.159 411.408 122.224 414.536 122.361L414.646 119.864ZM405.146 119.666L405.141 117.166C401.905 117.173 398.67 117.312 395.436 117.584L395.646 120.076L395.855 122.567C398.954 122.306 402.053 122.172 405.151 122.166L405.146 119.666ZM395.646 120.076L395.436 117.584C392.371 117.843 389.307 117.912 386.243 117.792L386.146 120.29L386.048 122.788C389.317 122.916 392.587 122.842 395.855 122.567L395.646 120.076ZM386.146 120.29L386.243 117.792C383.011 117.665 379.779 117.666 376.547 117.793L376.646 120.291L376.744 122.789C379.845 122.667 382.947 122.666 386.048 122.788L386.146 120.29ZM376.646 120.291L376.547 117.793C373.501 117.913 370.455 117.813 367.407 117.493L367.146 119.979L366.884 122.466C370.17 122.811 373.457 122.919 376.744 122.789L376.646 120.291ZM367.146 119.979L367.407 117.493C364.105 117.146 360.801 117.071 357.498 117.267L357.646 119.762L357.794 122.258C360.823 122.078 363.853 122.147 366.884 122.466L367.146 119.979ZM357.646 119.762L357.498 117.267C354.412 117.45 351.326 117.483 348.241 117.366L348.146 119.864L348.051 122.362C351.299 122.485 354.546 122.451 357.794 122.258L357.646 119.762ZM348.146 119.864L348.241 117.366C345.051 117.245 341.862 117.167 338.673 117.133L338.646 119.633L338.619 122.132C341.763 122.166 344.907 122.243 348.051 122.362L348.146 119.864ZM338.646 119.633L338.673 117.133C335.433 117.098 332.194 117.204 328.955 117.452L329.146 119.944L329.336 122.437C332.431 122.201 335.525 122.099 338.619 122.132L338.646 119.633ZM329.146 119.944L328.955 117.452C325.904 117.685 322.853 117.705 319.802 117.514L319.646 120.009L319.489 122.504C322.771 122.71 326.054 122.688 329.336 122.437L329.146 119.944ZM319.646 120.009L319.802 117.514C316.529 117.309 313.256 117.313 309.982 117.527L310.146 120.022L310.309 122.517C313.369 122.316 316.429 122.312 319.489 122.504L319.646 120.009ZM310.146 120.022L309.982 117.527C306.843 117.733 303.704 117.886 300.566 117.986L300.646 120.485L300.726 122.984C303.92 122.881 307.115 122.726 310.309 122.517L310.146 120.022ZM300.646 120.485L300.566 117.986C297.422 118.087 294.278 118.144 291.134 118.159L291.146 120.659L291.157 123.159C294.347 123.144 297.536 123.086 300.726 122.984L300.646 120.485ZM291.146 120.659L291.134 118.159C288.009 118.173 284.883 118.11 281.757 117.97L281.646 120.468L281.534 122.965C284.742 123.109 287.949 123.173 291.157 123.159L291.146 120.659ZM281.646 120.468L281.757 117.97C278.543 117.827 275.329 117.775 272.114 117.816L272.146 120.315L272.177 122.815C275.296 122.776 278.415 122.826 281.534 122.965L281.646 120.468ZM272.146 120.315L272.114 117.816C268.939 117.855 265.764 117.911 262.589 117.983L262.646 120.482L262.702 122.981C265.86 122.91 269.019 122.855 272.177 122.815L272.146 120.315ZM262.646 120.482L262.589 117.983C259.44 118.054 256.29 118.092 253.141 118.099L253.146 120.599L253.151 123.099C256.335 123.092 259.518 123.053 262.702 122.981L262.646 120.482ZM253.146 120.599L253.141 118.099C249.958 118.105 246.775 118.142 243.593 118.209L243.646 120.709L243.699 123.208C246.849 123.142 250 123.105 253.151 123.099L253.146 120.599ZM243.646 120.709L243.593 118.209C240.489 118.275 237.385 118.223 234.281 118.055L234.146 120.551L234.01 123.048C237.24 123.223 240.469 123.276 243.699 123.208L243.646 120.709ZM234.146 120.551L234.281 118.055C231.071 117.881 227.862 117.79 224.652 117.782L224.646 120.282L224.64 122.782C227.763 122.79 230.887 122.878 234.01 123.048L234.146 120.551ZM224.646 120.282L224.652 117.782C221.498 117.775 218.345 117.743 215.191 117.685L215.146 120.185L215.1 122.685C218.28 122.742 221.46 122.775 224.64 122.782L224.646 120.282ZM215.146 120.185L215.191 117.685C212.06 117.628 208.929 117.504 205.799 117.312L205.646 119.808L205.493 122.303C208.695 122.499 211.898 122.626 215.1 122.685L215.146 120.185ZM205.646 119.808L205.799 117.312C202.538 117.113 199.278 117.097 196.017 117.265L196.146 119.762L196.274 122.258C199.347 122.1 202.42 122.115 205.493 122.303L205.646 119.808ZM196.146 119.762L196.017 117.265C192.881 117.427 189.746 117.53 186.61 117.574L186.646 120.074L186.681 122.574C189.879 122.528 193.077 122.423 196.274 122.258L196.146 119.762ZM186.646 120.074L186.61 117.574C183.493 117.618 180.375 117.571 177.257 117.432L177.146 119.93L177.034 122.427C180.25 122.57 183.466 122.619 186.681 122.574L186.646 120.074ZM177.146 119.93L177.257 117.432C174.012 117.287 170.767 117.295 167.522 117.456L167.646 119.953L167.769 122.45C170.858 122.297 173.946 122.29 177.034 122.427L177.146 119.93ZM167.646 119.953L167.522 117.456C164.355 117.613 161.187 117.771 158.02 117.93L158.146 120.427L158.272 122.924C161.437 122.765 164.603 122.606 167.769 122.45L167.646 119.953ZM158.146 120.427L158.02 117.93C154.907 118.087 151.793 118.144 148.68 118.101L148.646 120.601L148.611 123.101C151.831 123.145 155.052 123.086 158.272 122.924L158.146 120.427ZM148.646 120.601L148.68 118.101C145.536 118.058 142.391 117.973 139.246 117.846L139.146 120.344L139.045 122.842C142.234 122.97 145.422 123.057 148.611 123.101L148.646 120.601ZM139.146 120.344L139.246 117.846C136.055 117.718 132.863 117.637 129.672 117.603L129.646 120.103L129.62 122.603C132.761 122.636 135.903 122.716 139.045 122.842L139.146 120.344ZM129.646 120.103L129.672 117.603C126.502 117.57 123.332 117.543 120.162 117.522L120.146 120.022L120.129 122.522C123.293 122.543 126.456 122.57 129.62 122.603L129.646 120.103ZM120.146 120.022L120.162 117.522C116.946 117.501 113.73 117.575 110.514 117.745L110.646 120.241L110.777 122.738C113.895 122.573 117.012 122.502 120.129 122.522L120.146 120.022ZM110.646 120.241L110.514 117.745C107.455 117.906 104.395 117.87 101.335 117.638L101.146 120.131L100.956 122.624C104.23 122.872 107.503 122.91 110.777 122.738L110.646 120.241ZM101.146 120.131L101.335 117.638C98.1129 117.393 94.8906 117.257 91.6681 117.228L91.6457 119.728L91.6233 122.227C94.7341 122.255 97.8451 122.387 100.956 122.624L101.146 120.131ZM91.6457 119.728L91.6681 117.228C88.4236 117.199 85.1793 117.321 81.9356 117.594L82.1457 120.086L82.3558 122.577C85.4454 122.316 88.5345 122.2 91.6233 122.227L91.6457 119.728ZM82.1457 120.086L81.9356 117.594C78.9126 117.849 75.8904 117.842 72.8673 117.573L72.6457 120.063L72.4241 122.554C75.7343 122.848 79.0454 122.856 82.3558 122.577L82.1457 120.086ZM72.6457 120.063L72.8673 117.573C69.6363 117.286 66.4049 117.124 63.1732 117.089L63.1457 119.589L63.1182 122.088C66.2198 122.123 69.3217 122.278 72.4241 122.554L72.6457 120.063ZM63.1457 119.589L63.1732 117.089C59.889 117.053 56.6058 117.247 53.3245 117.672L53.6457 120.152L53.9669 122.631C57.0189 122.236 60.0691 122.055 63.1182 122.088L63.1457 119.589ZM53.6457 120.152L53.3245 117.672C50.3548 118.057 47.3879 118.086 44.4196 117.759L44.1457 120.244L43.8718 122.729C47.2368 123.099 50.6033 123.067 53.9669 122.631L53.6457 120.152ZM44.1457 120.244L44.4196 117.759C41.1759 117.401 37.9314 117.196 34.6864 117.143L34.6457 119.643L34.6051 122.142C37.6933 122.193 40.7822 122.388 43.8718 122.729L44.1457 120.244ZM34.6457 119.643L34.6864 117.143C31.4894 117.091 28.2985 117.097 25.1135 117.162L25.1641 119.661L25.2146 122.161C28.3385 122.098 31.4687 122.091 34.6051 122.142L34.6457 119.643ZM25.1641 119.661L25.1135 117.162C22.3035 117.219 19.6545 116.712 17.1415 115.647L16.1661 117.949L15.1907 120.251C18.3662 121.597 21.7159 122.231 25.2146 122.161L25.1641 119.661ZM16.1661 117.949L17.1415 115.647C14.8727 114.686 13.2388 113.112 12.1655 110.828L9.90275 111.891L7.64005 112.954C9.22935 116.336 11.771 118.802 15.1907 120.251L16.1661 117.949ZM9.90275 111.891L12.1655 110.828C11.0148 108.378 10.5225 105.796 10.6901 103.039L8.19467 102.887L5.69927 102.735C5.48161 106.316 6.12803 109.736 7.64005 112.954L9.90275 111.891ZM8.19467 102.887L10.6901 103.039C10.8877 99.7879 10.9246 96.5378 10.8008 93.2887L8.30264 93.3839L5.80446 93.479C5.92195 96.5633 5.88691 99.6486 5.69927 102.735L8.19467 102.887ZM8.30264 93.3839L10.8008 93.2887C10.6787 90.0838 10.483 86.879 10.2135 83.6744L7.72233 83.8839L5.23112 84.0933C5.49417 87.222 5.68528 90.3506 5.80446 93.479L8.30264 93.3839ZM7.72233 83.8839L10.2135 83.6744C9.95781 80.6327 9.93161 77.5918 10.1349 74.5506L7.64042 74.3839L5.14599 74.2171C4.92597 77.5093 4.95438 80.8017 5.23112 84.0933L7.72233 83.8839ZM7.64042 74.3839L10.1349 74.5506C10.3489 71.3481 10.4936 68.1454 10.5691 64.9427L8.0698 64.8839L5.57049 64.825C5.49672 67.9556 5.35522 71.0863 5.14599 74.2171L7.64042 74.3839ZM8.0698 64.8839L10.5691 64.9427C10.6441 61.7595 10.6875 58.5763 10.6992 55.3931L8.19926 55.3838L5.69928 55.3746C5.68765 58.5247 5.64472 61.6748 5.57049 64.825L8.0698 64.8839ZM8.19926 55.3838L10.6992 55.3931C10.7109 52.2477 10.7627 49.1024 10.8547 45.957L8.3558 45.8838L5.85687 45.8107C5.76358 48.9987 5.71105 52.1866 5.69928 55.3746L8.19926 55.3838ZM8.3558 45.8838L10.8547 45.957C10.9485 42.7543 10.9728 39.5515 10.9279 36.3488L8.4281 36.3839L5.92835 36.4189C5.97231 39.5495 5.94848 42.6801 5.85687 45.8107L8.3558 45.8838ZM8.4281 36.3839L10.9279 36.3488C10.8836 33.1992 10.8718 30.0497 10.8922 26.9001L8.39229 26.8838L5.89235 26.8676C5.87165 30.0514 5.88365 33.2352 5.92835 36.4189L8.4281 36.3839ZM8.39229 26.8838L10.8922 26.9001C10.9126 23.7682 10.9982 20.653 11.149 17.5544L8.652 17.4329L6.15496 17.3113C6.00068 20.4807 5.91316 23.6661 5.89235 26.8676L8.39229 26.8838ZM8.652 17.4329L11.149 17.5544C11.2726 15.0168 12.1817 12.9128 13.9056 11.1279L12.1073 9.3911L10.3091 7.65435C7.73093 10.3238 6.33653 13.5809 6.15496 17.3113L8.652 17.4329ZM12.1073 9.3911L13.9056 11.1279C15.857 9.10733 17.6677 7.97815 19.3169 7.50154L18.6227 5.09983L17.9286 2.69811C15.1926 3.48884 12.6597 5.22051 10.3091 7.65435L12.1073 9.3911ZM18.6227 5.09983L19.3169 7.50154C20.4129 7.18477 21.234 6.94783 21.7807 6.79054C22.0543 6.71181 22.2575 6.65351 22.3916 6.61528C22.4593 6.59598 22.506 6.58274 22.5343 6.57481C22.5498 6.57049 22.5533 6.56957 22.5499 6.57048C22.5484 6.57087 22.545 6.5718 22.54 6.5731C22.5359 6.57419 22.526 6.57677 22.5129 6.58004C22.5073 6.58143 22.4694 6.59098 22.4202 6.60122C22.407 6.60395 22.327 6.62096 22.2237 6.63396C22.1954 6.63753 22.0286 6.65988 21.8155 6.65169C21.6802 6.6428 21.2944 6.57616 21.0499 6.50032C20.5525 6.25185 19.5961 5.09615 19.4116 4.15355H21.9116H24.4116C24.2271 3.21094 23.2707 2.05523 22.7734 1.80676C22.5288 1.73091 22.143 1.66427 22.0076 1.65538C21.7945 1.64718 21.6276 1.66954 21.5991 1.67313C21.4956 1.68616 21.4151 1.70324 21.4015 1.70609C21.3512 1.71655 21.3117 1.72648 21.3039 1.72841C21.2775 1.73498 21.2553 1.74097 21.2477 1.74302C21.2272 1.74856 21.2049 1.75475 21.1861 1.76001C21.1459 1.77127 21.0899 1.78717 21.0205 1.80694C20.8805 1.84686 20.6726 1.9065 20.3981 1.98548C19.8485 2.14361 19.0251 2.38122 17.9286 2.69811L18.6227 5.09983ZM21.9116 4.15355H19.4116C19.6417 5.20105 20.6214 6.29493 20.9881 6.47671C21.1497 6.53462 21.4035 6.60139 21.4929 6.61825C21.6358 6.64254 21.7497 6.64843 21.7718 6.64967C21.8456 6.65381 21.9038 6.65363 21.9147 6.65362C21.9524 6.65359 21.9825 6.65268 21.9893 6.65248C22.0108 6.65185 22.0299 6.65103 22.0387 6.65065C22.0603 6.64971 22.0861 6.64845 22.1121 6.64714C22.1662 6.6444 22.244 6.64028 22.3436 6.63488C22.5438 6.62405 22.8425 6.60752 23.2387 6.58537C24.0315 6.54105 25.2199 6.4739 26.8034 6.38396L26.6616 3.88798L26.5199 1.392C24.9367 1.48193 23.7501 1.54897 22.9596 1.59317C22.5641 1.61528 22.269 1.6316 22.0734 1.64219C21.9751 1.64751 21.9045 1.65125 21.8596 1.65352C21.8361 1.6547 21.8248 1.65523 21.8216 1.65537C21.8181 1.65552 21.8279 1.65506 21.8432 1.65462C21.8469 1.65451 21.8747 1.65365 21.9108 1.65362C21.921 1.65361 21.9786 1.65341 22.052 1.65753C22.0739 1.65876 22.1877 1.66464 22.3305 1.68892C22.4198 1.70576 22.6736 1.77252 22.8352 1.83042C23.2018 2.0122 24.1816 3.10607 24.4116 4.15355H21.9116Z" fill="#0074EF"/>
</g>
<defs>
<filter id="filter0_dd_8_9670" x="0" y="-6.10352e-05" width="1045.81" height="132.237" filterUnits="userSpaceOnUse" color-interpolation-filters="sRGB">
<feFlood flood-opacity="0" result="BackgroundImageFix"/>
<feColorMatrix in="SourceAlpha" type="matrix" values="0 0 0 0 0 0 0 0 0 0 0 0 0 0 0 0 0 0 127 0" result="hardAlpha"/>
<feMorphology radius="2" operator="erode" in="SourceAlpha" result="effect1_dropShadow_8_9670"/>
<feOffset dy="2"/>
<feGaussianBlur stdDeviation="2"/>
<feComposite in2="hardAlpha" operator="out"/>
<feColorMatrix type="matrix" values="0 0 0 0 0 0 0 0 0 0 0 0 0 0 0 0 0 0 0.1 0"/>
<feBlend mode="normal" in2="BackgroundImageFix" result="effect1_dropShadow_8_9670"/>
<feColorMatrix in="SourceAlpha" type="matrix" values="0 0 0 0 0 0 0 0 0 0 0 0 0 0 0 0 0 0 127 0" result="hardAlpha"/>
<feMorphology radius="1" operator="erode" in="SourceAlpha" result="effect2_dropShadow_8_9670"/>
<feOffset dy="4"/>
<feGaussianBlur stdDeviation="3"/>
<feComposite in2="hardAlpha" operator="out"/>
<feColorMatrix type="matrix" values="0 0 0 0 0 0 0 0 0 0 0 0 0 0 0 0 0 0 0.1 0"/>
<feBlend mode="normal" in2="effect1_dropShadow_8_9670" result="effect2_dropShadow_8_9670"/>
<feBlend mode="normal" in="SourceGraphic" in2="effect2_dropShadow_8_9670" result="shape"/>
</filter>
</defs>
</svg>
