<svg width="190" height="51" viewBox="0 0 190 51" fill="none" xmlns="http://www.w3.org/2000/svg">
<rect x="2.5" y="2.5" width="185" height="46" rx="23" fill="#FFF9E9" stroke="#E8642F" stroke-width="5"/>
<path d="M42.7612 25.125H38.1487L38.1262 23.955H42.0975C42.9075 23.955 43.5975 23.8387 44.1675 23.6062C44.7375 23.3737 45.1687 23.0287 45.4612 22.5712C45.7612 22.1062 45.9112 21.5362 45.9112 20.8612C45.9112 20.1712 45.765 19.6012 45.4725 19.1512C45.18 18.6937 44.7412 18.3562 44.1562 18.1387C43.5712 17.9212 42.8362 17.8125 41.9512 17.8125H38.5087V33H37.125V16.62H41.9512C42.7837 16.62 43.53 16.7025 44.19 16.8675C44.85 17.0325 45.4125 17.2912 45.8775 17.6437C46.3425 17.9962 46.695 18.4425 46.935 18.9825C47.1825 19.515 47.3062 20.1525 47.3062 20.895C47.3062 21.57 47.1562 22.1812 46.8562 22.7287C46.5562 23.2687 46.1325 23.7112 45.585 24.0562C45.045 24.3937 44.3962 24.6037 43.6387 24.6862L42.7612 25.125ZM42.66 33H37.71L38.4187 31.8187H42.66C43.47 31.8187 44.16 31.6837 44.73 31.4137C45.3075 31.1362 45.75 30.7425 46.0575 30.2325C46.365 29.7225 46.5187 29.115 46.5187 28.41C46.5187 27.7875 46.3837 27.2287 46.1137 26.7337C45.8437 26.2387 45.4312 25.8487 44.8762 25.5637C44.3212 25.2712 43.6162 25.125 42.7612 25.125H39.8925L39.915 23.955H43.9762L44.2237 24.3712C44.9587 24.4462 45.6 24.675 46.1475 25.0575C46.7025 25.4325 47.13 25.9087 47.43 26.4862C47.7375 27.0637 47.8912 27.6975 47.8912 28.3875C47.8912 29.3775 47.67 30.2175 47.2275 30.9075C46.7925 31.59 46.1812 32.1112 45.3937 32.4712C44.6137 32.8237 43.7025 33 42.66 33ZM58.3425 30.8175V24.54C58.3425 23.9625 58.2225 23.4637 57.9825 23.0437C57.7425 22.6237 57.39 22.3012 56.925 22.0762C56.46 21.8512 55.8862 21.7387 55.2037 21.7387C54.5737 21.7387 54.0112 21.8512 53.5162 22.0762C53.0287 22.2937 52.6425 22.59 52.3575 22.965C52.08 23.3325 51.9412 23.7412 51.9412 24.1912L50.5912 24.18C50.5912 23.7225 50.7037 23.28 50.9287 22.8525C51.1537 22.425 51.4725 22.0425 51.885 21.705C52.2975 21.3675 52.7887 21.1012 53.3587 20.9062C53.9362 20.7037 54.57 20.6025 55.26 20.6025C56.13 20.6025 56.895 20.7487 57.555 21.0412C58.2225 21.3337 58.7437 21.7725 59.1187 22.3575C59.4937 22.9425 59.6812 23.6775 59.6812 24.5625V30.4462C59.6812 30.8662 59.7112 31.3012 59.7712 31.7512C59.8387 32.2012 59.9325 32.5725 60.0525 32.865V33H58.6237C58.5337 32.73 58.4625 32.3925 58.41 31.9875C58.365 31.575 58.3425 31.185 58.3425 30.8175ZM58.6575 25.9125L58.68 26.9475H56.0362C55.3462 26.9475 54.7275 27.0112 54.18 27.1387C53.64 27.2587 53.1825 27.4387 52.8075 27.6787C52.4325 27.9112 52.1437 28.1925 51.9412 28.5225C51.7462 28.8525 51.6487 29.2275 51.6487 29.6475C51.6487 30.0825 51.7575 30.48 51.975 30.84C52.2 31.2 52.515 31.4887 52.92 31.7062C53.3325 31.9162 53.82 32.0212 54.3825 32.0212C55.1325 32.0212 55.7925 31.8825 56.3625 31.605C56.94 31.3275 57.4162 30.9637 57.7912 30.5137C58.1662 30.0637 58.4175 29.5725 58.545 29.04L59.13 29.8162C59.0325 30.1912 58.8525 30.5775 58.59 30.975C58.335 31.365 58.0012 31.7325 57.5887 32.0775C57.1762 32.415 56.6887 32.6925 56.1262 32.91C55.5712 33.12 54.9412 33.225 54.2362 33.225C53.4412 33.225 52.7475 33.075 52.155 32.775C51.57 32.475 51.1125 32.0662 50.7825 31.5487C50.46 31.0237 50.2987 30.4312 50.2987 29.7712C50.2987 29.1712 50.4262 28.635 50.6812 28.1625C50.9362 27.6825 51.3037 27.2775 51.7837 26.9475C52.2712 26.61 52.8562 26.355 53.5387 26.1825C54.2287 26.0025 55.0012 25.9125 55.8562 25.9125H58.6575ZM67.7812 32.0662C68.3512 32.0662 68.8837 31.9612 69.3787 31.7512C69.8812 31.5337 70.2937 31.215 70.6162 30.795C70.9462 30.3675 71.1337 29.8462 71.1787 29.2312H72.4612C72.4237 30.0037 72.1875 30.6937 71.7525 31.3012C71.325 31.9012 70.7625 32.3737 70.065 32.7187C69.375 33.0563 68.6137 33.225 67.7812 33.225C66.9337 33.225 66.1837 33.0713 65.5312 32.7637C64.8862 32.4562 64.3462 32.0287 63.9112 31.4812C63.4762 30.9262 63.1462 30.2812 62.9212 29.5462C62.7037 28.8037 62.595 28.005 62.595 27.15V26.6775C62.595 25.8225 62.7037 25.0275 62.9212 24.2925C63.1462 23.55 63.4762 22.905 63.9112 22.3575C64.3462 21.8025 64.8862 21.3712 65.5312 21.0637C66.1762 20.7562 66.9225 20.6025 67.77 20.6025C68.64 20.6025 69.42 20.7787 70.11 21.1312C70.8075 21.4837 71.3625 21.9825 71.775 22.6275C72.195 23.2725 72.4237 24.0375 72.4612 24.9225H71.1787C71.1412 24.27 70.9687 23.7075 70.6612 23.235C70.3537 22.7625 69.9487 22.3987 69.4462 22.1437C68.9437 21.8887 68.385 21.7612 67.77 21.7612C67.08 21.7612 66.4912 21.8962 66.0037 22.1662C65.5162 22.4287 65.1187 22.7925 64.8112 23.2575C64.5112 23.715 64.29 24.24 64.1475 24.8325C64.005 25.4175 63.9337 26.0325 63.9337 26.6775V27.15C63.9337 27.8025 64.0012 28.425 64.1362 29.0175C64.2787 29.6025 64.5 30.1237 64.8 30.5812C65.1075 31.0387 65.505 31.4025 65.9925 31.6725C66.4875 31.935 67.0837 32.0662 67.7812 32.0662ZM76.5113 15.72V33H75.1725V15.72H76.5113ZM84.15 20.8275L78.4575 26.475L76.0388 28.815L75.8363 27.4987L77.7825 25.395L82.4513 20.8275H84.15ZM82.98 33L77.895 26.6775L78.6375 25.5187L84.6 33H82.98ZM96.6937 20.8275V21.93H90.5962V20.8275H96.6937ZM92.835 17.7H94.1737V30.0412C94.1737 30.6037 94.2487 31.0275 94.3987 31.3125C94.5487 31.5975 94.7437 31.7887 94.9837 31.8862C95.2237 31.9837 95.4825 32.0325 95.76 32.0325C95.9625 32.0325 96.1575 32.0212 96.345 31.9987C96.5325 31.9687 96.7012 31.9387 96.8512 31.9087L96.9075 33.045C96.7425 33.0975 96.5287 33.1388 96.2662 33.1688C96.0037 33.2063 95.7412 33.225 95.4787 33.225C94.9612 33.225 94.5037 33.1313 94.1062 32.9437C93.7087 32.7487 93.3975 32.4187 93.1725 31.9537C92.9475 31.4812 92.835 30.84 92.835 30.03V17.7ZM98.55 27.105V26.7337C98.55 25.8487 98.6775 25.0312 98.9325 24.2812C99.1875 23.5312 99.5512 22.8825 100.024 22.335C100.504 21.7875 101.077 21.3637 101.745 21.0637C102.412 20.7562 103.155 20.6025 103.972 20.6025C104.797 20.6025 105.544 20.7562 106.211 21.0637C106.879 21.3637 107.452 21.7875 107.932 22.335C108.412 22.8825 108.78 23.5312 109.035 24.2812C109.29 25.0312 109.417 25.8487 109.417 26.7337V27.105C109.417 27.99 109.29 28.8075 109.035 29.5575C108.78 30.3 108.412 30.945 107.932 31.4925C107.46 32.04 106.89 32.4675 106.222 32.775C105.555 33.075 104.812 33.225 103.995 33.225C103.17 33.225 102.424 33.075 101.756 32.775C101.089 32.4675 100.515 32.04 100.035 31.4925C99.555 30.945 99.1875 30.3 98.9325 29.5575C98.6775 28.8075 98.55 27.99 98.55 27.105ZM99.8887 26.7337V27.105C99.8887 27.7725 99.9787 28.4062 100.159 29.0062C100.339 29.5987 100.601 30.1275 100.946 30.5925C101.291 31.05 101.719 31.41 102.229 31.6725C102.739 31.935 103.327 32.0662 103.995 32.0662C104.655 32.0662 105.236 31.935 105.739 31.6725C106.249 31.41 106.676 31.05 107.021 30.5925C107.366 30.1275 107.625 29.5987 107.797 29.0062C107.977 28.4062 108.067 27.7725 108.067 27.105V26.7337C108.067 26.0737 107.977 25.4475 107.797 24.855C107.625 24.2625 107.362 23.7337 107.01 23.2687C106.665 22.8037 106.237 22.4362 105.727 22.1662C105.217 21.8962 104.632 21.7612 103.972 21.7612C103.312 21.7612 102.727 21.8962 102.217 22.1662C101.715 22.4362 101.287 22.8037 100.935 23.2687C100.59 23.7337 100.327 24.2625 100.147 24.855C99.975 25.4475 99.8887 26.0737 99.8887 26.7337ZM123.187 16.62V33H121.815V16.62H123.187ZM128.801 16.62V17.8125H116.212V16.62H128.801ZM129.285 27.105V26.7337C129.285 25.8487 129.413 25.0312 129.668 24.2812C129.923 23.5312 130.286 22.8825 130.759 22.335C131.239 21.7875 131.813 21.3637 132.48 21.0637C133.148 20.7562 133.89 20.6025 134.708 20.6025C135.533 20.6025 136.279 20.7562 136.946 21.0637C137.614 21.3637 138.188 21.7875 138.668 22.335C139.148 22.8825 139.515 23.5312 139.77 24.2812C140.025 25.0312 140.153 25.8487 140.153 26.7337V27.105C140.153 27.99 140.025 28.8075 139.77 29.5575C139.515 30.3 139.148 30.945 138.668 31.4925C138.195 32.04 137.625 32.4675 136.958 32.775C136.29 33.075 135.548 33.225 134.73 33.225C133.905 33.225 133.159 33.075 132.491 32.775C131.824 32.4675 131.25 32.04 130.77 31.4925C130.29 30.945 129.923 30.3 129.668 29.5575C129.413 28.8075 129.285 27.99 129.285 27.105ZM130.624 26.7337V27.105C130.624 27.7725 130.714 28.4062 130.894 29.0062C131.074 29.5987 131.336 30.1275 131.681 30.5925C132.026 31.05 132.454 31.41 132.964 31.6725C133.474 31.935 134.063 32.0662 134.73 32.0662C135.39 32.0662 135.971 31.935 136.474 31.6725C136.984 31.41 137.411 31.05 137.756 30.5925C138.101 30.1275 138.36 29.5987 138.533 29.0062C138.713 28.4062 138.803 27.7725 138.803 27.105V26.7337C138.803 26.0737 138.713 25.4475 138.533 24.855C138.36 24.2625 138.098 23.7337 137.745 23.2687C137.4 22.8037 136.973 22.4362 136.463 22.1662C135.953 21.8962 135.368 21.7612 134.708 21.7612C134.048 21.7612 133.463 21.8962 132.953 22.1662C132.45 22.4362 132.023 22.8037 131.67 23.2687C131.325 23.7337 131.063 24.2625 130.883 24.855C130.71 25.4475 130.624 26.0737 130.624 26.7337ZM144.27 23.1675V37.68H142.92V20.8275H144.18L144.27 23.1675ZM152.73 26.8012V27.0375C152.73 27.945 152.625 28.7775 152.415 29.535C152.205 30.2925 151.901 30.9487 151.504 31.5037C151.114 32.0512 150.63 32.475 150.053 32.775C149.475 33.075 148.819 33.225 148.084 33.225C147.356 33.225 146.708 33.1125 146.138 32.8875C145.568 32.6625 145.076 32.3437 144.664 31.9312C144.259 31.5112 143.933 31.0237 143.685 30.4687C143.445 29.9062 143.276 29.2912 143.179 28.6237V25.5075C143.291 24.7725 143.475 24.105 143.73 23.505C143.985 22.905 144.311 22.3875 144.709 21.9525C145.114 21.5175 145.594 21.1837 146.149 20.9512C146.704 20.7187 147.338 20.6025 148.05 20.6025C148.793 20.6025 149.453 20.7487 150.03 21.0412C150.615 21.3262 151.106 21.7425 151.504 22.29C151.909 22.83 152.213 23.4825 152.415 24.2475C152.625 25.005 152.73 25.8562 152.73 26.8012ZM151.38 27.0375V26.8012C151.38 26.0887 151.305 25.4287 151.155 24.8212C151.013 24.2137 150.791 23.685 150.491 23.235C150.199 22.7775 149.824 22.4212 149.366 22.1662C148.916 21.9112 148.38 21.7837 147.758 21.7837C147.113 21.7837 146.561 21.8925 146.104 22.11C145.654 22.32 145.279 22.6012 144.979 22.9537C144.679 23.2987 144.443 23.6775 144.27 24.09C144.098 24.5025 143.97 24.9075 143.888 25.305V28.8937C144.03 29.4637 144.259 29.9925 144.574 30.48C144.889 30.96 145.309 31.3462 145.834 31.6387C146.366 31.9237 147.015 32.0662 147.78 32.0662C148.395 32.0662 148.928 31.9387 149.378 31.6837C149.828 31.4287 150.199 31.0725 150.491 30.615C150.791 30.1575 151.013 29.625 151.155 29.0175C151.305 28.41 151.38 27.75 151.38 27.0375Z" fill="#E8642F"/>
</svg>
