<svg width="1521" height="22" viewBox="0 0 1521 22" fill="none" xmlns="http://www.w3.org/2000/svg">
<path d="M7.60498 9.35556H1519.6V12.4935H7.60498V9.35556Z" fill="#E8642F"/>
<path d="M772.136 0.214935C778.839 0.399339 785.537 0.926034 792.234 1.79697C798.244 2.57892 804.28 2.79578 810.281 2.50009C816.843 2.17706 823.406 2.02158 829.968 2.03134C836.582 2.04157 843.219 2.28591 849.832 2.73447C855.903 3.14642 861.981 3.10478 868.054 2.61728C874.744 2.07892 881.46 1.83895 888.152 1.97275C894.431 2.09923 900.739 2.02105 907.019 1.73837C913.535 1.4446 920.074 1.27197 926.589 1.15244C933.202 1.03114 939.84 1.13551 946.453 1.4454C952.877 1.74644 959.305 2.01021 965.73 2.26572C972.078 2.51813 978.425 2.62082 984.773 2.61728C991.119 2.6137 997.469 2.5223 1003.82 2.26572C1010.49 1.99564 1017.18 2.03007 1023.85 2.3829C1029.96 2.70621 1036.09 2.59139 1042.19 2.08994C1048.93 1.53643 1055.68 1.40526 1062.41 1.62119C1068.58 1.81936 1074.76 1.63633 1080.93 1.15244C1087.5 0.636097 1094.09 0.332879 1100.67 0.156342C1107.56 -0.0285459 1114.48 0.35796 1121.35 1.38681C1127.36 2.28407 1133.35 2.62291 1139.34 2.4415C1145.71 2.24824 1152.08 1.9585 1158.44 1.56259C1165.24 1.14 1172.05 1.21403 1178.84 1.73837C1185.01 2.21631 1191.24 2.35199 1197.41 2.14853C1203.99 1.9323 1210.58 1.89278 1217.16 2.03134C1223.28 2.15962 1229.43 1.92347 1235.55 1.26962C1242.45 0.53535 1249.34 0.401685 1256.24 0.91806C1262.57 1.39196 1268.9 1.68733 1275.22 1.85556C1281.39 2.01941 1287.57 1.86272 1293.74 1.32822C1300.63 0.731525 1307.53 0.758651 1314.42 1.38681C1320.67 1.9564 1326.92 2.28717 1333.17 2.3829C1339.39 2.47765 1345.64 2.30792 1351.86 1.85556C1358.32 1.3855 1364.8 0.938209 1371.26 0.507904C1378.12 0.0506515 1385.02 0.126015 1391.88 0.800873C1398.25 1.42712 1404.62 1.95731 1410.98 2.3829C1416.85 2.7751 1422.73 2.52122 1428.62 1.56259C1435.65 0.417234 1442.72 0.0851942 1449.77 0.625092C1456.24 1.12024 1462.7 1.63744 1469.17 2.20712C1475.47 2.76261 1481.79 3.13934 1488.09 3.3204C1494.12 3.49355 1500.16 3.16923 1506.2 2.32431C1507.87 2.09037 1509.35 1.8944 1510.53 1.79697C1511.42 1.72417 1513.02 1.65533 1514.46 1.91415C1514.87 1.98868 1515.73 2.14124 1516.69 2.61728C1517.56 3.05676 1519.74 4.38815 1520.61 7.24619C1521.53 10.2692 1520.31 12.6608 1519.62 13.6915C1518.93 14.7161 1518.15 15.3559 1517.8 15.6251C1516.56 16.5685 1515 17.1969 1514.23 17.5001C1509.7 19.2722 1503.91 20.395 1497.18 21.0743C1490.37 21.7611 1483.54 21.962 1476.73 21.6602C1470.09 21.3661 1463.44 20.8164 1456.8 20.0196C1450.95 19.3173 1445.08 19.2779 1439.23 19.961C1432.47 20.7485 1425.71 21.1509 1418.95 21.0743C1412.42 20.9994 1405.86 20.8019 1399.32 20.4884C1393.18 20.1933 1387.02 20.272 1380.87 20.7227C1374.09 21.2195 1367.31 21.2379 1360.53 20.8399C1354.16 20.4653 1347.75 20.2047 1341.37 20.0196C1335.05 19.8365 1328.71 19.7837 1322.39 19.9024C1315.85 20.025 1309.3 20.0473 1302.76 19.9024C1296.64 19.7669 1290.49 19.9893 1284.36 20.6642C1277.25 21.4456 1270.13 21.3211 1263.03 20.1954C1257.14 19.2617 1251.27 18.979 1245.4 19.3751C1238.96 19.8111 1232.5 20.2598 1226.06 20.7227C1219.37 21.2043 1212.66 21.3713 1205.96 21.1915C1199.58 21.02 1193.19 20.9094 1186.8 20.8985C1180.16 20.8872 1173.52 20.6116 1166.88 20.0782C1160.77 19.5871 1154.65 19.4984 1148.54 19.8438C1141.82 20.2239 1135.1 20.2605 1128.39 19.9024C1122.22 19.5732 1116.04 19.6032 1109.87 19.961C1103.07 20.3565 1096.22 20.238 1089.42 19.6681C1086.41 19.4167 1083.41 19.3053 1080.4 19.3165L1061.06 20.1954C1057.61 20.1918 1054.15 20.0488 1050.69 19.7267C1044.55 19.1532 1038.37 18.9474 1032.23 19.1407C1025.56 19.3504 1018.87 19.26 1012.19 18.8477C1006.14 18.4746 1000.08 18.5547 994.031 19.1407C987.278 19.794 980.514 20.0233 973.757 19.8438C967.43 19.6759 961.101 19.6564 954.773 19.7852C948.293 19.9172 941.8 20.0251 935.32 20.0782C928.777 20.1317 922.234 20.0515 915.691 19.8438C909.195 19.6375 902.675 19.4069 896.179 19.0821C890.13 18.7804 884.07 18.9526 878.015 19.6095C871.093 20.3596 864.14 20.4268 857.214 19.8438C850.848 19.3082 844.479 18.897 838.113 18.5548C832.293 18.242 826.445 18.636 820.593 19.7852C813.424 21.1909 806.229 21.4929 799.031 20.7227C792.821 20.0575 786.603 19.6833 780.398 19.6095C773.902 19.5327 767.382 19.396 760.886 19.1993C754.903 19.0185 748.897 19.3846 742.898 20.3126C735.775 21.4133 728.644 21.5363 721.511 20.6642C715.327 19.9079 709.116 19.5197 702.937 19.4337C696.518 19.3444 690.079 19.2914 683.66 19.2579C677.489 19.2264 671.318 19.5089 665.144 20.1368C658.549 20.808 651.936 21.2643 645.339 21.5431C638.345 21.8385 631.334 21.4093 624.363 20.1954C618.668 19.2053 612.993 19.0398 607.312 19.7852C600.153 20.7272 592.96 20.6606 585.808 19.5509C580.184 18.6795 574.566 18.7261 568.933 19.7267C561.706 21.0111 554.435 21.1632 547.195 20.1368C541.057 19.2676 534.925 18.7715 528.796 18.672C522.849 18.5753 516.897 19.1078 510.925 20.1954C503.551 21.5391 496.144 21.4636 488.777 20.0196C483.179 18.9222 477.593 18.3421 472.019 18.2618C471.589 18.2581 471.16 18.2694 470.73 18.2618C464.482 18.2534 458.229 18.4 451.98 18.7892C445.23 19.2094 438.456 19.2411 431.707 18.8477C425.594 18.4926 419.48 18.5213 413.367 18.9649C407.04 19.4244 400.71 20.0765 394.382 20.8399C387.595 21.6591 380.787 21.9751 373.992 21.836C367.419 21.7002 360.817 21.43 354.246 20.9571C347.903 20.5005 341.545 20.1477 335.203 19.961C328.765 19.7716 322.304 19.59 315.867 19.4337C309.343 19.275 302.82 18.9906 296.296 18.6134C290.368 18.2704 284.427 18.6004 278.484 19.4923C271.301 20.5701 264.104 20.5158 256.921 19.4337C251.328 18.5895 245.717 18.7033 240.105 19.7852C232.989 21.1599 225.806 21.5612 218.66 20.9571C212.573 20.444 206.463 20.3688 200.378 20.7227C193.699 21.1105 187.02 21.169 180.339 20.8985C173.942 20.6387 167.518 20.4379 161.121 20.3126C154.911 20.191 148.7 20.3763 142.488 20.8399C135.557 21.3576 128.612 21.188 121.687 20.3712C115.436 19.634 109.185 19.1414 102.937 18.9063C96.7731 18.6745 90.5872 18.8434 84.4214 19.3165C77.5499 19.8425 70.6658 19.7371 63.7964 19.0821C57.8206 18.5131 51.8424 18.5202 45.8667 19.0821C39.3042 19.6991 32.7429 20.1875 26.1792 20.4884C19.5061 20.794 13.2485 20.3643 8.60107 18.2032C7.15062 17.5287 6.06343 16.9752 5.31982 16.6212C4.96362 16.4516 4.61861 16.329 4.38232 16.211C4.28578 16.1627 4.10519 16.0247 3.91357 15.9181C3.89339 15.9068 3.54149 15.7281 3.15186 15.4493C3.03514 15.3655 2.77423 15.2178 2.50732 14.9806C2.36574 14.8545 1.65551 14.2038 1.04248 13.1642C0.732396 12.6332 0.0666458 11.3977 -0.012207 9.70712C-0.103911 7.67044 0.655633 5.53304 2.27295 3.96494C3.62967 2.6515 5.10669 2.19115 5.78857 2.03134C6.53402 1.85707 7.15336 1.85616 7.48779 1.85556C7.89286 1.81987 8.50194 1.75195 9.3042 1.67978C10.9302 1.53349 13.404 1.32844 16.6284 1.03525C23.483 0.413369 30.3389 0.324468 37.1948 0.859467C43.243 1.33248 49.3104 1.35101 55.3589 0.859467C62.4334 0.283688 69.5159 0.596229 76.5698 1.79697C82.5123 2.80983 88.4609 3.20251 94.3823 2.96884C100.827 2.71436 107.274 2.46067 113.718 2.20712C120.371 1.9454 127.046 1.92946 133.699 2.20712C139.85 2.46365 146.003 2.38534 152.156 1.91415C158.883 1.39888 165.641 1.26828 172.371 1.504C178.914 1.73363 185.457 2.10338 192 2.61728C197.965 3.08606 203.958 2.95561 209.929 2.26572C216.836 1.46834 223.759 1.3078 230.671 1.79697C236.903 2.23762 243.133 2.41944 249.363 2.32431C256.001 2.22286 262.647 2.33597 269.285 2.73447C275.489 3.10682 281.714 3.20611 287.917 2.96884C294.435 2.71978 300.97 2.55098 307.488 2.50009C313.772 2.45068 320.07 2.19114 326.355 1.73837C333.111 1.25232 339.871 1.19744 346.628 1.56259C352.916 1.90264 359.209 2.03316 365.496 1.97275C371.878 1.91116 378.273 1.78367 384.656 1.56259C391.233 1.33467 397.824 1.31483 404.402 1.4454C410.779 1.57249 417.185 1.61307 423.562 1.56259C430.116 1.51064 436.696 1.57661 443.25 1.79697C449.812 2.0179 456.375 2.37813 462.937 2.91025C465.555 3.12254 468.171 3.26991 470.789 3.3204L470.906 3.26181C471.297 3.26259 471.687 3.31535 472.078 3.3204C475.122 3.34825 478.174 3.27704 481.218 3.08603C487.683 2.68045 494.148 2.3222 500.613 1.97275C507.483 1.60139 514.374 1.77647 521.238 2.55869C527.23 3.24115 533.239 3.39204 539.226 2.96884C545.863 2.50032 552.509 2.2716 559.148 2.32431C565.238 2.37227 571.331 2.01257 577.429 1.21103C584.272 0.310588 591.143 -0.0509723 597.996 0.156342C604.417 0.351255 610.851 0.539179 617.273 0.683685C623.864 0.831927 630.488 1.16015 637.078 1.67978C643.366 2.17544 649.658 2.46734 655.945 2.55869C662.312 2.65115 668.679 2.65603 675.046 2.55869C681.322 2.46256 687.636 2.15567 693.914 1.62119C700.846 1.03215 707.786 1.08721 714.714 1.85556C720.533 2.50035 726.349 2.45207 732.175 1.62119C738.944 0.655856 745.729 0.116675 752.507 0.0391541C759.05 -0.0355034 765.593 0.0349557 772.136 0.214935Z" fill="#E8642F"/>
</svg>
