<svg width="1512" height="62" viewBox="0 0 1512 62" fill="none" xmlns="http://www.w3.org/2000/svg" xmlns:xlink="http://www.w3.org/1999/xlink">
<g id="HeaderBorder_inner" data-figma-trr="l30u0.8-0f">
<path fill-rule="evenodd" clip-rule="evenodd" d="M47.4836 0.123755C47.3991 0.267696 47.3529 0.27666 47.2235 0.174393C47.0441 0.0326189 46.2927 0.176463 46.016 0.405528C45.9306 0.476169 45.771 0.549567 45.6612 0.568779C45.5515 0.587892 45.4816 0.638927 45.5061 0.682179C45.5305 0.72543 45.3526 0.845239 45.1108 0.948294C44.7975 1.08189 44.6711 1.1947 44.6711 1.34071C44.6711 1.45352 44.5978 1.57253 44.508 1.60534C44.4183 1.63815 44.3045 1.76623 44.2551 1.88997C44.1888 2.05589 44.1084 2.10091 43.9487 2.06111C43.7548 2.01283 43.7365 2.04298 43.7722 2.35106C43.8029 2.61727 43.7752 2.69234 43.6494 2.68367C43.554 2.67717 43.4429 2.79865 43.3805 2.97776C43.322 3.14565 43.2172 3.3484 43.1475 3.4284C43.0555 3.53402 43.0519 3.60338 43.1346 3.6821C43.2171 3.76072 43.1731 3.86191 42.9731 4.05235C42.8051 4.21235 42.6523 4.51245 42.5806 4.82348C42.5161 5.10349 42.402 5.40202 42.3272 5.48675C42.2223 5.60556 42.2193 5.66753 42.3139 5.75768C42.4086 5.84783 42.4083 5.90152 42.3125 5.99276C42.2442 6.05778 42.1883 6.28211 42.1883 6.49118C42.1883 6.7102 42.146 6.84645 42.0886 6.81266C42.0304 6.77847 41.9893 6.93 41.9899 7.17631C41.9907 7.40863 41.9483 8.04203 41.896 8.5839C41.8436 9.12578 41.8233 9.6246 41.8505 9.69229C41.8778 9.76007 41.8522 9.81544 41.7937 9.81544C41.678 9.81544 41.7033 10.7306 41.827 11.0223C41.8729 11.1305 41.853 11.1948 41.7735 11.1948C41.6892 11.1948 41.6718 11.2687 41.7215 11.4164C41.7854 11.6066 41.8363 11.8811 41.8696 12.2152C41.8742 12.2616 41.9478 12.2741 42.0332 12.2428C42.1185 12.2117 42.1883 12.2291 42.1883 12.2816C42.1883 12.3341 42.1418 12.377 42.0849 12.377C41.9295 12.377 41.9605 12.6667 42.1335 12.8315C42.2674 12.959 42.2934 12.9434 42.35 12.7014C42.476 12.1633 42.528 12.0313 42.642 11.9598C42.7061 11.9196 42.6337 11.8868 42.4789 11.8859C42.1122 11.8839 42.0274 11.7324 42.2783 11.5278C42.3896 11.437 42.4564 11.3028 42.4268 11.2295C42.3973 11.1562 42.4246 11.0962 42.4876 11.0962C42.5506 11.0962 42.6021 10.9765 42.6021 10.8302C42.6021 10.5403 42.7549 10.6166 42.8387 10.9485C42.8818 11.1188 42.8901 11.1139 42.9005 10.9123C42.91 10.7268 42.9565 10.6901 43.1276 10.7327C43.2846 10.7718 43.3273 10.7484 43.2859 10.6457C43.2548 10.5683 43.2745 10.5051 43.3295 10.5051C43.3846 10.5051 43.4297 10.4253 43.4297 10.3278C43.4297 10.2302 43.4856 10.0972 43.5539 10.0322C43.6445 9.94588 43.6458 9.91396 43.559 9.91396C43.4936 9.91396 43.3999 9.98214 43.351 10.0655C43.286 10.1759 43.1981 10.1945 43.026 10.1339L42.7899 10.0507L43.0563 9.80992C43.3605 9.53494 43.394 9.42135 43.1711 9.42135C42.9972 9.42135 42.9596 9.17061 43.1194 9.07652C43.1763 9.04302 43.2228 9.06262 43.2228 9.11996C43.2228 9.2974 43.4027 9.23484 43.4566 9.03859C43.4944 8.90095 43.5747 8.86509 43.7665 8.90006C44.0026 8.94302 44.0206 8.92243 43.9708 8.66696C43.9408 8.51297 43.8732 8.36006 43.8207 8.32745C43.6895 8.24567 43.6426 7.75454 43.7595 7.68577C43.8118 7.65503 43.9451 7.72941 44.0559 7.85099C44.2952 8.11375 44.3259 7.98203 44.0976 7.67168C43.9674 7.49454 43.9587 7.38133 44.0505 7.0564C44.1125 6.83739 44.1321 6.6104 44.0943 6.55207C44.0495 6.4831 44.1044 6.48625 44.2515 6.56123C44.4289 6.65167 44.452 6.70576 44.3589 6.81266C44.2936 6.88754 44.258 7.02853 44.2799 7.12597C44.311 7.26548 44.3575 7.23503 44.498 6.98291C44.671 6.67237 44.878 6.55483 44.878 6.76705C44.878 6.82439 44.9334 6.83877 45.001 6.79897C45.0848 6.74971 45.0518 6.69582 44.8976 6.6303C44.6706 6.53384 44.5804 6.26862 44.7746 6.26862C44.9234 6.26862 44.9022 5.99876 44.7487 5.93975C44.6453 5.90004 44.6453 5.88852 44.7487 5.88231C44.8199 5.87807 44.878 5.76743 44.878 5.6364C44.878 5.50546 44.8199 5.37443 44.7487 5.34526C44.6776 5.316 44.759 5.30871 44.9297 5.32891C45.1004 5.3492 45.2718 5.3694 45.3107 5.37384C45.3495 5.37827 45.4109 5.47068 45.4471 5.57925C45.5042 5.75049 45.5324 5.75797 45.6609 5.63551C45.8764 5.43039 45.8426 5.28507 45.5763 5.27177C45.4483 5.26527 45.3086 5.26527 45.2659 5.27177C45.0942 5.29758 45.2019 5.00743 45.3806 4.9629C45.5582 4.91866 45.7411 4.46329 45.6254 4.35324C45.5977 4.32674 45.4764 4.35511 45.3559 4.41629C45.1584 4.51649 45.1507 4.51127 45.2786 4.36358C45.3567 4.27344 45.3844 4.19964 45.3401 4.19964C45.296 4.19964 45.345 4.10989 45.4492 4.00023C45.5765 3.86624 45.6622 3.83707 45.7104 3.91136C45.7563 3.9822 45.9166 3.89363 46.1576 3.66407C46.5883 3.25383 46.5919 3.24239 46.362 3.00052C46.1993 2.82929 46.2085 2.82032 46.5489 2.82032C46.8434 2.82032 46.927 2.8685 47.0195 3.09126L47.1319 3.3622L47.1396 3.11589C47.1439 2.98042 47.079 2.78348 46.9954 2.67835C46.9119 2.57313 46.8435 2.46061 46.8435 2.4284C46.8435 2.29844 47.4464 2.33638 47.5662 2.47381C47.6368 2.5548 47.7411 2.59372 47.7979 2.56032C47.8547 2.52683 47.9408 2.56062 47.9892 2.6353C48.0746 2.76673 48.114 2.7816 48.447 2.80801C48.5323 2.81481 48.5935 2.85352 48.5828 2.89421C48.5723 2.9349 48.7119 3.26062 48.8932 3.61806C49.0745 3.9755 49.2229 4.33905 49.2229 4.42595C49.2229 4.51284 49.2836 4.61935 49.3579 4.6627C49.5563 4.77846 49.7569 5.70527 49.6031 5.79571C49.5164 5.84684 49.5329 5.94596 49.6635 6.1565C49.7626 6.31621 49.8443 6.59512 49.8451 6.7764C49.846 6.95769 49.8901 7.17138 49.9432 7.25129C50.0031 7.34153 50.0023 7.41838 49.941 7.45444C49.8802 7.4902 49.8774 7.68981 49.9335 7.97612C49.9864 8.24597 49.986 8.46243 49.9323 8.49405C49.8033 8.56992 49.8945 9.231 50.0461 9.32026C50.1378 9.37425 50.1274 9.40992 50.0074 9.45376C49.835 9.51681 49.7767 9.81544 49.9368 9.81544C50.0603 9.81544 50.0448 10.5203 49.9177 10.6775C49.8504 10.7608 49.8598 10.8007 49.9468 10.8007C50.0406 10.8007 50.0624 10.9669 50.0272 11.4164C50.0008 11.7552 50.0151 12.1535 50.0589 12.3019C50.1028 12.4501 50.1017 12.5932 50.0565 12.6198C49.9147 12.7032 49.8518 13.3923 49.9437 13.854C49.9921 14.0974 50.0018 14.3413 49.9651 14.3959C49.8715 14.5355 49.8739 14.6825 49.9709 14.7483C50.0163 14.779 49.9787 14.947 49.8872 15.1215C49.7876 15.3117 49.753 15.5063 49.8009 15.6074C49.9044 15.8257 49.9197 17.3971 49.8177 17.3372C49.7282 17.2845 49.7247 17.3174 49.6786 18.6332C49.6352 19.8702 49.5784 20.5616 49.5046 20.7515C49.3539 21.1386 49.3234 21.7728 49.4516 21.8517C49.5369 21.9042 49.5477 21.9603 49.4815 22.0076C49.3861 22.0757 49.3588 22.2942 49.3315 23.2072C49.3259 23.393 49.2759 23.597 49.2203 23.6608C49.1647 23.7246 49.1211 23.8831 49.1233 24.013C49.1256 24.1428 49.1008 24.4485 49.0682 24.6924C49.0355 24.9362 49.0096 25.232 49.0106 25.3495C49.0115 25.4672 48.9489 25.711 48.8715 25.8914C48.794 26.0719 48.7409 26.3653 48.7534 26.5435C48.766 26.7217 48.7412 26.8882 48.6984 26.9134C48.6556 26.9386 48.6326 27.1843 48.6474 27.4594C48.6648 27.7847 48.6239 28.0074 48.5304 28.0964C48.4501 28.1729 48.3891 28.4196 48.3923 28.6551C48.402 29.3629 48.3296 29.8472 48.1558 30.2367C48.0646 30.4412 48.0165 30.6746 48.049 30.7552C48.0815 30.8359 48.0547 30.9631 47.9896 31.0378C47.917 31.1211 47.8845 31.4449 47.9058 31.874C47.933 32.4263 47.9095 32.5742 47.7946 32.5742C47.6907 32.5742 47.6674 32.645 47.7137 32.8205C47.7493 32.956 47.736 33.0668 47.6841 33.0668C47.6321 33.0668 47.5857 33.1666 47.5809 33.2885C47.5629 33.752 47.5133 34.0382 47.4384 34.1096C47.3958 34.1502 47.3608 34.3064 47.3608 34.4568C47.3608 34.6071 47.311 34.7593 47.2503 34.7951C47.1895 34.8309 47.1627 34.9171 47.1907 34.9866C47.2188 35.0563 47.1721 35.2078 47.0871 35.3235C46.9614 35.4944 46.9545 35.5979 47.0504 35.8748C47.1761 36.2375 47.1261 36.4166 46.8989 36.4166C46.8142 36.4166 46.7791 36.4881 46.8095 36.5987C46.8369 36.6989 46.7916 36.9354 46.7087 37.1245C46.6121 37.3446 46.591 37.5247 46.6501 37.6252C46.7484 37.7925 46.5697 38.2885 46.4111 38.2885C46.3623 38.2885 46.3506 38.3957 46.3852 38.5267C46.4321 38.7053 46.3937 38.7926 46.232 38.875C46.0695 38.9578 46.016 39.0805 46.016 39.3699C46.016 39.5815 45.971 39.7812 45.9159 39.8136C45.8609 39.8461 45.8436 40.005 45.8776 40.167C45.9184 40.361 45.8859 40.5193 45.7824 40.6311C45.6959 40.7245 45.5925 40.9471 45.5526 41.1258C45.5128 41.3044 45.3974 41.4998 45.2965 41.5599C45.1884 41.6241 45.1332 41.7437 45.1625 41.8501C45.2191 42.0564 44.5925 43.6087 44.4526 43.6087C44.402 43.6087 44.3606 43.7086 44.3604 43.8304C44.3601 43.9523 44.2438 44.2702 44.1017 44.5367C43.9597 44.8033 43.8435 45.0758 43.8435 45.142C43.8435 45.2083 43.768 45.2901 43.6757 45.3238C43.5534 45.3687 43.524 45.4617 43.5674 45.6682C43.6099 45.8706 43.5723 45.9982 43.4351 46.1164C43.3296 46.2074 43.2133 46.434 43.1767 46.6201C43.14 46.8062 43.0656 46.9585 43.0113 46.9585C42.957 46.9585 42.9125 47.0472 42.9125 47.1556C42.9125 47.2639 42.8659 47.3526 42.809 47.3526C42.7521 47.3526 42.7056 47.4144 42.7056 47.4899C42.7056 47.5653 42.6358 47.6526 42.5504 47.6838C42.4651 47.715 42.3952 47.8084 42.3952 47.8914C42.3952 47.9744 42.3487 48.0423 42.2918 48.0423C42.2349 48.0423 42.1883 48.1319 42.1883 48.2415C42.1883 48.3511 42.0021 48.6331 41.7745 48.8683C41.547 49.1035 41.3608 49.3271 41.3608 49.3653C41.3608 49.4036 41.2094 49.5792 41.0245 49.7558C40.8397 49.9322 40.5305 50.2396 40.3376 50.4387C40.1447 50.638 39.9468 50.8009 39.898 50.8009C39.8491 50.8009 39.809 50.8674 39.809 50.9487C39.809 51.03 39.7377 51.0965 39.6506 51.0965C39.5634 51.0965 39.4655 51.1627 39.4329 51.2437C39.4002 51.3247 39.3319 51.3664 39.2809 51.3364C39.23 51.3064 39.1883 51.3325 39.1883 51.3944C39.1883 51.6097 38.4512 52.2 38.2462 52.1489C38.1017 52.1129 38.008 52.1863 37.8859 52.4313C37.7075 52.7894 37.3696 53.1336 37.4901 52.8345C37.5339 52.7259 37.5007 52.6728 37.389 52.6728C37.2976 52.6728 37.2228 52.7374 37.2228 52.8162C37.2228 52.895 37.1064 53.0703 36.9642 53.2058C36.8219 53.3412 36.7056 53.4213 36.7056 53.3837C36.7056 53.346 36.5864 53.4377 36.4406 53.5873C36.295 53.737 36.132 53.8336 36.0785 53.8022C36.0252 53.7707 35.9814 53.8189 35.9814 53.9091C35.9814 54.0059 35.9245 54.0525 35.8427 54.0226C35.7664 53.9947 35.6384 54.0115 35.5582 54.0597C35.4415 54.1301 35.4498 54.1479 35.5996 54.1492C35.7025 54.15 35.758 54.195 35.7228 54.2492C35.6876 54.3034 35.5524 54.3477 35.4224 54.3477C35.2923 54.3477 35.1026 54.4353 35.0008 54.5424C34.8991 54.6495 34.7825 54.7176 34.7418 54.6936C34.701 54.6696 34.6061 54.7599 34.5305 54.8941C34.4381 55.0589 34.3347 55.1204 34.213 55.0837C34.0915 55.0469 34.0107 55.0948 33.9655 55.2303C33.9225 55.3595 33.8093 55.4315 33.6494 55.4315C33.3509 55.4315 32.8156 55.726 32.6128 56.0016C32.4937 56.1635 32.3808 56.1927 32.0025 56.159C31.6194 56.125 31.5487 56.1438 31.5985 56.2673C31.6761 56.46 31.5622 56.4585 31.3583 56.2642C31.2701 56.1804 31.1719 56.1368 31.1398 56.1673C31.1076 56.1979 31.1365 56.2754 31.2038 56.3396C31.3859 56.513 31.3526 56.6138 31.1132 56.6138C30.9961 56.6138 30.929 56.6581 30.9641 56.7123C31.0198 56.798 30.81 56.8576 30.5762 56.8224C30.5336 56.816 30.4986 56.8578 30.4986 56.9151C30.4986 56.9725 30.4553 56.9939 30.4023 56.9628C30.3493 56.9316 30.2768 56.9512 30.241 57.0063C30.1659 57.1219 29.9755 57.1421 29.9936 57.0325C30.0313 56.8053 29.9501 56.8217 29.6813 57.0959C29.3904 57.3925 29.0503 57.5043 29.0503 57.3034C29.0503 57.2492 28.9805 57.2049 28.8952 57.2049C28.709 57.2049 28.6837 57.4007 28.8693 57.4049C28.9407 57.4066 28.9172 57.4531 28.8167 57.5088C28.7167 57.5643 28.592 57.5844 28.5394 57.5535C28.487 57.5225 28.4133 57.5445 28.3758 57.6021C28.2814 57.7477 27.9958 57.5147 28.0865 57.3662C28.1241 57.3046 28.0537 57.3386 27.9302 57.4418C27.8066 57.5451 27.7055 57.7017 27.7055 57.79C27.7055 57.8784 27.5707 58.0264 27.406 58.1191C27.1452 58.2658 27.0989 58.2685 27.0471 58.1404C27.0146 58.0594 26.9116 57.9931 26.8183 57.9931C26.7077 57.9931 26.6703 58.0462 26.7105 58.146C26.7478 58.2385 26.7292 58.2737 26.6636 58.2351C26.6039 58.1999 26.4225 58.2234 26.2605 58.2874C26.016 58.3838 25.9203 58.3751 25.6978 58.2362C25.4402 58.0755 25.4296 58.0766 25.4296 58.265C25.4296 58.5334 24.8143 58.6622 24.6368 58.431C24.5483 58.3158 24.4642 58.2982 24.326 58.3661C24.2218 58.4172 24.0784 58.4392 24.0072 58.4149C23.8105 58.3478 23.8526 58.554 24.0503 58.6262C24.1758 58.672 24.1918 58.7188 24.109 58.7976C23.9522 58.947 23.6348 58.8161 23.7087 58.6327C23.7413 58.5518 23.7278 58.4857 23.6789 58.4857C23.5553 58.4857 23.4493 58.7773 23.5284 58.8992C23.5698 58.9629 23.5087 58.9738 23.3606 58.929C23.2157 58.8852 23.1518 58.8956 23.1913 58.9565C23.2263 59.0103 23.1378 59.0755 22.9948 59.1016C22.852 59.1277 22.7136 59.1158 22.6873 59.0753C22.5932 58.9303 22.1194 58.9104 21.9204 59.0431C21.7437 59.161 21.7036 59.1559 21.6097 59.0045C21.5104 58.8442 21.4968 58.8476 21.4379 59.0465C21.3907 59.2065 21.303 59.2576 21.1001 59.2435C20.9495 59.2332 20.7979 59.188 20.7633 59.1431C20.7289 59.0983 20.5127 59.1098 20.283 59.1687C20.0534 59.2276 19.7907 59.2484 19.6993 59.215C19.6078 59.1816 19.533 59.1987 19.533 59.253C19.533 59.3074 19.3468 59.3398 19.1192 59.325C18.8917 59.3103 18.7054 59.3371 18.7054 59.3846C18.7054 59.4321 18.6561 59.4709 18.5959 59.4709C18.5357 59.4709 18.5181 59.422 18.557 59.362C18.6067 59.2854 18.4554 59.2677 18.0459 59.3024C17.5548 59.344 17.4635 59.3265 17.4607 59.1896C17.458 59.0531 17.4331 59.0582 17.303 59.2221C17.1718 59.3874 17.1174 59.3982 16.9418 59.2938C16.8041 59.2118 16.6747 59.2016 16.5538 59.2632C16.4399 59.3214 16.3058 59.3202 16.1933 59.2602C16.0948 59.2077 15.9712 59.1899 15.9186 59.2209C15.8662 59.2518 15.7927 59.2302 15.7556 59.173C15.7185 59.1156 15.6027 59.0946 15.4985 59.1261C15.3944 59.1576 15.2771 59.1342 15.2381 59.0742C15.1992 59.0141 15.1021 58.9886 15.0226 59.0177C14.9429 59.0469 14.8771 59.0166 14.8763 58.9506C14.8752 58.8746 14.8468 58.8671 14.7987 58.9302C14.6789 59.0874 14.1537 59.0779 14.1537 58.9186C14.1537 58.766 13.9903 58.733 13.9028 58.8679C13.8719 58.9155 13.7501 58.9785 13.6324 59.0079C13.473 59.0476 13.3939 59.0002 13.323 58.8227C13.2272 58.5827 12.89 58.4796 12.9382 58.705C12.9524 58.7715 12.8588 58.8412 12.7301 58.8598C12.5431 58.887 12.4843 58.8369 12.4365 58.6095C12.3836 58.3569 12.3416 58.3302 12.0592 58.3697C11.7975 58.4063 11.7529 58.3857 11.8063 58.2529C11.8929 58.0381 11.6784 58.046 11.5046 58.264C11.4076 58.3857 11.3662 58.397 11.3639 58.3026C11.3615 58.2077 11.2816 58.1877 11.0889 58.2337C10.8737 58.2851 10.8296 58.2679 10.8766 58.1509C10.9152 58.0553 10.8558 57.9799 10.7087 57.9372C10.5837 57.901 10.3997 57.8031 10.3002 57.7199C10.2007 57.6366 10.1192 57.5985 10.1192 57.6352C10.1192 57.672 9.99318 57.6234 9.83925 57.5274C9.68532 57.4313 9.54566 57.3637 9.52891 57.3773C9.51215 57.3909 9.41697 57.4012 9.31746 57.4005C9.17914 57.3993 9.1689 57.3793 9.27411 57.3158C9.37208 57.2567 9.32366 57.2159 9.10652 57.1745C8.9169 57.1385 8.78024 57.0399 8.7458 56.9143C8.71011 56.7846 8.60355 56.7111 8.44786 56.709C8.15759 56.7051 7.73986 56.3959 7.73986 56.1851C7.73986 55.9369 7.56151 55.9096 7.49034 56.1469C7.42455 56.366 7.4231 56.3657 7.27186 56.103C7.18817 55.9575 6.95395 55.7814 6.7513 55.7117C6.48957 55.6215 6.39596 55.5371 6.42813 55.4202C6.47789 55.2389 6.04888 54.7418 5.8426 54.7418C5.77091 54.7418 5.6564 54.795 5.58812 54.86C5.49161 54.952 5.4615 54.9465 5.45302 54.8354C5.42022 54.4096 5.40574 54.3502 5.33467 54.349C5.29195 54.3483 5.20557 54.3477 5.14257 54.3477C5.07957 54.3477 5.05578 54.4165 5.08971 54.5006C5.12498 54.5883 5.1076 54.6278 5.04905 54.5933C4.99277 54.5602 4.94674 54.4723 4.94674 54.3978C4.94674 54.3234 4.8587 54.2359 4.75101 54.2033C4.64332 54.1708 4.53129 54.0569 4.50201 53.9503C4.47273 53.8436 4.49105 53.7811 4.54257 53.8116C4.69329 53.9002 4.65077 53.6721 4.46663 53.4045C4.37332 53.2688 4.22208 53.1646 4.13042 53.173C3.70401 53.2119 3.62094 53.153 3.48562 52.7167C3.37638 52.3644 3.30666 52.2778 3.16142 52.3139C3.05652 52.34 2.98514 52.3104 2.99662 52.2455C3.03459 52.0321 2.74214 51.5891 2.56348 51.5891C2.46583 51.5891 2.32793 51.5226 2.25707 51.4413C2.18621 51.36 2.06413 51.2935 1.98582 51.2935C1.89644 51.2935 1.84327 51.1833 1.84327 50.998C1.84327 50.8126 1.7901 50.7024 1.70072 50.7024C1.49734 50.7024 1.28661 50.4417 1.42441 50.3605C1.60575 50.2538 1.54596 50.1113 1.31992 50.1113C1.20282 50.1113 1.13568 50.1556 1.17085 50.2098C1.20603 50.264 1.16496 50.3083 1.07961 50.3083C0.994266 50.3083 0.903336 50.275 0.877474 50.2344C0.816232 50.1381 1.07785 49.9077 1.15979 49.9858C1.25589 50.0774 1.23137 49.8829 1.12689 49.7258C1.04879 49.6082 1.00782 49.612 0.862472 49.7505C0.76792 49.8405 0.647302 49.9142 0.594543 49.9142C0.456748 49.9142 0.475783 49.6436 0.619577 49.5589C0.699233 49.512 0.66044 49.4594 0.506405 49.4051C0.377507 49.3597 0.247677 49.234 0.217987 49.1257C0.188297 49.0176 0.0964317 48.929 0.0138798 48.929C-0.085845 48.929 -0.115533 48.8669 -0.0745668 48.7442C-0.0298767 48.6101 -0.0745678 48.544 -0.236982 48.5036C-0.424536 48.4569 -0.450603 48.3989 -0.397636 48.1465C-0.349947 47.9194 -0.371881 47.8452 -0.486917 47.8452C-0.570814 47.8452 -0.639502 47.7761 -0.639502 47.6916C-0.639502 47.6072 -0.592949 47.5654 -0.536053 47.5989C-0.302258 47.7366 -0.456395 47.4839 -0.733328 47.2757C-0.944157 47.1171 -1.01606 46.9918 -0.977263 46.8507C-0.940539 46.7168 -0.996295 46.6013 -1.14578 46.5016C-1.26857 46.4196 -1.3563 46.2801 -1.34057 46.1915C-1.3234 46.0953 -1.43357 45.9739 -1.6143 45.8898C-1.89744 45.7581 -1.90468 45.7409 -1.7282 45.618C-1.53082 45.4806 -1.55834 45.4092 -1.96654 44.9984C-2.04206 44.9224 -2.0821 44.781 -2.05551 44.6842C-2.00378 44.4957 -2.2473 44.3427 -2.3492 44.4998C-2.42141 44.611 -2.61052 44.6268 -2.59283 44.5201C-2.54989 44.2615 -2.62179 43.6783 -2.68489 43.7728C-2.74179 43.858 -2.81307 43.8516 -2.96162 43.7482C-3.07179 43.6715 -3.10427 43.6087 -3.03393 43.6087C-2.88817 43.6087 -2.98376 42.8938 -3.13707 42.837C-3.1859 42.8189 -3.22572 42.7497 -3.22572 42.6831C-3.22572 42.6166 -3.32555 42.4601 -3.44752 42.3353L-3.66942 42.1086L-3.44752 42.1756C-3.27124 42.2289 -3.22572 42.2023 -3.22572 42.0457C-3.22572 41.9275 -3.31893 41.821 -3.45848 41.7795C-3.77142 41.6864 -3.84435 41.5546 -3.77235 41.2118C-3.729 41.0055 -3.75921 40.8985 -3.8789 40.8347C-3.9989 40.7708 -4.02311 40.6843 -3.96487 40.527C-3.84756 40.2102 -3.93487 39.9634 -4.16432 39.9634C-4.39046 39.9634 -4.42035 40.0671 -4.24294 40.236C-4.15087 40.3237 -4.16204 40.3656 -4.28969 40.4123C-4.38187 40.446 -4.50601 40.4448 -4.5656 40.4097C-4.73463 40.3102 -4.69294 39.8929 -4.50715 39.825C-4.38818 39.7815 -4.3707 39.7291 -4.44632 39.642C-4.5448 39.5286 -4.56125 39.3985 -4.57252 38.6454C-4.57656 38.3813 -4.58928 38.3727 -4.75842 38.5184C-4.9257 38.6626 -4.93997 38.6598 -4.93997 38.4817C-4.93997 38.3754 -4.89177 38.2878 -4.83291 38.287C-4.77394 38.2862 -4.79556 38.2425 -4.88091 38.19C-5.01353 38.1084 -5.0098 38.0942 -4.85504 38.093C-4.75553 38.0922 -4.67401 38.025 -4.67401 37.9437C-4.67401 37.8624 -4.7576 37.7959 -4.85981 37.7959C-5.0005 37.7959 -5.0518 37.7072 -5.07136 37.4302C-5.08563 37.229 -5.11801 37.0447 -5.14335 37.0205C-5.1687 36.9964 -5.14201 36.9222 -5.08408 36.8557C-5.00701 36.7672 -5.0456 36.7189 -5.22787 36.6753C-5.48401 36.6141 -5.60112 36.3743 -5.6036 35.9059C-5.60453 35.7289 -5.67333 35.621 -5.81195 35.5791C-6.03622 35.5114 -6.08102 35.381 -5.91374 35.2826C-5.85591 35.2485 -5.83657 35.1775 -5.87091 35.1247C-5.90515 35.0718 -5.87102 34.9569 -5.79498 34.8692C-5.68646 34.7439 -5.6845 34.7007 -5.78608 34.6682C-5.85715 34.6454 -5.91601 34.5307 -5.91684 34.4133C-5.91932 34.0383 -6.03839 33.7565 -6.19429 33.7565C-6.31078 33.7565 -6.32909 33.6828 -6.27374 33.4363C-6.23422 33.2601 -6.16533 33.0717 -6.12074 33.0176C-6.01357 32.8873 -6.0775 32.3804 -6.21809 32.2465C-6.27923 32.1883 -6.32919 32.0387 -6.32919 31.9141C-6.32919 31.7112 -6.3833 31.668 -6.60209 31.6959C-6.67823 31.7056 -6.8425 31.4793 -6.84488 31.3615C-6.84571 31.3176 -6.8032 31.3072 -6.75044 31.3383C-6.69768 31.3694 -6.62464 31.3055 -6.58833 31.1964C-6.55192 31.0872 -6.47878 30.9978 -6.42571 30.9978C-6.37264 30.9978 -6.32919 30.9535 -6.32919 30.8993C-6.32919 30.8451 -6.39902 30.8008 -6.48436 30.8008C-6.56971 30.8008 -6.63954 30.8451 -6.63954 30.8993C-6.63954 30.9535 -6.68319 30.9978 -6.73647 30.9978C-6.78985 30.9978 -6.80702 30.8427 -6.77465 30.653C-6.73989 30.4488 -6.75871 30.3082 -6.82088 30.3082C-6.92816 30.3082 -6.92496 29.7589 -6.81696 29.6562C-6.78416 29.6248 -6.7823 29.537 -6.81292 29.4611C-6.84354 29.3851 -6.81706 29.3229 -6.75406 29.3229C-6.69105 29.3229 -6.63954 29.2754 -6.63954 29.2172C-6.63954 29.1592 -6.7614 29.2028 -6.91037 29.3145C-7.05923 29.426 -7.22216 29.4931 -7.27244 29.4635C-7.32261 29.434 -7.36368 29.4594 -7.36368 29.52C-7.36368 29.5806 -7.41023 29.6028 -7.46713 29.5693C-7.6222 29.478 -7.59168 29.3229 -7.41861 29.3229C-7.32644 29.3229 -7.29003 29.2651 -7.32592 29.176C-7.35913 29.0936 -7.31547 29.0035 -7.2264 28.971C-7.1275 28.9349 -7.07113 28.7972 -7.07682 28.6059C-7.08188 28.437 -7.03213 28.2818 -6.96623 28.2608C-6.76409 28.1966 -6.83361 27.9436 -7.05333 27.9436C-7.21068 27.9436 -7.26023 27.8779 -7.26023 27.6691C-7.26023 27.4196 -7.29271 27.3956 -7.61806 27.406C-7.9942 27.4178 -8.13127 27.281 -7.97641 27.048C-7.90068 26.9342 -7.88382 26.9385 -7.88248 27.0723C-7.88144 27.1872 -7.81917 27.2202 -7.67237 27.1836C-7.40175 27.1161 -7.33099 26.9973 -7.34206 26.6279C-7.34785 26.4345 -7.32075 26.3725 -7.26685 26.4555C-7.20406 26.5524 -7.16361 26.5559 -7.10765 26.4697C-7.06565 26.4051 -7.1153 26.2966 -7.22009 26.2236C-7.37909 26.1129 -7.38655 26.0689 -7.26954 25.9345C-7.15234 25.8001 -7.15678 25.7761 -7.29933 25.7761C-7.39978 25.7761 -7.46713 25.8575 -7.46713 25.979C-7.46713 26.0905 -7.51368 26.1545 -7.57058 26.121C-7.71944 26.0334 -7.69844 25.912 -7.5021 25.725C-7.35675 25.5866 -7.35272 25.5476 -7.47623 25.4732C-7.59582 25.4011 -7.59085 25.3848 -7.44882 25.3835C-7.35344 25.3827 -7.25413 25.4597 -7.22806 25.5545C-7.1993 25.6593 -7.17613 25.6195 -7.16879 25.4529C-7.16175 25.2918 -7.22071 25.1554 -7.31196 25.1221C-7.52754 25.0433 -7.50706 24.8098 -7.28609 24.8265C-7.09885 24.8407 -7.08716 24.7761 -7.21844 24.4545C-7.27223 24.3226 -7.25909 24.2874 -7.17437 24.3372C-7.10775 24.3764 -7.05333 24.3645 -7.05333 24.3107C-7.05333 24.257 -7.14644 24.1849 -7.26023 24.1505C-7.47354 24.0861 -7.50344 24.0128 -7.47126 23.6337C-7.45792 23.4775 -7.4963 23.4284 -7.60161 23.467C-7.68644 23.4979 -7.78658 23.4447 -7.83365 23.3433C-7.96048 23.0711 -7.98355 22.7219 -7.87472 22.7219C-7.82123 22.7219 -7.77748 22.7884 -7.77748 22.8697C-7.77748 23.1454 -7.76527 23.1652 -7.54937 23.2412C-7.31692 23.3232 -7.15006 23.2477 -7.31495 23.1353C-7.3702 23.0976 -7.46506 22.981 -7.52579 22.8763C-7.61279 22.7262 -7.59416 22.6459 -7.43785 22.497C-7.28702 22.3533 -7.26851 22.281 -7.36026 22.1948C-7.45151 22.1092 -7.51348 22.1233 -7.61361 22.2524C-7.68655 22.3464 -7.77613 22.3948 -7.81265 22.3599C-7.84927 22.3252 -7.82434 22.2338 -7.75741 22.157C-7.66358 22.0494 -7.66503 21.9999 -7.76372 21.9418C-7.83417 21.9003 -7.88393 21.8262 -7.8741 21.7769C-7.86438 21.7277 -7.86738 21.6431 -7.88082 21.5889C-7.89427 21.5347 -7.91144 21.3463 -7.91899 21.1702C-7.93327 20.8346 -7.84151 20.746 -7.74003 20.9978C-7.70734 21.0791 -7.61061 21.1456 -7.52527 21.1456C-7.41385 21.1456 -7.37392 21.047 -7.38375 20.7966C-7.3913 20.6047 -7.43661 20.4246 -7.4844 20.3965C-7.5322 20.3683 -7.54286 20.2372 -7.50799 20.1051C-7.46837 19.9546 -7.48927 19.8648 -7.56375 19.8648C-7.62924 19.8648 -7.74323 19.811 -7.8171 19.7453C-7.98913 19.5921 -7.80737 18.946 -7.61227 19.0174C-7.45244 19.0758 -7.36368 18.8653 -7.36368 18.4281C-7.36368 18.1944 -7.41116 18.0914 -7.51885 18.0914C-7.6042 18.0914 -7.67403 18.1383 -7.67403 18.1957C-7.67403 18.253 -7.72016 18.2729 -7.77644 18.2397C-7.84089 18.2018 -7.83137 18.1305 -7.75058 18.0472C-7.68003 17.9745 -7.58744 17.9351 -7.54472 17.9597C-7.50199 17.9844 -7.46713 17.9102 -7.46713 17.795C-7.46713 17.6303 -7.42285 17.5988 -7.26023 17.648C-7.01982 17.7207 -7.0044 17.6712 -7.18264 17.3974C-7.28754 17.2362 -7.28547 17.183 -7.17199 17.1157C-6.98092 17.0024 -7.21254 16.575 -7.42337 16.652C-7.63668 16.73 -7.60389 16.5467 -7.36368 16.3179C-7.11809 16.084 -7.09699 15.9239 -7.31196 15.9239C-7.49837 15.9239 -7.51203 15.809 -7.34475 15.6497C-7.19227 15.5044 -7.30026 15.387 -7.5144 15.4652C-7.60223 15.4973 -7.67403 15.6136 -7.67403 15.7238C-7.67403 15.8338 -7.72058 15.9239 -7.77748 15.9239C-7.90782 15.9239 -7.90772 15.8601 -7.77717 15.6278C-7.71489 15.5169 -7.71148 15.4208 -7.76879 15.3871C-7.82268 15.3554 -7.79227 15.1938 -7.69885 15.0154C-7.60792 14.8418 -7.51472 14.7535 -7.49165 14.8192C-7.41054 15.0509 -7.26871 14.9344 -7.19858 14.5781C-7.15554 14.3594 -7.17437 14.1463 -7.24647 14.0363C-7.34371 13.8881 -7.33472 13.8549 -7.19734 13.8549C-7.07278 13.8549 -7.04237 13.7896 -7.07981 13.6029C-7.11706 13.4173 -7.09296 13.3645 -6.98837 13.4028C-6.89775 13.4359 -6.84644 13.3845 -6.84644 13.2607C-6.84644 13.0415 -7.14457 12.996 -7.34299 13.1849C-7.43951 13.2768 -7.46713 13.2557 -7.46713 13.0895C-7.46713 12.9431 -7.41975 12.8931 -7.31692 12.9307C-7.23426 12.9609 -7.1094 12.9519 -7.03927 12.9106C-6.94751 12.8566 -6.9653 12.8178 -7.10309 12.7718C-7.33389 12.6947 -7.36896 12.5518 -7.39999 11.5628C-7.41551 11.0672 -7.38603 10.8098 -7.3162 10.8318C-7.25703 10.8504 -7.19464 11.1946 -7.17757 11.5966C-7.16061 11.9986 -7.09554 12.3719 -7.03306 12.4262C-6.95506 12.494 -6.9413 12.4879 -6.9893 12.4067C-7.02757 12.3418 -7.00575 12.0874 -6.94078 11.8415C-6.8184 11.3788 -6.89547 10.4615 -7.04909 10.5519C-7.09637 10.5797 -7.1633 10.5326 -7.19765 10.4472C-7.29592 10.2032 -7.27223 10.111 -7.11116 10.111C-6.87861 10.111 -6.79813 9.8983 -6.99158 9.79514C-7.10403 9.73524 -7.14344 9.63505 -7.10258 9.51258C-7.06347 9.39524 -7.08809 9.32283 -7.16702 9.32283C-7.23727 9.32283 -7.26768 9.29711 -7.23458 9.26558C-7.20158 9.23406 -7.08789 9.25248 -6.98195 9.30647C-6.69137 9.45455 -6.44495 9.27564 -6.4554 8.92401C-6.46036 8.76016 -6.51106 8.59869 -6.56806 8.56509C-6.63395 8.52637 -6.64802 8.6176 -6.60654 8.81494C-6.55895 9.04164 -6.57933 9.12578 -6.68175 9.12578C-6.86827 9.12578 -6.97761 8.7109 -6.81664 8.61356C-6.7196 8.55484 -6.72043 8.5373 -6.82057 8.53612C-6.89164 8.53533 -6.94988 8.49031 -6.94988 8.43612C-6.94988 8.38193 -6.89754 8.34873 -6.8335 8.36223C-6.76947 8.37582 -6.69644 8.33336 -6.6712 8.26804C-6.64295 8.19474 -6.7015 8.16321 -6.82409 8.18568C-6.98506 8.21523 -7.01723 8.17267 -6.99302 7.96223C-6.97647 7.81927 -7.01826 7.63858 -7.08571 7.56055C-7.18368 7.44754 -7.17768 7.42853 -7.05623 7.46685C-6.97244 7.49316 -6.87726 7.62212 -6.84478 7.75326C-6.81137 7.88784 -6.69747 8.00499 -6.58326 8.02223C-6.4315 8.04499 -6.41599 8.02982 -6.52088 7.96134C-6.62289 7.89484 -6.63261 7.81976 -6.55688 7.68498C-6.48364 7.55463 -6.49367 7.41267 -6.59081 7.20449C-6.72426 6.91838 -6.73088 6.91601 -6.79957 7.13069C-6.90499 7.45986 -7.08985 7.40331 -7.01857 7.0637C-6.98164 6.88784 -7.00389 6.76054 -7.07568 6.73768C-7.28744 6.67049 -7.05406 6.47473 -6.68309 6.40842C-6.27974 6.3364 -6.26174 6.16202 -6.64719 6.05946C-6.78519 6.02271 -6.82254 5.98832 -6.73006 5.9829C-6.51374 5.97019 -6.37378 5.37935 -6.56071 5.26793C-6.6414 5.21975 -6.70399 5.24546 -6.72468 5.33521C-6.74309 5.41512 -6.80402 5.48044 -6.86009 5.48044C-6.91616 5.48044 -6.93312 5.4358 -6.89774 5.38122C-6.86226 5.32664 -6.9053 5.25571 -6.99313 5.22359C-7.1153 5.17896 -7.12823 5.12103 -7.04785 4.97797C-6.97368 4.84615 -6.97668 4.79078 -7.05789 4.79078C-7.13361 4.79078 -7.14882 4.68063 -7.10237 4.47058C-6.9774 3.90565 -6.84644 3.93333 -6.84644 4.52477C-6.84644 5.03098 -6.82481 5.08635 -6.62743 5.08635C-6.40771 5.08635 -6.40005 5.00063 -6.58192 4.58201C-6.63074 4.46979 -6.58057 4.40102 -6.41267 4.34989C-6.20205 4.28585 -6.19657 4.27166 -6.36529 4.2294C-6.55699 4.18132 -6.56226 3.98979 -6.38319 3.58387C-6.33002 3.46338 -6.35454 3.41146 -6.46471 3.41146C-6.5514 3.41146 -6.64575 3.46693 -6.6745 3.53461C-6.71619 3.63314 -6.7283 3.63314 -6.73482 3.53461C-6.73926 3.46693 -6.82006 3.41146 -6.9142 3.41146C-7.07041 3.41146 -7.06958 3.39481 -6.90509 3.2217C-6.80599 3.11737 -6.74061 2.9548 -6.75974 2.86042C-6.80237 2.65135 -7.05333 2.55205 -7.05333 2.74427C-7.05333 2.81983 -7.14644 2.97688 -7.26023 3.09323C-7.37403 3.20949 -7.46713 3.43954 -7.46713 3.60437C-7.46713 3.80929 -7.51782 3.90407 -7.62727 3.90407C-7.84234 3.90407 -8.11669 4.51373 -7.94951 4.61974C-7.86231 4.67501 -7.8744 4.7294 -7.99337 4.81728C-8.24082 5.00014 -8.36962 5.28073 -8.45507 5.82359C-8.49758 6.09364 -8.59348 6.45404 -8.66828 6.62448C-8.74307 6.79483 -8.83059 7.19276 -8.86276 7.50872C-8.89504 7.82469 -8.95493 8.10715 -8.996 8.13651C-9.03697 8.16577 -9.08683 8.27848 -9.10679 8.38686C-9.12665 8.49523 -9.17321 8.60607 -9.21024 8.63317C-9.24717 8.66026 -9.28493 8.7711 -9.29393 8.87947C-9.30293 8.98785 -9.33583 9.23031 -9.36687 9.41829C-9.4008 9.62371 -9.37628 9.78776 -9.30531 9.82953C-9.21841 9.88066 -9.22204 9.93879 -9.31887 10.0499C-9.39128 10.133 -9.42076 10.2467 -9.38445 10.3026C-9.34514 10.3631 -9.38311 10.3807 -9.47818 10.346C-9.61245 10.2969 -9.6289 10.3598 -9.58183 10.7412C-9.54666 11.0261 -9.56621 11.1948 -9.63439 11.1948C-9.69573 11.1948 -9.74301 11.4091 -9.74301 11.6874C-9.74301 11.9583 -9.77963 12.18 -9.82432 12.18C-9.90583 12.18 -9.94659 12.4071 -9.94887 12.8729C-9.94949 13.0101 -10.0129 13.5547 -10.0897 14.083C-10.1664 14.6114 -10.1896 15.0671 -10.141 15.0957C-10.0925 15.1242 -10.1017 15.2345 -10.1614 15.3407C-10.2209 15.4469 -10.2492 15.5662 -10.224 15.6057C-10.1988 15.6452 -10.2377 15.9774 -10.3104 16.3441C-10.383 16.7106 -10.4035 17.0334 -10.3559 17.0614C-10.3084 17.0895 -10.2905 17.4103 -10.3161 17.7743C-10.3418 18.1383 -10.3843 18.9017 -10.4106 19.4707C-10.4368 20.0396 -10.474 20.8296 -10.4931 21.2262C-10.5122 21.6228 -10.4901 21.9695 -10.4441 21.9966C-10.398 22.0237 -10.3883 22.0891 -10.4227 22.1419C-10.4569 22.1947 -10.4322 22.2986 -10.3676 22.3727C-10.2955 22.4553 -10.2884 22.5298 -10.3492 22.5656C-10.4918 22.6495 -10.363 26.2279 -10.2088 26.4654C-10.1654 26.5322 -10.1315 26.9254 -10.1332 27.3392C-10.1369 28.1758 -9.96077 29.3229 -9.82856 29.3229C-9.70711 29.3229 -9.72211 29.6931 -9.84645 29.7663C-10.0028 29.8583 -9.97039 30.0126 -9.79473 30.0126C-9.61328 30.0126 -9.60397 30.0607 -9.73907 30.3012C-9.81035 30.428 -9.78408 30.58 -9.6468 30.8365C-9.54128 31.0336 -9.49349 31.1949 -9.54066 31.1949C-9.68849 31.1949 -9.54418 32.1069 -9.36687 32.2935C-9.2449 32.4218 -9.21345 32.5816 -9.25369 32.8675C-9.28442 33.0855 -9.26735 33.2886 -9.21594 33.3189C-9.16442 33.3492 -9.12231 33.4851 -9.12231 33.621C-9.12231 33.7568 -9.07214 33.9573 -9.01079 34.0664C-8.94945 34.1756 -8.89576 34.4941 -8.89141 34.7743C-8.88717 35.0544 -8.80027 35.4433 -8.69838 35.6385C-8.59637 35.8337 -8.53772 36.0836 -8.56804 36.1938C-8.59835 36.3042 -8.57248 36.4242 -8.51062 36.4605C-8.44875 36.497 -8.39817 36.6482 -8.39817 36.7968C-8.39817 36.9454 -8.35048 37.1123 -8.29224 37.1677C-8.234 37.2232 -8.18186 37.4426 -8.17627 37.6554C-8.17079 37.8681 -8.10489 38.1363 -8.02979 38.2514C-7.95479 38.3664 -7.9192 38.5542 -7.95065 38.6689C-7.98779 38.8041 -7.95148 38.8979 -7.8473 38.9359C-7.75896 38.9682 -7.6552 39.135 -7.61671 39.3067C-7.57823 39.4782 -7.49941 39.6744 -7.44168 39.7426C-7.38396 39.8109 -7.32613 40.0326 -7.31309 40.2352C-7.28764 40.6331 -7.17385 40.9633 -7.03037 41.0557C-6.98102 41.0874 -6.92754 41.3263 -6.9114 41.5865C-6.89268 41.8896 -6.82005 42.1026 -6.70916 42.1799C-6.61398 42.2462 -6.53609 42.41 -6.53609 42.5441C-6.53609 42.6781 -6.50516 42.8172 -6.4673 42.8533C-6.42944 42.8893 -6.38526 43.0367 -6.36912 43.181C-6.35298 43.3251 -6.3024 43.4692 -6.25678 43.5013C-6.21105 43.5333 -6.10398 43.6925 -6.01884 43.8551C-5.93371 44.0176 -5.80574 44.1861 -5.73457 44.2294C-5.66329 44.2728 -5.60505 44.4336 -5.60505 44.5868C-5.60505 44.7401 -5.53998 44.9168 -5.46053 44.9796C-5.38108 45.0424 -5.33857 45.1757 -5.36598 45.2756C-5.39422 45.3783 -5.32822 45.5373 -5.21412 45.6414C-4.95032 45.8823 -4.77746 46.206 -4.77746 46.4594C-4.77746 46.5713 -4.73401 46.663 -4.68094 46.663C-4.62787 46.663 -4.55266 46.7628 -4.51377 46.8846C-4.47487 47.0065 -4.34028 47.2393 -4.2147 47.4019C-4.08911 47.5644 -3.95308 47.7639 -3.91232 47.8452C-3.80432 48.0609 -3.63952 48.3118 -3.14741 49.0099C-2.90606 49.3523 -2.70848 49.6738 -2.70848 49.7242C-2.70848 49.7745 -2.66699 49.8157 -2.6162 49.8157C-2.56551 49.8157 -2.49362 49.9312 -2.45637 50.0722C-2.35986 50.4386 -2.10155 50.7835 -1.87168 50.8529C-1.75334 50.8887 -1.67399 51.0028 -1.67399 51.1371C-1.67399 51.395 -1.32671 51.7384 -1.16326 51.6422C-1.09881 51.6043 -1.0533 51.6641 -1.0533 51.7868C-1.0533 52.0856 -0.866781 52.3773 -0.675504 52.3773C-0.563779 52.3773 -0.528811 52.4387 -0.565123 52.5709C-0.60133 52.703 -0.555603 52.7835 -0.420809 52.8242C-0.312291 52.857 -0.151118 53.017 -0.0627728 53.1797C0.0255728 53.3425 0.234541 53.521 0.401611 53.5765C0.568681 53.632 0.705335 53.7347 0.705335 53.805C0.705335 53.8751 0.778161 53.9592 0.867023 53.9917C0.95599 54.0242 0.999856 54.0954 0.964374 54.15C0.928994 54.2046 0.949368 54.2492 1.00958 54.2492C1.06978 54.2492 1.11913 54.3062 1.11913 54.3757C1.11913 54.4454 1.25879 54.5808 1.42948 54.6769C1.60017 54.7729 1.73982 54.8868 1.73982 54.9301C1.73982 55.0545 2.22893 55.5239 2.2941 55.4619C2.32638 55.4312 2.40531 55.5115 2.46955 55.6404C2.5338 55.7693 2.7799 55.9663 3.01649 56.078C3.28887 56.2066 3.45862 56.3585 3.47911 56.492C3.497 56.608 3.60863 56.7323 3.72718 56.7681C3.91411 56.8246 4.31053 57.1696 4.70012 57.6148C4.76364 57.6874 4.92026 57.8133 5.04832 57.8946C5.17629 57.9758 5.38774 58.1199 5.51809 58.2147C5.64854 58.3096 5.80381 58.3872 5.86309 58.3872C5.92236 58.3872 6.00813 58.4477 6.05364 58.5216C6.09916 58.5955 6.29933 58.7346 6.49847 58.8305C6.69761 58.9265 6.89872 59.0671 6.94537 59.143C6.99203 59.2189 7.20958 59.3493 7.42879 59.4329C7.64799 59.5164 7.85106 59.6436 7.88003 59.7155C7.9091 59.7876 8.07555 59.8763 8.25007 59.9128C8.42469 59.9493 8.56745 60.02 8.56745 60.0698C8.56745 60.1198 8.62259 60.1606 8.68994 60.1606C8.85794 60.1606 9.7417 60.5685 9.82311 60.6836C9.85942 60.735 9.94125 60.7463 10.0049 60.7088C10.0686 60.6713 10.1486 60.71 10.1827 60.7948C10.2168 60.8794 10.3458 60.9488 10.4693 60.9488C10.5928 60.9488 10.7857 61.0089 10.8978 61.0822C11.0101 61.1556 11.2416 61.2447 11.4123 61.2803C11.583 61.3158 11.8376 61.3692 11.9781 61.399C12.1185 61.4288 12.2942 61.5011 12.3685 61.5598C12.4427 61.6185 12.5331 61.6384 12.5691 61.604C12.6052 61.5697 12.7002 61.5934 12.7804 61.6567C12.8605 61.7201 13.216 61.7838 13.5704 61.7985C13.9249 61.8131 14.3359 61.8689 14.4839 61.9225C14.6319 61.9761 14.7791 61.9951 14.811 61.9648C14.8429 61.9345 14.9524 61.9426 15.0544 61.9828C15.4163 62.1256 15.875 62.1619 17.0503 62.1407C17.7046 62.1289 18.4611 62.1175 18.7313 62.1154C19.0015 62.1133 19.2227 62.0716 19.2227 62.0228C19.2227 61.9106 19.8126 61.9053 19.8849 62.0167C19.9591 62.1311 20.5547 62.088 20.9296 61.9412C21.1198 61.8667 21.4877 61.8391 21.8798 61.8699C22.3242 61.905 22.5526 61.8825 22.6278 61.7963C22.6908 61.7239 22.9312 61.6798 23.2035 61.6906C23.4606 61.7008 23.671 61.6702 23.671 61.6226C23.671 61.5751 23.783 61.563 23.92 61.5957C24.057 61.6284 24.278 61.5995 24.4114 61.5314C24.5447 61.4634 24.8053 61.4018 24.9905 61.3946C25.1757 61.3873 25.3789 61.332 25.4424 61.2716C25.5071 61.2099 25.7106 61.1856 25.9074 61.216C26.1128 61.2478 26.2572 61.2288 26.2572 61.1698C26.2572 61.0804 26.6611 60.9653 27.0848 60.934C27.1702 60.9278 27.3214 60.8551 27.421 60.7726C27.5359 60.6774 27.6021 60.6642 27.6021 60.7364C27.6021 60.9133 27.7897 60.8703 27.8273 60.6848C27.8583 60.531 27.8727 60.5309 28.0317 60.6824C28.1745 60.8183 28.212 60.8221 28.259 60.7051C28.2902 60.628 28.461 60.4934 28.6386 60.4058C28.9028 60.2757 28.9908 60.2696 29.1207 60.3723C29.2522 60.4762 29.3035 60.4669 29.4178 60.318C29.5863 60.0986 30.0403 59.865 30.2984 59.865C30.4028 59.865 30.5293 59.7953 30.5793 59.7101C30.6324 59.6199 30.8312 59.5466 31.0559 59.5346C31.2679 59.5231 31.4781 59.4572 31.5229 59.3882C31.5753 59.3074 31.7026 59.2859 31.8791 59.3281C32.0526 59.3695 32.1538 59.3536 32.1538 59.2845C32.1538 59.2245 32.2441 59.1753 32.3546 59.1753C32.4651 59.1753 32.5857 59.1286 32.6227 59.0716C32.6597 59.0146 32.7436 58.9849 32.809 59.0057C32.8745 59.0265 33.1057 58.921 33.3228 58.7711C33.5399 58.6213 33.8513 58.4709 34.0147 58.4366C34.1782 58.4024 34.3674 58.3108 34.4352 58.2331C34.503 58.1552 34.5972 58.0916 34.6445 58.0916C34.6919 58.0916 34.8466 57.9813 34.9882 57.8463C35.1298 57.7114 35.3119 57.6251 35.3927 57.6546C35.4779 57.6858 35.653 57.5801 35.8094 57.403C35.9578 57.235 36.2939 57.0072 36.5565 56.8966C36.819 56.786 37.2271 56.5168 37.4634 56.2984C37.6998 56.08 38.1129 55.7919 38.3813 55.6582C38.6499 55.5245 38.8978 55.3301 38.9324 55.2263C38.967 55.1223 39.032 55.0374 39.0767 55.0374C39.2086 55.0374 39.7056 54.5644 39.7056 54.4389C39.7056 54.3536 39.7417 54.3522 39.8444 54.4333C40.0157 54.5687 40.1194 54.481 40.1194 54.2007C40.1194 53.9472 40.5406 53.5393 40.7003 53.638C40.762 53.6761 40.8414 53.7738 40.8768 53.8551C40.9122 53.9364 40.9244 53.866 40.9039 53.6985C40.8708 53.427 40.8924 53.3988 41.1036 53.4372C41.2767 53.4687 41.3591 53.4243 41.4098 53.2722C41.4479 53.1577 41.5223 53.0895 41.5751 53.1205C41.6279 53.1517 41.6711 53.1079 41.6711 53.0235C41.6711 52.939 41.745 52.8699 41.8353 52.8699C41.9256 52.8699 42.0522 52.7368 42.1167 52.5741C42.1811 52.4114 42.3167 52.2532 42.418 52.2226C42.613 52.1637 42.6738 51.9832 42.4987 51.9832C42.4418 51.9832 42.3952 51.938 42.3952 51.8827C42.3952 51.8275 42.5116 51.8024 42.6539 51.8269C42.949 51.878 42.946 51.883 42.813 51.5496C42.7372 51.3599 42.7521 51.2633 42.8755 51.1458C43.0226 51.0057 43.0556 51.0114 43.2336 51.2068C43.4319 51.4247 43.4705 51.3958 43.4327 51.0583C43.4213 50.956 43.4741 50.8341 43.5501 50.7873C43.6637 50.7176 43.6612 50.6857 43.5361 50.6092C43.405 50.5289 43.4081 50.5071 43.558 50.4522C43.6538 50.4173 43.7604 50.3041 43.7948 50.2007C43.878 49.9513 44.0504 49.96 44.0504 50.2136C44.0504 50.3804 44.0748 50.393 44.1941 50.2875C44.2732 50.2177 44.2975 50.1364 44.2482 50.1068C44.1989 50.0773 44.2439 49.9944 44.3484 49.9228C44.489 49.8261 44.5294 49.6936 44.504 49.41C44.4758 49.0918 44.5023 49.0275 44.6614 49.0275C44.9141 49.0275 45.1108 48.7903 45.1108 48.4853C45.1108 48.2262 45.2383 48.1537 45.3268 48.3625C45.3554 48.4303 45.3826 48.3804 45.3871 48.2519C45.3935 48.0695 45.4254 48.0419 45.5322 48.1264C45.6322 48.2054 45.702 48.2034 45.7908 48.1187C45.9495 47.9676 45.946 47.7764 45.7832 47.7118C45.6891 47.6745 45.7032 47.6224 45.8349 47.5204C45.9345 47.4433 46.016 47.3181 46.016 47.2423C46.016 47.1665 46.1091 47.0491 46.2229 46.9814C46.3366 46.9137 46.4305 46.7811 46.4313 46.6868C46.4326 46.5426 46.4483 46.5383 46.5293 46.6602C46.6374 46.8231 46.66 46.7851 46.7915 46.2202C46.8293 46.0579 46.9136 45.8638 46.9789 45.789C47.0441 45.7141 47.1081 45.4961 47.1209 45.3044C47.1456 44.9368 47.352 44.719 47.4858 44.9194C47.5537 45.0213 47.6122 44.6515 47.5955 44.2245C47.5928 44.1568 47.632 44.1014 47.6826 44.1014C47.7332 44.1014 47.7746 43.9462 47.7746 43.7565C47.7746 43.55 47.8218 43.4216 47.8923 43.4363C47.9644 43.4514 48.023 43.2749 48.0433 42.9805C48.0618 42.7162 48.093 42.4844 48.113 42.4655C48.1426 42.4373 48.3485 42.3916 48.6995 42.3352C48.7247 42.3312 48.6548 42.2642 48.5444 42.1863C48.3601 42.0563 48.3575 42.0339 48.5127 41.9153C48.7671 41.721 48.799 41.5193 48.6219 41.2261C48.4915 41.0102 48.4864 40.9338 48.5938 40.8105C48.6662 40.7274 48.7559 40.669 48.7931 40.6808C48.8304 40.6927 48.8685 40.6629 48.8779 40.6148C48.8872 40.5667 48.9448 40.4979 49.0058 40.462C49.082 40.4172 49.0853 40.292 49.0164 40.0634C48.9613 39.8802 48.9386 39.7087 48.966 39.6826C48.9935 39.6564 49.016 39.6868 49.016 39.7499C49.016 39.8132 49.0858 39.8649 49.1711 39.8649C49.3737 39.8649 49.3715 39.6782 49.1681 39.6038C49.0297 39.5533 49.0339 39.5074 49.201 39.2375C49.4247 38.8764 49.5552 38.4609 49.4201 38.5405C49.2647 38.632 49.3147 38.4203 49.4793 38.2902C49.5867 38.2054 49.6037 38.1183 49.5362 37.9983C49.3923 37.7422 49.4507 37.4088 49.65 37.3485C49.7469 37.3193 49.8767 37.1575 49.9383 36.989C50.0779 36.6078 50.0804 36.4858 49.947 36.5644C49.8901 36.5979 49.8436 36.5597 49.8436 36.4797C49.8436 36.2097 49.9681 36.0225 50.1477 36.0225C50.3915 36.0225 50.4512 35.9472 50.3886 35.7189C50.3382 35.5352 50.3283 35.5342 50.1962 35.7C50.0327 35.9053 49.9956 35.7129 50.1469 35.4439C50.1999 35.3495 50.2555 35.0088 50.2704 34.6868C50.2852 34.3647 50.329 34.057 50.3678 34.0028C50.4065 33.9486 50.4324 33.7491 50.4254 33.5594C50.4145 33.2683 50.3762 33.2158 50.1792 33.2225C49.9479 33.2303 49.9476 33.2287 50.1489 33.0501C50.2607 32.951 50.4006 32.8698 50.4599 32.8698C50.5192 32.8698 50.5677 32.7815 50.5677 32.6735C50.5677 32.5656 50.6608 32.422 50.7746 32.3543C50.8884 32.2866 50.9815 32.1978 50.9815 32.1571C50.9815 32.0697 50.6053 32.1114 50.5014 32.2104C50.3582 32.3468 50.2574 32.2732 50.2574 32.0323C50.2574 31.7956 50.4102 31.6894 50.4815 31.8765C50.5244 31.9888 51.0849 31.8941 51.0849 31.7745C51.0849 31.7267 51.0151 31.6875 50.9298 31.6875C50.8444 31.6875 50.7746 31.6159 50.7746 31.5282C50.7746 31.4174 50.8376 31.3846 50.9814 31.4204C51.0951 31.4488 51.2143 31.4317 51.2461 31.3827C51.278 31.3336 51.1882 31.2934 51.0466 31.2934C50.8053 31.2934 50.7951 31.2732 50.8853 30.9739C50.9382 30.7981 50.9815 30.6481 50.9815 30.6405C50.9815 30.6329 50.8767 30.5938 50.7487 30.5535L50.516 30.4802L50.7437 30.4372C50.9426 30.3997 50.9584 30.3618 50.8689 30.1377C50.8086 29.9866 50.805 29.8575 50.8601 29.8237C50.9116 29.7921 50.9899 29.6559 51.0342 29.5208C51.1064 29.3009 51.0971 29.2893 50.9447 29.4096C50.7898 29.5321 50.7297 29.4954 50.7624 29.2983C50.7691 29.2576 50.7281 29.2244 50.6712 29.2244C50.6143 29.2244 50.5677 29.1754 50.5677 29.1154C50.5677 29.0554 50.6399 29.0327 50.7283 29.065C50.8254 29.1005 50.8623 29.0828 50.8218 29.0203C50.7377 28.8907 50.9762 28.3229 51.0872 28.3884C51.1322 28.4148 51.1427 28.5321 51.1106 28.649C51.0531 28.8585 51.0552 28.8588 51.2582 28.6735C51.3978 28.5461 51.4411 28.422 51.3928 28.2885C51.3536 28.1801 51.342 28.0359 51.3671 27.9682C51.397 27.8873 51.3528 27.8668 51.2383 27.9087C51.1086 27.956 51.0733 27.9267 51.1004 27.7938C51.1203 27.6955 51.2013 27.5947 51.2804 27.5695C51.3676 27.5419 51.3957 27.5678 51.3518 27.6353C51.3121 27.6965 51.3239 27.7466 51.3781 27.7466C51.5362 27.7466 51.6159 27.4378 51.4941 27.2979C51.4077 27.1988 51.4484 27.1603 51.6734 27.1281C51.8854 27.0977 51.8451 27.0824 51.5246 27.0717C51.1123 27.0578 51.0849 27.0392 51.0849 26.7719C51.0849 26.4855 51.2974 26.3122 51.5908 26.3592C51.6979 26.3763 51.7189 26.307 51.6728 26.0881C51.6318 25.8922 51.6561 25.7775 51.7458 25.7447C51.8973 25.6893 51.951 25.0865 51.8044 25.0865C51.7525 25.0865 51.7631 24.9756 51.8279 24.8402C51.8927 24.7047 51.9849 24.5939 52.0326 24.5939C52.0803 24.5939 52.1194 24.5247 52.1194 24.4403C52.1194 24.3558 52.0729 24.314 52.016 24.3475C51.9591 24.381 51.9125 24.3198 51.9125 24.2114C51.9125 24.103 51.9631 23.9846 52.025 23.9481C52.0869 23.9118 52.1133 23.794 52.0839 23.6866C52.0134 23.43 52.1056 23.2145 52.2857 23.2145C52.5318 23.2145 52.4443 23.0471 52.1342 22.9248C51.8606 22.8169 51.8387 22.7686 51.8387 22.2753C51.8387 21.9822 51.8723 21.7623 51.9135 21.7865C51.9546 21.8108 52.0687 21.746 52.167 21.6425C52.2661 21.5383 52.4159 21.48 52.5032 21.512C52.635 21.5601 52.6413 21.5349 52.5416 21.3576C52.4516 21.1973 52.4517 21.1456 52.5422 21.1456C52.6201 21.1456 52.6285 21.1025 52.5663 21.0224C52.5138 20.9547 52.5019 20.7441 52.5401 20.5544C52.5782 20.3648 52.6156 20.2724 52.623 20.3492C52.6407 20.5302 52.7731 20.4043 52.7979 20.183C52.8083 20.0892 52.8525 19.9239 52.8959 19.8155C52.9668 19.6385 52.9603 19.6347 52.8317 19.7783C52.6969 19.9287 52.2229 20.0985 52.2229 19.9963C52.2229 19.9026 52.5213 19.6677 52.6404 19.6677C52.7074 19.6677 52.7377 19.6066 52.7076 19.532C52.6774 19.4573 52.7051 19.3464 52.7689 19.2856C52.8546 19.204 52.8293 19.1751 52.6718 19.1751C52.5016 19.1751 52.4682 19.1266 52.5067 18.9353C52.5475 18.7315 52.5222 18.7037 52.3371 18.7498C52.2135 18.7806 52.1194 18.7573 52.1194 18.6959C52.1194 18.6364 52.2314 18.5609 52.3683 18.5282C52.5052 18.4955 52.6441 18.3727 52.6772 18.2554C52.7684 17.9319 52.7568 17.9086 52.5332 17.9643C52.3484 18.0103 52.3263 17.9673 52.3263 17.561C52.3263 17.0707 52.3114 17.054 52.0092 17.2081C51.8503 17.2891 51.8091 17.2778 51.8091 17.153C51.8091 17.0666 51.8504 17.0203 51.9008 17.05C52.0404 17.1321 52.2545 16.8341 52.1831 16.6569C52.1386 16.5464 52.172 16.5102 52.2971 16.5331C52.4037 16.5527 52.4782 16.6631 52.4845 16.8112C52.5174 17.5797 52.5455 17.7079 52.6929 17.7618C52.9284 17.8479 52.9577 17.7695 52.8197 17.4214C52.7117 17.1488 52.7205 17.0923 52.8889 16.975C53.0243 16.8807 53.0458 16.8194 52.961 16.7696C52.8946 16.7305 52.867 16.6572 52.8997 16.6067C52.9324 16.5563 52.9045 16.515 52.8376 16.515C52.7634 16.515 52.7355 16.4181 52.766 16.2662C52.8074 16.0596 52.7835 16.0273 52.6249 16.0752C52.5199 16.1069 52.3516 16.0872 52.2508 16.0313C52.0806 15.9371 52.0824 15.9288 52.2746 15.9155C52.3884 15.9076 52.5526 15.9074 52.6395 15.915C52.7609 15.9256 52.7954 15.8267 52.7887 15.4874C52.7816 15.1304 52.7265 15.006 52.4998 14.8363L52.2198 14.6264L52.5343 14.3465C52.7159 14.1849 52.8041 14.0403 52.7428 14.0042C52.6845 13.9698 52.6367 13.9845 52.6367 14.0368C52.6367 14.0892 52.5447 14.1091 52.4323 14.0811C52.2673 14.04 52.2481 13.9941 52.333 13.8431C52.4202 13.6879 52.3933 13.6397 52.1753 13.5608C51.8452 13.4413 51.8302 13.276 52.1548 13.3352C52.2928 13.3603 52.4676 13.3121 52.561 13.2232C52.6511 13.1374 52.7996 13.0946 52.8911 13.1281C53.036 13.181 53.0413 13.1554 52.9325 12.9279C52.8537 12.7632 52.7808 12.7085 52.7348 12.7795C52.6826 12.8597 52.6457 12.8535 52.6056 12.7576C52.5665 12.664 52.5471 12.6756 52.5414 12.7958C52.5283 13.0731 52.3263 12.9938 52.3263 12.7113C52.3263 12.5242 52.3682 12.4697 52.4805 12.5108C52.585 12.549 52.5511 12.4412 52.3758 12.1765C52.2333 11.9617 52.1602 11.7859 52.2132 11.7859C52.4057 11.7859 52.6342 11.907 52.585 11.9829C52.5571 12.0258 52.6006 12.085 52.6815 12.1146C52.8664 12.1822 53.0941 11.9329 52.9917 11.775C52.9432 11.7003 52.9589 11.6827 53.0344 11.7273C53.1065 11.7696 53.1539 11.7324 53.1539 11.6334C53.1539 11.528 53.0984 11.4895 52.9988 11.526C52.8102 11.5949 52.7931 11.4066 52.9741 11.2549C53.0459 11.1948 53.0864 11.1551 53.0639 11.1667C53.0416 11.1783 52.9395 11.1451 52.8372 11.093C52.6866 11.0162 52.668 10.9415 52.74 10.7024C52.805 10.4868 52.7891 10.3687 52.6812 10.266C52.477 10.0714 52.4952 10.0144 52.766 10.0011C52.9014 9.99445 52.9325 9.97249 52.8406 9.94874C52.7537 9.92628 52.6209 9.81386 52.5454 9.69889C52.4283 9.52027 52.4325 9.47701 52.5742 9.40144C52.8045 9.27868 52.7817 9.12578 52.5332 9.12578C52.3825 9.12578 52.3263 9.06006 52.3263 8.8841C52.3263 8.6442 52.3287 8.64361 52.6322 8.80952C52.8761 8.94282 52.9641 8.95189 53.0667 8.85415C53.1692 8.75651 53.1596 8.73169 53.0194 8.73169C52.9227 8.73169 52.8436 8.68262 52.8436 8.62262C52.8436 8.56262 52.9134 8.53908 52.9988 8.57031C53.1043 8.60883 53.1539 8.56499 53.1539 8.43307C53.1539 8.30045 53.0803 8.23592 52.9212 8.22923C52.6978 8.21986 52.699 8.21622 52.947 8.14055C53.1195 8.08794 53.1453 8.05838 53.0246 8.05188C52.8335 8.04144 52.7697 7.70301 52.94 7.60281C52.9961 7.56981 52.9757 7.43473 52.8913 7.27976C52.7651 7.04803 52.767 6.98311 52.9064 6.78064C53.0534 6.56695 53.051 6.5366 52.8774 6.41138C52.7734 6.3363 52.6508 6.27345 52.6047 6.27177C52.5587 6.27 52.5498 6.22428 52.585 6.1701C52.6226 6.11207 52.5081 6.07098 52.3066 6.07009C52.0753 6.06901 52.0098 6.04103 52.1047 5.98389C52.2028 5.92458 52.2231 5.80389 52.1719 5.58211C52.1087 5.30782 52.1246 5.26999 52.2901 5.30083C52.4325 5.32733 52.4783 5.41797 52.4691 5.65472C52.4548 6.02044 52.5762 6.06783 52.7472 5.76349C52.8285 5.61876 52.8314 5.53413 52.7564 5.48999C52.6967 5.45482 52.6378 5.22773 52.6255 4.98526C52.6133 4.7428 52.5534 4.4558 52.4924 4.34743C52.4314 4.23905 52.3807 4.03954 52.3798 3.90407C52.3784 3.70052 52.3287 3.65846 52.0936 3.66161C51.9371 3.66378 51.8091 3.61205 51.8091 3.54673C51.8091 3.48131 51.751 3.40555 51.6798 3.37816C51.5982 3.34683 51.6131 3.32564 51.7204 3.32072C51.8948 3.31274 52.0289 3.10594 52.0653 2.7884C52.0774 2.68358 51.9502 2.51944 51.7599 2.39431C51.5355 2.24682 51.4359 2.10308 51.4404 1.93362C51.444 1.79815 51.401 1.67657 51.3447 1.66356C51.2883 1.65046 51.2418 1.70534 51.2413 1.78554C51.2406 1.86583 51.1936 1.92081 51.1367 1.9079C51.0798 1.8949 51.0465 1.84652 51.0626 1.80031C51.1156 1.64898 50.563 1.24396 50.3037 1.24396C50.1476 1.24396 50.0505 1.18731 50.0505 1.09617C50.0505 0.91706 49.8845 0.900803 49.7995 1.07154C49.7657 1.13933 49.7607 1.05066 49.7882 0.874498C49.8377 0.558929 49.782 0.505532 49.448 0.548586C49.3727 0.55834 49.2374 0.508188 49.1477 0.437153C49.0578 0.366118 48.747 0.259319 48.457 0.199812C48.1671 0.140304 47.8525 0.0595154 47.758 0.0202048C47.6448 -0.0267906 47.5513 0.00838458 47.4836 0.123755ZM50.8781 2.22919C50.8781 2.28337 50.9479 2.32771 51.0332 2.32771C51.1186 2.32771 51.1884 2.28337 51.1884 2.22919C51.1884 2.175 51.1186 2.13066 51.0332 2.13066C50.9479 2.13066 50.8781 2.175 50.8781 2.22919ZM52.1744 3.24328C52.1301 3.34043 52.123 3.44762 52.1583 3.48141C52.2634 3.58141 52.3482 3.44092 52.2998 3.24673C52.2569 3.07461 52.2513 3.07451 52.1744 3.24328ZM45.8608 3.31294C45.8256 3.36712 45.8462 3.41146 45.9064 3.41146C45.9666 3.41146 46.016 3.36712 46.016 3.31294C46.016 3.25875 45.9955 3.21441 45.9703 3.21441C45.9452 3.21441 45.896 3.25875 45.8608 3.31294ZM46.1711 3.41146C46.136 3.46565 46.1565 3.50998 46.2168 3.50998C46.277 3.50998 46.3263 3.46565 46.3263 3.41146C46.3263 3.35727 46.3058 3.31294 46.2807 3.31294C46.2555 3.31294 46.2063 3.35727 46.1711 3.41146ZM46.084 4.26614C45.9672 4.37738 46.0093 4.57019 46.1625 4.62625C46.2432 4.6557 46.3335 4.61935 46.3633 4.54546C46.4234 4.39619 46.1913 4.16407 46.084 4.26614ZM-6.74299 6.67197C-6.74299 6.72104 -6.64988 6.76123 -6.53609 6.76123C-6.4223 6.76123 -6.32919 6.74419 -6.32919 6.7235C-6.32919 6.70271 -6.4223 6.66252 -6.53609 6.63414C-6.64988 6.60587 -6.74299 6.62281 -6.74299 6.67197ZM43.378 6.66271C43.3428 6.7169 43.3894 6.76123 43.4815 6.76123C43.5735 6.76123 43.6201 6.7169 43.5849 6.66271C43.5497 6.60852 43.5032 6.56419 43.4815 6.56419C43.4597 6.56419 43.4132 6.60852 43.378 6.66271ZM52.307 6.82852C52.3816 6.857 52.4709 6.85345 52.5052 6.82074C52.5395 6.78803 52.4785 6.76478 52.3695 6.76901C52.249 6.77374 52.2244 6.79709 52.307 6.82852ZM44.5159 7.54942C44.5511 7.6036 44.6004 7.64794 44.6255 7.64794C44.6506 7.64794 44.6711 7.6036 44.6711 7.54942C44.6711 7.49523 44.6218 7.45089 44.5616 7.45089C44.5014 7.45089 44.4808 7.49523 44.5159 7.54942ZM52.4298 7.6903C52.4298 7.76784 52.325 7.8505 52.197 7.87395C51.9975 7.9106 52.0048 7.91858 52.2487 7.93011C52.4053 7.9375 52.534 7.99897 52.5348 8.06666C52.536 8.15701 52.5601 8.15415 52.6256 8.05572C52.7286 7.90084 52.6561 7.54942 52.5211 7.54942C52.471 7.54942 52.4298 7.61286 52.4298 7.6903ZM43.351 8.31139C43.2792 8.33523 43.1728 8.43957 43.1145 8.54321C43.0317 8.6908 43.0431 8.73169 43.1675 8.73169C43.2548 8.73169 43.3147 8.68184 43.3004 8.62085C43.2861 8.55986 43.3328 8.48972 43.4039 8.46489C43.475 8.44006 43.5332 8.49248 43.5332 8.58154C43.5332 8.67051 43.5797 8.71593 43.6366 8.68243C43.8978 8.52863 43.6533 8.211 43.351 8.31139ZM51.8973 9.24923C51.9495 9.29888 52.1023 9.32302 52.2369 9.30282C52.4439 9.27179 52.4294 9.258 52.1421 9.21258C51.9364 9.18016 51.8399 9.19455 51.8973 9.24923ZM53.0114 9.39672C53.0935 9.72302 53.1539 9.80647 53.1539 9.59376C53.1539 9.50795 53.2122 9.41524 53.2832 9.38775C53.3806 9.35021 53.3742 9.31199 53.2574 9.23327C53.006 9.06401 52.9388 9.10864 53.0114 9.39672ZM43.5332 9.32283C43.5332 9.37701 43.5797 9.42135 43.6366 9.42135C43.6935 9.42135 43.7401 9.37701 43.7401 9.32283C43.7401 9.26864 43.6935 9.2243 43.6366 9.2243C43.5797 9.2243 43.5332 9.26864 43.5332 9.32283ZM42.7897 9.58716C42.8643 9.61563 42.9536 9.61209 42.9879 9.57938C43.0222 9.54667 42.9612 9.52342 42.8522 9.52765C42.7317 9.53238 42.7071 9.55573 42.7897 9.58716ZM52.2229 10.0125C52.2229 10.0667 52.2694 10.111 52.3263 10.111C52.3832 10.111 52.4298 10.0667 52.4298 10.0125C52.4298 9.9583 52.3832 9.91396 52.3263 9.91396C52.2694 9.91396 52.2229 9.9583 52.2229 10.0125ZM-6.6654 10.1679C-6.70812 10.2088 -6.74299 10.3325 -6.74299 10.4427C-6.74299 10.5877 -6.71175 10.6133 -6.62981 10.5352C-6.56764 10.476 -6.53268 10.3523 -6.55223 10.2605C-6.57178 10.1685 -6.62268 10.1269 -6.6654 10.1679ZM52.2919 10.8664C52.1705 10.9818 52.2177 11.0962 52.3867 11.0962C52.4768 11.0962 52.5291 11.1517 52.503 11.2194C52.477 11.2872 52.4033 11.3315 52.3393 11.3179C52.2752 11.3043 52.2229 11.3652 52.2229 11.4531C52.2229 11.5899 52.249 11.594 52.4039 11.481C52.5035 11.4085 52.5988 11.3418 52.6159 11.3328C52.6329 11.3238 52.6162 11.2005 52.5787 11.0586C52.511 10.8013 52.4224 10.7419 52.2919 10.8664ZM-7.98437 11.2933C-7.98437 11.3475 -7.93782 11.3918 -7.88092 11.3918C-7.82403 11.3918 -7.77748 11.3475 -7.77748 11.2933C-7.77748 11.2391 -7.82403 11.1948 -7.88092 11.1948C-7.93782 11.1948 -7.98437 11.2391 -7.98437 11.2933ZM42.8565 11.4969C42.819 11.5547 42.8132 11.6256 42.8435 11.6546C42.9177 11.7251 43.1194 11.6008 43.1194 11.4845C43.1194 11.3586 42.9408 11.367 42.8565 11.4969ZM-7.92179 11.6135C-7.88651 11.71 -7.90917 11.7859 -7.97331 11.7859C-8.03631 11.7859 -8.08782 11.8302 -8.08782 11.8844C-8.08782 11.9386 -7.97144 11.9829 -7.8292 11.9829C-7.65675 11.9829 -7.57058 11.9282 -7.57058 11.8187C-7.57058 11.7285 -7.60089 11.6834 -7.63792 11.7187C-7.67496 11.754 -7.76816 11.7059 -7.84513 11.6119C-7.97755 11.4501 -7.98158 11.4501 -7.92179 11.6135ZM42.4108 11.5839C42.4552 11.7109 42.5971 11.7338 42.6099 11.6159C42.6141 11.5766 42.5618 11.5268 42.4935 11.5051C42.4252 11.4834 42.388 11.5189 42.4108 11.5839ZM53.3328 11.5498C53.2913 11.5893 53.2574 11.6896 53.2574 11.7728C53.2574 11.8836 53.288 11.8947 53.3724 11.8142C53.4357 11.754 53.4698 11.6536 53.4479 11.5913C53.4261 11.529 53.3743 11.5103 53.3328 11.5498ZM52.947 12.2785C52.947 12.3327 52.9964 12.377 53.0566 12.377C53.1168 12.377 53.1374 12.3327 53.1022 12.2785C53.067 12.2243 53.0178 12.18 52.9927 12.18C52.9675 12.18 52.947 12.2243 52.947 12.2785ZM-6.79471 12.7711C-6.82988 12.8253 -6.8093 12.8696 -6.74909 12.8696C-6.68889 12.8696 -6.63954 12.8253 -6.63954 12.7711C-6.63954 12.7169 -6.66002 12.6726 -6.68516 12.6726C-6.71029 12.6726 -6.75954 12.7169 -6.79471 12.7711ZM41.8811 13.2095C41.8788 13.4215 41.9089 13.4707 41.9922 13.3914C42.074 13.3135 42.0749 13.2312 41.9953 13.1008C41.898 12.9414 41.8839 12.9548 41.8811 13.2095ZM52.7401 13.3623C52.7401 13.4164 52.8127 13.4608 52.9014 13.4608C52.9901 13.4608 53.0339 13.4164 52.9988 13.3623C52.9636 13.3081 52.8911 13.2637 52.8375 13.2637C52.7839 13.2637 52.7401 13.3081 52.7401 13.3623ZM-7.57058 14.4518C-7.57058 14.5634 -7.5261 14.6285 -7.47168 14.5965C-7.41727 14.5644 -7.39896 14.4731 -7.43103 14.3936C-7.51306 14.1899 -7.57058 14.2139 -7.57058 14.4518ZM52.6058 14.5083C52.5659 14.5463 52.534 14.6476 52.5348 14.7334C52.536 14.8516 52.5567 14.8588 52.6206 14.7629C52.6705 14.6881 52.7814 14.6643 52.8918 14.7046C53.0257 14.7536 53.065 14.7337 53.0302 14.6341C52.9759 14.4788 52.7173 14.4022 52.6058 14.5083ZM-7.05333 14.7908C-7.05333 14.8721 -7.03502 14.9386 -7.01268 14.9386C-6.99033 14.9386 -6.94523 14.8721 -6.91244 14.7908C-6.87975 14.7096 -6.89806 14.6431 -6.95309 14.6431C-7.00823 14.6431 -7.05333 14.7096 -7.05333 14.7908ZM-7.46713 15.24C-7.46713 15.2973 -7.42058 15.3169 -7.36368 15.2835C-7.30678 15.25 -7.26023 15.2031 -7.26023 15.1791C-7.26023 15.1552 -7.30678 15.1357 -7.36368 15.1357C-7.42058 15.1357 -7.46713 15.1827 -7.46713 15.24ZM52.3781 15.3327C52.4132 15.3869 52.4625 15.4312 52.4876 15.4312C52.5127 15.4312 52.5332 15.3869 52.5332 15.3327C52.5332 15.2785 52.4839 15.2342 52.4237 15.2342C52.3635 15.2342 52.3429 15.2785 52.3781 15.3327ZM-8.22872 15.9731C-8.26141 16.0544 -8.2431 16.1209 -8.18806 16.1209C-8.13293 16.1209 -8.08782 16.0544 -8.08782 15.9731C-8.08782 15.8918 -8.10613 15.8253 -8.12848 15.8253C-8.15082 15.8253 -8.19593 15.8918 -8.22872 15.9731ZM-8.33972 17.5884C-8.37127 17.637 -8.32741 17.702 -8.24238 17.7331C-8.14855 17.7674 -8.08782 17.7328 -8.08782 17.6449C-8.08782 17.4855 -8.24951 17.4493 -8.33972 17.5884ZM-7.77748 17.6973C-7.77748 17.7514 -7.73092 17.7958 -7.67403 17.7958C-7.61713 17.7958 -7.57058 17.7514 -7.57058 17.6973C-7.57058 17.6431 -7.61713 17.5987 -7.67403 17.5987C-7.73092 17.5987 -7.77748 17.6431 -7.77748 17.6973ZM-7.93265 18.584C-7.96782 18.6382 -7.94724 18.6825 -7.88703 18.6825C-7.82682 18.6825 -7.77748 18.6382 -7.77748 18.584C-7.77748 18.5298 -7.79796 18.4854 -7.82309 18.4854C-7.84823 18.4854 -7.89748 18.5298 -7.93265 18.584ZM-7.77748 19.5692C-7.77748 19.6234 -7.73092 19.6677 -7.67403 19.6677C-7.61713 19.6677 -7.57058 19.6234 -7.57058 19.5692C-7.57058 19.515 -7.61713 19.4707 -7.67403 19.4707C-7.73092 19.4707 -7.77748 19.515 -7.77748 19.5692ZM-7.98437 20.1053C-7.98437 20.1897 -7.93782 20.2589 -7.88092 20.2589C-7.82403 20.2589 -7.77748 20.2172 -7.77748 20.1661C-7.77748 20.1151 -7.82403 20.046 -7.88092 20.0125C-7.93782 19.979 -7.98437 20.0208 -7.98437 20.1053ZM51.447 20.1603C51.4822 20.2145 51.5314 20.2589 51.5566 20.2589C51.5817 20.2589 51.6022 20.2145 51.6022 20.1603C51.6022 20.1061 51.5529 20.0618 51.4926 20.0618C51.4324 20.0618 51.4118 20.1061 51.447 20.1603ZM-8.75165 20.3442C-8.79624 20.4128 -8.80472 20.4956 -8.77058 20.5281C-8.678 20.6163 -8.57703 20.4866 -8.6271 20.3438C-8.66207 20.2437 -8.68648 20.2437 -8.75165 20.3442ZM51.8608 20.7515C51.8256 20.8057 51.8928 20.85 52.0099 20.85C52.127 20.85 52.2229 20.8943 52.2229 20.9485C52.2229 21.0027 52.1735 21.047 52.1133 21.047C52.0531 21.047 52.0325 21.0914 52.0677 21.1456C52.1029 21.1997 52.0745 21.2441 52.0048 21.2441C51.9351 21.2441 51.9088 21.2733 51.9464 21.3092C51.9839 21.345 52.1066 21.295 52.219 21.1983C52.3764 21.0625 52.3994 20.9799 52.3194 20.8376C52.2073 20.6382 51.9641 20.5925 51.8608 20.7515ZM-7.67403 21.3484C-7.67403 21.4058 -7.62748 21.4254 -7.57058 21.3919C-7.51368 21.3584 -7.46713 21.3115 -7.46713 21.2875C-7.46713 21.2636 -7.51368 21.2441 -7.57058 21.2441C-7.62748 21.2441 -7.67403 21.2911 -7.67403 21.3484ZM52.03 22.3334C51.863 22.6928 51.8861 22.7271 52.2146 22.6089C52.3954 22.5439 52.4335 22.489 52.352 22.4114C52.2898 22.3522 52.2637 22.2427 52.2938 22.168C52.4049 21.8924 52.1651 22.0427 52.03 22.3334ZM51.6194 23.6949C51.5083 23.762 51.5133 23.7899 51.6452 23.8381C51.7489 23.876 51.8091 23.8449 51.8091 23.7534C51.8091 23.5859 51.8031 23.584 51.6194 23.6949ZM-8.4531 24.1062C-8.54807 24.2526 -8.47255 24.3044 -8.30651 24.2068C-8.21765 24.1543 -8.20699 24.1036 -8.27651 24.0627C-8.33558 24.0279 -8.41503 24.0475 -8.4531 24.1062ZM51.4987 24.1012C51.4987 24.1554 51.5453 24.1998 51.6022 24.1998C51.6591 24.1998 51.7056 24.1554 51.7056 24.1012C51.7056 24.0471 51.6591 24.0027 51.6022 24.0027C51.5453 24.0027 51.4987 24.0471 51.4987 24.1012ZM51.9125 24.8894C51.9125 24.9436 52.0173 24.9873 52.1453 24.9865C52.3335 24.9852 52.3484 24.9667 52.2229 24.8894C52.0223 24.766 51.9125 24.766 51.9125 24.8894ZM51.2169 25.5791C51.2254 25.6875 51.288 25.7761 51.3559 25.7761C51.4284 25.7761 51.4571 25.6948 51.4253 25.5791C51.3955 25.4707 51.3329 25.382 51.2863 25.382C51.2395 25.382 51.2083 25.4707 51.2169 25.5791ZM52.0677 25.5791C52.1029 25.6333 52.1521 25.6776 52.1773 25.6776C52.2024 25.6776 52.2229 25.6333 52.2229 25.5791C52.2229 25.5249 52.1735 25.4806 52.1133 25.4806C52.0531 25.4806 52.0325 25.5249 52.0677 25.5791ZM51.7618 26.5575C51.729 26.608 51.7496 26.677 51.8074 26.7111C51.8653 26.7451 51.9125 26.7038 51.9125 26.6194C51.9125 26.4463 51.8505 26.4209 51.7618 26.5575ZM51.8091 27.7408C51.8091 27.7918 51.8551 27.8606 51.9114 27.8937C51.97 27.9282 51.9873 27.8887 51.9521 27.801C51.8833 27.6303 51.8091 27.5991 51.8091 27.7408ZM-7.38303 29.7843C-7.30844 29.8128 -7.21916 29.8093 -7.18482 29.7765C-7.15047 29.7438 -7.21151 29.7206 -7.32054 29.7248C-7.44106 29.7295 -7.46558 29.7529 -7.38303 29.7843ZM-7.40113 30.3574C-7.36834 30.4387 -7.32323 30.5052 -7.30089 30.5052C-7.27854 30.5052 -7.26023 30.4387 -7.26023 30.3574C-7.26023 30.2762 -7.30533 30.2097 -7.36047 30.2097C-7.41551 30.2097 -7.43382 30.2762 -7.40113 30.3574ZM-7.57058 30.5921C-7.57058 30.6463 -7.52403 30.718 -7.46713 30.7515C-7.41023 30.785 -7.36368 30.7681 -7.36368 30.7139C-7.36368 30.6597 -7.41023 30.588 -7.46713 30.5545C-7.52403 30.521 -7.57058 30.5379 -7.57058 30.5921ZM50.5204 30.794C50.4876 30.8444 50.5082 30.9135 50.5661 30.9476C50.6239 30.9816 50.6712 30.9403 50.6712 30.8559C50.6712 30.6828 50.6091 30.6573 50.5204 30.794ZM-6.37429 31.2237C-6.3354 31.3209 -6.27757 31.3756 -6.24571 31.3452C-6.21384 31.315 -6.2456 31.2355 -6.31636 31.1686C-6.41857 31.072 -6.43036 31.0834 -6.37429 31.2237ZM50.475 31.3835C50.3957 31.4313 50.3593 31.5416 50.3942 31.6283C50.4924 31.8719 50.6712 31.8148 50.6712 31.5397C50.6712 31.2627 50.673 31.2641 50.475 31.3835ZM-7.77748 31.8845C-7.77748 31.9387 -7.70485 31.9831 -7.6162 31.9831C-7.52754 31.9831 -7.48368 31.9387 -7.51885 31.8845C-7.55403 31.8304 -7.62655 31.786 -7.68013 31.786C-7.73372 31.786 -7.77748 31.8304 -7.77748 31.8845ZM-6.74143 32.5496C-6.7404 32.6559 -6.71071 32.6804 -6.66385 32.6136C-6.62205 32.554 -6.51799 32.4799 -6.43264 32.449C-6.32898 32.4113 -6.35474 32.3902 -6.51023 32.3849C-6.66664 32.3797 -6.74247 32.4337 -6.74143 32.5496ZM-6.63137 32.9365C-6.63582 33.0544 -6.72106 33.1711 -6.82057 33.196C-6.99023 33.2381 -6.99002 33.2417 -6.81737 33.2524C-6.61668 33.2648 -6.48499 33.0498 -6.56992 32.8484C-6.5992 32.7788 -6.62692 32.8185 -6.63137 32.9365ZM50.809 33.2658C50.823 33.7775 50.9052 33.8178 51.0563 33.3872C51.1303 33.1762 51.1119 33.0801 50.9736 32.9538C50.8066 32.8013 50.7966 32.82 50.809 33.2658ZM50.4833 34.2169C50.5305 34.5964 50.7633 34.6296 50.7522 34.2552C50.7465 34.0648 50.6891 33.9535 50.5968 33.9535C50.499 33.9535 50.4614 34.0409 50.4833 34.2169ZM-6.4703 34.2978C-6.43761 34.3787 -6.36933 34.4205 -6.31833 34.3905C-6.17226 34.3046 -6.21033 34.1506 -6.37771 34.1506C-6.46998 34.1506 -6.5063 34.2084 -6.4703 34.2978ZM49.5702 36.9585C49.6555 37.0397 49.7505 37.1062 49.7812 37.1062C49.8119 37.1062 49.8103 37.0397 49.7776 36.9585C49.7448 36.8772 49.6498 36.8107 49.5665 36.8107C49.435 36.8107 49.4356 36.8303 49.5702 36.9585ZM50.1195 37.0734C50.0815 37.1095 50.0505 37.1849 50.0505 37.2409C50.0505 37.3026 50.0987 37.2968 50.1728 37.2261C50.2402 37.162 50.2712 37.0866 50.2418 37.0587C50.2125 37.0306 50.1573 37.0373 50.1195 37.0734ZM49.917 37.6974C49.8873 37.8058 49.8997 37.8944 49.9446 37.8944C49.9895 37.8944 50.0507 37.8058 50.0805 37.6974C50.1102 37.589 50.0977 37.5003 50.0528 37.5003C50.0079 37.5003 49.9468 37.589 49.917 37.6974ZM-4.36366 40.9544C-4.36366 41.0118 -4.31711 41.0314 -4.26021 40.9979C-4.20332 40.9644 -4.15676 40.9175 -4.15676 40.8936C-4.15676 40.8696 -4.20332 40.8501 -4.26021 40.8501C-4.31711 40.8501 -4.36366 40.8971 -4.36366 40.9544ZM48.1884 41.2935C48.1884 41.3747 48.23 41.4412 48.2808 41.4412C48.3315 41.4412 48.3999 41.3747 48.4327 41.2935C48.4689 41.2034 48.4328 41.1457 48.3403 41.1457C48.2568 41.1457 48.1884 41.2122 48.1884 41.2935ZM-4.93263 41.3427C-4.9678 41.3969 -4.92394 41.4412 -4.83529 41.4412C-4.74663 41.4412 -4.67401 41.3969 -4.67401 41.3427C-4.67401 41.2885 -4.71777 41.2442 -4.77135 41.2442C-4.82494 41.2442 -4.89746 41.2885 -4.93263 41.3427ZM-3.94987 42.1367C-3.94987 42.1941 -3.90331 42.2137 -3.84642 42.1802C-3.78952 42.1467 -3.74297 42.0998 -3.74297 42.0758C-3.74297 42.0519 -3.78952 42.0324 -3.84642 42.0324C-3.90331 42.0324 -3.94987 42.0794 -3.94987 42.1367ZM47.9815 42.1802C47.9815 42.2614 48.028 42.328 48.0849 42.328C48.1418 42.328 48.1884 42.2614 48.1884 42.1802C48.1884 42.0989 48.1418 42.0324 48.0849 42.0324C48.028 42.0324 47.9815 42.0989 47.9815 42.1802ZM-3.63952 42.9191C-3.63952 42.9733 -3.59297 43.0176 -3.53607 43.0176C-3.47917 43.0176 -3.43262 42.9733 -3.43262 42.9191C-3.43262 42.8649 -3.47917 42.8206 -3.53607 42.8206C-3.59297 42.8206 -3.63952 42.8649 -3.63952 42.9191ZM-3.3149 43.1489C-3.40148 43.2485 -3.39207 43.2804 -3.27579 43.2804C-3.19138 43.2804 -3.12227 43.2213 -3.12227 43.1489C-3.12227 43.0767 -3.13986 43.0176 -3.16138 43.0176C-3.18279 43.0176 -3.2519 43.0767 -3.3149 43.1489ZM-2.56531 46.0515C-2.62531 46.203 -2.63876 46.4135 -2.59531 46.5195C-2.53882 46.657 -2.51058 46.6698 -2.49662 46.5644C-2.48586 46.4832 -2.48213 46.3847 -2.48834 46.3457C-2.5051 46.2398 -2.09802 46.0542 -1.9893 46.1181C-1.93758 46.1486 -1.86599 46.1285 -1.8302 46.0734C-1.79451 46.0183 -1.85834 45.9733 -1.97213 45.9733C-2.08593 45.9733 -2.20779 45.929 -2.24296 45.8748C-2.35075 45.7087 -2.45131 45.7637 -2.56531 46.0515ZM46.4297 46.2747C46.4297 46.332 46.4763 46.3516 46.5332 46.3181C46.5901 46.2846 46.6366 46.2377 46.6366 46.2138C46.6366 46.1898 46.5901 46.1703 46.5332 46.1703C46.4763 46.1703 46.4297 46.2173 46.4297 46.2747ZM-1.36364 46.7615C-1.36364 46.8157 -1.3143 46.86 -1.25409 46.86C-1.19388 46.86 -1.1733 46.8157 -1.20847 46.7615C-1.24364 46.7073 -1.29289 46.663 -1.31802 46.663C-1.34316 46.663 -1.36364 46.7073 -1.36364 46.7615ZM-1.10502 48.2393C-1.14019 48.2935 -1.09633 48.3378 -1.00768 48.3378C-0.919023 48.3378 -0.846399 48.2935 -0.846399 48.2393C-0.846399 48.1851 -0.890156 48.1408 -0.943743 48.1408C-0.997329 48.1408 -1.06985 48.1851 -1.10502 48.2393ZM0.136365 48.7319C0.171538 48.7861 0.220782 48.8305 0.24592 48.8305C0.271058 48.8305 0.291539 48.7861 0.291539 48.7319C0.291539 48.6777 0.242191 48.6334 0.181984 48.6334C0.121777 48.6334 0.101192 48.6777 0.136365 48.7319ZM-0.794675 48.8305C-0.829847 48.8846 -0.783296 48.929 -0.691226 48.929C-0.599156 48.929 -0.552605 48.8846 -0.587777 48.8305C-0.62295 48.7763 -0.669501 48.7319 -0.691226 48.7319C-0.71295 48.7319 -0.759502 48.7763 -0.794675 48.8305ZM0.344298 49.0291C0.380092 49.0841 0.452605 49.1038 0.505571 49.0725C0.649055 48.9881 0.622366 48.929 0.440606 48.929C0.351951 48.929 0.308609 48.974 0.344298 49.0291ZM44.9815 49.0275C44.9815 49.0817 45.0252 49.126 45.0788 49.126C45.1324 49.126 45.2049 49.0817 45.2401 49.0275C45.2753 48.9733 45.2314 48.929 45.1427 48.929C45.0541 48.929 44.9815 48.9733 44.9815 49.0275ZM0.394988 50.4503C0.394988 50.5347 0.44154 50.6039 0.498437 50.6039C0.555333 50.6039 0.601886 50.5622 0.601886 50.5112C0.601886 50.4601 0.555333 50.3911 0.498437 50.3576C0.44154 50.3241 0.394988 50.3658 0.394988 50.4503ZM1.94755 52.2541C1.94796 52.2947 2.06434 52.3792 2.20617 52.4419C2.48041 52.5631 2.54496 52.4938 2.33983 52.2985C2.20234 52.1675 1.94631 52.1386 1.94755 52.2541ZM3.8088 53.5595C3.8088 53.6137 3.85256 53.6581 3.90614 53.6581C3.95973 53.6581 4.03225 53.6137 4.06742 53.5595C4.1026 53.5054 4.05874 53.461 3.97008 53.461C3.88142 53.461 3.8088 53.5054 3.8088 53.5595ZM4.18515 53.8059C4.21794 53.8871 4.26304 53.9536 4.28539 53.9536C4.30773 53.9536 4.32605 53.8871 4.32605 53.8059C4.32605 53.7246 4.28094 53.6581 4.2258 53.6581C4.17077 53.6581 4.15246 53.7246 4.18515 53.8059ZM40.4486 53.8765C40.3814 53.9406 40.3263 54.0317 40.3263 54.0789C40.3263 54.1262 40.4017 54.093 40.4938 54.0053C40.5859 53.9175 40.641 53.8264 40.6161 53.8028C40.5914 53.7792 40.516 53.8124 40.4486 53.8765ZM5.41226 55.333C5.44743 55.3871 5.49668 55.4315 5.52181 55.4315C5.54695 55.4315 5.56743 55.3871 5.56743 55.333C5.56743 55.2788 5.51809 55.2344 5.45788 55.2344C5.39767 55.2344 5.37709 55.2788 5.41226 55.333ZM5.67088 55.5358C5.67088 55.5932 5.71743 55.6128 5.77433 55.5793C5.83123 55.5458 5.87778 55.4989 5.87778 55.4749C5.87778 55.451 5.83123 55.4315 5.77433 55.4315C5.71743 55.4315 5.67088 55.4785 5.67088 55.5358ZM7.89503 56.3182C7.9302 56.3724 7.97945 56.4167 8.00459 56.4167C8.02973 56.4167 8.05021 56.3724 8.05021 56.3182C8.05021 56.264 8.00086 56.2197 7.94065 56.2197C7.88044 56.2197 7.85986 56.264 7.89503 56.3182ZM30.812 56.4129C30.7283 56.4633 30.6867 56.5302 30.7196 56.5615C30.7526 56.5929 30.8383 56.5509 30.9103 56.4683C31.0596 56.2971 31.031 56.2809 30.812 56.4129ZM12.5706 58.4259C12.5283 58.5284 12.5181 58.6356 12.5478 58.664C12.6422 58.7539 12.7252 58.6066 12.6856 58.4195C12.6494 58.2481 12.6439 58.2483 12.5706 58.4259ZM25.6447 58.4446C25.6497 58.5594 25.6742 58.5827 25.7072 58.5042C25.7371 58.4331 25.7333 58.348 25.699 58.3153C25.6647 58.2826 25.6402 58.3408 25.6447 58.4446ZM22.5331 58.7813C22.5331 58.8354 22.5796 58.8798 22.6365 58.8798C22.6934 58.8798 22.74 58.8354 22.74 58.7813C22.74 58.7271 22.6934 58.6827 22.6365 58.6827C22.5796 58.6827 22.5331 58.7271 22.5331 58.7813ZM30.8662 59.6596C30.8329 59.7109 30.8497 59.7788 30.9036 59.8105C30.9575 59.8422 31.0288 59.8262 31.0621 59.7749C31.0954 59.7235 31.0785 59.6556 31.0247 59.6239C30.9708 59.5922 30.8995 59.6083 30.8662 59.6596Z" fill="#E8642F"/>
</g>
<use xlink:href="#HeaderBorder_inner" transform="translate(51.1636)"/>
<use xlink:href="#HeaderBorder_inner" transform="translate(102.327)"/>
<use xlink:href="#HeaderBorder_inner" transform="translate(153.491)"/>
<use xlink:href="#HeaderBorder_inner" transform="translate(204.655)"/>
<use xlink:href="#HeaderBorder_inner" transform="translate(255.818)"/>
<use xlink:href="#HeaderBorder_inner" transform="translate(306.982)"/>
<use xlink:href="#HeaderBorder_inner" transform="translate(358.145)"/>
<use xlink:href="#HeaderBorder_inner" transform="translate(409.309)"/>
<use xlink:href="#HeaderBorder_inner" transform="translate(460.473)"/>
<use xlink:href="#HeaderBorder_inner" transform="translate(511.636)"/>
<use xlink:href="#HeaderBorder_inner" transform="translate(562.8)"/>
<use xlink:href="#HeaderBorder_inner" transform="translate(613.964)"/>
<use xlink:href="#HeaderBorder_inner" transform="translate(665.127)"/>
<use xlink:href="#HeaderBorder_inner" transform="translate(716.291)"/>
<use xlink:href="#HeaderBorder_inner" transform="translate(767.455)"/>
<use xlink:href="#HeaderBorder_inner" transform="translate(818.618)"/>
<use xlink:href="#HeaderBorder_inner" transform="translate(869.782)"/>
<use xlink:href="#HeaderBorder_inner" transform="translate(920.945)"/>
<use xlink:href="#HeaderBorder_inner" transform="translate(972.109)"/>
<use xlink:href="#HeaderBorder_inner" transform="translate(1023.27)"/>
<use xlink:href="#HeaderBorder_inner" transform="translate(1074.44)"/>
<use xlink:href="#HeaderBorder_inner" transform="translate(1125.6)"/>
<use xlink:href="#HeaderBorder_inner" transform="translate(1176.76)"/>
<use xlink:href="#HeaderBorder_inner" transform="translate(1227.93)"/>
<use xlink:href="#HeaderBorder_inner" transform="translate(1279.09)"/>
<use xlink:href="#HeaderBorder_inner" transform="translate(1330.25)"/>
<use xlink:href="#HeaderBorder_inner" transform="translate(1381.42)"/>
<use xlink:href="#HeaderBorder_inner" transform="translate(1432.58)"/>
<use xlink:href="#HeaderBorder_inner" transform="translate(1483.75)"/>
</svg>
