<svg width="414" height="415" viewBox="0 0 414 415" fill="none" xmlns="http://www.w3.org/2000/svg">
<g filter="url(#filter0_d_8_15656)">
<path d="M105.743 9.51425C108.055 9.36309 110.361 9.51723 112.643 9.96942L117.77 10.9852C118.135 11.0575 118.44 11.1131 118.69 11.1534C118.707 11.1562 118.725 11.1588 118.742 11.1614L119.009 11.084L119.503 10.9598C121.952 10.4338 124.114 11.291 125.499 12.4068C126.709 13.3826 127.341 14.525 127.621 15.0871C128.219 16.2859 128.543 17.6014 128.744 18.5642L129.788 23.5524C130.114 25.1095 130.473 26.6467 130.867 28.1628L132.13 33.0308C132.472 34.3515 132.908 35.6626 133.441 36.9632L135.381 41.7017C135.635 42.3222 135.99 42.8284 136.495 43.2808L140.316 46.7032C141.59 47.8446 142.849 48.9736 144.093 50.0883L147.823 53.4307C148.801 54.3067 149.852 55.1111 150.979 55.844L155.235 58.611C156.365 59.3456 157.57 60.0081 158.852 60.5946L163.587 62.7623C164.246 63.0636 164.902 63.2016 165.625 63.1921L170.831 63.1227C172.449 63.1013 174.051 63.0383 175.636 62.9345L180.753 62.5994C182.027 62.5159 183.287 62.3137 184.537 61.9894L189.529 60.6933C190.759 60.374 191.954 59.9367 193.116 59.3772L197.795 57.1241C198.891 56.5965 199.914 55.9534 200.872 55.1886L204.946 51.937C205.827 51.2333 206.591 50.435 207.249 49.5317L210.305 45.3337C211.173 44.1402 211.969 42.909 212.69 41.639L215.238 37.1554C215.666 36.4011 215.934 35.6171 216.057 34.7634L216.794 29.6658C217.097 27.5699 217.584 25.5081 218.249 23.4843L219.878 18.5255L220.098 17.9075C220.66 16.4503 221.568 14.8879 223.052 13.6068C224.84 12.0628 226.979 11.3479 229.087 11.2722L233.381 11.1187C234.572 11.0759 235.936 10.9618 237.482 10.7676L242.609 10.1243C244.622 9.87134 246.64 9.75439 248.66 9.77588L253.787 9.8306C255.691 9.85088 257.595 9.95306 259.497 10.1363L264.623 10.6302C266.067 10.7692 267.508 10.8225 268.948 10.7917L274.074 10.6822C275.954 10.6419 277.835 10.6719 279.715 10.773L284.841 11.0493C286.04 11.1136 287.25 11.0449 288.479 10.8384L293.629 9.97343C296.552 9.48231 299.463 9.77651 302.229 10.8384L307.113 12.7124C308.622 13.292 310.143 13.8279 311.674 14.3196L316.633 15.912C319.281 16.7624 321.638 18.1739 323.647 20.0899L327.461 23.7286C329.233 25.4191 330.722 27.3458 331.91 29.4883L334.469 34.1054C335.685 36.2984 336.521 38.6433 336.963 41.1104L337.891 46.2841C338.286 48.4907 338.44 50.7122 338.347 52.9381L338.131 58.0905C338.066 59.641 338.059 61.1867 338.108 62.7262L338.272 67.8519C338.337 69.8608 338.268 71.8696 338.068 73.8745L337.557 79.0002C337.427 80.3055 337.413 81.6081 337.516 82.9111L337.919 88.0368C338.091 90.2284 338.03 92.4208 337.738 94.604L337.054 99.7297C336.86 101.181 336.75 102.629 336.724 104.073L336.63 109.199C336.601 110.833 336.597 112.468 336.621 114.102L336.644 115.709L338.576 115.908C341.022 116.158 343.383 116.763 345.626 117.74L350.336 119.792C351.914 120.479 353.481 121.167 355.037 121.853L359.679 123.898C361.689 124.784 363.585 125.884 365.359 127.191L369.48 130.227C371.197 131.492 372.788 132.911 374.248 134.476L377.771 138.255C379.317 139.913 380.651 141.736 381.764 143.714L384.309 148.236C385.558 150.457 386.385 152.844 386.775 155.362L387.566 160.477C387.83 162.178 388.092 163.86 388.351 165.522L389.132 170.52C389.439 172.483 389.617 174.469 389.668 176.477L389.798 181.632C389.862 184.119 389.509 186.565 388.746 188.933L387.166 193.847C386.481 195.973 385.566 197.998 384.424 199.911L381.8 204.302C380.754 206.053 379.587 207.716 378.301 209.284L375.093 213.195C373.738 214.848 372.232 216.352 370.579 217.702L366.681 220.889C365.431 221.91 364.17 222.969 362.899 224.067L358.951 227.476C356.832 229.305 354.376 230.585 351.659 231.269L346.622 232.537C344.844 232.985 343.056 233.393 341.259 233.761L338.399 234.346L338.262 235.41C338.163 236.175 338.126 237.225 338.218 238.612L338.554 243.738C338.673 245.54 338.755 247.344 338.798 249.146L338.924 254.272C338.973 256.28 338.89 258.287 338.676 260.291L338.127 265.416C337.944 267.127 337.761 268.839 337.576 270.55L337.022 275.676C336.881 276.978 336.857 278.276 336.951 279.575L337.321 284.7C337.45 286.487 337.547 288.274 337.614 290.062L337.807 295.19C337.89 297.421 337.719 299.637 337.293 301.826L336.315 306.841C335.928 308.826 335.401 310.787 334.739 312.72L333.05 317.649C332.143 320.294 330.67 322.634 328.682 324.598L324.958 328.272C323.113 330.095 320.98 331.533 318.59 332.542L313.861 334.538C312.078 335.291 310.272 335.95 308.445 336.512L303.635 337.992C301.465 338.66 299.233 339.041 296.956 339.139L291.844 339.356C289.956 339.437 288.064 339.443 286.172 339.371L281.046 339.176C279.595 339.121 278.143 339.148 276.691 339.258L271.564 339.643C269.339 339.811 267.114 339.726 264.901 339.391L259.775 338.614C258.368 338.401 256.967 338.285 255.571 338.265L250.444 338.189C248.968 338.167 247.491 338.221 246.013 338.35L240.886 338.796C239.17 338.945 237.453 339.092 235.737 339.236L233.174 339.453L232.697 339.491L232.15 341.333C231.752 342.67 231.341 344.129 230.916 345.711L229.601 350.61C229.134 352.35 228.619 354.097 228.058 355.852L226.469 360.819C225.651 363.376 224.338 365.688 222.558 367.7L219.105 371.6C217.796 373.079 216.415 374.484 214.963 375.811L211.142 379.305C209.34 380.951 207.318 382.289 205.097 383.298L200.397 385.434C198.462 386.314 196.468 387.012 194.422 387.524L189.507 388.755C187.969 389.14 186.423 389.563 184.871 390.026L179.927 391.499C177.133 392.332 174.257 392.414 171.42 391.745L166.395 390.558C164.905 390.207 163.416 389.921 161.928 389.7L156.885 388.951C154.525 388.601 152.257 387.906 150.103 386.875L145.475 384.661C143.557 383.743 141.733 382.657 140.009 381.405L135.838 378.377C134.079 377.1 132.46 375.656 130.986 374.053L127.478 370.241C125.932 368.56 124.608 366.71 123.515 364.704L121.036 360.157C119.927 358.123 119.097 355.975 118.551 353.728L117.337 348.733C116.91 346.972 116.522 345.206 116.173 343.436L115.408 339.553L112.736 338.484C112.431 338.362 111.903 338.232 111.016 338.277L105.889 338.534C104.134 338.622 102.377 338.692 100.621 338.744L95.4948 338.895C93.8289 338.944 92.1624 339.008 90.4964 339.088L85.3698 339.335C83.7132 339.415 82.0562 339.514 80.3994 339.631L75.2729 339.996C73.3034 340.136 71.332 340.163 69.3613 340.076L64.2347 339.852C62.8295 339.79 61.4229 339.821 60.0147 339.946L54.8868 340.404C52.3448 340.631 49.8243 340.392 47.3651 339.708L42.328 338.306C40.1578 337.702 38.0868 336.865 36.1321 335.79L31.7024 333.354C30.045 332.442 28.4181 331.449 26.8241 330.379L22.5333 327.497C19.9916 325.789 18.077 323.457 16.8968 320.632L14.9049 315.864C14.1335 314.017 13.4828 312.144 12.9584 310.247L11.622 305.408C11.099 303.516 10.693 301.583 10.4044 299.611L9.65949 294.514C9.37802 292.59 9.193 290.659 9.10544 288.722L8.87448 283.596C8.77074 281.3 8.96079 279.015 9.43653 276.754L10.5152 271.629C10.6888 270.804 10.6953 270.011 10.5393 269.196L9.55802 264.071C9.15653 261.975 8.93971 259.866 8.91186 257.749L8.84377 252.624C8.81767 250.636 8.9141 248.648 9.13081 246.665L9.69019 241.539C9.82445 240.311 9.82882 239.086 9.70221 237.858L9.17353 232.732C8.97654 230.823 9.20224 228.559 10.4538 226.42C11.7173 224.261 13.6081 222.943 15.4429 222.194L20.0795 220.303C22.4337 219.342 24.9093 218.849 27.4516 218.79L32.7104 218.669C33.0188 218.662 33.1851 218.6 33.4139 218.425L37.5686 215.233C39.0712 214.079 40.5924 212.988 42.1318 211.963L46.3558 209.149C47.1484 208.621 47.8258 207.99 48.4091 207.238L51.5184 203.225C52.4395 202.037 53.3081 200.815 54.1244 199.56L56.884 195.318C57.4252 194.486 57.8243 193.603 58.0909 192.649L59.4513 187.78C59.8469 186.364 60.1735 184.936 60.4325 183.495L61.3243 178.535C61.5211 177.441 61.5807 176.342 61.5019 175.228L61.1454 170.19C61.0575 168.946 60.8526 167.729 60.5313 166.534L59.2243 161.674C58.8099 160.133 58.3632 158.576 57.8826 157.007L56.3727 152.079C56.1171 151.245 55.7281 150.502 55.1858 149.813L51.9937 145.758C51.0392 144.545 50.0314 143.363 48.9725 142.213L45.4427 138.378C44.8032 137.683 44.0782 137.126 43.2385 136.689L38.6112 134.281C37.2247 133.559 35.8125 132.892 34.3752 132.279L29.5783 130.234C29.0195 129.996 28.4703 129.905 27.8308 129.96L22.5907 130.416C20.7774 130.573 18.4755 130.374 16.304 129.05C14.0368 127.667 12.768 125.58 12.1587 123.588L10.7863 119.1C10.1109 116.892 9.80207 114.602 9.81035 112.272L9.82904 107.146C9.83425 105.683 9.76 104.218 9.60742 102.752L9.07474 97.626C8.81585 95.1376 8.98371 92.6575 9.56069 90.2192L10.7742 85.0936C10.9948 84.1613 11.0406 83.2712 10.9304 82.3866L10.2923 77.2609C10.0424 75.2552 9.92526 73.2442 9.94251 71.2316L9.98657 66.106C9.9988 64.6781 9.92314 63.2478 9.75961 61.8146L9.17486 56.6889C8.87818 54.089 9.09189 51.5046 9.80234 48.9871L11.2175 43.9722C11.7878 41.9515 12.512 40.0037 13.3923 38.1351L15.5337 33.5875C16.525 31.4831 17.7973 29.5528 19.3426 27.8171L22.6628 24.089C24.2403 22.3171 26.0593 20.8204 28.1045 19.6214L32.3739 17.1186C34.0991 16.1073 35.8989 15.2299 37.7688 14.4864L42.4268 12.635C44.746 11.713 47.1738 11.2262 49.6694 11.1667L54.7719 11.0453C56.7177 10.999 58.6662 11.0566 60.6154 11.2188L65.742 11.6459C66.7443 11.7293 67.7584 11.6607 68.8046 11.4257L73.9312 10.2751C76.5904 9.67795 79.2876 9.65626 81.9561 10.215L87.0827 11.2882C87.9739 11.4748 88.8343 11.492 89.7047 11.3496L94.8313 10.5114C96.7554 10.1966 98.6845 9.9756 100.616 9.84929L105.743 9.51425Z" fill="#FFC3D9"/>
<path d="M105.743 9.51425C108.055 9.36309 110.361 9.51723 112.643 9.96942L117.77 10.9852C118.135 11.0575 118.44 11.1131 118.69 11.1534C118.707 11.1562 118.725 11.1588 118.742 11.1614L119.009 11.084L119.503 10.9598C121.952 10.4338 124.114 11.291 125.499 12.4068C126.709 13.3826 127.341 14.525 127.621 15.0871C128.219 16.2859 128.543 17.6014 128.744 18.5642L129.788 23.5524C130.114 25.1095 130.473 26.6467 130.867 28.1628L132.13 33.0308C132.472 34.3515 132.908 35.6626 133.441 36.9632L135.381 41.7017C135.635 42.3222 135.99 42.8284 136.495 43.2808L140.316 46.7032C141.59 47.8446 142.849 48.9736 144.093 50.0883L147.823 53.4307C148.801 54.3067 149.852 55.1111 150.979 55.844L155.235 58.611C156.365 59.3456 157.57 60.0081 158.852 60.5946L163.587 62.7623C164.246 63.0636 164.902 63.2016 165.625 63.1921L170.831 63.1227C172.449 63.1013 174.051 63.0383 175.636 62.9345L180.753 62.5994C182.027 62.5159 183.287 62.3137 184.537 61.9894L189.529 60.6933C190.759 60.374 191.954 59.9367 193.116 59.3772L197.795 57.1241C198.891 56.5965 199.914 55.9534 200.872 55.1886L204.946 51.937C205.827 51.2333 206.591 50.435 207.249 49.5317L210.305 45.3337C211.173 44.1402 211.969 42.909 212.69 41.639L215.238 37.1554C215.666 36.4011 215.934 35.6171 216.057 34.7634L216.794 29.6658C217.097 27.5699 217.584 25.5081 218.249 23.4843L219.878 18.5255L220.098 17.9075C220.66 16.4503 221.568 14.8879 223.052 13.6068C224.84 12.0628 226.979 11.3479 229.087 11.2722L233.381 11.1187C234.572 11.0759 235.936 10.9618 237.482 10.7676L242.609 10.1243C244.622 9.87134 246.64 9.75439 248.66 9.77588L253.787 9.8306C255.691 9.85088 257.595 9.95306 259.497 10.1363L264.623 10.6302C266.067 10.7692 267.508 10.8225 268.948 10.7917L274.074 10.6822C275.954 10.6419 277.835 10.6719 279.715 10.773L284.841 11.0493C286.04 11.1136 287.25 11.0449 288.479 10.8384L293.629 9.97343C296.552 9.48231 299.463 9.77651 302.229 10.8384L307.113 12.7124C308.622 13.292 310.143 13.8279 311.674 14.3196L316.633 15.912C319.281 16.7624 321.638 18.1739 323.647 20.0899L327.461 23.7286C329.233 25.4191 330.722 27.3458 331.91 29.4883L334.469 34.1054C335.685 36.2984 336.521 38.6433 336.963 41.1104L337.891 46.2841C338.286 48.4907 338.44 50.7122 338.347 52.9381L338.131 58.0905C338.066 59.641 338.059 61.1867 338.108 62.7262L338.272 67.8519C338.337 69.8608 338.268 71.8696 338.068 73.8745L337.557 79.0002C337.427 80.3055 337.413 81.6081 337.516 82.9111L337.919 88.0368C338.091 90.2284 338.03 92.4208 337.738 94.604L337.054 99.7297C336.86 101.181 336.75 102.629 336.724 104.073L336.63 109.199C336.601 110.833 336.597 112.468 336.621 114.102L336.644 115.709L338.576 115.908C341.022 116.158 343.383 116.763 345.626 117.74L350.336 119.792C351.914 120.479 353.481 121.167 355.037 121.853L359.679 123.898C361.689 124.784 363.585 125.884 365.359 127.191L369.48 130.227C371.197 131.492 372.788 132.911 374.248 134.476L377.771 138.255C379.317 139.913 380.651 141.736 381.764 143.714L384.309 148.236C385.558 150.457 386.385 152.844 386.775 155.362L387.566 160.477C387.83 162.178 388.092 163.86 388.351 165.522L389.132 170.52C389.439 172.483 389.617 174.469 389.668 176.477L389.798 181.632C389.862 184.119 389.509 186.565 388.746 188.933L387.166 193.847C386.481 195.973 385.566 197.998 384.424 199.911L381.8 204.302C380.754 206.053 379.587 207.716 378.301 209.284L375.093 213.195C373.738 214.848 372.232 216.352 370.579 217.702L366.681 220.889C365.431 221.91 364.17 222.969 362.899 224.067L358.951 227.476C356.832 229.305 354.376 230.585 351.659 231.269L346.622 232.537C344.844 232.985 343.056 233.393 341.259 233.761L338.399 234.346L338.262 235.41C338.163 236.175 338.126 237.225 338.218 238.612L338.554 243.738C338.673 245.54 338.755 247.344 338.798 249.146L338.924 254.272C338.973 256.28 338.89 258.287 338.676 260.291L338.127 265.416C337.944 267.127 337.761 268.839 337.576 270.55L337.022 275.676C336.881 276.978 336.857 278.276 336.951 279.575L337.321 284.7C337.45 286.487 337.547 288.274 337.614 290.062L337.807 295.19C337.89 297.421 337.719 299.637 337.293 301.826L336.315 306.841C335.928 308.826 335.401 310.787 334.739 312.72L333.05 317.649C332.143 320.294 330.67 322.634 328.682 324.598L324.958 328.272C323.113 330.095 320.98 331.533 318.59 332.542L313.861 334.538C312.078 335.291 310.272 335.95 308.445 336.512L303.635 337.992C301.465 338.66 299.233 339.041 296.956 339.139L291.844 339.356C289.956 339.437 288.064 339.443 286.172 339.371L281.046 339.176C279.595 339.121 278.143 339.148 276.691 339.258L271.564 339.643C269.339 339.811 267.114 339.726 264.901 339.391L259.775 338.614C258.368 338.401 256.967 338.285 255.571 338.265L250.444 338.189C248.968 338.167 247.491 338.221 246.013 338.35L240.886 338.796C239.17 338.945 237.453 339.092 235.737 339.236L233.174 339.453L232.697 339.491L232.15 341.333C231.752 342.67 231.341 344.129 230.916 345.711L229.601 350.61C229.134 352.35 228.619 354.097 228.058 355.852L226.469 360.819C225.651 363.376 224.338 365.688 222.558 367.7L219.105 371.6C217.796 373.079 216.415 374.484 214.963 375.811L211.142 379.305C209.34 380.951 207.318 382.289 205.097 383.298L200.397 385.434C198.462 386.314 196.468 387.012 194.422 387.524L189.507 388.755C187.969 389.14 186.423 389.563 184.871 390.026L179.927 391.499C177.133 392.332 174.257 392.414 171.42 391.745L166.395 390.558C164.905 390.207 163.416 389.921 161.928 389.7L156.885 388.951C154.525 388.601 152.257 387.906 150.103 386.875L145.475 384.661C143.557 383.743 141.733 382.657 140.009 381.405L135.838 378.377C134.079 377.1 132.46 375.656 130.986 374.053L127.478 370.241C125.932 368.56 124.608 366.71 123.515 364.704L121.036 360.157C119.927 358.123 119.097 355.975 118.551 353.728L117.337 348.733C116.91 346.972 116.522 345.206 116.173 343.436L115.408 339.553L112.736 338.484C112.431 338.362 111.903 338.232 111.016 338.277L105.889 338.534C104.134 338.622 102.377 338.692 100.621 338.744L95.4948 338.895C93.8289 338.944 92.1624 339.008 90.4964 339.088L85.3698 339.335C83.7132 339.415 82.0562 339.514 80.3994 339.631L75.2729 339.996C73.3034 340.136 71.332 340.163 69.3613 340.076L64.2347 339.852C62.8295 339.79 61.4229 339.821 60.0147 339.946L54.8868 340.404C52.3448 340.631 49.8243 340.392 47.3651 339.708L42.328 338.306C40.1578 337.702 38.0868 336.865 36.1321 335.79L31.7024 333.354C30.045 332.442 28.4181 331.449 26.8241 330.379L22.5333 327.497C19.9916 325.789 18.077 323.457 16.8968 320.632L14.9049 315.864C14.1335 314.017 13.4828 312.144 12.9584 310.247L11.622 305.408C11.099 303.516 10.693 301.583 10.4044 299.611L9.65949 294.514C9.37802 292.59 9.193 290.659 9.10544 288.722L8.87448 283.596C8.77074 281.3 8.96079 279.015 9.43653 276.754L10.5152 271.629C10.6888 270.804 10.6953 270.011 10.5393 269.196L9.55802 264.071C9.15653 261.975 8.93971 259.866 8.91186 257.749L8.84377 252.624C8.81767 250.636 8.9141 248.648 9.13081 246.665L9.69019 241.539C9.82445 240.311 9.82882 239.086 9.70221 237.858L9.17353 232.732C8.97654 230.823 9.20224 228.559 10.4538 226.42C11.7173 224.261 13.6081 222.943 15.4429 222.194L20.0795 220.303C22.4337 219.342 24.9093 218.849 27.4516 218.79L32.7104 218.669C33.0188 218.662 33.1851 218.6 33.4139 218.425L37.5686 215.233C39.0712 214.079 40.5924 212.988 42.1318 211.963L46.3558 209.149C47.1484 208.621 47.8258 207.99 48.4091 207.238L51.5184 203.225C52.4395 202.037 53.3081 200.815 54.1244 199.56L56.884 195.318C57.4252 194.486 57.8243 193.603 58.0909 192.649L59.4513 187.78C59.8469 186.364 60.1735 184.936 60.4325 183.495L61.3243 178.535C61.5211 177.441 61.5807 176.342 61.5019 175.228L61.1454 170.19C61.0575 168.946 60.8526 167.729 60.5313 166.534L59.2243 161.674C58.8099 160.133 58.3632 158.576 57.8826 157.007L56.3727 152.079C56.1171 151.245 55.7281 150.502 55.1858 149.813L51.9937 145.758C51.0392 144.545 50.0314 143.363 48.9725 142.213L45.4427 138.378C44.8032 137.683 44.0782 137.126 43.2385 136.689L38.6112 134.281C37.2247 133.559 35.8125 132.892 34.3752 132.279L29.5783 130.234C29.0195 129.996 28.4703 129.905 27.8308 129.96L22.5907 130.416C20.7774 130.573 18.4755 130.374 16.304 129.05C14.0368 127.667 12.768 125.58 12.1587 123.588L10.7863 119.1C10.1109 116.892 9.80207 114.602 9.81035 112.272L9.82904 107.146C9.83425 105.683 9.76 104.218 9.60742 102.752L9.07474 97.626C8.81585 95.1376 8.98371 92.6575 9.56069 90.2192L10.7742 85.0936C10.9948 84.1613 11.0406 83.2712 10.9304 82.3866L10.2923 77.2609C10.0424 75.2552 9.92526 73.2442 9.94251 71.2316L9.98657 66.106C9.9988 64.6781 9.92314 63.2478 9.75961 61.8146L9.17486 56.6889C8.87818 54.089 9.09189 51.5046 9.80234 48.9871L11.2175 43.9722C11.7878 41.9515 12.512 40.0037 13.3923 38.1351L15.5337 33.5875C16.525 31.4831 17.7973 29.5528 19.3426 27.8171L22.6628 24.089C24.2403 22.3171 26.0593 20.8204 28.1045 19.6214L32.3739 17.1186C34.0991 16.1073 35.8989 15.2299 37.7688 14.4864L42.4268 12.635C44.746 11.713 47.1738 11.2262 49.6694 11.1667L54.7719 11.0453C56.7177 10.999 58.6662 11.0566 60.6154 11.2188L65.742 11.6459C66.7443 11.7293 67.7584 11.6607 68.8046 11.4257L73.9312 10.2751C76.5904 9.67795 79.2876 9.65626 81.9561 10.215L87.0827 11.2882C87.9739 11.4748 88.8343 11.492 89.7047 11.3496L94.8313 10.5114C96.7554 10.1966 98.6845 9.9756 100.616 9.84929L105.743 9.51425Z" stroke="#BD002F" stroke-width="8.83909"/>
</g>
<path d="M135.143 193.924V208.402H133.93V193.924H135.143ZM140.105 193.924V194.978H128.978V193.924H140.105ZM143.367 193.128V208.402H142.183V193.128H143.367ZM143.098 202.356L142.571 202.058C142.611 201.422 142.74 200.825 142.959 200.268C143.178 199.711 143.473 199.221 143.844 198.796C144.222 198.372 144.663 198.041 145.167 197.802C145.677 197.563 146.241 197.444 146.857 197.444C147.394 197.444 147.875 197.517 148.299 197.663C148.723 197.809 149.084 198.041 149.383 198.359C149.681 198.677 149.907 199.085 150.059 199.582C150.218 200.079 150.298 200.686 150.298 201.402V208.402H149.104V201.392C149.104 200.649 149.002 200.069 148.796 199.652C148.591 199.227 148.299 198.926 147.921 198.747C147.543 198.568 147.096 198.478 146.579 198.478C146.008 198.478 145.508 198.604 145.077 198.856C144.653 199.101 144.295 199.423 144.003 199.821C143.718 200.212 143.499 200.633 143.347 201.084C143.194 201.528 143.111 201.952 143.098 202.356ZM157.517 208.601C156.814 208.601 156.168 208.472 155.578 208.213C154.995 207.955 154.484 207.59 154.047 207.12C153.616 206.649 153.281 206.092 153.042 205.449C152.81 204.799 152.694 204.09 152.694 203.321V202.893C152.694 202.065 152.817 201.316 153.062 200.646C153.307 199.976 153.645 199.403 154.076 198.926C154.507 198.448 154.998 198.084 155.548 197.832C156.105 197.573 156.688 197.444 157.298 197.444C157.981 197.444 158.588 197.567 159.118 197.812C159.648 198.051 160.092 198.392 160.45 198.836C160.815 199.274 161.09 199.794 161.276 200.397C161.461 200.994 161.554 201.654 161.554 202.376V203.102H153.41V202.088H160.371V201.949C160.358 201.345 160.235 200.782 160.003 200.258C159.778 199.728 159.439 199.297 158.989 198.966C158.538 198.634 157.974 198.468 157.298 198.468C156.794 198.468 156.33 198.574 155.906 198.787C155.488 198.999 155.127 199.304 154.822 199.701C154.524 200.092 154.292 200.56 154.126 201.103C153.967 201.64 153.887 202.237 153.887 202.893V203.321C153.887 203.918 153.974 204.474 154.146 204.992C154.325 205.502 154.577 205.953 154.902 206.344C155.233 206.735 155.624 207.04 156.075 207.259C156.526 207.478 157.023 207.587 157.567 207.587C158.203 207.587 158.767 207.471 159.257 207.239C159.748 207 160.189 206.626 160.58 206.115L161.326 206.692C161.094 207.037 160.802 207.355 160.45 207.647C160.106 207.938 159.691 208.17 159.207 208.343C158.724 208.515 158.16 208.601 157.517 208.601ZM177.345 204.842C177.345 204.445 177.279 204.09 177.146 203.778C177.014 203.467 176.795 203.188 176.49 202.943C176.192 202.691 175.787 202.459 175.277 202.247C174.773 202.028 174.143 201.813 173.388 201.601C172.665 201.395 172.012 201.17 171.429 200.924C170.845 200.679 170.345 200.397 169.927 200.079C169.516 199.761 169.201 199.39 168.982 198.966C168.764 198.535 168.654 198.034 168.654 197.464C168.654 196.907 168.774 196.4 169.012 195.943C169.251 195.485 169.586 195.091 170.017 194.759C170.454 194.428 170.968 194.173 171.558 193.994C172.155 193.815 172.808 193.725 173.517 193.725C174.531 193.725 175.406 193.917 176.142 194.302C176.885 194.686 177.458 195.207 177.862 195.863C178.273 196.513 178.479 197.242 178.479 198.051H177.256C177.256 197.421 177.107 196.861 176.808 196.37C176.517 195.873 176.092 195.485 175.535 195.207C174.985 194.922 174.312 194.779 173.517 194.779C172.721 194.779 172.052 194.902 171.508 195.147C170.971 195.386 170.563 195.707 170.285 196.112C170.013 196.509 169.877 196.954 169.877 197.444C169.877 197.789 169.944 198.107 170.076 198.399C170.209 198.684 170.424 198.952 170.723 199.204C171.028 199.449 171.429 199.681 171.926 199.9C172.423 200.112 173.036 200.315 173.765 200.507C174.534 200.719 175.217 200.954 175.814 201.213C176.411 201.471 176.914 201.77 177.325 202.108C177.736 202.439 178.048 202.827 178.26 203.271C178.472 203.715 178.578 204.233 178.578 204.823C178.578 205.413 178.452 205.943 178.2 206.414C177.955 206.878 177.607 207.272 177.156 207.597C176.712 207.922 176.185 208.17 175.575 208.343C174.972 208.515 174.312 208.601 173.596 208.601C172.953 208.601 172.314 208.518 171.677 208.353C171.041 208.187 170.457 207.932 169.927 207.587C169.403 207.236 168.982 206.785 168.664 206.235C168.353 205.684 168.197 205.028 168.197 204.266H169.41C169.41 204.876 169.533 205.389 169.778 205.807C170.023 206.225 170.348 206.563 170.752 206.821C171.163 207.08 171.614 207.269 172.105 207.388C172.602 207.501 173.099 207.557 173.596 207.557C174.359 207.557 175.018 207.444 175.575 207.219C176.139 206.994 176.573 206.679 176.878 206.274C177.189 205.863 177.345 205.386 177.345 204.842ZM185.012 197.643V198.617H179.622V197.643H185.012ZM181.601 194.879H182.785V205.787C182.785 206.284 182.851 206.659 182.984 206.911C183.116 207.163 183.288 207.332 183.501 207.418C183.713 207.504 183.941 207.547 184.187 207.547C184.366 207.547 184.538 207.537 184.704 207.517C184.87 207.491 185.019 207.464 185.151 207.438L185.201 208.442C185.055 208.489 184.866 208.525 184.634 208.552C184.402 208.585 184.17 208.601 183.938 208.601C183.481 208.601 183.076 208.518 182.725 208.353C182.374 208.18 182.099 207.889 181.9 207.478C181.701 207.06 181.601 206.493 181.601 205.777V194.879ZM186.653 203.192V202.864C186.653 202.081 186.766 201.359 186.991 200.696C187.216 200.033 187.538 199.459 187.956 198.975C188.38 198.492 188.887 198.117 189.477 197.852C190.067 197.58 190.723 197.444 191.446 197.444C192.175 197.444 192.835 197.58 193.425 197.852C194.015 198.117 194.522 198.492 194.946 198.975C195.37 199.459 195.695 200.033 195.921 200.696C196.146 201.359 196.259 202.081 196.259 202.864V203.192C196.259 203.974 196.146 204.697 195.921 205.359C195.695 206.016 195.37 206.586 194.946 207.07C194.528 207.554 194.025 207.932 193.435 208.203C192.845 208.469 192.188 208.601 191.466 208.601C190.737 208.601 190.077 208.469 189.487 208.203C188.897 207.932 188.39 207.554 187.965 207.07C187.541 206.586 187.216 206.016 186.991 205.359C186.766 204.697 186.653 203.974 186.653 203.192ZM187.836 202.864V203.192C187.836 203.782 187.916 204.342 188.075 204.872C188.234 205.396 188.466 205.863 188.771 206.274C189.076 206.679 189.454 206.997 189.905 207.229C190.355 207.461 190.876 207.577 191.466 207.577C192.049 207.577 192.563 207.461 193.007 207.229C193.458 206.997 193.836 206.679 194.141 206.274C194.446 205.863 194.674 205.396 194.827 204.872C194.986 204.342 195.065 203.782 195.065 203.192V202.864C195.065 202.28 194.986 201.727 194.827 201.203C194.674 200.679 194.442 200.212 194.131 199.801C193.826 199.39 193.448 199.065 192.997 198.826C192.546 198.588 192.029 198.468 191.446 198.468C190.862 198.468 190.345 198.588 189.895 198.826C189.45 199.065 189.073 199.39 188.761 199.801C188.456 200.212 188.224 200.679 188.065 201.203C187.912 201.727 187.836 202.28 187.836 202.864ZM199.908 199.423V208.402H198.725V197.643H199.878L199.908 199.423ZM203.717 197.563L203.687 198.657C203.554 198.637 203.425 198.621 203.299 198.608C203.173 198.594 203.037 198.588 202.891 198.588C202.374 198.588 201.92 198.684 201.529 198.876C201.145 199.062 200.82 199.323 200.555 199.662C200.289 199.993 200.087 200.384 199.948 200.835C199.809 201.279 199.729 201.756 199.709 202.267L199.272 202.436C199.272 201.733 199.345 201.08 199.491 200.477C199.636 199.874 199.858 199.347 200.157 198.896C200.462 198.438 200.843 198.084 201.3 197.832C201.764 197.573 202.308 197.444 202.931 197.444C203.084 197.444 203.233 197.457 203.379 197.484C203.531 197.504 203.644 197.53 203.717 197.563ZM208.957 207.328L212.308 197.643H213.591L209.037 210.133C208.944 210.378 208.825 210.65 208.679 210.948C208.54 211.246 208.354 211.531 208.122 211.803C207.897 212.082 207.611 212.307 207.267 212.479C206.929 212.658 206.514 212.748 206.024 212.748C205.898 212.748 205.735 212.731 205.536 212.698C205.344 212.672 205.205 212.645 205.119 212.619L205.109 211.614C205.182 211.634 205.288 211.651 205.427 211.664C205.566 211.677 205.662 211.684 205.715 211.684C206.146 211.684 206.508 211.611 206.799 211.465C207.098 211.319 207.346 211.1 207.545 210.809C207.744 210.524 207.92 210.166 208.072 209.735L208.957 207.328ZM205.825 197.643L209.256 206.881L209.574 208.124L208.709 208.611L204.532 197.643H205.825ZM225.683 201.442H221.606L221.586 200.407H225.096C225.812 200.407 226.422 200.305 226.926 200.099C227.43 199.894 227.811 199.589 228.07 199.184C228.335 198.773 228.467 198.269 228.467 197.673C228.467 197.063 228.338 196.559 228.079 196.161C227.821 195.757 227.433 195.459 226.916 195.266C226.399 195.074 225.749 194.978 224.967 194.978H221.924V208.402H220.701V193.924H224.967C225.703 193.924 226.362 193.997 226.946 194.143C227.529 194.289 228.026 194.517 228.437 194.829C228.848 195.14 229.16 195.535 229.372 196.012C229.591 196.483 229.7 197.046 229.7 197.703C229.7 198.299 229.568 198.84 229.303 199.323C229.037 199.801 228.663 200.192 228.179 200.497C227.702 200.795 227.128 200.981 226.459 201.054L225.683 201.442ZM225.593 208.402H221.218L221.845 207.358H225.593C226.309 207.358 226.919 207.239 227.423 207C227.934 206.755 228.325 206.407 228.597 205.956C228.868 205.505 229.004 204.968 229.004 204.345C229.004 203.795 228.885 203.301 228.646 202.864C228.408 202.426 228.043 202.081 227.552 201.829C227.062 201.571 226.439 201.442 225.683 201.442H223.147L223.167 200.407H226.757L226.976 200.775C227.625 200.842 228.192 201.044 228.676 201.382C229.167 201.713 229.545 202.134 229.81 202.645C230.082 203.155 230.217 203.715 230.217 204.325C230.217 205.2 230.022 205.943 229.631 206.553C229.246 207.156 228.706 207.617 228.01 207.935C227.32 208.247 226.515 208.402 225.593 208.402ZM237.069 208.601C236.366 208.601 235.72 208.472 235.13 208.213C234.546 207.955 234.036 207.59 233.598 207.12C233.167 206.649 232.833 206.092 232.594 205.449C232.362 204.799 232.246 204.09 232.246 203.321V202.893C232.246 202.065 232.369 201.316 232.614 200.646C232.859 199.976 233.197 199.403 233.628 198.926C234.059 198.448 234.55 198.084 235.1 197.832C235.657 197.573 236.24 197.444 236.85 197.444C237.533 197.444 238.139 197.567 238.67 197.812C239.2 198.051 239.644 198.392 240.002 198.836C240.367 199.274 240.642 199.794 240.828 200.397C241.013 200.994 241.106 201.654 241.106 202.376V203.102H232.962V202.088H239.923V201.949C239.909 201.345 239.787 200.782 239.555 200.258C239.329 199.728 238.991 199.297 238.541 198.966C238.09 198.634 237.526 198.468 236.85 198.468C236.346 198.468 235.882 198.574 235.458 198.787C235.04 198.999 234.679 199.304 234.374 199.701C234.076 200.092 233.844 200.56 233.678 201.103C233.519 201.64 233.439 202.237 233.439 202.893V203.321C233.439 203.918 233.525 204.474 233.698 204.992C233.877 205.502 234.129 205.953 234.454 206.344C234.785 206.735 235.176 207.04 235.627 207.259C236.078 207.478 236.575 207.587 237.119 207.587C237.755 207.587 238.318 207.471 238.809 207.239C239.3 207 239.74 206.626 240.132 206.115L240.877 206.692C240.645 207.037 240.354 207.355 240.002 207.647C239.658 207.938 239.243 208.17 238.759 208.343C238.275 208.515 237.712 208.601 237.069 208.601ZM244.636 199.94V208.402H243.453V197.643H244.586L244.636 199.94ZM244.368 202.356L243.841 202.058C243.88 201.422 244.01 200.825 244.228 200.268C244.447 199.711 244.742 199.221 245.114 198.796C245.491 198.372 245.932 198.041 246.436 197.802C246.947 197.563 247.51 197.444 248.127 197.444C248.664 197.444 249.144 197.517 249.568 197.663C249.993 197.809 250.354 198.041 250.652 198.359C250.951 198.677 251.176 199.085 251.328 199.582C251.488 200.079 251.567 200.686 251.567 201.402V208.402H250.374V201.392C250.374 200.649 250.271 200.069 250.066 199.652C249.86 199.227 249.568 198.926 249.191 198.747C248.813 198.568 248.365 198.478 247.848 198.478C247.278 198.478 246.777 198.604 246.347 198.856C245.922 199.101 245.564 199.423 245.273 199.821C244.988 200.212 244.769 200.633 244.616 201.084C244.464 201.528 244.381 201.952 244.368 202.356ZM258.617 207.577C259.121 207.577 259.592 207.484 260.029 207.299C260.474 207.106 260.838 206.825 261.123 206.453C261.415 206.075 261.581 205.615 261.621 205.071H262.754C262.721 205.754 262.512 206.364 262.128 206.901C261.75 207.431 261.253 207.849 260.636 208.154C260.026 208.452 259.353 208.601 258.617 208.601C257.868 208.601 257.205 208.465 256.629 208.194C256.059 207.922 255.581 207.544 255.197 207.06C254.812 206.569 254.521 205.999 254.322 205.35C254.129 204.693 254.033 203.987 254.033 203.231V202.814C254.033 202.058 254.129 201.355 254.322 200.706C254.521 200.049 254.812 199.479 255.197 198.995C255.581 198.505 256.059 198.124 256.629 197.852C257.199 197.58 257.858 197.444 258.607 197.444C259.376 197.444 260.066 197.6 260.676 197.911C261.292 198.223 261.783 198.664 262.148 199.234C262.519 199.804 262.721 200.48 262.754 201.263H261.621C261.587 200.686 261.435 200.189 261.163 199.771C260.891 199.353 260.533 199.032 260.089 198.806C259.645 198.581 259.151 198.468 258.607 198.468C257.998 198.468 257.477 198.588 257.046 198.826C256.615 199.058 256.264 199.38 255.992 199.791C255.727 200.195 255.531 200.659 255.406 201.183C255.28 201.7 255.217 202.244 255.217 202.814V203.231C255.217 203.808 255.276 204.358 255.396 204.882C255.522 205.399 255.717 205.86 255.982 206.264C256.254 206.669 256.605 206.99 257.036 207.229C257.474 207.461 258.001 207.577 258.617 207.577ZM266.334 193.128V208.402H265.151V193.128H266.334ZM266.065 202.356L265.538 202.058C265.578 201.422 265.707 200.825 265.926 200.268C266.145 199.711 266.44 199.221 266.811 198.796C267.189 198.372 267.63 198.041 268.134 197.802C268.644 197.563 269.208 197.444 269.824 197.444C270.361 197.444 270.842 197.517 271.266 197.663C271.69 197.809 272.052 198.041 272.35 198.359C272.648 198.677 272.874 199.085 273.026 199.582C273.185 200.079 273.265 200.686 273.265 201.402V208.402H272.072V201.392C272.072 200.649 271.969 200.069 271.763 199.652C271.558 199.227 271.266 198.926 270.888 198.747C270.51 198.568 270.063 198.478 269.546 198.478C268.976 198.478 268.475 198.604 268.044 198.856C267.62 199.101 267.262 199.423 266.97 199.821C266.685 200.212 266.467 200.633 266.314 201.084C266.162 201.528 266.079 201.952 266.065 202.356Z" fill="#610034"/>
<defs>
<filter id="filter0_d_8_15656" x="1.1497" y="0.000291348" width="412.256" height="414.024" filterUnits="userSpaceOnUse" color-interpolation-filters="sRGB">
<feFlood flood-opacity="0" result="BackgroundImageFix"/>
<feColorMatrix in="SourceAlpha" type="matrix" values="0 0 0 0 0 0 0 0 0 0 0 0 0 0 0 0 0 0 127 0" result="hardAlpha"/>
<feOffset dx="7.95518" dy="6.18736"/>
<feGaussianBlur stdDeviation="5.61282"/>
<feComposite in2="hardAlpha" operator="out"/>
<feColorMatrix type="matrix" values="0 0 0 0 0 0 0 0 0 0 0 0 0 0 0 0 0 0 0.25 0"/>
<feBlend mode="normal" in2="BackgroundImageFix" result="effect1_dropShadow_8_15656"/>
<feBlend mode="normal" in="SourceGraphic" in2="effect1_dropShadow_8_15656" result="shape"/>
</filter>
</defs>
</svg>
