<svg width="414" height="415" viewBox="0 0 414 415" fill="none" xmlns="http://www.w3.org/2000/svg">
<g filter="url(#filter0_d_8_15641)">
<path d="M105.799 9.51917C108.113 9.36792 110.42 9.52214 112.703 9.97458L117.832 10.9909C118.198 11.0632 118.503 11.1189 118.753 11.1592C118.77 11.162 118.788 11.1646 118.805 11.1672L119.072 11.0897L119.566 10.9655C122.017 10.4392 124.18 11.2968 125.565 12.4132C126.777 13.3896 127.408 14.5326 127.689 15.0949C128.287 16.2944 128.611 17.6106 128.812 18.5739L129.857 23.5647C130.183 25.1226 130.543 26.6607 130.936 28.1776L132.2 33.0482C132.543 34.3696 132.979 35.6814 133.511 36.9826L135.452 41.7237C135.707 42.3446 136.062 42.851 136.568 43.3036L140.391 46.7279C141.665 47.8698 142.925 48.9995 144.169 50.1147L147.902 53.4589C148.879 54.3354 149.931 55.1402 151.059 55.8735L155.318 58.642C156.448 59.3769 157.654 60.0398 158.936 60.6265L163.674 62.7954C164.333 63.097 164.989 63.235 165.712 63.2255L170.922 63.156C172.541 63.1346 174.144 63.0716 175.729 62.9677L180.849 62.6325C182.124 62.5489 183.384 62.3466 184.635 62.0222L189.629 60.7254C190.86 60.4059 192.056 59.9683 193.218 59.4086L197.9 57.1542C198.996 56.6264 200.02 55.9829 200.979 55.2177L205.054 51.9644C205.936 51.2603 206.701 50.4616 207.359 49.5578L210.416 45.3576C211.285 44.1635 212.081 42.9316 212.803 41.6609L215.352 37.175C215.78 36.4203 216.048 35.6359 216.172 34.7817L216.909 29.6814C217.212 27.5844 217.7 25.5215 218.365 23.4966L219.995 18.5352L220.215 17.9169C220.777 16.4589 221.685 14.8957 223.17 13.6138C224.959 12.069 227.1 11.3538 229.209 11.278L233.505 11.1245C234.697 11.0816 236.061 10.9675 237.608 10.7732L242.737 10.1295C244.751 9.87644 246.771 9.75943 248.792 9.78093L253.921 9.83568C255.827 9.85597 257.732 9.95821 259.634 10.1415L264.764 10.6357C266.208 10.7747 267.65 10.8281 269.09 10.7973L274.22 10.6877C276.101 10.6474 277.983 10.6775 279.863 10.7786L284.992 11.055C286.192 11.1194 287.402 11.0507 288.632 10.844L293.784 9.97858C296.71 9.4872 299.621 9.78156 302.389 10.844L307.275 12.7191C308.786 13.2989 310.308 13.8351 311.84 14.327L316.801 15.9203C319.45 16.7711 321.809 18.1834 323.819 20.1004L327.635 23.741C329.408 25.4325 330.897 27.3602 332.086 29.5038L334.646 34.1233C335.863 36.3175 336.699 38.6637 337.141 41.1321L338.07 46.3085C338.465 48.5163 338.62 50.7389 338.527 52.9661L338.31 58.1211C338.245 59.6725 338.238 61.219 338.288 62.7594L338.452 67.8877C338.516 69.8977 338.448 71.9075 338.247 73.9136L337.736 79.0419C337.606 80.3479 337.592 81.6513 337.694 82.955L338.098 88.0833C338.27 90.2761 338.21 92.4697 337.918 94.6541L337.232 99.7824C337.038 101.235 336.929 102.683 336.902 104.128L336.809 109.257C336.779 110.891 336.776 112.527 336.8 114.162L336.822 115.77L338.755 115.969C341.203 116.219 343.565 116.825 345.809 117.803L350.522 119.855C352.101 120.543 353.668 121.231 355.225 121.917L359.869 123.963C361.881 124.85 363.778 125.95 365.553 127.258L369.676 130.296C371.394 131.562 372.986 132.981 374.446 134.547L377.971 138.328C379.518 139.987 380.853 141.811 381.967 143.79L384.513 148.315C385.763 150.536 386.59 152.925 386.98 155.444L387.772 160.562C388.035 162.264 388.297 163.947 388.557 165.61L389.339 170.61C389.646 172.574 389.823 174.562 389.874 176.57L390.005 181.728C390.068 184.217 389.715 186.663 388.953 189.033L387.371 193.949C386.686 196.077 385.771 198.103 384.627 200.017L382.003 204.41C380.956 206.162 379.788 207.826 378.502 209.395L375.292 213.308C373.936 214.961 372.429 216.467 370.776 217.818L366.875 221.006C365.625 222.027 364.363 223.087 363.091 224.185L359.141 227.596C357.021 229.427 354.564 230.707 351.845 231.392L346.806 232.661C345.027 233.108 343.238 233.517 341.44 233.885L338.579 234.47L338.441 235.535C338.342 236.3 338.306 237.35 338.397 238.738L338.734 243.867C338.852 245.67 338.934 247.475 338.978 249.278L339.104 254.407C339.153 256.416 339.07 258.424 338.855 260.429L338.306 265.557C338.123 267.269 337.94 268.981 337.755 270.693L337.2 275.822C337.059 277.125 337.036 278.424 337.129 279.723L337.499 284.851C337.629 286.639 337.726 288.427 337.793 290.216L337.986 295.347C338.069 297.579 337.898 299.796 337.471 301.986L336.494 307.003C336.106 308.99 335.579 310.952 334.916 312.886L333.226 317.817C332.319 320.464 330.846 322.805 328.856 324.77L325.13 328.446C323.284 330.269 321.151 331.708 318.759 332.718L314.028 334.715C312.243 335.469 310.437 336.128 308.608 336.69L303.796 338.171C301.624 338.84 299.391 339.221 297.113 339.319L291.998 339.536C290.109 339.617 288.217 339.623 286.324 339.551L281.195 339.356C279.743 339.301 278.291 339.328 276.838 339.437L271.708 339.823C269.481 339.991 267.255 339.906 265.042 339.571L259.912 338.794C258.505 338.581 257.103 338.465 255.706 338.444L250.577 338.368C249.1 338.346 247.622 338.4 246.143 338.529L241.014 338.975C239.297 339.125 237.579 339.272 235.862 339.416L233.297 339.632L232.821 339.671L232.273 341.514C231.875 342.851 231.464 344.311 231.039 345.895L229.723 350.796C229.256 352.536 228.741 354.285 228.179 356.041L226.589 361.01C225.771 363.569 224.456 365.882 222.676 367.895L219.221 371.797C217.911 373.277 216.529 374.682 215.076 376.01L211.254 379.505C209.451 381.153 207.428 382.491 205.205 383.501L200.503 385.638C198.567 386.518 196.572 387.217 194.525 387.73L189.608 388.961C188.069 389.346 186.522 389.769 184.969 390.232L180.022 391.707C177.227 392.539 174.349 392.622 171.511 391.952L166.483 390.765C164.993 390.413 163.502 390.127 162.014 389.906L156.969 389.157C154.607 388.807 152.338 388.111 150.183 387.08L145.552 384.865C143.633 383.947 141.808 382.86 140.083 381.608L135.91 378.577C134.15 377.299 132.53 375.855 131.055 374.252L127.546 370.437C125.998 368.755 124.674 366.905 123.58 364.898L121.1 360.348C119.991 358.313 119.16 356.164 118.614 353.916L117.4 348.918C116.972 347.156 116.584 345.389 116.235 343.618L115.469 339.733L112.795 338.663C112.491 338.541 111.963 338.411 111.075 338.456L105.946 338.714C104.189 338.802 102.432 338.872 100.675 338.923L95.5454 339.074C93.8786 339.123 92.2112 339.187 90.5443 339.268L85.415 339.515C83.7576 339.595 82.0997 339.693 80.442 339.811L75.3128 340.176C73.3422 340.316 71.3698 340.343 69.398 340.256L64.2688 340.032C62.8627 339.97 61.4554 340.001 60.0464 340.127L54.9158 340.585C52.3725 340.811 49.8507 340.572 47.3902 339.888L42.3504 338.485C40.1791 337.881 38.107 337.044 36.1512 335.968L31.7192 333.53C30.0609 332.618 28.4332 331.625 26.8383 330.554L22.5452 327.67C20.0022 325.962 18.0865 323.628 16.9057 320.802L14.9127 316.031C14.1409 314.184 13.4899 312.31 12.9652 310.411L11.6281 305.57C11.1049 303.677 10.6986 301.743 10.4099 299.77L9.66456 294.67C9.38294 292.745 9.19782 290.813 9.11022 288.875L8.87914 283.747C8.77535 281.449 8.96549 279.162 9.44149 276.901L10.5208 271.772C10.6944 270.948 10.7009 270.154 10.5448 269.339L9.56304 264.211C9.16133 262.114 8.9444 260.004 8.91654 257.886L8.84841 252.757C8.82229 250.768 8.91878 248.78 9.1356 246.796L9.69528 241.667C9.82962 240.438 9.83399 239.212 9.7073 237.984L9.17835 232.856C8.98126 230.945 9.20707 228.68 10.4593 226.54C11.7234 224.38 13.6152 223.061 15.451 222.312L20.0901 220.419C22.4456 219.458 24.9225 218.965 27.4661 218.906L32.7277 218.785C33.0362 218.777 33.2026 218.716 33.4316 218.54L37.5885 215.347C39.0918 214.192 40.6139 213.101 42.1541 212.075L46.3804 209.26C47.1733 208.731 47.8511 208.1 48.4348 207.347L51.5457 203.333C52.4672 202.144 53.3363 200.921 54.1531 199.665L56.9141 195.421C57.4556 194.589 57.855 193.706 58.1216 192.751L59.4828 187.88C59.8786 186.463 60.2054 185.034 60.4645 183.593L61.3568 178.63C61.5537 177.535 61.6133 176.435 61.5345 175.32L61.1778 170.28C61.0898 169.036 60.8849 167.818 60.5634 166.622L59.2557 161.76C58.841 160.217 58.3941 158.66 57.9132 157.091L56.4025 152.16C56.1468 151.325 55.7576 150.581 55.215 149.892L52.0213 145.835C51.0662 144.622 50.0579 143.439 48.9984 142.288L45.4667 138.451C44.827 137.756 44.1015 137.199 43.2614 136.761L38.6317 134.352C37.2444 133.63 35.8314 132.962 34.3933 132.349L29.594 130.303C29.0349 130.065 28.4854 129.974 27.8455 130.029L22.6027 130.485C20.7884 130.642 18.4853 130.443 16.3126 129.118C14.0442 127.735 12.7748 125.647 12.1651 123.653L10.7919 119.163C10.1162 116.954 9.80722 114.663 9.8155 112.331L9.8342 107.203C9.83941 105.739 9.76512 104.273 9.61246 102.806L9.0795 97.6777C8.82048 95.1879 8.98842 92.7065 9.56571 90.2669L10.7799 85.1385C11.0006 84.2058 11.0464 83.3152 10.9362 82.4301L10.2977 77.3018C10.0477 75.295 9.93047 73.2829 9.94774 71.2692L9.99182 66.1409C10.0041 64.7122 9.92835 63.2812 9.76474 61.8472L9.17968 56.7188C8.88284 54.1175 9.09666 51.5318 9.80748 49.0129L11.2234 43.9954C11.794 41.9736 12.5186 40.0248 13.3993 38.1552L15.5419 33.6051C16.5337 31.4997 17.8067 29.5684 19.3528 27.8317L22.6748 24.1016C24.2531 22.3288 26.0731 20.8313 28.1193 19.6317L32.391 17.1276C34.1171 16.1157 35.9179 15.2378 37.7888 14.4939L42.4493 12.6416C44.7697 11.719 47.1988 11.232 49.6957 11.1725L54.8009 11.051C56.7478 11.0047 58.6972 11.0623 60.6475 11.2246L65.7768 11.652C66.7796 11.7354 67.7943 11.6667 68.841 11.4316L73.9703 10.2804C76.631 9.68295 79.3296 9.66125 81.9995 10.2203L87.1288 11.2941C88.0205 11.4807 88.8814 11.498 89.7522 11.3555L94.8815 10.5168C96.8067 10.2018 98.7368 9.98075 100.669 9.85438L105.799 9.51917Z" fill="#FFC3D9"/>
<path d="M105.799 9.51917C108.113 9.36792 110.42 9.52214 112.703 9.97458L117.832 10.9909C118.198 11.0632 118.503 11.1189 118.753 11.1592C118.77 11.162 118.788 11.1646 118.805 11.1672L119.072 11.0897L119.566 10.9655C122.017 10.4392 124.18 11.2968 125.565 12.4132C126.777 13.3896 127.408 14.5326 127.689 15.0949C128.287 16.2944 128.611 17.6106 128.812 18.5739L129.857 23.5647C130.183 25.1226 130.543 26.6607 130.936 28.1776L132.2 33.0482C132.543 34.3696 132.979 35.6814 133.511 36.9826L135.452 41.7237C135.707 42.3446 136.062 42.851 136.568 43.3036L140.391 46.7279C141.665 47.8698 142.925 48.9995 144.169 50.1147L147.902 53.4589C148.879 54.3354 149.931 55.1402 151.059 55.8735L155.318 58.642C156.448 59.3769 157.654 60.0398 158.936 60.6265L163.674 62.7954C164.333 63.097 164.989 63.235 165.712 63.2255L170.922 63.156C172.541 63.1346 174.144 63.0716 175.729 62.9677L180.849 62.6325C182.124 62.5489 183.384 62.3466 184.635 62.0222L189.629 60.7254C190.86 60.4059 192.056 59.9683 193.218 59.4086L197.9 57.1542C198.996 56.6264 200.02 55.9829 200.979 55.2177L205.054 51.9644C205.936 51.2603 206.701 50.4616 207.359 49.5578L210.416 45.3576C211.285 44.1635 212.081 42.9316 212.803 41.6609L215.352 37.175C215.78 36.4203 216.048 35.6359 216.172 34.7817L216.909 29.6814C217.212 27.5844 217.7 25.5215 218.365 23.4966L219.995 18.5352L220.215 17.9169C220.777 16.4589 221.685 14.8957 223.17 13.6138C224.959 12.069 227.1 11.3538 229.209 11.278L233.505 11.1245C234.697 11.0816 236.061 10.9675 237.608 10.7732L242.737 10.1295C244.751 9.87644 246.771 9.75943 248.792 9.78093L253.921 9.83568C255.827 9.85597 257.732 9.95821 259.634 10.1415L264.764 10.6357C266.208 10.7747 267.65 10.8281 269.09 10.7973L274.22 10.6877C276.101 10.6474 277.983 10.6775 279.863 10.7786L284.992 11.055C286.192 11.1194 287.402 11.0507 288.632 10.844L293.784 9.97858C296.71 9.4872 299.621 9.78156 302.389 10.844L307.275 12.7191C308.786 13.2989 310.308 13.8351 311.84 14.327L316.801 15.9203C319.45 16.7711 321.809 18.1834 323.819 20.1004L327.635 23.741C329.408 25.4325 330.897 27.3602 332.086 29.5038L334.646 34.1233C335.863 36.3175 336.699 38.6637 337.141 41.1321L338.07 46.3085C338.465 48.5163 338.62 50.7389 338.527 52.9661L338.31 58.1211C338.245 59.6725 338.238 61.219 338.288 62.7594L338.452 67.8877C338.516 69.8977 338.448 71.9075 338.247 73.9136L337.736 79.0419C337.606 80.3479 337.592 81.6513 337.694 82.955L338.098 88.0833C338.27 90.2761 338.21 92.4697 337.918 94.6541L337.232 99.7824C337.038 101.235 336.929 102.683 336.902 104.128L336.809 109.257C336.779 110.891 336.776 112.527 336.8 114.162L336.822 115.77L338.755 115.969C341.203 116.219 343.565 116.825 345.809 117.803L350.522 119.855C352.101 120.543 353.668 121.231 355.225 121.917L359.869 123.963C361.881 124.85 363.778 125.95 365.553 127.258L369.676 130.296C371.394 131.562 372.986 132.981 374.446 134.547L377.971 138.328C379.518 139.987 380.853 141.811 381.967 143.79L384.513 148.315C385.763 150.536 386.59 152.925 386.98 155.444L387.772 160.562C388.035 162.264 388.297 163.947 388.557 165.61L389.339 170.61C389.646 172.574 389.823 174.562 389.874 176.57L390.005 181.728C390.068 184.217 389.715 186.663 388.953 189.033L387.371 193.949C386.686 196.077 385.771 198.103 384.627 200.017L382.003 204.41C380.956 206.162 379.788 207.826 378.502 209.395L375.292 213.308C373.936 214.961 372.429 216.467 370.776 217.818L366.875 221.006C365.625 222.027 364.363 223.087 363.091 224.185L359.141 227.596C357.021 229.427 354.564 230.707 351.845 231.392L346.806 232.661C345.027 233.108 343.238 233.517 341.44 233.885L338.579 234.47L338.441 235.535C338.342 236.3 338.306 237.35 338.397 238.738L338.734 243.867C338.852 245.67 338.934 247.475 338.978 249.278L339.104 254.407C339.153 256.416 339.07 258.424 338.855 260.429L338.306 265.557C338.123 267.269 337.94 268.981 337.755 270.693L337.2 275.822C337.059 277.125 337.036 278.424 337.129 279.723L337.499 284.851C337.629 286.639 337.726 288.427 337.793 290.216L337.986 295.347C338.069 297.579 337.898 299.796 337.471 301.986L336.494 307.003C336.106 308.99 335.579 310.952 334.916 312.886L333.226 317.817C332.319 320.464 330.846 322.805 328.856 324.77L325.13 328.446C323.284 330.269 321.151 331.708 318.759 332.718L314.028 334.715C312.243 335.469 310.437 336.128 308.608 336.69L303.796 338.171C301.624 338.84 299.391 339.221 297.113 339.319L291.998 339.536C290.109 339.617 288.217 339.623 286.324 339.551L281.195 339.356C279.743 339.301 278.291 339.328 276.838 339.437L271.708 339.823C269.481 339.991 267.255 339.906 265.042 339.571L259.912 338.794C258.505 338.581 257.103 338.465 255.706 338.444L250.577 338.368C249.1 338.346 247.622 338.4 246.143 338.529L241.014 338.975C239.297 339.125 237.579 339.272 235.862 339.416L233.297 339.632L232.821 339.671L232.273 341.514C231.875 342.851 231.464 344.311 231.039 345.895L229.723 350.796C229.256 352.536 228.741 354.285 228.179 356.041L226.589 361.01C225.771 363.569 224.456 365.882 222.676 367.895L219.221 371.797C217.911 373.277 216.529 374.682 215.076 376.01L211.254 379.505C209.451 381.153 207.428 382.491 205.205 383.501L200.503 385.638C198.567 386.518 196.572 387.217 194.525 387.73L189.608 388.961C188.069 389.346 186.522 389.769 184.969 390.232L180.022 391.707C177.227 392.539 174.349 392.622 171.511 391.952L166.483 390.765C164.993 390.413 163.502 390.127 162.014 389.906L156.969 389.157C154.607 388.807 152.338 388.111 150.183 387.08L145.552 384.865C143.633 383.947 141.808 382.86 140.083 381.608L135.91 378.577C134.15 377.299 132.53 375.855 131.055 374.252L127.546 370.437C125.998 368.755 124.674 366.905 123.58 364.898L121.1 360.348C119.991 358.313 119.16 356.164 118.614 353.916L117.4 348.918C116.972 347.156 116.584 345.389 116.235 343.618L115.469 339.733L112.795 338.663C112.491 338.541 111.963 338.411 111.075 338.456L105.946 338.714C104.189 338.802 102.432 338.872 100.675 338.923L95.5454 339.074C93.8786 339.123 92.2112 339.187 90.5443 339.268L85.415 339.515C83.7576 339.595 82.0997 339.693 80.442 339.811L75.3128 340.176C73.3422 340.316 71.3698 340.343 69.398 340.256L64.2688 340.032C62.8627 339.97 61.4554 340.001 60.0464 340.127L54.9158 340.585C52.3725 340.811 49.8507 340.572 47.3902 339.888L42.3504 338.485C40.1791 337.881 38.107 337.044 36.1512 335.968L31.7192 333.53C30.0609 332.618 28.4332 331.625 26.8383 330.554L22.5452 327.67C20.0022 325.962 18.0865 323.628 16.9057 320.802L14.9127 316.031C14.1409 314.184 13.4899 312.31 12.9652 310.411L11.6281 305.57C11.1049 303.677 10.6986 301.743 10.4099 299.77L9.66456 294.67C9.38294 292.745 9.19782 290.813 9.11022 288.875L8.87914 283.747C8.77535 281.449 8.96549 279.162 9.44149 276.901L10.5208 271.772C10.6944 270.948 10.7009 270.154 10.5448 269.339L9.56304 264.211C9.16133 262.114 8.9444 260.004 8.91654 257.886L8.84841 252.757C8.82229 250.768 8.91878 248.78 9.1356 246.796L9.69528 241.667C9.82962 240.438 9.83399 239.212 9.7073 237.984L9.17835 232.856C8.98126 230.945 9.20707 228.68 10.4593 226.54C11.7234 224.38 13.6152 223.061 15.451 222.312L20.0901 220.419C22.4456 219.458 24.9225 218.965 27.4661 218.906L32.7277 218.785C33.0362 218.777 33.2026 218.716 33.4316 218.54L37.5885 215.347C39.0918 214.192 40.6139 213.101 42.1541 212.075L46.3804 209.26C47.1733 208.731 47.8511 208.1 48.4348 207.347L51.5457 203.333C52.4672 202.144 53.3363 200.921 54.1531 199.665L56.9141 195.421C57.4556 194.589 57.855 193.706 58.1216 192.751L59.4828 187.88C59.8786 186.463 60.2054 185.034 60.4645 183.593L61.3568 178.63C61.5537 177.535 61.6133 176.435 61.5345 175.32L61.1778 170.28C61.0898 169.036 60.8849 167.818 60.5634 166.622L59.2557 161.76C58.841 160.217 58.3941 158.66 57.9132 157.091L56.4025 152.16C56.1468 151.325 55.7576 150.581 55.215 149.892L52.0213 145.835C51.0662 144.622 50.0579 143.439 48.9984 142.288L45.4667 138.451C44.827 137.756 44.1015 137.199 43.2614 136.761L38.6317 134.352C37.2444 133.63 35.8314 132.962 34.3933 132.349L29.594 130.303C29.0349 130.065 28.4854 129.974 27.8455 130.029L22.6027 130.485C20.7884 130.642 18.4853 130.443 16.3126 129.118C14.0442 127.735 12.7748 125.647 12.1651 123.653L10.7919 119.163C10.1162 116.954 9.80722 114.663 9.8155 112.331L9.8342 107.203C9.83941 105.739 9.76512 104.273 9.61246 102.806L9.0795 97.6777C8.82048 95.1879 8.98842 92.7065 9.56571 90.2669L10.7799 85.1385C11.0006 84.2058 11.0464 83.3152 10.9362 82.4301L10.2977 77.3018C10.0477 75.295 9.93047 73.2829 9.94774 71.2692L9.99182 66.1409C10.0041 64.7122 9.92835 63.2812 9.76474 61.8472L9.17968 56.7188C8.88284 54.1175 9.09666 51.5318 9.80748 49.0129L11.2234 43.9954C11.794 41.9736 12.5186 40.0248 13.3993 38.1552L15.5419 33.6051C16.5337 31.4997 17.8067 29.5684 19.3528 27.8317L22.6748 24.1016C24.2531 22.3288 26.0731 20.8313 28.1193 19.6317L32.391 17.1276C34.1171 16.1157 35.9179 15.2378 37.7888 14.4939L42.4493 12.6416C44.7697 11.719 47.1988 11.232 49.6957 11.1725L54.8009 11.051C56.7478 11.0047 58.6972 11.0623 60.6475 11.2246L65.7768 11.652C66.7796 11.7354 67.7943 11.6667 68.841 11.4316L73.9703 10.2804C76.631 9.68295 79.3296 9.66125 81.9995 10.2203L87.1288 11.2941C88.0205 11.4807 88.8814 11.498 89.7522 11.3555L94.8815 10.5168C96.8067 10.2018 98.7368 9.98075 100.669 9.85438L105.799 9.51917Z" stroke="#BD002F" stroke-width="8.84381"/>
</g>
<path d="M119.048 191.977H120.272C120.172 192.952 119.904 193.794 119.466 194.504C119.028 195.207 118.431 195.747 117.675 196.126C116.919 196.504 116.007 196.693 114.939 196.693C114.116 196.693 113.37 196.537 112.7 196.225C112.037 195.913 111.467 195.472 110.989 194.902C110.512 194.325 110.143 193.635 109.885 192.832C109.626 192.03 109.497 191.138 109.497 190.156V188.345C109.497 187.364 109.626 186.475 109.885 185.679C110.143 184.876 110.515 184.186 110.999 183.609C111.483 183.032 112.064 182.588 112.74 182.276C113.417 181.964 114.179 181.809 115.028 181.809C116.057 181.809 116.945 181.998 117.695 182.376C118.444 182.747 119.035 183.284 119.466 183.987C119.904 184.69 120.172 185.539 120.272 186.534H119.048C118.955 185.752 118.75 185.088 118.431 184.545C118.113 184.001 117.672 183.586 117.108 183.301C116.551 183.009 115.858 182.863 115.028 182.863C114.352 182.863 113.748 182.992 113.218 183.251C112.687 183.51 112.236 183.881 111.865 184.365C111.493 184.843 111.208 185.417 111.009 186.087C110.817 186.757 110.72 187.503 110.72 188.325V190.156C110.72 190.952 110.813 191.685 110.999 192.355C111.185 193.025 111.457 193.605 111.815 194.096C112.18 194.587 112.624 194.968 113.148 195.24C113.672 195.512 114.269 195.648 114.939 195.648C115.795 195.648 116.508 195.512 117.078 195.24C117.655 194.961 118.103 194.55 118.421 194.006C118.74 193.462 118.949 192.786 119.048 191.977ZM122.321 191.28V190.952C122.321 190.169 122.434 189.446 122.66 188.783C122.885 188.12 123.207 187.546 123.625 187.062C124.049 186.578 124.557 186.203 125.147 185.937C125.737 185.666 126.394 185.53 127.117 185.53C127.847 185.53 128.506 185.666 129.097 185.937C129.687 186.203 130.195 186.578 130.619 187.062C131.044 187.546 131.369 188.12 131.594 188.783C131.82 189.446 131.932 190.169 131.932 190.952V191.28C131.932 192.063 131.82 192.786 131.594 193.449C131.369 194.106 131.044 194.676 130.619 195.16C130.201 195.645 129.697 196.023 129.107 196.295C128.516 196.56 127.86 196.693 127.137 196.693C126.407 196.693 125.747 196.56 125.157 196.295C124.567 196.023 124.059 195.645 123.635 195.16C123.21 194.676 122.885 194.106 122.66 193.449C122.434 192.786 122.321 192.063 122.321 191.28ZM123.505 190.952V191.28C123.505 191.871 123.585 192.431 123.744 192.962C123.903 193.486 124.135 193.953 124.441 194.365C124.746 194.769 125.124 195.087 125.575 195.32C126.026 195.552 126.546 195.668 127.137 195.668C127.72 195.668 128.235 195.552 128.679 195.32C129.13 195.087 129.508 194.769 129.813 194.365C130.118 193.953 130.347 193.486 130.5 192.962C130.659 192.431 130.738 191.871 130.738 191.28V190.952C130.738 190.368 130.659 189.814 130.5 189.29C130.347 188.766 130.115 188.299 129.803 187.888C129.498 187.476 129.12 187.151 128.669 186.912C128.218 186.674 127.701 186.554 127.117 186.554C126.533 186.554 126.016 186.674 125.565 186.912C125.12 187.151 124.742 187.476 124.431 187.888C124.125 188.299 123.893 188.766 123.734 189.29C123.582 189.814 123.505 190.368 123.505 190.952ZM135.723 181.212V196.494H134.539V181.212H135.723ZM140.3 181.212V196.494H139.116V181.212H140.3ZM150.1 194.563V189.012C150.1 188.501 149.994 188.06 149.781 187.689C149.569 187.317 149.257 187.032 148.846 186.833C148.435 186.634 147.927 186.534 147.324 186.534C146.767 186.534 146.269 186.634 145.832 186.833C145.4 187.025 145.059 187.287 144.807 187.619C144.561 187.944 144.439 188.305 144.439 188.703L143.245 188.693C143.245 188.289 143.344 187.897 143.543 187.519C143.742 187.141 144.024 186.803 144.389 186.505C144.754 186.206 145.188 185.971 145.692 185.798C146.203 185.619 146.763 185.53 147.374 185.53C148.143 185.53 148.82 185.659 149.403 185.918C149.994 186.176 150.455 186.564 150.786 187.082C151.118 187.599 151.284 188.249 151.284 189.032V194.235C151.284 194.607 151.31 194.991 151.363 195.389C151.423 195.787 151.506 196.116 151.612 196.374V196.494H150.348C150.269 196.255 150.206 195.956 150.159 195.598C150.12 195.233 150.1 194.889 150.1 194.563ZM150.378 190.226L150.398 191.141H148.06C147.45 191.141 146.903 191.197 146.419 191.31C145.941 191.416 145.536 191.575 145.205 191.788C144.873 191.993 144.618 192.242 144.439 192.534C144.266 192.826 144.18 193.157 144.18 193.529C144.18 193.913 144.276 194.265 144.468 194.583C144.667 194.902 144.946 195.157 145.304 195.349C145.669 195.535 146.1 195.628 146.598 195.628C147.261 195.628 147.845 195.505 148.349 195.26C148.859 195.015 149.281 194.693 149.612 194.295C149.944 193.897 150.166 193.462 150.279 192.992L150.796 193.678C150.71 194.01 150.551 194.351 150.319 194.703C150.093 195.048 149.798 195.373 149.433 195.678C149.068 195.976 148.637 196.222 148.14 196.414C147.649 196.6 147.092 196.693 146.468 196.693C145.765 196.693 145.152 196.56 144.628 196.295C144.11 196.029 143.706 195.668 143.414 195.21C143.129 194.746 142.986 194.222 142.986 193.638C142.986 193.108 143.099 192.633 143.324 192.215C143.55 191.791 143.875 191.433 144.299 191.141C144.73 190.842 145.248 190.617 145.851 190.464C146.462 190.305 147.145 190.226 147.901 190.226H150.378ZM154.458 181.212H155.651V194.404L155.572 196.494H154.458V181.212ZM163.143 191.012V191.221C163.143 192.023 163.05 192.759 162.865 193.429C162.679 194.099 162.41 194.68 162.059 195.17C161.707 195.655 161.276 196.029 160.765 196.295C160.261 196.56 159.681 196.693 159.024 196.693C158.381 196.693 157.81 196.593 157.313 196.394C156.816 196.189 156.391 195.9 156.039 195.529C155.688 195.15 155.406 194.709 155.194 194.205C154.982 193.695 154.832 193.134 154.746 192.524V189.867C154.846 189.217 155.005 188.627 155.224 188.096C155.443 187.566 155.724 187.108 156.069 186.723C156.421 186.339 156.839 186.044 157.323 185.838C157.814 185.632 158.374 185.53 159.004 185.53C159.661 185.53 160.245 185.659 160.755 185.918C161.273 186.17 161.707 186.538 162.059 187.022C162.41 187.499 162.679 188.077 162.865 188.753C163.05 189.423 163.143 190.176 163.143 191.012ZM161.939 191.221V191.012C161.939 190.381 161.88 189.798 161.76 189.261C161.641 188.723 161.452 188.256 161.193 187.858C160.941 187.453 160.616 187.138 160.218 186.912C159.82 186.687 159.343 186.574 158.785 186.574C158.215 186.574 157.728 186.67 157.323 186.863C156.925 187.048 156.593 187.297 156.328 187.609C156.069 187.914 155.864 188.249 155.711 188.614C155.559 188.979 155.446 189.337 155.373 189.688V192.783C155.486 193.28 155.681 193.748 155.96 194.185C156.238 194.623 156.613 194.978 157.084 195.25C157.555 195.515 158.129 195.648 158.805 195.648C159.349 195.648 159.817 195.535 160.208 195.31C160.606 195.084 160.931 194.772 161.183 194.374C161.442 193.976 161.631 193.509 161.75 192.972C161.876 192.434 161.939 191.851 161.939 191.221ZM165.123 191.28V190.952C165.123 190.169 165.236 189.446 165.461 188.783C165.687 188.12 166.009 187.546 166.427 187.062C166.851 186.578 167.358 186.203 167.949 185.937C168.539 185.666 169.196 185.53 169.919 185.53C170.648 185.53 171.308 185.666 171.899 185.937C172.489 186.203 172.996 186.578 173.421 187.062C173.845 187.546 174.17 188.12 174.396 188.783C174.621 189.446 174.734 190.169 174.734 190.952V191.28C174.734 192.063 174.621 192.786 174.396 193.449C174.17 194.106 173.845 194.676 173.421 195.16C173.003 195.645 172.499 196.023 171.909 196.295C171.318 196.56 170.662 196.693 169.939 196.693C169.209 196.693 168.549 196.56 167.959 196.295C167.368 196.023 166.861 195.645 166.436 195.16C166.012 194.676 165.687 194.106 165.461 193.449C165.236 192.786 165.123 192.063 165.123 191.28ZM166.307 190.952V191.28C166.307 191.871 166.387 192.431 166.546 192.962C166.705 193.486 166.937 193.953 167.242 194.365C167.547 194.769 167.926 195.087 168.377 195.32C168.828 195.552 169.348 195.668 169.939 195.668C170.522 195.668 171.036 195.552 171.481 195.32C171.932 195.087 172.31 194.769 172.615 194.365C172.92 193.953 173.149 193.486 173.301 192.962C173.461 192.431 173.54 191.871 173.54 191.28V190.952C173.54 190.368 173.461 189.814 173.301 189.29C173.149 188.766 172.917 188.299 172.605 187.888C172.3 187.476 171.922 187.151 171.471 186.912C171.02 186.674 170.502 186.554 169.919 186.554C169.335 186.554 168.818 186.674 168.367 186.912C167.922 187.151 167.544 187.476 167.232 187.888C166.927 188.299 166.695 188.766 166.536 189.29C166.383 189.814 166.307 190.368 166.307 190.952ZM178.386 187.509V196.494H177.202V185.729H178.356L178.386 187.509ZM182.196 185.649L182.166 186.743C182.034 186.723 181.904 186.707 181.778 186.694C181.652 186.68 181.516 186.674 181.37 186.674C180.853 186.674 180.399 186.77 180.007 186.962C179.623 187.148 179.298 187.41 179.032 187.748C178.767 188.08 178.565 188.471 178.425 188.922C178.286 189.367 178.206 189.844 178.187 190.355L177.749 190.524C177.749 189.821 177.822 189.168 177.968 188.564C178.114 187.96 178.336 187.433 178.634 186.982C178.939 186.524 179.321 186.17 179.778 185.918C180.243 185.659 180.787 185.53 181.41 185.53C181.563 185.53 181.712 185.543 181.858 185.569C182.01 185.589 182.123 185.616 182.196 185.649ZM190.215 194.563V189.012C190.215 188.501 190.109 188.06 189.897 187.689C189.685 187.317 189.373 187.032 188.962 186.833C188.55 186.634 188.043 186.534 187.439 186.534C186.882 186.534 186.385 186.634 185.947 186.833C185.516 187.025 185.174 187.287 184.922 187.619C184.677 187.944 184.554 188.305 184.554 188.703L183.36 188.693C183.36 188.289 183.46 187.897 183.659 187.519C183.858 187.141 184.14 186.803 184.504 186.505C184.869 186.206 185.304 185.971 185.808 185.798C186.318 185.619 186.879 185.53 187.489 185.53C188.259 185.53 188.935 185.659 189.519 185.918C190.109 186.176 190.57 186.564 190.902 187.082C191.233 187.599 191.399 188.249 191.399 189.032V194.235C191.399 194.607 191.426 194.991 191.479 195.389C191.539 195.787 191.621 196.116 191.728 196.374V196.494H190.464C190.384 196.255 190.321 195.956 190.275 195.598C190.235 195.233 190.215 194.889 190.215 194.563ZM190.494 190.226L190.514 191.141H188.176C187.565 191.141 187.018 191.197 186.534 191.31C186.056 191.416 185.652 191.575 185.32 191.788C184.989 191.993 184.733 192.242 184.554 192.534C184.382 192.826 184.295 193.157 184.295 193.529C184.295 193.913 184.392 194.265 184.584 194.583C184.783 194.902 185.062 195.157 185.42 195.349C185.785 195.535 186.216 195.628 186.713 195.628C187.376 195.628 187.96 195.505 188.464 195.26C188.975 195.015 189.396 194.693 189.728 194.295C190.059 193.897 190.282 193.462 190.394 192.992L190.912 193.678C190.826 194.01 190.666 194.351 190.434 194.703C190.209 195.048 189.913 195.373 189.549 195.678C189.184 195.976 188.753 196.222 188.255 196.414C187.764 196.6 187.207 196.693 186.584 196.693C185.881 196.693 185.267 196.56 184.743 196.295C184.226 196.029 183.821 195.668 183.529 195.21C183.244 194.746 183.102 194.222 183.102 193.638C183.102 193.108 183.214 192.633 183.44 192.215C183.665 191.791 183.99 191.433 184.415 191.141C184.846 190.842 185.363 190.617 185.967 190.464C186.577 190.305 187.26 190.226 188.016 190.226H190.494ZM198.662 185.729V186.704H193.27V185.729H198.662ZM195.25 182.963H196.434V193.877C196.434 194.374 196.5 194.749 196.633 195.001C196.765 195.253 196.938 195.422 197.15 195.509C197.362 195.595 197.591 195.638 197.836 195.638C198.016 195.638 198.188 195.628 198.354 195.608C198.52 195.582 198.669 195.555 198.802 195.529L198.851 196.533C198.705 196.58 198.516 196.616 198.284 196.643C198.052 196.676 197.82 196.693 197.588 196.693C197.13 196.693 196.725 196.61 196.374 196.444C196.022 196.271 195.747 195.98 195.548 195.568C195.349 195.15 195.25 194.583 195.25 193.867V182.963ZM202.483 185.729V196.494H201.299V185.729H202.483ZM201.09 182.614C201.09 182.389 201.16 182.2 201.299 182.047C201.445 181.888 201.644 181.809 201.896 181.809C202.148 181.809 202.347 181.888 202.493 182.047C202.645 182.2 202.722 182.389 202.722 182.614C202.722 182.833 202.645 183.022 202.493 183.182C202.347 183.334 202.148 183.41 201.896 183.41C201.644 183.41 201.445 183.334 201.299 183.182C201.16 183.022 201.09 182.833 201.09 182.614ZM208.91 195.349L212.362 185.729H213.586L209.557 196.494H208.691L208.91 195.349ZM205.786 185.729L209.278 195.379L209.467 196.494H208.592L204.552 185.729H205.786ZM219.566 196.693C218.863 196.693 218.216 196.563 217.626 196.305C217.042 196.046 216.531 195.681 216.093 195.21C215.662 194.739 215.327 194.182 215.089 193.539C214.856 192.889 214.74 192.179 214.74 191.41V190.982C214.74 190.153 214.863 189.403 215.108 188.733C215.354 188.063 215.692 187.49 216.123 187.012C216.554 186.534 217.045 186.17 217.596 185.918C218.153 185.659 218.737 185.53 219.347 185.53C220.03 185.53 220.637 185.652 221.168 185.898C221.698 186.136 222.143 186.478 222.501 186.922C222.866 187.36 223.141 187.881 223.327 188.484C223.512 189.081 223.605 189.741 223.605 190.464V191.191H215.457V190.176H222.421V190.037C222.408 189.433 222.285 188.869 222.053 188.345C221.827 187.815 221.489 187.383 221.038 187.052C220.587 186.72 220.023 186.554 219.347 186.554C218.843 186.554 218.378 186.66 217.954 186.873C217.536 187.085 217.175 187.39 216.869 187.788C216.571 188.179 216.339 188.647 216.173 189.191C216.014 189.728 215.934 190.325 215.934 190.982V191.41C215.934 192.007 216.02 192.564 216.193 193.081C216.372 193.592 216.624 194.043 216.949 194.434C217.281 194.825 217.672 195.131 218.123 195.349C218.574 195.568 219.072 195.678 219.615 195.678C220.252 195.678 220.816 195.562 221.307 195.33C221.798 195.091 222.239 194.716 222.63 194.205L223.376 194.782C223.144 195.127 222.852 195.446 222.501 195.738C222.156 196.029 221.741 196.262 221.257 196.434C220.773 196.606 220.209 196.693 219.566 196.693ZM235.166 196.494H231.883L231.903 195.449H235.166C236.208 195.449 237.103 195.217 237.852 194.753C238.609 194.282 239.192 193.632 239.604 192.802C240.015 191.973 240.22 191.012 240.22 189.917V188.564C240.22 187.728 240.101 186.972 239.862 186.296C239.63 185.619 239.295 185.042 238.857 184.564C238.42 184.08 237.896 183.709 237.285 183.45C236.682 183.191 236.005 183.062 235.256 183.062H231.823V182.007H235.256C236.158 182.007 236.984 182.163 237.733 182.475C238.489 182.78 239.143 183.225 239.693 183.808C240.25 184.385 240.678 185.079 240.977 185.888C241.282 186.697 241.434 187.599 241.434 188.594V189.917C241.434 190.912 241.282 191.814 240.977 192.623C240.678 193.433 240.25 194.126 239.693 194.703C239.136 195.28 238.476 195.724 237.713 196.036C236.95 196.341 236.101 196.494 235.166 196.494ZM232.43 182.007V196.494H231.206V182.007H232.43ZM248.439 196.693C247.735 196.693 247.089 196.563 246.498 196.305C245.915 196.046 245.404 195.681 244.966 195.21C244.535 194.739 244.2 194.182 243.961 193.539C243.729 192.889 243.613 192.179 243.613 191.41V190.982C243.613 190.153 243.736 189.403 243.981 188.733C244.227 188.063 244.565 187.49 244.996 187.012C245.427 186.534 245.918 186.17 246.469 185.918C247.026 185.659 247.609 185.53 248.22 185.53C248.903 185.53 249.51 185.652 250.04 185.898C250.571 186.136 251.015 186.478 251.374 186.922C251.738 187.36 252.014 187.881 252.199 188.484C252.385 189.081 252.478 189.741 252.478 190.464V191.191H244.329V190.176H251.294V190.037C251.281 189.433 251.158 188.869 250.926 188.345C250.7 187.815 250.362 187.383 249.911 187.052C249.46 186.72 248.896 186.554 248.22 186.554C247.716 186.554 247.251 186.66 246.827 186.873C246.409 187.085 246.047 187.39 245.742 187.788C245.444 188.179 245.212 188.647 245.046 189.191C244.887 189.728 244.807 190.325 244.807 190.982V191.41C244.807 192.007 244.893 192.564 245.066 193.081C245.245 193.592 245.497 194.043 245.822 194.434C246.154 194.825 246.545 195.131 246.996 195.349C247.447 195.568 247.944 195.678 248.488 195.678C249.125 195.678 249.689 195.562 250.18 195.33C250.67 195.091 251.112 194.716 251.503 194.205L252.249 194.782C252.017 195.127 251.725 195.446 251.374 195.738C251.029 196.029 250.614 196.262 250.13 196.434C249.646 196.606 249.082 196.693 248.439 196.693ZM261.273 193.748C261.273 193.456 261.2 193.167 261.054 192.882C260.908 192.597 260.626 192.335 260.209 192.096C259.797 191.857 259.19 191.655 258.388 191.489C257.791 191.357 257.257 191.207 256.786 191.041C256.322 190.876 255.93 190.677 255.612 190.444C255.294 190.212 255.052 189.934 254.886 189.609C254.72 189.284 254.637 188.899 254.637 188.455C254.637 188.057 254.723 187.682 254.896 187.33C255.075 186.972 255.327 186.66 255.652 186.395C255.983 186.123 256.381 185.911 256.846 185.758C257.317 185.606 257.844 185.53 258.428 185.53C259.257 185.53 259.966 185.672 260.557 185.957C261.154 186.236 261.608 186.617 261.92 187.102C262.238 187.586 262.397 188.133 262.397 188.743H261.213C261.213 188.372 261.104 188.02 260.885 187.689C260.673 187.357 260.358 187.085 259.94 186.873C259.529 186.66 259.025 186.554 258.428 186.554C257.811 186.554 257.31 186.647 256.925 186.833C256.541 187.019 256.259 187.254 256.08 187.539C255.907 187.825 255.821 188.12 255.821 188.425C255.821 188.664 255.857 188.882 255.93 189.081C256.01 189.274 256.149 189.453 256.348 189.619C256.554 189.785 256.846 189.94 257.224 190.086C257.602 190.232 258.093 190.375 258.696 190.514C259.565 190.706 260.275 190.942 260.825 191.221C261.383 191.492 261.794 191.831 262.059 192.235C262.324 192.633 262.457 193.118 262.457 193.688C262.457 194.132 262.364 194.54 262.179 194.912C261.993 195.277 261.724 195.592 261.373 195.857C261.028 196.122 260.61 196.328 260.119 196.474C259.635 196.62 259.091 196.693 258.487 196.693C257.579 196.693 256.809 196.543 256.179 196.245C255.556 195.94 255.081 195.542 254.756 195.051C254.438 194.554 254.279 194.026 254.279 193.469H255.463C255.503 194.026 255.678 194.467 255.99 194.792C256.302 195.111 256.683 195.336 257.134 195.469C257.592 195.602 258.043 195.668 258.487 195.668C259.098 195.668 259.608 195.578 260.02 195.399C260.431 195.22 260.742 194.985 260.955 194.693C261.167 194.401 261.273 194.086 261.273 193.748ZM266.477 185.729V196.494H265.293V185.729H266.477ZM265.084 182.614C265.084 182.389 265.153 182.2 265.293 182.047C265.439 181.888 265.638 181.809 265.89 181.809C266.142 181.809 266.341 181.888 266.487 182.047C266.639 182.2 266.715 182.389 266.715 182.614C266.715 182.833 266.639 183.022 266.487 183.182C266.341 183.334 266.142 183.41 265.89 183.41C265.638 183.41 265.439 183.334 265.293 183.182C265.153 183.022 265.084 182.833 265.084 182.614ZM276.814 185.729H277.918V196.305C277.918 197.24 277.739 198.042 277.381 198.712C277.029 199.382 276.529 199.896 275.879 200.254C275.235 200.613 274.476 200.792 273.6 200.792C273.156 200.792 272.698 200.722 272.227 200.583C271.763 200.45 271.322 200.245 270.904 199.966C270.493 199.694 270.141 199.356 269.849 198.951L270.516 198.225C270.954 198.755 271.421 199.143 271.919 199.389C272.416 199.641 272.954 199.767 273.531 199.767C274.214 199.767 274.791 199.631 275.262 199.359C275.739 199.087 276.101 198.696 276.346 198.185C276.598 197.674 276.724 197.061 276.724 196.344V188.096L276.814 185.729ZM269.252 191.221V191.012C269.252 190.176 269.345 189.423 269.531 188.753C269.723 188.077 269.999 187.499 270.357 187.022C270.715 186.538 271.149 186.17 271.66 185.918C272.178 185.659 272.761 185.53 273.411 185.53C274.035 185.53 274.589 185.632 275.073 185.838C275.557 186.044 275.975 186.339 276.326 186.723C276.678 187.108 276.96 187.566 277.172 188.096C277.391 188.627 277.55 189.217 277.65 189.867V192.524C277.57 193.134 277.424 193.695 277.212 194.205C277 194.709 276.718 195.15 276.366 195.529C276.015 195.9 275.59 196.189 275.093 196.394C274.602 196.593 274.035 196.693 273.391 196.693C272.748 196.693 272.171 196.56 271.66 196.295C271.149 196.029 270.715 195.655 270.357 195.17C269.999 194.68 269.723 194.099 269.531 193.429C269.345 192.759 269.252 192.023 269.252 191.221ZM270.446 191.012V191.221C270.446 191.851 270.509 192.434 270.635 192.972C270.761 193.509 270.954 193.976 271.212 194.374C271.471 194.772 271.799 195.084 272.197 195.31C272.595 195.535 273.063 195.648 273.6 195.648C274.283 195.648 274.857 195.519 275.322 195.26C275.786 194.995 276.154 194.646 276.426 194.215C276.698 193.777 276.897 193.3 277.023 192.783V189.688C276.95 189.337 276.837 188.979 276.685 188.614C276.539 188.249 276.333 187.914 276.068 187.609C275.809 187.297 275.477 187.048 275.073 186.863C274.675 186.67 274.191 186.574 273.62 186.574C273.076 186.574 272.602 186.687 272.197 186.912C271.799 187.138 271.471 187.453 271.212 187.858C270.954 188.256 270.761 188.723 270.635 189.261C270.509 189.798 270.446 190.381 270.446 191.012ZM282.216 188.027V196.494H281.032V185.729H282.167L282.216 188.027ZM281.948 190.444L281.42 190.146C281.46 189.509 281.59 188.912 281.808 188.355C282.027 187.798 282.322 187.307 282.694 186.883C283.072 186.458 283.513 186.126 284.017 185.888C284.528 185.649 285.092 185.53 285.709 185.53C286.246 185.53 286.727 185.602 287.151 185.748C287.576 185.894 287.937 186.126 288.236 186.445C288.534 186.763 288.76 187.171 288.912 187.669C289.071 188.166 289.151 188.773 289.151 189.489V196.494H287.957V189.479C287.957 188.737 287.854 188.156 287.649 187.738C287.443 187.314 287.151 187.012 286.773 186.833C286.395 186.654 285.947 186.564 285.43 186.564C284.86 186.564 284.359 186.69 283.928 186.942C283.503 187.188 283.145 187.509 282.853 187.907C282.568 188.299 282.349 188.72 282.196 189.171C282.044 189.615 281.961 190.04 281.948 190.444ZM180.883 216.932C180.883 216.534 180.817 216.179 180.684 215.867C180.551 215.555 180.332 215.277 180.027 215.031C179.729 214.779 179.324 214.547 178.813 214.335C178.309 214.116 177.679 213.901 176.923 213.688C176.2 213.483 175.547 213.257 174.963 213.012C174.379 212.766 173.879 212.484 173.461 212.166C173.049 211.848 172.734 211.476 172.515 211.052C172.297 210.621 172.187 210.12 172.187 209.549C172.187 208.992 172.307 208.485 172.545 208.027C172.784 207.57 173.119 207.175 173.55 206.843C173.988 206.512 174.502 206.256 175.092 206.077C175.689 205.898 176.343 205.809 177.052 205.809C178.067 205.809 178.943 206.001 179.679 206.386C180.422 206.77 180.996 207.291 181.4 207.948C181.811 208.598 182.017 209.327 182.017 210.136H180.793C180.793 209.506 180.644 208.946 180.346 208.455C180.054 207.958 179.629 207.57 179.072 207.291C178.522 207.006 177.848 206.863 177.052 206.863C176.256 206.863 175.587 206.986 175.043 207.231C174.505 207.47 174.097 207.792 173.819 208.196C173.547 208.594 173.411 209.039 173.411 209.53C173.411 209.874 173.477 210.193 173.61 210.485C173.743 210.77 173.958 211.039 174.257 211.291C174.562 211.536 174.963 211.768 175.46 211.987C175.958 212.199 176.571 212.402 177.301 212.594C178.071 212.806 178.754 213.042 179.351 213.3C179.948 213.559 180.452 213.857 180.863 214.196C181.274 214.527 181.586 214.915 181.798 215.36C182.01 215.804 182.117 216.322 182.117 216.912C182.117 217.502 181.991 218.033 181.738 218.504C181.493 218.968 181.145 219.363 180.694 219.688C180.249 220.013 179.722 220.262 179.112 220.434C178.508 220.606 177.848 220.693 177.132 220.693C176.489 220.693 175.849 220.61 175.212 220.444C174.575 220.278 173.991 220.023 173.461 219.678C172.937 219.326 172.515 218.875 172.197 218.325C171.885 217.774 171.73 217.118 171.73 216.355H172.943C172.943 216.965 173.066 217.479 173.311 217.897C173.557 218.315 173.882 218.653 174.286 218.912C174.698 219.17 175.149 219.359 175.64 219.479C176.137 219.592 176.635 219.648 177.132 219.648C177.895 219.648 178.555 219.535 179.112 219.31C179.676 219.084 180.11 218.769 180.415 218.365C180.727 217.953 180.883 217.476 180.883 216.932ZM188.554 209.729V210.704H183.161V209.729H188.554ZM185.141 206.963H186.325V217.877C186.325 218.374 186.391 218.749 186.524 219.001C186.657 219.253 186.829 219.422 187.041 219.509C187.254 219.595 187.483 219.638 187.728 219.638C187.907 219.638 188.08 219.628 188.245 219.608C188.411 219.582 188.56 219.555 188.693 219.529L188.743 220.533C188.597 220.58 188.408 220.616 188.176 220.643C187.944 220.676 187.711 220.693 187.479 220.693C187.022 220.693 186.617 220.61 186.265 220.444C185.914 220.271 185.639 219.98 185.44 219.568C185.241 219.15 185.141 218.583 185.141 217.867V206.963ZM197.946 218.006V209.729H199.14V220.494H197.996L197.946 218.006ZM198.165 216.016L198.782 215.997C198.782 216.673 198.702 217.297 198.543 217.867C198.384 218.437 198.135 218.935 197.797 219.359C197.458 219.784 197.021 220.112 196.483 220.344C195.946 220.577 195.299 220.693 194.543 220.693C194.019 220.693 193.538 220.62 193.101 220.474C192.669 220.321 192.298 220.082 191.986 219.757C191.675 219.432 191.432 219.011 191.26 218.494C191.094 217.976 191.011 217.35 191.011 216.613V209.729H192.195V216.633C192.195 217.21 192.258 217.691 192.384 218.076C192.517 218.461 192.696 218.769 192.921 219.001C193.154 219.233 193.419 219.399 193.717 219.499C194.016 219.598 194.338 219.648 194.683 219.648C195.558 219.648 196.248 219.479 196.752 219.141C197.263 218.802 197.624 218.358 197.836 217.807C198.055 217.25 198.165 216.653 198.165 216.016ZM209.248 218.404V205.212H210.442V220.494H209.328L209.248 218.404ZM201.776 215.221V215.012C201.776 214.176 201.873 213.423 202.065 212.753C202.257 212.077 202.533 211.499 202.891 211.022C203.255 210.538 203.693 210.17 204.204 209.918C204.715 209.659 205.292 209.53 205.935 209.53C206.565 209.53 207.122 209.632 207.607 209.838C208.091 210.044 208.505 210.339 208.85 210.723C209.202 211.108 209.484 211.566 209.696 212.096C209.915 212.627 210.074 213.217 210.174 213.867V216.524C210.094 217.134 209.948 217.695 209.736 218.205C209.524 218.709 209.242 219.15 208.89 219.529C208.539 219.9 208.114 220.189 207.617 220.394C207.126 220.593 206.559 220.693 205.915 220.693C205.279 220.693 204.705 220.56 204.194 220.295C203.683 220.029 203.249 219.655 202.891 219.17C202.533 218.68 202.257 218.099 202.065 217.429C201.873 216.759 201.776 216.023 201.776 215.221ZM202.97 215.012V215.221C202.97 215.851 203.033 216.434 203.159 216.972C203.285 217.509 203.478 217.976 203.736 218.374C203.995 218.772 204.323 219.084 204.721 219.31C205.119 219.535 205.59 219.648 206.134 219.648C206.817 219.648 207.391 219.519 207.855 219.26C208.32 218.995 208.691 218.646 208.97 218.215C209.248 217.777 209.451 217.3 209.577 216.783V213.688C209.497 213.337 209.381 212.979 209.228 212.614C209.076 212.249 208.867 211.914 208.602 211.609C208.343 211.297 208.011 211.048 207.607 210.863C207.209 210.67 206.724 210.574 206.154 210.574C205.604 210.574 205.129 210.687 204.731 210.912C204.333 211.138 204.002 211.453 203.736 211.858C203.478 212.256 203.285 212.723 203.159 213.261C203.033 213.798 202.97 214.381 202.97 215.012ZM214.899 209.729V220.494H213.716V209.729H214.899ZM213.507 206.614C213.507 206.389 213.576 206.2 213.716 206.047C213.861 205.888 214.06 205.809 214.312 205.809C214.565 205.809 214.763 205.888 214.909 206.047C215.062 206.2 215.138 206.389 215.138 206.614C215.138 206.833 215.062 207.022 214.909 207.182C214.763 207.334 214.565 207.41 214.312 207.41C214.06 207.41 213.861 207.334 213.716 207.182C213.576 207.022 213.507 206.833 213.507 206.614ZM217.496 215.28V214.952C217.496 214.169 217.609 213.446 217.835 212.783C218.06 212.12 218.382 211.546 218.8 211.062C219.224 210.578 219.732 210.203 220.322 209.937C220.912 209.666 221.569 209.53 222.292 209.53C223.021 209.53 223.681 209.666 224.272 209.937C224.862 210.203 225.369 210.578 225.794 211.062C226.218 211.546 226.543 212.12 226.769 212.783C226.994 213.446 227.107 214.169 227.107 214.952V215.28C227.107 216.063 226.994 216.786 226.769 217.449C226.543 218.106 226.218 218.676 225.794 219.16C225.376 219.645 224.872 220.023 224.282 220.295C223.691 220.56 223.035 220.693 222.312 220.693C221.582 220.693 220.922 220.56 220.332 220.295C219.741 220.023 219.234 219.645 218.81 219.16C218.385 218.676 218.06 218.106 217.835 217.449C217.609 216.786 217.496 216.063 217.496 215.28ZM218.68 214.952V215.28C218.68 215.871 218.76 216.431 218.919 216.962C219.078 217.486 219.31 217.953 219.615 218.365C219.921 218.769 220.299 219.087 220.75 219.32C221.201 219.552 221.721 219.668 222.312 219.668C222.895 219.668 223.409 219.552 223.854 219.32C224.305 219.087 224.683 218.769 224.988 218.365C225.293 217.953 225.522 217.486 225.675 216.962C225.834 216.431 225.913 215.871 225.913 215.28V214.952C225.913 214.368 225.834 213.814 225.675 213.29C225.522 212.766 225.29 212.299 224.978 211.888C224.673 211.476 224.295 211.151 223.844 210.912C223.393 210.674 222.875 210.554 222.292 210.554C221.708 210.554 221.191 210.674 220.74 210.912C220.295 211.151 219.917 211.476 219.605 211.888C219.3 212.299 219.068 212.766 218.909 213.29C218.756 213.814 218.68 214.368 218.68 214.952Z" fill="#610034"/>
<defs>
<filter id="filter0_d_8_15641" x="1.15015" y="4.29153e-05" width="412.475" height="414.244" filterUnits="userSpaceOnUse" color-interpolation-filters="sRGB">
<feFlood flood-opacity="0" result="BackgroundImageFix"/>
<feColorMatrix in="SourceAlpha" type="matrix" values="0 0 0 0 0 0 0 0 0 0 0 0 0 0 0 0 0 0 127 0" result="hardAlpha"/>
<feOffset dx="7.95943" dy="6.19067"/>
<feGaussianBlur stdDeviation="5.61582"/>
<feComposite in2="hardAlpha" operator="out"/>
<feColorMatrix type="matrix" values="0 0 0 0 0 0 0 0 0 0 0 0 0 0 0 0 0 0 0.25 0"/>
<feBlend mode="normal" in2="BackgroundImageFix" result="effect1_dropShadow_8_15641"/>
<feBlend mode="normal" in="SourceGraphic" in2="effect1_dropShadow_8_15641" result="shape"/>
</filter>
</defs>
</svg>
